<svg width="57" height="56" viewBox="0 0 57 56" fill="none" xmlns="http://www.w3.org/2000/svg">
<path d="M8.88891 38.2528C8.43132 38.2528 8.06055 38.6237 8.06055 39.0811V40.4065C8.06055 40.864 8.43132 41.2349 8.88891 41.2349C9.34649 41.2349 9.71727 40.864 9.71727 40.4065V39.0811C9.71727 38.6237 9.34649 38.2528 8.88891 38.2528Z" fill="#BEBEBE"/>
<path d="M22.6835 38.2528C22.2259 38.2528 21.8551 38.6237 21.8551 39.0811V40.4065C21.8551 40.864 22.2259 41.2349 22.6835 41.2349C23.141 41.2349 23.5118 40.864 23.5118 40.4065V39.0811C23.5118 38.6237 23.141 38.2528 22.6835 38.2528Z" fill="#BEBEBE"/>
<path d="M18.1488 39.7427C17.8037 39.4421 17.2806 39.478 16.9801 39.823C16.3479 40.5484 15.2245 40.5484 14.5923 39.823C14.2915 39.478 13.7686 39.4421 13.4235 39.7427C13.0787 40.0432 13.0427 40.5664 13.3432 40.9114C14.6351 42.3942 16.9371 42.3942 18.229 40.9114C18.5296 40.5665 18.4936 40.0433 18.1488 39.7427Z" fill="#BEBEBE"/>
<path d="M54.1267 35.3859C54.2317 33.221 53.7978 31.0767 52.8471 29.1098C52.5541 28.503 52.1709 27.8837 51.6413 27.1609C51.5947 27.0973 51.5408 27.0422 51.4815 26.9961C51.1968 26.7746 50.789 26.7585 50.4836 26.9822C50.1145 27.2525 50.0346 27.7709 50.305 28.14C50.7734 28.7795 51.1073 29.3167 51.3555 29.8307C52.3764 31.9428 52.7102 34.2907 52.3394 36.5903C50.3008 36.32 48.5853 34.1915 47.7442 32.9469C47.0574 31.9308 45.7555 31.4963 44.5779 31.8908C41.4947 32.9233 38.5411 32.2961 37.055 31.8305C35.9007 31.4687 34.625 31.9145 33.9528 32.9147C33.1102 34.1685 31.3925 36.3104 29.3491 36.5936C29.345 36.5926 29.341 36.5915 29.337 36.5905C28.3816 30.6764 32.1572 25.0632 38.0071 23.6241C41.4376 22.7803 45.017 23.4924 47.8283 25.578C48.1956 25.8505 48.7144 25.7739 48.9871 25.4063C49.2043 25.1135 49.1996 24.7246 49.0028 24.4408C48.9527 24.3684 48.89 24.3028 48.8153 24.2475C41.825 19.0615 31.6542 21.8453 28.4357 30.0046C26.7197 25.191 21.7423 21.6211 15.7864 21.6211C8.19853 21.6211 2.06469 27.4463 2.50604 34.4916C2.52338 34.7692 2.59318 35.0316 2.70286 35.2719C-1.60826 36.9666 -0.517807 42.9825 4.24184 43.2287C5.11029 45.5591 6.57914 47.51 8.43677 48.9404C7.64253 49.8016 6.91336 50.799 6.26392 51.9201C5.30612 53.573 6.41689 55.7108 8.26292 55.7108L15.8889 55.7107C16.9849 55.7107 16.9849 54.054 15.8889 54.054L8.26259 54.0541C7.69754 54.0541 7.38243 53.2936 7.69721 52.7507C8.3346 51.6502 9.05163 50.6859 9.83206 49.8737C13.5817 52.0342 18.2053 52.1373 22.0727 50.0084C22.8038 50.7916 23.4782 51.7103 24.0811 52.7507C24.3944 53.2915 24.0806 54.054 23.5156 54.054H15.8889C14.7929 54.054 14.7929 55.7107 15.8889 55.7107H23.5156C25.3654 55.7107 26.4696 53.5684 25.5146 51.9202C24.9056 50.8689 24.2265 49.9252 23.4897 49.1018C25.5653 47.571 27.1243 45.4576 27.9803 43.0125C28.3313 43.1229 28.6988 43.1931 29.0777 43.2211C29.9372 45.5719 31.4059 47.5359 33.249 48.9763C32.4668 49.83 31.7489 50.8155 31.109 51.9201C30.1513 53.573 31.2631 55.7107 33.1081 55.7107H48.361C50.2046 55.7107 51.3188 53.575 50.3604 51.9207C49.7217 50.8164 49.0033 49.8305 48.2194 48.9756C50.1007 47.5052 51.5484 45.527 52.3921 43.221C57.0166 42.8813 58.2363 37.2801 54.1267 35.3859ZM6.90507 26.9902C11.5577 22.0369 20.0186 22.0416 24.6795 27.0017C26.6108 29.057 27.5817 31.6784 27.4135 34.383C27.3731 35.03 26.6944 34.9213 26.046 34.9205C25.0229 34.8277 22.9754 34.3308 20.5503 32.0737C19.6014 31.1906 18.1791 31.068 17.0914 31.7756C13.082 34.3838 9.03296 34.9255 4.789 34.9268C4.75498 34.9185 4.19247 34.9186 4.15934 34.388C3.98991 31.6829 4.96505 29.0557 6.90507 26.9902ZM3.5532 36.7444C3.32203 38.312 3.38178 39.9276 3.72693 41.4872C1.1377 40.857 0.844901 37.5937 3.5532 36.7444ZM21.7768 48.2646C16.0647 51.8198 8.48382 49.3532 5.89768 42.9242C5.10035 40.9432 4.8778 38.6687 5.25995 36.5835C9.87193 36.5793 14.1289 35.6795 17.9947 33.1645C18.4437 32.8722 19.0304 32.9226 19.4216 33.2866C22.182 35.8558 24.6163 36.4479 25.8644 36.5673C24.4415 38.2872 24.6595 40.7464 26.4968 42.2227C25.6822 44.708 23.9866 46.8882 21.7768 48.2646ZM27.7548 37.0777C27.8521 37.393 28.0407 37.665 28.2874 37.867C28.2192 39.0833 28.3153 40.2914 28.567 41.4581C26.4246 40.8544 25.8439 38.3246 27.7548 37.0777ZM48.9263 52.7507C49.2366 53.2864 48.9311 54.054 48.3607 54.054H33.1079C32.5444 54.054 32.2275 53.294 32.5423 52.7506C33.168 51.6706 33.8715 50.7216 34.6371 49.9177C38.3871 52.0995 43.0812 52.099 46.8309 49.9168C47.5983 50.7222 48.302 51.6714 48.9263 52.7507ZM48.5898 46.3776C44.3415 51.053 37.1578 51.093 32.8762 46.3757C30.8678 44.1631 29.8141 41.2039 29.9313 38.1667C32.3097 37.6699 34.1673 35.5652 35.3277 33.8387C35.5936 33.443 36.1003 33.2676 36.5594 33.4112C38.2369 33.9369 41.5779 34.6426 45.1039 33.4617C45.5784 33.3027 46.0998 33.4726 46.3715 33.8746C47.4942 35.5358 49.2703 37.5502 51.5366 38.1191C51.668 41.1726 50.6115 44.1527 48.5898 46.3776ZM52.901 41.4649C53.1442 40.3407 53.2435 39.1783 53.1896 38.0073C53.5051 37.8178 53.7573 37.5295 53.8939 37.1552C55.747 38.4435 55.0922 40.8854 52.901 41.4649Z" fill="#BEBEBE"/>
<path d="M50.4836 26.9822C50.789 26.7585 51.1968 26.7746 51.4815 26.9961L50.2422 25.7184L49.0028 24.4408C49.1996 24.7246 49.2043 25.1135 48.9871 25.4063C48.7144 25.7739 48.1956 25.8505 47.8283 25.578L50.305 28.14C50.0346 27.7709 50.1145 27.2525 50.4836 26.9822Z" fill="#BEBEBE"/>
<path d="M33.837 38.2528C33.3794 38.2528 33.0087 38.6237 33.0087 39.0811V40.4065C33.0087 40.864 33.3794 41.2349 33.837 41.2349C34.2946 41.2349 34.6654 40.864 34.6654 40.4065V39.0811C34.6654 38.6237 34.2945 38.2528 33.837 38.2528Z" fill="#BEBEBE"/>
<path d="M47.6317 38.2528C47.1741 38.2528 46.8033 38.6237 46.8033 39.0811V40.4065C46.8033 40.864 47.1741 41.2349 47.6317 41.2349C48.0893 41.2349 48.4601 40.864 48.4601 40.4065V39.0811C48.4601 38.6237 48.0893 38.2528 47.6317 38.2528Z" fill="#BEBEBE"/>
<path d="M43.0972 39.7427C42.752 39.4421 42.229 39.478 41.9284 39.823C41.295 40.5499 40.1739 40.5499 39.5405 39.823C39.2398 39.478 38.7166 39.4421 38.3718 39.7427C38.0269 40.0433 37.9909 40.5665 38.2915 40.9114C39.5837 42.3941 41.8851 42.3941 43.1774 40.9114C43.478 40.5665 43.442 40.0433 43.0972 39.7427Z" fill="#BEBEBE"/>
<path d="M39.7986 2.89321C38.9174 0.145812 35.5947 -0.868101 33.3368 0.831142H23.711C19.3431 0.831142 15.7897 4.38459 15.7897 8.75247V12.8611C15.7897 17.2296 19.3431 20.7836 23.711 20.7836H34.472C38.8405 20.7836 42.3944 17.2296 42.3944 12.8611V8.75247C42.3944 6.51325 41.4502 4.39364 39.7986 2.89321ZM37.4804 2.27415C38.5275 3.18733 38.6388 4.78485 37.7285 5.83543L30.4786 14.2022C28.0768 16.9739 23.5124 15.8745 22.6781 12.2493L21.7656 8.28417C21.4848 7.06394 22.2449 5.84228 23.4598 5.56086L23.9514 5.44699C25.1147 5.17738 26.342 5.75922 26.7379 7.48066C26.991 8.58062 28.3876 8.9282 29.1268 8.07521L33.9379 2.52287C34.8462 1.47461 36.4294 1.35765 37.4804 2.27415ZM40.7377 12.8611C40.7377 16.3161 37.9269 19.1269 34.472 19.1269H23.711C20.2567 19.1269 17.4464 16.3161 17.4464 12.8611V8.75247C17.4464 5.29821 20.2566 2.48786 23.711 2.48786H31.7761L28.2267 6.58416C27.664 4.59311 25.6335 3.3572 23.5776 3.83301L23.086 3.94688C20.9824 4.43418 19.6657 6.54661 20.1512 8.65572L21.0637 12.6209C22.21 17.6026 28.4657 19.0547 31.7306 15.2872C39.7468 6.036 39.4529 6.5497 39.8012 5.46002C40.4064 6.43848 40.7377 7.57444 40.7377 8.75247V12.8611Z" fill="#BEBEBE"/>
</svg>
