<svg width="192" height="140" viewBox="0 0 192 140" fill="none" xmlns="http://www.w3.org/2000/svg">
<g opacity="0.25">
<path d="M113.833 125.289C140.281 119.638 160.826 110.856 159.721 105.674C158.615 100.492 136.278 100.871 109.829 106.522C83.3808 112.173 62.8361 120.955 63.9416 126.137C65.0472 131.319 87.3842 130.94 113.833 125.289Z" fill="#650000"/>
</g>
<path d="M49.3591 127.578L10.1403 113.004L3.93796 103.563L8.62738 103.898L47.3102 94.2211L101.778 114.468L49.3591 127.578Z" fill="white"/>
<path d="M85.0352 108.243C82.9724 109.715 80.2062 111.046 76.8464 111.263C66.7338 111.916 50.4819 102.346 50.4819 102.346C50.4819 102.346 41.5476 105.68 31.2868 104.076C26.0798 103.266 22.7561 100.369 22.7561 100.369L47.3139 94.2257L85.0352 108.243Z" fill="#E5E5E5"/>
<path d="M49.1668 128.346C49.1361 128.338 49.1105 128.332 49.0811 128.319L9.86229 113.746C9.70362 113.685 9.57168 113.581 9.4767 113.438L3.27433 103.997C3.10874 103.744 3.1002 103.427 3.25158 103.166C3.40171 102.91 3.68889 102.758 3.98805 102.778L8.55474 103.104L47.1111 93.4558C47.267 93.4183 47.4281 93.4256 47.5765 93.484L102.046 113.726C102.37 113.844 102.579 114.162 102.558 114.509C102.539 114.852 102.298 115.146 101.962 115.231L49.5426 128.341C49.42 128.376 49.2896 128.376 49.1668 128.346ZM10.6561 112.356L49.4015 126.758L99.1192 114.321L47.2561 95.0448L8.81596 104.662C8.73548 104.68 8.65115 104.692 8.57187 104.683L5.46648 104.463L10.6561 112.356Z" fill="#650000"/>
<path d="M58.2862 109.796C58.2889 106.685 56.6801 104.163 54.6987 104.161C54.6987 104.161 53.288 104.377 52.112 104.39C50.6368 104.406 49.0919 104.154 48.1038 104.153C46.1224 104.152 44.5124 106.67 44.5096 109.781C44.5069 112.892 46.1157 115.414 48.0971 115.416C49.0853 115.416 50.6288 115.168 52.1066 115.186C53.2865 115.201 54.6933 115.418 54.6933 115.418C56.6734 115.425 58.2847 112.902 58.2862 109.796Z" fill="#62CC40"/>
<path d="M47.403 115.825C45.4535 115.342 44.0135 112.863 44.0138 109.783C44.0119 108.186 44.4167 106.679 45.1434 105.539C45.9147 104.329 46.9636 103.665 48.0987 103.663C48.5487 103.666 49.1023 103.711 49.6867 103.763C50.436 103.829 51.2863 103.903 52.0967 103.898C53.2293 103.885 54.6003 103.675 54.6169 103.674L54.6936 103.671C55.8288 103.67 56.8738 104.341 57.6454 105.548C58.3735 106.689 58.7715 108.199 58.7734 109.797C58.7753 111.394 58.3705 112.901 57.6438 114.041C56.8725 115.251 55.8236 115.915 54.6885 115.917L54.6143 115.909C54.599 115.905 53.2229 115.695 52.0967 115.683C51.2849 115.672 50.4363 115.744 49.6861 115.814C49.0982 115.864 48.5436 115.911 48.0923 115.914C47.8596 115.911 47.6282 115.88 47.403 115.825ZM54.7283 104.652C54.4856 104.69 53.2141 104.869 52.1135 104.885C51.2533 104.895 50.3761 104.819 49.6012 104.746C49.0386 104.694 48.5016 104.648 48.1002 104.647C47.3128 104.647 46.5587 105.15 45.9745 106.065C45.3458 107.05 44.998 108.37 44.9968 109.782C44.9983 112.569 46.4149 114.923 48.0921 114.925C48.4986 114.928 49.0315 114.881 49.5977 114.831C50.3696 114.761 51.2463 114.685 52.1067 114.697C53.2048 114.713 54.4798 114.893 54.7202 114.931C55.4948 114.916 56.2323 114.414 56.8088 113.509C57.4376 112.524 57.7854 111.203 57.7865 109.791C57.7876 108.38 57.4401 107.061 56.8147 106.075C56.2446 105.174 55.5018 104.664 54.7283 104.652Z" fill="#104913"/>
<path d="M50.0684 109.79C50.0675 105.836 48.782 104.16 48.0981 104.159C47.3874 104.157 44.1083 104.508 42.0967 104.651C38.7022 104.897 34.1418 104.149 32.7037 104.146C30.9265 104.923 27.7587 106.67 27.7355 109.776C27.7558 112.882 30.9232 114.632 32.7022 115.409C34.1402 115.412 38.7016 114.661 42.0974 114.915C44.1073 115.065 47.3922 115.416 48.103 115.418C48.7817 115.418 50.0681 113.748 50.0684 109.79Z" fill="#62CC40"/>
<path d="M50.0695 109.79C50.0686 105.836 48.7843 104.155 48.0991 104.159C47.3884 104.157 44.1093 104.508 42.0964 104.656C38.702 104.902 34.1415 104.154 32.6984 104.15C30.9212 104.927 27.7534 106.674 27.7302 109.78C27.7504 112.886 30.9178 114.636 32.6968 115.413C33.4075 115.415 34.8911 115.234 36.6125 115.078C38.3672 114.921 40.3801 114.794 42.0908 114.924C42.5383 114.959 43.0497 114.999 43.5804 115.048C45.4343 115.214 47.5428 115.426 48.0963 115.427C48.7827 115.418 50.0691 113.749 50.0695 109.79Z" fill="#62CC40"/>
<path d="M40.6271 114.867C41.132 114.867 41.6217 114.885 42.0909 114.919C42.5384 114.954 43.0485 114.999 43.5804 115.044C45.4344 115.209 47.5429 115.421 48.0964 115.422C48.7803 115.423 50.0679 113.749 50.0734 109.791C50.0725 105.837 48.7882 104.157 48.103 104.161C47.3923 104.159 44.1081 104.508 42.1003 104.658C38.7059 104.904 34.1467 104.151 32.7023 104.152C30.9251 104.928 27.7573 106.675 27.7341 109.781C27.7543 112.887 30.9217 114.638 32.7007 115.414C32.9449 115.415 33.2759 115.394 33.6746 115.362C34.4504 115.299 35.4778 115.184 36.6164 115.08C37.8893 114.96 39.2977 114.864 40.6271 114.867Z" fill="#62CC40"/>
<path d="M32.5929 115.898L32.4994 115.859C29.0733 114.365 27.2586 112.259 27.2414 109.779C27.2586 107.29 29.0807 105.189 32.5061 103.696L32.598 103.653L32.7016 103.652C33.2014 103.65 34.0171 103.733 35.0503 103.836C37.068 104.042 39.8337 104.319 42.0626 104.154C42.9137 104.093 43.9859 103.994 45.0198 103.897C46.4422 103.766 47.669 103.657 48.1036 103.656C49.125 103.653 50.5658 105.557 50.565 109.782C50.559 114.006 49.1186 115.903 48.0985 115.901C47.669 115.903 46.4377 115.788 45.0158 115.654C43.9814 115.555 42.9087 115.458 42.0559 115.394C39.8274 115.228 37.0606 115.505 35.0402 115.705C34.0102 115.809 33.1975 115.89 32.6925 115.89L32.5929 115.898ZM32.8002 104.637C30.6975 105.567 28.2401 107.207 28.2244 109.777C28.2431 112.34 30.6994 113.98 32.7972 114.917C33.2663 114.908 34.0458 114.829 34.9417 114.741C36.9953 114.538 39.8118 114.257 42.126 114.428C42.989 114.495 44.0618 114.592 45.1026 114.687C46.44 114.811 47.7084 114.93 48.0945 114.927C48.4037 114.885 49.5732 113.49 49.5756 109.787C49.5728 106.083 48.4082 104.687 48.0924 104.647C47.7127 104.645 46.4462 104.761 45.1018 104.884C44.0629 104.98 42.9907 105.079 42.128 105.142C39.8109 105.313 36.9979 105.03 34.9431 104.82C34.0532 104.73 33.2694 104.65 32.8002 104.637Z" fill="#104913"/>
<path d="M36.2921 109.782C36.2949 106.671 34.686 104.149 32.7046 104.148C32.7046 104.148 31.2939 104.364 30.1179 104.377C28.6427 104.392 27.0978 104.14 26.1096 104.14C26.1096 104.14 24.1416 106.656 24.144 109.769C24.1413 112.88 26.1081 115.403 26.1081 115.403C27.0962 115.403 28.6398 115.155 30.1176 115.173C31.2975 115.188 32.7043 115.406 32.7043 115.406C34.6794 115.412 36.2894 112.894 36.2921 109.782Z" fill="#62CC40"/>
<path d="M25.8624 115.896L25.7135 115.707C25.6314 115.6 23.6478 113.013 23.6451 109.77C23.6475 106.528 25.6318 103.945 25.7172 103.841L25.8675 103.65L26.1066 103.65C26.5565 103.652 27.1102 103.697 27.6945 103.749C28.4438 103.815 29.2941 103.89 30.1046 103.884C31.2321 103.87 32.6082 103.662 32.6249 103.66L32.7015 103.658C34.9872 103.658 36.7819 106.351 36.7814 109.783C36.7782 111.379 36.3785 112.888 35.6518 114.028C34.8805 115.238 33.8316 115.902 32.6964 115.903L32.6222 115.896C32.6069 115.892 31.2308 115.682 30.1045 115.669C29.2928 115.658 28.4442 115.731 27.694 115.8C27.1061 115.851 26.5514 115.898 26.1002 115.9L25.8624 115.896ZM26.3561 104.64C25.9232 105.272 24.6341 107.348 24.632 109.775C24.6311 112.197 25.9192 114.281 26.3505 114.909C26.7173 114.896 27.1506 114.857 27.6055 114.817C28.3775 114.748 29.2542 114.671 30.1146 114.683C31.2127 114.7 32.4877 114.879 32.7281 114.917C33.5028 114.902 34.2402 114.401 34.8168 113.495C35.4455 112.51 35.7933 111.19 35.7945 109.778C35.7931 107.013 34.3956 104.669 32.7311 104.637C32.4884 104.675 31.2169 104.854 30.1163 104.87C29.256 104.88 28.3789 104.804 27.604 104.732C27.1526 104.691 26.7166 104.653 26.3561 104.64Z" fill="#104913"/>
<path d="M28.9543 109.775C28.957 106.664 27.7276 104.144 26.219 104.14C24.704 104.14 23.4787 106.661 23.4773 109.767C23.4746 112.879 24.704 115.399 26.2126 115.403C27.7264 115.408 28.9568 112.888 28.9543 109.775Z" fill="#E1FFD4"/>
<path d="M26.8541 104.862C26.6415 104.734 26.4188 104.668 26.1964 104.667C25.5724 104.665 24.9718 105.184 24.5167 106.125C24.0401 107.11 23.7753 108.424 23.7704 109.829C23.7705 112.116 24.4935 114.158 25.536 114.796C25.7486 114.925 25.9713 114.99 26.1937 114.991C26.8176 114.994 27.4183 114.474 27.8734 113.533C28.35 112.548 28.6147 111.234 28.6197 109.829C28.6196 107.542 27.8914 105.499 26.8541 104.862Z" fill="#E1FFD4"/>
<path d="M28.6112 110.218C28.6159 110.088 28.6155 109.958 28.6203 109.829C28.6202 107.542 27.8972 105.501 26.8548 104.863C26.6422 104.734 26.4196 104.668 26.1972 104.667C25.5733 104.665 24.9727 105.184 24.5177 106.125C24.2864 106.6 24.1065 107.153 23.9803 107.752C24.0942 107.335 24.2376 106.952 24.404 106.608C24.8756 105.644 25.4851 105.11 26.1307 105.113C26.3582 105.115 26.586 105.182 26.8037 105.312C27.8422 105.943 28.574 107.949 28.6112 110.218Z" fill="#BEE8AA"/>
<path d="M28.5538 112.707C28.6636 110.833 28.6751 109.028 28.6392 107.15C29.4891 108.854 29.4659 111.037 28.5538 112.707Z" fill="#104913"/>
<path d="M28.0226 105.542C27.4565 105.174 26.9412 104.709 26.3312 104.651C24.672 104.751 23.9924 108.097 23.9784 109.473C23.9115 111.129 24.4286 114.027 25.9306 114.871C26.54 115.152 27.0851 114.858 27.6812 114.533C27.2128 116.144 25.5138 116.207 24.4852 115.051C22.5165 112.864 22.5429 107.325 24.1355 104.922C24.609 104.17 25.4867 103.497 26.4613 103.662C27.4028 103.83 27.9792 104.662 28.0226 105.542Z" fill="#104913"/>
<path d="M27.861 109.912C27.8594 107.984 27.3331 106.355 26.6105 105.828C26.4491 105.712 26.2802 105.649 26.1012 105.648C25.1295 105.646 24.3423 107.559 24.3413 109.916C24.3414 109.938 24.3402 109.964 24.3402 109.986C24.3532 112.308 25.1384 114.186 26.0999 114.185C26.2303 114.185 26.358 114.152 26.4831 114.085C26.5265 114.063 26.5712 114.036 26.612 114.003C27.3367 113.465 27.8627 111.841 27.861 109.912Z" fill="#E1FFD4"/>
<path d="M27.861 109.912C27.8594 107.984 27.3331 106.355 26.6105 105.828C26.4491 105.712 26.2802 105.649 26.1012 105.648C25.1295 105.646 24.3423 107.559 24.3413 109.916C24.3414 109.938 24.3402 109.964 24.3402 109.986C24.773 107.508 26.2213 107.866 26.6176 108.307C27.8565 109.688 27.2501 112.672 26.478 114.083C26.5214 114.062 26.5661 114.035 26.6069 114.001C27.3367 113.465 27.8627 111.841 27.861 109.912Z" fill="#BEE8AA"/>
<path d="M25.8808 114.348C24.8931 114.104 24.1475 112.241 24.1473 109.911C24.1465 108.749 24.3365 107.65 24.6768 106.821C25.0412 105.939 25.5474 105.451 26.101 105.452C26.3183 105.452 26.5282 105.525 26.7255 105.672C27.5211 106.254 28.0552 107.962 28.0557 109.917C28.0561 111.872 27.5214 113.576 26.7253 114.161C26.5263 114.307 26.313 114.379 26.1008 114.381C26.0266 114.374 25.9524 114.366 25.8808 114.348ZM26.2351 105.855C26.189 105.843 26.1468 105.838 26.1033 105.838C25.7236 105.837 25.3348 106.246 25.0428 106.966C24.719 107.75 24.543 108.792 24.5398 109.905C24.5416 112.339 25.3478 113.978 26.1034 113.974C26.2338 113.974 26.3654 113.925 26.4968 113.833C27.1858 113.33 27.6657 111.716 27.667 109.908C27.6683 108.099 27.1868 106.487 26.4975 105.979C26.4142 105.921 26.3221 105.876 26.2351 105.855Z" fill="#104913"/>
<path d="M25.3626 109.908C25.3992 110.64 25.5023 111.366 25.705 112.062C25.905 112.704 26.1845 113.441 26.7278 113.836L26.4938 113.838C27.0104 113.417 27.2564 112.685 27.4208 112.041C27.8212 110.332 27.8458 107.264 26.4945 105.984C26.4023 105.918 26.3789 105.793 26.4503 105.702C26.5152 105.615 26.6379 105.602 26.7251 105.667C27.8685 106.688 28.0078 108.477 28.0553 109.912C28.051 110.655 27.9803 111.403 27.7995 112.135C27.5996 112.879 27.3563 113.644 26.7133 114.158C26.6457 114.212 26.5498 114.205 26.487 114.151C25.4049 113.101 25.3449 111.321 25.3626 109.908Z" fill="#104913"/>
<path d="M133.702 70.8007C133.702 70.8007 141.52 65.1097 143.014 58.0494C145.44 46.5543 136.292 41.4232 136.895 28.1193C137.677 10.9707 158.693 0.474392 178.162 10.685C184.118 13.8098 189.939 20.3175 187.253 27.1045C183.909 35.5698 167.922 30.0988 165.552 40.3316C164.369 45.4537 166.59 56.5996 162.888 66.2691C156.68 82.504 137.256 83.2976 137.256 83.2976L133.702 70.8007Z" fill="#FF8A42"/>
<path d="M187.255 27.0993C185.502 31.5373 180.275 32.1449 175.352 33.1917C173.225 33.6484 171.155 34.1791 169.451 35.1425C167.577 36.1996 166.14 37.7774 165.554 40.3263C165.391 41.0301 165.292 41.8475 165.236 42.7569C164.994 46.5262 165.442 51.9052 164.858 57.5233C164.557 60.4359 163.98 63.4106 162.891 66.2588C162.308 67.782 161.613 69.1687 160.824 70.429C158.226 74.593 154.657 77.414 151.08 79.3206C144.182 83.0016 137.259 83.2872 137.259 83.2872L133.702 70.8005C133.702 70.8005 136.932 68.4497 139.634 64.8981C141.092 62.9724 142.404 60.6954 142.964 58.2488C142.981 58.1823 142.992 58.1145 143.009 58.048C143.753 54.528 143.41 51.608 142.594 48.8644C141.471 45.078 139.448 41.6391 138.134 37.4413C137.285 34.7438 136.73 31.7335 136.895 28.1191C136.992 25.9704 137.409 23.9284 138.098 22.0186C139.666 17.6706 142.662 14.0018 146.565 11.345C154.656 5.84641 166.683 4.66185 178.162 10.6849C184.12 13.8046 189.939 20.3174 187.255 27.0993Z" fill="#FF8A42"/>
<path d="M187.255 27.0993C185.502 31.5373 180.275 32.1449 175.352 33.1917C173.225 33.6484 171.155 34.1791 169.451 35.1425C167.577 36.1996 166.14 37.7774 165.554 40.3263C165.391 41.0301 165.292 41.8475 165.236 42.7569C164.994 46.5262 165.442 51.9052 164.858 57.5233C164.557 60.4359 163.98 63.4106 162.891 66.2588C162.308 67.782 161.613 69.1687 160.824 70.429C158.226 74.593 154.657 77.414 151.08 79.3206C144.182 83.0016 137.259 83.2872 137.259 83.2872L133.702 70.8005C133.702 70.8005 136.415 68.827 138.948 65.7604C139.18 65.4811 139.408 65.1953 139.634 64.8981C141.092 62.9724 142.404 60.6954 142.964 58.2488C142.981 58.1823 142.992 58.1145 143.009 58.048C143.753 54.528 143.41 51.608 142.594 48.8644C141.471 45.078 139.448 41.6391 138.134 37.4413C137.285 34.7438 136.73 31.7335 136.895 28.1191C136.992 25.9704 137.409 23.9284 138.098 22.0186C139.666 17.6706 142.662 14.0018 146.565 11.345C154.656 5.84641 166.683 4.66185 178.162 10.6849C183.302 13.3795 188.33 18.5885 187.903 24.3213C187.835 25.2333 187.627 26.1648 187.255 27.0993Z" fill="#FF8A42"/>
<path d="M187.254 27.0996C185.501 31.5376 180.274 32.1452 175.351 33.192C173.224 33.6487 171.154 34.1794 169.45 35.1428C167.576 36.1999 166.139 37.7777 165.553 40.3266C165.39 41.0304 165.291 41.8478 165.235 42.7572C164.994 46.5265 165.441 51.9055 164.857 57.5236C164.556 60.4362 163.979 63.411 162.89 66.2591C162.307 67.7823 161.612 69.169 160.823 70.4294C158.225 74.5933 154.656 77.4143 151.079 79.3209C144.181 83.0019 137.258 83.2876 137.258 83.2876L133.701 70.8009C133.701 70.8009 136.414 68.8273 138.947 65.7608C140.588 66.2209 143.494 67.4887 147.166 70.9606C151.387 74.9542 159.583 70.834 162.305 60.9111C165.033 50.9844 157.803 39.012 164.498 31.6907C171.932 23.5529 184.602 31.3749 187.897 24.3203C187.834 25.2336 187.626 26.1651 187.254 27.0996Z" fill="#EA5A1B"/>
<path d="M150.658 72.4704C151.386 74.3394 151.608 76.6048 151.08 79.3363C144.183 83.017 137.26 83.3026 137.26 83.3026L133.701 70.8052C133.702 70.8001 133.713 70.7975 133.72 70.7936C133.726 70.7898 133.733 70.7859 133.739 70.7821C133.747 70.7731 133.758 70.7705 133.772 70.7577C133.886 70.6717 134.125 70.4921 134.46 70.2163C134.508 70.174 134.562 70.133 134.615 70.0919C134.67 70.0458 134.725 69.9996 134.78 69.9534C135.457 69.3878 136.384 68.5582 137.383 67.5237C137.507 67.3968 137.632 67.2648 137.758 67.1277C138.091 66.7701 138.429 66.3869 138.767 65.9871C138.828 65.9153 138.889 65.8435 138.945 65.7705C140.586 66.2307 143.492 67.4984 147.163 70.9701C148.15 71.8986 149.353 72.3918 150.658 72.4704Z" fill="#873A2D"/>
<path d="M164.855 57.528C164.553 60.4409 163.976 63.4158 162.887 66.2641C162.304 67.7874 161.609 69.1742 160.82 70.4347C160.812 69.6942 160.405 68.3984 159.598 66.9169C160.725 65.2566 161.668 63.2412 162.303 60.9107C163.08 58.0722 163.052 55.0617 162.756 52.0391C163.871 53.6835 164.616 55.5463 164.855 57.528Z" fill="#873A2D"/>
<path d="M168.076 29.032C168.93 30.9162 169.423 32.9663 169.451 35.1403C167.577 36.1974 166.139 37.7752 165.553 40.3242C165.39 41.0279 165.292 41.8454 165.235 42.7548C164.103 41.1386 162.9 39.7438 161.652 38.5549C161.894 36.0133 162.687 33.6787 164.504 31.6894C165.597 30.4935 166.802 29.6401 168.076 29.032Z" fill="#873A2D"/>
<path d="M187.652 25.8515C187.633 25.9283 187.615 26 187.591 26.0755C187.584 26.1062 187.575 26.142 187.562 26.1714C187.558 26.1868 187.554 26.2022 187.552 26.2124C187.535 26.2789 187.515 26.3391 187.494 26.4043C187.421 26.6309 187.343 26.8612 187.248 27.0929C185.495 31.5308 180.268 32.1384 175.345 33.1851C175.961 31.2194 176.287 29.3503 176.36 27.5815C181.423 27.569 186.08 28.1943 187.892 24.3087C187.887 24.3727 187.882 24.4366 187.877 24.5006C187.866 24.6118 187.856 24.718 187.839 24.828C187.824 24.9329 187.809 25.0378 187.794 25.1427C187.791 25.1581 187.788 25.1683 187.784 25.1837C187.768 25.2937 187.746 25.4024 187.725 25.5112C187.717 25.5419 187.709 25.5777 187.701 25.6084C187.691 25.6929 187.671 25.7747 187.652 25.8515Z" fill="#873A2D"/>
<path d="M151.081 79.3309C144.184 83.0116 137.261 83.2972 137.261 83.2972L133.7 70.8048C133.7 70.8048 136.93 68.4541 139.632 64.9027C145.268 65.7596 152.964 69.6191 151.081 79.3309Z" fill="#9B4635"/>
<path d="M162.894 66.266C162.311 67.7892 161.616 69.1758 160.827 70.4361C160.801 67.573 154.786 56.4882 142.971 58.2463C142.988 58.1798 142.999 58.112 143.015 58.0455C143.76 54.5258 143.417 51.6059 142.601 48.8624C151.423 41.411 163.727 48.2245 164.862 57.526C164.554 60.4423 163.982 63.4181 162.894 66.266Z" fill="#9B4635"/>
<path d="M165.556 40.325C165.393 41.0287 165.294 41.846 165.238 42.7554C156.843 30.778 144.585 30.9055 138.14 37.4352C137.291 34.738 136.737 31.728 136.902 28.1139C136.998 25.9655 137.415 23.9236 138.104 22.0141C147.851 11.4355 169.275 20.4729 169.458 35.143C167.583 36.2051 166.147 37.7777 165.556 40.325Z" fill="#9B4635"/>
<path d="M187.255 27.0957C185.503 31.5332 180.276 32.1407 175.354 33.1873C181.079 14.9726 161.698 4.87689 146.566 11.3422L146.567 11.3371C154.657 5.83926 166.683 4.65485 178.16 10.6771C184.121 13.8027 189.94 20.3146 187.255 27.0957Z" fill="#9B4635"/>
<path d="M151.082 79.3312C144.184 83.0119 137.261 83.2975 137.261 83.2975L133.701 70.8052C133.702 70.8001 133.713 70.7975 133.72 70.7936C133.726 70.7898 133.733 70.7859 133.739 70.7821C133.747 70.7731 133.758 70.7705 133.772 70.7577C133.886 70.6717 134.125 70.4921 134.46 70.2163C134.513 70.1753 134.562 70.133 134.615 70.0919C134.67 70.0458 134.725 69.9996 134.78 69.9534C135.457 69.3878 136.384 68.5582 137.383 67.5237C137.507 67.3968 137.632 67.2648 137.758 67.1277C138.091 66.7701 138.429 66.3869 138.767 65.9871C138.828 65.9153 138.889 65.8435 138.945 65.7705C140.586 66.2307 143.492 67.4984 147.163 70.9701C148.149 71.9037 149.353 72.3918 150.658 72.4704C151.381 74.3381 151.608 76.6048 151.082 79.3312Z" fill="#873A2D"/>
<path d="M162.891 66.2656C162.308 67.7889 161.613 69.1757 160.823 70.4361C160.816 69.6956 160.409 68.3998 159.601 66.9183C160.728 65.258 161.672 63.2427 162.307 60.9122C163.084 58.0736 163.056 55.0631 162.76 52.0405C163.871 53.6786 164.615 55.5465 164.86 57.5244C164.552 60.4411 163.98 63.4173 162.891 66.2656Z" fill="#873A2D"/>
<path d="M165.553 40.3242C165.39 41.0279 165.292 41.8454 165.235 42.7548C164.103 41.1386 162.9 39.7438 161.652 38.5549C161.894 36.0133 162.687 33.6787 164.504 31.6894C165.597 30.4935 166.807 29.6413 168.081 29.0333C168.935 30.9175 169.428 32.9675 169.456 35.1415C167.581 36.2038 166.144 37.7765 165.553 40.3242Z" fill="#873A2D"/>
<path d="M187.652 25.8515C187.633 25.9283 187.615 26 187.591 26.0755C187.584 26.1062 187.575 26.142 187.562 26.1714C187.558 26.1868 187.554 26.2022 187.552 26.2124C187.535 26.2789 187.515 26.3391 187.494 26.4043C187.421 26.6309 187.343 26.8612 187.248 27.0929C185.495 31.5308 180.268 32.1384 175.345 33.1851C175.961 31.2194 176.287 29.3503 176.36 27.5815C181.423 27.569 186.08 28.1943 187.892 24.3087C187.887 24.3727 187.882 24.4366 187.877 24.5006C187.866 24.6118 187.856 24.718 187.839 24.828C187.824 24.9329 187.809 25.0378 187.794 25.1427C187.791 25.1581 187.788 25.1683 187.784 25.1837C187.768 25.2937 187.746 25.4024 187.725 25.5112C187.717 25.5419 187.709 25.5777 187.701 25.6084C187.691 25.6929 187.671 25.7747 187.652 25.8515Z" fill="#873A2D"/>
<path d="M137.073 84.0615C136.741 83.9792 136.492 83.6895 136.477 83.3327C136.459 82.8992 136.794 82.5314 137.227 82.5137C137.277 82.5097 142.057 82.2856 147.504 80.125C154.741 77.2501 159.667 72.4947 162.159 65.9908C164.461 59.9669 164.414 53.2966 164.381 47.9333C164.361 44.8053 164.339 42.1006 164.792 40.1544C166.157 34.2568 171.746 33.1253 176.68 32.1245C181.012 31.2468 185.105 30.4182 186.525 26.8211C188.969 20.6422 183.711 14.4912 177.799 11.388C168.025 6.26489 157.102 6.12567 148.579 11.0179C141.974 14.8093 138.003 21.0611 137.678 28.1608C137.396 34.3804 139.301 38.7404 141.142 42.9598C143.175 47.6123 145.092 52.0081 143.781 58.2175C142.245 65.4953 134.493 71.2027 134.163 71.4414C133.812 71.6968 133.321 71.6187 133.065 71.2677C132.81 70.9166 132.888 70.4254 133.239 70.17C133.313 70.1123 140.833 64.5704 142.244 57.8914C143.449 52.1771 141.711 48.1953 139.7 43.5862C137.876 39.4089 135.809 34.6721 136.11 28.0879C136.457 20.4396 140.718 13.7165 147.798 9.65143C156.789 4.48954 168.28 4.61712 178.53 9.98843C185.049 13.4047 190.788 20.3103 187.991 27.3955C186.255 31.7837 181.544 32.7417 176.995 33.6635C172.091 34.6552 167.46 35.5951 166.324 40.5061C165.914 42.2732 165.931 44.8896 165.953 47.9204C165.992 53.4155 166.041 60.2546 163.628 66.5499C161.009 73.3968 155.618 78.6022 148.04 81.6045C142.353 83.8578 137.503 84.0808 137.296 84.0839C137.219 84.0867 137.145 84.0792 137.073 84.0615Z" fill="#650000"/>
<g opacity="0.3">
<path d="M152.329 11.645C143.269 13.656 139.108 28.3982 144.448 30.4963C148.304 32.0099 151.037 27.8904 156.1 23.1092C162.899 16.6881 159.476 10.0569 152.329 11.645Z" fill="white"/>
</g>
<path d="M134.982 106.138C134.982 106.138 152.172 104.835 159.342 95.9203C164.806 89.1197 160.365 81.1831 150.884 82.7481C142.779 84.0884 138.076 83.2345 138.076 83.2345L134.982 106.138Z" fill="#9B4635"/>
<path d="M159.338 95.9197C152.173 104.836 134.977 106.138 134.977 106.138L138.072 83.2339C138.072 83.2339 141.215 83.8053 146.79 83.2835C148.035 83.1678 149.402 82.9955 150.88 82.7475C157.961 81.5773 162.235 85.7086 161.662 90.7103C161.471 92.4065 160.724 94.1988 159.338 95.9197Z" fill="#9B4635"/>
<path d="M159.339 95.9191C152.174 104.835 134.978 106.137 134.978 106.137L138.073 83.2333C138.073 83.2333 141.216 83.8047 146.791 83.2829C147.577 84.6288 149.007 88.0728 148.364 94.6322C147.894 99.4149 159.049 97.2702 161.668 90.7109C161.472 92.4059 160.725 94.1981 159.339 95.9191Z" fill="#873A2D"/>
<g opacity="0.3">
<path d="M161.196 92.6843C161.722 87.4543 158.422 83.0102 150.122 84.0414C147.624 84.3521 144.472 84.0775 142.208 83.5065C144.352 83.5101 147.281 83.3441 150.88 82.7519C158.878 81.4286 163.29 86.8647 161.196 92.6843Z" fill="white"/>
</g>
<path d="M155.534 86.3576C155.959 87.4729 154.812 88.4438 152.973 88.5264C151.134 88.6091 149.3 87.7698 148.88 86.6558C148.455 85.5405 149.602 84.5696 151.441 84.4869C153.28 84.4042 155.114 85.2436 155.534 86.3576Z" fill="#F9D9C2"/>
<path d="M159.046 86.7046C159.22 87.1658 158.745 87.5698 157.989 87.5999C157.231 87.635 156.469 87.2891 156.295 86.8279C156.122 86.3668 156.596 85.9627 157.353 85.9327C158.11 85.8975 158.867 86.2422 159.046 86.7046Z" fill="#F9D9C2"/>
<path d="M157.247 84.2988C157.421 84.76 156.946 85.1641 156.19 85.1941C155.432 85.2293 154.67 84.8834 154.497 84.4222C154.323 83.961 154.797 83.557 155.554 83.5269C156.312 83.4918 157.073 83.8377 157.247 84.2988Z" fill="#F9D9C2"/>
<path d="M153.837 83.4387C153.985 83.8284 153.586 84.1695 152.938 84.1993C152.295 84.2303 151.652 83.9353 151.504 83.5457C151.356 83.156 151.755 82.8148 152.403 82.7851C153.051 82.7553 153.689 83.0491 153.837 83.4387Z" fill="#F9D9C2"/>
<path d="M134.796 106.901C134.473 106.821 134.227 106.543 134.199 106.194C134.165 105.762 134.492 105.381 134.923 105.352C135.089 105.339 151.862 103.97 158.728 95.4258C161.072 92.508 161.59 89.2469 160.105 86.7071C158.54 84.0332 155.143 82.8397 151.01 83.5228C142.86 84.8683 138.129 84.0401 137.931 84.0074C137.505 83.9292 137.22 83.522 137.299 83.0908C137.378 82.6647 137.784 82.3798 138.216 82.4593C138.263 82.4656 142.908 83.2671 150.758 81.9722C155.559 81.1774 159.565 82.652 161.468 85.9146C163.265 88.9933 162.69 93.0167 159.956 96.4138C152.659 105.493 135.759 106.868 135.045 106.925C134.957 106.93 134.872 106.92 134.796 106.901Z" fill="#650000"/>
<path d="M25.7391 100.206C36.7518 102.175 51.7884 100.426 55.6319 95.2182C53.8773 88.4297 51.1878 76.3698 43.7382 79.6918C37.1313 82.6357 26.7351 81.7311 26.7351 81.7311L25.7391 100.206Z" fill="#A34F1F"/>
<path d="M55.634 95.2131C51.7905 100.421 36.7539 102.17 25.7412 100.201L26.7436 81.7221C26.7436 81.7221 27.8112 81.8178 29.4769 81.8443C30.947 81.8713 32.8745 81.8485 34.9551 81.668C37.8893 81.4163 41.1167 80.857 43.7467 79.6828C51.195 76.3659 53.8832 88.4309 55.634 95.2131Z" fill="#9B4635"/>
<path d="M55.6333 95.213C51.7898 100.421 36.7532 102.17 25.7405 100.201L26.7429 81.722C26.7429 81.722 27.8105 81.8178 29.4762 81.8442C30.5956 84.0384 30.8631 86.9342 31.3041 91.1058C31.9014 96.7987 37.0751 95.613 36.1022 87.66C35.6458 83.9463 35.8157 81.5878 36.2527 81.5329C38.8187 81.2336 41.5015 80.6808 43.7472 79.6776C51.1943 76.3658 53.8825 88.4309 55.6333 95.213Z" fill="#873A2D"/>
<path d="M25.552 100.968C25.153 100.869 24.8924 100.474 24.9654 100.068C25.0435 99.642 25.4505 99.3571 25.8776 99.4302C36.1574 101.267 50.7831 99.7316 54.7724 95.0321C54.722 94.8404 54.6729 94.6436 54.6199 94.4404C53.3587 89.501 51.4489 82.0441 47.8124 80.2809C46.6873 79.7364 45.4564 79.7741 44.0585 80.4004C37.3468 83.3944 27.1004 82.5431 26.6708 82.502C26.2399 82.466 25.9167 82.0819 25.9526 81.6509C25.9885 81.2198 26.3723 80.8966 26.8032 80.9326C26.9042 80.9413 37.0765 81.7851 43.4154 78.9595C45.2398 78.1454 46.9474 78.1117 48.4937 78.8635C52.7855 80.941 54.7263 88.5142 56.14 94.0452C56.2265 94.3762 56.3041 94.6996 56.3855 95.0076L56.4798 95.373L56.2582 95.6767C52.1193 101.29 36.7732 102.973 25.5942 100.973C25.5879 100.977 25.5725 100.973 25.552 100.968Z" fill="#650000"/>
<path d="M146.123 87.3688C149.073 70.9201 132.978 56.5324 115.687 60.9062C95.4828 62.3653 78.2099 79.1699 78.2099 79.1699C78.2099 79.1699 46.8863 88.0178 62.4153 99.8813C70.7685 106.266 91.5659 110.515 91.5659 110.515C97.0291 112.312 102.683 113.27 108.143 113.497C114.997 113.487 123.283 112.626 129.716 110.036C132.758 108.773 139.198 105.647 141.814 99.7173" fill="#FF8A42"/>
<path d="M146.123 87.3685L141.82 99.7132C139.205 105.643 132.77 108.771 129.727 110.033C123.294 112.623 115.008 113.484 108.149 113.493C102.694 113.268 97.0404 112.309 91.5773 110.512C91.5773 110.512 70.7798 106.263 62.4267 99.8785C46.8977 88.015 78.2162 79.1659 78.2162 79.1659C78.2162 79.1659 86.8481 70.7706 99.0444 65.3317C104.097 63.0734 109.767 61.3314 115.693 60.9021C131.843 56.8215 146.958 69.1093 146.466 84.1567C146.427 85.2169 146.32 86.2875 146.123 87.3685Z" fill="#FF8A42"/>
<path d="M146.123 87.3685L141.82 99.7132C139.205 105.643 132.77 108.771 129.727 110.033C123.91 112.374 116.574 113.301 110.153 113.467C109.476 113.484 108.806 113.493 108.149 113.493C102.694 113.268 97.0404 112.309 91.5773 110.512C91.5773 110.512 70.7798 106.263 62.4267 99.8785C46.8977 88.015 78.2162 79.1659 78.2162 79.1659C78.2162 79.1659 86.8481 70.7706 99.0444 65.3317C104.097 63.0734 109.767 61.3314 115.693 60.9021C131.843 56.8215 146.958 69.1093 146.466 84.1567C146.427 85.2169 146.32 86.2875 146.123 87.3685Z" fill="#FF8A42"/>
<path d="M146.123 87.3685L141.82 99.7132C139.205 105.643 132.77 108.771 129.727 110.033C123.91 112.374 116.574 113.301 110.153 113.467C109.476 113.484 108.806 113.493 108.149 113.493C102.694 113.268 97.0404 112.309 91.5773 110.512C91.5773 110.512 70.7798 106.263 62.4267 99.8785C46.8977 88.015 78.2162 79.1659 78.2162 79.1659C78.2162 79.1659 86.8481 70.7706 99.0444 65.3317C104.097 63.0734 109.767 61.3314 115.693 60.9021C131.843 56.8215 146.958 69.1093 146.466 84.1567C146.427 85.2169 146.32 86.2875 146.123 87.3685Z" fill="#FF8A42"/>
<g opacity="0.3">
<path d="M133.982 65.4108C134.004 65.5629 133.993 65.7176 133.963 65.8622C133.614 67.4053 130.457 68.0092 126.908 67.2126C123.359 66.4159 120.761 64.5133 121.105 62.969C121.155 62.7425 121.265 62.5415 121.424 62.3582C119.55 62.4052 117.636 62.6594 115.703 63.1425C109.782 63.5731 104.113 65.3151 99.0548 67.5721C86.8587 73.0109 78.2268 81.4061 78.2268 81.4061C78.2268 81.4061 59.8254 86.6022 58.226 94.3747C56.202 85.38 78.2053 79.1632 78.2053 79.1632C78.2053 79.1632 86.8372 70.768 99.0333 65.3292C104.086 63.0709 109.756 61.329 115.682 60.8996C131.831 56.8191 146.946 69.1068 146.454 84.1539C146.451 84.2127 146.447 84.2716 146.45 84.3265C145.951 76.2793 141.006 69.2395 133.982 65.4108Z" fill="white"/>
</g>
<path d="M146.119 87.3666L141.816 99.7119C139.2 105.642 132.764 108.77 129.722 110.032C123.904 112.373 116.568 113.301 110.147 113.467C110.37 112.653 110.876 111.659 111.747 110.441C113.688 107.727 116.029 102.886 116.632 102.313C117.426 101.559 118.359 105.939 122.601 106.592C136.489 108.746 144.553 94.2789 146.462 84.1546C146.422 85.2148 146.315 86.2855 146.119 87.3666Z" fill="#EA5A1B"/>
<path d="M146.121 87.3666L141.818 99.712C139.202 105.642 132.767 108.77 129.724 110.032C129.543 110.107 129.363 110.176 129.176 110.25C128.99 110.323 128.805 110.391 128.615 110.458C128.442 110.519 128.263 110.583 128.091 110.644C128.072 110.655 128.049 110.66 128.031 110.667C127.917 110.709 127.805 110.747 127.693 110.784C127.556 110.832 127.426 110.876 127.29 110.918C127.243 110.934 127.196 110.949 127.148 110.965C127.007 111.011 126.866 111.052 126.719 111.097C126.537 111.155 126.355 111.208 126.175 111.256C126.023 111.3 125.871 111.344 125.714 111.386C125.551 111.433 125.382 111.478 125.213 111.523C125.069 111.558 124.923 111.598 124.779 111.633C124.235 111.77 123.687 111.9 123.131 112.018C122.942 112.058 122.753 112.099 122.564 112.139C122.186 112.219 121.798 112.291 121.418 112.36C121.241 112.393 121.07 112.426 120.895 112.454C120.509 112.521 120.118 112.587 119.73 112.643C119.52 112.678 119.307 112.707 119.092 112.741C118.625 112.81 118.158 112.874 117.688 112.931C117.246 112.985 116.798 113.037 116.359 113.08C116.337 113.08 116.309 113.084 116.287 113.084C116.053 113.108 115.82 113.131 115.586 113.155C115.363 113.176 115.136 113.196 114.913 113.217C114.669 113.238 114.432 113.255 114.194 113.272C113.983 113.291 113.768 113.303 113.559 113.316C113.525 113.319 113.492 113.322 113.459 113.324C113.243 113.341 113.028 113.353 112.814 113.365C112.587 113.38 112.356 113.393 112.131 113.403C111.675 113.426 111.225 113.445 110.776 113.459C110.568 113.467 110.354 113.474 110.147 113.477C110.37 112.663 110.876 111.669 111.747 110.451C113.247 108.356 114.979 104.994 115.977 103.307C116.268 102.809 116.497 102.453 116.637 102.324C117.012 101.972 117.412 102.75 118.182 103.744C119.04 104.863 120.358 106.254 122.606 106.604C136.495 108.758 144.558 94.2904 146.467 84.1661C146.425 85.2149 146.318 86.2855 146.121 87.3666Z" fill="#EA5A1B"/>
<path d="M146.122 87.3691L144.491 93.9715L141.819 99.7135C139.203 105.643 132.768 108.771 129.726 110.033C123.293 112.623 115.007 113.484 108.148 113.493C102.693 113.268 97.0395 112.309 91.5764 110.512C91.5764 110.512 70.7792 106.263 62.4262 99.8788C46.8974 88.0155 78.2155 79.1666 78.2155 79.1666C78.2155 79.1666 86.8473 70.7715 99.0434 65.3327C98.8018 74.5979 99.6967 99.7038 116.223 103.352C135.169 107.535 143.798 95.4132 146.464 84.1573C146.425 85.2174 146.318 86.288 146.122 87.3691Z" fill="#9B4635"/>
<path d="M146.121 87.3666C146.121 87.3666 146.668 89.0009 144.971 94.2241C143.273 99.4474 141.818 99.7119 141.818 99.7119C139.202 105.642 132.767 108.77 129.724 110.032C129.543 110.107 129.363 110.176 129.176 110.25C128.99 110.323 128.805 110.391 128.615 110.458C128.442 110.519 128.263 110.583 128.091 110.644C128.072 110.655 128.049 110.66 128.031 110.667C127.917 110.709 127.805 110.747 127.692 110.784C127.556 110.832 127.426 110.876 127.29 110.918C127.243 110.934 127.196 110.949 127.148 110.965C127.007 111.011 126.866 111.052 126.719 111.097C126.537 111.155 126.355 111.208 126.175 111.256C126.023 111.3 125.871 111.344 125.714 111.386C125.551 111.433 125.382 111.478 125.213 111.523C125.069 111.558 124.923 111.598 124.779 111.633C124.235 111.77 123.687 111.9 123.131 112.018C122.942 112.058 122.753 112.098 122.564 112.139C122.186 112.219 121.798 112.291 121.418 112.36C121.241 112.393 121.07 112.426 120.895 112.454C120.509 112.521 120.118 112.587 119.73 112.643C119.52 112.678 119.307 112.707 119.092 112.741C118.625 112.81 118.158 112.874 117.688 112.931C117.246 112.985 116.798 113.037 116.359 113.08C116.337 113.08 116.309 113.084 116.287 113.084C116.053 113.108 115.82 113.131 115.586 113.155C115.363 113.176 115.136 113.196 114.913 113.217C114.669 113.238 114.432 113.255 114.194 113.272C113.983 113.291 113.768 113.303 113.559 113.316C113.525 113.319 113.492 113.321 113.459 113.324C113.243 113.341 113.028 113.353 112.814 113.365C112.587 113.38 112.356 113.393 112.131 113.403C111.675 113.426 111.225 113.445 110.776 113.459C110.568 113.467 110.354 113.474 110.147 113.477C110.37 112.663 110.876 111.669 111.747 110.451C113.247 108.356 114.979 104.994 115.977 103.307C116.058 103.327 116.135 103.346 116.218 103.361C116.882 103.509 117.536 103.633 118.176 103.743C119.035 104.862 120.353 106.253 122.601 106.602C136.489 108.757 144.553 94.2891 146.462 84.1648C146.425 85.2148 146.318 86.2855 146.121 87.3666Z" fill="#873A2D"/>
<path d="M146.123 87.369C146.838 77.3301 141.783 68.0359 132.744 63.5243C127.573 60.9197 121.494 60.2523 115.88 61.6821C103.582 62.6314 92.265 68.7982 82.7128 76.325C81.3519 77.4167 80.0001 78.5595 78.7545 79.734C78.6602 79.8302 78.5415 79.8931 78.4188 79.928C72.5465 81.7664 65.1823 84.5229 60.86 88.9661C51.7008 98.9906 77.2418 105.994 83.8517 107.83C86.4574 108.534 89.0924 109.186 91.7246 109.74C96.0656 111.156 100.565 112.084 105.114 112.504C107.374 112.742 109.618 112.733 111.889 112.616C116.977 112.37 122.077 111.638 126.931 110.097C132.774 108.18 138.287 104.917 141.814 99.7176C140.249 105.571 134.485 109.147 129.134 111.201C123.634 113.181 117.767 113.88 111.963 114.187C105.129 114.62 97.562 113.296 91.408 111.285C82.6094 109.299 62.2883 104.44 58.073 96.2276C54.4415 88.8174 64.8002 83.63 70.2365 81.2275C72.7695 80.1379 75.3298 79.2018 77.9903 78.4099L77.6546 78.6038C78.9793 77.3511 80.3298 76.2134 81.7252 75.0922C91.4941 67.3909 103.031 61.1481 115.618 60.1073C118.831 59.2079 123.897 58.9674 127.701 59.8977C139.724 62.302 149.896 75.0397 146.123 87.369Z" fill="#650000"/>
<path d="M46.7888 60.8598C40.9994 67.5255 35.6364 68.5287 35.6364 68.5287C35.6364 68.5287 36.2037 79.7979 38.7968 84.0079C42.9389 90.7411 51.537 55.3975 46.7888 60.8598Z" fill="#FF8A42"/>
<path d="M39.5548 85.6015C39.1045 85.4901 38.591 85.1729 38.1248 84.4221C35.4585 80.0908 34.8751 69.0403 34.8508 68.5672C34.8292 68.1708 35.1044 67.8261 35.4916 67.7536C35.5427 67.7445 40.6804 66.6856 46.1945 60.3429C46.847 59.5919 47.4689 59.3384 48.0487 59.585C48.841 59.9169 49.0894 60.956 48.909 63.1599C48.485 68.3506 44.4538 84.6302 40.4025 85.5994C40.1891 85.6498 39.8926 85.6851 39.5548 85.6015ZM36.4658 69.1297C36.6337 71.5502 37.3572 80.1641 39.4687 83.5978C39.8488 84.2132 40.039 84.1028 40.2368 83.9833C41.6549 83.1447 43.7474 78.4973 45.4474 72.4274C46.9852 66.9258 47.5145 62.8257 47.3826 61.3809C42.6178 66.8663 38.1366 68.6307 36.4658 69.1297Z" fill="#650000"/>
<path d="M49.4672 61.6243L63.4401 54.0301L79.588 45.258C73.3647 35.7834 59.746 24.1312 54.5076 26.0826C53.5141 26.4559 52.5853 27.5566 51.7629 29.2159C48.669 35.4345 47.0879 49.446 49.4672 61.6243Z" fill="#FFFEFF"/>
<path d="M49.4697 61.6267L63.4436 54.032C61.7753 45.5267 57.2782 25.9587 51.7606 29.2154C48.6716 35.4355 47.0903 49.4478 49.4697 61.6267Z" fill="#FFE4D2"/>
<g opacity="0.5">
<path d="M51.4199 29.9494C52.036 29.0375 52.6977 28.4247 53.3859 28.166C58.4322 26.2869 71.2312 37.0073 77.7318 46.2561L79.5876 45.2491C73.365 35.7759 59.7478 24.1254 54.51 26.0766C53.3786 26.5026 52.3267 27.8822 51.4199 29.9494Z" fill="white"/>
</g>
<path d="M49.2794 62.3869C48.9928 62.316 48.7569 62.0838 48.6973 61.7758C45.7693 46.806 48.7157 27.3973 54.2286 25.3454C57.8644 23.9913 63.8936 28.1607 67.1699 30.7691C72.1426 34.7314 77.1552 40.1155 80.2444 44.8228C80.4806 45.1854 80.3823 45.6716 80.0186 45.9129C79.6563 46.1491 79.1702 46.0505 78.9288 45.6867C75.9218 41.1083 71.0375 35.8645 66.1877 31.9978C61.1382 27.9731 56.8705 26.0372 54.7774 26.8172C50.8122 28.2962 47.1415 45.6249 50.2394 61.4677C50.3237 61.8959 50.0424 62.3096 49.6207 62.3899C49.5058 62.4158 49.3869 62.4135 49.2794 62.3869Z" fill="#650000"/>
<path d="M52.5749 50.2183C55.7346 47.2962 58.2783 45.373 60.4439 43.9918C62.344 42.7838 63.9475 41.9857 65.426 41.2979C65.397 39.656 57.1796 29.0198 55.09 31.4789C54.4631 32.2145 53.8976 33.4052 53.4236 34.8629C51.9534 39.3653 51.356 46.4028 52.5749 50.2183Z" fill="#9B4635"/>
<path d="M53.4241 34.856C54.2301 34.1648 55.4039 33.3908 56.2615 33.7877C57.7233 34.4644 59.978 40.1978 60.4426 43.9894C62.3426 42.7814 63.946 41.9834 65.4243 41.2957C65.3954 39.6539 57.1786 29.0184 55.0891 31.4773C54.4635 32.2077 53.8968 33.4035 53.4241 34.856Z" fill="#873A2D"/>
<path d="M52.2011 51.6355L51.8244 50.456C50.154 45.2362 51.6468 34.309 54.4882 30.9605C54.8092 30.5838 55.5453 30.0219 56.8711 30.502C60.0986 31.6591 66.1755 39.4629 66.2101 41.28L66.2205 41.7877L65.7596 42.0049C62.5358 43.5154 58.9016 45.4348 53.1153 50.7918L52.2011 51.6355ZM56.149 31.9309C55.8062 31.8461 55.7221 31.9448 55.6902 31.9858C53.5853 34.4628 51.9809 43.4453 53.0162 48.7523C58.0723 44.2194 61.4828 42.3044 64.4869 40.8699C63.562 38.8759 58.7656 32.7033 56.2309 31.9512C56.2002 31.9436 56.1746 31.9373 56.149 31.9309Z" fill="#650000"/>
<path d="M90.4598 45.6946L104.225 66.3603L110.175 75.2894C118.644 65.3553 124.084 51.4401 123.707 44.7428C123.629 43.3657 123.308 42.2923 122.713 41.6237C118.85 37.2572 100.737 40.5527 90.4598 45.6946Z" fill="#FFFEFF"/>
<path d="M104.22 66.3586L110.171 75.2883C118.641 65.3535 124.081 51.4374 123.705 44.7396C122.607 42.5235 120.452 40.6271 116.797 46.1481C113.011 51.8702 107.418 61.0613 104.22 66.3586Z" fill="#FFE4D2"/>
<g opacity="0.5">
<path d="M90.4639 45.6942L91.3316 46.995C101.802 42.3684 119.294 40.2178 122.189 42.7207C124.543 44.7531 122.04 54.0721 119.118 61.3103C123.319 52.4987 124.955 44.1601 122.71 41.6223C118.852 37.2574 100.741 40.5527 90.4639 45.6942Z" fill="white"/>
</g>
<path d="M109.981 76.0563C109.868 76.0285 109.757 75.9738 109.658 75.8896C109.326 75.6065 109.286 75.1079 109.568 74.7811C120.054 62.484 125.047 45.4548 122.123 42.1461C118.65 38.2237 100.979 41.3135 90.8125 46.4014C90.4231 46.5929 89.951 46.438 89.7594 46.0485C89.5678 45.6589 89.7224 45.1867 90.1118 44.9952C95.2219 42.4416 102.41 40.2665 108.883 39.3208C113.13 38.699 120.65 38.105 123.307 41.1087C127.365 45.6971 120.689 64.1781 110.775 75.8076C110.566 76.0383 110.257 76.1247 109.981 76.0563Z" fill="#650000"/>
<path d="M101.252 45.934C98.2464 43.6588 94.4866 41.7564 89.8151 40.2041C55.2056 28.7132 45.0014 54.3363 41.2384 68.0576C34.5248 75.3682 30.9639 95.9661 68.2595 105.308C105.111 114.052 117.152 91.6098 117.811 90.3281C113.602 81.9333 114.54 71.7381 113.102 65.9515" fill="#FF8A42"/>
<path d="M68.2527 105.312C80.8947 108.315 90.6118 107.64 97.9597 105.412C112.027 101.149 117.373 91.1751 117.805 90.3263C113.596 81.9315 114.534 71.7363 113.096 65.9497C113.096 65.9497 111.746 59.8752 108.629 54.314C106.779 51.0104 101.251 45.9334 101.251 45.9334C98.2459 43.6583 94.4874 41.7507 89.8147 40.2035C55.2052 28.7126 45.0023 54.3307 41.2328 68.0558C41.2163 68.0788 41.1959 68.0955 41.1793 68.1186C34.4966 75.4802 31.0607 95.9895 68.2527 105.312Z" fill="#FF8A42"/>
<path d="M36.9949 80.5354C37.5625 89.186 44.8919 99.4554 68.253 105.312C80.895 108.315 90.6121 107.64 97.96 105.412C106.904 102.7 112.319 97.68 115.191 94.1653C116.839 92.151 117.643 90.6337 117.8 90.3251C113.592 81.9303 114.529 71.7352 113.091 65.9486C113.091 65.9486 111.741 59.874 108.625 54.3077C106.775 51.0042 101.248 45.9271 101.248 45.9271C98.2424 43.652 94.4839 41.7445 89.8112 40.1972C55.2017 28.7064 44.9975 54.3295 41.2293 68.0495C41.214 68.0674 41.1924 68.0892 41.1758 68.1123C38.6947 70.8601 36.6583 75.4123 36.9949 80.5354Z" fill="#FF8A42"/>
<path d="M36.9949 80.5354C37.5625 89.186 44.8919 99.4554 68.253 105.312C80.895 108.315 90.6121 107.64 97.96 105.412C106.904 102.7 112.319 97.68 115.191 94.1653C116.839 92.151 117.643 90.6337 117.8 90.3251C113.592 81.9303 114.529 71.7352 113.091 65.9486C113.091 65.9486 111.741 59.874 108.625 54.3077C106.775 51.0042 101.248 45.9271 101.248 45.9271C98.2424 43.652 94.4839 41.7445 89.8112 40.1972C55.2017 28.7064 44.9975 54.3295 41.2293 68.0495C41.214 68.0674 41.1924 68.0892 41.1758 68.1123C38.6947 70.8601 36.6583 75.4123 36.9949 80.5354Z" fill="#FF8A42"/>
<path d="M113.83 93.0616C110.998 96.5258 105.861 101.19 97.4465 103.74C90.5743 105.824 82.6464 106.138 73.8827 104.67C72.178 104.384 70.4208 104.026 68.6557 103.611C43.5365 97.3201 39.1306 86.3854 38.7445 80.4309C38.7445 80.4309 41.6182 96.031 70.4021 101.925C101.993 108.389 113.83 93.0616 113.83 93.0616Z" fill="#EA5A1B"/>
<path d="M113.83 93.0616C110.998 96.5258 105.861 101.19 97.4465 103.74C90.5743 105.824 82.6464 106.138 73.8827 104.67C72.178 104.384 70.4208 104.026 68.6557 103.611C43.5365 97.3201 39.1306 86.3854 38.7445 80.4309C38.7445 80.4309 41.6182 96.031 70.4021 101.925C101.993 108.389 113.83 93.0616 113.83 93.0616Z" fill="#EA5A1B"/>
<path d="M51.2583 96.9931C45.6592 93.7667 42.4946 90.2683 40.7407 87.081C40.7301 86.4646 40.7833 85.8533 40.8979 85.2571C42.214 87.3369 44.292 89.8713 47.56 92.4014C48.2815 93.9431 49.4951 95.4924 51.2583 96.9931Z" fill="#8E381A"/>
<path d="M89.7392 103.334C89.3129 104.026 88.81 104.722 88.2393 105.428C83.7614 105.775 78.9648 105.523 73.8815 104.672C73.6002 104.624 73.3137 104.575 73.0272 104.526C75.7692 104.591 77.7095 104.121 79.1437 103.237C83.0471 103.589 86.5699 103.592 89.7392 103.334Z" fill="#8E381A"/>
<path d="M103.104 100.281C102.59 100.979 102.023 101.648 101.425 102.287C100.186 102.822 98.8653 103.31 97.4451 103.741C90.573 105.825 82.6451 106.139 73.8815 104.671C72.1769 104.385 70.4184 104.032 68.6545 103.611C43.5356 97.3211 39.1297 86.3868 38.7437 80.4324C38.7437 80.4324 41.6185 96.0269 70.401 101.926C85.5589 105.024 96.1677 103.11 103.104 100.281Z" fill="#F9D3B7"/>
<path d="M79.082 106.735C78.9519 106.844 78.8205 106.958 78.6968 107.063C81.4996 107.322 84.1229 107.385 86.5705 107.279C88.7159 105.605 90.4091 103.586 91.543 101.346C88.7991 101.553 85.8451 101.598 82.6731 101.427C82.1172 103.304 80.9935 105.106 79.082 106.735Z" fill="#A82B26"/>
<path d="M41.2671 86.0218C41.3977 88.3514 41.8949 90.6034 42.5367 92.4675C43.9176 93.9334 45.5938 95.3692 47.6034 96.7517C46.4101 94.284 45.9245 92.0729 45.9369 90.11C44.1858 88.824 42.6338 87.457 41.2671 86.0218Z" fill="#A82B26"/>
<path d="M68.2518 105.314C80.8931 108.317 90.6096 107.642 97.9571 105.414C102.666 101.757 107.425 96.1847 105.496 89.4192C101.397 75.0628 85.1866 86.9085 78.0793 84.0531C72.5075 81.8165 71.2026 77.3178 64.3922 75.964C59.8378 75.0598 59.0368 77.4898 54.5987 77.4561C49.299 77.4155 44.9889 69.2789 41.1752 68.1235C34.498 75.4857 31.0622 95.9931 68.2518 105.314Z" fill="#FFFEFF"/>
<path d="M103.104 100.281C102.59 100.979 102.023 101.648 101.425 102.287C100.186 102.822 98.8653 103.31 97.4451 103.741C90.573 105.825 82.6451 106.139 73.8815 104.671C72.1769 104.385 70.4184 104.032 68.6545 103.611C43.5356 97.3211 39.1297 86.3868 38.7437 80.4324C38.7437 80.4324 41.6185 96.0269 70.401 101.926C85.5589 105.024 96.1677 103.11 103.104 100.281Z" fill="#FFE4D2"/>
<path d="M62.8959 103.152C62.7825 103.259 62.6702 103.362 62.5529 103.463C62.4828 103.527 62.4139 103.586 62.3463 103.64C52.7476 100.559 46.4574 96.635 42.543 92.4784C42.5391 92.4721 42.534 92.4708 42.5302 92.4644C37.1634 84.6465 44.4117 74.7093 56.3204 77.3409C52.1128 78.483 48.3862 80.6674 46.9288 87.4267C45.8688 92.3347 49.8541 98.0511 60.6974 102.336C61.4 102.613 62.1358 102.888 62.8959 103.152Z" fill="#9B4635"/>
<path d="M86.5712 107.28C81.2873 107.504 75.2138 106.968 68.25 105.31C66.5474 104.883 64.9368 104.436 63.4027 103.964C63.1056 103.782 62.8163 103.612 62.5512 103.455C61.7061 102.941 61.0543 102.546 60.6958 102.327C60.4986 102.203 60.3846 102.136 60.3859 102.131C76.9521 106.877 80.632 104.045 82.7438 98.1541C85.3515 90.8703 78.7903 85.9992 74.6286 82.0966C91.6734 87.4545 96.6169 97.0955 86.5712 107.28Z" fill="#9B4635"/>
<path d="M51.2583 96.9931C45.6592 93.7667 42.4946 90.2683 40.7407 87.081C40.7301 86.4646 40.7833 85.8533 40.8979 85.2571C42.214 87.3369 44.292 89.8713 47.56 92.4014C48.2815 93.9431 49.4951 95.4924 51.2583 96.9931Z" fill="#873A2D"/>
<path d="M89.7392 103.334C89.3129 104.026 88.81 104.722 88.2393 105.428C83.7614 105.775 78.9648 105.523 73.8815 104.672C73.6002 104.624 73.3137 104.575 73.0272 104.526C75.7692 104.591 77.7095 104.121 79.1437 103.237C83.0471 103.589 86.5699 103.592 89.7392 103.334Z" fill="#873A2D"/>
<path d="M101.252 45.9333C82.342 36.2795 60.1568 32.6311 47.8988 53.8847C45.2705 58.372 43.4499 63.2817 41.9952 68.2711C41.9597 68.3927 41.8936 68.5067 41.8171 68.5964C41.0805 69.4025 40.4427 70.3146 39.8995 71.2827C39.3577 72.2456 38.8991 73.2672 38.571 74.3319C37.1678 78.5629 37.6159 83.3226 39.7361 87.2469C46.0204 99.0662 65.0319 104.661 77.5584 106.153C83.5134 106.817 89.6451 106.678 95.4856 105.277C104.248 103.171 112.597 97.922 117.11 89.9801L117.108 90.691C115.045 86.9328 114.152 82.6768 113.74 78.4528C113.29 74.2737 113.491 70.1365 113.1 65.9611C113.842 67.9259 114.187 70.0261 114.513 72.0892C114.932 74.9896 115.535 79.9778 116.213 82.774C116.749 85.2636 117.524 87.7093 118.541 90.0353C118.638 90.255 118.621 90.5006 118.518 90.6978C117.937 91.7977 117.266 92.7776 116.552 93.7358C114.402 96.5927 111.753 99.0545 108.823 101.089C100.488 106.895 90.0164 108.714 80.0345 107.955C64.6302 106.815 37.0637 98.7725 36.2148 80.1356C36.0737 76.7933 36.8951 73.423 38.5424 70.5124C39.1402 69.4547 39.8404 68.444 40.6726 67.5366L40.4945 67.8618C42.9567 58.3751 47.1619 48.6897 55.0726 42.49C64.5006 34.9387 77.451 35.3082 88.4035 38.9089C93.0695 40.3296 97.8495 42.2781 101.252 45.9333Z" fill="#650000"/>
<path d="M105.355 49.4063C107.534 52.3026 110.038 55.9257 112.829 63.7311C113.145 63.44 113.466 63.1067 113.776 62.7325C115.964 60.1401 117.97 55.7756 118.994 51.9609C119.634 49.5884 119.89 47.4304 119.574 46.0488C118.841 42.8369 106.173 47.9848 105.355 49.4063Z" fill="#9B4635"/>
<path d="M105.356 49.4061C107.535 52.3024 110.039 55.9254 112.83 63.7308C113.146 63.4398 113.467 63.1065 113.777 62.7323C114.097 59.8951 112.635 56.3832 112.348 53.8519C111.756 48.6 116.168 46.4982 117.428 47.3314C118.175 47.8257 118.771 50.7106 118.993 51.9658C119.633 49.5933 119.889 47.4353 119.573 46.0537C118.842 42.8367 106.174 47.9846 105.356 49.4061Z" fill="#873A2D"/>
<path d="M112.639 64.4982C112.383 64.4349 112.174 64.2474 112.089 63.9982C109.369 56.3679 106.961 52.8392 104.732 49.8817C104.545 49.629 104.521 49.2863 104.68 49.0161C105.596 47.4178 114.735 43.7429 118.321 44.2827C119.819 44.5066 120.234 45.3752 120.344 45.8749C121.338 50.2486 117.422 60.5872 113.364 64.3135C113.162 64.4918 112.895 64.5615 112.639 64.4982ZM106.402 49.4965C108.467 52.283 110.679 55.7035 113.133 62.2795C116.659 58.1824 119.539 49.4665 118.803 46.2214C118.79 46.1639 118.749 45.9799 118.239 45.8699C115.574 45.2921 108.253 48.222 106.402 49.4965Z" fill="#650000"/>
<path d="M90.9867 57.4117C90.9867 57.4117 88.3533 50.5528 85.4324 50.9923C82.5115 51.4317 82.1761 54.4605 83.5551 55.714C85.5646 57.5363 90.9867 57.4117 90.9867 57.4117Z" fill="#FFF3E9"/>
<path d="M56.3605 48.7383C56.3605 48.7383 60.6022 43.8738 62.8773 45.1264C65.1536 46.3739 64.5179 48.97 62.9972 49.5875C60.7947 50.4817 56.3605 48.7383 56.3605 48.7383Z" fill="#FFF3E9"/>
<path d="M59.4829 75.811C59.0591 77.395 60.4489 79.2649 61.5797 80.4679C62.3619 81.3023 63.5529 81.6241 64.6449 81.2916C66.2235 80.8133 68.362 79.8926 68.7858 78.3085C69.4751 75.7367 60.1722 73.2392 59.4829 75.811Z" fill="#650000"/>
<g opacity="0.35">
<path d="M61.8405 75.8463C61.7634 76.1367 62.3449 76.5738 62.8059 76.8616C63.126 77.0603 63.5635 77.1794 63.9419 77.1644C64.485 77.1413 65.2057 77.059 65.2829 76.7686C65.4106 76.2952 61.9696 75.3678 61.8405 75.8463Z" fill="white"/>
</g>
<path d="M102.265 46.888C96.1022 39.9224 91.518 38.8316 83.5179 33.0404C81.5236 31.5967 78.2863 28.1514 78.2863 28.1514C78.2863 28.1514 76.3087 32.1363 76.3136 34.7765C71.1478 33.2486 68.723 35.0432 61.4691 33.243C62.2416 35.6549 64.2915 39.1377 68.3597 39.8999" fill="#FF8A42"/>
<path d="M102.266 46.8877C99.454 44.2697 96.4656 42.0154 93.1649 40.1018C89.3789 37.8673 85.1851 35.6351 81.8077 32.823C80.3405 31.5314 78.9996 30.1462 77.7095 28.6868L78.9885 28.4982C78.5094 29.4928 78.0715 30.5628 77.7306 31.6133C77.4037 32.6292 77.1179 33.7205 77.0991 34.7639C77.1004 35.1986 76.746 35.5561 76.3076 35.5508C75.0771 35.2572 73.8606 34.9508 72.5848 34.9067C71.392 34.8342 70.1574 34.8871 68.8907 34.894C66.3446 34.9374 63.754 34.6113 61.2789 33.9935L62.2168 32.9875C62.5461 33.6989 62.8485 34.409 63.2032 35.1049C64.2371 37.2938 66.0355 39.0691 68.359 39.8829C65.6861 39.8243 63.231 38.1362 61.788 35.933C61.2963 35.1761 60.9131 34.3536 60.7188 33.4694C60.5063 32.901 61.0798 32.2935 61.6568 32.4634C64.0359 33.0521 66.4258 33.3556 68.8786 33.3163C71.3786 33.2616 74.082 33.2191 76.532 34.0045L75.5205 34.7588C75.5276 34.0927 75.6204 33.4749 75.7478 32.8711C76.1441 31.0904 76.7977 29.4331 77.5741 27.7845C77.7455 27.3979 78.2001 27.228 78.5866 27.3997C78.689 27.4467 78.7748 27.5168 78.853 27.5959C80.5359 29.2014 82.1895 30.8812 84.0418 32.2843C87.7526 35.0215 91.7828 37.2784 95.4987 40.0168C98.0938 41.9513 100.405 44.2879 102.266 46.8877Z" fill="#650000"/>
<path d="M66.6054 88.3338C67.9951 90.2036 70.6554 90.7316 72.5528 89.5557C73.141 89.1745 73.5971 88.6249 73.9109 87.9694C74.0037 87.7698 74.2412 87.6873 74.4409 87.7802C74.6252 87.8693 74.7101 88.0749 74.6417 88.2643C73.4504 91.9011 67.8719 91.8457 66.6054 88.3338Z" fill="#650000"/>
<path d="M72.929 87.6068C73.7022 87.1139 74.8198 87.711 74.9617 88.5878C75.0226 88.869 74.9774 89.1619 74.8439 89.4167C74.7362 89.3031 74.6758 89.1959 74.6014 89.1014C74.1816 88.4708 73.5514 88.0107 72.929 87.6068Z" fill="#650000"/>
<path d="M27.8136 103.302C27.8136 103.302 27.966 107.896 26.4438 108.101C24.9217 108.305 23.8593 103.833 23.8593 103.833L18.879 66.6946C18.8228 66.2842 18.9584 65.867 19.2593 65.5721C19.5462 65.29 19.9929 64.9986 20.6549 64.9126C21.3169 64.8266 21.8262 64.9852 22.1733 65.1851C22.5357 65.3889 22.7771 65.7527 22.8319 66.1682L27.8136 103.302Z" fill="white"/>
<path d="M27.8136 103.302C27.8136 103.302 27.966 107.896 26.4438 108.101C24.9217 108.305 23.8593 103.833 23.8593 103.833L18.879 66.6946C18.8228 66.2842 18.9584 65.867 19.2593 65.5721C19.5462 65.29 19.9929 64.9986 20.6549 64.9126C21.3169 64.8266 21.8262 64.9852 22.1733 65.1851C22.5357 65.3889 22.7771 65.7527 22.8319 66.1682L27.8136 103.302Z" fill="white"/>
<path d="M22.8324 66.1576L27.8128 103.296C27.8128 103.296 27.8478 104.364 27.7142 105.499C27.5719 106.713 27.2342 107.992 26.4482 108.097C25.6622 108.201 24.9954 107.053 24.5408 105.925C24.1121 104.868 23.8637 103.829 23.8637 103.829L18.8833 66.6903C18.8272 66.2799 18.9679 65.864 19.2637 65.5678C19.5505 65.2858 19.9972 64.9944 20.6592 64.9083C21.3213 64.8223 21.8306 64.9809 22.1776 65.1808C22.5349 65.3833 22.7763 65.7472 22.8324 66.1576Z" fill="#FFF7F3"/>
<path d="M22.835 66.1568L27.8154 103.295C27.8154 103.295 26.6777 103.812 25.8917 103.916C25.1057 104.021 23.8676 103.823 23.8676 103.823L18.8872 66.6844C18.8311 66.274 18.9718 65.8581 19.2676 65.5619C19.5544 65.2799 20.0011 64.9885 20.6631 64.9025C21.3251 64.8164 21.8344 64.975 22.1815 65.175C22.5375 65.3826 22.7789 65.7464 22.835 66.1568Z" fill="#E5A265"/>
<path d="M27.7868 103.413C27.7868 103.413 26.6491 103.93 25.8631 104.034C25.0771 104.139 23.839 103.941 23.839 103.941L23.2355 99.4357L21.8144 88.8298L18.8599 66.7972C18.805 66.3817 18.9457 65.9658 19.2402 65.6747C19.5271 65.3927 19.9738 65.1013 20.6358 65.0153C21.2978 64.9292 21.802 65.0866 22.1541 65.2878C22.5165 65.4915 22.7579 65.8554 22.8128 66.2709L25.7112 87.893L27.1806 98.8531L27.7868 103.413Z" fill="#62CC40"/>
<g opacity="0.3">
<path d="M21.8099 88.8177L18.8618 66.8026C18.8069 66.3871 18.9477 65.9712 19.2422 65.6801C19.5291 65.3981 19.9757 65.1067 20.6378 65.0206C21.2998 64.9346 21.804 65.0919 22.1562 65.2931C22.4367 65.4549 22.6497 65.714 22.7502 66.0104C21.0831 65.5925 20.4514 66.0173 20.1666 66.5769C20.0636 66.7741 20.8401 73.2612 21.3107 79.1621C21.6953 84.0478 21.786 88.5185 21.8099 88.8177Z" fill="white"/>
</g>
<path d="M27.1729 98.8513C25.8643 99.4888 24.4108 99.5474 23.228 99.4339L21.8069 88.8283C22.6117 88.6255 24.178 88.2419 25.6996 87.8852L27.1729 98.8513Z" fill="#52B22F"/>
<path d="M27.706 105.497C27.5638 106.711 27.2261 107.991 26.4402 108.095C25.6543 108.199 24.9876 107.051 24.5331 105.923C24.5331 105.923 25.339 106.09 26.1581 105.983C26.9733 105.87 27.706 105.497 27.706 105.497Z" fill="#62CC40"/>
<path d="M25.9674 108.845C24.3297 108.44 23.4287 105.404 23.0949 104.007L23.0819 103.928L18.1015 66.789C18.014 66.1319 18.2384 65.465 18.705 65.0048C19.1933 64.5227 19.8279 64.2181 20.5461 64.1242C21.2644 64.0304 21.9615 64.154 22.557 64.4915C23.1294 64.8123 23.5223 65.3984 23.6098 66.0555L28.5916 103.232L28.593 103.271C28.6448 104.864 28.557 108.606 26.5466 108.875C26.3498 108.902 26.1516 108.891 25.9674 108.845ZM24.6358 103.682C25.1016 105.622 25.9577 107.257 26.3453 107.315C26.6951 107.152 27.0838 105.358 27.0232 103.36L22.0493 66.2614C22.0258 66.0926 21.927 65.9432 21.7848 65.8592C21.4839 65.6924 21.1411 65.6293 20.7589 65.6814C20.3768 65.7335 20.0576 65.8826 19.8141 66.1211C19.6981 66.239 19.6398 66.4092 19.6632 66.578L24.6358 103.682Z" fill="#650000"/>
<path d="M25.7704 89.5361C25.8642 89.7059 28.3631 90.976 30.6947 89.5597C32.6549 88.372 33.3268 81.3638 29.4456 80.4361C26.5993 79.759 24.4398 81.4459 24.4398 81.4459L25.7704 89.5361Z" fill="#9B4635"/>
<path d="M26.8217 90.8227C26.7757 90.8113 26.7245 90.7986 26.6835 90.7885C26.2869 90.6795 25.3299 90.3775 25.0818 89.9088C25.0407 89.8335 25.0124 89.7504 25.0006 89.666L23.6598 81.5734C23.6105 81.2896 23.7247 81.0028 23.953 80.8258C24.0538 80.7476 26.4507 78.913 29.6295 79.6724C29.6398 79.6749 29.65 79.6774 29.6602 79.68C31.4 80.1105 32.5995 81.6292 32.9484 83.8445C33.3141 86.1672 32.6569 89.2903 31.1051 90.2315C29.4448 91.2382 27.7581 91.0544 26.8217 90.8227ZM26.4869 89.0562C27.0872 89.3297 28.7415 89.8205 30.287 88.8831C31.054 88.4158 31.7226 86.1698 31.3959 84.0849C31.2527 83.1697 30.7829 81.5762 29.2836 81.2052C29.2785 81.2039 29.2682 81.2014 29.2631 81.2001C27.4735 80.7736 25.9733 81.4397 25.2969 81.8263L26.4869 89.0562Z" fill="#650000"/>
<path d="M15.0991 92.5783C13.9397 87.159 14.6038 82.8426 15.8889 80.6732C17.305 78.2808 20.1936 77.1816 22.8818 77.5535C28.2569 78.2589 29.0824 82.6777 28.8527 86.0044C30.2227 92.1982 27.9859 96.8803 22.8633 96.384L23.2693 99.3793C23.2642 99.378 16.2545 98.3876 15.0991 92.5783Z" fill="#C97043"/>
<path d="M22.8621 96.3842L23.2681 99.3795C23.2681 99.3795 16.2533 98.3878 15.0979 92.5785C14.6626 90.5373 14.4873 88.6528 14.4992 86.9775C14.5005 86.9724 14.5005 86.9724 14.5005 86.9724C14.5311 84.2101 15.0912 82.0296 15.8864 80.6785C17.3025 78.2861 20.1911 77.1869 22.8806 77.5537C28.2557 78.2591 29.0761 82.6766 28.8515 86.0046C28.8515 86.0046 28.8515 86.0046 28.8502 86.0097C30.2202 92.2035 27.9796 96.8793 22.8621 96.3842Z" fill="#9B4635"/>
<g opacity="0.3">
<path d="M17.2403 81.4786C18.2581 79.7537 20.4412 78.806 22.6738 79.1086C22.9794 79.1462 23.2646 79.2005 23.5307 79.2663C24.9275 79.6119 25.9432 80.3574 26.5728 81.5014C26.5728 81.5014 24.5581 80.536 21.7233 80.6274C19.6386 80.6926 17.2403 81.4786 17.2403 81.4786Z" fill="white"/>
</g>
<path d="M22.8619 96.3841L23.2679 99.3792C23.2679 99.3792 16.2535 98.3876 15.0981 92.5785C14.6629 90.5374 14.4875 88.6529 14.4994 86.9777C14.5438 87.282 15.4748 92.8781 22.5533 92.9949C29.1881 93.1051 28.8579 86.175 28.8498 86.01C30.2197 92.2035 27.9792 96.8791 22.8619 96.3841Z" fill="#873A2D"/>
<path d="M22.2122 99.9652C20.1398 99.4524 15.3295 97.7353 14.3311 92.7415C13.0616 86.8007 13.9569 82.4058 15.2152 80.2785C16.7076 77.753 19.8357 76.3437 22.992 76.7771C27.546 77.3771 29.9689 80.7139 29.6487 85.9463C30.4869 89.8523 29.9544 93.2399 28.169 95.2585C27.0693 96.5016 25.5639 97.1665 23.773 97.2067L24.0499 99.2739C24.0825 99.5155 24.0001 99.7612 23.8267 99.9356C23.6534 100.11 23.4056 100.19 23.1639 100.157C23.0948 100.151 22.7393 100.096 22.2122 99.9652ZM23.6948 78.5043C23.4083 78.4334 23.1026 78.3741 22.7816 78.3327C20.2392 77.986 17.7469 79.0856 16.5712 81.0757C15.5114 82.861 14.6969 86.9066 15.8732 92.4116C15.8719 92.4167 15.8771 92.4179 15.8758 92.4231C16.6525 96.3138 20.4676 97.839 22.3432 98.3574L22.0887 96.4858C22.0548 96.2493 22.1359 96.0087 22.3041 95.8331C22.4711 95.6626 22.7048 95.5738 22.9439 95.5949C24.6677 95.7607 26.0266 95.2932 26.99 94.2064C28.4516 92.5531 28.855 89.6223 28.0897 86.1689C28.0755 86.0947 28.0663 86.0219 28.0738 85.9477C28.2663 83.0354 27.635 79.4793 23.6948 78.5043Z" fill="#650000"/>
<path d="M18.706 95.21C20.1027 95.5338 21.5539 95.6811 22.9662 95.6124L22.7814 97.174C21.3267 96.7109 19.961 96.0418 18.706 95.21Z" fill="#650000"/>
<path d="M85.1742 70.2882C81.4996 69.1329 77.4409 71.6375 76.1088 75.8823C74.7767 80.1271 76.6757 84.5047 80.3503 85.66C84.0248 86.8152 88.0835 84.3107 89.4156 80.0659C90.7477 75.8211 88.8488 71.4434 85.1742 70.2882Z" fill="#650000"/>
<path d="M81.8183 75.8433C80.299 75.3657 78.5783 76.5369 77.975 78.4593C77.3718 80.3817 78.1143 82.3273 79.6336 82.805C81.1529 83.2826 82.8736 82.1114 83.4769 80.189C84.0802 78.2666 83.3376 76.321 81.8183 75.8433Z" fill="white"/>
<g opacity="0.2">
<path d="M86.5167 73.7921C85.8529 73.5834 85.0532 74.2475 84.7306 75.2754C84.4081 76.3033 84.6847 77.3058 85.3485 77.5145C86.0124 77.7232 86.812 77.0591 87.1346 76.0312C87.4572 75.0033 87.1806 74.0008 86.5167 73.7921Z" fill="white"/>
</g>
<path d="M55.7202 63.3434C52.4039 62.3008 48.741 64.5611 47.5388 68.392C46.3366 72.2229 48.0504 76.1737 51.3667 77.2163C54.683 78.2589 58.3459 75.9986 59.5481 72.1677C60.7503 68.3368 59.0365 64.386 55.7202 63.3434Z" fill="#650000"/>
<path d="M52.7337 68.3513C51.3616 67.9199 49.8076 68.9778 49.2627 70.714C48.7178 72.4503 49.3884 74.2075 50.7605 74.6389C52.1326 75.0703 53.6866 74.0124 54.2315 72.2762C54.7763 70.5399 54.1058 68.7827 52.7337 68.3513Z" fill="white"/>
<g opacity="0.2">
<path d="M56.9333 66.5069C56.3333 66.3183 55.6109 66.9176 55.3197 67.8455C55.0285 68.7734 55.2788 69.6785 55.8788 69.8671C56.4787 70.0557 57.2011 69.4564 57.4923 68.5285C57.7835 67.6006 57.5332 66.6955 56.9333 66.5069Z" fill="white"/>
</g>
<path d="M94.2946 108.908C86.0853 104.053 72.4389 102.638 67.0913 106.045C63.1132 108.743 60.3698 115.564 70.1316 118.354C78.9648 121.386 87.6294 123.541 93.5798 123.166C102.188 122.624 109.308 117.429 113.485 110.604L94.2946 108.908Z" fill="#9B4635"/>
<path d="M113.48 110.603C113.326 110.853 113.172 111.103 113.008 111.35C113.008 111.35 113.007 111.355 112.999 111.364C108.768 117.812 101.862 122.648 93.5794 123.167C87.629 123.542 78.9644 121.387 70.1312 118.355C60.9527 115.731 62.8325 109.549 66.3957 106.575L66.397 106.57C66.6227 106.381 66.8561 106.205 67.0909 106.046C72.4385 102.639 86.0836 104.059 94.2942 108.909L113.48 110.603Z" fill="#9B4635"/>
<path d="M113.479 110.603C113.325 110.853 113.171 111.103 113.007 111.35C113.007 111.35 113.006 111.355 112.998 111.364C108.767 117.812 101.862 122.647 93.5788 123.167C87.6284 123.541 78.9638 121.387 70.1306 118.355C63.1831 116.37 62.5751 112.347 64.2282 109.215C64.7635 108.213 65.5267 107.299 66.3951 106.575L66.3964 106.569C66.6221 106.381 66.8556 106.205 67.0903 106.046C72.4379 102.639 86.0831 104.059 94.2937 108.909L95.7333 109.037L113.479 110.603Z" fill="#9B4635"/>
<g opacity="0.3">
<path d="M94.2891 108.907C77.8289 104.004 68.2876 105.597 64.2239 109.214C64.7592 108.211 65.5224 107.297 66.3908 106.573L66.3921 106.568C66.6178 106.379 66.8512 106.203 67.086 106.044C72.4387 102.638 86.085 104.054 94.2891 108.907Z" fill="white"/>
</g>
<path d="M113.48 110.603C113.326 110.853 113.172 111.103 113.008 111.35C113.008 111.35 113.007 111.355 112.999 111.364C108.768 117.812 101.862 122.648 93.5794 123.167C87.629 123.542 78.9644 121.387 70.1312 118.355C60.9527 115.731 62.8325 109.549 66.3957 106.575C66.2772 106.725 62.1201 113.093 70.4523 115.692C80.9876 118.977 92.62 121.512 100.133 119.228C104.841 117.796 109.019 114.377 111.753 110.453L113.48 110.603Z" fill="#873A2D"/>
<path d="M94.2941 108.909C87.2073 106.016 76.4301 103.512 69.0861 106.078C66.7084 106.956 64.6658 109.248 64.4184 111.788C64.2061 114.516 66.8221 116.189 69.1277 117.01C69.8711 117.275 71.1107 117.641 71.8848 117.914C77.4092 119.748 83.0098 121.383 88.774 122.114C92.5628 122.601 96.3852 122.335 99.9669 121C105.418 118.998 109.903 115.236 113.48 110.604C110.088 117.873 102.649 123.109 94.6256 123.92C90.6016 124.342 86.5967 123.764 82.6843 122.943C78.8077 122.109 75.0096 121.001 71.2687 119.771C70.4357 119.451 69.2959 119.142 68.4514 118.825C65.3641 117.74 62.2001 115.296 62.5224 111.639C62.7181 109.374 63.9846 107.434 65.6334 105.99C68.7462 103.344 73.6351 103.223 77.5047 103.382C83.4201 103.764 89.5226 105.258 94.2941 108.909Z" fill="#650000"/>
<path d="M68.7195 107.965C66.3873 109.691 64.256 112.89 66.0995 115.671L64.6964 116.383C63.1243 112.789 65.6135 109.57 68.7195 107.965Z" fill="#650000"/>
</svg>
