<svg width="244" height="472" viewBox="0 0 244 472" fill="none" xmlns="http://www.w3.org/2000/svg">
    <style>
        <![CDATA[
        svg {
            --delay0: 1s;
            --delay1: 2.5s;
            --delay2: 4s;
            --delay3: 5.5s;
        }

        @keyframes tick {
            to { stroke-dashoffset: 130; }
        }
        @keyframes fadeIn {
            to { opacity: 1; }
        }
        @keyframes fadeOut {
            to { opacity: 0; }
        }
        @keyframes select {
            0% { fill: #fff; }
            50% { fill: #FEF0E7; }
            100% { fill: #fff; }
        }
        @keyframes colorize {
            to { fill: #1D8C4A; }
        }


        #timer {
            stroke-dasharray: 200;
            stroke-dashoffset: 0;
            animation: tick 6s linear 0s forwards;
        }

        #question-part2 {
            fill: #fff;
            animation: select 1.5s 0.7s forwards;
        }
        #question-part0 {
            fill: #fff;
            animation: select 1.5s 2s forwards;
        }
        #question-part3 {
            fill: #fff;
            animation: select 1.5s 3.5s forwards;
        }
        #question-part1 {
            fill: #fff;
            animation: select 1.5s 5s forwards;
        }

        #question-letter2 {
            animation: fadeOut 0s var(--delay0) forwards;
        }
        #question-letter0 {
            animation: fadeOut 0s var(--delay1) forwards;
        }
        #question-letter3 {
            animation: fadeOut 0s var(--delay2) forwards;
        }
        #question-letter1 {
            animation: fadeOut 0s var(--delay3) forwards;
        }

        #answer-part0 {
            opacity: 0;
            animation: fadeIn 0s var(--delay0) forwards;
        }
        #answer-part1 {
            opacity: 0;
            animation: fadeIn 0s var(--delay1) forwards;
        }
        #answer-part2 {
            opacity: 0;
            animation: fadeIn 0s var(--delay2) forwards;
        }
        #answer-part3 {
            opacity: 0;
            animation: fadeIn 0s var(--delay3) forwards;
        }

        #answer {
            fill: #000;
            animation: colorize 0s var(--delay3) forwards;
        }
    ]]>
    </style>
<g clip-path="url(#clip0_204_22661)">
<rect x="29" y="42" width="186" height="300" fill="#FEFEFE" fill-opacity="0.82"/>
<path d="M189.73 54.751C189.512 54.1397 188.12 52.7762 187.729 52.8009C187.338 52.8269 189.125 54.454 189.13 55.46" fill="#62CC40"/>
<path d="M189.129 55.6021C189.051 55.6021 188.989 55.539 188.988 55.4623C188.986 54.9302 188.387 54.1383 187.992 53.6149C187.608 53.1076 187.48 52.9245 187.549 52.7711C187.579 52.7067 187.641 52.6671 187.719 52.6622C188.21 52.6312 189.634 54.0678 189.862 54.705C189.888 54.778 189.849 54.8585 189.776 54.8844C189.703 54.9104 189.623 54.8721 189.597 54.7991C189.4 54.2472 188.334 53.2301 187.888 52.9925C187.97 53.1175 188.102 53.2932 188.217 53.4454C188.66 54.0319 189.268 54.835 189.27 55.461C189.27 55.5378 189.207 55.6009 189.129 55.6021Z" fill="#650000"/>
<path d="M187.967 52.9993C187.967 52.9993 187.46 52.4116 187.42 51.5157C187.354 49.9715 188.717 48.6612 189.828 48.1415C189.828 48.1415 189.114 48.9371 189.048 50.0495C189.009 50.6916 189.646 52.372 187.967 52.9993Z" fill="#4FAD2B"/>
<path d="M188.613 52.2731C188.985 51.7819 188.908 51.1137 188.846 50.5767C188.823 50.3676 188.802 50.187 188.81 50.036C188.838 49.5906 188.96 49.1934 189.104 48.8704C188.876 49.2627 188.662 49.6413 188.639 50.0113C188.603 50.5866 188.77 51.7918 188.192 51.5802C188.017 52.0021 187.807 51.8908 187.72 51.5604C187.745 52.1271 187.911 52.5033 188.047 52.7099C188.291 52.5973 188.476 52.4538 188.613 52.2731Z" fill="#42841F"/>
<path d="M187.967 53.1396C187.928 53.1396 187.888 53.1223 187.861 53.0913C187.839 53.0654 187.321 52.4554 187.281 51.5212C187.208 49.8359 188.73 48.4996 189.77 48.0133C189.831 47.9848 189.903 48.0034 189.942 48.0566C189.982 48.1098 189.978 48.184 189.933 48.2348C189.927 48.2422 189.25 49.0093 189.187 50.0574C189.18 50.1749 189.2 50.3407 189.221 50.5325C189.31 51.3021 189.457 52.5915 188.014 53.1309C188.001 53.1371 187.985 53.1396 187.967 53.1396ZM189.366 48.5651C188.477 49.1516 187.506 50.2232 187.561 51.5088C187.59 52.1621 187.886 52.6471 188.014 52.829C189.148 52.3489 189.03 51.3207 188.942 50.5647C188.919 50.3593 188.899 50.1836 188.906 50.0413C188.945 49.4325 189.163 48.919 189.366 48.5651Z" fill="#650000"/>
<path d="M187.89 53.2377C187.89 53.2377 187.214 52.4396 185.905 51.9125C185.061 51.5722 184.086 51.6341 183.142 50.9189C183.142 50.9189 183.419 52.6759 185.615 53.5235C187.067 54.0853 187.89 53.2377 187.89 53.2377Z" fill="#62CC40"/>
<path d="M187.533 53.2145C187.263 52.9596 186.683 52.482 185.814 52.133C185.533 52.0204 186.619 52.9126 185.587 52.7752C186.522 53.5461 184.422 52.8123 185.698 53.3048C186.616 53.6574 187.242 53.4001 187.533 53.2145Z" fill="#43A31F"/>
<path d="M186.583 53.8586C186.286 53.8586 185.945 53.8029 185.563 53.6557C183.317 52.7895 183.014 51.0164 183.002 50.9422C182.993 50.8852 183.019 50.8296 183.068 50.7999C183.118 50.7702 183.18 50.7739 183.226 50.8085C183.81 51.2515 184.412 51.3851 184.994 51.5138C185.329 51.5881 185.646 51.6586 185.956 51.7836C187.283 52.3169 187.967 53.1149 187.996 53.1483C188.043 53.204 188.04 53.2857 187.989 53.3377C187.962 53.3636 187.468 53.8586 186.583 53.8586ZM183.382 51.2503C183.581 51.7873 184.145 52.8068 185.666 53.3933C186.731 53.8041 187.434 53.4131 187.685 53.2263C187.459 52.9986 186.836 52.4393 185.852 52.0434C185.564 51.9271 185.259 51.859 184.934 51.7873C184.427 51.6759 183.905 51.5596 183.382 51.2503Z" fill="#650000"/>
<path d="M188.862 49.1992C188.42 49.7028 188.227 50.3858 188.211 51.044C188.208 51.3744 188.281 51.6998 188.3 52.0438C188.325 52.3915 188.236 52.7553 188.046 53.0498L187.889 52.9471C187.98 52.8147 188.053 52.6736 188.097 52.5214C188.242 52.0389 188.087 51.5439 188.118 51.0403C188.166 50.3759 188.393 49.6867 188.862 49.1992Z" fill="#650000"/>
<path d="M183.786 51.6906C184.888 52.4726 186.493 53.3449 187.879 53.1457L187.905 53.3313C186.466 53.4798 184.886 52.5418 183.786 51.6906Z" fill="#650000"/>
<path d="M191.232 66.1999C192.87 66.2716 194.236 65.4822 194.282 64.4379C194.282 64.4379 194.2 63.6893 194.219 63.0681C194.242 62.2911 194.411 61.4806 194.434 60.9609C194.48 59.9154 193.188 59.0096 191.55 58.9379C189.912 58.8661 188.546 59.6555 188.5 60.6999C188.477 61.2208 188.574 62.0411 188.529 62.8182C188.495 63.4381 188.348 64.1768 188.348 64.1768C188.302 65.2224 189.594 66.1281 191.232 66.1999Z" fill="#62CC40"/>
<path d="M193.826 62.1223C193.859 61.8637 193.034 62.6358 191.611 62.4651C190.936 62.3847 191.701 63.1605 191.661 64.0006C191.621 64.7975 190.869 65.6686 191.421 65.7651C191.972 65.8604 193.814 65.3518 193.794 64.4646C193.776 63.622 193.706 63.0627 193.826 62.1223Z" fill="#43A31F"/>
<path d="M191.433 66.392C191.363 66.392 191.292 66.3908 191.222 66.3871C189.482 66.3103 188.108 65.3155 188.158 64.1685L188.162 64.14C188.163 64.1326 188.306 63.4075 188.341 62.8074C188.366 62.3768 188.346 61.9252 188.327 61.5255C188.314 61.2162 188.3 60.9254 188.311 60.6916C188.362 59.5445 189.818 58.6747 191.557 58.7502C193.297 58.8269 194.67 59.8217 194.621 60.9687C194.611 61.2026 194.572 61.4921 194.531 61.7977C194.478 62.1937 194.419 62.6416 194.407 63.0735C194.388 63.6736 194.467 64.4085 194.468 64.416L194.47 64.4308V64.4457C194.419 65.5457 193.078 66.392 191.433 66.392ZM191.238 66.0134C192.763 66.0814 194.039 65.3774 194.091 64.4432C194.079 64.3306 194.011 63.6488 194.029 63.0623C194.043 62.6119 194.105 62.1541 194.158 61.7495C194.197 61.4513 194.235 61.1704 194.244 60.9526C194.285 60.0123 193.073 59.1931 191.54 59.1251C190.007 59.0583 188.726 59.7685 188.685 60.7089C188.675 60.9254 188.687 61.21 188.701 61.5094C188.72 61.9178 188.739 62.3793 188.715 62.8285C188.681 63.4137 188.554 64.0868 188.532 64.1982C188.503 65.1336 189.713 65.9453 191.238 66.0134Z" fill="#650000"/>
<g opacity="0.5">
<path d="M188.819 64.7379C189.137 65.1858 189.683 65.4407 189.931 65.2242C190.229 64.9631 189.858 64.8035 189.931 63.482C189.952 63.1059 190.293 62.4439 190.039 62.1457C189.828 61.8994 189.489 62.0405 188.961 61.6396C188.616 61.3773 188.958 62.4649 188.986 63.169C189.021 64.1069 188.524 64.3246 188.819 64.7379Z" fill="white"/>
</g>
<path d="M191.414 61.9534C193.052 62.0252 194.418 61.2357 194.464 60.1914C194.464 60.1914 194.382 59.4428 194.401 58.8217C194.424 58.0446 194.593 57.2342 194.616 56.7145C194.662 55.6689 193.37 54.7632 191.732 54.6914C190.094 54.6197 188.728 55.4091 188.682 56.4534C188.66 56.9743 188.756 57.7947 188.712 58.5717C188.677 59.1916 188.53 59.9303 188.53 59.9303C188.484 60.9759 189.776 61.8816 191.414 61.9534Z" fill="#62CC40"/>
<path d="M194.01 57.8772C194.043 57.6186 193.218 58.3907 191.795 58.22C191.119 58.1395 191.885 58.9154 191.845 59.7555C191.805 60.5524 191.053 61.4235 191.605 61.52C192.156 61.6165 193.998 61.1067 193.978 60.2195C193.959 59.3757 193.89 58.8164 194.01 57.8772Z" fill="#43A31F"/>
<path d="M191.616 62.1459C191.545 62.1459 191.475 62.1447 191.404 62.141C189.664 62.0643 188.291 61.0694 188.34 59.9224L188.344 59.894C188.345 59.8865 188.489 59.1615 188.524 58.5613C188.548 58.1307 188.528 57.6791 188.51 57.2795C188.496 56.9701 188.483 56.6793 188.494 56.4455C188.519 55.8738 188.881 55.3566 189.515 54.9916C190.121 54.6414 190.912 54.4682 191.739 54.5041C193.479 54.5808 194.853 55.5756 194.802 56.7226C194.792 56.9565 194.754 57.246 194.713 57.5517C194.661 57.9476 194.6 58.3955 194.588 58.8274C194.569 59.4287 194.648 60.1625 194.65 60.1699L194.651 60.1847V60.1996C194.601 61.2996 193.26 62.1459 191.616 62.1459ZM188.715 59.9521C188.687 60.8863 189.896 61.6993 191.42 61.7661C192.946 61.8329 194.222 61.1301 194.273 60.1959C194.261 60.0833 194.193 59.4015 194.212 58.815C194.225 58.3646 194.287 57.9068 194.34 57.5022C194.38 57.204 194.417 56.9231 194.427 56.7053C194.468 55.7649 193.255 54.9458 191.722 54.8778C190.965 54.8444 190.247 55.0003 189.701 55.3146C189.183 55.614 188.886 56.0211 188.868 56.4603C188.858 56.6781 188.87 56.9615 188.884 57.2621C188.902 57.6692 188.922 58.132 188.897 58.5811C188.864 59.1676 188.736 59.842 188.715 59.9521Z" fill="#650000"/>
<g opacity="0.5">
<path d="M189.001 60.4911C189.319 60.939 189.866 61.1939 190.113 60.9774C190.412 60.7163 190.04 60.5567 190.113 59.2352C190.134 58.859 190.476 58.197 190.221 57.8988C190.011 57.6526 189.672 57.7937 189.143 57.3928C188.798 57.1305 189.141 58.2181 189.168 58.9221C189.203 59.8588 188.707 60.0778 189.001 60.4911Z" fill="white"/>
</g>
<path d="M191.598 57.7688C193.236 57.8406 194.602 57.0512 194.648 56.0068C194.648 56.0068 194.566 55.2583 194.585 54.6371C194.608 53.8601 194.777 53.0496 194.8 52.5299C194.846 51.4844 193.554 50.5786 191.916 50.5068C190.278 50.4351 188.912 51.2245 188.866 52.2688C188.844 52.7898 188.94 53.6101 188.895 54.3872C188.861 55.0071 188.714 55.7458 188.714 55.7458C188.668 56.7913 189.96 57.6971 191.598 57.7688Z" fill="#62CC40"/>
<g opacity="0.5">
<path d="M189.125 56.3077C189.355 56.7432 189.916 56.8905 190.029 56.7742C190.244 56.5527 189.842 56.0454 190.071 55.303C190.182 54.9429 190.563 54.5717 190.308 54.2735C190.098 54.0273 189.793 54.1485 189.255 53.5831C188.957 53.27 189.278 54.2562 189.227 55.0505C189.206 55.3809 188.888 55.8585 189.125 56.3077Z" fill="white"/>
</g>
<path d="M194.348 53.806C194.001 55.0087 194.374 55.933 194.246 56.183C193.927 56.8054 192.425 57.3721 191.456 57.1196C190.7 56.9229 191.931 56.2065 191.487 55.0421C191.155 54.1723 192.598 55.3849 194.348 53.806Z" fill="#43A31F"/>
<path d="M188.87 52.2689C188.825 53.3141 190.116 54.2197 191.754 54.2916C193.393 54.3635 194.758 53.5744 194.804 52.5293C194.85 51.4841 193.559 50.5785 191.92 50.5066C190.282 50.4347 188.916 51.2237 188.87 52.2689Z" fill="#E1FFD4"/>
<path d="M194.403 52.9551C194.479 52.8103 194.52 52.6594 194.527 52.5047C194.546 52.0716 194.292 51.6485 193.81 51.3107C193.306 50.9568 192.62 50.744 191.881 50.7118C190.674 50.6586 189.577 51.1127 189.212 51.8168C189.136 51.9615 189.095 52.1125 189.088 52.2671C189.069 52.7002 189.324 53.1234 189.806 53.4612C190.309 53.8151 190.995 54.0279 191.735 54.0601C192.94 54.112 194.037 53.6579 194.403 52.9551Z" fill="#E1FFD4"/>
<path d="M191.529 54.0456C191.598 54.0518 191.666 54.0555 191.734 54.0592C192.94 54.1124 194.038 53.6583 194.403 52.9555C194.478 52.8107 194.519 52.6597 194.526 52.5051C194.545 52.072 194.29 51.6476 193.809 51.311C193.566 51.1403 193.28 51.0029 192.967 50.9027C193.183 50.9918 193.381 51.0982 193.559 51.2232C194.052 51.5696 194.315 52.0052 194.295 52.4494C194.288 52.6078 194.245 52.7624 194.169 52.9109C193.804 53.61 192.727 54.0703 191.529 54.0456Z" fill="#BEE8AA"/>
<path d="M191.805 57.9601C191.734 57.9601 191.664 57.9588 191.593 57.9551C190.766 57.9193 189.993 57.6767 189.421 57.2746C188.822 56.8539 188.505 56.3082 188.531 55.7366L188.535 55.7081C188.536 55.7007 188.679 54.9756 188.714 54.3755C188.739 53.9449 188.719 53.4933 188.7 53.0936C188.687 52.7843 188.673 52.4935 188.684 52.2596C188.735 51.1126 190.19 50.2415 191.93 50.3182C192.758 50.3541 193.53 50.5966 194.103 50.9988C194.702 51.4195 195.018 51.9651 194.992 52.5368C194.982 52.7707 194.944 53.0602 194.903 53.3671C194.85 53.763 194.791 54.2109 194.778 54.6428C194.76 55.2429 194.839 55.9779 194.84 55.9853L194.841 56.0001V56.015C194.791 57.1137 193.449 57.9601 191.805 57.9601ZM191.609 57.5802C193.135 57.647 194.411 56.9442 194.463 56.01C194.45 55.8974 194.382 55.2157 194.401 54.6292C194.414 54.1788 194.476 53.7209 194.53 53.3163C194.569 53.0181 194.606 52.7373 194.616 52.5195C194.636 52.0802 194.376 51.6484 193.885 51.3044C193.369 50.9431 192.669 50.7253 191.911 50.6919C190.378 50.6239 189.098 51.3353 189.057 52.2757C189.047 52.4935 189.059 52.7768 189.073 53.0775C189.091 53.4846 189.111 53.9474 189.086 54.3965C189.053 54.9818 188.926 55.6549 188.903 55.7663C188.89 56.2006 189.15 56.6275 189.635 56.9677C190.152 57.3303 190.852 57.548 191.609 57.5802Z" fill="#650000"/>
<path d="M190.217 53.9484C191.172 54.2169 192.161 54.2714 193.142 54.1365C192.236 54.5337 191.064 54.4644 190.217 53.9484Z" fill="#650000"/>
<path d="M194.01 53.7449C194.266 53.4157 194.513 53.0928 194.586 52.6956C194.656 52.3219 194.505 51.9594 194.257 51.676C193.721 51.0784 192.878 50.7777 192.081 50.7072C190.575 50.5476 188.271 51.4533 189.282 53.3031C188.882 53.0581 188.631 52.5657 188.702 52.0856C188.765 51.5956 189.1 51.1811 189.492 50.9114C190.598 50.1727 192.216 50.164 193.432 50.6255C194.079 50.8817 194.721 51.3333 194.938 52.0324C195.17 52.7587 194.742 53.5494 194.01 53.7449Z" fill="#650000"/>
<path d="M191.713 53.5345C192.728 53.579 193.602 53.2524 193.903 52.7649C193.97 52.656 194.009 52.5397 194.014 52.4172C194.044 51.7453 193.061 51.1576 191.819 51.1031C190.578 51.0487 189.547 51.5486 189.518 52.2204C189.513 52.3429 189.541 52.463 189.598 52.5768C189.857 53.0878 190.698 53.49 191.713 53.5345Z" fill="#E1FFD4"/>
<path d="M191.713 53.5343C192.727 53.5789 193.602 53.2522 193.903 52.7647C193.97 52.6558 194.009 52.5395 194.014 52.417C194.044 51.7451 193.061 51.1561 191.819 51.1029C191.807 51.1029 191.794 51.1017 191.782 51.1017C190.557 51.0584 189.546 51.5558 189.518 52.2202C189.514 52.3106 189.528 52.3997 189.558 52.485C189.57 52.516 189.582 52.5457 189.597 52.5766C189.857 53.0876 190.698 53.4898 191.713 53.5343Z" fill="#E1FFD4"/>
<path d="M191.71 53.5348C192.725 53.5793 193.6 53.2527 193.9 52.7652C193.967 52.6563 194.007 52.54 194.012 52.4175C194.041 51.7456 193.059 51.1566 191.817 51.1034C191.804 51.1034 191.792 51.1022 191.78 51.1022C193.073 51.4598 192.841 52.4496 192.596 52.7144C191.83 53.5385 190.277 53.0498 189.556 52.4868C189.567 52.5177 189.58 52.5474 189.594 52.5783C189.854 53.0881 190.696 53.4902 191.71 53.5348Z" fill="#BEE8AA"/>
<path d="M191.897 53.6803C191.834 53.6803 191.771 53.679 191.707 53.6765C190.659 53.6308 189.761 53.215 189.473 52.6409C189.404 52.5023 189.372 52.3588 189.378 52.2152C189.394 51.8366 189.67 51.4988 190.152 51.2637C190.608 51.0422 191.202 50.9358 191.825 50.963C193.164 51.0212 194.187 51.6634 194.154 52.4243C194.148 52.5691 194.103 52.7089 194.022 52.8401C193.705 53.3524 192.866 53.6803 191.897 53.6803ZM191.632 51.2402C191.123 51.2402 190.646 51.3367 190.275 51.5161C189.889 51.703 189.67 51.9554 189.658 52.2264C189.654 52.3216 189.675 52.4182 189.723 52.5134C189.963 52.991 190.784 53.3536 191.718 53.3944C192.653 53.4365 193.501 53.147 193.782 52.6916C193.837 52.6013 193.868 52.5072 193.872 52.412C193.898 51.8292 192.954 51.2946 191.812 51.2439C191.752 51.2414 191.692 51.2402 191.632 51.2402Z" fill="#650000"/>
<path d="M191.789 51.8063C191.081 51.8248 190.11 52.0092 189.719 52.6501L189.725 52.5128C189.804 52.6625 189.933 52.7961 190.084 52.9038C190.867 53.4297 191.973 53.5101 192.869 53.2676C193.215 53.1661 193.585 52.9929 193.783 52.691C193.882 52.5313 194.121 52.6761 194.022 52.8382C193.896 53.0349 193.719 53.1797 193.534 53.2911C192.475 53.9345 190.134 53.8083 189.472 52.639L189.433 52.5647L189.477 52.5016C189.993 51.8285 191.013 51.7382 191.789 51.8063Z" fill="#650000"/>
<path d="M200.299 55.7168L201.456 57.6406L202.628 55.7168H203.688L201.959 58.3242L203.741 61H202.696L201.476 59.0176L200.255 61H199.205L200.982 58.3242L199.259 55.7168H200.299ZM209.356 58.6074V59.3496H204.22V58.8174L207.403 53.8906H208.141L207.35 55.3164L205.245 58.6074H209.356ZM208.365 53.8906V61H207.462V53.8906H208.365Z" fill="#373737"/>
<path d="M29 97H215V231H29V97Z" fill="white"/>
<path d="M35 59L43 59M35 59L38.4286 55M35 59L38.4286 63" stroke="#373737" stroke-linecap="round" stroke-linejoin="round"/>
<path id="timer" d="M29 72H215" stroke="#1D8C4A" stroke-width="2"/>
<circle cx="44" cy="329" r="5" fill="#1D8C4A"/>
<circle cx="78" cy="329" r="5" fill="#F04438"/>
<path d="M59.2734 327.82V329.051C59.2734 329.585 59.2165 330.045 59.1025 330.433C58.9886 330.817 58.8242 331.132 58.6094 331.38C58.3978 331.624 58.1455 331.805 57.8525 331.922C57.5596 332.039 57.234 332.098 56.876 332.098C56.5895 332.098 56.3226 332.062 56.0752 331.99C55.8278 331.915 55.6048 331.8 55.4062 331.644C55.2109 331.487 55.0417 331.29 54.8984 331.053C54.7585 330.812 54.651 330.525 54.5762 330.193C54.5013 329.861 54.4639 329.48 54.4639 329.051V327.82C54.4639 327.286 54.5208 326.829 54.6348 326.448C54.752 326.064 54.9163 325.75 55.1279 325.506C55.3428 325.262 55.5967 325.083 55.8896 324.969C56.1826 324.852 56.5081 324.793 56.8662 324.793C57.1527 324.793 57.418 324.83 57.6621 324.905C57.9095 324.977 58.1325 325.089 58.3311 325.242C58.5296 325.395 58.6989 325.592 58.8389 325.833C58.9788 326.071 59.0863 326.355 59.1611 326.688C59.236 327.016 59.2734 327.394 59.2734 327.82ZM57.8623 329.236V327.63C57.8623 327.373 57.8477 327.148 57.8184 326.956C57.7923 326.764 57.7516 326.601 57.6963 326.468C57.641 326.331 57.5726 326.22 57.4912 326.136C57.4098 326.051 57.3171 325.989 57.2129 325.95C57.1087 325.911 56.9932 325.892 56.8662 325.892C56.7067 325.892 56.5651 325.923 56.4414 325.984C56.321 326.046 56.2184 326.146 56.1338 326.282C56.0492 326.416 55.984 326.595 55.9385 326.819C55.8962 327.041 55.875 327.311 55.875 327.63V329.236C55.875 329.493 55.888 329.72 55.9141 329.915C55.9434 330.11 55.9857 330.278 56.041 330.418C56.0996 330.555 56.168 330.667 56.2461 330.755C56.3275 330.84 56.4202 330.901 56.5244 330.94C56.6318 330.979 56.749 330.999 56.876 330.999C57.0322 330.999 57.1706 330.968 57.291 330.906C57.4147 330.841 57.5189 330.74 57.6035 330.604C57.6914 330.464 57.7565 330.281 57.7988 330.057C57.8411 329.832 57.8623 329.559 57.8623 329.236Z" fill="#373737"/>
<path d="M93.2734 327.82V329.051C93.2734 329.585 93.2165 330.045 93.1025 330.433C92.9886 330.817 92.8242 331.132 92.6094 331.38C92.3978 331.624 92.1455 331.805 91.8525 331.922C91.5596 332.039 91.234 332.098 90.876 332.098C90.5895 332.098 90.3226 332.062 90.0752 331.99C89.8278 331.915 89.6048 331.8 89.4062 331.644C89.2109 331.487 89.0417 331.29 88.8984 331.053C88.7585 330.812 88.651 330.525 88.5762 330.193C88.5013 329.861 88.4639 329.48 88.4639 329.051V327.82C88.4639 327.286 88.5208 326.829 88.6348 326.448C88.752 326.064 88.9163 325.75 89.1279 325.506C89.3428 325.262 89.5967 325.083 89.8896 324.969C90.1826 324.852 90.5081 324.793 90.8662 324.793C91.1527 324.793 91.418 324.83 91.6621 324.905C91.9095 324.977 92.1325 325.089 92.3311 325.242C92.5296 325.395 92.6989 325.592 92.8389 325.833C92.9788 326.071 93.0863 326.355 93.1611 326.688C93.236 327.016 93.2734 327.394 93.2734 327.82ZM91.8623 329.236V327.63C91.8623 327.373 91.8477 327.148 91.8184 326.956C91.7923 326.764 91.7516 326.601 91.6963 326.468C91.641 326.331 91.5726 326.22 91.4912 326.136C91.4098 326.051 91.3171 325.989 91.2129 325.95C91.1087 325.911 90.9932 325.892 90.8662 325.892C90.7067 325.892 90.5651 325.923 90.4414 325.984C90.321 326.046 90.2184 326.146 90.1338 326.282C90.0492 326.416 89.984 326.595 89.9385 326.819C89.8962 327.041 89.875 327.311 89.875 327.63V329.236C89.875 329.493 89.888 329.72 89.9141 329.915C89.9434 330.11 89.9857 330.278 90.041 330.418C90.0996 330.555 90.168 330.667 90.2461 330.755C90.3275 330.84 90.4202 330.901 90.5244 330.94C90.6318 330.979 90.749 330.999 90.876 330.999C91.0322 330.999 91.1706 330.968 91.291 330.906C91.4147 330.841 91.5189 330.74 91.6035 330.604C91.6914 330.464 91.7565 330.281 91.7988 330.057C91.8411 329.832 91.8623 329.559 91.8623 329.236Z" fill="#373737"/>
<path d="M76 327L80 331M76 331L80 327" stroke="white" stroke-linecap="round" stroke-linejoin="round"/>
<path d="M46.7693 326.083C46.7135 326.046 46.6512 326.021 46.5858 326.009C46.5205 325.996 46.4534 325.997 46.3884 326.011C46.3234 326.025 46.2617 326.052 46.207 326.091C46.1522 326.129 46.1054 326.178 46.0692 326.235L43.233 330.69L41.8497 329.387C41.8009 329.341 41.7437 329.305 41.6814 329.282C41.619 329.258 41.5527 329.247 41.4863 329.25C41.3522 329.255 41.2256 329.315 41.1345 329.415C41.0434 329.516 40.9951 329.649 41.0004 329.786C41.0056 329.922 41.064 330.051 41.1625 330.144L42.9787 331.855C42.9787 331.855 43.0308 331.901 43.055 331.917C43.1107 331.954 43.1731 331.979 43.2384 331.991C43.3038 332.004 43.3709 332.003 43.436 331.989C43.501 331.975 43.5627 331.948 43.6174 331.909C43.6722 331.871 43.719 331.822 43.7552 331.765L46.9184 326.796C46.9546 326.74 46.9795 326.676 46.9916 326.61C47.0037 326.543 47.0027 326.475 46.9889 326.408C46.975 326.342 46.9485 326.279 46.9108 326.223C46.8732 326.168 46.8251 326.12 46.7693 326.083Z" fill="white"/>
<path d="M187.916 324.876V332H186.51V326.497L184.82 327.034V325.926L187.765 324.876H187.916ZM193.326 324.891L190.719 332.61H189.674L192.281 324.891H193.326ZM197.369 324.876V332H195.963V326.497L194.273 327.034V325.926L197.218 324.876H197.369ZM204.469 327.82V329.051C204.469 329.585 204.412 330.045 204.298 330.433C204.184 330.817 204.02 331.132 203.805 331.38C203.593 331.624 203.341 331.805 203.048 331.922C202.755 332.039 202.429 332.098 202.071 332.098C201.785 332.098 201.518 332.062 201.271 331.99C201.023 331.915 200.8 331.8 200.602 331.644C200.406 331.487 200.237 331.29 200.094 331.053C199.954 330.812 199.846 330.525 199.771 330.193C199.697 329.861 199.659 329.48 199.659 329.051V327.82C199.659 327.286 199.716 326.829 199.83 326.448C199.947 326.064 200.112 325.75 200.323 325.506C200.538 325.262 200.792 325.083 201.085 324.969C201.378 324.852 201.703 324.793 202.062 324.793C202.348 324.793 202.613 324.83 202.857 324.905C203.105 324.977 203.328 325.089 203.526 325.242C203.725 325.395 203.894 325.592 204.034 325.833C204.174 326.071 204.282 326.355 204.356 326.688C204.431 327.016 204.469 327.394 204.469 327.82ZM203.058 329.236V327.63C203.058 327.373 203.043 327.148 203.014 326.956C202.988 326.764 202.947 326.601 202.892 326.468C202.836 326.331 202.768 326.22 202.687 326.136C202.605 326.051 202.512 325.989 202.408 325.95C202.304 325.911 202.188 325.892 202.062 325.892C201.902 325.892 201.76 325.923 201.637 325.984C201.516 326.046 201.414 326.146 201.329 326.282C201.244 326.416 201.179 326.595 201.134 326.819C201.091 327.041 201.07 327.311 201.07 327.63V329.236C201.07 329.493 201.083 329.72 201.109 329.915C201.139 330.11 201.181 330.278 201.236 330.418C201.295 330.555 201.363 330.667 201.441 330.755C201.523 330.84 201.616 330.901 201.72 330.94C201.827 330.979 201.944 330.999 202.071 330.999C202.228 330.999 202.366 330.968 202.486 330.906C202.61 330.841 202.714 330.74 202.799 330.604C202.887 330.464 202.952 330.281 202.994 330.057C203.036 329.832 203.058 329.559 203.058 329.236Z" fill="#373737"/>
<path d="M179.86 326.239C179.722 325.922 179.491 325.694 179.194 325.578L179.19 325.577C179.054 325.526 178.91 325.5 178.765 325.5H178.749C178.067 325.51 177.372 326.066 177.019 326.885C176.759 327.483 176.73 328.127 176.939 328.607C177.078 328.924 177.309 329.152 177.607 329.268L177.611 329.269C177.746 329.32 177.89 329.346 178.036 329.346C178.723 329.346 179.426 328.789 179.786 327.96C180.042 327.362 180.07 326.719 179.86 326.239ZM177.139 329.769C176.746 329.542 176.375 329.327 176.132 328.942C175.463 327.875 175.059 327.231 174 327.231C172.94 327.231 172.535 327.875 171.865 328.942C171.622 329.328 171.25 329.543 170.856 329.771C170.404 330.032 169.937 330.301 169.736 330.832C169.657 331.023 169.618 331.227 169.619 331.433C169.619 332.297 170.319 333 171.18 333C171.623 333 172.096 332.852 172.595 332.696C173.076 332.545 173.573 332.39 174.002 332.39C174.432 332.39 174.928 332.545 175.406 332.696C175.905 332.851 176.375 332.999 176.82 332.999C177.679 332.999 178.378 332.296 178.378 331.432C178.379 331.226 178.338 331.022 178.259 330.831C178.058 330.3 177.591 330.03 177.139 329.769ZM171.35 326.386C171.647 326.745 172.025 326.942 172.413 326.942C172.466 326.942 172.519 326.938 172.571 326.931C173.38 326.817 173.885 325.867 173.719 324.768C173.65 324.306 173.465 323.875 173.2 323.556C172.903 323.198 172.525 323 172.137 323C172.084 323 172.031 323.004 171.979 323.012C171.169 323.126 170.665 324.076 170.83 325.175C170.899 325.636 171.084 326.066 171.35 326.386ZM175.429 326.931C175.481 326.938 175.534 326.942 175.587 326.942C175.976 326.942 176.353 326.745 176.651 326.386C176.915 326.066 177.099 325.636 177.169 325.174C177.335 324.076 176.831 323.126 176.021 323.011C175.969 323.004 175.916 323 175.863 323C175.475 323 175.097 323.198 174.8 323.556C174.535 323.875 174.35 324.306 174.281 324.768C174.115 325.867 174.62 326.817 175.429 326.931ZM170.389 329.269L170.393 329.268C170.691 329.152 170.922 328.924 171.06 328.607C171.27 328.126 171.24 327.483 170.981 326.885C170.623 326.057 169.921 325.5 169.234 325.5C169.088 325.5 168.944 325.526 168.809 325.577L168.805 325.578C168.508 325.692 168.277 325.922 168.139 326.239C167.929 326.719 167.959 327.362 168.217 327.961C168.576 328.789 169.278 329.346 169.965 329.346C170.11 329.346 170.254 329.32 170.389 329.269Z" fill="#FF8A42"/>
<g filter="url(#filter0_d_204_22661)">
<rect x="69" y="75" width="27" height="19" rx="2" fill="#F4F5FA"/>
</g>
<g filter="url(#filter1_d_204_22661)">
<rect x="183" y="292" width="27" height="19" rx="2" fill="#F4F5FA"/>
</g>
<g filter="url(#filter2_d_204_22661)">
<rect x="183" y="75" width="27" height="19" rx="2" fill="#FFA600"/>
</g>
<g filter="url(#filter3_d_204_22661)">
<rect x="35" y="75" width="27" height="19" rx="2" fill="#F4F5FA"/>
</g>
<path d="M78 82.3413V86.6579C78 86.9172 78.2612 87.0821 78.4747 86.9577L82.269 84.7505C82.4546 84.6425 82.4546 84.3585 82.269 84.2505L78.4747 82.0434C78.2612 81.917 78 82.0819 78 82.3413ZM82.5918 82.3413V86.6579C82.5918 86.9172 82.853 87.0821 83.0665 86.9577L86.8608 84.7505C87.0464 84.6425 87.0464 84.3585 86.8608 84.2505L83.0665 82.0434C82.8528 81.917 82.5918 82.0819 82.5918 82.3413Z" stroke="#373737" stroke-width="0.7" stroke-miterlimit="10"/>
<path d="M49.7169 82.6171C49.7169 82.6171 49.9899 82.4827 48.9997 82.4827C48.6451 82.4827 48.2984 82.5878 48.0035 82.7849C47.7086 82.9819 47.4788 83.2619 47.3431 83.5896C47.2074 83.9172 47.1719 84.2778 47.2411 84.6256C47.3102 84.9734 47.481 85.2929 47.7318 85.5437C47.9826 85.7945 48.3021 85.9652 48.6499 86.0344C48.9977 86.1036 49.3583 86.0681 49.6859 85.9324C50.0135 85.7967 50.2936 85.5668 50.4906 85.272C50.6876 84.9771 50.7928 84.6304 50.7928 84.2758" stroke="#373737" stroke-width="0.7" stroke-miterlimit="10" stroke-linecap="round"/>
<path d="M49.1381 81.931L49.6898 82.6207L49.1381 83.3103" stroke="#373737" stroke-width="0.7" stroke-linecap="round" stroke-linejoin="round"/>
<path d="M49 80C46.7917 80 45 81.7917 45 84C45 86.2083 46.7917 88 49 88C51.2083 88 53 86.2083 53 84C53 81.7917 51.2083 80 49 80Z" stroke="#373737" stroke-width="0.7" stroke-miterlimit="10"/>
<path d="M197.667 86.8571V86.3214C197.667 85.6741 198.433 85.0618 198.931 84.625C199.632 84.0096 200 83.1828 200 82.2143C200 80.4286 198.451 79 196.5 79C196.04 78.9988 195.584 79.0812 195.159 79.2423C194.734 79.4034 194.348 79.6401 194.022 79.9388C193.697 80.2375 193.439 80.5923 193.264 80.9828C193.088 81.3734 192.999 81.7919 193 82.2143C193 83.1482 193.384 84.031 194.069 84.625C194.564 85.0538 195.333 85.6674 195.333 86.3214V86.8571M195.722 89H197.278M195.333 87.9286H197.667M196.5 86.8571V84" stroke="white" stroke-width="0.7" stroke-linecap="round" stroke-linejoin="round"/>
<path d="M197.423 83.6431C197.423 83.6431 196.9 84.0002 196.499 84.0002C196.098 84.0002 195.576 83.6431 195.576 83.6431" stroke="white" stroke-width="0.7" stroke-linecap="round" stroke-linejoin="round"/>
<path d="M196.773 303.494V302.717C197.962 302.717 198.534 302.998 199.035 303.523C199.148 303.64 199.348 303.55 199.333 303.389C199.219 302.109 198.622 300.949 196.773 300.949V300.172C196.773 300.138 196.763 300.105 196.744 300.077C196.726 300.049 196.699 300.026 196.668 300.013C196.637 300 196.602 299.996 196.569 300.002C196.536 300.008 196.505 300.024 196.48 300.047L194.721 301.708C194.704 301.724 194.69 301.743 194.681 301.765C194.672 301.786 194.667 301.809 194.667 301.833C194.667 301.856 194.672 301.879 194.681 301.9C194.69 301.922 194.704 301.941 194.721 301.957L196.48 303.619C196.504 303.642 196.535 303.658 196.568 303.664C196.602 303.671 196.636 303.667 196.667 303.654C196.699 303.64 196.725 303.618 196.744 303.59C196.763 303.562 196.773 303.528 196.773 303.494Z" fill="#373737"/>
<path d="M197 298C194.792 298 193 299.792 193 302C193 304.208 194.792 306 197 306C199.208 306 201 304.208 201 302C201 299.792 199.208 298 197 298Z" stroke="#373737" stroke-width="0.7" stroke-miterlimit="10"/>

<rect id="question-part0" x="42" y="244" width="34" height="30" rx="4"/>
<rect id="question-part1" x="84" y="244" width="34" height="30" rx="4"/>
<rect id="question-part2" x="126" y="244" width="34" height="30" rx="4"/>
<rect id="question-part3" x="168" y="244" width="34" height="30" rx="4"/>

<path id="question-letter0" d="M59.8652 256.717V262H58.6836V256.717H59.8652ZM58.6055 255.33C58.6055 255.151 58.6641 255.003 58.7812 254.886C58.9017 254.765 59.0677 254.705 59.2793 254.705C59.4876 254.705 59.652 254.765 59.7725 254.886C59.8929 255.003 59.9531 255.151 59.9531 255.33C59.9531 255.506 59.8929 255.652 59.7725 255.77C59.652 255.887 59.4876 255.945 59.2793 255.945C59.0677 255.945 58.9017 255.887 58.7812 255.77C58.6641 255.652 58.6055 255.506 58.6055 255.33Z" fill="#373737"/>
<path id="question-letter1" d="M101.865 256.717V262H100.684V256.717H101.865ZM100.605 255.33C100.605 255.151 100.664 255.003 100.781 254.886C100.902 254.765 101.068 254.705 101.279 254.705C101.488 254.705 101.652 254.765 101.772 254.886C101.893 255.003 101.953 255.151 101.953 255.33C101.953 255.506 101.893 255.652 101.772 255.77C101.652 255.887 101.488 255.945 101.279 255.945C101.068 255.945 100.902 255.887 100.781 255.77C100.664 255.652 100.605 255.506 100.605 255.33Z" fill="#373737"/>
<path id="question-letter2" d="M138.764 261.16C138.956 261.16 139.128 261.123 139.281 261.048C139.438 260.97 139.563 260.862 139.657 260.726C139.755 260.589 139.809 260.431 139.818 260.252H140.927C140.92 260.594 140.819 260.905 140.624 261.185C140.429 261.465 140.17 261.688 139.848 261.854C139.525 262.016 139.169 262.098 138.778 262.098C138.375 262.098 138.023 262.029 137.724 261.893C137.424 261.753 137.175 261.561 136.977 261.316C136.778 261.072 136.628 260.791 136.527 260.472C136.43 260.153 136.381 259.811 136.381 259.446V259.275C136.381 258.911 136.43 258.569 136.527 258.25C136.628 257.928 136.778 257.645 136.977 257.4C137.175 257.156 137.424 256.966 137.724 256.829C138.023 256.689 138.373 256.619 138.773 256.619C139.197 256.619 139.568 256.704 139.887 256.873C140.206 257.039 140.456 257.272 140.639 257.571C140.824 257.868 140.92 258.213 140.927 258.606H139.818C139.809 258.411 139.76 258.235 139.672 258.079C139.587 257.92 139.467 257.793 139.311 257.698C139.158 257.604 138.974 257.557 138.759 257.557C138.521 257.557 138.324 257.605 138.168 257.703C138.012 257.798 137.89 257.928 137.802 258.094C137.714 258.257 137.65 258.44 137.611 258.646C137.576 258.847 137.558 259.057 137.558 259.275V259.446C137.558 259.664 137.576 259.876 137.611 260.081C137.647 260.286 137.709 260.47 137.797 260.633C137.888 260.792 138.012 260.921 138.168 261.019C138.324 261.113 138.523 261.16 138.764 261.16ZM142.992 254.5V262H141.82V254.5H142.992ZM142.787 259.163L142.406 259.158C142.41 258.794 142.46 258.457 142.558 258.147C142.659 257.838 142.799 257.57 142.978 257.342C143.16 257.111 143.378 256.933 143.632 256.81C143.886 256.683 144.167 256.619 144.477 256.619C144.737 256.619 144.971 256.655 145.18 256.727C145.391 256.798 145.574 256.914 145.727 257.073C145.88 257.229 145.995 257.435 146.073 257.688C146.155 257.939 146.195 258.245 146.195 258.606V262H145.014V258.597C145.014 258.343 144.976 258.141 144.901 257.991C144.83 257.841 144.724 257.734 144.584 257.669C144.444 257.601 144.273 257.566 144.071 257.566C143.86 257.566 143.673 257.609 143.51 257.693C143.35 257.778 143.217 257.894 143.109 258.04C143.002 258.187 142.921 258.356 142.865 258.548C142.813 258.74 142.787 258.945 142.787 259.163ZM148.646 256.717V262H147.465V256.717H148.646ZM147.387 255.33C147.387 255.151 147.445 255.003 147.562 254.886C147.683 254.765 147.849 254.705 148.061 254.705C148.269 254.705 148.433 254.765 148.554 254.886C148.674 255.003 148.734 255.151 148.734 255.33C148.734 255.506 148.674 255.652 148.554 255.77C148.433 255.887 148.269 255.945 148.061 255.945C147.849 255.945 147.683 255.887 147.562 255.77C147.445 255.652 147.387 255.506 147.387 255.33Z" fill="#373737"/>
<path id="question-letter3" d="M182.569 260.569C182.569 260.452 182.54 260.346 182.481 260.252C182.423 260.154 182.311 260.066 182.145 259.988C181.982 259.91 181.741 259.839 181.422 259.773C181.142 259.712 180.885 259.638 180.65 259.554C180.419 259.466 180.221 259.36 180.055 259.236C179.889 259.113 179.76 258.966 179.669 258.797C179.578 258.628 179.532 258.432 179.532 258.211C179.532 257.996 179.579 257.793 179.674 257.601C179.768 257.409 179.903 257.239 180.079 257.093C180.255 256.946 180.468 256.831 180.719 256.746C180.973 256.661 181.256 256.619 181.568 256.619C182.011 256.619 182.39 256.694 182.706 256.844C183.025 256.99 183.269 257.19 183.438 257.444C183.608 257.695 183.692 257.978 183.692 258.294H182.516C182.516 258.154 182.48 258.024 182.408 257.903C182.34 257.78 182.236 257.68 182.096 257.605C181.956 257.527 181.78 257.488 181.568 257.488C181.367 257.488 181.199 257.521 181.065 257.586C180.935 257.648 180.838 257.729 180.772 257.83C180.711 257.931 180.68 258.042 180.68 258.162C180.68 258.25 180.696 258.33 180.729 258.401C180.764 258.47 180.823 258.533 180.904 258.592C180.986 258.647 181.096 258.699 181.236 258.748C181.38 258.797 181.559 258.844 181.773 258.89C182.177 258.974 182.524 259.083 182.813 259.217C183.106 259.347 183.331 259.516 183.487 259.725C183.644 259.93 183.722 260.19 183.722 260.506C183.722 260.74 183.671 260.955 183.57 261.15C183.473 261.342 183.329 261.51 183.141 261.653C182.952 261.793 182.726 261.902 182.462 261.98C182.201 262.059 181.909 262.098 181.583 262.098C181.104 262.098 180.699 262.013 180.367 261.844C180.035 261.671 179.783 261.451 179.61 261.185C179.441 260.914 179.356 260.634 179.356 260.345H180.494C180.507 260.563 180.567 260.737 180.675 260.867C180.785 260.994 180.922 261.087 181.085 261.146C181.251 261.201 181.422 261.229 181.598 261.229C181.809 261.229 181.987 261.201 182.13 261.146C182.273 261.087 182.382 261.009 182.457 260.911C182.532 260.81 182.569 260.696 182.569 260.569ZM187.73 260.94V258.421C187.73 258.232 187.696 258.069 187.628 257.933C187.56 257.796 187.455 257.69 187.315 257.615C187.179 257.54 187.006 257.503 186.798 257.503C186.606 257.503 186.44 257.535 186.3 257.601C186.16 257.666 186.051 257.754 185.973 257.864C185.895 257.975 185.855 258.1 185.855 258.24H184.684C184.684 258.032 184.734 257.83 184.835 257.635C184.936 257.439 185.082 257.265 185.274 257.112C185.466 256.959 185.696 256.839 185.963 256.751C186.23 256.663 186.529 256.619 186.861 256.619C187.258 256.619 187.61 256.686 187.916 256.819C188.225 256.953 188.468 257.155 188.644 257.425C188.823 257.692 188.912 258.027 188.912 258.431V260.779C188.912 261.02 188.928 261.237 188.961 261.429C188.997 261.618 189.047 261.782 189.112 261.922V262H187.906C187.851 261.873 187.807 261.712 187.774 261.517C187.745 261.318 187.73 261.126 187.73 260.94ZM187.901 258.787L187.911 259.515H187.066C186.848 259.515 186.656 259.536 186.49 259.578C186.324 259.617 186.186 259.676 186.075 259.754C185.965 259.832 185.882 259.926 185.826 260.037C185.771 260.148 185.743 260.273 185.743 260.413C185.743 260.553 185.776 260.682 185.841 260.799C185.906 260.913 186 261.002 186.124 261.067C186.251 261.132 186.404 261.165 186.583 261.165C186.824 261.165 187.034 261.116 187.213 261.019C187.395 260.918 187.538 260.796 187.643 260.652C187.747 260.506 187.802 260.368 187.809 260.237L188.189 260.76C188.15 260.893 188.084 261.036 187.989 261.189C187.895 261.342 187.771 261.489 187.618 261.629C187.468 261.766 187.288 261.878 187.076 261.966C186.868 262.054 186.627 262.098 186.354 262.098C186.008 262.098 185.701 262.029 185.431 261.893C185.16 261.753 184.949 261.565 184.796 261.331C184.643 261.093 184.566 260.825 184.566 260.525C184.566 260.245 184.618 259.998 184.723 259.783C184.83 259.565 184.986 259.383 185.191 259.236C185.4 259.09 185.654 258.979 185.953 258.904C186.253 258.826 186.594 258.787 186.979 258.787H187.901Z" fill="#373737"/>

<path d="M101.137 144.233V145H97.582V144.233H101.137ZM97.7676 137.891V145H96.8252V137.891H97.7676ZM103.061 139.717V145H102.152V139.717H103.061ZM102.084 138.315C102.084 138.169 102.128 138.045 102.216 137.944C102.307 137.843 102.44 137.793 102.616 137.793C102.789 137.793 102.921 137.843 103.012 137.944C103.106 138.045 103.153 138.169 103.153 138.315C103.153 138.455 103.106 138.576 103.012 138.677C102.921 138.774 102.789 138.823 102.616 138.823C102.44 138.823 102.307 138.774 102.216 138.677C102.128 138.576 102.084 138.455 102.084 138.315ZM106.723 139.717V140.41H103.866V139.717H106.723ZM104.833 138.433H105.736V143.691C105.736 143.87 105.764 144.006 105.819 144.097C105.875 144.188 105.946 144.248 106.034 144.277C106.122 144.307 106.216 144.321 106.317 144.321C106.392 144.321 106.47 144.315 106.552 144.302C106.636 144.285 106.7 144.272 106.742 144.263L106.747 145C106.675 145.023 106.581 145.044 106.464 145.063C106.35 145.086 106.212 145.098 106.049 145.098C105.827 145.098 105.624 145.054 105.438 144.966C105.253 144.878 105.105 144.731 104.994 144.526C104.887 144.318 104.833 144.038 104.833 143.687V138.433ZM109.994 139.717V140.41H107.138V139.717H109.994ZM108.104 138.433H109.008V143.691C109.008 143.87 109.035 144.006 109.091 144.097C109.146 144.188 109.218 144.248 109.306 144.277C109.394 144.307 109.488 144.321 109.589 144.321C109.664 144.321 109.742 144.315 109.823 144.302C109.908 144.285 109.971 144.272 110.014 144.263L110.019 145C109.947 145.023 109.853 145.044 109.735 145.063C109.621 145.086 109.483 145.098 109.32 145.098C109.099 145.098 108.896 145.054 108.71 144.966C108.524 144.878 108.376 144.731 108.266 144.526C108.158 144.318 108.104 144.038 108.104 143.687V138.433ZM112.035 137.5V145H111.127V137.5H112.035ZM115.678 145.098C115.31 145.098 114.976 145.036 114.677 144.912C114.381 144.785 114.125 144.608 113.91 144.38C113.699 144.152 113.536 143.882 113.422 143.569C113.308 143.257 113.251 142.915 113.251 142.544V142.339C113.251 141.909 113.314 141.527 113.441 141.191C113.568 140.853 113.741 140.566 113.959 140.332C114.177 140.098 114.424 139.92 114.701 139.8C114.978 139.679 115.264 139.619 115.561 139.619C115.938 139.619 116.264 139.684 116.537 139.814C116.814 139.945 117.04 140.127 117.216 140.361C117.392 140.592 117.522 140.866 117.606 141.182C117.691 141.494 117.733 141.836 117.733 142.207V142.612H113.788V141.875H116.83V141.807C116.817 141.572 116.768 141.344 116.684 141.123C116.602 140.902 116.472 140.719 116.293 140.576C116.114 140.433 115.87 140.361 115.561 140.361C115.355 140.361 115.167 140.405 114.994 140.493C114.822 140.578 114.674 140.705 114.55 140.874C114.426 141.043 114.33 141.25 114.262 141.494C114.193 141.738 114.159 142.02 114.159 142.339V142.544C114.159 142.795 114.193 143.031 114.262 143.252C114.333 143.47 114.436 143.662 114.569 143.828C114.706 143.994 114.87 144.124 115.062 144.219C115.258 144.313 115.479 144.36 115.727 144.36C116.046 144.36 116.316 144.295 116.537 144.165C116.758 144.035 116.952 143.861 117.118 143.643L117.665 144.077C117.551 144.25 117.406 144.414 117.23 144.57C117.055 144.727 116.838 144.854 116.581 144.951C116.327 145.049 116.026 145.098 115.678 145.098ZM119.608 143.926V144.653C119.608 144.95 119.534 145.262 119.384 145.591C119.234 145.923 119.024 146.2 118.754 146.421L118.241 146.064C118.345 145.921 118.433 145.775 118.505 145.625C118.576 145.479 118.63 145.326 118.666 145.166C118.705 145.01 118.725 144.844 118.725 144.668V143.926H119.608ZM126.317 143.599C126.317 143.468 126.288 143.348 126.229 143.237C126.174 143.123 126.059 143.021 125.883 142.93C125.71 142.835 125.45 142.754 125.102 142.686C124.809 142.624 124.543 142.55 124.306 142.466C124.071 142.381 123.871 142.279 123.705 142.158C123.542 142.038 123.417 141.896 123.329 141.733C123.241 141.571 123.197 141.38 123.197 141.162C123.197 140.954 123.243 140.757 123.334 140.571C123.428 140.386 123.56 140.221 123.729 140.078C123.902 139.935 124.109 139.823 124.35 139.741C124.59 139.66 124.859 139.619 125.155 139.619C125.578 139.619 125.94 139.694 126.239 139.844C126.539 139.993 126.768 140.194 126.928 140.444C127.087 140.692 127.167 140.967 127.167 141.27H126.264C126.264 141.123 126.22 140.981 126.132 140.845C126.047 140.705 125.922 140.589 125.756 140.498C125.593 140.407 125.393 140.361 125.155 140.361C124.905 140.361 124.701 140.4 124.545 140.479C124.392 140.553 124.28 140.649 124.208 140.767C124.14 140.884 124.105 141.007 124.105 141.138C124.105 141.235 124.122 141.323 124.154 141.401C124.19 141.476 124.252 141.546 124.34 141.611C124.428 141.673 124.551 141.732 124.711 141.787C124.87 141.842 125.074 141.898 125.321 141.953C125.754 142.051 126.111 142.168 126.391 142.305C126.671 142.441 126.879 142.609 127.016 142.808C127.152 143.006 127.221 143.247 127.221 143.53C127.221 143.761 127.172 143.973 127.074 144.165C126.98 144.357 126.841 144.523 126.659 144.663C126.48 144.8 126.265 144.907 126.015 144.985C125.767 145.06 125.489 145.098 125.18 145.098C124.714 145.098 124.32 145.015 123.998 144.849C123.676 144.683 123.432 144.468 123.266 144.204C123.1 143.94 123.017 143.662 123.017 143.369H123.925C123.938 143.617 124.009 143.813 124.14 143.96C124.27 144.103 124.429 144.206 124.618 144.268C124.807 144.326 124.994 144.355 125.18 144.355C125.427 144.355 125.634 144.323 125.8 144.258C125.969 144.193 126.098 144.103 126.186 143.989C126.273 143.875 126.317 143.745 126.317 143.599ZM129.306 140.767V145H128.397V139.717H129.257L129.306 140.767ZM129.12 142.158L128.7 142.144C128.703 141.782 128.751 141.449 128.842 141.143C128.933 140.833 129.068 140.565 129.247 140.337C129.426 140.109 129.649 139.933 129.916 139.81C130.183 139.683 130.492 139.619 130.844 139.619C131.091 139.619 131.319 139.655 131.527 139.727C131.736 139.795 131.916 139.904 132.069 140.054C132.222 140.203 132.341 140.396 132.426 140.63C132.51 140.864 132.553 141.147 132.553 141.479V145H131.649V141.523C131.649 141.247 131.602 141.025 131.508 140.859C131.417 140.693 131.286 140.573 131.117 140.498C130.948 140.42 130.749 140.381 130.521 140.381C130.255 140.381 130.032 140.428 129.853 140.522C129.674 140.617 129.53 140.747 129.423 140.913C129.315 141.079 129.237 141.27 129.188 141.484C129.143 141.696 129.12 141.921 129.12 142.158ZM132.543 141.66L131.938 141.846C131.941 141.556 131.988 141.278 132.079 141.011C132.174 140.744 132.309 140.506 132.484 140.298C132.663 140.09 132.883 139.925 133.144 139.805C133.404 139.681 133.702 139.619 134.037 139.619C134.32 139.619 134.571 139.657 134.789 139.731C135.01 139.806 135.196 139.922 135.346 140.078C135.499 140.231 135.614 140.428 135.692 140.669C135.771 140.91 135.81 141.196 135.81 141.528V145H134.901V141.519C134.901 141.222 134.854 140.993 134.76 140.83C134.669 140.664 134.538 140.549 134.369 140.483C134.203 140.415 134.005 140.381 133.773 140.381C133.575 140.381 133.399 140.415 133.246 140.483C133.093 140.552 132.965 140.646 132.86 140.767C132.756 140.884 132.676 141.019 132.621 141.172C132.569 141.325 132.543 141.488 132.543 141.66ZM140.292 144.097V141.377C140.292 141.169 140.25 140.988 140.165 140.835C140.084 140.679 139.96 140.558 139.794 140.474C139.628 140.389 139.423 140.347 139.179 140.347C138.951 140.347 138.751 140.386 138.578 140.464C138.409 140.542 138.275 140.645 138.178 140.771C138.083 140.898 138.036 141.035 138.036 141.182H137.133C137.133 140.993 137.182 140.806 137.279 140.62C137.377 140.435 137.517 140.267 137.699 140.117C137.885 139.964 138.106 139.844 138.363 139.756C138.624 139.665 138.913 139.619 139.232 139.619C139.617 139.619 139.955 139.684 140.248 139.814C140.544 139.945 140.775 140.142 140.941 140.405C141.111 140.666 141.195 140.993 141.195 141.387V143.848C141.195 144.023 141.21 144.211 141.239 144.409C141.272 144.608 141.319 144.779 141.381 144.922V145H140.438C140.393 144.896 140.357 144.757 140.331 144.585C140.305 144.409 140.292 144.246 140.292 144.097ZM140.448 141.797L140.458 142.432H139.545C139.288 142.432 139.058 142.453 138.856 142.495C138.655 142.534 138.485 142.594 138.349 142.676C138.212 142.757 138.108 142.86 138.036 142.983C137.965 143.104 137.929 143.245 137.929 143.408C137.929 143.574 137.966 143.726 138.041 143.862C138.116 143.999 138.228 144.108 138.378 144.189C138.531 144.268 138.718 144.307 138.939 144.307C139.216 144.307 139.46 144.248 139.672 144.131C139.883 144.014 140.051 143.87 140.175 143.701C140.302 143.532 140.37 143.368 140.38 143.208L140.766 143.643C140.743 143.779 140.681 143.931 140.58 144.097C140.479 144.263 140.344 144.422 140.175 144.575C140.009 144.725 139.81 144.85 139.579 144.951C139.351 145.049 139.094 145.098 138.808 145.098C138.45 145.098 138.135 145.028 137.865 144.888C137.598 144.748 137.39 144.561 137.24 144.326C137.094 144.089 137.021 143.823 137.021 143.53C137.021 143.247 137.076 142.998 137.187 142.783C137.297 142.565 137.457 142.384 137.665 142.241C137.873 142.095 138.124 141.984 138.417 141.909C138.71 141.834 139.037 141.797 139.398 141.797H140.448ZM143.598 137.5V145H142.689V137.5H143.598ZM146.029 137.5V145H145.121V137.5H146.029Z" fill="#373737"/>
<path d="M90.46 112.34C90.3 112.88 90.2 113.5 90.08 114.02C89.8 115.62 89 119.48 88.32 121.34C90.06 120.12 91.86 119.62 93.94 119.62C97.12 119.62 98.98 121.24 98.98 123.58C98.98 127.76 94.72 129.3 88.64 128.66L88.22 127.06C92.86 127.7 97.34 126.92 97.34 123.62C97.34 122.14 96.12 120.98 93.78 120.98C91.4 120.98 89.18 121.8 87.86 123.38C87.62 123.68 87.44 123.96 87.24 124.3L85.76 123.78C87.28 120.8 88.34 115.84 88.58 113.92C88.66 113.28 88.7 112.8 88.66 112.26L90.46 112.34ZM84.24 114.9C85.3 115.08 86.82 115.22 88.02 115.22C90.58 115.22 94.52 114.92 97.66 114.22L97.7 115.76C94.86 116.26 90.78 116.66 88.04 116.66C86.68 116.66 85.4 116.56 84.26 116.46L84.24 114.9ZM106.46 114.06C106.36 114.52 106.3 115.48 106.28 116C106.26 117.24 106.28 119.08 106.42 120.72C106.76 124.06 107.72 126.28 109.16 126.28C110.18 126.28 111.12 124.22 111.64 122.22L112.9 123.64C111.68 127.02 110.48 128.18 109.12 128.18C107.22 128.18 105.42 126.3 104.86 121.12C104.68 119.4 104.64 116.96 104.64 115.8C104.64 115.34 104.64 114.48 104.52 114.02L106.46 114.06ZM116.86 114.6C118.66 116.92 120.1 121.18 120.4 124.56L118.78 125.2C118.44 121.6 117.22 117.48 115.32 115.14L116.86 114.6ZM132.46 113.84C132.34 113.4 132.16 112.8 131.96 112.26L133.68 112.06C133.86 113.22 134.38 114.94 134.84 116.24C135.46 117.96 136.48 119.82 137.34 120.98C137.6 121.38 137.9 121.72 138.2 122.04L137.4 123.18C136.44 122.94 134 122.72 132.56 122.62L132.68 121.3C133.8 121.4 135.28 121.52 136 121.6C135.16 120.32 134.06 118.34 133.4 116.52C132.96 115.38 132.68 114.46 132.46 113.84ZM125.14 115.4C128.48 115.78 131.64 115.8 133.92 115.56C135.5 115.38 137.48 115.02 139.04 114.48L139.22 116.06C137.8 116.46 135.9 116.78 134.44 116.96C131.9 117.26 128.72 117.28 125.18 116.98L125.14 115.4ZM128.24 121.76C127.64 122.74 127.28 123.6 127.28 124.54C127.28 126.46 129.02 127.28 132 127.32C134.02 127.32 135.76 127.12 137.14 126.82L137.08 128.42C135.82 128.64 134.14 128.86 131.9 128.84C128.1 128.82 125.7 127.46 125.7 124.74C125.7 123.62 126.1 122.58 126.68 121.4L128.24 121.76ZM146.46 114.06C146.36 114.52 146.3 115.48 146.28 116C146.26 117.24 146.28 119.08 146.42 120.72C146.76 124.06 147.72 126.28 149.16 126.28C150.18 126.28 151.12 124.22 151.64 122.22L152.9 123.64C151.68 127.02 150.48 128.18 149.12 128.18C147.22 128.18 145.42 126.3 144.86 121.12C144.68 119.4 144.64 116.96 144.64 115.8C144.64 115.34 144.64 114.48 144.52 114.02L146.46 114.06ZM156.86 114.6C158.66 116.92 160.1 121.18 160.4 124.56L158.78 125.2C158.44 121.6 157.22 117.48 155.32 115.14L156.86 114.6Z" fill="#373737"/>

<g id="answer">
    <path id="answer-part0" d="M108.764 202.16C108.956 202.16 109.128 202.123 109.281 202.048C109.438 201.97 109.563 201.862 109.657 201.726C109.755 201.589 109.809 201.431 109.818 201.252H110.927C110.92 201.594 110.819 201.905 110.624 202.185C110.429 202.465 110.17 202.688 109.848 202.854C109.525 203.016 109.169 203.098 108.778 203.098C108.375 203.098 108.023 203.029 107.724 202.893C107.424 202.753 107.175 202.561 106.977 202.316C106.778 202.072 106.628 201.791 106.527 201.472C106.43 201.153 106.381 200.811 106.381 200.446V200.275C106.381 199.911 106.43 199.569 106.527 199.25C106.628 198.928 106.778 198.645 106.977 198.4C107.175 198.156 107.424 197.966 107.724 197.829C108.023 197.689 108.373 197.619 108.773 197.619C109.197 197.619 109.568 197.704 109.887 197.873C110.206 198.039 110.456 198.272 110.639 198.571C110.824 198.868 110.92 199.213 110.927 199.606H109.818C109.809 199.411 109.76 199.235 109.672 199.079C109.587 198.92 109.467 198.793 109.311 198.698C109.158 198.604 108.974 198.557 108.759 198.557C108.521 198.557 108.324 198.605 108.168 198.703C108.012 198.798 107.89 198.928 107.802 199.094C107.714 199.257 107.65 199.44 107.611 199.646C107.576 199.847 107.558 200.057 107.558 200.275V200.446C107.558 200.664 107.576 200.876 107.611 201.081C107.647 201.286 107.709 201.47 107.797 201.633C107.888 201.792 108.012 201.921 108.168 202.019C108.324 202.113 108.523 202.16 108.764 202.16ZM112.992 195.5V203H111.82V195.5H112.992ZM112.787 200.163L112.406 200.158C112.41 199.794 112.46 199.457 112.558 199.147C112.659 198.838 112.799 198.57 112.978 198.342C113.16 198.111 113.378 197.933 113.632 197.81C113.886 197.683 114.167 197.619 114.477 197.619C114.737 197.619 114.971 197.655 115.18 197.727C115.391 197.798 115.574 197.914 115.727 198.073C115.88 198.229 115.995 198.435 116.073 198.688C116.155 198.939 116.195 199.245 116.195 199.606V203H115.014V199.597C115.014 199.343 114.976 199.141 114.901 198.991C114.83 198.841 114.724 198.734 114.584 198.669C114.444 198.601 114.273 198.566 114.071 198.566C113.86 198.566 113.673 198.609 113.51 198.693C113.35 198.778 113.217 198.894 113.109 199.04C113.002 199.187 112.921 199.356 112.865 199.548C112.813 199.74 112.787 199.945 112.787 200.163ZM118.646 197.717V203H117.465V197.717H118.646ZM117.387 196.33C117.387 196.151 117.445 196.003 117.562 195.886C117.683 195.765 117.849 195.705 118.061 195.705C118.269 195.705 118.433 195.765 118.554 195.886C118.674 196.003 118.734 196.151 118.734 196.33C118.734 196.506 118.674 196.652 118.554 196.77C118.433 196.887 118.269 196.945 118.061 196.945C117.849 196.945 117.683 196.887 117.562 196.77C117.445 196.652 117.387 196.506 117.387 196.33Z"/>
    <path id="answer-part1" d="M121.865 197.717V203H120.684V197.717H121.865ZM120.605 196.33C120.605 196.151 120.664 196.003 120.781 195.886C120.902 195.765 121.068 195.705 121.279 195.705C121.488 195.705 121.652 195.765 121.772 195.886C121.893 196.003 121.953 196.151 121.953 196.33C121.953 196.506 121.893 196.652 121.772 196.77C121.652 196.887 121.488 196.945 121.279 196.945C121.068 196.945 120.902 196.887 120.781 196.77C120.664 196.652 120.605 196.506 120.605 196.33Z"/>
    <path id="answer-part2" d="M126.569 201.569C126.569 201.452 126.54 201.346 126.481 201.252C126.423 201.154 126.311 201.066 126.145 200.988C125.982 200.91 125.741 200.839 125.422 200.773C125.142 200.712 124.885 200.638 124.65 200.554C124.419 200.466 124.221 200.36 124.055 200.236C123.889 200.113 123.76 199.966 123.669 199.797C123.578 199.628 123.532 199.432 123.532 199.211C123.532 198.996 123.579 198.793 123.674 198.601C123.768 198.409 123.903 198.239 124.079 198.093C124.255 197.946 124.468 197.831 124.719 197.746C124.973 197.661 125.256 197.619 125.568 197.619C126.011 197.619 126.39 197.694 126.706 197.844C127.025 197.99 127.269 198.19 127.438 198.444C127.608 198.695 127.692 198.978 127.692 199.294H126.516C126.516 199.154 126.48 199.024 126.408 198.903C126.34 198.78 126.236 198.68 126.096 198.605C125.956 198.527 125.78 198.488 125.568 198.488C125.367 198.488 125.199 198.521 125.065 198.586C124.935 198.648 124.838 198.729 124.772 198.83C124.711 198.931 124.68 199.042 124.68 199.162C124.68 199.25 124.696 199.33 124.729 199.401C124.764 199.47 124.823 199.533 124.904 199.592C124.986 199.647 125.096 199.699 125.236 199.748C125.38 199.797 125.559 199.844 125.773 199.89C126.177 199.974 126.524 200.083 126.813 200.217C127.106 200.347 127.331 200.516 127.487 200.725C127.644 200.93 127.722 201.19 127.722 201.506C127.722 201.74 127.671 201.955 127.57 202.15C127.473 202.342 127.329 202.51 127.141 202.653C126.952 202.793 126.726 202.902 126.462 202.98C126.201 203.059 125.909 203.098 125.583 203.098C125.104 203.098 124.699 203.013 124.367 202.844C124.035 202.671 123.783 202.451 123.61 202.185C123.441 201.914 123.356 201.634 123.356 201.345H124.494C124.507 201.563 124.567 201.737 124.675 201.867C124.785 201.994 124.922 202.087 125.085 202.146C125.251 202.201 125.422 202.229 125.598 202.229C125.809 202.229 125.987 202.201 126.13 202.146C126.273 202.087 126.382 202.009 126.457 201.911C126.532 201.81 126.569 201.696 126.569 201.569ZM131.73 201.94V199.421C131.73 199.232 131.696 199.069 131.628 198.933C131.56 198.796 131.455 198.69 131.315 198.615C131.179 198.54 131.006 198.503 130.798 198.503C130.606 198.503 130.44 198.535 130.3 198.601C130.16 198.666 130.051 198.754 129.973 198.864C129.895 198.975 129.855 199.1 129.855 199.24H128.684C128.684 199.032 128.734 198.83 128.835 198.635C128.936 198.439 129.082 198.265 129.274 198.112C129.466 197.959 129.696 197.839 129.963 197.751C130.23 197.663 130.529 197.619 130.861 197.619C131.258 197.619 131.61 197.686 131.916 197.819C132.225 197.953 132.468 198.155 132.644 198.425C132.823 198.692 132.912 199.027 132.912 199.431V201.779C132.912 202.02 132.928 202.237 132.961 202.429C132.997 202.618 133.047 202.782 133.112 202.922V203H131.906C131.851 202.873 131.807 202.712 131.774 202.517C131.745 202.318 131.73 202.126 131.73 201.94ZM131.901 199.787L131.911 200.515H131.066C130.848 200.515 130.656 200.536 130.49 200.578C130.324 200.617 130.186 200.676 130.075 200.754C129.965 200.832 129.882 200.926 129.826 201.037C129.771 201.148 129.743 201.273 129.743 201.413C129.743 201.553 129.776 201.682 129.841 201.799C129.906 201.913 130 202.002 130.124 202.067C130.251 202.132 130.404 202.165 130.583 202.165C130.824 202.165 131.034 202.116 131.213 202.019C131.395 201.918 131.538 201.796 131.643 201.652C131.747 201.506 131.802 201.368 131.809 201.237L132.189 201.76C132.15 201.893 132.084 202.036 131.989 202.189C131.895 202.342 131.771 202.489 131.618 202.629C131.468 202.766 131.288 202.878 131.076 202.966C130.868 203.054 130.627 203.098 130.354 203.098C130.008 203.098 129.701 203.029 129.431 202.893C129.16 202.753 128.949 202.565 128.796 202.331C128.643 202.093 128.566 201.825 128.566 201.525C128.566 201.245 128.618 200.998 128.723 200.783C128.83 200.565 128.986 200.383 129.191 200.236C129.4 200.09 129.654 199.979 129.953 199.904C130.253 199.826 130.594 199.787 130.979 199.787H131.901Z"/>
    <path id="answer-part3" d="M135.865 197.717V203H134.684V197.717H135.865ZM134.605 196.33C134.605 196.151 134.664 196.003 134.781 195.886C134.902 195.765 135.068 195.705 135.279 195.705C135.488 195.705 135.652 195.765 135.772 195.886C135.893 196.003 135.953 196.151 135.953 196.33C135.953 196.506 135.893 196.652 135.772 196.77C135.652 196.887 135.488 196.945 135.279 196.945C135.068 196.945 134.902 196.887 134.781 196.77C134.664 196.652 134.605 196.506 134.605 196.33Z"/>
</g>
</g>
<path d="M29.447 468.895C29.1774 468.895 28.9079 468.83 28.6384 468.83C28.0993 468.766 27.6276 468.701 27.0885 468.637C24.0562 468.122 21.0913 467.221 18.3959 465.999C18.1938 465.935 17.9916 465.806 17.8569 465.742C17.3852 465.484 16.9135 465.227 16.4418 464.969C16.2396 464.841 16.0375 464.712 15.8353 464.583C14.7572 463.94 13.7464 463.296 12.7356 462.589C12.5335 462.46 12.3987 462.331 12.1966 462.202C11.6575 461.816 11.1858 461.366 10.6467 460.98C10.512 460.851 10.3098 460.722 10.175 460.529C9.97289 460.336 9.83813 460.208 9.63597 460.015C9.43382 459.822 9.29904 459.693 9.09689 459.5C8.96212 459.371 8.89474 459.307 8.75997 459.178C8.6252 459.049 8.49043 458.856 8.35566 458.728C7.54704 457.827 6.73843 456.926 5.9972 455.961C5.86243 455.768 5.72768 455.639 5.59291 455.446C5.18861 454.931 4.85168 454.352 4.51476 453.773C4.37999 453.58 4.24522 453.387 4.11045 453.13C3.23445 451.585 2.42585 449.977 1.81939 448.304C1.752 448.046 1.68462 447.853 1.54985 447.596C1.14555 446.438 0.808608 445.279 0.606455 444.057C0.539071 443.799 0.539083 443.542 0.471699 443.349C0.134777 441.611 0 439.874 0 438.072V34.1678C0 17.5663 13.7464 3.92481 30.9968 3.15265C15.4984 3.92481 3.09968 16.215 3.09968 31.2078V440.968C3.16707 455.446 14.6898 467.415 29.447 468.895Z" fill="url(#paint0_linear_204_22661)"/>
<path d="M243.998 34.1679V438.008C243.998 441.354 243.459 444.572 242.448 447.532C242.381 447.789 242.313 447.982 242.178 448.239C242.111 448.497 242.044 448.69 241.909 448.947C241.841 449.14 241.774 449.269 241.707 449.462C241.505 449.977 241.302 450.492 241.033 450.942C240.898 451.135 240.831 451.392 240.696 451.585C240.561 451.907 240.359 452.164 240.224 452.486C240.089 452.679 240.022 452.872 239.887 453.065C239.753 453.258 239.618 453.451 239.483 453.709C239.146 454.288 238.742 454.867 238.405 455.382C238.27 455.575 238.135 455.704 238.001 455.897C237.866 456.09 237.731 456.283 237.529 456.476C237.394 456.669 237.259 456.862 237.057 457.055C236.922 457.248 236.72 457.441 236.585 457.634C236.451 457.827 236.249 458.02 236.114 458.213C235.777 458.599 235.44 458.921 235.103 459.243C234.564 459.757 234.025 460.272 233.486 460.787C233.351 460.916 233.149 461.109 232.947 461.237C232.542 461.559 232.138 461.881 231.734 462.203C231.532 462.331 231.397 462.46 231.195 462.589C230.588 463.039 229.982 463.425 229.375 463.811C229.173 463.94 228.971 464.069 228.769 464.197C228.365 464.455 227.893 464.712 227.489 464.969C227.286 465.098 227.084 465.227 226.815 465.291C226.141 465.677 225.4 465.999 224.658 466.321C224.456 466.385 224.254 466.514 224.052 466.578C223.85 466.707 223.58 466.771 223.378 466.836C223.176 466.9 222.906 467.029 222.637 467.093C222.098 467.286 221.559 467.479 221.02 467.608C220.818 467.672 220.615 467.736 220.481 467.801C219.807 467.994 219.066 468.187 218.324 468.316C218.055 468.38 217.785 468.444 217.583 468.444C217.314 468.509 217.044 468.573 216.774 468.573C216.235 468.637 215.764 468.702 215.225 468.766C214.955 468.766 214.686 468.83 214.416 468.83C229.173 467.35 240.696 455.382 240.696 440.904V31.2079C240.696 16.4725 228.769 4.37534 213.607 3.2171C230.656 4.37534 243.998 17.8238 243.998 34.1679Z" fill="url(#paint1_linear_204_22661)"/>
<path d="M244 438.008V440.968C244 458.084 229.445 471.983 211.521 471.983H32.6154C14.6912 471.983 0.136169 458.084 0.136169 440.968V438.008C0.136169 439.81 0.270926 441.547 0.607848 443.284C0.675232 443.542 0.67524 443.799 0.742625 443.992C1.01216 445.215 1.2817 446.373 1.686 447.531C1.75339 447.789 1.82077 447.982 1.95553 448.239C2.56199 449.912 3.30324 451.521 4.24662 453.065C4.38139 453.258 4.51614 453.451 4.65091 453.709C4.98783 454.288 5.39214 454.867 5.72906 455.382C5.86383 455.575 5.9986 455.703 6.13337 455.896C6.8746 456.862 7.61583 457.827 8.49183 458.663C8.62659 458.792 8.76137 458.985 8.89614 459.114C9.0309 459.242 9.09829 459.371 9.23306 459.436C9.43521 459.629 9.56997 459.757 9.77212 459.95C9.97428 460.143 10.1091 460.272 10.3112 460.465C10.446 460.594 10.6481 460.787 10.7829 460.916C11.2546 461.366 11.7937 461.752 12.3327 462.138C12.5349 462.267 12.6697 462.396 12.8718 462.524C13.8826 463.232 14.8933 463.94 15.9715 464.519C16.1736 464.648 16.3758 464.776 16.5779 464.905C17.0496 465.162 17.5213 465.42 17.993 465.677C18.1952 465.742 18.3973 465.87 18.5321 465.935C21.2275 467.222 24.1924 468.122 27.2247 468.573C27.6964 468.637 28.2354 468.701 28.7745 468.766C29.3136 468.83 29.7853 468.895 30.3244 468.895C30.5939 468.895 30.8634 468.959 31.133 468.959C31.6047 468.959 32.1437 469.023 32.6828 469.023H211.588C212.127 469.023 212.599 469.023 213.071 468.959C213.34 468.959 213.61 468.959 213.879 468.895C214.284 468.895 214.755 468.83 215.16 468.766C215.227 468.766 215.362 468.766 215.429 468.766C215.968 468.701 216.44 468.637 216.979 468.573C217.249 468.508 217.518 468.508 217.788 468.444C218.057 468.38 218.327 468.315 218.529 468.315C219.27 468.187 220.011 467.994 220.685 467.801C220.887 467.736 221.089 467.672 221.224 467.608C221.763 467.479 222.302 467.286 222.841 467.093C223.044 467.028 223.313 466.9 223.583 466.835C223.852 466.771 224.054 466.642 224.257 466.578C224.459 466.514 224.661 466.449 224.863 466.321C225.604 465.999 226.278 465.677 227.019 465.291C227.221 465.162 227.424 465.098 227.693 464.969C228.097 464.712 228.569 464.519 228.973 464.197C229.176 464.069 229.378 463.94 229.58 463.811C230.186 463.425 230.793 462.975 231.399 462.589C231.601 462.46 231.736 462.331 231.938 462.202C232.343 461.881 232.747 461.559 233.151 461.237C233.353 461.109 233.488 460.916 233.69 460.787C234.229 460.272 234.768 459.757 235.308 459.242C235.644 458.921 235.981 458.535 236.318 458.213C236.453 458.02 236.655 457.827 236.79 457.634C236.925 457.441 237.127 457.248 237.262 457.055C237.396 456.862 237.599 456.669 237.733 456.476C237.868 456.283 238.003 456.089 238.205 455.896C238.34 455.703 238.475 455.575 238.609 455.382C239.014 454.803 239.351 454.288 239.688 453.709C239.822 453.516 239.957 453.323 240.092 453.065C240.227 452.872 240.294 452.679 240.429 452.486C240.564 452.164 240.766 451.907 240.9 451.585C241.035 451.392 241.103 451.135 241.237 450.942C241.44 450.427 241.709 449.977 241.911 449.462C241.979 449.269 242.046 449.14 242.113 448.947C242.181 448.754 242.316 448.497 242.383 448.239C242.45 448.046 242.518 447.789 242.652 447.531C243.461 444.571 244 441.354 244 438.008Z" fill="url(#paint2_linear_204_22661)"/>
<path d="M244 31.2082V34.1681C244 18.0814 231.062 4.76165 214.621 3.28168C214.351 3.28168 214.081 3.21734 213.812 3.21734C213.542 3.21734 213.273 3.15299 213.003 3.15299C212.532 3.15299 211.993 3.08864 211.521 3.08864H32.6154C32.0763 3.08864 31.6047 3.08864 31.133 3.15299C13.8826 3.92515 0.136169 17.5023 0.136169 34.1681V31.2082C0.136169 30.8864 0.136169 30.6291 0.136169 30.3073C0.136169 30.0499 0.136169 29.8569 0.136169 29.5995C0.136169 29.0847 0.203541 28.6343 0.270926 28.1195C0.270926 27.8621 0.338314 27.6048 0.338314 27.3474C0.338314 27.2187 0.405703 27.09 0.405703 26.9613C0.405703 26.8326 0.473091 26.6396 0.473091 26.4465C0.540476 26.1891 0.540463 25.9317 0.607848 25.6744C0.675232 25.2239 0.810017 24.7735 0.877401 24.3874C0.944786 24.1944 1.01216 23.937 1.01216 23.7439C1.14693 23.1005 1.34909 22.457 1.55124 21.8135C1.61863 21.6205 1.68601 21.4275 1.75339 21.2344C1.82077 20.977 1.95554 20.7197 2.02292 20.5266C2.09031 20.3336 2.1577 20.1405 2.22509 19.9475C2.29247 19.7545 2.35985 19.6258 2.42723 19.4327C2.49462 19.2397 2.562 19.0466 2.69677 18.8536C2.76415 18.7249 2.83155 18.5319 2.89893 18.4032C2.96632 18.2101 3.10109 17.9527 3.23585 17.7597C3.43801 17.3736 3.64016 17.0519 3.84231 16.6658C3.90969 16.4728 4.04446 16.2797 4.17923 16.0867C4.314 15.8937 4.44877 15.6363 4.58354 15.4432C5.45954 13.9632 6.53769 12.612 7.61584 11.2607C7.75061 11.0676 7.95275 10.8746 8.08752 10.6816C8.28967 10.4885 8.49183 10.2955 8.6266 10.1024C8.96352 9.78071 9.30045 9.45897 9.63737 9.13724C9.97429 8.8155 10.3786 8.42942 10.7155 8.10769C11.1198 7.78595 11.4567 7.46422 11.861 7.14248C12.0632 7.01379 12.2653 6.82075 12.4675 6.69206C12.8718 6.37033 13.2761 6.11294 13.6804 5.79121C14.0847 5.53382 14.489 5.21209 14.9607 4.9547C15.365 4.69731 15.8367 4.43993 16.241 4.18254C16.4432 4.05385 16.7127 3.92515 16.9149 3.79645C17.117 3.66776 17.3866 3.53907 17.5887 3.47472C17.7909 3.34603 18.0604 3.28168 18.2626 3.15299C18.4647 3.02429 18.7342 2.95995 18.9364 2.83125C19.4081 2.63821 19.8798 2.44518 20.3515 2.25214C20.5536 2.18779 20.8232 2.05909 21.0253 1.99474H21.0927C21.2949 1.9304 21.5644 1.86605 21.7666 1.73736C21.9687 1.67301 22.2382 1.60867 22.4404 1.54432C22.7099 1.47997 22.9795 1.41563 23.249 1.28694C23.5185 1.22259 23.7207 1.15824 23.9902 1.09389C24.2598 1.02955 24.4619 0.965198 24.7315 0.900851C25.001 0.836504 25.2705 0.772155 25.4727 0.707808C26.0118 0.579115 26.4834 0.514768 27.0225 0.386075C27.2921 0.321728 27.5616 0.32173 27.8311 0.257383C28.3702 0.193036 28.9767 0.128688 29.5158 0.0643409C29.9874 -5.89208e-06 30.3918 0 30.8634 0C31.133 0 31.4025 0 31.672 0C31.9416 0 32.2111 0 32.4807 0H211.386C211.656 0 211.925 0 212.195 0C212.397 0 212.666 0 212.869 0C213.408 0 213.947 0.0643448 214.418 0.128692C214.688 0.128692 214.957 0.193032 215.227 0.193032C215.497 0.193032 215.766 0.257387 216.036 0.321734C216.305 0.386081 216.575 0.386079 216.844 0.450425C217.114 0.514772 217.383 0.51477 217.585 0.579117C217.855 0.643464 218.125 0.707808 218.327 0.707808C218.529 0.772155 218.798 0.8365 219.001 0.8365C219.068 0.8365 219.135 0.836504 219.135 0.900851C219.337 0.965198 219.54 1.02955 219.809 1.09389C220.146 1.15824 220.416 1.22258 220.685 1.35128C220.887 1.41562 221.089 1.47997 221.292 1.54432C221.763 1.67301 222.168 1.86605 222.639 1.99474C222.976 2.12344 223.246 2.18778 223.515 2.31648C223.717 2.38082 223.92 2.50952 224.189 2.57387C224.391 2.63822 224.661 2.76691 224.863 2.8956C225.065 3.0243 225.335 3.08864 225.537 3.21734C227.154 3.9895 228.704 4.89035 230.186 5.9199C230.389 6.04859 230.523 6.17728 230.725 6.30597C231.399 6.7564 232.006 7.27118 232.612 7.72161C232.882 7.91465 233.151 8.17203 233.421 8.42942C234.499 9.33027 235.442 10.3598 236.318 11.3894C236.453 11.5824 236.655 11.7755 236.79 11.9685C237.127 12.3546 237.396 12.7407 237.733 13.1911C237.868 13.3841 238.07 13.5772 238.205 13.8346C238.475 14.1563 238.677 14.5424 238.946 14.9284C239.081 15.1215 239.148 15.3145 239.283 15.5076C239.485 15.8293 239.688 16.2154 239.89 16.5371C239.957 16.7302 240.092 16.8589 240.159 17.0519C240.496 17.631 240.766 18.2745 241.103 18.8536C241.17 18.9823 241.237 19.1753 241.305 19.3684C241.574 20.0118 241.844 20.591 242.046 21.2344C242.113 21.4918 242.181 21.6849 242.316 21.9422C242.787 23.2935 243.124 24.7092 243.326 26.1248C243.326 26.2535 243.394 26.4465 243.394 26.5752C243.461 26.8326 243.461 27.09 243.528 27.3474C243.528 27.6048 243.596 27.8621 243.596 28.1195C243.596 28.3769 243.663 28.6343 243.663 28.8917C243.663 29.3421 243.731 29.8569 243.731 30.3073C244 30.6291 244 30.9508 244 31.2082Z" fill="url(#paint3_linear_204_22661)"/>
<path d="M213.002 3.15273C212.53 3.15273 211.991 3.08838 211.519 3.08838H32.6138C32.0747 3.08838 31.603 3.08838 31.1313 3.15273C15.6329 3.92489 3.23419 16.2151 3.23419 31.2079V440.968C3.23419 455.704 15.1612 467.801 30.3227 468.959C30.5922 468.959 30.8618 469.023 31.1313 469.023C31.603 469.023 32.1421 469.088 32.6811 469.088H211.587C212.126 469.088 212.597 469.088 213.069 469.023C213.339 469.023 213.608 469.023 213.878 468.959C229.039 467.801 240.966 455.704 240.966 440.968V31.2079C240.899 16.2151 228.5 3.92489 213.002 3.15273ZM238.406 440.968C238.406 454.288 227.489 465.549 213.608 466.578C213.339 466.578 213.136 466.642 212.867 466.642C212.395 466.642 211.924 466.707 211.452 466.707H32.6138C32.1421 466.707 31.6704 466.707 31.1987 466.642C30.9292 466.642 30.727 466.643 30.4575 466.578C16.5763 465.549 5.66001 454.288 5.66001 440.968V31.2079C5.66001 17.5664 16.8458 6.30572 31.1313 5.53356H31.1987C31.6704 5.53356 32.1421 5.53356 32.6138 5.53356H211.519C211.991 5.53356 212.463 5.53356 212.934 5.53356H213.002C227.287 6.24137 238.473 17.5021 238.473 31.2079V440.968H238.406Z" fill="black"/>
<path d="M238.406 31.4013V441.162C238.406 443.671 238.002 446.181 237.261 448.497C236.654 450.363 235.846 452.165 234.902 453.773C234.7 454.095 234.498 454.481 234.296 454.803C233.959 455.318 233.622 455.768 233.285 456.283C232.274 457.634 231.061 458.857 229.849 460.015C232.207 456.09 233.555 451.521 233.555 446.695V441.998C233.555 441.741 233.555 441.419 233.555 441.162V31.337C233.555 31.0153 233.555 30.7579 233.555 30.5005V25.8675C233.555 20.9772 232.207 16.4086 229.849 12.4834C235.104 17.1807 238.406 23.9371 238.406 31.4013Z" fill="url(#paint4_linear_204_22661)"/>
<path d="M212.8 7.91455H212.665C212.261 7.91455 211.857 7.91455 211.452 7.91455H32.6144C32.2101 7.91455 31.8058 7.91455 31.4015 7.91455H31.2667H31.1993C18.2615 8.62237 8.15387 18.8535 8.15387 31.2081V440.968C8.15387 453.065 18.0594 463.297 30.6602 464.262C30.8624 464.262 31.0645 464.262 31.2667 464.326H31.3341C31.7384 464.326 32.2101 464.39 32.6144 464.39H211.52C211.924 464.39 212.328 464.391 212.8 464.326H212.868C213.07 464.326 213.272 464.326 213.474 464.262C226.075 463.297 235.98 453.065 235.98 440.968V31.2081C235.913 18.7892 225.738 8.55802 212.8 7.91455ZM229.377 440.968C229.377 449.848 222.167 457.312 212.868 458.02C212.8 458.02 212.665 458.02 212.598 458.02H212.531H212.463H212.396H212.328H212.261C211.992 458.02 211.655 458.02 211.385 458.02H32.6144C32.2775 458.02 32.0079 458.02 31.671 458.02H31.6036H31.5362H31.4689H31.4015H31.3341C31.2667 458.02 31.1993 458.02 31.0646 458.02C21.8329 457.312 14.5554 449.848 14.5554 440.968V31.2081C14.5554 22.1995 21.9003 14.7353 31.2667 14.1562H31.4015H31.671C31.9405 14.1562 32.2101 14.1562 32.4796 14.1562H211.385C211.655 14.1562 211.924 14.1562 212.194 14.1562H212.261H212.328C221.83 14.6066 229.309 22.1352 229.309 31.2724V440.968H229.377Z" fill="black"/>
<path d="M182.882 14.0918V16.3439C182.882 23.8725 176.481 29.9854 168.597 29.9854H75.4718C67.5878 29.9854 61.1863 23.8725 61.1863 16.3439V14.0918H182.882Z" fill="black"/>
<path d="M182.882 14.0918V16.3439C182.882 23.8725 176.481 29.9854 168.597 29.9854H75.4715C67.5875 29.9854 61.186 23.8725 61.186 16.3439V14.0918H182.882Z" fill="black"/>
<path d="M233.42 441.934V446.631C233.42 451.457 232.072 456.026 229.714 459.951C225.401 463.747 219.808 466.257 213.609 466.707C213.339 466.707 213.137 466.771 212.867 466.771C212.396 466.771 211.924 466.836 211.452 466.836H32.6143C32.1426 466.836 31.671 466.836 31.1993 466.771C30.9297 466.771 30.7276 466.771 30.458 466.707C30.1211 466.707 29.7842 466.643 29.4473 466.578C23.6522 465.935 18.4636 463.49 14.3532 459.886C11.9947 455.961 10.647 451.393 10.647 446.567V441.033C10.647 447.339 13.6119 453.066 18.3962 456.926C21.8328 459.693 26.1454 461.559 30.8623 461.881C30.9971 461.881 31.1992 461.881 31.334 461.881H31.4014H31.4688C31.8731 461.881 32.21 461.881 32.6143 461.881H211.52C211.924 461.881 212.261 461.881 212.665 461.881H212.733H212.8C213.002 461.881 213.137 461.881 213.339 461.881C224.255 461.173 233.015 452.486 233.42 441.934Z" fill="url(#paint5_linear_204_22661)"/>
<path d="M238.406 31.4008C238.406 17.695 227.221 6.43427 212.935 5.66211H212.868C212.396 5.66211 211.924 5.66211 211.453 5.66211H32.6146C32.1429 5.66211 31.6713 5.66211 31.1996 5.66211H31.1322C30.5257 5.66211 29.9866 5.72646 29.3802 5.79081C23.5851 6.43428 18.3965 8.8151 14.2861 12.4185C11.9276 16.3437 10.58 20.9123 10.58 25.8026V31.3365C10.58 24.9661 13.5449 19.2393 18.2618 15.3785C21.7658 12.5472 26.2805 10.6812 31.1996 10.4238H31.3343H31.4691C31.8734 10.4238 32.2103 10.4238 32.4799 10.4238H211.385C211.655 10.4238 211.992 10.4238 212.329 10.4238H212.531C223.851 11.0029 232.814 19.7541 233.285 30.5V25.867C233.285 20.9766 231.938 16.408 229.579 12.4829C235.105 17.1802 238.406 23.9366 238.406 31.4008Z" fill="url(#paint6_linear_204_22661)"/>
<path d="M14.3538 459.886C9.03043 455.188 5.66119 448.432 5.66119 441.032V31.2075C5.66119 23.7433 8.96304 16.9869 14.3538 12.2896C11.9953 16.2147 10.6477 20.7833 10.6477 25.6737V446.501C10.6477 451.327 11.9953 455.896 14.3538 459.886Z" fill="url(#paint7_linear_204_22661)"/>
<path d="M238.407 31.4008V441.161C238.407 443.67 238.003 446.18 237.262 448.496C236.655 450.362 235.847 452.164 234.903 453.773C234.701 454.095 234.499 454.481 234.297 454.802C233.96 455.317 233.623 455.768 233.286 456.282C232.275 457.634 231.062 458.921 229.782 460.014C229.782 460.014 229.782 460.015 229.782 459.95C232.14 456.025 233.488 451.456 233.488 446.63V25.8026C233.488 20.9122 232.14 16.3436 229.782 12.4185C235.105 17.1801 238.407 23.9365 238.407 31.4008Z" fill="url(#paint8_linear_204_22661)"/>
<path d="M134.365 18.7892H108.22C107.546 18.7892 107.007 18.2744 107.007 17.6309V17.0518C107.007 16.4083 107.546 15.8936 108.22 15.8936H134.365C135.039 15.8936 135.578 16.4083 135.578 17.0518V17.6309C135.578 18.3387 135.039 18.7892 134.365 18.7892Z" fill="url(#paint9_linear_204_22661)"/>
<defs>
<filter id="filter0_d_204_22661" x="67" y="74" width="31" height="23" filterUnits="userSpaceOnUse" color-interpolation-filters="sRGB">
<feFlood flood-opacity="0" result="BackgroundImageFix"/>
<feColorMatrix in="SourceAlpha" type="matrix" values="0 0 0 0 0 0 0 0 0 0 0 0 0 0 0 0 0 0 127 0" result="hardAlpha"/>
<feOffset dy="1"/>
<feGaussianBlur stdDeviation="1"/>
<feComposite in2="hardAlpha" operator="out"/>
<feColorMatrix type="matrix" values="0 0 0 0 0 0 0 0 0 0 0 0 0 0 0 0 0 0 0.25 0"/>
<feBlend mode="normal" in2="BackgroundImageFix" result="effect1_dropShadow_204_22661"/>
<feBlend mode="normal" in="SourceGraphic" in2="effect1_dropShadow_204_22661" result="shape"/>
</filter>
<filter id="filter1_d_204_22661" x="181" y="291" width="31" height="23" filterUnits="userSpaceOnUse" color-interpolation-filters="sRGB">
<feFlood flood-opacity="0" result="BackgroundImageFix"/>
<feColorMatrix in="SourceAlpha" type="matrix" values="0 0 0 0 0 0 0 0 0 0 0 0 0 0 0 0 0 0 127 0" result="hardAlpha"/>
<feOffset dy="1"/>
<feGaussianBlur stdDeviation="1"/>
<feComposite in2="hardAlpha" operator="out"/>
<feColorMatrix type="matrix" values="0 0 0 0 0 0 0 0 0 0 0 0 0 0 0 0 0 0 0.25 0"/>
<feBlend mode="normal" in2="BackgroundImageFix" result="effect1_dropShadow_204_22661"/>
<feBlend mode="normal" in="SourceGraphic" in2="effect1_dropShadow_204_22661" result="shape"/>
</filter>
<filter id="filter2_d_204_22661" x="181" y="74" width="31" height="23" filterUnits="userSpaceOnUse" color-interpolation-filters="sRGB">
<feFlood flood-opacity="0" result="BackgroundImageFix"/>
<feColorMatrix in="SourceAlpha" type="matrix" values="0 0 0 0 0 0 0 0 0 0 0 0 0 0 0 0 0 0 127 0" result="hardAlpha"/>
<feOffset dy="1"/>
<feGaussianBlur stdDeviation="1"/>
<feComposite in2="hardAlpha" operator="out"/>
<feColorMatrix type="matrix" values="0 0 0 0 0 0 0 0 0 0 0 0 0 0 0 0 0 0 0.25 0"/>
<feBlend mode="normal" in2="BackgroundImageFix" result="effect1_dropShadow_204_22661"/>
<feBlend mode="normal" in="SourceGraphic" in2="effect1_dropShadow_204_22661" result="shape"/>
</filter>
<filter id="filter3_d_204_22661" x="33" y="74" width="31" height="23" filterUnits="userSpaceOnUse" color-interpolation-filters="sRGB">
<feFlood flood-opacity="0" result="BackgroundImageFix"/>
<feColorMatrix in="SourceAlpha" type="matrix" values="0 0 0 0 0 0 0 0 0 0 0 0 0 0 0 0 0 0 127 0" result="hardAlpha"/>
<feOffset dy="1"/>
<feGaussianBlur stdDeviation="1"/>
<feComposite in2="hardAlpha" operator="out"/>
<feColorMatrix type="matrix" values="0 0 0 0 0 0 0 0 0 0 0 0 0 0 0 0 0 0 0.25 0"/>
<feBlend mode="normal" in2="BackgroundImageFix" result="effect1_dropShadow_204_22661"/>
<feBlend mode="normal" in="SourceGraphic" in2="effect1_dropShadow_204_22661" result="shape"/>
</filter>
<linearGradient id="paint0_linear_204_22661" x1="0.0751336" y1="236.052" x2="3.67689" y2="236.052" gradientUnits="userSpaceOnUse">
<stop stop-color="#666666"/>
<stop offset="1"/>
</linearGradient>
<linearGradient id="paint1_linear_204_22661" x1="240.961" y1="236.076" x2="244.532" y2="236.076" gradientUnits="userSpaceOnUse">
<stop/>
<stop offset="1" stop-color="#666666"/>
</linearGradient>
<linearGradient id="paint2_linear_204_22661" x1="122.034" y1="472.03" x2="122.034" y2="444.798" gradientUnits="userSpaceOnUse">
<stop stop-color="#959595"/>
<stop offset="1"/>
</linearGradient>
<linearGradient id="paint3_linear_204_22661" x1="122.034" y1="26.1866" x2="122.034" y2="-7.81504" gradientUnits="userSpaceOnUse">
<stop/>
<stop offset="1" stop-color="#808080"/>
</linearGradient>
<linearGradient id="paint4_linear_204_22661" x1="229.729" y1="236.23" x2="238.399" y2="236.23" gradientUnits="userSpaceOnUse">
<stop stop-color="#F1F1F1"/>
<stop offset="0.00125858" stop-color="#F0F0F0"/>
<stop offset="0.1385" stop-color="#B7B7B7"/>
<stop offset="0.2715" stop-color="#888888"/>
<stop offset="0.397" stop-color="#636363"/>
<stop offset="0.5134" stop-color="#494949"/>
<stop offset="0.6172" stop-color="#393939"/>
<stop offset="0.6978" stop-color="#333333"/>
</linearGradient>
<linearGradient id="paint5_linear_204_22661" x1="10.6389" y1="453.969" x2="233.434" y2="453.969" gradientUnits="userSpaceOnUse">
<stop stop-color="#1A1A1A"/>
<stop offset="0.1173" stop-color="#454545"/>
<stop offset="0.2314" stop-color="#666666"/>
<stop offset="0.3395" stop-color="#7E7E7E"/>
<stop offset="0.4393" stop-color="#8D8D8D"/>
<stop offset="0.5229" stop-color="#929292"/>
<stop offset="0.5926" stop-color="#8B8B8B"/>
<stop offset="0.6974" stop-color="#767676"/>
<stop offset="0.8246" stop-color="#545454"/>
<stop offset="0.968" stop-color="#252525"/>
<stop offset="1" stop-color="#1A1A1A"/>
</linearGradient>
<linearGradient id="paint6_linear_204_22661" x1="10.6393" y1="18.517" x2="238.418" y2="18.517" gradientUnits="userSpaceOnUse">
<stop stop-color="#1A1A1A"/>
<stop offset="0.1173" stop-color="#454545"/>
<stop offset="0.2314" stop-color="#666666"/>
<stop offset="0.3395" stop-color="#7E7E7E"/>
<stop offset="0.4393" stop-color="#8D8D8D"/>
<stop offset="0.5229" stop-color="#929292"/>
<stop offset="0.5926" stop-color="#8B8B8B"/>
<stop offset="0.6974" stop-color="#767676"/>
<stop offset="0.8246" stop-color="#545454"/>
<stop offset="0.968" stop-color="#252525"/>
<stop offset="1" stop-color="#1A1A1A"/>
</linearGradient>
<linearGradient id="paint7_linear_204_22661" x1="5.66194" y1="236.087" x2="10.806" y2="236.087" gradientUnits="userSpaceOnUse">
<stop stop-color="#C8C8C8"/>
<stop offset="0.2107" stop-color="#A0A0A0"/>
<stop offset="0.5867" stop-color="#5D5D5D"/>
<stop offset="0.8599" stop-color="#343434"/>
<stop offset="1" stop-color="#242424"/>
</linearGradient>
<linearGradient id="paint8_linear_204_22661" x1="229.705" y1="236.253" x2="238.4" y2="236.253" gradientUnits="userSpaceOnUse">
<stop stop-color="#242424"/>
<stop offset="0.1401" stop-color="#343434"/>
<stop offset="0.4133" stop-color="#5D5D5D"/>
<stop offset="0.7893" stop-color="#A0A0A0"/>
<stop offset="1" stop-color="#C8C8C8"/>
</linearGradient>
<linearGradient id="paint9_linear_204_22661" x1="107.008" y1="17.3866" x2="135.558" y2="17.3866" gradientUnits="userSpaceOnUse">
<stop stop-color="#333333"/>
<stop offset="0.0901238" stop-color="#2B2B2B"/>
<stop offset="0.2885" stop-color="#1E1E1E"/>
<stop offset="0.4787" stop-color="#1A1A1A"/>
<stop offset="0.7885" stop-color="#1C1C1C"/>
<stop offset="0.8999" stop-color="#232323"/>
<stop offset="0.9792" stop-color="#2E2E2E"/>
<stop offset="1" stop-color="#333333"/>
</linearGradient>
<clipPath id="clip0_204_22661">
<rect x="14" y="11" width="216" height="459" rx="15" fill="white"/>
</clipPath>
</defs>
</svg>
