<svg width="244" height="472" viewBox="0 0 244 472" fill="none" xmlns="http://www.w3.org/2000/svg">
    <style>
        <![CDATA[

        @keyframes selectHiragana {
            to {
                height: 37px;
                width: 37px;
                fill: #FEF0E7;
                x: 65px;
                y: 194px;
            }
        }

        @keyframes selectKatakana {
            to {
                height: 37px;
                width: 37px;
                fill: #FEF0E7;
                x: 179px;
                y: 194px;
            }
        }

        @keyframes selectRomaji {
            to {
                height: 37px;
                width: 37px;
                fill: #FEF0E7;
                x: 65px;
                y: 272px;
            }
        }

        @keyframes fadeOut {
            to {
                opacity: 0;
            }
        }

        #hiragana {
            animation: selectHiragana .5s linear forwards;
        }

        #katakana {
            animation: selectKatakana .5s linear 1s forwards;
        }

        #romaji {
            animation: selectRomaji .5s linear 2s forwards;
        }

        .done {
            animation: fadeOut .5s linear 3.5s forwards;
        }

    ]]>
</style>


<g clip-path="url(#clip0_204_22793)">
<rect x="29" y="42" width="186" height="31" fill="#FEFEFE" fill-opacity="0.82"/>
<rect x="29" y="316" width="186" height="26" fill="#FEFEFE" fill-opacity="0.82"/>
<path d="M189.73 54.751C189.512 54.1397 188.12 52.7762 187.729 52.8009C187.338 52.8269 189.125 54.454 189.13 55.46" fill="#62CC40"/>
<path d="M189.129 55.6021C189.051 55.6021 188.989 55.539 188.988 55.4623C188.986 54.9302 188.387 54.1383 187.992 53.6149C187.608 53.1076 187.48 52.9245 187.549 52.7711C187.579 52.7067 187.641 52.6671 187.719 52.6622C188.21 52.6312 189.634 54.0678 189.862 54.705C189.888 54.778 189.849 54.8585 189.776 54.8844C189.703 54.9104 189.623 54.8721 189.597 54.7991C189.4 54.2472 188.334 53.2301 187.888 52.9925C187.97 53.1175 188.102 53.2932 188.217 53.4454C188.66 54.0319 189.268 54.835 189.27 55.461C189.27 55.5378 189.207 55.6009 189.129 55.6021Z" fill="#650000"/>
<path d="M187.967 52.9993C187.967 52.9993 187.46 52.4116 187.42 51.5157C187.354 49.9715 188.717 48.6612 189.828 48.1415C189.828 48.1415 189.114 48.9371 189.047 50.0495C189.009 50.6916 189.646 52.372 187.967 52.9993Z" fill="#4FAD2B"/>
<path d="M188.613 52.2731C188.985 51.7819 188.908 51.1137 188.846 50.5767C188.823 50.3676 188.802 50.187 188.81 50.036C188.838 49.5906 188.96 49.1934 189.104 48.8704C188.876 49.2627 188.662 49.6413 188.639 50.0113C188.603 50.5866 188.77 51.7918 188.192 51.5802C188.017 52.0021 187.807 51.8908 187.72 51.5604C187.745 52.1271 187.911 52.5033 188.047 52.7099C188.291 52.5973 188.476 52.4538 188.613 52.2731Z" fill="#42841F"/>
<path d="M187.967 53.1396C187.928 53.1396 187.888 53.1223 187.861 53.0913C187.839 53.0654 187.321 52.4554 187.281 51.5212C187.208 49.8359 188.73 48.4996 189.77 48.0133C189.831 47.9848 189.903 48.0034 189.942 48.0566C189.982 48.1098 189.978 48.184 189.933 48.2348C189.927 48.2422 189.25 49.0093 189.187 50.0574C189.18 50.1749 189.2 50.3407 189.221 50.5325C189.31 51.3021 189.457 52.5915 188.014 53.1309C188.001 53.1371 187.985 53.1396 187.967 53.1396ZM189.366 48.5651C188.477 49.1516 187.506 50.2232 187.561 51.5088C187.59 52.1621 187.886 52.6471 188.014 52.829C189.148 52.3489 189.03 51.3207 188.942 50.5647C188.919 50.3593 188.899 50.1836 188.906 50.0413C188.945 49.4325 189.163 48.919 189.366 48.5651Z" fill="#650000"/>
<path d="M187.89 53.2377C187.89 53.2377 187.214 52.4396 185.905 51.9125C185.061 51.5722 184.086 51.6341 183.142 50.9189C183.142 50.9189 183.419 52.6759 185.615 53.5235C187.067 54.0853 187.89 53.2377 187.89 53.2377Z" fill="#62CC40"/>
<path d="M187.533 53.2145C187.263 52.9596 186.683 52.482 185.814 52.133C185.533 52.0204 186.619 52.9126 185.587 52.7752C186.522 53.5461 184.422 52.8123 185.698 53.3048C186.616 53.6574 187.242 53.4001 187.533 53.2145Z" fill="#43A31F"/>
<path d="M186.583 53.8586C186.286 53.8586 185.945 53.8029 185.563 53.6557C183.317 52.7895 183.014 51.0164 183.002 50.9422C182.993 50.8852 183.019 50.8296 183.068 50.7999C183.118 50.7702 183.18 50.7739 183.226 50.8085C183.81 51.2515 184.412 51.3851 184.994 51.5138C185.329 51.5881 185.646 51.6586 185.956 51.7836C187.283 52.3169 187.967 53.1149 187.996 53.1483C188.043 53.204 188.04 53.2857 187.989 53.3377C187.962 53.3636 187.468 53.8586 186.583 53.8586ZM183.382 51.2503C183.581 51.7873 184.145 52.8068 185.666 53.3933C186.731 53.8041 187.434 53.4131 187.685 53.2263C187.459 52.9986 186.836 52.4393 185.852 52.0434C185.564 51.9271 185.259 51.859 184.934 51.7873C184.427 51.6759 183.905 51.5596 183.382 51.2503Z" fill="#650000"/>
<path d="M188.862 49.1992C188.42 49.7028 188.227 50.3858 188.211 51.044C188.208 51.3744 188.281 51.6998 188.3 52.0438C188.325 52.3915 188.236 52.7553 188.046 53.0498L187.889 52.9471C187.98 52.8147 188.053 52.6736 188.097 52.5214C188.242 52.0389 188.087 51.5439 188.118 51.0403C188.166 50.3759 188.393 49.6867 188.862 49.1992Z" fill="#650000"/>
<path d="M183.786 51.6906C184.889 52.4726 186.493 53.3449 187.879 53.1457L187.905 53.3313C186.466 53.4798 184.886 52.5418 183.786 51.6906Z" fill="#650000"/>
<path d="M191.232 66.1999C192.87 66.2716 194.236 65.4822 194.282 64.4379C194.282 64.4379 194.2 63.6893 194.219 63.0681C194.242 62.2911 194.411 61.4806 194.434 60.9609C194.48 59.9154 193.188 59.0096 191.55 58.9379C189.912 58.8661 188.546 59.6555 188.5 60.6999C188.478 61.2208 188.574 62.0411 188.53 62.8182C188.495 63.4381 188.348 64.1768 188.348 64.1768C188.302 65.2224 189.594 66.1281 191.232 66.1999Z" fill="#62CC40"/>
<path d="M193.826 62.1223C193.859 61.8637 193.034 62.6358 191.611 62.4651C190.936 62.3847 191.701 63.1605 191.661 64.0006C191.621 64.7975 190.869 65.6686 191.421 65.7651C191.972 65.8604 193.814 65.3518 193.794 64.4646C193.777 63.622 193.706 63.0627 193.826 62.1223Z" fill="#43A31F"/>
<path d="M191.433 66.392C191.363 66.392 191.292 66.3908 191.222 66.3871C189.482 66.3103 188.108 65.3155 188.158 64.1685L188.162 64.14C188.163 64.1326 188.306 63.4075 188.341 62.8074C188.366 62.3768 188.346 61.9252 188.327 61.5255C188.314 61.2162 188.3 60.9254 188.311 60.6916C188.362 59.5445 189.818 58.6747 191.557 58.7502C193.297 58.8269 194.67 59.8217 194.621 60.9687C194.611 61.2026 194.572 61.4921 194.532 61.7977C194.478 62.1937 194.419 62.6416 194.407 63.0735C194.388 63.6736 194.467 64.4085 194.468 64.416L194.47 64.4308V64.4457C194.419 65.5457 193.078 66.392 191.433 66.392ZM191.238 66.0134C192.763 66.0814 194.039 65.3774 194.091 64.4432C194.079 64.3306 194.011 63.6488 194.029 63.0623C194.043 62.6119 194.105 62.1541 194.158 61.7495C194.197 61.4513 194.235 61.1704 194.244 60.9526C194.285 60.0123 193.073 59.1931 191.54 59.1251C190.007 59.0583 188.726 59.7685 188.685 60.7089C188.675 60.9254 188.688 61.21 188.701 61.5094C188.72 61.9178 188.74 62.3793 188.715 62.8285C188.681 63.4137 188.554 64.0868 188.532 64.1982C188.503 65.1336 189.713 65.9453 191.238 66.0134Z" fill="#650000"/>
<g opacity="0.5">
<path d="M188.819 64.7379C189.137 65.1858 189.684 65.4407 189.931 65.2242C190.229 64.9631 189.858 64.8035 189.931 63.482C189.952 63.1059 190.294 62.4439 190.039 62.1457C189.828 61.8994 189.489 62.0405 188.961 61.6396C188.616 61.3773 188.958 62.4649 188.986 63.169C189.022 64.1069 188.524 64.3246 188.819 64.7379Z" fill="white"/>
</g>
<path d="M191.414 61.9534C193.052 62.0252 194.418 61.2357 194.464 60.1914C194.464 60.1914 194.382 59.4428 194.401 58.8217C194.424 58.0446 194.593 57.2342 194.616 56.7145C194.662 55.6689 193.37 54.7632 191.732 54.6914C190.094 54.6197 188.728 55.4091 188.682 56.4534C188.66 56.9743 188.756 57.7947 188.712 58.5717C188.677 59.1916 188.53 59.9303 188.53 59.9303C188.484 60.9759 189.776 61.8816 191.414 61.9534Z" fill="#62CC40"/>
<path d="M194.01 57.8772C194.043 57.6186 193.218 58.3907 191.795 58.22C191.119 58.1395 191.885 58.9154 191.845 59.7555C191.805 60.5524 191.053 61.4235 191.604 61.52C192.156 61.6165 193.998 61.1067 193.978 60.2195C193.959 59.3757 193.89 58.8164 194.01 57.8772Z" fill="#43A31F"/>
<path d="M191.616 62.1459C191.545 62.1459 191.475 62.1447 191.404 62.141C189.664 62.0643 188.291 61.0694 188.34 59.9224L188.344 59.894C188.345 59.8865 188.489 59.1615 188.524 58.5613C188.548 58.1307 188.528 57.6791 188.51 57.2795C188.496 56.9701 188.483 56.6793 188.494 56.4455C188.519 55.8738 188.881 55.3566 189.515 54.9916C190.121 54.6414 190.912 54.4682 191.739 54.5041C193.479 54.5808 194.853 55.5756 194.802 56.7226C194.792 56.9565 194.754 57.246 194.713 57.5517C194.661 57.9476 194.6 58.3955 194.588 58.8274C194.569 59.4287 194.648 60.1625 194.65 60.1699L194.651 60.1847V60.1996C194.601 61.2996 193.26 62.1459 191.616 62.1459ZM188.715 59.9521C188.687 60.8863 189.896 61.6993 191.42 61.7661C192.946 61.8329 194.222 61.1301 194.273 60.1959C194.261 60.0833 194.193 59.4015 194.212 58.815C194.225 58.3646 194.287 57.9068 194.34 57.5022C194.38 57.204 194.417 56.9231 194.427 56.7053C194.468 55.7649 193.255 54.9458 191.722 54.8778C190.965 54.8444 190.247 55.0003 189.701 55.3146C189.183 55.614 188.886 56.0211 188.868 56.4603C188.858 56.6781 188.87 56.9615 188.884 57.2621C188.902 57.6692 188.922 58.132 188.897 58.5811C188.864 59.1676 188.736 59.842 188.715 59.9521Z" fill="#650000"/>
<g opacity="0.5">
<path d="M189.001 60.4911C189.319 60.939 189.866 61.1939 190.113 60.9774C190.412 60.7163 190.04 60.5567 190.113 59.2352C190.134 58.859 190.476 58.197 190.221 57.8988C190.011 57.6526 189.672 57.7937 189.143 57.3928C188.798 57.1305 189.141 58.2181 189.168 58.9221C189.203 59.8588 188.707 60.0778 189.001 60.4911Z" fill="white"/>
</g>
<path d="M191.598 57.7688C193.236 57.8406 194.602 57.0512 194.648 56.0068C194.648 56.0068 194.566 55.2583 194.585 54.6371C194.608 53.8601 194.777 53.0496 194.8 52.5299C194.846 51.4844 193.554 50.5786 191.916 50.5068C190.278 50.4351 188.912 51.2245 188.866 52.2688C188.844 52.7898 188.94 53.6101 188.896 54.3872C188.861 55.0071 188.714 55.7458 188.714 55.7458C188.668 56.7913 189.96 57.6971 191.598 57.7688Z" fill="#62CC40"/>
<g opacity="0.5">
<path d="M189.125 56.3077C189.356 56.7432 189.916 56.8905 190.029 56.7742C190.244 56.5527 189.842 56.0454 190.071 55.303C190.182 54.9429 190.563 54.5717 190.308 54.2735C190.098 54.0273 189.794 54.1485 189.255 53.5831C188.957 53.27 189.278 54.2562 189.227 55.0505C189.206 55.3809 188.888 55.8585 189.125 56.3077Z" fill="white"/>
</g>
<path d="M194.348 53.806C194.001 55.0087 194.374 55.933 194.246 56.183C193.927 56.8054 192.425 57.3721 191.456 57.1196C190.7 56.9229 191.931 56.2065 191.487 55.0421C191.155 54.1723 192.598 55.3849 194.348 53.806Z" fill="#43A31F"/>
<path d="M188.871 52.2689C188.825 53.3141 190.116 54.2197 191.754 54.2916C193.393 54.3635 194.758 53.5744 194.804 52.5293C194.85 51.4841 193.559 50.5785 191.92 50.5066C190.282 50.4347 188.916 51.2237 188.871 52.2689Z" fill="#E1FFD4"/>
<path d="M194.404 52.9551C194.479 52.8103 194.52 52.6594 194.527 52.5047C194.546 52.0716 194.292 51.6485 193.81 51.3107C193.306 50.9568 192.621 50.744 191.881 50.7118C190.674 50.6586 189.577 51.1127 189.212 51.8168C189.136 51.9615 189.095 52.1125 189.088 52.2671C189.069 52.7002 189.324 53.1234 189.806 53.4612C190.309 53.8151 190.995 54.0279 191.735 54.0601C192.94 54.112 194.037 53.6579 194.404 52.9551Z" fill="#E1FFD4"/>
<path d="M191.53 54.0456C191.598 54.0518 191.666 54.0555 191.734 54.0592C192.94 54.1124 194.038 53.6583 194.403 52.9555C194.478 52.8107 194.519 52.6597 194.526 52.5051C194.545 52.072 194.29 51.6476 193.809 51.311C193.566 51.1403 193.28 51.0029 192.967 50.9027C193.183 50.9918 193.381 51.0982 193.559 51.2232C194.052 51.5696 194.315 52.0052 194.295 52.4494C194.288 52.6078 194.245 52.7624 194.169 52.9109C193.804 53.61 192.727 54.0703 191.53 54.0456Z" fill="#BEE8AA"/>
<path d="M191.805 57.9601C191.734 57.9601 191.664 57.9588 191.593 57.9551C190.766 57.9193 189.993 57.6767 189.421 57.2746C188.822 56.8539 188.505 56.3082 188.531 55.7366L188.535 55.7081C188.536 55.7007 188.679 54.9756 188.714 54.3755C188.739 53.9449 188.719 53.4933 188.7 53.0936C188.687 52.7843 188.673 52.4935 188.684 52.2596C188.735 51.1126 190.19 50.2415 191.93 50.3182C192.758 50.3541 193.53 50.5966 194.103 50.9988C194.702 51.4195 195.018 51.9651 194.992 52.5368C194.982 52.7707 194.944 53.0602 194.903 53.3671C194.85 53.763 194.791 54.2109 194.778 54.6428C194.76 55.2429 194.839 55.9779 194.84 55.9853L194.841 56.0001V56.015C194.791 57.1137 193.449 57.9601 191.805 57.9601ZM191.609 57.5802C193.135 57.647 194.411 56.9442 194.463 56.01C194.45 55.8974 194.382 55.2157 194.401 54.6292C194.414 54.1788 194.476 53.7209 194.53 53.3163C194.569 53.0181 194.606 52.7373 194.616 52.5195C194.636 52.0802 194.376 51.6484 193.885 51.3044C193.369 50.9431 192.669 50.7253 191.911 50.6919C190.378 50.6239 189.098 51.3353 189.057 52.2757C189.047 52.4935 189.059 52.7768 189.073 53.0775C189.091 53.4846 189.111 53.9474 189.086 54.3965C189.053 54.9818 188.926 55.6549 188.903 55.7663C188.89 56.2006 189.15 56.6275 189.635 56.9677C190.152 57.3303 190.852 57.548 191.609 57.5802Z" fill="#650000"/>
<path d="M190.217 53.9484C191.172 54.2169 192.161 54.2714 193.142 54.1365C192.236 54.5337 191.064 54.4644 190.217 53.9484Z" fill="#650000"/>
<path d="M194.01 53.7449C194.266 53.4157 194.513 53.0928 194.586 52.6956C194.656 52.3219 194.505 51.9594 194.257 51.676C193.722 51.0784 192.878 50.7777 192.081 50.7072C190.575 50.5476 188.271 51.4533 189.282 53.3031C188.882 53.0581 188.631 52.5657 188.702 52.0856C188.765 51.5956 189.1 51.1811 189.492 50.9114C190.598 50.1727 192.216 50.164 193.432 50.6255C194.079 50.8817 194.721 51.3333 194.938 52.0324C195.17 52.7587 194.742 53.5494 194.01 53.7449Z" fill="#650000"/>
<path d="M191.713 53.5345C192.729 53.579 193.602 53.2524 193.903 52.7649C193.97 52.656 194.009 52.5397 194.014 52.4172C194.044 51.7453 193.061 51.1576 191.819 51.1031C190.578 51.0487 189.547 51.5486 189.518 52.2204C189.513 52.3429 189.541 52.463 189.598 52.5768C189.857 53.0878 190.698 53.49 191.713 53.5345Z" fill="#E1FFD4"/>
<path d="M191.713 53.5343C192.727 53.5789 193.602 53.2522 193.903 52.7647C193.97 52.6558 194.009 52.5395 194.014 52.417C194.044 51.7451 193.061 51.1561 191.819 51.1029C191.807 51.1029 191.794 51.1017 191.782 51.1017C190.557 51.0584 189.546 51.5558 189.518 52.2202C189.514 52.3106 189.528 52.3997 189.559 52.485C189.57 52.516 189.582 52.5457 189.597 52.5766C189.857 53.0876 190.698 53.4898 191.713 53.5343Z" fill="#E1FFD4"/>
<path d="M191.71 53.5348C192.725 53.5793 193.6 53.2527 193.9 52.7652C193.967 52.6563 194.007 52.54 194.012 52.4175C194.041 51.7456 193.059 51.1566 191.817 51.1034C191.804 51.1034 191.792 51.1022 191.78 51.1022C193.073 51.4598 192.841 52.4496 192.596 52.7144C191.83 53.5385 190.277 53.0498 189.556 52.4868C189.567 52.5177 189.58 52.5474 189.594 52.5783C189.854 53.0881 190.696 53.4902 191.71 53.5348Z" fill="#BEE8AA"/>
<path d="M191.897 53.6803C191.834 53.6803 191.771 53.679 191.707 53.6765C190.659 53.6308 189.761 53.215 189.473 52.6409C189.404 52.5023 189.372 52.3588 189.378 52.2152C189.394 51.8366 189.67 51.4988 190.152 51.2637C190.608 51.0422 191.202 50.9358 191.825 50.963C193.164 51.0212 194.187 51.6634 194.154 52.4243C194.148 52.5691 194.103 52.7089 194.022 52.8401C193.705 53.3524 192.866 53.6803 191.897 53.6803ZM191.632 51.2402C191.123 51.2402 190.646 51.3367 190.275 51.5161C189.889 51.703 189.67 51.9554 189.658 52.2264C189.654 52.3216 189.675 52.4182 189.723 52.5134C189.963 52.991 190.784 53.3536 191.718 53.3944C192.653 53.4365 193.501 53.147 193.782 52.6916C193.837 52.6013 193.868 52.5072 193.872 52.412C193.898 51.8292 192.954 51.2946 191.812 51.2439C191.752 51.2414 191.692 51.2402 191.632 51.2402Z" fill="#650000"/>
<path d="M191.789 51.8063C191.081 51.8248 190.11 52.0092 189.719 52.6501L189.725 52.5128C189.804 52.6625 189.933 52.7961 190.084 52.9038C190.867 53.4297 191.973 53.5101 192.869 53.2676C193.215 53.1661 193.585 52.9929 193.783 52.691C193.882 52.5313 194.121 52.6761 194.022 52.8382C193.896 53.0349 193.719 53.1797 193.535 53.2911C192.475 53.9345 190.134 53.8083 189.472 52.639L189.433 52.5647L189.477 52.5016C189.993 51.8285 191.013 51.7382 191.789 51.8063Z" fill="#650000"/>
<path d="M200.299 55.7168L201.456 57.6406L202.628 55.7168H203.688L201.959 58.3242L203.741 61H202.696L201.476 59.0176L200.255 61H199.205L200.982 58.3242L199.259 55.7168H200.299ZM209.356 58.6074V59.3496H204.22V58.8174L207.403 53.8906H208.141L207.35 55.3164L205.245 58.6074H209.356ZM208.365 53.8906V61H207.462V53.8906H208.365Z" fill="#373737"/>
<path d="M35 59L43 59M35 59L38.4286 55M35 59L38.4286 63" stroke="#373737" stroke-linecap="round" stroke-linejoin="round"/>
<circle cx="44" cy="329" r="5" fill="#F04438"/>
<path d="M59.2734 327.82V329.051C59.2734 329.585 59.2165 330.045 59.1025 330.433C58.9886 330.817 58.8242 331.132 58.6094 331.38C58.3978 331.624 58.1455 331.805 57.8525 331.922C57.5596 332.039 57.234 332.098 56.876 332.098C56.5895 332.098 56.3226 332.062 56.0752 331.99C55.8278 331.915 55.6048 331.8 55.4062 331.644C55.2109 331.487 55.0417 331.29 54.8984 331.053C54.7585 330.812 54.651 330.525 54.5762 330.193C54.5013 329.861 54.4639 329.48 54.4639 329.051V327.82C54.4639 327.286 54.5208 326.829 54.6348 326.448C54.752 326.064 54.9163 325.75 55.1279 325.506C55.3428 325.262 55.5967 325.083 55.8896 324.969C56.1826 324.852 56.5081 324.793 56.8662 324.793C57.1527 324.793 57.418 324.83 57.6621 324.905C57.9095 324.977 58.1325 325.089 58.3311 325.242C58.5296 325.395 58.6989 325.592 58.8389 325.833C58.9788 326.071 59.0863 326.355 59.1611 326.688C59.236 327.016 59.2734 327.394 59.2734 327.82ZM57.8623 329.236V327.63C57.8623 327.373 57.8477 327.148 57.8184 326.956C57.7923 326.764 57.7516 326.601 57.6963 326.468C57.641 326.331 57.5726 326.22 57.4912 326.136C57.4098 326.051 57.3171 325.989 57.2129 325.95C57.1087 325.911 56.9932 325.892 56.8662 325.892C56.7067 325.892 56.5651 325.923 56.4414 325.984C56.321 326.046 56.2184 326.146 56.1338 326.282C56.0492 326.416 55.984 326.595 55.9385 326.819C55.8962 327.041 55.875 327.311 55.875 327.63V329.236C55.875 329.493 55.888 329.72 55.9141 329.915C55.9434 330.11 55.9857 330.278 56.041 330.418C56.0996 330.555 56.168 330.667 56.2461 330.755C56.3275 330.84 56.4202 330.901 56.5244 330.94C56.6318 330.979 56.749 330.999 56.876 330.999C57.0322 330.999 57.1706 330.968 57.291 330.906C57.4147 330.841 57.5189 330.74 57.6035 330.604C57.6914 330.464 57.7565 330.281 57.7988 330.057C57.8411 329.832 57.8623 329.559 57.8623 329.236Z" fill="#373737"/>
<path d="M42 327L46 331M42 331L46 327" stroke="white" stroke-linecap="round" stroke-linejoin="round"/>
<path d="M187.916 324.876V332H186.51V326.497L184.82 327.034V325.926L187.765 324.876H187.916ZM193.326 324.891L190.719 332.61H189.674L192.281 324.891H193.326ZM197.369 324.876V332H195.963V326.497L194.273 327.034V325.926L197.218 324.876H197.369ZM204.469 327.82V329.051C204.469 329.585 204.412 330.045 204.298 330.433C204.184 330.817 204.02 331.132 203.805 331.38C203.593 331.624 203.341 331.805 203.048 331.922C202.755 332.039 202.429 332.098 202.071 332.098C201.785 332.098 201.518 332.062 201.271 331.99C201.023 331.915 200.8 331.8 200.602 331.644C200.406 331.487 200.237 331.29 200.094 331.053C199.954 330.812 199.846 330.525 199.771 330.193C199.697 329.861 199.659 329.48 199.659 329.051V327.82C199.659 327.286 199.716 326.829 199.83 326.448C199.947 326.064 200.112 325.75 200.323 325.506C200.538 325.262 200.792 325.083 201.085 324.969C201.378 324.852 201.703 324.793 202.062 324.793C202.348 324.793 202.613 324.83 202.857 324.905C203.105 324.977 203.328 325.089 203.526 325.242C203.725 325.395 203.894 325.592 204.034 325.833C204.174 326.071 204.282 326.355 204.356 326.688C204.431 327.016 204.469 327.394 204.469 327.82ZM203.058 329.236V327.63C203.058 327.373 203.043 327.148 203.014 326.956C202.988 326.764 202.947 326.601 202.892 326.468C202.836 326.331 202.768 326.22 202.687 326.136C202.605 326.051 202.512 325.989 202.408 325.95C202.304 325.911 202.188 325.892 202.062 325.892C201.902 325.892 201.76 325.923 201.637 325.984C201.516 326.046 201.414 326.146 201.329 326.282C201.244 326.416 201.179 326.595 201.134 326.819C201.091 327.041 201.07 327.311 201.07 327.63V329.236C201.07 329.493 201.083 329.72 201.109 329.915C201.139 330.11 201.181 330.278 201.236 330.418C201.295 330.555 201.363 330.667 201.441 330.755C201.523 330.84 201.616 330.901 201.72 330.94C201.827 330.979 201.944 330.999 202.071 330.999C202.228 330.999 202.366 330.968 202.486 330.906C202.61 330.841 202.714 330.74 202.799 330.604C202.887 330.464 202.952 330.281 202.994 330.057C203.036 329.832 203.058 329.559 203.058 329.236Z" fill="#373737"/>
<path d="M179.86 326.239C179.722 325.922 179.491 325.694 179.194 325.578L179.19 325.577C179.054 325.526 178.91 325.5 178.765 325.5H178.749C178.067 325.51 177.372 326.066 177.019 326.885C176.759 327.483 176.73 328.127 176.939 328.607C177.078 328.924 177.309 329.152 177.607 329.268L177.611 329.269C177.746 329.32 177.89 329.346 178.036 329.346C178.723 329.346 179.426 328.789 179.786 327.96C180.042 327.362 180.07 326.719 179.86 326.239ZM177.139 329.769C176.746 329.542 176.375 329.327 176.132 328.942C175.463 327.875 175.059 327.231 174 327.231C172.94 327.231 172.535 327.875 171.865 328.942C171.622 329.328 171.25 329.543 170.856 329.771C170.404 330.032 169.937 330.301 169.736 330.832C169.657 331.023 169.618 331.227 169.619 331.433C169.619 332.297 170.319 333 171.18 333C171.623 333 172.096 332.852 172.595 332.696C173.076 332.545 173.573 332.39 174.002 332.39C174.432 332.39 174.928 332.545 175.406 332.696C175.905 332.851 176.375 332.999 176.82 332.999C177.679 332.999 178.378 332.296 178.378 331.432C178.379 331.226 178.338 331.022 178.259 330.831C178.058 330.3 177.591 330.03 177.139 329.769ZM171.35 326.386C171.647 326.745 172.025 326.942 172.413 326.942C172.466 326.942 172.519 326.938 172.571 326.931C173.38 326.817 173.885 325.867 173.719 324.768C173.65 324.306 173.465 323.875 173.2 323.556C172.903 323.198 172.525 323 172.137 323C172.084 323 172.031 323.004 171.979 323.012C171.169 323.126 170.665 324.076 170.83 325.175C170.899 325.636 171.084 326.066 171.35 326.386ZM175.429 326.931C175.481 326.938 175.534 326.942 175.587 326.942C175.976 326.942 176.353 326.745 176.651 326.386C176.915 326.066 177.099 325.636 177.169 325.174C177.335 324.076 176.831 323.126 176.021 323.011C175.969 323.004 175.916 323 175.863 323C175.475 323 175.097 323.198 174.8 323.556C174.535 323.875 174.35 324.306 174.281 324.768C174.115 325.867 174.62 326.817 175.429 326.931ZM170.389 329.269L170.393 329.268C170.691 329.152 170.922 328.924 171.06 328.607C171.27 328.126 171.24 327.483 170.981 326.885C170.623 326.057 169.921 325.5 169.234 325.5C169.088 325.5 168.944 325.526 168.809 325.577L168.805 325.578C168.508 325.692 168.277 325.922 168.139 326.239C167.929 326.719 167.959 327.362 168.217 327.961C168.576 328.789 169.278 329.346 169.965 329.346C170.11 329.346 170.254 329.32 170.389 329.269Z" fill="#FF8A42"/>
<rect x="29" y="79" width="33" height="33" rx="4" fill="white"/>
<rect x="29" y="118" width="33" height="33" rx="4" fill="white"/>
<rect x="29" y="157" width="33" height="33" rx="4" fill="white"/>
<rect x="29" y="196" width="33" height="33" rx="4" fill="white"/>
<rect x="29" y="235" width="33" height="33" rx="4" fill="white"/>
<rect x="29" y="274" width="33" height="33" rx="4" fill="white"/>
<rect x="67" y="79" width="33" height="33" rx="4" fill="white"/>
<rect x="67" y="118" width="33" height="33" rx="4" fill="white"/>
<rect x="67" y="157" width="33" height="33" rx="4" fill="white"/>
<g class="done">
    <rect x="67" y="196" width="33" height="33" rx="4" fill="white" id="hiragana"/>
    <path d="M78.66 212.712C78.96 212.484 79.212 212.244 79.524 211.92C80.172 211.272 81.168 209.904 81.888 209.064C82.584 208.236 83.208 208.116 84 208.932C84.72 209.664 85.644 210.852 86.412 211.68C87.132 212.472 88.332 213.732 89.412 214.692L88.644 215.568C87.732 214.704 86.64 213.48 85.824 212.544C85.044 211.668 84.12 210.504 83.568 209.892C83.052 209.328 82.824 209.424 82.416 209.928C81.852 210.624 80.868 211.944 80.256 212.688C80.016 213.012 79.74 213.372 79.548 213.624L78.66 212.712Z" fill="#373737"/>
</g>
<rect x="67" y="235" width="33" height="33" rx="4" fill="white"/>
<g class="done">
    <rect x="67" y="274" width="33" height="33" rx="4" fill="white" id="romaji"/>
    <path d="M78.9102 285V294H77.8262V285H78.9102ZM78.6523 290.59L78.2012 290.572C78.2051 290.139 78.2695 289.738 78.3945 289.371C78.5195 289 78.6953 288.678 78.9219 288.404C79.1484 288.131 79.418 287.92 79.7305 287.771C80.0469 287.619 80.3965 287.543 80.7793 287.543C81.0918 287.543 81.373 287.586 81.623 287.672C81.873 287.754 82.0859 287.887 82.2617 288.07C82.4414 288.254 82.5781 288.492 82.6719 288.785C82.7656 289.074 82.8125 289.428 82.8125 289.846V294H81.7227V289.834C81.7227 289.502 81.6738 289.236 81.5762 289.037C81.4785 288.834 81.3359 288.688 81.1484 288.598C80.9609 288.504 80.7305 288.457 80.457 288.457C80.1875 288.457 79.9414 288.514 79.7188 288.627C79.5 288.74 79.3105 288.896 79.1504 289.096C78.9941 289.295 78.8711 289.523 78.7812 289.781C78.6953 290.035 78.6523 290.305 78.6523 290.59ZM87.0664 294.117C86.625 294.117 86.2246 294.043 85.8652 293.895C85.5098 293.742 85.2031 293.529 84.9453 293.256C84.6914 292.982 84.4961 292.658 84.3594 292.283C84.2227 291.908 84.1543 291.498 84.1543 291.053V290.807C84.1543 290.291 84.2305 289.832 84.3828 289.43C84.5352 289.023 84.7422 288.68 85.0039 288.398C85.2656 288.117 85.5625 287.904 85.8945 287.76C86.2266 287.615 86.5703 287.543 86.9258 287.543C87.3789 287.543 87.7695 287.621 88.0977 287.777C88.4297 287.934 88.7012 288.152 88.9121 288.434C89.123 288.711 89.2793 289.039 89.3809 289.418C89.4824 289.793 89.5332 290.203 89.5332 290.648V291.135H84.7988V290.25H88.4492V290.168C88.4336 289.887 88.375 289.613 88.2734 289.348C88.1758 289.082 88.0195 288.863 87.8047 288.691C87.5898 288.52 87.2969 288.434 86.9258 288.434C86.6797 288.434 86.4531 288.486 86.2461 288.592C86.0391 288.693 85.8613 288.846 85.7129 289.049C85.5645 289.252 85.4492 289.5 85.3672 289.793C85.2852 290.086 85.2441 290.424 85.2441 290.807V291.053C85.2441 291.354 85.2852 291.637 85.3672 291.902C85.4531 292.164 85.5762 292.395 85.7363 292.594C85.9004 292.793 86.0977 292.949 86.3281 293.062C86.5625 293.176 86.8281 293.232 87.125 293.232C87.5078 293.232 87.832 293.154 88.0977 292.998C88.3633 292.842 88.5957 292.633 88.7949 292.371L89.4512 292.893C89.3145 293.1 89.1406 293.297 88.9297 293.484C88.7188 293.672 88.459 293.824 88.1504 293.941C87.8457 294.059 87.4844 294.117 87.0664 294.117Z" fill="#373737"/>
</g>
<rect x="105" y="79" width="33" height="33" rx="4" fill="white"/>
<rect x="105" y="118" width="33" height="33" rx="4" fill="white"/>
<rect x="105" y="157" width="33" height="33" rx="4" fill="white"/>
<rect x="105" y="196" width="33" height="33" rx="4" fill="white"/>
<rect x="105" y="235" width="33" height="33" rx="4" fill="white"/>
<rect x="105" y="274" width="33" height="33" rx="4" fill="white"/>
<rect x="143" y="79" width="33" height="33" rx="4" fill="white"/>
<rect x="143" y="118" width="33" height="33" rx="4" fill="white"/>
<rect x="143" y="157" width="33" height="33" rx="4" fill="white"/>
<rect x="143" y="196" width="33" height="33" rx="4" fill="white"/>
<rect x="143" y="235" width="33" height="33" rx="4" fill="white"/>
<rect x="143" y="274" width="33" height="33" rx="4" fill="white"/>
<rect x="181" y="79" width="33" height="33" rx="4" fill="white"/>
<rect x="181" y="118" width="33" height="33" rx="4" fill="white"/>
<rect x="181" y="157" width="33" height="33" rx="4" fill="white"/>
<g class="done">
    <rect x="181" y="196" width="33" height="33" rx="4" fill="white" id="katakana"/>
    <path d="M192.66 212.712C192.96 212.484 193.212 212.244 193.524 211.92C194.172 211.272 195.168 209.904 195.888 209.064C196.584 208.236 197.208 208.116 198 208.932C198.72 209.664 199.644 210.852 200.412 211.68C201.132 212.472 202.332 213.732 203.412 214.692L202.644 215.568C201.732 214.704 200.64 213.48 199.824 212.544C199.044 211.668 198.12 210.504 197.568 209.892C197.052 209.328 196.824 209.424 196.416 209.928C195.852 210.624 194.868 211.944 194.256 212.688C194.016 213.012 193.74 213.372 193.548 213.624L192.66 212.712Z" fill="#373737"/>
</g>
<rect x="181" y="235" width="33" height="33" rx="4" fill="white"/>
<rect x="181" y="274" width="33" height="33" rx="4" fill="white"/>
<path d="M194.916 90V99H193.826V90H194.916ZM198.789 92.6602L196.023 95.6191L194.477 97.2246L194.389 96.0703L195.496 94.7461L197.465 92.6602H198.789ZM197.799 99L195.537 95.9766L196.1 95.0098L199.076 99H197.799ZM201.086 92.6602V99H199.996V92.6602H201.086ZM199.914 90.9785C199.914 90.8027 199.967 90.6543 200.072 90.5332C200.182 90.4121 200.342 90.3516 200.553 90.3516C200.76 90.3516 200.918 90.4121 201.027 90.5332C201.141 90.6543 201.197 90.8027 201.197 90.9785C201.197 91.1465 201.141 91.291 201.027 91.4121C200.918 91.5293 200.76 91.5879 200.553 91.5879C200.342 91.5879 200.182 91.5293 200.072 91.4121C199.967 91.291 199.914 91.1465 199.914 90.9785Z" fill="#373737"/>
<path d="M40.9102 129V138H39.8262V129H40.9102ZM40.6523 134.59L40.2012 134.572C40.2051 134.139 40.2695 133.738 40.3945 133.371C40.5195 133 40.6953 132.678 40.9219 132.404C41.1484 132.131 41.418 131.92 41.7305 131.771C42.0469 131.619 42.3965 131.543 42.7793 131.543C43.0918 131.543 43.373 131.586 43.623 131.672C43.873 131.754 44.0859 131.887 44.2617 132.07C44.4414 132.254 44.5781 132.492 44.6719 132.785C44.7656 133.074 44.8125 133.428 44.8125 133.846V138H43.7227V133.834C43.7227 133.502 43.6738 133.236 43.5762 133.037C43.4785 132.834 43.3359 132.688 43.1484 132.598C42.9609 132.504 42.7305 132.457 42.457 132.457C42.1875 132.457 41.9414 132.514 41.7188 132.627C41.5 132.74 41.3105 132.896 41.1504 133.096C40.9941 133.295 40.8711 133.523 40.7812 133.781C40.6953 134.035 40.6523 134.305 40.6523 134.59ZM46.1484 134.9V134.766C46.1484 134.309 46.2148 133.885 46.3477 133.494C46.4805 133.1 46.6719 132.758 46.9219 132.469C47.1719 132.176 47.4746 131.949 47.8301 131.789C48.1855 131.625 48.584 131.543 49.0254 131.543C49.4707 131.543 49.8711 131.625 50.2266 131.789C50.5859 131.949 50.8906 132.176 51.1406 132.469C51.3945 132.758 51.5879 133.1 51.7207 133.494C51.8535 133.885 51.9199 134.309 51.9199 134.766V134.9C51.9199 135.357 51.8535 135.781 51.7207 136.172C51.5879 136.562 51.3945 136.904 51.1406 137.197C50.8906 137.486 50.5879 137.713 50.2324 137.877C49.8809 138.037 49.4824 138.117 49.0371 138.117C48.5918 138.117 48.1914 138.037 47.8359 137.877C47.4805 137.713 47.1758 137.486 46.9219 137.197C46.6719 136.904 46.4805 136.562 46.3477 136.172C46.2148 135.781 46.1484 135.357 46.1484 134.9ZM47.2324 134.766V134.9C47.2324 135.217 47.2695 135.516 47.3438 135.797C47.418 136.074 47.5293 136.32 47.6777 136.535C47.8301 136.75 48.0195 136.92 48.2461 137.045C48.4727 137.166 48.7363 137.227 49.0371 137.227C49.334 137.227 49.5938 137.166 49.8164 137.045C50.043 136.92 50.2305 136.75 50.3789 136.535C50.5273 136.32 50.6387 136.074 50.7129 135.797C50.791 135.516 50.8301 135.217 50.8301 134.9V134.766C50.8301 134.453 50.791 134.158 50.7129 133.881C50.6387 133.6 50.5254 133.352 50.373 133.137C50.2246 132.918 50.0371 132.746 49.8105 132.621C49.5879 132.496 49.3262 132.434 49.0254 132.434C48.7285 132.434 48.4668 132.496 48.2402 132.621C48.0176 132.746 47.8301 132.918 47.6777 133.137C47.5293 133.352 47.418 133.6 47.3438 133.881C47.2695 134.158 47.2324 134.453 47.2324 134.766Z" fill="#373737"/>
<path d="M76.9043 132.92V138H75.8145V131.66H76.8457L76.9043 132.92ZM76.6816 134.59L76.1777 134.572C76.1816 134.139 76.2383 133.738 76.3477 133.371C76.457 133 76.6191 132.678 76.834 132.404C77.0488 132.131 77.3164 131.92 77.6367 131.771C77.957 131.619 78.3281 131.543 78.75 131.543C79.0469 131.543 79.3203 131.586 79.5703 131.672C79.8203 131.754 80.0371 131.885 80.2207 132.064C80.4043 132.244 80.5469 132.475 80.6484 132.756C80.75 133.037 80.8008 133.377 80.8008 133.775V138H79.7168V133.828C79.7168 133.496 79.6602 133.23 79.5469 133.031C79.4375 132.832 79.2812 132.688 79.0781 132.598C78.875 132.504 78.6367 132.457 78.3633 132.457C78.043 132.457 77.7754 132.514 77.5605 132.627C77.3457 132.74 77.1738 132.896 77.0449 133.096C76.916 133.295 76.8223 133.523 76.7637 133.781C76.709 134.035 76.6816 134.305 76.6816 134.59ZM80.7891 133.992L80.0625 134.215C80.0664 133.867 80.123 133.533 80.2324 133.213C80.3457 132.893 80.5078 132.607 80.7188 132.357C80.9336 132.107 81.1973 131.91 81.5098 131.766C81.8223 131.617 82.1797 131.543 82.582 131.543C82.9219 131.543 83.2227 131.588 83.4844 131.678C83.75 131.768 83.9727 131.906 84.1523 132.094C84.3359 132.277 84.4746 132.514 84.5684 132.803C84.6621 133.092 84.709 133.436 84.709 133.834V138H83.6191V133.822C83.6191 133.467 83.5625 133.191 83.4492 132.996C83.3398 132.797 83.1836 132.658 82.9805 132.58C82.7812 132.498 82.543 132.457 82.2656 132.457C82.0273 132.457 81.8164 132.498 81.6328 132.58C81.4492 132.662 81.2949 132.775 81.1699 132.92C81.0449 133.061 80.9492 133.223 80.8828 133.406C80.8203 133.59 80.7891 133.785 80.7891 133.992ZM88.9805 138.117C88.5391 138.117 88.1387 138.043 87.7793 137.895C87.4238 137.742 87.1172 137.529 86.8594 137.256C86.6055 136.982 86.4102 136.658 86.2734 136.283C86.1367 135.908 86.0684 135.498 86.0684 135.053V134.807C86.0684 134.291 86.1445 133.832 86.2969 133.43C86.4492 133.023 86.6562 132.68 86.918 132.398C87.1797 132.117 87.4766 131.904 87.8086 131.76C88.1406 131.615 88.4844 131.543 88.8398 131.543C89.293 131.543 89.6836 131.621 90.0117 131.777C90.3438 131.934 90.6152 132.152 90.8262 132.434C91.0371 132.711 91.1934 133.039 91.2949 133.418C91.3965 133.793 91.4473 134.203 91.4473 134.648V135.135H86.7129V134.25H90.3633V134.168C90.3477 133.887 90.2891 133.613 90.1875 133.348C90.0898 133.082 89.9336 132.863 89.7188 132.691C89.5039 132.52 89.2109 132.434 88.8398 132.434C88.5938 132.434 88.3672 132.486 88.1602 132.592C87.9531 132.693 87.7754 132.846 87.627 133.049C87.4785 133.252 87.3633 133.5 87.2812 133.793C87.1992 134.086 87.1582 134.424 87.1582 134.807V135.053C87.1582 135.354 87.1992 135.637 87.2812 135.902C87.3672 136.164 87.4902 136.395 87.6504 136.594C87.8145 136.793 88.0117 136.949 88.2422 137.062C88.4766 137.176 88.7422 137.232 89.0391 137.232C89.4219 137.232 89.7461 137.154 90.0117 136.998C90.2773 136.842 90.5098 136.633 90.709 136.371L91.3652 136.893C91.2285 137.1 91.0547 137.297 90.8438 137.484C90.6328 137.672 90.373 137.824 90.0645 137.941C89.7598 138.059 89.3984 138.117 88.9805 138.117Z" fill="#373737"/>
<path d="M41.6074 176.344L43.3711 170.66H44.5312L41.9883 177.979C41.9297 178.135 41.8516 178.303 41.7539 178.482C41.6602 178.666 41.5391 178.84 41.3906 179.004C41.2422 179.168 41.0625 179.301 40.8516 179.402C40.6445 179.508 40.3965 179.561 40.1074 179.561C40.0215 179.561 39.9121 179.549 39.7793 179.525C39.6465 179.502 39.5527 179.482 39.498 179.467L39.4922 178.588C39.5234 178.592 39.5723 178.596 39.6387 178.6C39.709 178.607 39.7578 178.611 39.7852 178.611C40.0312 178.611 40.2402 178.578 40.4121 178.512C40.584 178.449 40.7285 178.342 40.8457 178.189C40.9668 178.041 41.0703 177.836 41.1562 177.574L41.6074 176.344ZM40.3125 170.66L41.959 175.582L42.2402 176.725L41.4609 177.123L39.1289 170.66H40.3125ZM45.1289 173.9V173.766C45.1289 173.309 45.1953 172.885 45.3281 172.494C45.4609 172.1 45.6523 171.758 45.9023 171.469C46.1523 171.176 46.4551 170.949 46.8105 170.789C47.166 170.625 47.5645 170.543 48.0059 170.543C48.4512 170.543 48.8516 170.625 49.207 170.789C49.5664 170.949 49.8711 171.176 50.1211 171.469C50.375 171.758 50.5684 172.1 50.7012 172.494C50.834 172.885 50.9004 173.309 50.9004 173.766V173.9C50.9004 174.357 50.834 174.781 50.7012 175.172C50.5684 175.562 50.375 175.904 50.1211 176.197C49.8711 176.486 49.5684 176.713 49.2129 176.877C48.8613 177.037 48.4629 177.117 48.0176 177.117C47.5723 177.117 47.1719 177.037 46.8164 176.877C46.4609 176.713 46.1562 176.486 45.9023 176.197C45.6523 175.904 45.4609 175.562 45.3281 175.172C45.1953 174.781 45.1289 174.357 45.1289 173.9ZM46.2129 173.766V173.9C46.2129 174.217 46.25 174.516 46.3242 174.797C46.3984 175.074 46.5098 175.32 46.6582 175.535C46.8105 175.75 47 175.92 47.2266 176.045C47.4531 176.166 47.7168 176.227 48.0176 176.227C48.3145 176.227 48.5742 176.166 48.7969 176.045C49.0234 175.92 49.2109 175.75 49.3594 175.535C49.5078 175.32 49.6191 175.074 49.6934 174.797C49.7715 174.516 49.8105 174.217 49.8105 173.9V173.766C49.8105 173.453 49.7715 173.158 49.6934 172.881C49.6191 172.6 49.5059 172.352 49.3535 172.137C49.2051 171.918 49.0176 171.746 48.791 171.621C48.5684 171.496 48.3066 171.434 48.0059 171.434C47.709 171.434 47.4473 171.496 47.2207 171.621C46.998 171.746 46.8105 171.918 46.6582 172.137C46.5098 172.352 46.3984 172.6 46.3242 172.881C46.25 173.158 46.2129 173.453 46.2129 173.766Z" fill="#373737"/>
<path d="M122.705 175.535V170.66H123.795V177H122.758L122.705 175.535ZM122.91 174.199L123.361 174.188C123.361 174.609 123.316 175 123.227 175.359C123.141 175.715 123 176.023 122.805 176.285C122.609 176.547 122.354 176.752 122.037 176.9C121.721 177.045 121.336 177.117 120.883 177.117C120.574 177.117 120.291 177.072 120.033 176.982C119.779 176.893 119.561 176.754 119.377 176.566C119.193 176.379 119.051 176.135 118.949 175.834C118.852 175.533 118.803 175.172 118.803 174.75V170.66H119.887V174.762C119.887 175.047 119.918 175.283 119.98 175.471C120.047 175.654 120.135 175.801 120.244 175.91C120.357 176.016 120.482 176.09 120.619 176.133C120.76 176.176 120.904 176.197 121.053 176.197C121.514 176.197 121.879 176.109 122.148 175.934C122.418 175.754 122.611 175.514 122.729 175.213C122.85 174.908 122.91 174.57 122.91 174.199Z" fill="#373737"/>
<path d="M121.457 216.117C121.016 216.117 120.615 216.043 120.256 215.895C119.9 215.742 119.594 215.529 119.336 215.256C119.082 214.982 118.887 214.658 118.75 214.283C118.613 213.908 118.545 213.498 118.545 213.053V212.807C118.545 212.291 118.621 211.832 118.773 211.43C118.926 211.023 119.133 210.68 119.395 210.398C119.656 210.117 119.953 209.904 120.285 209.76C120.617 209.615 120.961 209.543 121.316 209.543C121.77 209.543 122.16 209.621 122.488 209.777C122.82 209.934 123.092 210.152 123.303 210.434C123.514 210.711 123.67 211.039 123.771 211.418C123.873 211.793 123.924 212.203 123.924 212.648V213.135H119.189V212.25H122.84V212.168C122.824 211.887 122.766 211.613 122.664 211.348C122.566 211.082 122.41 210.863 122.195 210.691C121.98 210.52 121.688 210.434 121.316 210.434C121.07 210.434 120.844 210.486 120.637 210.592C120.43 210.693 120.252 210.846 120.104 211.049C119.955 211.252 119.84 211.5 119.758 211.793C119.676 212.086 119.635 212.424 119.635 212.807V213.053C119.635 213.354 119.676 213.637 119.758 213.902C119.844 214.164 119.967 214.395 120.127 214.594C120.291 214.793 120.488 214.949 120.719 215.062C120.953 215.176 121.219 215.232 121.516 215.232C121.898 215.232 122.223 215.154 122.488 214.998C122.754 214.842 122.986 214.633 123.186 214.371L123.842 214.893C123.705 215.1 123.531 215.297 123.32 215.484C123.109 215.672 122.85 215.824 122.541 215.941C122.236 216.059 121.875 216.117 121.457 216.117Z" fill="#373737"/>
<path d="M43.4805 209.66V210.492H40.0527V209.66H43.4805ZM41.2129 208.119H42.2969V214.43C42.2969 214.645 42.3301 214.807 42.3965 214.916C42.4629 215.025 42.5488 215.098 42.6543 215.133C42.7598 215.168 42.873 215.186 42.9941 215.186C43.084 215.186 43.1777 215.178 43.2754 215.162C43.377 215.143 43.4531 215.127 43.5039 215.115L43.5098 216C43.4238 216.027 43.3105 216.053 43.1699 216.076C43.0332 216.104 42.8672 216.117 42.6719 216.117C42.4062 216.117 42.1621 216.064 41.9395 215.959C41.7168 215.854 41.5391 215.678 41.4062 215.432C41.2773 215.182 41.2129 214.846 41.2129 214.424V208.119ZM47.3828 216.117C46.9414 216.117 46.541 216.043 46.1816 215.895C45.8262 215.742 45.5195 215.529 45.2617 215.256C45.0078 214.982 44.8125 214.658 44.6758 214.283C44.5391 213.908 44.4707 213.498 44.4707 213.053V212.807C44.4707 212.291 44.5469 211.832 44.6992 211.43C44.8516 211.023 45.0586 210.68 45.3203 210.398C45.582 210.117 45.8789 209.904 46.2109 209.76C46.543 209.615 46.8867 209.543 47.2422 209.543C47.6953 209.543 48.0859 209.621 48.4141 209.777C48.7461 209.934 49.0176 210.152 49.2285 210.434C49.4395 210.711 49.5957 211.039 49.6973 211.418C49.7988 211.793 49.8496 212.203 49.8496 212.648V213.135H45.1152V212.25H48.7656V212.168C48.75 211.887 48.6914 211.613 48.5898 211.348C48.4922 211.082 48.3359 210.863 48.1211 210.691C47.9062 210.52 47.6133 210.434 47.2422 210.434C46.9961 210.434 46.7695 210.486 46.5625 210.592C46.3555 210.693 46.1777 210.846 46.0293 211.049C45.8809 211.252 45.7656 211.5 45.6836 211.793C45.6016 212.086 45.5605 212.424 45.5605 212.807V213.053C45.5605 213.354 45.6016 213.637 45.6836 213.902C45.7695 214.164 45.8926 214.395 46.0527 214.594C46.2168 214.793 46.4141 214.949 46.6445 215.062C46.8789 215.176 47.1445 215.232 47.4414 215.232C47.8242 215.232 48.1484 215.154 48.4141 214.998C48.6797 214.842 48.9121 214.633 49.1113 214.371L49.7676 214.893C49.6309 215.1 49.457 215.297 49.2461 215.484C49.0352 215.672 48.7754 215.824 48.4668 215.941C48.1621 216.059 47.8008 216.117 47.3828 216.117Z" fill="#373737"/>
<path d="M152.904 249.92V255H151.814V248.66H152.846L152.904 249.92ZM152.682 251.59L152.178 251.572C152.182 251.139 152.238 250.738 152.348 250.371C152.457 250 152.619 249.678 152.834 249.404C153.049 249.131 153.316 248.92 153.637 248.771C153.957 248.619 154.328 248.543 154.75 248.543C155.047 248.543 155.32 248.586 155.57 248.672C155.82 248.754 156.037 248.885 156.221 249.064C156.404 249.244 156.547 249.475 156.648 249.756C156.75 250.037 156.801 250.377 156.801 250.775V255H155.717V250.828C155.717 250.496 155.66 250.23 155.547 250.031C155.438 249.832 155.281 249.688 155.078 249.598C154.875 249.504 154.637 249.457 154.363 249.457C154.043 249.457 153.775 249.514 153.561 249.627C153.346 249.74 153.174 249.896 153.045 250.096C152.916 250.295 152.822 250.523 152.764 250.781C152.709 251.035 152.682 251.305 152.682 251.59ZM156.789 250.992L156.062 251.215C156.066 250.867 156.123 250.533 156.232 250.213C156.346 249.893 156.508 249.607 156.719 249.357C156.934 249.107 157.197 248.91 157.51 248.766C157.822 248.617 158.18 248.543 158.582 248.543C158.922 248.543 159.223 248.588 159.484 248.678C159.75 248.768 159.973 248.906 160.152 249.094C160.336 249.277 160.475 249.514 160.568 249.803C160.662 250.092 160.709 250.436 160.709 250.834V255H159.619V250.822C159.619 250.467 159.562 250.191 159.449 249.996C159.34 249.797 159.184 249.658 158.98 249.58C158.781 249.498 158.543 249.457 158.266 249.457C158.027 249.457 157.816 249.498 157.633 249.58C157.449 249.662 157.295 249.775 157.17 249.92C157.045 250.061 156.949 250.223 156.883 250.406C156.82 250.59 156.789 250.785 156.789 250.992ZM166.229 253.535V248.66H167.318V255H166.281L166.229 253.535ZM166.434 252.199L166.885 252.188C166.885 252.609 166.84 253 166.75 253.359C166.664 253.715 166.523 254.023 166.328 254.285C166.133 254.547 165.877 254.752 165.561 254.9C165.244 255.045 164.859 255.117 164.406 255.117C164.098 255.117 163.814 255.072 163.557 254.982C163.303 254.893 163.084 254.754 162.9 254.566C162.717 254.379 162.574 254.135 162.473 253.834C162.375 253.533 162.326 253.172 162.326 252.75V248.66H163.41V252.762C163.41 253.047 163.441 253.283 163.504 253.471C163.57 253.654 163.658 253.801 163.768 253.91C163.881 254.016 164.006 254.09 164.143 254.133C164.283 254.176 164.428 254.197 164.576 254.197C165.037 254.197 165.402 254.109 165.672 253.934C165.941 253.754 166.135 253.514 166.252 253.213C166.373 252.908 166.434 252.57 166.434 252.199Z" fill="#373737"/>
<path d="M193.91 249.656V255H192.826V248.66H193.881L193.91 249.656ZM195.891 248.625L195.885 249.633C195.795 249.613 195.709 249.602 195.627 249.598C195.549 249.59 195.459 249.586 195.357 249.586C195.107 249.586 194.887 249.625 194.695 249.703C194.504 249.781 194.342 249.891 194.209 250.031C194.076 250.172 193.971 250.34 193.893 250.535C193.818 250.727 193.77 250.938 193.746 251.168L193.441 251.344C193.441 250.961 193.479 250.602 193.553 250.266C193.631 249.93 193.75 249.633 193.91 249.375C194.07 249.113 194.273 248.91 194.52 248.766C194.77 248.617 195.066 248.543 195.41 248.543C195.488 248.543 195.578 248.553 195.68 248.572C195.781 248.588 195.852 248.605 195.891 248.625ZM200.771 253.535V248.66H201.861V255H200.824L200.771 253.535ZM200.977 252.199L201.428 252.188C201.428 252.609 201.383 253 201.293 253.359C201.207 253.715 201.066 254.023 200.871 254.285C200.676 254.547 200.42 254.752 200.104 254.9C199.787 255.045 199.402 255.117 198.949 255.117C198.641 255.117 198.357 255.072 198.1 254.982C197.846 254.893 197.627 254.754 197.443 254.566C197.26 254.379 197.117 254.135 197.016 253.834C196.918 253.533 196.869 253.172 196.869 252.75V248.66H197.953V252.762C197.953 253.047 197.984 253.283 198.047 253.471C198.113 253.654 198.201 253.801 198.311 253.91C198.424 254.016 198.549 254.09 198.686 254.133C198.826 254.176 198.971 254.197 199.119 254.197C199.58 254.197 199.945 254.109 200.215 253.934C200.484 253.754 200.678 253.514 200.795 253.213C200.916 252.908 200.977 252.57 200.977 252.199Z" fill="#373737"/>

<path d="M42.856 285.168C43.12 285.192 43.456 285.204 43.696 285.204C44.332 285.204 47.176 285.12 47.812 285.06C48.172 285.024 48.34 285 48.472 284.952L49.024 285.66C48.808 285.804 48.568 285.96 48.34 286.14C47.752 286.596 46.12 288 45.184 288.768C45.736 288.588 46.312 288.528 46.852 288.528C48.844 288.528 50.272 289.716 50.272 291.336C50.272 293.268 48.676 294.528 46.132 294.528C44.5 294.528 43.504 293.82 43.504 292.812C43.504 291.996 44.248 291.252 45.352 291.252C46.948 291.252 47.752 292.38 47.836 293.592L46.972 293.736C46.9 292.716 46.312 291.984 45.352 291.984C44.8 291.984 44.38 292.32 44.38 292.74C44.38 293.328 45.04 293.676 45.988 293.676C48.028 293.676 49.312 292.836 49.312 291.336C49.312 290.148 48.184 289.272 46.612 289.272C44.62 289.272 43.54 290.112 42.028 291.66L41.332 290.964C42.328 290.148 43.876 288.852 44.56 288.264C45.232 287.712 46.744 286.452 47.344 285.912C46.708 285.948 44.308 286.044 43.684 286.08C43.408 286.104 43.144 286.116 42.88 286.152L42.856 285.168Z" fill="#373737"/>
<path d="M122.48 284.4C122.432 284.772 122.42 285.048 122.42 285.3C122.42 285.576 122.42 286.476 122.42 286.896H121.4C121.4 286.428 121.4 285.576 121.4 285.3C121.4 285.048 121.388 284.772 121.34 284.4H122.48ZM126.572 286.728C126.512 286.896 126.44 287.22 126.404 287.448C126.236 288.408 125.888 289.908 125.216 291.048C124.328 292.62 122.672 293.844 120.476 294.444L119.696 293.556C120.092 293.484 120.548 293.364 120.932 293.22C122.144 292.824 123.452 291.936 124.196 290.796C124.844 289.776 125.216 288.324 125.324 287.304H118.628C118.628 287.796 118.628 289.08 118.628 289.452C118.628 289.656 118.64 289.98 118.664 290.16H117.62C117.656 289.956 117.668 289.632 117.668 289.392C117.668 289.008 117.668 287.7 117.668 287.28C117.668 287.028 117.668 286.62 117.62 286.368C117.968 286.392 118.328 286.416 118.748 286.416H125.108C125.552 286.416 125.768 286.368 125.924 286.32L126.572 286.728Z" fill="#373737"/>
<path d="M158.692 285.516C158.632 285.216 158.56 284.952 158.476 284.7L159.544 284.52C159.568 284.736 159.616 285.084 159.664 285.348C159.736 285.876 161.056 292.464 161.224 293.256C161.308 293.592 161.404 294 161.524 294.348L160.42 294.552C160.36 294.144 160.324 293.772 160.24 293.424C160.12 292.668 158.836 286.14 158.692 285.516ZM155.308 287.256C155.608 287.232 155.932 287.208 156.316 287.172C157.396 287.052 161.536 286.392 162.676 286.164C163.024 286.104 163.336 286.032 163.54 285.972L163.732 286.98C163.552 286.992 163.192 287.052 162.868 287.1C161.632 287.292 157.54 287.94 156.484 288.12C156.16 288.18 155.872 288.24 155.524 288.324L155.308 287.256ZM155.272 290.712C155.56 290.7 156.016 290.652 156.328 290.604C157.612 290.436 162.076 289.704 163.516 289.44C163.972 289.356 164.32 289.272 164.572 289.2L164.776 290.208C164.524 290.232 164.14 290.304 163.696 290.376C162.1 290.616 157.768 291.324 156.556 291.54C156.088 291.624 155.752 291.696 155.488 291.768L155.272 290.712Z" fill="#373737"/>
<path d="M196.464 284.496C196.416 284.748 196.38 285.192 196.38 285.624C196.368 286.224 196.38 288.48 196.38 289.296L195.504 288.816C195.504 288.156 195.504 286.26 195.492 285.624C195.492 285.156 195.468 284.748 195.408 284.496H196.464ZM200.664 285.708C201.372 286.176 202.512 287.244 203.064 287.916L202.392 288.6C201.804 287.844 200.712 286.8 200.04 286.332L200.664 285.708ZM193.104 286.08C193.812 286.2 194.4 286.248 195 286.248C196.14 286.248 197.472 286.068 198.684 285.732V286.656C197.46 286.932 196.044 287.088 195.06 287.088C194.532 287.088 193.848 287.064 193.14 286.968L193.104 286.08ZM196.08 291.492C196.056 291.744 196.032 292.332 196.032 292.692C196.032 293.364 196.2 293.616 197.952 293.616C198.624 293.616 199.548 293.532 199.98 293.412C200.604 293.22 200.976 292.86 200.976 292.068C200.976 291.6 200.964 291.192 200.904 290.712L201.936 291.036C201.936 291.516 201.948 291.828 201.936 292.332C201.888 293.46 201.456 293.976 200.376 294.276C199.848 294.408 198.684 294.516 197.892 294.516C195.48 294.516 195.132 293.94 195.132 293.052C195.132 292.62 195.156 292.188 195.18 291.804L196.08 291.492ZM196.692 289.908C196.692 290.988 196.272 292.5 194.76 292.5C194.076 292.5 193.212 292.008 193.212 290.604C193.212 289.38 193.992 288.252 195.18 288.252C196.14 288.252 196.692 288.948 196.692 289.908ZM194.856 291.612C195.576 291.612 195.816 290.76 195.816 289.956C195.816 289.38 195.54 289.02 195.12 289.02C194.532 289.02 194.016 289.656 194.016 290.556C194.016 291.228 194.412 291.612 194.856 291.612Z" fill="#373737"/>
<path d="M42.148 246.78C43.816 246.984 45.388 247.008 46.612 246.888C47.596 246.804 48.58 246.6 49.444 246.312L49.576 247.188C48.796 247.416 47.776 247.62 46.816 247.704C45.604 247.824 43.924 247.824 42.208 247.656L42.148 246.78ZM41.908 249.24C43.96 249.456 46 249.42 47.404 249.252C48.544 249.132 49.516 248.892 50.152 248.7L50.308 249.588C49.648 249.768 48.736 249.948 47.728 250.068C46.252 250.26 44.032 250.296 41.968 250.14L41.908 249.24ZM46.012 246.624C45.916 246.276 45.808 245.904 45.676 245.556L46.696 245.424C46.816 246.432 47.188 247.644 47.488 248.496C47.812 249.432 48.34 250.584 48.964 251.508C49.096 251.7 49.24 251.868 49.42 252.024L48.916 252.756C48.244 252.588 47.128 252.468 46.3 252.384L46.372 251.652C47.02 251.712 47.8 251.796 48.172 251.844C47.512 250.812 47.008 249.66 46.66 248.688C46.36 247.86 46.18 247.224 46.012 246.624ZM43.66 251.832C43.372 252.24 43.156 252.648 43.156 253.188C43.156 254.172 44.032 254.676 45.916 254.676C47.032 254.676 47.908 254.592 48.784 254.424L48.736 255.372C47.896 255.516 46.96 255.588 45.928 255.588C43.588 255.588 42.268 254.892 42.244 253.344C42.244 252.66 42.448 252.156 42.724 251.628L43.66 251.832Z" fill="#373737"/>
<path d="M86.688 246.84C86.688 247.716 86.688 248.868 86.688 249.612C86.688 251.124 86.844 252.804 86.844 253.752C86.844 254.736 86.16 255.3 84.876 255.3C83.544 255.3 82.572 254.748 82.572 253.62C82.572 252.78 83.268 251.976 84.864 251.976C86.988 251.976 88.44 253.02 89.34 253.824L88.836 254.664C87.696 253.488 86.256 252.696 84.84 252.696C83.976 252.696 83.412 253.044 83.412 253.572C83.412 254.16 83.952 254.472 84.792 254.472C85.728 254.472 85.968 253.992 85.968 253.344C85.968 252.672 85.824 250.896 85.824 249.648C85.824 248.796 85.824 247.5 85.824 246.84H86.688ZM82.92 249.18C85.08 249.348 87.288 249.204 88.92 249.012V249.888C87.384 250.056 85.068 250.176 82.932 250.056L82.92 249.18ZM83.112 246.396C85.044 246.552 87.252 246.432 88.656 246.228V247.08C87.276 247.224 85.056 247.344 83.112 247.248V246.396ZM81.048 245.904C80.976 246.108 80.88 246.492 80.844 246.708C80.604 247.824 80.256 250.14 80.256 251.484C80.256 252.072 80.292 252.588 80.376 253.176C80.556 252.636 80.856 251.868 81.072 251.388L81.552 251.784C81.252 252.612 80.832 253.848 80.7 254.436C80.664 254.604 80.64 254.832 80.652 254.964C80.652 255.084 80.676 255.264 80.688 255.384L79.824 255.456C79.584 254.592 79.368 253.272 79.368 251.652C79.368 249.888 79.764 247.656 79.908 246.66C79.956 246.384 79.992 246.06 79.992 245.808L81.048 245.904Z" fill="#373737"/>
<path d="M118.004 246.588C118.28 246.612 119.12 246.648 119.504 246.648C120.332 246.648 123.896 246.648 125.12 246.648C125.456 246.648 125.756 246.636 125.96 246.612C125.948 246.78 125.948 247.032 125.948 247.332C125.948 247.86 125.948 253.308 125.948 254.58C125.948 254.832 125.96 255.096 125.972 255.312H124.94C124.952 255.132 124.952 254.832 124.952 254.52C124.952 252.948 124.952 248.004 124.952 247.548C124.46 247.548 120.332 247.548 119.504 247.548C119.12 247.548 118.28 247.572 118.004 247.596V246.588ZM118.34 250.068C118.64 250.092 119.156 250.128 119.648 250.128C120.44 250.128 125.036 250.128 125.468 250.128V251.028C125.036 251.028 120.44 251.028 119.66 251.028C119.156 251.028 118.64 251.04 118.34 251.052V250.068ZM117.836 253.716C118.076 253.74 118.508 253.764 119.036 253.764C119.876 253.764 124.808 253.764 125.48 253.764V254.7C124.724 254.7 119.888 254.7 119.036 254.7C118.568 254.7 118.076 254.724 117.836 254.736V253.716Z" fill="#373737"/>
<path d="M80.436 170.808C80.7 170.832 81.072 170.856 81.264 170.856H86.796C87.096 170.856 87.396 170.832 87.636 170.808V171.768C87.384 171.744 87.06 171.732 86.796 171.732H81.276C81.084 171.732 80.688 171.744 80.436 171.768V170.808ZM83.484 176.64V171.348H84.444V176.64H83.484ZM79.86 176.088C80.136 176.124 80.448 176.136 80.712 176.136H87.348C87.636 176.136 87.912 176.112 88.152 176.088V177.084C87.912 177.06 87.54 177.048 87.348 177.048H80.712C80.448 177.048 80.148 177.06 79.86 177.084V176.088Z" fill="#373737"/>

<path d="M157.744 206.544C159.04 206.832 161.332 207.108 162.484 207.168L162.352 208.056C161.152 207.948 159.052 207.684 157.588 207.42L157.744 206.544ZM162.724 209.976C162.496 210.132 162.196 210.384 162.052 210.504C161.596 210.924 160.252 212.184 159.796 212.652C159.928 212.64 160.144 212.64 160.276 212.676C160.732 212.724 161.008 213.036 161.176 213.528C161.296 213.876 161.464 214.488 161.584 214.872C161.728 215.328 162.004 215.532 162.628 215.532C163.408 215.532 164.32 215.424 164.896 215.28L164.824 216.288C164.32 216.384 163.216 216.468 162.58 216.468C161.608 216.468 161.02 216.24 160.756 215.448C160.636 215.088 160.468 214.38 160.348 214.044C160.216 213.624 159.952 213.396 159.616 213.396C159.292 213.396 159.004 213.564 158.728 213.84C158.284 214.26 156.976 215.64 156.292 216.504L155.38 215.868C155.536 215.748 155.752 215.556 155.98 215.328C156.472 214.848 159.736 211.572 160.912 210.396C159.964 210.444 157.948 210.624 157.216 210.684C156.82 210.708 156.508 210.756 156.256 210.792L156.172 209.748C156.448 209.772 156.796 209.772 157.18 209.772C157.876 209.748 160.66 209.568 161.572 209.448C161.776 209.424 162.028 209.364 162.148 209.316L162.724 209.976Z" fill="#373737"/>

<path d="M163.708 168.264C163.588 168.492 163.42 168.9 163.324 169.152C162.868 170.34 162.148 171.9 161.164 173.148C160.012 174.612 158.452 176.196 156.184 177.372L155.368 176.628C157.6 175.56 159.136 174.132 160.372 172.56C161.356 171.288 161.956 169.956 162.364 168.78C162.448 168.54 162.556 168.144 162.616 167.892L163.708 168.264ZM157.372 169.68C158.56 170.436 160.228 171.636 161.14 172.368C162.34 173.352 163.528 174.396 164.476 175.428L163.72 176.256C162.724 175.104 161.68 174.156 160.48 173.148C159.616 172.428 158.056 171.24 156.736 170.436L157.372 169.68Z" fill="#373737"/>
<path d="M198.276 176.748C198.324 176.568 198.36 176.316 198.36 176.076C198.36 175.524 198.36 169.644 198.36 168.888C198.36 168.432 198.3 168.096 198.3 168H199.404C199.392 168.096 199.344 168.444 199.344 168.9C199.344 169.644 199.344 175.452 199.344 175.812C200.46 175.308 201.936 174.216 202.848 172.86L203.424 173.688C202.38 175.092 200.724 176.316 199.332 177.012C199.128 177.108 199.008 177.216 198.912 177.276L198.276 176.748ZM192.78 176.7C193.8 175.98 194.508 174.912 194.868 173.748C195.228 172.644 195.228 170.256 195.228 168.912C195.228 168.564 195.204 168.3 195.144 168.048H196.248C196.236 168.18 196.188 168.552 196.188 168.9C196.188 170.232 196.152 172.812 195.828 174.012C195.468 175.296 194.7 176.46 193.692 177.3L192.78 176.7Z" fill="#373737"/>
<path d="M118.568 129.132C118.916 129.168 119.264 129.192 119.66 129.192C120.356 129.192 123.848 129.192 124.52 129.192C124.856 129.192 125.288 129.168 125.636 129.132V130.128C125.276 130.104 124.856 130.08 124.52 130.08C123.848 130.08 120.356 130.08 119.672 130.08C119.276 130.08 118.88 130.104 118.568 130.128V129.132ZM117.14 132.144C117.464 132.18 117.812 132.192 118.184 132.192C118.88 132.192 125.396 132.192 126.032 132.192C126.284 132.192 126.68 132.18 126.98 132.144V133.128C126.704 133.116 126.332 133.104 126.032 133.104C125.396 133.104 118.88 133.104 118.184 133.104C117.824 133.104 117.464 133.116 117.14 133.14V132.144ZM122.792 132.624C122.792 134.136 122.6 135.384 122.06 136.392C121.628 137.196 120.716 138.048 119.708 138.576L118.82 137.928C119.744 137.532 120.608 136.848 121.076 136.08C121.676 135.132 121.772 133.956 121.784 132.636L122.792 132.624Z" fill="#373737"/>
<path d="M160.264 129.06C160.144 129.348 160.012 129.66 159.844 130.176C159.46 131.4 158.068 135.708 157.552 136.92L156.472 136.956C157.072 135.576 158.464 131.232 158.824 129.96C158.98 129.408 159.028 129.132 159.064 128.808L160.264 129.06ZM162.544 133.08C163.384 134.304 164.704 136.728 165.196 137.964L164.2 138.408C163.72 137.112 162.496 134.616 161.632 133.476L162.544 133.08ZM156.004 136.668C157.732 136.584 162.028 136.104 163.576 135.876L163.84 136.812C162.172 137.028 157.756 137.508 156.064 137.676C155.764 137.7 155.404 137.748 155.068 137.796L154.876 136.692C155.236 136.704 155.656 136.692 156.004 136.668Z" fill="#373737"/>
<path d="M200.628 134.016C200.628 132.996 199.812 132.288 198.576 132.288C197.196 132.288 196.008 132.684 195.312 132.888C194.94 132.996 194.58 133.128 194.292 133.248L193.992 132.144C194.328 132.12 194.724 132.036 195.096 131.964C195.936 131.772 197.292 131.388 198.684 131.388C200.388 131.388 201.648 132.336 201.648 134.052C201.648 136.656 199.32 138.108 196.212 138.588L195.66 137.676C198.576 137.304 200.628 136.164 200.628 134.016ZM195.588 128.604C196.92 128.904 199.524 129.156 200.688 129.168L200.544 130.092C199.212 129.996 196.8 129.756 195.444 129.516L195.588 128.604Z" fill="#373737"/>
<path d="M46.492 89.58C46.444 89.844 46.408 90.42 46.396 90.78C46.396 91.32 46.396 92.148 46.396 92.976C46.396 94.284 46.588 96.684 46.588 97.74C46.588 98.712 45.988 99.552 44.392 99.552C42.724 99.552 41.512 99.036 41.512 97.668C41.512 96.576 42.448 95.7 44.524 95.7C46.9 95.7 49.036 96.9 50.26 98.016L49.684 98.916C48.484 97.716 46.516 96.54 44.416 96.54C43.168 96.54 42.46 96.96 42.46 97.632C42.46 98.292 43.132 98.664 44.296 98.664C45.172 98.664 45.604 98.244 45.604 97.416C45.604 96.528 45.46 94.2 45.46 92.976C45.46 92.28 45.448 91.296 45.448 90.78C45.436 90.336 45.4 89.808 45.352 89.58H46.492ZM45.868 92.004C46.696 92.004 48.652 91.944 49.948 91.788L49.984 92.688C48.688 92.808 46.732 92.892 45.868 92.892V92.004Z" fill="#373737"/>
<path d="M86.028 89.712C85.944 90.012 85.872 90.432 85.812 90.66C85.38 92.64 84.54 95.148 83.58 96.468C82.668 97.74 81.792 98.64 80.7 98.64C79.788 98.64 79.02 97.884 79.02 96.48C79.02 94.968 79.944 93.372 81.216 92.52C82.404 91.716 83.58 91.404 84.816 91.404C87.168 91.404 88.872 92.988 88.872 95.328C88.872 97.728 87.156 99.18 84.576 99.54L84.024 98.688C86.532 98.46 87.912 97.152 87.912 95.292C87.912 93.528 86.64 92.232 84.708 92.232C83.544 92.232 82.5 92.628 81.564 93.324C80.544 94.056 79.896 95.34 79.896 96.42C79.896 97.212 80.244 97.692 80.784 97.692C81.564 97.692 82.404 96.672 83.016 95.7C83.808 94.476 84.612 92.28 84.912 90.528C84.96 90.288 84.996 89.892 84.984 89.616L86.028 89.712ZM81.108 90.264C81.168 90.588 81.264 90.984 81.36 91.32C81.672 92.496 82.344 94.344 82.848 95.184C83.256 95.88 83.82 96.672 84.396 97.224L83.64 97.836C83.16 97.308 82.716 96.72 82.26 95.94C81.672 95.004 80.976 93.168 80.52 91.668C80.4 91.284 80.268 90.888 80.112 90.576L81.108 90.264Z" fill="#373737"/>
<path d="M117.008 91.032C117.464 91.02 117.848 90.996 118.088 90.972C118.868 90.888 121.124 90.672 123.344 90.48C124.652 90.372 125.768 90.3 126.572 90.276L126.584 91.236C125.888 91.224 124.844 91.248 124.232 91.416C122.516 91.968 121.472 93.804 121.472 95.22C121.472 97.56 123.668 98.304 125.612 98.388L125.276 99.372C123.044 99.288 120.524 98.112 120.524 95.424C120.524 93.552 121.664 92.028 122.768 91.38C121.472 91.512 118.424 91.812 117.116 92.088L117.008 91.032Z" fill="#373737"/>
<path d="M159.732 89.592C159.708 89.76 159.66 90.192 159.66 90.456C159.66 91.092 159.66 92.1 159.66 92.676C159.66 93.66 159.66 97.548 159.66 98.4C159.66 99.036 159.36 99.36 158.64 99.36C158.124 99.36 157.416 99.324 156.924 99.276L156.84 98.316C157.368 98.412 157.908 98.46 158.232 98.46C158.556 98.46 158.688 98.316 158.7 98.004C158.7 97.344 158.7 93.252 158.7 92.676C158.7 92.268 158.7 91.08 158.7 90.444C158.7 90.192 158.652 89.772 158.616 89.592H159.732ZM154.344 91.62C154.68 91.656 154.98 91.68 155.364 91.68C156.072 91.68 162.132 91.68 162.84 91.68C163.116 91.68 163.524 91.668 163.812 91.62V92.616C163.5 92.592 163.14 92.592 162.852 92.592C162.132 92.592 156.096 92.592 155.364 92.592C155.004 92.592 154.656 92.604 154.344 92.628V91.62ZM157.104 94.44C156.588 95.472 155.472 96.996 154.788 97.74L153.972 97.176C154.764 96.432 155.796 95.004 156.264 94.032L157.104 94.44ZM162.12 94.044C162.756 94.812 163.716 96.312 164.196 97.176L163.308 97.668C162.828 96.732 161.928 95.232 161.304 94.476L162.12 94.044Z" fill="#373737"/>
</g>
<path d="M29.447 468.895C29.1774 468.895 28.9079 468.83 28.6384 468.83C28.0993 468.766 27.6276 468.701 27.0885 468.637C24.0562 468.122 21.0913 467.221 18.3959 465.999C18.1938 465.935 17.9916 465.806 17.8569 465.742C17.3852 465.484 16.9135 465.227 16.4418 464.969C16.2396 464.841 16.0375 464.712 15.8353 464.583C14.7572 463.94 13.7464 463.296 12.7356 462.589C12.5335 462.46 12.3987 462.331 12.1966 462.202C11.6575 461.816 11.1858 461.366 10.6467 460.98C10.512 460.851 10.3098 460.722 10.175 460.529C9.97289 460.336 9.83813 460.208 9.63597 460.015C9.43382 459.822 9.29904 459.693 9.09689 459.5C8.96212 459.371 8.89474 459.307 8.75997 459.178C8.6252 459.049 8.49043 458.856 8.35566 458.728C7.54704 457.827 6.73843 456.926 5.9972 455.961C5.86243 455.768 5.72768 455.639 5.59291 455.446C5.18861 454.931 4.85168 454.352 4.51476 453.773C4.37999 453.58 4.24522 453.387 4.11045 453.13C3.23445 451.585 2.42585 449.977 1.81939 448.304C1.752 448.046 1.68462 447.853 1.54985 447.596C1.14555 446.438 0.808608 445.279 0.606455 444.057C0.539071 443.799 0.539083 443.542 0.471699 443.349C0.134777 441.611 0 439.874 0 438.072V34.1678C0 17.5663 13.7464 3.92481 30.9968 3.15265C15.4984 3.92481 3.09968 16.215 3.09968 31.2078V440.968C3.16707 455.446 14.6898 467.415 29.447 468.895Z" fill="url(#paint0_linear_204_22793)"/>
<path d="M243.998 34.1679V438.008C243.998 441.354 243.459 444.572 242.448 447.532C242.381 447.789 242.313 447.982 242.178 448.239C242.111 448.497 242.044 448.69 241.909 448.947C241.841 449.14 241.774 449.269 241.707 449.462C241.504 449.977 241.302 450.492 241.033 450.942C240.898 451.135 240.831 451.392 240.696 451.585C240.561 451.907 240.359 452.164 240.224 452.486C240.089 452.679 240.022 452.872 239.887 453.065C239.753 453.258 239.618 453.451 239.483 453.709C239.146 454.288 238.742 454.867 238.405 455.382C238.27 455.575 238.135 455.704 238 455.897C237.866 456.09 237.731 456.283 237.529 456.476C237.394 456.669 237.259 456.862 237.057 457.055C236.922 457.248 236.72 457.441 236.585 457.634C236.451 457.827 236.249 458.02 236.114 458.213C235.777 458.599 235.44 458.921 235.103 459.243C234.564 459.757 234.025 460.272 233.486 460.787C233.351 460.916 233.149 461.109 232.947 461.237C232.542 461.559 232.138 461.881 231.734 462.203C231.532 462.331 231.397 462.46 231.195 462.589C230.588 463.039 229.982 463.425 229.375 463.811C229.173 463.94 228.971 464.069 228.769 464.197C228.365 464.455 227.893 464.712 227.489 464.969C227.286 465.098 227.084 465.227 226.815 465.291C226.141 465.677 225.4 465.999 224.658 466.321C224.456 466.385 224.254 466.514 224.052 466.578C223.85 466.707 223.58 466.771 223.378 466.836C223.176 466.9 222.906 467.029 222.637 467.093C222.098 467.286 221.559 467.479 221.02 467.608C220.818 467.672 220.615 467.736 220.481 467.801C219.807 467.994 219.066 468.187 218.324 468.316C218.055 468.38 217.785 468.444 217.583 468.444C217.314 468.509 217.044 468.573 216.774 468.573C216.235 468.637 215.764 468.702 215.225 468.766C214.955 468.766 214.686 468.83 214.416 468.83C229.173 467.35 240.696 455.382 240.696 440.904V31.2079C240.696 16.4725 228.769 4.37534 213.607 3.2171C230.656 4.37534 243.998 17.8238 243.998 34.1679Z" fill="url(#paint1_linear_204_22793)"/>
<path d="M244 438.008V440.968C244 458.084 229.445 471.983 211.521 471.983H32.6154C14.6912 471.983 0.136154 458.084 0.136154 440.968V438.008C0.136154 439.81 0.270911 441.547 0.607832 443.284C0.675217 443.542 0.675225 443.799 0.742609 443.992C1.01215 445.215 1.28168 446.373 1.68599 447.531C1.75337 447.789 1.82075 447.982 1.95552 448.239C2.56198 449.912 3.30322 451.521 4.2466 453.065C4.38137 453.258 4.51613 453.451 4.65089 453.709C4.98782 454.288 5.39213 454.867 5.72905 455.382C5.86382 455.575 5.99859 455.703 6.13336 455.896C6.87459 456.862 7.61581 457.827 8.49181 458.663C8.62658 458.792 8.76135 458.985 8.89612 459.114C9.03089 459.242 9.09827 459.371 9.23304 459.436C9.43519 459.629 9.56996 459.757 9.77211 459.95C9.97426 460.143 10.109 460.272 10.3112 460.465C10.446 460.594 10.6481 460.787 10.7829 460.916C11.2546 461.366 11.7937 461.752 12.3327 462.138C12.5349 462.267 12.6696 462.396 12.8718 462.524C13.8826 463.232 14.8933 463.94 15.9715 464.519C16.1736 464.648 16.3758 464.776 16.5779 464.905C17.0496 465.162 17.5213 465.42 17.993 465.677C18.1952 465.742 18.3973 465.87 18.5321 465.935C21.2274 467.222 24.1924 468.122 27.2247 468.573C27.6963 468.637 28.2354 468.701 28.7745 468.766C29.3136 468.83 29.7853 468.895 30.3243 468.895C30.5939 468.895 30.8634 468.959 31.133 468.959C31.6046 468.959 32.1437 469.023 32.6828 469.023H211.588C212.127 469.023 212.599 469.023 213.071 468.959C213.34 468.959 213.61 468.959 213.879 468.895C214.284 468.895 214.755 468.83 215.16 468.766C215.227 468.766 215.362 468.766 215.429 468.766C215.968 468.701 216.44 468.637 216.979 468.573C217.249 468.508 217.518 468.508 217.788 468.444C218.057 468.38 218.327 468.315 218.529 468.315C219.27 468.187 220.011 467.994 220.685 467.801C220.887 467.736 221.089 467.672 221.224 467.608C221.763 467.479 222.302 467.286 222.841 467.093C223.044 467.028 223.313 466.9 223.583 466.835C223.852 466.771 224.054 466.642 224.257 466.578C224.459 466.514 224.661 466.449 224.863 466.321C225.604 465.999 226.278 465.677 227.019 465.291C227.221 465.162 227.424 465.098 227.693 464.969C228.097 464.712 228.569 464.519 228.973 464.197C229.176 464.069 229.378 463.94 229.58 463.811C230.186 463.425 230.793 462.975 231.399 462.589C231.601 462.46 231.736 462.331 231.938 462.202C232.343 461.881 232.747 461.559 233.151 461.237C233.353 461.109 233.488 460.916 233.69 460.787C234.229 460.272 234.768 459.757 235.308 459.242C235.644 458.921 235.981 458.535 236.318 458.213C236.453 458.02 236.655 457.827 236.79 457.634C236.925 457.441 237.127 457.248 237.262 457.055C237.396 456.862 237.599 456.669 237.733 456.476C237.868 456.283 238.003 456.089 238.205 455.896C238.34 455.703 238.475 455.575 238.609 455.382C239.014 454.803 239.351 454.288 239.688 453.709C239.822 453.516 239.957 453.323 240.092 453.065C240.227 452.872 240.294 452.679 240.429 452.486C240.564 452.164 240.766 451.907 240.9 451.585C241.035 451.392 241.103 451.135 241.237 450.942C241.44 450.427 241.709 449.977 241.911 449.462C241.979 449.269 242.046 449.14 242.113 448.947C242.181 448.754 242.316 448.497 242.383 448.239C242.45 448.046 242.518 447.789 242.652 447.531C243.461 444.571 244 441.354 244 438.008Z" fill="url(#paint2_linear_204_22793)"/>
<path d="M244 31.2082V34.1681C244 18.0814 231.062 4.76165 214.621 3.28168C214.351 3.28168 214.081 3.21734 213.812 3.21734C213.542 3.21734 213.273 3.15299 213.003 3.15299C212.532 3.15299 211.993 3.08864 211.521 3.08864H32.6154C32.0763 3.08864 31.6046 3.08864 31.133 3.15299C13.8826 3.92515 0.136154 17.5023 0.136154 34.1681V31.2082C0.136154 30.8864 0.136154 30.6291 0.136154 30.3073C0.136154 30.0499 0.136154 29.8569 0.136154 29.5995C0.136154 29.0847 0.203526 28.6343 0.270911 28.1195C0.270911 27.8621 0.338299 27.6048 0.338299 27.3474C0.338299 27.2187 0.405687 27.09 0.405687 26.9613C0.405687 26.8326 0.473076 26.6396 0.473076 26.4465C0.54046 26.1891 0.540448 25.9317 0.607832 25.6744C0.675217 25.2239 0.810002 24.7735 0.877386 24.3874C0.944771 24.1944 1.01214 23.937 1.01214 23.7439C1.14691 23.1005 1.34908 22.457 1.55123 21.8135C1.61861 21.6205 1.68599 21.4275 1.75337 21.2344C1.82076 20.977 1.95552 20.7197 2.02291 20.5266C2.09029 20.3336 2.15769 20.1405 2.22507 19.9475C2.29246 19.7545 2.35983 19.6258 2.42722 19.4327C2.4946 19.2397 2.56198 19.0466 2.69675 18.8536C2.76414 18.7249 2.83153 18.5319 2.89892 18.4032C2.9663 18.2101 3.10107 17.9527 3.23584 17.7597C3.43799 17.3736 3.64014 17.0519 3.84229 16.6658C3.90968 16.4728 4.04445 16.2797 4.17922 16.0867C4.31398 15.8937 4.44876 15.6363 4.58353 15.4432C5.45952 13.9632 6.53767 12.612 7.61582 11.2607C7.75059 11.0676 7.95273 10.8746 8.0875 10.6816C8.28965 10.4885 8.49182 10.2955 8.62659 10.1024C8.96351 9.78071 9.30043 9.45897 9.63735 9.13724C9.97427 8.8155 10.3786 8.42942 10.7155 8.10769C11.1198 7.78595 11.4567 7.46422 11.861 7.14248C12.0632 7.01379 12.2653 6.82075 12.4675 6.69206C12.8718 6.37033 13.2761 6.11294 13.6804 5.79121C14.0847 5.53382 14.489 5.21209 14.9607 4.9547C15.365 4.69731 15.8367 4.43993 16.241 4.18254C16.4432 4.05385 16.7127 3.92515 16.9149 3.79645C17.117 3.66776 17.3865 3.53907 17.5887 3.47472C17.7909 3.34603 18.0604 3.28168 18.2625 3.15299C18.4647 3.02429 18.7342 2.95995 18.9364 2.83125C19.4081 2.63821 19.8798 2.44518 20.3515 2.25214C20.5536 2.18779 20.8232 2.05909 21.0253 1.99474H21.0927C21.2948 1.9304 21.5644 1.86605 21.7665 1.73736C21.9687 1.67301 22.2382 1.60867 22.4404 1.54432C22.7099 1.47997 22.9794 1.41563 23.249 1.28694C23.5185 1.22259 23.7207 1.15824 23.9902 1.09389C24.2598 1.02955 24.4619 0.965198 24.7314 0.900851C25.001 0.836504 25.2705 0.772155 25.4727 0.707808C26.0118 0.579115 26.4834 0.514768 27.0225 0.386075C27.292 0.321728 27.5616 0.32173 27.8311 0.257383C28.3702 0.193036 28.9767 0.128688 29.5157 0.0643409C29.9874 -5.89208e-06 30.3917 0 30.8634 0C31.133 0 31.4025 0 31.672 0C31.9416 0 32.2111 0 32.4806 0H211.386C211.656 0 211.925 0 212.195 0C212.397 0 212.666 0 212.869 0C213.408 0 213.947 0.0643448 214.418 0.128692C214.688 0.128692 214.957 0.193032 215.227 0.193032C215.497 0.193032 215.766 0.257387 216.036 0.321734C216.305 0.386081 216.575 0.386079 216.844 0.450425C217.114 0.514772 217.383 0.51477 217.585 0.579117C217.855 0.643464 218.125 0.707808 218.327 0.707808C218.529 0.772155 218.798 0.8365 219.001 0.8365C219.068 0.8365 219.135 0.836504 219.135 0.900851C219.337 0.965198 219.54 1.02955 219.809 1.09389C220.146 1.15824 220.416 1.22258 220.685 1.35128C220.887 1.41562 221.089 1.47997 221.292 1.54432C221.763 1.67301 222.168 1.86605 222.639 1.99474C222.976 2.12344 223.246 2.18778 223.515 2.31648C223.717 2.38082 223.92 2.50952 224.189 2.57387C224.391 2.63822 224.661 2.76691 224.863 2.8956C225.065 3.0243 225.335 3.08864 225.537 3.21734C227.154 3.9895 228.704 4.89035 230.186 5.9199C230.388 6.04859 230.523 6.17728 230.725 6.30597C231.399 6.7564 232.006 7.27118 232.612 7.72161C232.882 7.91465 233.151 8.17203 233.421 8.42942C234.499 9.33027 235.442 10.3598 236.318 11.3894C236.453 11.5824 236.655 11.7755 236.79 11.9685C237.127 12.3546 237.396 12.7407 237.733 13.1911C237.868 13.3841 238.07 13.5772 238.205 13.8346C238.475 14.1563 238.677 14.5424 238.946 14.9284C239.081 15.1215 239.148 15.3145 239.283 15.5076C239.485 15.8293 239.688 16.2154 239.89 16.5371C239.957 16.7302 240.092 16.8589 240.159 17.0519C240.496 17.631 240.766 18.2745 241.103 18.8536C241.17 18.9823 241.237 19.1753 241.305 19.3684C241.574 20.0118 241.844 20.591 242.046 21.2344C242.113 21.4918 242.181 21.6849 242.316 21.9422C242.787 23.2935 243.124 24.7092 243.326 26.1248C243.326 26.2535 243.394 26.4465 243.394 26.5752C243.461 26.8326 243.461 27.09 243.528 27.3474C243.528 27.6048 243.596 27.8621 243.596 28.1195C243.596 28.3769 243.663 28.6343 243.663 28.8917C243.663 29.3421 243.731 29.8569 243.731 30.3073C244 30.6291 244 30.9508 244 31.2082Z" fill="url(#paint3_linear_204_22793)"/>
<path d="M213.002 3.15273C212.53 3.15273 211.991 3.08838 211.519 3.08838H32.6138C32.0747 3.08838 31.603 3.08838 31.1313 3.15273C15.6329 3.92489 3.23422 16.2151 3.23422 31.2079V440.968C3.23422 455.704 15.1612 467.801 30.3227 468.959C30.5923 468.959 30.8618 469.023 31.1313 469.023C31.603 469.023 32.1421 469.088 32.6812 469.088H211.587C212.126 469.088 212.597 469.088 213.069 469.023C213.339 469.023 213.608 469.023 213.878 468.959C229.039 467.801 240.966 455.704 240.966 440.968V31.2079C240.899 16.2151 228.5 3.92489 213.002 3.15273ZM238.406 440.968C238.406 454.288 227.489 465.549 213.608 466.578C213.339 466.578 213.136 466.642 212.867 466.642C212.395 466.642 211.924 466.707 211.452 466.707H32.6138C32.1421 466.707 31.6704 466.707 31.1987 466.642C30.9292 466.642 30.727 466.643 30.4575 466.578C16.5763 465.549 5.66004 454.288 5.66004 440.968V31.2079C5.66004 17.5664 16.8459 6.30572 31.1313 5.53356H31.1987C31.6704 5.53356 32.1421 5.53356 32.6138 5.53356H211.519C211.991 5.53356 212.463 5.53356 212.934 5.53356H213.002C227.287 6.24137 238.473 17.5021 238.473 31.2079V440.968H238.406Z" fill="black"/>
<path d="M238.406 31.4013V441.162C238.406 443.671 238.002 446.181 237.261 448.497C236.654 450.363 235.846 452.165 234.902 453.773C234.7 454.095 234.498 454.481 234.296 454.803C233.959 455.318 233.622 455.768 233.285 456.283C232.274 457.634 231.061 458.857 229.849 460.015C232.207 456.09 233.555 451.521 233.555 446.695V441.998C233.555 441.741 233.555 441.419 233.555 441.162V31.337C233.555 31.0153 233.555 30.7579 233.555 30.5005V25.8675C233.555 20.9772 232.207 16.4086 229.849 12.4834C235.104 17.1807 238.406 23.9371 238.406 31.4013Z" fill="url(#paint4_linear_204_22793)"/>
<path d="M212.8 7.91455H212.665C212.261 7.91455 211.857 7.91455 211.452 7.91455H32.6144C32.2101 7.91455 31.8058 7.91455 31.4015 7.91455H31.2667H31.1993C18.2615 8.62237 8.15387 18.8535 8.15387 31.2081V440.968C8.15387 453.065 18.0594 463.297 30.6602 464.262C30.8624 464.262 31.0645 464.262 31.2667 464.326H31.3341C31.7384 464.326 32.2101 464.39 32.6144 464.39H211.52C211.924 464.39 212.328 464.391 212.8 464.326H212.868C213.07 464.326 213.272 464.326 213.474 464.262C226.075 463.297 235.98 453.065 235.98 440.968V31.2081C235.913 18.7892 225.738 8.55802 212.8 7.91455ZM229.377 440.968C229.377 449.848 222.167 457.312 212.868 458.02C212.8 458.02 212.665 458.02 212.598 458.02H212.531H212.463H212.396H212.328H212.261C211.992 458.02 211.655 458.02 211.385 458.02H32.6144C32.2775 458.02 32.0079 458.02 31.671 458.02H31.6036H31.5362H31.4689H31.4015H31.3341C31.2667 458.02 31.1993 458.02 31.0646 458.02C21.8329 457.312 14.5554 449.848 14.5554 440.968V31.2081C14.5554 22.1995 21.9003 14.7353 31.2667 14.1562H31.4015H31.671C31.9405 14.1562 32.2101 14.1562 32.4796 14.1562H211.385C211.655 14.1562 211.924 14.1562 212.194 14.1562H212.261H212.328C221.83 14.6066 229.309 22.1352 229.309 31.2724V440.968H229.377Z" fill="black"/>
<path d="M182.882 14.0918V16.3439C182.882 23.8725 176.481 29.9854 168.597 29.9854H75.4718C67.5878 29.9854 61.1863 23.8725 61.1863 16.3439V14.0918H182.882Z" fill="black"/>
<path d="M182.882 14.0918V16.3439C182.882 23.8725 176.481 29.9854 168.597 29.9854H75.4715C67.5875 29.9854 61.186 23.8725 61.186 16.3439V14.0918H182.882Z" fill="black"/>
<path d="M233.42 441.934V446.631C233.42 451.457 232.072 456.026 229.714 459.951C225.401 463.747 219.808 466.257 213.609 466.707C213.339 466.707 213.137 466.771 212.868 466.771C212.396 466.771 211.924 466.836 211.452 466.836H32.6144C32.1427 466.836 31.671 466.836 31.1993 466.771C30.9298 466.771 30.7276 466.771 30.4581 466.707C30.1212 466.707 29.7842 466.643 29.4473 466.578C23.6523 465.935 18.4637 463.49 14.3532 459.886C11.9948 455.961 10.6471 451.393 10.6471 446.567V441.033C10.6471 447.339 13.612 453.066 18.3963 456.926C21.8329 459.693 26.1455 461.559 30.8624 461.881C30.9972 461.881 31.1993 461.881 31.3341 461.881H31.4015H31.4689C31.8732 461.881 32.2101 461.881 32.6144 461.881H211.52C211.924 461.881 212.261 461.881 212.665 461.881H212.733H212.8C213.002 461.881 213.137 461.881 213.339 461.881C224.255 461.173 233.015 452.486 233.42 441.934Z" fill="url(#paint5_linear_204_22793)"/>
<path d="M238.407 31.4008C238.407 17.695 227.221 6.43427 212.935 5.66211H212.868C212.396 5.66211 211.924 5.66211 211.453 5.66211H32.6147C32.143 5.66211 31.6713 5.66211 31.1996 5.66211H31.1322C30.5258 5.66211 29.9867 5.72646 29.3802 5.79081C23.5852 6.43428 18.3966 8.8151 14.2862 12.4185C11.9277 16.3437 10.58 20.9123 10.58 25.8026V31.3365C10.58 24.9661 13.5449 19.2393 18.2618 15.3785C21.7658 12.5472 26.2806 10.6812 31.1996 10.4238H31.3344H31.4692C31.8735 10.4238 32.2104 10.4238 32.4799 10.4238H211.385C211.655 10.4238 211.992 10.4238 212.329 10.4238H212.531C223.851 11.0029 232.814 19.7541 233.285 30.5V25.867C233.285 20.9766 231.938 16.408 229.579 12.4829C235.105 17.1802 238.407 23.9366 238.407 31.4008Z" fill="url(#paint6_linear_204_22793)"/>
<path d="M14.3538 459.886C9.03046 455.188 5.66122 448.432 5.66122 441.032V31.2075C5.66122 23.7433 8.96307 16.9869 14.3538 12.2896C11.9954 16.2147 10.6477 20.7833 10.6477 25.6737V446.501C10.6477 451.327 11.9954 455.896 14.3538 459.886Z" fill="url(#paint7_linear_204_22793)"/>
<path d="M238.407 31.4008V441.161C238.407 443.67 238.003 446.18 237.262 448.496C236.655 450.362 235.847 452.164 234.903 453.773C234.701 454.095 234.499 454.481 234.297 454.802C233.96 455.317 233.623 455.768 233.286 456.282C232.275 457.634 231.062 458.921 229.782 460.014C229.782 460.014 229.782 460.015 229.782 459.95C232.14 456.025 233.488 451.456 233.488 446.63V25.8026C233.488 20.9122 232.14 16.3436 229.782 12.4185C235.105 17.1801 238.407 23.9365 238.407 31.4008Z" fill="url(#paint8_linear_204_22793)"/>
<path d="M134.365 18.7892H108.22C107.546 18.7892 107.007 18.2744 107.007 17.6309V17.0518C107.007 16.4083 107.546 15.8936 108.22 15.8936H134.365C135.039 15.8936 135.578 16.4083 135.578 17.0518V17.6309C135.578 18.3387 135.039 18.7892 134.365 18.7892Z" fill="url(#paint9_linear_204_22793)"/>
<defs>
<linearGradient id="paint0_linear_204_22793" x1="0.0751336" y1="236.052" x2="3.67689" y2="236.052" gradientUnits="userSpaceOnUse">
<stop stop-color="#666666"/>
<stop offset="1"/>
</linearGradient>
<linearGradient id="paint1_linear_204_22793" x1="240.961" y1="236.076" x2="244.532" y2="236.076" gradientUnits="userSpaceOnUse">
<stop/>
<stop offset="1" stop-color="#666666"/>
</linearGradient>
<linearGradient id="paint2_linear_204_22793" x1="122.034" y1="472.03" x2="122.034" y2="444.798" gradientUnits="userSpaceOnUse">
<stop stop-color="#959595"/>
<stop offset="1"/>
</linearGradient>
<linearGradient id="paint3_linear_204_22793" x1="122.034" y1="26.1866" x2="122.034" y2="-7.81504" gradientUnits="userSpaceOnUse">
<stop/>
<stop offset="1" stop-color="#808080"/>
</linearGradient>
<linearGradient id="paint4_linear_204_22793" x1="229.729" y1="236.23" x2="238.399" y2="236.23" gradientUnits="userSpaceOnUse">
<stop stop-color="#F1F1F1"/>
<stop offset="0.00125858" stop-color="#F0F0F0"/>
<stop offset="0.1385" stop-color="#B7B7B7"/>
<stop offset="0.2715" stop-color="#888888"/>
<stop offset="0.397" stop-color="#636363"/>
<stop offset="0.5134" stop-color="#494949"/>
<stop offset="0.6172" stop-color="#393939"/>
<stop offset="0.6978" stop-color="#333333"/>
</linearGradient>
<linearGradient id="paint5_linear_204_22793" x1="10.639" y1="453.969" x2="233.434" y2="453.969" gradientUnits="userSpaceOnUse">
<stop stop-color="#1A1A1A"/>
<stop offset="0.1173" stop-color="#454545"/>
<stop offset="0.2314" stop-color="#666666"/>
<stop offset="0.3395" stop-color="#7E7E7E"/>
<stop offset="0.4393" stop-color="#8D8D8D"/>
<stop offset="0.5229" stop-color="#929292"/>
<stop offset="0.5926" stop-color="#8B8B8B"/>
<stop offset="0.6974" stop-color="#767676"/>
<stop offset="0.8246" stop-color="#545454"/>
<stop offset="0.968" stop-color="#252525"/>
<stop offset="1" stop-color="#1A1A1A"/>
</linearGradient>
<linearGradient id="paint6_linear_204_22793" x1="10.6393" y1="18.517" x2="238.418" y2="18.517" gradientUnits="userSpaceOnUse">
<stop stop-color="#1A1A1A"/>
<stop offset="0.1173" stop-color="#454545"/>
<stop offset="0.2314" stop-color="#666666"/>
<stop offset="0.3395" stop-color="#7E7E7E"/>
<stop offset="0.4393" stop-color="#8D8D8D"/>
<stop offset="0.5229" stop-color="#929292"/>
<stop offset="0.5926" stop-color="#8B8B8B"/>
<stop offset="0.6974" stop-color="#767676"/>
<stop offset="0.8246" stop-color="#545454"/>
<stop offset="0.968" stop-color="#252525"/>
<stop offset="1" stop-color="#1A1A1A"/>
</linearGradient>
<linearGradient id="paint7_linear_204_22793" x1="5.66197" y1="236.087" x2="10.806" y2="236.087" gradientUnits="userSpaceOnUse">
<stop stop-color="#C8C8C8"/>
<stop offset="0.2107" stop-color="#A0A0A0"/>
<stop offset="0.5867" stop-color="#5D5D5D"/>
<stop offset="0.8599" stop-color="#343434"/>
<stop offset="1" stop-color="#242424"/>
</linearGradient>
<linearGradient id="paint8_linear_204_22793" x1="229.705" y1="236.253" x2="238.4" y2="236.253" gradientUnits="userSpaceOnUse">
<stop stop-color="#242424"/>
<stop offset="0.1401" stop-color="#343434"/>
<stop offset="0.4133" stop-color="#5D5D5D"/>
<stop offset="0.7893" stop-color="#A0A0A0"/>
<stop offset="1" stop-color="#C8C8C8"/>
</linearGradient>
<linearGradient id="paint9_linear_204_22793" x1="107.008" y1="17.3866" x2="135.558" y2="17.3866" gradientUnits="userSpaceOnUse">
<stop stop-color="#333333"/>
<stop offset="0.0901238" stop-color="#2B2B2B"/>
<stop offset="0.2885" stop-color="#1E1E1E"/>
<stop offset="0.4787" stop-color="#1A1A1A"/>
<stop offset="0.7885" stop-color="#1C1C1C"/>
<stop offset="0.8999" stop-color="#232323"/>
<stop offset="0.9792" stop-color="#2E2E2E"/>
<stop offset="1" stop-color="#333333"/>
</linearGradient>
<clipPath id="clip0_204_22793">
<rect x="14" y="11" width="216" height="459" rx="15" fill="white"/>
</clipPath>
</defs>
</svg>
