<svg width="244" height="472" viewBox="0 0 244 472" fill="none" xmlns="http://www.w3.org/2000/svg">
<style>
    <![CDATA[

    @keyframes draw {
        to {
            stroke-dashoffset: 0;
        }
    }

    @keyframes fadeIn {
        to {
            opacity: 1;
        }
    }

    @keyframes fadeOut {
        to {
            opacity: 0;
        }
    }

    #line0 {
        stroke-dasharray: 100;
        stroke-dashoffset: 100;
        animation: draw 2s linear forwards;
    }

    #line1 {
        stroke-dasharray: 50;
        stroke-dashoffset: 50;
        animation: draw 1.5s 1s linear forwards;
    }

    #line2 {
        stroke-dasharray: 50;
        stroke-dashoffset: 50;
        animation: draw 1.5s 2.5s linear forwards;
    }

    #answer {
        opacity: 0;
        animation: fadeIn 0s 4s forwards;
    }

    #arrow {
        animation: fadeOut 0s 4.5s forwards;
    }

    #checkmark {
        opacity: 0;
        animation: fadeIn 0s 4.5s forwards;
    }

    .corrections {
        opacity: 0;
        animation: fadeIn 0s 4s forwards;
    }

    .preferences {
        animation: fadeOut 0s 4s forwards;
    }

    ]]>
</style>
<g clip-path="url(#clip0_215_7)">
<rect x="29" y="42" width="186" height="31" fill="#FEFEFE" fill-opacity="0.82"/>
<path d="M189.73 54.751C189.512 54.1397 188.12 52.7762 187.729 52.8009C187.338 52.8269 189.125 54.454 189.13 55.46" fill="#62CC40"/>
<path d="M189.129 55.6021C189.051 55.6021 188.989 55.539 188.988 55.4623C188.986 54.9302 188.387 54.1383 187.992 53.6149C187.608 53.1076 187.48 52.9245 187.549 52.771C187.579 52.7067 187.641 52.6671 187.719 52.6622C188.21 52.6312 189.634 54.0678 189.862 54.705C189.888 54.778 189.849 54.8584 189.776 54.8844C189.703 54.9104 189.623 54.8721 189.597 54.7991C189.4 54.2472 188.334 53.2301 187.888 52.9925C187.97 53.1175 188.102 53.2932 188.217 53.4454C188.66 54.0319 189.268 54.8349 189.27 55.461C189.27 55.5377 189.207 55.6009 189.129 55.6021Z" fill="#650000"/>
<path d="M187.967 52.9993C187.967 52.9993 187.46 52.4115 187.42 51.5157C187.354 49.9715 188.717 48.6611 189.828 48.1415C189.828 48.1415 189.114 48.9371 189.048 50.0495C189.009 50.6916 189.646 52.3719 187.967 52.9993Z" fill="#4FAD2B"/>
<path d="M188.613 52.2731C188.985 51.7819 188.908 51.1137 188.846 50.5767C188.823 50.3676 188.802 50.1869 188.81 50.036C188.838 49.5905 188.96 49.1934 189.104 48.8704C188.876 49.2626 188.662 49.6413 188.639 50.0112C188.603 50.5866 188.77 51.7918 188.192 51.5802C188.017 52.0021 187.807 51.8908 187.72 51.5604C187.745 52.1271 187.911 52.5033 188.047 52.7099C188.291 52.5973 188.476 52.4538 188.613 52.2731Z" fill="#42841F"/>
<path d="M187.967 53.1396C187.928 53.1396 187.888 53.1223 187.861 53.0913C187.839 53.0654 187.321 52.4554 187.281 51.5212C187.208 49.8359 188.73 48.4996 189.77 48.0133C189.831 47.9848 189.903 48.0034 189.942 48.0566C189.982 48.1098 189.978 48.184 189.933 48.2348C189.927 48.2422 189.25 49.0093 189.187 50.0574C189.18 50.1749 189.2 50.3407 189.221 50.5325C189.31 51.3021 189.457 52.5915 188.014 53.1309C188.001 53.1371 187.985 53.1396 187.967 53.1396ZM189.366 48.5651C188.477 49.1516 187.506 50.2232 187.561 51.5088C187.59 52.1621 187.886 52.6471 188.014 52.829C189.148 52.3489 189.03 51.3207 188.942 50.5647C188.919 50.3593 188.899 50.1836 188.906 50.0413C188.945 49.4325 189.163 48.919 189.366 48.5651Z" fill="#650000"/>
<path d="M187.89 53.2377C187.89 53.2377 187.214 52.4396 185.905 51.9125C185.061 51.5722 184.086 51.6341 183.142 50.9189C183.142 50.9189 183.419 52.6759 185.615 53.5235C187.067 54.0853 187.89 53.2377 187.89 53.2377Z" fill="#62CC40"/>
<path d="M187.533 53.2145C187.263 52.9596 186.683 52.482 185.814 52.133C185.533 52.0204 186.619 52.9126 185.587 52.7752C186.522 53.5461 184.422 52.8123 185.698 53.3048C186.616 53.6574 187.242 53.4001 187.533 53.2145Z" fill="#43A31F"/>
<path d="M186.583 53.8586C186.286 53.8586 185.945 53.8029 185.563 53.6557C183.317 52.7895 183.014 51.0164 183.002 50.9422C182.993 50.8852 183.019 50.8296 183.068 50.7999C183.118 50.7702 183.18 50.7739 183.226 50.8085C183.81 51.2515 184.412 51.3851 184.994 51.5138C185.329 51.5881 185.646 51.6586 185.956 51.7836C187.283 52.3169 187.967 53.1149 187.996 53.1483C188.043 53.204 188.04 53.2857 187.989 53.3377C187.962 53.3636 187.468 53.8586 186.583 53.8586ZM183.382 51.2503C183.581 51.7873 184.145 52.8068 185.666 53.3933C186.731 53.8041 187.434 53.4131 187.685 53.2263C187.459 52.9986 186.836 52.4393 185.852 52.0434C185.564 51.9271 185.259 51.859 184.934 51.7873C184.427 51.6759 183.905 51.5596 183.382 51.2503Z" fill="#650000"/>
<path d="M188.862 49.1991C188.42 49.7027 188.227 50.3857 188.211 51.044C188.208 51.3744 188.281 51.6998 188.3 52.0438C188.325 52.3915 188.236 52.7553 188.046 53.0497L187.889 52.947C187.98 52.8146 188.053 52.6736 188.097 52.5214C188.242 52.0388 188.087 51.5439 188.118 51.0403C188.166 50.3758 188.393 49.6866 188.862 49.1991Z" fill="#650000"/>
<path d="M183.786 51.6905C184.888 52.4725 186.493 53.3449 187.879 53.1457L187.905 53.3313C186.466 53.4797 184.886 52.5418 183.786 51.6905Z" fill="#650000"/>
<path d="M191.232 66.1999C192.87 66.2717 194.236 65.4822 194.282 64.4379C194.282 64.4379 194.2 63.6893 194.219 63.0682C194.242 62.2911 194.411 61.4807 194.434 60.961C194.48 59.9154 193.188 59.0097 191.55 58.9379C189.912 58.8661 188.546 59.6556 188.5 60.6999C188.477 61.2208 188.574 62.0412 188.529 62.8182C188.495 63.4381 188.348 64.1768 188.348 64.1768C188.302 65.2224 189.594 66.1281 191.232 66.1999Z" fill="#62CC40"/>
<path d="M193.826 62.1224C193.859 61.8638 193.034 62.6359 191.611 62.4651C190.936 62.3847 191.701 63.1605 191.661 64.0007C191.621 64.7975 190.869 65.6686 191.421 65.7651C191.972 65.8604 193.814 65.3518 193.794 64.4647C193.776 63.622 193.706 63.0628 193.826 62.1224Z" fill="#43A31F"/>
<path d="M191.433 66.3921C191.363 66.3921 191.292 66.3908 191.222 66.3871C189.482 66.3104 188.108 65.3156 188.158 64.1686L188.162 64.1401C188.163 64.1327 188.306 63.4076 188.341 62.8075C188.366 62.3769 188.346 61.9253 188.327 61.5256C188.314 61.2163 188.3 60.9255 188.311 60.6916C188.362 59.5446 189.818 58.6748 191.557 58.7502C193.297 58.8269 194.67 59.8218 194.621 60.9688C194.611 61.2026 194.572 61.4922 194.531 61.7978C194.478 62.1938 194.419 62.6417 194.407 63.0735C194.388 63.6736 194.467 64.4086 194.468 64.416L194.47 64.4309V64.4457C194.419 65.5457 193.078 66.3921 191.433 66.3921ZM191.238 66.0134C192.763 66.0815 194.039 65.3774 194.091 64.4433C194.079 64.3307 194.011 63.6489 194.029 63.0624C194.043 62.612 194.105 62.1542 194.158 61.7496C194.197 61.4514 194.235 61.1705 194.244 60.9527C194.285 60.0123 193.073 59.1932 191.54 59.1251C190.007 59.0583 188.726 59.7686 188.685 60.7089C188.675 60.9255 188.687 61.2101 188.701 61.5095C188.72 61.9178 188.739 62.3794 188.715 62.8285C188.681 63.4138 188.554 64.0869 188.532 64.1983C188.503 65.1337 189.713 65.9454 191.238 66.0134Z" fill="#650000"/>
<g opacity="0.5">
<path d="M188.819 64.738C189.137 65.1859 189.683 65.4408 189.931 65.2242C190.229 64.9632 189.858 64.8036 189.931 63.4821C189.952 63.1059 190.293 62.4439 190.039 62.1457C189.828 61.8995 189.489 62.0406 188.961 61.6397C188.616 61.3773 188.958 62.465 188.986 63.169C189.021 64.1069 188.524 64.3247 188.819 64.738Z" fill="white"/>
</g>
<path d="M191.414 61.9534C193.052 62.0251 194.418 61.2357 194.464 60.1914C194.464 60.1914 194.382 59.4428 194.401 58.8217C194.424 58.0446 194.593 57.2341 194.616 56.7145C194.662 55.6689 193.37 54.7632 191.732 54.6914C190.094 54.6196 188.728 55.4091 188.682 56.4534C188.66 56.9743 188.756 57.7947 188.712 58.5717C188.677 59.1916 188.53 59.9303 188.53 59.9303C188.484 60.9759 189.776 61.8816 191.414 61.9534Z" fill="#62CC40"/>
<path d="M194.01 57.8772C194.043 57.6186 193.218 58.3907 191.795 58.22C191.119 58.1395 191.885 58.9153 191.845 59.7555C191.805 60.5524 191.053 61.4234 191.605 61.52C192.156 61.6165 193.998 61.1067 193.978 60.2195C193.959 59.3756 193.89 58.8164 194.01 57.8772Z" fill="#43A31F"/>
<path d="M191.616 62.1459C191.545 62.1459 191.475 62.1447 191.404 62.141C189.664 62.0643 188.291 61.0694 188.34 59.9224L188.344 59.894C188.345 59.8865 188.489 59.1615 188.524 58.5613C188.548 58.1307 188.528 57.6791 188.51 57.2795C188.496 56.9701 188.483 56.6793 188.494 56.4455C188.519 55.8738 188.881 55.3566 189.515 54.9916C190.121 54.6414 190.912 54.4682 191.739 54.5041C193.479 54.5808 194.853 55.5756 194.802 56.7226C194.792 56.9565 194.754 57.246 194.713 57.5517C194.661 57.9476 194.6 58.3955 194.588 58.8274C194.569 59.4287 194.648 60.1625 194.65 60.1699L194.651 60.1847V60.1996C194.601 61.2996 193.26 62.1459 191.616 62.1459ZM188.715 59.9521C188.687 60.8863 189.896 61.6993 191.42 61.7661C192.946 61.8329 194.222 61.1301 194.273 60.1959C194.261 60.0833 194.193 59.4015 194.212 58.815C194.225 58.3646 194.287 57.9068 194.34 57.5022C194.38 57.204 194.417 56.9231 194.427 56.7053C194.468 55.7649 193.255 54.9458 191.722 54.8778C190.965 54.8444 190.247 55.0003 189.701 55.3146C189.183 55.614 188.886 56.0211 188.868 56.4603C188.858 56.6781 188.87 56.9615 188.884 57.2621C188.902 57.6692 188.922 58.132 188.897 58.5811C188.864 59.1676 188.736 59.842 188.715 59.9521Z" fill="#650000"/>
<g opacity="0.5">
<path d="M189.001 60.4911C189.319 60.939 189.866 61.1939 190.113 60.9774C190.412 60.7163 190.04 60.5567 190.113 59.2352C190.134 58.859 190.476 58.197 190.221 57.8988C190.011 57.6526 189.672 57.7937 189.143 57.3928C188.798 57.1305 189.141 58.2181 189.168 58.9221C189.203 59.8588 188.707 60.0778 189.001 60.4911Z" fill="white"/>
</g>
<path d="M191.598 57.7689C193.236 57.8406 194.602 57.0512 194.648 56.0069C194.648 56.0069 194.566 55.2583 194.585 54.6371C194.608 53.8601 194.777 53.0496 194.8 52.5299C194.846 51.4844 193.554 50.5786 191.916 50.5069C190.278 50.4351 188.912 51.2245 188.866 52.2689C188.844 52.7898 188.94 53.6101 188.895 54.3872C188.861 55.0071 188.714 55.7458 188.714 55.7458C188.668 56.7914 189.96 57.6971 191.598 57.7689Z" fill="#62CC40"/>
<g opacity="0.5">
<path d="M189.125 56.3078C189.355 56.7433 189.916 56.8905 190.029 56.7742C190.244 56.5527 189.842 56.0454 190.071 55.303C190.182 54.943 190.563 54.5718 190.308 54.2736C190.098 54.0273 189.793 54.1486 189.255 53.5831C188.957 53.2701 189.278 54.2562 189.227 55.0506C189.206 55.381 188.888 55.8586 189.125 56.3078Z" fill="white"/>
</g>
<path d="M194.348 53.806C194.001 55.0087 194.374 55.933 194.246 56.183C193.927 56.8054 192.425 57.3721 191.456 57.1197C190.7 56.9229 191.931 56.2065 191.487 55.0422C191.155 54.1723 192.598 55.3849 194.348 53.806Z" fill="#43A31F"/>
<path d="M188.87 52.269C188.825 53.3142 190.116 54.2198 191.754 54.2916C193.393 54.3635 194.758 53.5745 194.804 52.5293C194.85 51.4841 193.559 50.5786 191.92 50.5067C190.282 50.4348 188.916 51.2238 188.87 52.269Z" fill="#E1FFD4"/>
<path d="M194.403 52.9551C194.479 52.8104 194.52 52.6594 194.527 52.5047C194.546 52.0717 194.292 51.6485 193.81 51.3107C193.306 50.9568 192.62 50.744 191.881 50.7118C190.674 50.6586 189.577 51.1127 189.212 51.8168C189.136 51.9615 189.095 52.1125 189.088 52.2672C189.069 52.7002 189.324 53.1234 189.806 53.4612C190.309 53.8151 190.995 54.0279 191.735 54.0601C192.94 54.112 194.037 53.6579 194.403 52.9551Z" fill="#E1FFD4"/>
<path d="M191.529 54.0456C191.598 54.0518 191.666 54.0555 191.734 54.0592C192.94 54.1124 194.038 53.6583 194.403 52.9555C194.478 52.8107 194.519 52.6598 194.526 52.5051C194.545 52.072 194.29 51.6476 193.809 51.3111C193.566 51.1403 193.28 51.003 192.967 50.9028C193.183 50.9918 193.381 51.0983 193.559 51.2232C194.052 51.5697 194.315 52.0052 194.295 52.4494C194.288 52.6078 194.245 52.7625 194.169 52.911C193.804 53.6101 192.727 54.0704 191.529 54.0456Z" fill="#BEE8AA"/>
<path d="M191.805 57.9601C191.734 57.9601 191.664 57.9589 191.593 57.9552C190.766 57.9193 189.993 57.6768 189.421 57.2746C188.822 56.8539 188.505 56.3083 188.531 55.7366L188.535 55.7081C188.536 55.7007 188.679 54.9756 188.714 54.3755C188.739 53.9449 188.719 53.4933 188.7 53.0936C188.687 52.7843 188.673 52.4935 188.684 52.2597C188.735 51.1126 190.19 50.2416 191.93 50.3183C192.758 50.3542 193.53 50.5967 194.103 50.9988C194.702 51.4195 195.018 51.9652 194.992 52.5368C194.982 52.7707 194.944 53.0602 194.903 53.3671C194.85 53.763 194.791 54.211 194.778 54.6428C194.76 55.2429 194.839 55.9779 194.84 55.9853L194.841 56.0002V56.015C194.791 57.1138 193.449 57.9601 191.805 57.9601ZM191.609 57.5802C193.135 57.6471 194.411 56.9443 194.463 56.0101C194.45 55.8975 194.382 55.2157 194.401 54.6292C194.414 54.1788 194.476 53.721 194.53 53.3164C194.569 53.0182 194.606 52.7373 194.616 52.5195C194.636 52.0803 194.376 51.6484 193.885 51.3044C193.369 50.9431 192.669 50.7254 191.911 50.6919C190.378 50.6239 189.098 51.3354 189.057 52.2758C189.047 52.4935 189.059 52.7769 189.073 53.0776C189.091 53.4846 189.111 53.9474 189.086 54.3966C189.053 54.9818 188.926 55.6549 188.903 55.7663C188.89 56.2006 189.15 56.6275 189.635 56.9678C190.152 57.3303 190.852 57.5481 191.609 57.5802Z" fill="#650000"/>
<path d="M190.217 53.9484C191.172 54.2169 192.161 54.2714 193.142 54.1365C192.236 54.5337 191.064 54.4644 190.217 53.9484Z" fill="#650000"/>
<path d="M194.01 53.7449C194.266 53.4158 194.513 53.0928 194.586 52.6956C194.656 52.322 194.505 51.9594 194.257 51.6761C193.721 51.0784 192.878 50.7778 192.081 50.7072C190.575 50.5476 188.271 51.4533 189.282 53.3032C188.882 53.0582 188.631 52.5657 188.702 52.0856C188.765 51.5956 189.1 51.1811 189.492 50.9114C190.598 50.1727 192.216 50.164 193.432 50.6256C194.079 50.8817 194.721 51.3333 194.938 52.0324C195.17 52.7587 194.742 53.5494 194.01 53.7449Z" fill="#650000"/>
<path d="M191.713 53.5345C192.728 53.5791 193.602 53.2524 193.903 52.7649C193.97 52.656 194.009 52.5397 194.014 52.4172C194.044 51.7453 193.061 51.1576 191.819 51.1031C190.578 51.0487 189.547 51.5486 189.518 52.2205C189.513 52.343 189.541 52.463 189.598 52.5768C189.857 53.0878 190.698 53.49 191.713 53.5345Z" fill="#E1FFD4"/>
<path d="M191.713 53.5343C192.727 53.5789 193.602 53.2522 193.903 52.7647C193.97 52.6558 194.009 52.5395 194.014 52.417C194.044 51.7451 193.061 51.1562 191.819 51.103C191.807 51.103 191.794 51.1017 191.782 51.1017C190.557 51.0584 189.546 51.5558 189.518 52.2203C189.514 52.3106 189.528 52.3997 189.558 52.4851C189.57 52.516 189.582 52.5457 189.597 52.5766C189.857 53.0877 190.698 53.4898 191.713 53.5343Z" fill="#E1FFD4"/>
<path d="M191.71 53.5348C192.725 53.5793 193.6 53.2527 193.9 52.7652C193.967 52.6563 194.007 52.54 194.012 52.4175C194.041 51.7456 193.059 51.1566 191.817 51.1034C191.804 51.1034 191.792 51.1022 191.78 51.1022C193.073 51.4598 192.841 52.4496 192.596 52.7144C191.83 53.5385 190.277 53.0498 189.556 52.4868C189.567 52.5177 189.58 52.5474 189.594 52.5783C189.854 53.0881 190.696 53.4902 191.71 53.5348Z" fill="#BEE8AA"/>
<path d="M191.897 53.6803C191.834 53.6803 191.771 53.679 191.707 53.6766C190.659 53.6308 189.761 53.215 189.473 52.6409C189.404 52.5023 189.372 52.3588 189.378 52.2152C189.394 51.8366 189.67 51.4988 190.152 51.2637C190.608 51.0422 191.202 50.9358 191.825 50.9631C193.164 51.0212 194.187 51.6634 194.154 52.4244C194.148 52.5691 194.103 52.7089 194.022 52.8401C193.705 53.3524 192.866 53.6803 191.897 53.6803ZM191.632 51.2402C191.123 51.2402 190.646 51.3367 190.275 51.5161C189.889 51.703 189.67 51.9554 189.658 52.2264C189.654 52.3217 189.675 52.4182 189.723 52.5134C189.963 52.9911 190.784 53.3536 191.718 53.3944C192.653 53.4365 193.501 53.147 193.782 52.6916C193.837 52.6013 193.868 52.5073 193.872 52.412C193.898 51.8292 192.954 51.2947 191.812 51.2439C191.752 51.2415 191.692 51.2402 191.632 51.2402Z" fill="#650000"/>
<path d="M191.789 51.8063C191.081 51.8249 190.11 52.0092 189.719 52.6502L189.725 52.5128C189.804 52.6626 189.933 52.7962 190.084 52.9038C190.867 53.4297 191.973 53.5101 192.869 53.2676C193.215 53.1662 193.585 52.9929 193.783 52.691C193.882 52.5314 194.121 52.6762 194.022 52.8383C193.896 53.035 193.719 53.1798 193.534 53.2911C192.475 53.9346 190.134 53.8083 189.472 52.6391L189.433 52.5648L189.477 52.5017C189.993 51.8286 191.013 51.7383 191.789 51.8063Z" fill="#650000"/>
<path d="M200.299 55.7168L201.456 57.6406L202.628 55.7168H203.688L201.959 58.3242L203.741 61H202.696L201.476 59.0176L200.255 61H199.205L200.982 58.3242L199.259 55.7168H200.299ZM209.356 58.6074V59.3496H204.22V58.8174L207.403 53.8906H208.141L207.35 55.3164L205.245 58.6074H209.356ZM208.365 53.8906V61H207.462V53.8906H208.365Z" fill="#373737"/>
<path d="M29 73H215V191C215 194.866 211.866 198 208 198H36C32.134 198 29 194.866 29 191V73Z" fill="white"/>
<path d="M35 59L43 59M35 59L38.4286 55M35 59L38.4286 63" stroke="#373737" stroke-linecap="round" stroke-linejoin="round"/>
<path d="M45.3594 97.0469V97.5859C45.3594 98.4505 45.2422 99.2266 45.0078 99.9141C44.7734 100.602 44.4427 101.188 44.0156 101.672C43.5885 102.151 43.0781 102.518 42.4844 102.773C41.8958 103.029 41.2422 103.156 40.5234 103.156C39.8099 103.156 39.1562 103.029 38.5625 102.773C37.974 102.518 37.4635 102.151 37.0312 101.672C36.599 101.188 36.263 100.602 36.0234 99.9141C35.7891 99.2266 35.6719 98.4505 35.6719 97.5859V97.0469C35.6719 96.1771 35.7891 95.401 36.0234 94.7188C36.2578 94.0312 36.5885 93.4453 37.0156 92.9609C37.4479 92.4766 37.9583 92.1068 38.5469 91.8516C39.1406 91.5964 39.7943 91.4688 40.5078 91.4688C41.2266 91.4688 41.8802 91.5964 42.4688 91.8516C43.0625 92.1068 43.5729 92.4766 44 92.9609C44.4323 93.4453 44.7656 94.0312 45 94.7188C45.2396 95.401 45.3594 96.1771 45.3594 97.0469ZM42.9922 97.5859V97.0312C42.9922 96.4271 42.9375 95.8958 42.8281 95.4375C42.7188 94.9792 42.5573 94.5938 42.3438 94.2812C42.1302 93.9688 41.8698 93.7344 41.5625 93.5781C41.2552 93.4167 40.9036 93.3359 40.5078 93.3359C40.112 93.3359 39.7604 93.4167 39.4531 93.5781C39.151 93.7344 38.8932 93.9688 38.6797 94.2812C38.4714 94.5938 38.3125 94.9792 38.2031 95.4375C38.0938 95.8958 38.0391 96.4271 38.0391 97.0312V97.5859C38.0391 98.1849 38.0938 98.7161 38.2031 99.1797C38.3125 99.638 38.474 100.026 38.6875 100.344C38.901 100.656 39.1615 100.893 39.4688 101.055C39.776 101.216 40.1276 101.297 40.5234 101.297C40.9193 101.297 41.2708 101.216 41.5781 101.055C41.8854 100.893 42.1432 100.656 42.3516 100.344C42.5599 100.026 42.7188 99.638 42.8281 99.1797C42.9375 98.7161 42.9922 98.1849 42.9922 97.5859ZM49.1094 96.3516V103H46.8594V94.5469H48.9688L49.1094 96.3516ZM48.7812 98.4766H48.1719C48.1719 97.8516 48.2526 97.2891 48.4141 96.7891C48.5755 96.2839 48.8021 95.8542 49.0938 95.5C49.3854 95.1406 49.7318 94.8672 50.1328 94.6797C50.5391 94.487 50.9922 94.3906 51.4922 94.3906C51.888 94.3906 52.25 94.4479 52.5781 94.5625C52.9062 94.6771 53.1875 94.8594 53.4219 95.1094C53.6615 95.3594 53.8438 95.6901 53.9688 96.1016C54.099 96.513 54.1641 97.0156 54.1641 97.6094V103H51.8984V97.6016C51.8984 97.2266 51.8464 96.9349 51.7422 96.7266C51.638 96.5182 51.4844 96.3724 51.2812 96.2891C51.0833 96.2005 50.8385 96.1562 50.5469 96.1562C50.2448 96.1562 49.9818 96.2161 49.7578 96.3359C49.5391 96.4557 49.3568 96.6224 49.2109 96.8359C49.0703 97.0443 48.9635 97.2891 48.8906 97.5703C48.8177 97.8516 48.7812 98.1536 48.7812 98.4766ZM59.7656 103.156C59.1094 103.156 58.5208 103.052 58 102.844C57.4792 102.63 57.0365 102.336 56.6719 101.961C56.3125 101.586 56.0365 101.151 55.8438 100.656C55.651 100.156 55.5547 99.625 55.5547 99.0625V98.75C55.5547 98.1094 55.6458 97.5234 55.8281 96.9922C56.0104 96.4609 56.2708 96 56.6094 95.6094C56.9531 95.2188 57.3698 94.9193 57.8594 94.7109C58.349 94.4974 58.901 94.3906 59.5156 94.3906C60.1146 94.3906 60.6458 94.4896 61.1094 94.6875C61.5729 94.8854 61.9609 95.1667 62.2734 95.5312C62.5911 95.8958 62.8307 96.3333 62.9922 96.8438C63.1536 97.349 63.2344 97.9115 63.2344 98.5312V99.4688H56.5156V97.9688H61.0234V97.7969C61.0234 97.4844 60.9661 97.2057 60.8516 96.9609C60.7422 96.7109 60.5755 96.513 60.3516 96.3672C60.1276 96.2214 59.8411 96.1484 59.4922 96.1484C59.1953 96.1484 58.9401 96.2135 58.7266 96.3438C58.513 96.474 58.3385 96.6562 58.2031 96.8906C58.0729 97.125 57.974 97.401 57.9062 97.7188C57.8438 98.0312 57.8125 98.375 57.8125 98.75V99.0625C57.8125 99.401 57.8594 99.7135 57.9531 100C58.0521 100.286 58.1901 100.534 58.3672 100.742C58.5495 100.951 58.7682 101.112 59.0234 101.227C59.2839 101.341 59.5781 101.398 59.9062 101.398C60.3125 101.398 60.6901 101.32 61.0391 101.164C61.3932 101.003 61.6979 100.76 61.9531 100.438L63.0469 101.625C62.8698 101.88 62.6276 102.125 62.3203 102.359C62.0182 102.594 61.6536 102.786 61.2266 102.938C60.7995 103.083 60.3125 103.156 59.7656 103.156ZM72.6406 94.5469V96.1406H67.7188V94.5469H72.6406ZM68.9375 92.4609H71.1875V100.453C71.1875 100.698 71.2188 100.885 71.2812 101.016C71.349 101.146 71.4479 101.237 71.5781 101.289C71.7083 101.336 71.8724 101.359 72.0703 101.359C72.2109 101.359 72.3359 101.354 72.4453 101.344C72.5599 101.328 72.6562 101.312 72.7344 101.297L72.7422 102.953C72.5495 103.016 72.3411 103.065 72.1172 103.102C71.8932 103.138 71.6458 103.156 71.375 103.156C70.8802 103.156 70.4479 103.076 70.0781 102.914C69.7135 102.747 69.4323 102.482 69.2344 102.117C69.0365 101.753 68.9375 101.273 68.9375 100.68V92.4609ZM73.3594 98.8594V98.6953C73.3594 98.0755 73.4479 97.5052 73.625 96.9844C73.8021 96.4583 74.0599 96.0026 74.3984 95.6172C74.737 95.2318 75.1536 94.9323 75.6484 94.7188C76.1432 94.5 76.7109 94.3906 77.3516 94.3906C77.9922 94.3906 78.5625 94.5 79.0625 94.7188C79.5625 94.9323 79.9818 95.2318 80.3203 95.6172C80.6641 96.0026 80.9245 96.4583 81.1016 96.9844C81.2786 97.5052 81.3672 98.0755 81.3672 98.6953V98.8594C81.3672 99.474 81.2786 100.044 81.1016 100.57C80.9245 101.091 80.6641 101.547 80.3203 101.938C79.9818 102.323 79.5651 102.622 79.0703 102.836C78.5755 103.049 78.0078 103.156 77.3672 103.156C76.7266 103.156 76.1562 103.049 75.6562 102.836C75.1615 102.622 74.7422 102.323 74.3984 101.938C74.0599 101.547 73.8021 101.091 73.625 100.57C73.4479 100.044 73.3594 99.474 73.3594 98.8594ZM75.6094 98.6953V98.8594C75.6094 99.2135 75.6406 99.5443 75.7031 99.8516C75.7656 100.159 75.8646 100.43 76 100.664C76.1406 100.893 76.3229 101.073 76.5469 101.203C76.7708 101.333 77.0443 101.398 77.3672 101.398C77.6797 101.398 77.9479 101.333 78.1719 101.203C78.3958 101.073 78.5755 100.893 78.7109 100.664C78.8464 100.43 78.9453 100.159 79.0078 99.8516C79.0755 99.5443 79.1094 99.2135 79.1094 98.8594V98.6953C79.1094 98.3516 79.0755 98.0286 79.0078 97.7266C78.9453 97.4193 78.8438 97.1484 78.7031 96.9141C78.5677 96.6745 78.388 96.487 78.1641 96.3516C77.9401 96.2161 77.6693 96.1484 77.3516 96.1484C77.0339 96.1484 76.763 96.2161 76.5391 96.3516C76.3203 96.487 76.1406 96.6745 76 96.9141C75.8646 97.1484 75.7656 97.4193 75.7031 97.7266C75.6406 98.0286 75.6094 98.3516 75.6094 98.6953ZM86.375 98.8594V98.6953C86.375 98.0755 86.4635 97.5052 86.6406 96.9844C86.8177 96.4583 87.0755 96.0026 87.4141 95.6172C87.7526 95.2318 88.1693 94.9323 88.6641 94.7188C89.1589 94.5 89.7266 94.3906 90.3672 94.3906C91.0078 94.3906 91.5781 94.5 92.0781 94.7188C92.5781 94.9323 92.9974 95.2318 93.3359 95.6172C93.6797 96.0026 93.9401 96.4583 94.1172 96.9844C94.2943 97.5052 94.3828 98.0755 94.3828 98.6953V98.8594C94.3828 99.474 94.2943 100.044 94.1172 100.57C93.9401 101.091 93.6797 101.547 93.3359 101.938C92.9974 102.323 92.5807 102.622 92.0859 102.836C91.5911 103.049 91.0234 103.156 90.3828 103.156C89.7422 103.156 89.1719 103.049 88.6719 102.836C88.1771 102.622 87.7578 102.323 87.4141 101.938C87.0755 101.547 86.8177 101.091 86.6406 100.57C86.4635 100.044 86.375 99.474 86.375 98.8594ZM88.625 98.6953V98.8594C88.625 99.2135 88.6562 99.5443 88.7188 99.8516C88.7812 100.159 88.8802 100.43 89.0156 100.664C89.1562 100.893 89.3385 101.073 89.5625 101.203C89.7865 101.333 90.0599 101.398 90.3828 101.398C90.6953 101.398 90.9635 101.333 91.1875 101.203C91.4115 101.073 91.5911 100.893 91.7266 100.664C91.862 100.43 91.9609 100.159 92.0234 99.8516C92.0911 99.5443 92.125 99.2135 92.125 98.8594V98.6953C92.125 98.3516 92.0911 98.0286 92.0234 97.7266C91.9609 97.4193 91.8594 97.1484 91.7188 96.9141C91.5833 96.6745 91.4036 96.487 91.1797 96.3516C90.9557 96.2161 90.6849 96.1484 90.3672 96.1484C90.0495 96.1484 89.7786 96.2161 89.5547 96.3516C89.3359 96.487 89.1562 96.6745 89.0156 96.9141C88.8802 97.1484 88.7812 97.4193 88.7188 97.7266C88.6562 98.0286 88.625 98.3516 88.625 98.6953ZM97.9688 96.3516V103H95.7188V94.5469H97.8281L97.9688 96.3516ZM97.6406 98.4766H97.0312C97.0312 97.8516 97.112 97.2891 97.2734 96.7891C97.4349 96.2839 97.6615 95.8542 97.9531 95.5C98.2448 95.1406 98.5911 94.8672 98.9922 94.6797C99.3984 94.487 99.8516 94.3906 100.352 94.3906C100.747 94.3906 101.109 94.4479 101.438 94.5625C101.766 94.6771 102.047 94.8594 102.281 95.1094C102.521 95.3594 102.703 95.6901 102.828 96.1016C102.958 96.513 103.023 97.0156 103.023 97.6094V103H100.758V97.6016C100.758 97.2266 100.706 96.9349 100.602 96.7266C100.497 96.5182 100.344 96.3724 100.141 96.2891C99.9427 96.2005 99.6979 96.1562 99.4062 96.1562C99.1042 96.1562 98.8411 96.2161 98.6172 96.3359C98.3984 96.4557 98.2161 96.6224 98.0703 96.8359C97.9297 97.0443 97.8229 97.2891 97.75 97.5703C97.6771 97.8516 97.6406 98.1536 97.6406 98.4766ZM108.625 103.156C107.969 103.156 107.38 103.052 106.859 102.844C106.339 102.63 105.896 102.336 105.531 101.961C105.172 101.586 104.896 101.151 104.703 100.656C104.51 100.156 104.414 99.625 104.414 99.0625V98.75C104.414 98.1094 104.505 97.5234 104.688 96.9922C104.87 96.4609 105.13 96 105.469 95.6094C105.812 95.2188 106.229 94.9193 106.719 94.7109C107.208 94.4974 107.76 94.3906 108.375 94.3906C108.974 94.3906 109.505 94.4896 109.969 94.6875C110.432 94.8854 110.82 95.1667 111.133 95.5312C111.451 95.8958 111.69 96.3333 111.852 96.8438C112.013 97.349 112.094 97.9115 112.094 98.5312V99.4688H105.375V97.9688H109.883V97.7969C109.883 97.4844 109.826 97.2057 109.711 96.9609C109.602 96.7109 109.435 96.513 109.211 96.3672C108.987 96.2214 108.701 96.1484 108.352 96.1484C108.055 96.1484 107.799 96.2135 107.586 96.3438C107.372 96.474 107.198 96.6562 107.062 96.8906C106.932 97.125 106.833 97.401 106.766 97.7188C106.703 98.0312 106.672 98.375 106.672 98.75V99.0625C106.672 99.401 106.719 99.7135 106.812 100C106.911 100.286 107.049 100.534 107.227 100.742C107.409 100.951 107.628 101.112 107.883 101.227C108.143 101.341 108.438 101.398 108.766 101.398C109.172 101.398 109.549 101.32 109.898 101.164C110.253 101.003 110.557 100.76 110.812 100.438L111.906 101.625C111.729 101.88 111.487 102.125 111.18 102.359C110.878 102.594 110.513 102.786 110.086 102.938C109.659 103.083 109.172 103.156 108.625 103.156Z" fill="#373737"/>

<!-- Mi answer -->
<path id="answer" d="M168.184 129.776C172.344 130.32 180.92 132.112 184.952 133.52L183.928 135.984C180.056 134.544 171.672 132.72 167.256 132.144L168.184 129.776ZM166.712 138.224C171.096 138.992 178.872 140.624 182.84 142.064L181.848 144.528C178.136 143.088 170.296 141.328 165.752 140.624L166.712 138.224ZM164.984 147.536C170.328 148.4 179.64 150.576 184.024 152.336L182.904 154.8C178.68 152.944 169.144 150.8 163.992 150L164.984 147.536Z" fill="#373737"/>

<path d="M60.136 130.544C60.936 130.608 61.864 130.64 62.536 130.64C64.232 130.64 68.424 130.448 69.768 130.32C70.376 130.288 70.92 130.16 71.368 130L72.968 131.28C72.648 131.632 72.392 131.952 72.136 132.368C71.112 134.032 69.352 138.128 67.88 141.424C66.6 144.24 64.84 148.592 63.464 150.576C62.344 152.208 61.096 152.816 59.432 152.816C57.064 152.816 55.304 151.088 55.304 148.432C55.304 143.6 59.848 139.92 66.344 139.92C73.544 139.92 79.88 143.76 83.336 146.224L82.152 148.944C78.408 145.712 72.552 142.16 65.96 142.16C60.648 142.16 57.608 145.136 57.608 148.08C57.608 149.52 58.536 150.256 59.528 150.256C60.264 150.256 60.808 150 61.48 149.136C62.792 147.408 64.232 143.696 65.448 141.008C66.728 138.224 68.168 134.928 69.256 132.656C67.976 132.688 64.072 132.88 62.632 132.944C61.928 132.976 61 133.072 60.232 133.168L60.136 130.544ZM80.136 137.552C79.688 146.672 77.832 152.208 70.376 155.952L68.264 154.192C75.784 151.024 77.16 144.976 77.512 140.24C77.576 139.28 77.608 138.192 77.512 137.264L80.136 137.552Z" fill="#373737"/>
<path d="M35.4443 82.0234H37.3003C37.6808 82.0234 38.0078 82.0804 38.2812 82.1943C38.557 82.3083 38.7689 82.4769 38.917 82.7002C39.0651 82.9235 39.1392 83.1981 39.1392 83.5239C39.1392 83.7905 39.0936 84.0195 39.0024 84.2109C38.9136 84.4001 38.7871 84.5584 38.623 84.686C38.4613 84.8114 38.271 84.9116 38.0522 84.9868L37.7275 85.1577H36.1143L36.1074 84.3579H37.3071C37.4871 84.3579 37.6364 84.326 37.7549 84.2622C37.8734 84.1984 37.9622 84.1095 38.0215 83.9956C38.083 83.8817 38.1138 83.7495 38.1138 83.5991C38.1138 83.4396 38.0841 83.3018 38.0249 83.1855C37.9657 83.0693 37.8757 82.9805 37.7549 82.9189C37.6341 82.8574 37.4826 82.8267 37.3003 82.8267H36.4697V87H35.4443V82.0234ZM38.2266 87L37.0918 84.7817L38.1753 84.7749L39.3237 86.9521V87H38.2266ZM44.0166 84.3955V84.6313C44.0166 85.0096 43.9653 85.3491 43.8628 85.6499C43.7603 85.9507 43.6156 86.207 43.4287 86.4189C43.2419 86.6286 43.0186 86.7892 42.7588 86.9009C42.5013 87.0125 42.2153 87.0684 41.9009 87.0684C41.5887 87.0684 41.3027 87.0125 41.043 86.9009C40.7855 86.7892 40.5622 86.6286 40.373 86.4189C40.1839 86.207 40.0369 85.9507 39.9321 85.6499C39.8296 85.3491 39.7783 85.0096 39.7783 84.6313V84.3955C39.7783 84.015 39.8296 83.6755 39.9321 83.377C40.0347 83.0762 40.1794 82.8198 40.3662 82.6079C40.5553 82.396 40.7786 82.2342 41.0361 82.1226C41.2959 82.0109 41.5819 81.9551 41.894 81.9551C42.2085 81.9551 42.4945 82.0109 42.752 82.1226C43.0117 82.2342 43.235 82.396 43.4219 82.6079C43.611 82.8198 43.7568 83.0762 43.8594 83.377C43.9642 83.6755 44.0166 84.015 44.0166 84.3955ZM42.981 84.6313V84.3887C42.981 84.1243 42.957 83.8919 42.9092 83.6914C42.8613 83.4909 42.7907 83.3223 42.6973 83.1855C42.6038 83.0488 42.4899 82.9463 42.3555 82.8779C42.221 82.8073 42.0672 82.772 41.894 82.772C41.7209 82.772 41.5671 82.8073 41.4326 82.8779C41.3005 82.9463 41.1877 83.0488 41.0942 83.1855C41.0031 83.3223 40.9336 83.4909 40.8857 83.6914C40.8379 83.8919 40.814 84.1243 40.814 84.3887V84.6313C40.814 84.8934 40.8379 85.1258 40.8857 85.3286C40.9336 85.5291 41.0042 85.6989 41.0977 85.8379C41.1911 85.9746 41.305 86.0783 41.4395 86.1489C41.5739 86.2196 41.7277 86.2549 41.9009 86.2549C42.0741 86.2549 42.2279 86.2196 42.3623 86.1489C42.4967 86.0783 42.6095 85.9746 42.7007 85.8379C42.7918 85.6989 42.8613 85.5291 42.9092 85.3286C42.957 85.1258 42.981 84.8934 42.981 84.6313ZM45.2231 82.0234H46.0913L47.3696 85.6772L48.6479 82.0234H49.5161L47.7183 87H47.021L45.2231 82.0234ZM44.7549 82.0234H45.6196L45.7769 85.585V87H44.7549V82.0234ZM49.1196 82.0234H49.9878V87H48.9624V85.585L49.1196 82.0234ZM52.9717 82.8745L51.6182 87H50.5278L52.377 82.0234H53.0708L52.9717 82.8745ZM54.0962 87L52.7393 82.8745L52.6299 82.0234H53.3306L55.1899 87H54.0962ZM54.0347 85.1475V85.9507H51.4062V85.1475H54.0347ZM57.6646 85.4722V82.0234H58.6865V85.4722C58.6865 85.8049 58.6136 86.0908 58.4678 86.3301C58.3219 86.5671 58.1226 86.7493 57.8696 86.877C57.619 87.0046 57.3364 87.0684 57.022 87.0684C56.6961 87.0684 56.4079 87.0137 56.1572 86.9043C55.9066 86.7949 55.7095 86.6274 55.5659 86.4019C55.4224 86.174 55.3506 85.8857 55.3506 85.5371H56.3794C56.3794 85.7194 56.4045 85.8641 56.4546 85.9712C56.507 86.0783 56.5811 86.1546 56.6768 86.2002C56.7725 86.2458 56.8875 86.2686 57.022 86.2686C57.1519 86.2686 57.2646 86.2378 57.3604 86.1763C57.4561 86.1147 57.5301 86.0247 57.5825 85.9062C57.6372 85.7878 57.6646 85.6431 57.6646 85.4722ZM60.6519 82.0234V87H59.6299V82.0234H60.6519ZM63.4922 84.4775V85.25H61.561V84.4775H63.4922ZM67.6929 84.0503V84.8501H65.0952V84.0503H67.6929ZM65.3994 82.0234V87H64.374V82.0234H65.3994ZM68.4243 82.0234V87H67.4023V82.0234H68.4243ZM70.4067 82.0234V87H69.3848V82.0234H70.4067ZM71.3672 82.0234H73.2231C73.6037 82.0234 73.9307 82.0804 74.2041 82.1943C74.4798 82.3083 74.6917 82.4769 74.8398 82.7002C74.988 82.9235 75.062 83.1981 75.062 83.5239C75.062 83.7905 75.0164 84.0195 74.9253 84.2109C74.8364 84.4001 74.71 84.5584 74.5459 84.686C74.3841 84.8114 74.1938 84.9116 73.9751 84.9868L73.6504 85.1577H72.0371L72.0303 84.3579H73.23C73.41 84.3579 73.5592 84.326 73.6777 84.2622C73.7962 84.1984 73.8851 84.1095 73.9443 83.9956C74.0059 83.8817 74.0366 83.7495 74.0366 83.5991C74.0366 83.4396 74.007 83.3018 73.9478 83.1855C73.8885 83.0693 73.7985 82.9805 73.6777 82.9189C73.557 82.8574 73.4054 82.8267 73.2231 82.8267H72.3926V87H71.3672V82.0234ZM74.1494 87L73.0146 84.7817L74.0981 84.7749L75.2466 86.9521V87H74.1494ZM77.875 82.8745L76.5215 87H75.4312L77.2803 82.0234H77.9741L77.875 82.8745ZM78.9995 87L77.6426 82.8745L77.5332 82.0234H78.2339L80.0933 87H78.9995ZM78.938 85.1475V85.9507H76.3096V85.1475H78.938ZM84.4375 84.3989V86.3711C84.36 86.4645 84.2404 86.5659 84.0786 86.6753C83.9168 86.7824 83.7083 86.8747 83.4531 86.9521C83.1979 87.0296 82.8892 87.0684 82.5269 87.0684C82.2056 87.0684 81.9128 87.016 81.6484 86.9111C81.3841 86.804 81.1562 86.6479 80.9648 86.4429C80.7757 86.2378 80.6299 85.9871 80.5273 85.6909C80.4248 85.3924 80.3735 85.0518 80.3735 84.6689V84.3579C80.3735 83.9751 80.4225 83.6344 80.5205 83.3359C80.6208 83.0374 80.7632 82.7856 80.9478 82.5806C81.1323 82.3755 81.3522 82.2194 81.6074 82.1123C81.8626 82.0052 82.1463 81.9517 82.4585 81.9517C82.8914 81.9517 83.2469 82.0223 83.5249 82.1636C83.8029 82.3026 84.0148 82.4963 84.1606 82.7446C84.3088 82.9907 84.3999 83.2733 84.4341 83.5923H83.4395C83.4144 83.4237 83.3665 83.2767 83.2959 83.1514C83.2253 83.026 83.1239 82.9281 82.9917 82.8574C82.8618 82.7868 82.6932 82.7515 82.4858 82.7515C82.3149 82.7515 82.1623 82.7868 82.0278 82.8574C81.8957 82.9258 81.784 83.0272 81.6929 83.1616C81.6017 83.2961 81.5322 83.4624 81.4844 83.6606C81.4365 83.8589 81.4126 84.089 81.4126 84.3511V84.6689C81.4126 84.9287 81.4377 85.1589 81.4878 85.3594C81.5379 85.5576 81.612 85.7251 81.71 85.8618C81.8102 85.9963 81.9333 86.0977 82.0791 86.166C82.2249 86.2344 82.3947 86.2686 82.5884 86.2686C82.7502 86.2686 82.8846 86.2549 82.9917 86.2275C83.1011 86.2002 83.1888 86.1672 83.2549 86.1284C83.3232 86.0874 83.3757 86.0487 83.4121 86.0122V85.1304H82.4756V84.3989H84.4375ZM87.2881 82.8745L85.9346 87H84.8442L86.6934 82.0234H87.3872L87.2881 82.8745ZM88.4126 87L87.0557 82.8745L86.9463 82.0234H87.647L89.5063 87H88.4126ZM88.3511 85.1475V85.9507H85.7227V85.1475H88.3511ZM94.0181 82.0234V87H92.9927L90.9932 83.6641V87H89.9678V82.0234H90.9932L92.9961 85.3628V82.0234H94.0181ZM96.9951 82.8745L95.6416 87H94.5513L96.4004 82.0234H97.0942L96.9951 82.8745ZM98.1196 87L96.7627 82.8745L96.6533 82.0234H97.354L99.2134 87H98.1196ZM98.0581 85.1475V85.9507H95.4297V85.1475H98.0581Z" fill="#666666"/>
<g filter="url(#filter0_d_215_7)">
<rect x="192" y="78" width="17" height="12.1429" rx="2" fill="#F4F5FA"/>
<path d="M197.667 82.3241V85.8185C197.667 86.0285 197.855 86.1619 198.009 86.0612L200.739 84.2745C200.872 84.187 200.872 83.9571 200.739 83.8697L198.009 82.083C197.855 81.9807 197.667 82.1141 197.667 82.3241ZM200.971 82.3241V85.8185C200.971 86.0285 201.159 86.1619 201.313 86.0612L204.043 84.2745C204.177 84.187 204.177 83.9571 204.043 83.8697L201.313 82.083C201.159 81.9807 200.971 82.1141 200.971 82.3241Z" stroke="#373737" stroke-width="0.7" stroke-miterlimit="10"/>
</g>
<circle cx="40" cy="182" r="5" fill="#1D8C4A"/>
<circle cx="74" cy="182" r="5" fill="#F04438"/>
<path d="M53.916 177.876V185H52.5098V179.497L50.8203 180.034V178.926L53.7646 177.876H53.916Z" fill="#373737"/>
<path d="M89.2734 180.82V182.051C89.2734 182.585 89.2165 183.045 89.1025 183.433C88.9886 183.817 88.8242 184.132 88.6094 184.38C88.3978 184.624 88.1455 184.805 87.8525 184.922C87.5596 185.039 87.234 185.098 86.876 185.098C86.5895 185.098 86.3226 185.062 86.0752 184.99C85.8278 184.915 85.6048 184.8 85.4062 184.644C85.2109 184.487 85.0417 184.29 84.8984 184.053C84.7585 183.812 84.651 183.525 84.5762 183.193C84.5013 182.861 84.4639 182.48 84.4639 182.051V180.82C84.4639 180.286 84.5208 179.829 84.6348 179.448C84.752 179.064 84.9163 178.75 85.1279 178.506C85.3428 178.262 85.5967 178.083 85.8896 177.969C86.1826 177.852 86.5081 177.793 86.8662 177.793C87.1527 177.793 87.418 177.83 87.6621 177.905C87.9095 177.977 88.1325 178.089 88.3311 178.242C88.5296 178.395 88.6989 178.592 88.8389 178.833C88.9788 179.071 89.0863 179.355 89.1611 179.688C89.236 180.016 89.2734 180.394 89.2734 180.82ZM87.8623 182.236V180.63C87.8623 180.373 87.8477 180.148 87.8184 179.956C87.7923 179.764 87.7516 179.601 87.6963 179.468C87.641 179.331 87.5726 179.22 87.4912 179.136C87.4098 179.051 87.3171 178.989 87.2129 178.95C87.1087 178.911 86.9932 178.892 86.8662 178.892C86.7067 178.892 86.5651 178.923 86.4414 178.984C86.321 179.046 86.2184 179.146 86.1338 179.282C86.0492 179.416 85.984 179.595 85.9385 179.819C85.8962 180.041 85.875 180.311 85.875 180.63V182.236C85.875 182.493 85.888 182.72 85.9141 182.915C85.9434 183.11 85.9857 183.278 86.041 183.418C86.0996 183.555 86.168 183.667 86.2461 183.755C86.3275 183.84 86.4202 183.901 86.5244 183.94C86.6318 183.979 86.749 183.999 86.876 183.999C87.0322 183.999 87.1706 183.968 87.291 183.906C87.4147 183.841 87.5189 183.74 87.6035 183.604C87.6914 183.464 87.7565 183.281 87.7988 183.057C87.8411 182.832 87.8623 182.559 87.8623 182.236Z" fill="#373737"/>
<path d="M72 180L76 184M72 184L76 180" stroke="white" stroke-linecap="round" stroke-linejoin="round"/>
<path d="M42.7693 179.083C42.7135 179.046 42.6512 179.021 42.5858 179.009C42.5205 178.996 42.4534 178.997 42.3884 179.011C42.3234 179.025 42.2617 179.052 42.207 179.091C42.1522 179.129 42.1054 179.178 42.0692 179.235L39.233 183.69L37.8497 182.387C37.8009 182.341 37.7437 182.305 37.6814 182.282C37.619 182.258 37.5527 182.247 37.4863 182.25C37.3522 182.255 37.2256 182.315 37.1345 182.415C37.0434 182.516 36.9951 182.649 37.0004 182.786C37.0056 182.922 37.064 183.051 37.1625 183.144L38.9787 184.855C38.9787 184.855 39.0308 184.901 39.055 184.917C39.1107 184.954 39.1731 184.979 39.2384 184.991C39.3038 185.004 39.3709 185.003 39.436 184.989C39.501 184.975 39.5627 184.948 39.6174 184.909C39.6722 184.871 39.719 184.822 39.7552 184.765L42.9184 179.796C42.9546 179.74 42.9795 179.676 42.9916 179.61C43.0037 179.543 43.0027 179.475 42.9889 179.408C42.975 179.342 42.9485 179.279 42.9108 179.223C42.8732 179.168 42.8251 179.12 42.7693 179.083Z" fill="white"/>
<path d="M191.916 177.876V185H190.51V179.497L188.82 180.034V178.926L191.765 177.876H191.916ZM197.326 177.891L194.719 185.61H193.674L196.281 177.891H197.326ZM202.805 183.901V185H197.941V184.062L200.241 181.597C200.472 181.34 200.655 181.113 200.788 180.918C200.922 180.719 201.018 180.542 201.076 180.386C201.138 180.226 201.169 180.075 201.169 179.932C201.169 179.717 201.133 179.533 201.062 179.38C200.99 179.224 200.884 179.103 200.744 179.019C200.607 178.934 200.438 178.892 200.236 178.892C200.021 178.892 199.836 178.944 199.68 179.048C199.527 179.152 199.41 179.297 199.328 179.482C199.25 179.668 199.211 179.878 199.211 180.112H197.8C197.8 179.689 197.901 179.302 198.103 178.95C198.304 178.595 198.589 178.314 198.957 178.105C199.325 177.894 199.761 177.788 200.266 177.788C200.764 177.788 201.184 177.869 201.525 178.032C201.87 178.192 202.131 178.423 202.307 178.726C202.486 179.025 202.575 179.383 202.575 179.8C202.575 180.034 202.538 180.264 202.463 180.488C202.388 180.71 202.281 180.931 202.141 181.152C202.004 181.37 201.838 181.592 201.643 181.816C201.447 182.041 201.231 182.274 200.993 182.515L199.758 183.901H202.805ZM208.469 180.82V182.051C208.469 182.585 208.412 183.045 208.298 183.433C208.184 183.817 208.02 184.132 207.805 184.38C207.593 184.624 207.341 184.805 207.048 184.922C206.755 185.039 206.429 185.098 206.071 185.098C205.785 185.098 205.518 185.062 205.271 184.99C205.023 184.915 204.8 184.8 204.602 184.644C204.406 184.487 204.237 184.29 204.094 184.053C203.954 183.812 203.846 183.525 203.771 183.193C203.697 182.861 203.659 182.48 203.659 182.051V180.82C203.659 180.286 203.716 179.829 203.83 179.448C203.947 179.064 204.112 178.75 204.323 178.506C204.538 178.262 204.792 178.083 205.085 177.969C205.378 177.852 205.703 177.793 206.062 177.793C206.348 177.793 206.613 177.83 206.857 177.905C207.105 177.977 207.328 178.089 207.526 178.242C207.725 178.395 207.894 178.592 208.034 178.833C208.174 179.071 208.282 179.355 208.356 179.688C208.431 180.016 208.469 180.394 208.469 180.82ZM207.058 182.236V180.63C207.058 180.373 207.043 180.148 207.014 179.956C206.988 179.764 206.947 179.601 206.892 179.468C206.836 179.331 206.768 179.22 206.687 179.136C206.605 179.051 206.512 178.989 206.408 178.95C206.304 178.911 206.188 178.892 206.062 178.892C205.902 178.892 205.76 178.923 205.637 178.984C205.516 179.046 205.414 179.146 205.329 179.282C205.244 179.416 205.179 179.595 205.134 179.819C205.091 180.041 205.07 180.311 205.07 180.63V182.236C205.07 182.493 205.083 182.72 205.109 182.915C205.139 183.11 205.181 183.278 205.236 183.418C205.295 183.555 205.363 183.667 205.441 183.755C205.523 183.84 205.616 183.901 205.72 183.94C205.827 183.979 205.944 183.999 206.071 183.999C206.228 183.999 206.366 183.968 206.486 183.906C206.61 183.841 206.714 183.74 206.799 183.604C206.887 183.464 206.952 183.281 206.994 183.057C207.036 182.832 207.058 182.559 207.058 182.236Z" fill="#373737"/>
<path d="M183.86 179.239C183.722 178.922 183.491 178.694 183.194 178.578L183.19 178.577C183.054 178.526 182.91 178.5 182.765 178.5H182.749C182.067 178.51 181.372 179.066 181.019 179.885C180.759 180.483 180.73 181.127 180.939 181.607C181.078 181.924 181.309 182.152 181.607 182.268L181.611 182.269C181.746 182.32 181.89 182.346 182.036 182.346C182.723 182.346 183.426 181.789 183.786 180.96C184.042 180.362 184.07 179.719 183.86 179.239ZM181.139 182.769C180.746 182.542 180.375 182.327 180.132 181.942C179.463 180.875 179.059 180.231 178 180.231C176.94 180.231 176.535 180.875 175.865 181.942C175.622 182.328 175.25 182.543 174.856 182.771C174.404 183.032 173.937 183.301 173.736 183.832C173.657 184.023 173.618 184.227 173.619 184.433C173.619 185.297 174.319 186 175.18 186C175.623 186 176.096 185.852 176.595 185.696C177.076 185.545 177.573 185.39 178.002 185.39C178.432 185.39 178.928 185.545 179.406 185.696C179.905 185.851 180.375 185.999 180.82 185.999C181.679 185.999 182.378 185.296 182.378 184.432C182.379 184.226 182.338 184.022 182.259 183.831C182.058 183.3 181.591 183.03 181.139 182.769ZM175.35 179.386C175.647 179.745 176.025 179.942 176.413 179.942C176.466 179.942 176.519 179.938 176.571 179.931C177.38 179.817 177.885 178.867 177.719 177.768C177.65 177.306 177.465 176.875 177.2 176.556C176.903 176.198 176.525 176 176.137 176C176.084 176 176.031 176.004 175.979 176.012C175.169 176.126 174.665 177.076 174.83 178.175C174.899 178.636 175.084 179.066 175.35 179.386ZM179.429 179.931C179.481 179.938 179.534 179.942 179.587 179.942C179.976 179.942 180.353 179.745 180.651 179.386C180.915 179.066 181.099 178.636 181.169 178.174C181.335 177.076 180.831 176.126 180.021 176.011C179.969 176.004 179.916 176 179.863 176C179.475 176 179.097 176.198 178.8 176.556C178.535 176.875 178.35 177.306 178.281 177.768C178.115 178.867 178.62 179.817 179.429 179.931ZM174.389 182.269L174.393 182.268C174.691 182.152 174.922 181.924 175.06 181.607C175.27 181.126 175.24 180.483 174.981 179.885C174.623 179.057 173.921 178.5 173.234 178.5C173.088 178.5 172.944 178.526 172.809 178.577L172.805 178.578C172.508 178.692 172.277 178.922 172.139 179.239C171.929 179.719 171.959 180.362 172.217 180.961C172.576 181.789 173.278 182.346 173.965 182.346C174.11 182.346 174.254 182.32 174.389 182.269Z" fill="#FF8A42"/>

<!-- Arrow and Check mark -->
<path id="checkmark" style="opacity: 0" d="M130.269 134.263C130.093 134.146 129.895 134.066 129.688 134.027C129.482 133.988 129.269 133.991 129.063 134.036C128.857 134.081 128.662 134.166 128.489 134.288C128.315 134.409 128.167 134.565 128.053 134.744L119.071 148.851L114.691 144.725C114.536 144.579 114.355 144.466 114.158 144.392C113.96 144.317 113.75 144.283 113.54 144.292C113.115 144.309 112.715 144.497 112.426 144.815C112.137 145.133 111.985 145.555 112.001 145.988C112.018 146.42 112.203 146.829 112.515 147.123L118.266 152.541C118.266 152.541 118.431 152.686 118.507 152.737C118.684 152.853 118.881 152.934 119.088 152.973C119.295 153.012 119.508 153.009 119.714 152.964C119.92 152.919 120.115 152.834 120.289 152.712C120.462 152.591 120.61 152.435 120.725 152.255L130.742 136.522C130.856 136.342 130.935 136.141 130.973 135.93C131.012 135.719 131.009 135.503 130.965 135.293C130.921 135.083 130.837 134.884 130.718 134.708C130.598 134.531 130.446 134.38 130.269 134.263Z" fill="#1D8C4A"/>
<path id="arrow" d="M117 153L128 141.5L117 130" stroke="#373737" stroke-width="4" stroke-linecap="round" stroke-linejoin="round"/>

<rect x="14" y="328" width="216" height="142" fill="#363B3F"/>
<rect x="14" y="303" width="216" height="25" fill="#272C2E"/>
<rect x="201" y="420" width="23" height="16" rx="4" fill="#5D98F5"/>
<path d="M218.354 428.354C218.549 428.158 218.549 427.842 218.354 427.646L215.172 424.464C214.976 424.269 214.66 424.269 214.464 424.464C214.269 424.66 214.269 424.976 214.464 425.172L217.293 428L214.464 430.828C214.269 431.024 214.269 431.34 214.464 431.536C214.66 431.731 214.976 431.731 215.172 431.536L218.354 428.354ZM208 428.5H218V427.5H208V428.5Z" fill="white"/>

<!-- Draw -->
<path id="line0" d="M113 353C115.535 353.272 118.045 355.168 120.241 356.348C121.965 357.274 124.892 357.647 126.852 358.174C134.233 360.156 141.397 361.583 147 367" fill="transparent" stroke="white" stroke-width="3" stroke-linecap="round"/>
<path id="line1" d="M105 370C107.535 370.272 110.045 372.168 112.241 373.348C113.965 374.274 116.892 374.647 118.852 375.174C126.233 377.156 133.397 378.583 139 384" fill="transparent" stroke="white" stroke-width="3" stroke-linecap="round"/>
<path id="line2" d="M96 383C106.651 386.835 114.452 396.887 125.683 399.552C129.077 400.357 132.486 401.02 135.81 402.177C137.22 402.668 138.697 404 140 404" fill="transparent" stroke="white" stroke-width="3" stroke-linecap="round"/>

<rect x="95" y="420" width="48" height="15" rx="2" fill="#56595E"/>
<path d="M108.408 423.824H113.648V430.52H113.016V424.432H109.024V430.552H108.408V423.824ZM108.816 426.6H113.28V427.192H108.816V426.6ZM108.808 429.432H113.296V430.032H108.808V429.432ZM115.512 424.968H122.496V425.576H115.512V424.968ZM117.112 428.536H120.84V429.144H117.112V428.536ZM118.672 423.288H119.304V430.64H118.672V423.288ZM118.488 425.168L119.024 425.352C118.312 427.048 117.056 428.576 115.672 429.384C115.576 429.232 115.376 429.008 115.24 428.888C116.576 428.192 117.848 426.704 118.488 425.168ZM119.504 425.192C120.136 426.712 121.392 428.168 122.776 428.832C122.624 428.96 122.416 429.2 122.32 429.368C120.904 428.584 119.672 427.056 118.968 425.376L119.504 425.192ZM126.832 427.76H130.216V430.608H129.632V428.312H127.4V430.64H126.832V427.76ZM126.616 424.928H130V426.888H129.416V425.456H126.616V424.928ZM127.768 423.784L128.36 423.832C128.216 424.816 127.992 426.128 127.824 426.888H127.232C127.416 426.096 127.64 424.752 127.768 423.784ZM126.488 423.584H130.448V424.104H126.488V423.584ZM126.248 426.616H130.704V427.152H126.248V426.616ZM127.088 429.728H129.952V430.272H127.088V429.728ZM123.68 425.752H125.936V426.224H123.68V425.752ZM123.728 423.568H125.928V424.048H123.728V423.568ZM123.68 426.84H125.936V427.32H123.68V426.84ZM123.304 424.64H126.216V425.136H123.304V424.64ZM123.968 427.936H125.968V430.272H123.968V429.776H125.44V428.44H123.968V427.936ZM123.672 427.936H124.192V430.64H123.672V427.936Z" fill="white"/>
<path d="M79 433C75.7 433 73 430.3 73 427C73 423.7 75.7 421 79 421C82.3 421 85 423.7 85 427C85 430.3 82.3 433 79 433ZM83.14 429.4H81.4C81.22 430.18 80.92 430.84 80.56 431.56C81.64 431.14 82.6 430.42 83.14 429.4ZM79 431.8C79.48 431.08 79.9 430.3 80.14 429.4H77.86C78.1 430.24 78.52 431.08 79 431.8ZM74.38 425.8C74.26 426.16 74.2 426.58 74.2 427C74.2 427.42 74.26 427.84 74.38 428.2H76.42C76.36 427.78 76.36 427.42 76.36 427C76.36 426.58 76.42 426.22 76.42 425.8H74.38ZM74.86 424.6H76.6C76.78 423.82 77.08 423.16 77.44 422.44C76.36 422.86 75.4 423.58 74.86 424.6ZM76.6 429.4H74.86C75.46 430.42 76.36 431.14 77.44 431.56C77.08 430.84 76.78 430.18 76.6 429.4ZM79 422.2C78.52 422.92 78.1 423.7 77.86 424.6H80.14C79.9 423.76 79.48 422.92 79 422.2ZM80.38 425.8H77.62C77.56 426.22 77.5 426.58 77.5 427C77.5 427.42 77.56 427.78 77.62 428.2H80.44C80.5 427.78 80.56 427.42 80.56 427C80.56 426.58 80.44 426.22 80.38 425.8ZM80.56 422.44C80.92 423.1 81.22 423.82 81.4 424.6H83.14C82.6 423.58 81.64 422.86 80.56 422.44ZM81.64 425.8C81.7 426.22 81.7 426.58 81.7 427C81.7 427.42 81.64 427.78 81.64 428.2H83.68C83.8 427.84 83.86 427.42 83.86 427C83.86 426.58 83.8 426.16 83.68 425.8H81.64Z" fill="#8F9497"/>
<circle cx="58" cy="427" r="5.5" stroke="#8F9497"/>
<circle cx="56.1124" cy="425.78" r="0.78" fill="#8F9497"/>
<path d="M57.9987 429.4C57.9987 429.4 56.1987 429.4 55.5987 428.2H60.3987C59.7987 429.4 57.9987 429.4 57.9987 429.4Z" fill="#8F9497" stroke="#8F9497" stroke-linecap="round" stroke-linejoin="round"/>
<circle cx="60.1138" cy="425.78" r="0.78" fill="#8F9497"/>
<path d="M24.4805 428.324H23.6094C23.612 428.082 23.6328 427.879 23.6719 427.715C23.7109 427.548 23.776 427.397 23.8672 427.262C23.9609 427.126 24.0846 426.983 24.2383 426.832C24.3581 426.717 24.4661 426.609 24.5625 426.508C24.6589 426.404 24.7357 426.294 24.793 426.18C24.8503 426.062 24.8789 425.928 24.8789 425.777C24.8789 425.613 24.8516 425.474 24.7969 425.359C24.7422 425.245 24.6615 425.158 24.5547 425.098C24.4505 425.038 24.3203 425.008 24.1641 425.008C24.0339 425.008 23.9115 425.034 23.7969 425.086C23.6823 425.135 23.5898 425.214 23.5195 425.32C23.4492 425.424 23.4115 425.562 23.4062 425.734H22.4648C22.4701 425.406 22.5482 425.13 22.6992 424.906C22.8503 424.682 23.0534 424.514 23.3086 424.402C23.5638 424.29 23.849 424.234 24.1641 424.234C24.513 424.234 24.8112 424.294 25.0586 424.414C25.306 424.531 25.4948 424.703 25.625 424.93C25.7578 425.154 25.8242 425.424 25.8242 425.742C25.8242 425.971 25.7786 426.18 25.6875 426.367C25.5964 426.552 25.4779 426.725 25.332 426.887C25.1862 427.046 25.0286 427.204 24.8594 427.363C24.7135 427.496 24.6146 427.641 24.5625 427.797C24.5104 427.951 24.4831 428.126 24.4805 428.324ZM23.5312 429.543C23.5312 429.402 23.5794 429.284 23.6758 429.188C23.7721 429.089 23.9036 429.039 24.0703 429.039C24.237 429.039 24.3685 429.089 24.4648 429.188C24.5612 429.284 24.6094 429.402 24.6094 429.543C24.6094 429.684 24.5612 429.803 24.4648 429.902C24.3685 429.999 24.237 430.047 24.0703 430.047C23.9036 430.047 23.7721 429.999 23.6758 429.902C23.5794 429.803 23.5312 429.684 23.5312 429.543ZM29.125 424.293V430H28.1836V425.41L26.7891 425.883V425.105L29.0117 424.293H29.125ZM34.9141 429.25V430H31.1016V429.355L32.9531 427.336C33.1562 427.107 33.3164 426.909 33.4336 426.742C33.5508 426.576 33.6328 426.426 33.6797 426.293C33.7292 426.158 33.7539 426.026 33.7539 425.898C33.7539 425.719 33.7201 425.561 33.6523 425.426C33.5872 425.288 33.4909 425.18 33.3633 425.102C33.2357 425.021 33.0807 424.98 32.8984 424.98C32.6875 424.98 32.5104 425.026 32.3672 425.117C32.224 425.208 32.1159 425.335 32.043 425.496C31.9701 425.655 31.9336 425.837 31.9336 426.043H30.9922C30.9922 425.712 31.0677 425.41 31.2188 425.137C31.3698 424.861 31.5885 424.642 31.875 424.48C32.1615 424.316 32.5065 424.234 32.9102 424.234C33.2904 424.234 33.6133 424.298 33.8789 424.426C34.1445 424.553 34.3464 424.734 34.4844 424.969C34.625 425.203 34.6953 425.48 34.6953 425.801C34.6953 425.978 34.6667 426.154 34.6094 426.328C34.5521 426.503 34.4701 426.677 34.3633 426.852C34.2591 427.023 34.1354 427.197 33.9922 427.371C33.849 427.543 33.6914 427.717 33.5195 427.895L32.2891 429.25H34.9141ZM36.7539 426.73H37.3164C37.5352 426.73 37.7161 426.693 37.8594 426.617C38.0052 426.542 38.1133 426.438 38.1836 426.305C38.2539 426.172 38.2891 426.02 38.2891 425.848C38.2891 425.668 38.2565 425.514 38.1914 425.387C38.1289 425.257 38.0326 425.156 37.9023 425.086C37.7747 425.016 37.612 424.98 37.4141 424.98C37.2474 424.98 37.0964 425.014 36.9609 425.082C36.8281 425.147 36.7227 425.241 36.6445 425.363C36.5664 425.483 36.5273 425.626 36.5273 425.793H35.582C35.582 425.491 35.6615 425.223 35.8203 424.988C35.9792 424.754 36.1953 424.57 36.4688 424.438C36.7448 424.302 37.0547 424.234 37.3984 424.234C37.7656 424.234 38.0859 424.296 38.3594 424.418C38.6354 424.538 38.8503 424.717 39.0039 424.957C39.1576 425.197 39.2344 425.493 39.2344 425.848C39.2344 426.009 39.1966 426.173 39.1211 426.34C39.0456 426.507 38.9336 426.659 38.7852 426.797C38.6367 426.932 38.4518 427.043 38.2305 427.129C38.0091 427.212 37.7526 427.254 37.4609 427.254H36.7539V426.73ZM36.7539 427.465V426.949H37.4609C37.7943 426.949 38.0781 426.988 38.3125 427.066C38.5495 427.145 38.7422 427.253 38.8906 427.391C39.0391 427.526 39.1471 427.681 39.2148 427.855C39.2852 428.03 39.3203 428.215 39.3203 428.41C39.3203 428.676 39.2721 428.913 39.1758 429.121C39.082 429.327 38.9479 429.501 38.7734 429.645C38.599 429.788 38.3945 429.896 38.1602 429.969C37.9284 430.042 37.6758 430.078 37.4023 430.078C37.1576 430.078 36.9232 430.044 36.6992 429.977C36.4753 429.909 36.2747 429.809 36.0977 429.676C35.9206 429.54 35.7799 429.372 35.6758 429.172C35.5742 428.969 35.5234 428.734 35.5234 428.469H36.4648C36.4648 428.638 36.5039 428.788 36.582 428.918C36.6628 429.046 36.7747 429.146 36.918 429.219C37.0638 429.292 37.2305 429.328 37.418 429.328C37.6159 429.328 37.7865 429.293 37.9297 429.223C38.0729 429.152 38.1823 429.048 38.2578 428.91C38.3359 428.772 38.375 428.605 38.375 428.41C38.375 428.189 38.332 428.009 38.2461 427.871C38.1602 427.733 38.0378 427.632 37.8789 427.566C37.7201 427.499 37.5326 427.465 37.3164 427.465H36.7539Z" fill="#8F9497"/>
<path d="M188.75 422H179.375C178.938 422 178.625 422.183 178.375 422.55L175 427.5L178.375 432.45C178.625 432.756 178.938 433 179.375 433H188.75C189.438 433 190 432.45 190 431.778V423.222C190 422.55 189.438 422 188.75 422ZM186.875 429.7L186 430.556L183.75 428.356L181.5 430.556L180.625 429.7L182.875 427.5L180.625 425.3L181.5 424.444L183.75 426.644L186 424.444L186.875 425.3L184.625 427.5L186.875 429.7Z" fill="#8F9497"/>
<path d="M160.777 422H164.11V425.333" stroke="#8F9497" stroke-width="1.4"/>
<path d="M157.333 422H154V425.333" stroke="#8F9497" stroke-width="1.4"/>
<path d="M160.777 432H164.11V428.667" stroke="#8F9497" stroke-width="1.4"/>
<path d="M157.333 432H154V428.667" stroke="#8F9497" stroke-width="1.4"/>

<!-- Suggested corrections -->
<path class="corrections" d="M28.018 310.402C29.838 310.64 33.59 311.424 35.354 312.04L34.906 313.118C33.212 312.488 29.544 311.69 27.612 311.438L28.018 310.402ZM27.374 314.098C29.292 314.434 32.694 315.148 34.43 315.778L33.996 316.856C32.372 316.226 28.942 315.456 26.954 315.148L27.374 314.098ZM26.618 318.172C28.956 318.55 33.03 319.502 34.948 320.272L34.458 321.35C32.61 320.538 28.438 319.6 26.184 319.25L26.618 318.172Z" fill="white"/>
<path class="corrections" d="M56.722 310.612H67.306V311.662H56.722V310.612ZM57.618 315.19H66.2V316.24H57.618V315.19ZM55.91 320.048H68.062V321.112H55.91V320.048Z" fill="white"/>
<path class="corrections" d="M89.276 311.186C90.284 311.298 91.572 311.354 92.986 311.354C94.33 311.354 95.744 311.27 96.752 311.158V312.306C95.8 312.376 94.274 312.474 92.986 312.474C91.586 312.474 90.382 312.418 89.276 312.32V311.186ZM89.836 316.828C89.668 317.374 89.556 317.892 89.556 318.41C89.556 319.488 90.648 320.216 92.888 320.216C94.806 320.216 96.612 320.006 97.676 319.67L97.69 320.874C96.682 321.14 94.904 321.35 92.916 321.35C90.074 321.35 88.422 320.426 88.422 318.662C88.422 317.934 88.576 317.276 88.702 316.716L89.836 316.828Z" fill="white"/>
<path class="corrections" d="M121.2 310.248C122.026 310.71 123.636 311.788 124.252 312.236L123.594 313.188C122.922 312.67 121.396 311.662 120.584 311.2L121.2 310.248ZM119.1 320.258C120.64 319.992 122.376 319.432 123.804 318.634C126.128 317.304 127.976 315.47 129.096 313.496L129.782 314.658C128.564 316.534 126.632 318.34 124.392 319.656C122.978 320.482 121.046 321.126 119.758 321.392L119.1 320.258ZM119.1 313.398C119.926 313.846 121.564 314.854 122.166 315.288L121.522 316.268C120.836 315.764 119.324 314.798 118.47 314.35L119.1 313.398Z" fill="white"/>
<path class="corrections" d="M156.322 311.088C156.238 310.78 156.112 310.36 155.972 309.982L157.176 309.842C157.302 310.654 157.666 311.858 157.988 312.768C158.422 313.972 159.136 315.274 159.738 316.086C159.92 316.366 160.13 316.604 160.34 316.828L159.78 317.626C159.108 317.458 157.4 317.304 156.392 317.234L156.476 316.31C157.26 316.38 158.296 316.464 158.8 316.52C158.212 315.624 157.442 314.238 156.98 312.964C156.672 312.166 156.476 311.522 156.322 311.088ZM151.198 312.18C153.536 312.446 155.748 312.46 157.344 312.292C158.45 312.166 159.836 311.914 160.928 311.536L161.054 312.642C160.06 312.922 158.73 313.146 157.708 313.272C155.93 313.482 153.704 313.496 151.226 313.286L151.198 312.18ZM153.368 316.632C152.948 317.318 152.696 317.92 152.696 318.578C152.696 319.922 153.914 320.496 156 320.524C157.414 320.524 158.632 320.384 159.598 320.174L159.556 321.294C158.674 321.448 157.498 321.602 155.93 321.588C153.27 321.574 151.59 320.622 151.59 318.718C151.59 317.934 151.87 317.206 152.276 316.38L153.368 316.632Z" fill="white"/>
<path class="corrections" d="M174.414 314.938C174.848 314.98 175.576 315.022 176.374 315.022C177.396 315.022 183.01 315.022 184.046 315.022C184.746 315.022 185.236 314.966 185.558 314.938V316.31C185.264 316.296 184.676 316.254 184.06 316.254C182.996 316.254 177.41 316.254 176.374 316.254C175.604 316.254 174.862 316.282 174.414 316.31V314.938ZM191.018 310.402C192.838 310.64 196.59 311.424 198.354 312.04L197.906 313.118C196.212 312.488 192.544 311.69 190.612 311.438L191.018 310.402ZM190.374 314.098C192.292 314.434 195.694 315.148 197.43 315.778L196.996 316.856C195.372 316.226 191.942 315.456 189.954 315.148L190.374 314.098ZM189.618 318.172C191.956 318.55 196.03 319.502 197.948 320.272L197.458 321.35C195.61 320.538 191.438 319.6 189.184 319.25L189.618 318.172Z" fill="white"/>

<path class="preferences" d="M158.941 315.941C158.96 315.8 158.97 315.655 158.97 315.5C158.97 315.35 158.96 315.2 158.936 315.059L159.914 314.319C159.956 314.285 159.985 314.238 159.996 314.186C160.006 314.134 159.998 314.08 159.972 314.033L159.047 312.477C159.019 312.429 158.976 312.393 158.924 312.374C158.872 312.356 158.815 312.355 158.762 312.373L157.611 312.823C157.37 312.645 157.114 312.495 156.83 312.383L156.657 311.192C156.648 311.139 156.62 311.09 156.578 311.054C156.535 311.019 156.481 311 156.425 311H154.575C154.459 311 154.368 311.08 154.348 311.192L154.175 312.383C153.891 312.495 153.63 312.65 153.394 312.823L152.242 312.373C152.136 312.336 152.016 312.373 151.958 312.477L151.038 314.033C150.98 314.131 150.999 314.253 151.096 314.319L152.074 315.059C152.05 315.2 152.03 315.355 152.03 315.5C152.03 315.645 152.04 315.8 152.064 315.941L151.086 316.681C151.044 316.715 151.015 316.762 151.004 316.814C150.994 316.866 151.002 316.92 151.028 316.967L151.953 318.523C152.011 318.627 152.132 318.659 152.238 318.627L153.389 318.177C153.63 318.355 153.886 318.505 154.17 318.617L154.343 319.808C154.368 319.92 154.459 320 154.575 320H156.425C156.541 320 156.637 319.92 156.652 319.808L156.825 318.617C157.109 318.505 157.37 318.355 157.606 318.177L158.758 318.627C158.864 318.664 158.984 318.627 159.042 318.523L159.967 316.967C160.025 316.864 160.001 316.747 159.909 316.681L158.941 315.941ZM155.5 317.188C154.546 317.188 153.765 316.428 153.765 315.5C153.765 314.572 154.546 313.813 155.5 313.813C156.454 313.813 157.235 314.572 157.235 315.5C157.235 316.428 156.454 317.188 155.5 317.188Z" fill="white"/>
<path class="preferences" d="M219 316.947C219.949 316.947 220.714 316.172 220.714 315.211V311.737C220.714 310.776 219.949 310 219 310C218.051 310 217.286 310.776 217.286 311.737V315.211C217.286 316.172 218.051 316.947 219 316.947ZM218.429 311.737C218.429 311.418 218.686 311.158 219 311.158C219.314 311.158 219.571 311.418 219.571 311.737V315.211C219.571 315.529 219.314 315.789 219 315.789C218.686 315.789 218.429 315.529 218.429 315.211V311.737ZM221.857 315.211C221.857 316.808 220.577 318.105 219 318.105C217.423 318.105 216.143 316.808 216.143 315.211H215C215 317.254 216.491 318.933 218.429 319.217V321H219.571V319.217C221.509 318.933 223 317.254 223 315.211H221.857Z" fill="white"/>
<path class="preferences" d="M187.5 311C185.02 311 183 313.02 183 315.5C183 317.979 185.02 320 187.5 320C187.798 320 188.085 319.881 188.295 319.67C188.506 319.46 188.625 319.173 188.625 318.875C188.625 318.6 188.521 318.335 188.337 318.123C188.301 318.082 188.28 318.03 188.278 317.975C188.278 317.849 188.377 317.75 188.503 317.75H189.3C190.789 317.75 192 316.539 192 315.05C192 312.818 189.979 311 187.5 311ZM189.975 315.95C189.602 315.95 189.3 315.648 189.3 315.275C189.3 314.901 189.602 314.6 189.975 314.6C190.348 314.6 190.65 314.901 190.65 315.275C190.65 315.648 190.348 315.95 189.975 315.95ZM188.625 314.15C188.251 314.15 187.95 313.849 187.95 313.475C187.95 313.102 188.251 312.8 188.625 312.8C188.998 312.8 189.3 313.102 189.3 313.475C189.3 313.849 188.998 314.15 188.625 314.15ZM184.35 315.275C184.35 314.901 184.651 314.6 185.025 314.6C185.398 314.6 185.7 314.901 185.7 315.275C185.7 315.648 185.398 315.95 185.025 315.95C184.651 315.95 184.35 315.648 184.35 315.275ZM187.05 313.475C187.05 313.849 186.748 314.15 186.375 314.15C186.001 314.15 185.7 313.849 185.7 313.475C185.7 313.102 186.001 312.8 186.375 312.8C186.748 312.8 187.05 313.102 187.05 313.475Z" fill="white"/>
<circle class="preferences" cx="28.5" cy="315.5" r="9.5" fill="#56595E"/>
<path class="preferences" fill-rule="evenodd" clip-rule="evenodd" d="M25.2647 311H26.6714C27.3698 311 27.9361 311.566 27.9361 312.265V313.671C27.9361 314.37 27.3698 314.936 26.6714 314.936H25.2647C24.5662 314.936 24 314.37 24 313.671V312.265C24 311.566 24.5662 311 25.2647 311ZM30.3286 311H31.7353C32.4338 311 33 311.566 33 312.265V313.671C33 314.37 32.4338 314.936 31.7353 314.936H30.3286C29.6302 314.936 29.0639 314.37 29.0639 313.671V312.265C29.0639 311.566 29.6302 311 30.3286 311ZM25.2647 316.064H26.6714C27.3698 316.064 27.9361 316.63 27.9361 317.329V318.735C27.9361 319.434 27.3698 320 26.6714 320H25.2647C24.5662 320 24 319.434 24 318.735V317.329C24 316.63 24.5662 316.064 25.2647 316.064ZM30.3286 316.064H31.7353C32.4338 316.064 33 316.63 33 317.329V318.735C33 319.434 32.4338 320 31.7353 320H30.3286C29.6302 320 29.0639 319.434 29.0639 318.735V317.329C29.0639 316.63 29.6302 316.064 30.3286 316.064ZM30.3286 311.913C30.1344 311.913 29.977 312.07 29.977 312.265V313.671C29.977 313.866 30.1344 314.023 30.3286 314.023H31.7353C31.9295 314.023 32.087 313.866 32.087 313.671V312.265C32.087 312.07 31.9295 311.913 31.7353 311.913H30.3286ZM25.2647 311.913C25.0705 311.913 24.913 312.07 24.913 312.265V313.671C24.913 313.866 25.0705 314.023 25.2647 314.023H26.6714C26.8656 314.023 27.023 313.866 27.023 313.671V312.265C27.023 312.07 26.8656 311.913 26.6714 311.913H25.2647ZM24.913 317.329C24.913 317.134 25.0705 316.977 25.2647 316.977H26.6714C26.8656 316.977 27.023 317.134 27.023 317.329V318.735C27.023 318.93 26.8656 319.087 26.6714 319.087H25.2647C25.0705 319.087 24.913 318.93 24.913 318.735V317.329ZM30.3286 316.977C30.1344 316.977 29.977 317.134 29.977 317.329V318.735C29.977 318.93 30.1344 319.087 30.3286 319.087H31.7353C31.9295 319.087 32.087 318.93 32.087 318.735V317.329C32.087 317.134 31.9295 316.977 31.7353 316.977H30.3286Z" fill="white"/>
<path class="preferences" d="M58.9678 316.793C59.4063 317.089 59.9346 317.261 60.5032 317.261C61.6441 317.261 62.6227 316.567 63.039 315.577L63.0504 315.55C63.1449 315.318 63.2088 315.071 63.2369 314.812L58.2863 316.139C58.4431 316.352 58.63 316.542 58.8406 316.702C58.8821 316.734 58.9245 316.764 58.9678 316.793Z" fill="white"/>
<path class="preferences" d="M59.3776 314.637C59.3983 314.565 59.4093 314.488 59.4093 314.409C59.4093 313.951 59.0379 313.58 58.5797 313.58C58.1215 313.58 57.75 313.951 57.75 314.409C57.75 314.643 57.847 314.855 58.0029 315.006L59.3776 314.637Z" fill="white"/>
<path class="preferences" d="M62.7117 313.744C62.7224 313.691 62.728 313.636 62.728 313.58C62.728 313.121 62.3566 312.75 61.8983 312.75C61.4401 312.75 61.0687 313.121 61.0687 313.58C61.0687 313.79 61.1471 313.982 61.2763 314.129L62.7117 313.744Z" fill="white"/>
<path class="preferences" fill-rule="evenodd" clip-rule="evenodd" d="M55 312.062C55 310.923 55.9234 310 57.0625 310H63.9375C65.0766 310 66 310.923 66 312.062V317.209L62.2086 321H57.0625C55.9234 321 55 320.077 55 318.938V312.062ZM57.0625 311.375C56.6828 311.375 56.375 311.683 56.375 312.062V318.938C56.375 319.317 56.6828 319.625 57.0625 319.625H61.4658C61.461 319.556 61.4586 319.487 61.4586 319.417C61.4586 317.783 62.783 316.459 64.4167 316.459C64.4867 316.459 64.5562 316.461 64.625 316.466V312.062C64.625 311.683 64.3172 311.375 63.9375 311.375H57.0625Z" fill="white"/>
<path class="preferences" fill-rule="evenodd" clip-rule="evenodd" d="M87.3684 313C86.9905 313 86.6842 313.306 86.6842 313.684V314.368H90.7895V313.684C90.7895 313.306 90.4831 313 90.1053 313H87.3684Z" fill="white"/>
<path class="preferences" fill-rule="evenodd" clip-rule="evenodd" d="M94.8948 313V314.368H99V313H94.8948Z" fill="white"/>
<path class="preferences" fill-rule="evenodd" clip-rule="evenodd" d="M94.8948 315.053V316.421H98.3158V315.053H94.8948Z" fill="white"/>
<path class="preferences" fill-rule="evenodd" clip-rule="evenodd" d="M87.3684 313L86.6842 313C86.3063 313 86 313.306 86 313.684L86 317.789C86 318.167 86.3063 318.474 86.6842 318.474L87.3684 318.474L87.3684 313Z" fill="white"/>
<path class="preferences" fill-rule="evenodd" clip-rule="evenodd" d="M93.5264 313L92.1579 313L92.1579 318.474L93.5264 318.474L93.5264 313Z" fill="white"/>
<path class="preferences" fill-rule="evenodd" clip-rule="evenodd" d="M96.2632 313L94.8948 313L94.8948 318.474L96.2632 318.474L96.2632 313Z" fill="white"/>
<path class="preferences" fill-rule="evenodd" clip-rule="evenodd" d="M90.7896 315.737L89.4211 315.737L89.4211 318.474L90.1053 318.474C90.4832 318.474 90.7896 318.167 90.7896 317.79L90.7896 315.737Z" fill="white"/>
<path class="preferences" fill-rule="evenodd" clip-rule="evenodd" d="M86.6842 317.105V317.79C86.6842 318.167 86.9905 318.474 87.3684 318.474H90.1053C90.4831 318.474 90.7895 318.167 90.7895 317.79V317.105H86.6842Z" fill="white"/>
<path class="preferences" opacity="0.89" d="M121.222 317.7H125.111V318.8H121.222V317.7ZM121.222 315.5H126.778V316.6H121.222V315.5ZM121.222 313.3H126.778V314.4H121.222V313.3ZM127.889 311.1H125.567C125.333 310.462 124.722 310 124 310C123.278 310 122.667 310.462 122.433 311.1H120.111C120.033 311.1 119.961 311.105 119.889 311.122C119.672 311.166 119.478 311.276 119.328 311.424C119.228 311.523 119.144 311.645 119.089 311.777C119.033 311.903 119 312.046 119 312.2V319.9C119 320.049 119.033 320.197 119.089 320.329C119.144 320.461 119.228 320.576 119.328 320.681C119.478 320.83 119.672 320.939 119.889 320.983C119.961 320.995 120.033 321 120.111 321H127.889C128.5 321 129 320.505 129 319.9V312.2C129 311.595 128.5 311.1 127.889 311.1ZM124 310.963C124.228 310.963 124.417 311.15 124.417 311.375C124.417 311.6 124.228 311.788 124 311.788C123.772 311.788 123.583 311.6 123.583 311.375C123.583 311.15 123.772 310.963 124 310.963ZM127.889 319.9H120.111V312.2H127.889V319.9Z" fill="white"/>


<path d="M213 314L216.5 318L220 314" stroke="#8F9497" stroke-width="1.5" stroke-linecap="round" stroke-linejoin="round"/>
</g>
<path d="M29.447 468.895C29.1774 468.895 28.9079 468.83 28.6384 468.83C28.0993 468.766 27.6276 468.701 27.0885 468.637C24.0562 468.122 21.0913 467.221 18.3959 465.999C18.1938 465.935 17.9916 465.806 17.8569 465.742C17.3852 465.484 16.9135 465.227 16.4418 464.969C16.2396 464.841 16.0375 464.712 15.8353 464.583C14.7572 463.94 13.7464 463.296 12.7356 462.589C12.5335 462.46 12.3987 462.331 12.1966 462.202C11.6575 461.816 11.1858 461.366 10.6467 460.98C10.512 460.851 10.3098 460.722 10.175 460.529C9.97289 460.336 9.83813 460.208 9.63597 460.015C9.43382 459.822 9.29904 459.693 9.09689 459.5C8.96212 459.371 8.89474 459.307 8.75997 459.178C8.6252 459.049 8.49043 458.856 8.35566 458.728C7.54704 457.827 6.73843 456.926 5.9972 455.961C5.86243 455.768 5.72768 455.639 5.59291 455.446C5.18861 454.931 4.85168 454.352 4.51476 453.773C4.37999 453.58 4.24522 453.387 4.11045 453.13C3.23445 451.585 2.42585 449.977 1.81939 448.304C1.752 448.046 1.68462 447.853 1.54985 447.596C1.14555 446.438 0.808608 445.279 0.606455 444.057C0.539071 443.799 0.539083 443.542 0.471699 443.349C0.134777 441.611 0 439.874 0 438.072V34.1678C0 17.5663 13.7464 3.92483 30.9968 3.15266C15.4984 3.92483 3.09968 16.2151 3.09968 31.2079V440.968C3.16707 455.446 14.6898 467.415 29.447 468.895Z" fill="url(#paint0_linear_215_7)"/>
<path d="M243.998 34.1679V438.008C243.998 441.354 243.459 444.572 242.448 447.532C242.381 447.789 242.313 447.982 242.178 448.239C242.111 448.497 242.044 448.69 241.909 448.947C241.841 449.14 241.774 449.269 241.707 449.462C241.505 449.977 241.302 450.492 241.033 450.942C240.898 451.135 240.831 451.392 240.696 451.585C240.561 451.907 240.359 452.164 240.224 452.486C240.089 452.679 240.022 452.872 239.887 453.065C239.753 453.258 239.618 453.451 239.483 453.709C239.146 454.288 238.742 454.867 238.405 455.382C238.27 455.575 238.135 455.704 238.001 455.897C237.866 456.09 237.731 456.283 237.529 456.476C237.394 456.669 237.259 456.862 237.057 457.055C236.922 457.248 236.72 457.441 236.585 457.634C236.451 457.827 236.249 458.02 236.114 458.213C235.777 458.599 235.44 458.921 235.103 459.243C234.564 459.757 234.025 460.272 233.486 460.787C233.351 460.916 233.149 461.109 232.947 461.237C232.542 461.559 232.138 461.881 231.734 462.203C231.532 462.331 231.397 462.46 231.195 462.589C230.588 463.039 229.982 463.425 229.375 463.811C229.173 463.94 228.971 464.069 228.769 464.197C228.365 464.455 227.893 464.712 227.489 464.969C227.286 465.098 227.084 465.227 226.815 465.291C226.141 465.677 225.4 465.999 224.658 466.321C224.456 466.385 224.254 466.514 224.052 466.578C223.85 466.707 223.58 466.771 223.378 466.836C223.176 466.9 222.906 467.029 222.637 467.093C222.098 467.286 221.559 467.479 221.02 467.608C220.818 467.672 220.615 467.736 220.481 467.801C219.807 467.994 219.066 468.187 218.324 468.316C218.055 468.38 217.785 468.444 217.583 468.444C217.314 468.509 217.044 468.573 216.774 468.573C216.235 468.637 215.764 468.702 215.225 468.766C214.955 468.766 214.686 468.83 214.416 468.83C229.173 467.35 240.696 455.382 240.696 440.904V31.208C240.696 16.4726 228.769 4.37536 213.607 3.21712C230.656 4.37536 243.998 17.8238 243.998 34.1679Z" fill="url(#paint1_linear_215_7)"/>
<path d="M244 438.008V440.968C244 458.084 229.445 471.983 211.521 471.983H32.6154C14.6912 471.983 0.136169 458.084 0.136169 440.968V438.008C0.136169 439.81 0.270926 441.547 0.607848 443.285C0.675232 443.542 0.67524 443.799 0.742625 443.992C1.01216 445.215 1.2817 446.373 1.686 447.531C1.75339 447.789 1.82077 447.982 1.95553 448.239C2.56199 449.912 3.30324 451.521 4.24662 453.065C4.38139 453.258 4.51614 453.451 4.65091 453.709C4.98783 454.288 5.39214 454.867 5.72906 455.382C5.86383 455.575 5.9986 455.703 6.13337 455.897C6.8746 456.862 7.61583 457.827 8.49183 458.663C8.62659 458.792 8.76137 458.985 8.89614 459.114C9.0309 459.243 9.09829 459.371 9.23306 459.436C9.43521 459.629 9.56997 459.757 9.77212 459.95C9.97428 460.143 10.1091 460.272 10.3112 460.465C10.446 460.594 10.6481 460.787 10.7829 460.916C11.2546 461.366 11.7937 461.752 12.3327 462.138C12.5349 462.267 12.6697 462.396 12.8718 462.524C13.8826 463.232 14.8933 463.94 15.9715 464.519C16.1736 464.648 16.3758 464.776 16.5779 464.905C17.0496 465.162 17.5213 465.42 17.993 465.677C18.1952 465.742 18.3973 465.87 18.5321 465.935C21.2275 467.222 24.1924 468.122 27.2247 468.573C27.6964 468.637 28.2354 468.702 28.7745 468.766C29.3136 468.83 29.7853 468.895 30.3244 468.895C30.5939 468.895 30.8634 468.959 31.133 468.959C31.6047 468.959 32.1437 469.023 32.6828 469.023H211.588C212.127 469.023 212.599 469.023 213.071 468.959C213.34 468.959 213.61 468.959 213.879 468.895C214.284 468.895 214.755 468.83 215.16 468.766C215.227 468.766 215.362 468.766 215.429 468.766C215.968 468.702 216.44 468.637 216.979 468.573C217.249 468.508 217.518 468.508 217.788 468.444C218.057 468.38 218.327 468.315 218.529 468.315C219.27 468.187 220.011 467.994 220.685 467.801C220.887 467.736 221.089 467.672 221.224 467.608C221.763 467.479 222.302 467.286 222.841 467.093C223.044 467.029 223.313 466.9 223.583 466.835C223.852 466.771 224.054 466.642 224.257 466.578C224.459 466.514 224.661 466.449 224.863 466.321C225.604 465.999 226.278 465.677 227.019 465.291C227.221 465.162 227.424 465.098 227.693 464.969C228.097 464.712 228.569 464.519 228.973 464.197C229.176 464.069 229.378 463.94 229.58 463.811C230.186 463.425 230.793 462.975 231.399 462.589C231.601 462.46 231.736 462.331 231.938 462.203C232.343 461.881 232.747 461.559 233.151 461.237C233.353 461.109 233.488 460.916 233.69 460.787C234.229 460.272 234.768 459.757 235.308 459.243C235.644 458.921 235.981 458.535 236.318 458.213C236.453 458.02 236.655 457.827 236.79 457.634C236.925 457.441 237.127 457.248 237.262 457.055C237.396 456.862 237.599 456.669 237.733 456.476C237.868 456.283 238.003 456.09 238.205 455.897C238.34 455.703 238.475 455.575 238.609 455.382C239.014 454.803 239.351 454.288 239.688 453.709C239.822 453.516 239.957 453.323 240.092 453.065C240.227 452.872 240.294 452.679 240.429 452.486C240.564 452.164 240.766 451.907 240.9 451.585C241.035 451.392 241.103 451.135 241.237 450.942C241.44 450.427 241.709 449.977 241.911 449.462C241.979 449.269 242.046 449.14 242.113 448.947C242.181 448.754 242.316 448.497 242.383 448.239C242.45 448.046 242.518 447.789 242.652 447.531C243.461 444.571 244 441.354 244 438.008Z" fill="url(#paint2_linear_215_7)"/>
<path d="M244 31.2082V34.1681C244 18.0814 231.062 4.76165 214.621 3.28168C214.351 3.28168 214.081 3.21734 213.812 3.21734C213.542 3.21734 213.273 3.15299 213.003 3.15299C212.532 3.15299 211.993 3.08864 211.521 3.08864H32.6154C32.0763 3.08864 31.6047 3.08864 31.133 3.15299C13.8826 3.92515 0.136169 17.5023 0.136169 34.1681V31.2082C0.136169 30.8864 0.136169 30.6291 0.136169 30.3073C0.136169 30.0499 0.136169 29.8569 0.136169 29.5995C0.136169 29.0847 0.203541 28.6343 0.270926 28.1195C0.270926 27.8621 0.338314 27.6048 0.338314 27.3474C0.338314 27.2187 0.405703 27.09 0.405703 26.9613C0.405703 26.8326 0.473091 26.6396 0.473091 26.4465C0.540476 26.1891 0.540463 25.9317 0.607848 25.6744C0.675232 25.2239 0.810017 24.7735 0.877401 24.3874C0.944786 24.1944 1.01216 23.937 1.01216 23.7439C1.14693 23.1005 1.34909 22.457 1.55124 21.8135C1.61863 21.6205 1.68601 21.4275 1.75339 21.2344C1.82077 20.977 1.95554 20.7197 2.02292 20.5266C2.09031 20.3336 2.1577 20.1405 2.22509 19.9475C2.29247 19.7545 2.35985 19.6258 2.42723 19.4327C2.49462 19.2397 2.562 19.0466 2.69677 18.8536C2.76415 18.7249 2.83155 18.5319 2.89893 18.4032C2.96632 18.2101 3.10109 17.9527 3.23585 17.7597C3.43801 17.3736 3.64016 17.0519 3.84231 16.6658C3.90969 16.4728 4.04446 16.2797 4.17923 16.0867C4.314 15.8937 4.44877 15.6363 4.58354 15.4432C5.45954 13.9632 6.53769 12.612 7.61584 11.2607C7.75061 11.0676 7.95275 10.8746 8.08752 10.6816C8.28967 10.4885 8.49183 10.2955 8.6266 10.1024C8.96352 9.78071 9.30045 9.45897 9.63737 9.13724C9.97429 8.8155 10.3786 8.42942 10.7155 8.10769C11.1198 7.78595 11.4567 7.46422 11.861 7.14248C12.0632 7.01379 12.2653 6.82075 12.4675 6.69206C12.8718 6.37033 13.2761 6.11294 13.6804 5.79121C14.0847 5.53382 14.489 5.21209 14.9607 4.9547C15.365 4.69731 15.8367 4.43993 16.241 4.18254C16.4432 4.05385 16.7127 3.92515 16.9149 3.79645C17.117 3.66776 17.3866 3.53907 17.5887 3.47472C17.7909 3.34603 18.0604 3.28168 18.2626 3.15299C18.4647 3.02429 18.7342 2.95995 18.9364 2.83125C19.4081 2.63821 19.8798 2.44518 20.3515 2.25214C20.5536 2.18779 20.8232 2.05909 21.0253 1.99474H21.0927C21.2949 1.9304 21.5644 1.86605 21.7666 1.73736C21.9687 1.67301 22.2382 1.60867 22.4404 1.54432C22.7099 1.47997 22.9795 1.41563 23.249 1.28694C23.5185 1.22259 23.7207 1.15824 23.9902 1.09389C24.2598 1.02955 24.4619 0.965198 24.7315 0.900851C25.001 0.836504 25.2705 0.772155 25.4727 0.707808C26.0118 0.579115 26.4834 0.514768 27.0225 0.386075C27.2921 0.321728 27.5616 0.32173 27.8311 0.257383C28.3702 0.193036 28.9767 0.128688 29.5158 0.0643409C29.9874 -5.89208e-06 30.3918 0 30.8634 0C31.133 0 31.4025 0 31.672 0C31.9416 0 32.2111 0 32.4807 0H211.386C211.656 0 211.925 0 212.195 0C212.397 0 212.666 0 212.869 0C213.408 0 213.947 0.0643448 214.418 0.128692C214.688 0.128692 214.957 0.193032 215.227 0.193032C215.497 0.193032 215.766 0.257387 216.036 0.321734C216.305 0.386081 216.575 0.386079 216.844 0.450425C217.114 0.514772 217.383 0.51477 217.585 0.579117C217.855 0.643464 218.125 0.707808 218.327 0.707808C218.529 0.772155 218.798 0.8365 219.001 0.8365C219.068 0.8365 219.135 0.836504 219.135 0.900851C219.337 0.965198 219.54 1.02955 219.809 1.09389C220.146 1.15824 220.416 1.22258 220.685 1.35128C220.887 1.41562 221.089 1.47997 221.292 1.54432C221.763 1.67301 222.168 1.86605 222.639 1.99474C222.976 2.12344 223.246 2.18778 223.515 2.31648C223.717 2.38082 223.92 2.50952 224.189 2.57387C224.391 2.63822 224.661 2.76691 224.863 2.8956C225.065 3.0243 225.335 3.08864 225.537 3.21734C227.154 3.9895 228.704 4.89035 230.186 5.9199C230.389 6.04859 230.523 6.17728 230.725 6.30597C231.399 6.7564 232.006 7.27118 232.612 7.72161C232.882 7.91465 233.151 8.17203 233.421 8.42942C234.499 9.33027 235.442 10.3598 236.318 11.3894C236.453 11.5824 236.655 11.7755 236.79 11.9685C237.127 12.3546 237.396 12.7407 237.733 13.1911C237.868 13.3841 238.07 13.5772 238.205 13.8346C238.475 14.1563 238.677 14.5424 238.946 14.9284C239.081 15.1215 239.148 15.3145 239.283 15.5076C239.485 15.8293 239.688 16.2154 239.89 16.5371C239.957 16.7302 240.092 16.8589 240.159 17.0519C240.496 17.631 240.766 18.2745 241.103 18.8536C241.17 18.9823 241.237 19.1753 241.305 19.3684C241.574 20.0118 241.844 20.591 242.046 21.2344C242.113 21.4918 242.181 21.6849 242.316 21.9422C242.787 23.2935 243.124 24.7092 243.326 26.1248C243.326 26.2535 243.394 26.4465 243.394 26.5752C243.461 26.8326 243.461 27.09 243.528 27.3474C243.528 27.6048 243.596 27.8621 243.596 28.1195C243.596 28.3769 243.663 28.6343 243.663 28.8917C243.663 29.3421 243.731 29.8569 243.731 30.3073C244 30.6291 244 30.9508 244 31.2082Z" fill="url(#paint3_linear_215_7)"/>
<path d="M213.002 3.15273C212.53 3.15273 211.991 3.08838 211.519 3.08838H32.6138C32.0747 3.08838 31.603 3.08838 31.1313 3.15273C15.6329 3.92489 3.23419 16.2151 3.23419 31.2079V440.968C3.23419 455.704 15.1612 467.801 30.3227 468.959C30.5922 468.959 30.8618 469.023 31.1313 469.023C31.603 469.023 32.1421 469.088 32.6811 469.088H211.587C212.126 469.088 212.597 469.088 213.069 469.023C213.339 469.023 213.608 469.023 213.878 468.959C229.039 467.801 240.966 455.704 240.966 440.968V31.2079C240.899 16.2151 228.5 3.92489 213.002 3.15273ZM238.406 440.968C238.406 454.288 227.489 465.549 213.608 466.578C213.339 466.578 213.136 466.642 212.867 466.642C212.395 466.642 211.924 466.707 211.452 466.707H32.6138C32.1421 466.707 31.6704 466.707 31.1987 466.642C30.9292 466.642 30.727 466.643 30.4575 466.578C16.5763 465.549 5.66001 454.288 5.66001 440.968V31.2079C5.66001 17.5664 16.8458 6.30572 31.1313 5.53356H31.1987C31.6704 5.53356 32.1421 5.53356 32.6138 5.53356H211.519C211.991 5.53356 212.463 5.53356 212.934 5.53356H213.002C227.287 6.24137 238.473 17.5021 238.473 31.2079V440.968H238.406Z" fill="black"/>
<path d="M238.406 31.4013V441.162C238.406 443.671 238.002 446.181 237.261 448.497C236.654 450.363 235.846 452.165 234.902 453.773C234.7 454.095 234.498 454.481 234.296 454.803C233.959 455.318 233.622 455.768 233.285 456.283C232.274 457.634 231.061 458.857 229.849 460.015C232.207 456.09 233.555 451.521 233.555 446.695V441.998C233.555 441.741 233.555 441.419 233.555 441.162V31.337C233.555 31.0153 233.555 30.7579 233.555 30.5005V25.8675C233.555 20.9772 232.207 16.4086 229.849 12.4834C235.104 17.1807 238.406 23.9371 238.406 31.4013Z" fill="url(#paint4_linear_215_7)"/>
<path d="M212.8 7.91455H212.665C212.261 7.91455 211.857 7.91455 211.452 7.91455H32.6144C32.2101 7.91455 31.8058 7.91455 31.4015 7.91455H31.2667H31.1993C18.2615 8.62237 8.15387 18.8535 8.15387 31.2081V440.968C8.15387 453.065 18.0594 463.297 30.6602 464.262C30.8624 464.262 31.0645 464.262 31.2667 464.326H31.3341C31.7384 464.326 32.2101 464.39 32.6144 464.39H211.52C211.924 464.39 212.328 464.391 212.8 464.326H212.868C213.07 464.326 213.272 464.326 213.474 464.262C226.075 463.297 235.98 453.065 235.98 440.968V31.2081C235.913 18.7892 225.738 8.55802 212.8 7.91455ZM229.377 440.968C229.377 449.848 222.167 457.312 212.868 458.02C212.8 458.02 212.665 458.02 212.598 458.02H212.531H212.463H212.396H212.328H212.261C211.992 458.02 211.655 458.02 211.385 458.02H32.6144C32.2775 458.02 32.0079 458.02 31.671 458.02H31.6036H31.5362H31.4689H31.4015H31.3341C31.2667 458.02 31.1993 458.02 31.0646 458.02C21.8329 457.312 14.5554 449.848 14.5554 440.968V31.2081C14.5554 22.1995 21.9003 14.7353 31.2667 14.1562H31.4015H31.671C31.9405 14.1562 32.2101 14.1562 32.4796 14.1562H211.385C211.655 14.1562 211.924 14.1562 212.194 14.1562H212.261H212.328C221.83 14.6066 229.309 22.1352 229.309 31.2724V440.968H229.377Z" fill="black"/>
<path d="M182.882 14.0918V16.3439C182.882 23.8725 176.481 29.9854 168.597 29.9854H75.4718C67.5878 29.9854 61.1863 23.8725 61.1863 16.3439V14.0918H182.882Z" fill="black"/>
<path d="M182.882 14.0918V16.3439C182.882 23.8725 176.481 29.9854 168.597 29.9854H75.4715C67.5875 29.9854 61.186 23.8725 61.186 16.3439V14.0918H182.882Z" fill="black"/>
<path d="M233.42 441.934V446.631C233.42 451.457 232.072 456.026 229.714 459.951C225.401 463.747 219.808 466.257 213.609 466.707C213.339 466.707 213.137 466.771 212.867 466.771C212.396 466.771 211.924 466.836 211.452 466.836H32.6143C32.1426 466.836 31.671 466.836 31.1993 466.771C30.9297 466.771 30.7276 466.771 30.458 466.707C30.1211 466.707 29.7842 466.643 29.4473 466.578C23.6522 465.935 18.4636 463.49 14.3532 459.886C11.9947 455.961 10.647 451.393 10.647 446.567V441.033C10.647 447.339 13.6119 453.066 18.3962 456.926C21.8328 459.693 26.1454 461.559 30.8623 461.881C30.9971 461.881 31.1992 461.881 31.334 461.881H31.4014H31.4688C31.8731 461.881 32.21 461.881 32.6143 461.881H211.52C211.924 461.881 212.261 461.881 212.665 461.881H212.733H212.8C213.002 461.881 213.137 461.881 213.339 461.881C224.255 461.173 233.015 452.486 233.42 441.934Z" fill="url(#paint5_linear_215_7)"/>
<path d="M238.406 31.4008C238.406 17.695 227.221 6.43427 212.935 5.66211H212.868C212.396 5.66211 211.924 5.66211 211.453 5.66211H32.6146C32.1429 5.66211 31.6713 5.66211 31.1996 5.66211H31.1322C30.5257 5.66211 29.9866 5.72646 29.3802 5.79081C23.5851 6.43428 18.3965 8.8151 14.2861 12.4185C11.9276 16.3437 10.58 20.9123 10.58 25.8026V31.3365C10.58 24.9661 13.5449 19.2393 18.2618 15.3785C21.7658 12.5472 26.2805 10.6812 31.1996 10.4238H31.3343H31.4691C31.8734 10.4238 32.2103 10.4238 32.4799 10.4238H211.385C211.655 10.4238 211.992 10.4238 212.329 10.4238H212.531C223.851 11.0029 232.814 19.7541 233.285 30.5V25.867C233.285 20.9766 231.938 16.408 229.579 12.4829C235.105 17.1802 238.406 23.9366 238.406 31.4008Z" fill="url(#paint6_linear_215_7)"/>
<path d="M14.3538 459.886C9.03043 455.188 5.66119 448.432 5.66119 441.032V31.2075C5.66119 23.7433 8.96304 16.9869 14.3538 12.2896C11.9953 16.2147 10.6477 20.7833 10.6477 25.6737V446.501C10.6477 451.327 11.9953 455.896 14.3538 459.886Z" fill="url(#paint7_linear_215_7)"/>
<path d="M238.407 31.4008V441.161C238.407 443.67 238.003 446.18 237.262 448.496C236.655 450.362 235.847 452.164 234.903 453.773C234.701 454.095 234.499 454.481 234.297 454.802C233.96 455.317 233.623 455.768 233.286 456.282C232.275 457.634 231.062 458.921 229.782 460.014C229.782 460.014 229.782 460.015 229.782 459.95C232.14 456.025 233.488 451.456 233.488 446.63V25.8026C233.488 20.9122 232.14 16.3436 229.782 12.4185C235.105 17.1801 238.407 23.9365 238.407 31.4008Z" fill="url(#paint8_linear_215_7)"/>
<path d="M134.365 18.7892H108.22C107.546 18.7892 107.007 18.2744 107.007 17.6309V17.0518C107.007 16.4083 107.546 15.8936 108.22 15.8936H134.365C135.039 15.8936 135.578 16.4083 135.578 17.0518V17.6309C135.578 18.3387 135.039 18.7892 134.365 18.7892Z" fill="url(#paint9_linear_215_7)"/>
<defs>
<filter id="filter0_d_215_7" x="190" y="76" width="21" height="16.1429" filterUnits="userSpaceOnUse" color-interpolation-filters="sRGB">
<feFlood flood-opacity="0" result="BackgroundImageFix"/>
<feColorMatrix in="SourceAlpha" type="matrix" values="0 0 0 0 0 0 0 0 0 0 0 0 0 0 0 0 0 0 127 0" result="hardAlpha"/>
<feOffset/>
<feGaussianBlur stdDeviation="1"/>
<feComposite in2="hardAlpha" operator="out"/>
<feColorMatrix type="matrix" values="0 0 0 0 0 0 0 0 0 0 0 0 0 0 0 0 0 0 0.23 0"/>
<feBlend mode="normal" in2="BackgroundImageFix" result="effect1_dropShadow_215_7"/>
<feBlend mode="normal" in="SourceGraphic" in2="effect1_dropShadow_215_7" result="shape"/>
</filter>
<linearGradient id="paint0_linear_215_7" x1="0.0751336" y1="236.052" x2="3.67689" y2="236.052" gradientUnits="userSpaceOnUse">
<stop stop-color="#666666"/>
<stop offset="1"/>
</linearGradient>
<linearGradient id="paint1_linear_215_7" x1="240.961" y1="236.076" x2="244.532" y2="236.076" gradientUnits="userSpaceOnUse">
<stop/>
<stop offset="1" stop-color="#666666"/>
</linearGradient>
<linearGradient id="paint2_linear_215_7" x1="122.034" y1="472.03" x2="122.034" y2="444.798" gradientUnits="userSpaceOnUse">
<stop stop-color="#959595"/>
<stop offset="1"/>
</linearGradient>
<linearGradient id="paint3_linear_215_7" x1="122.034" y1="26.1866" x2="122.034" y2="-7.81504" gradientUnits="userSpaceOnUse">
<stop/>
<stop offset="1" stop-color="#808080"/>
</linearGradient>
<linearGradient id="paint4_linear_215_7" x1="229.729" y1="236.23" x2="238.399" y2="236.23" gradientUnits="userSpaceOnUse">
<stop stop-color="#F1F1F1"/>
<stop offset="0.00125858" stop-color="#F0F0F0"/>
<stop offset="0.1385" stop-color="#B7B7B7"/>
<stop offset="0.2715" stop-color="#888888"/>
<stop offset="0.397" stop-color="#636363"/>
<stop offset="0.5134" stop-color="#494949"/>
<stop offset="0.6172" stop-color="#393939"/>
<stop offset="0.6978" stop-color="#333333"/>
</linearGradient>
<linearGradient id="paint5_linear_215_7" x1="10.6389" y1="453.969" x2="233.434" y2="453.969" gradientUnits="userSpaceOnUse">
<stop stop-color="#1A1A1A"/>
<stop offset="0.1173" stop-color="#454545"/>
<stop offset="0.2314" stop-color="#666666"/>
<stop offset="0.3395" stop-color="#7E7E7E"/>
<stop offset="0.4393" stop-color="#8D8D8D"/>
<stop offset="0.5229" stop-color="#929292"/>
<stop offset="0.5926" stop-color="#8B8B8B"/>
<stop offset="0.6974" stop-color="#767676"/>
<stop offset="0.8246" stop-color="#545454"/>
<stop offset="0.968" stop-color="#252525"/>
<stop offset="1" stop-color="#1A1A1A"/>
</linearGradient>
<linearGradient id="paint6_linear_215_7" x1="10.6393" y1="18.517" x2="238.418" y2="18.517" gradientUnits="userSpaceOnUse">
<stop stop-color="#1A1A1A"/>
<stop offset="0.1173" stop-color="#454545"/>
<stop offset="0.2314" stop-color="#666666"/>
<stop offset="0.3395" stop-color="#7E7E7E"/>
<stop offset="0.4393" stop-color="#8D8D8D"/>
<stop offset="0.5229" stop-color="#929292"/>
<stop offset="0.5926" stop-color="#8B8B8B"/>
<stop offset="0.6974" stop-color="#767676"/>
<stop offset="0.8246" stop-color="#545454"/>
<stop offset="0.968" stop-color="#252525"/>
<stop offset="1" stop-color="#1A1A1A"/>
</linearGradient>
<linearGradient id="paint7_linear_215_7" x1="5.66194" y1="236.087" x2="10.806" y2="236.087" gradientUnits="userSpaceOnUse">
<stop stop-color="#C8C8C8"/>
<stop offset="0.2107" stop-color="#A0A0A0"/>
<stop offset="0.5867" stop-color="#5D5D5D"/>
<stop offset="0.8599" stop-color="#343434"/>
<stop offset="1" stop-color="#242424"/>
</linearGradient>
<linearGradient id="paint8_linear_215_7" x1="229.705" y1="236.253" x2="238.4" y2="236.253" gradientUnits="userSpaceOnUse">
<stop stop-color="#242424"/>
<stop offset="0.1401" stop-color="#343434"/>
<stop offset="0.4133" stop-color="#5D5D5D"/>
<stop offset="0.7893" stop-color="#A0A0A0"/>
<stop offset="1" stop-color="#C8C8C8"/>
</linearGradient>
<linearGradient id="paint9_linear_215_7" x1="107.008" y1="17.3866" x2="135.558" y2="17.3866" gradientUnits="userSpaceOnUse">
<stop stop-color="#333333"/>
<stop offset="0.0901238" stop-color="#2B2B2B"/>
<stop offset="0.2885" stop-color="#1E1E1E"/>
<stop offset="0.4787" stop-color="#1A1A1A"/>
<stop offset="0.7885" stop-color="#1C1C1C"/>
<stop offset="0.8999" stop-color="#232323"/>
<stop offset="0.9792" stop-color="#2E2E2E"/>
<stop offset="1" stop-color="#333333"/>
</linearGradient>
<clipPath id="clip0_215_7">
<rect x="14" y="11" width="216" height="459" rx="15" fill="white"/>
</clipPath>
</defs>
</svg>
