<svg width="244" height="472" viewBox="0 0 244 472" fill="none" xmlns="http://www.w3.org/2000/svg">
<style>
    <![CDATA[
    @keyframes select {
        to { fill: #FEF0E7; }
    }
    @keyframes fadeIn {
        to { opacity: 1; }
    }
    @keyframes fadeOut {
        to { opacity: 0; }
    }

    #answer {
        fill: white;
        animation: select .3s linear 1s forwards;
    }

    .indicator {
        opacity: 0;
        animation: fadeIn 0s 1.3s forwards;
    }

    .wrong-variant, #indicators {
        animation: fadeOut 1.5s linear 2s forwards;
    }

    ]]>
</style>
<rect x="29" y="42" width="186" height="31" fill="#FEFEFE" fill-opacity="0.82"/>
<path d="M189.73 54.751C189.512 54.1397 188.12 52.7762 187.729 52.8009C187.338 52.8269 189.125 54.454 189.13 55.46" fill="#62CC40"/>
<path d="M189.129 55.6021C189.051 55.6021 188.989 55.539 188.988 55.4623C188.986 54.9302 188.387 54.1383 187.992 53.6149C187.608 53.1076 187.48 52.9245 187.549 52.771C187.579 52.7067 187.641 52.6671 187.719 52.6622C188.21 52.6312 189.634 54.0678 189.862 54.705C189.888 54.778 189.849 54.8584 189.776 54.8844C189.703 54.9104 189.623 54.8721 189.597 54.7991C189.4 54.2472 188.334 53.2301 187.888 52.9925C187.97 53.1175 188.102 53.2932 188.217 53.4454C188.66 54.0319 189.268 54.8349 189.27 55.461C189.27 55.5377 189.207 55.6009 189.129 55.6021Z" fill="#650000"/>
<path d="M187.967 52.9993C187.967 52.9993 187.46 52.4115 187.42 51.5157C187.354 49.9715 188.717 48.6611 189.828 48.1415C189.828 48.1415 189.114 48.9371 189.047 50.0495C189.009 50.6916 189.646 52.3719 187.967 52.9993Z" fill="#4FAD2B"/>
<path d="M188.613 52.2731C188.985 51.7819 188.908 51.1137 188.846 50.5767C188.823 50.3676 188.802 50.1869 188.81 50.036C188.838 49.5905 188.96 49.1934 189.104 48.8704C188.876 49.2626 188.662 49.6413 188.639 50.0112C188.603 50.5866 188.77 51.7918 188.192 51.5802C188.017 52.0021 187.807 51.8908 187.72 51.5604C187.745 52.1271 187.911 52.5033 188.047 52.7099C188.291 52.5973 188.476 52.4538 188.613 52.2731Z" fill="#42841F"/>
<path d="M187.967 53.1396C187.928 53.1396 187.888 53.1223 187.861 53.0913C187.839 53.0654 187.321 52.4554 187.281 51.5212C187.208 49.8359 188.73 48.4996 189.77 48.0133C189.831 47.9848 189.903 48.0034 189.942 48.0566C189.982 48.1098 189.978 48.184 189.933 48.2348C189.927 48.2422 189.25 49.0093 189.187 50.0574C189.18 50.1749 189.2 50.3407 189.221 50.5325C189.31 51.3021 189.457 52.5915 188.014 53.1309C188.001 53.1371 187.985 53.1396 187.967 53.1396ZM189.366 48.5651C188.477 49.1516 187.506 50.2232 187.561 51.5088C187.59 52.1621 187.886 52.6471 188.014 52.829C189.148 52.3489 189.03 51.3207 188.942 50.5647C188.919 50.3593 188.899 50.1836 188.906 50.0413C188.945 49.4325 189.163 48.919 189.366 48.5651Z" fill="#650000"/>
<path d="M187.89 53.2377C187.89 53.2377 187.214 52.4396 185.905 51.9125C185.061 51.5722 184.086 51.6341 183.142 50.9189C183.142 50.9189 183.419 52.6759 185.615 53.5235C187.067 54.0853 187.89 53.2377 187.89 53.2377Z" fill="#62CC40"/>
<path d="M187.533 53.2145C187.263 52.9596 186.683 52.482 185.814 52.133C185.533 52.0204 186.619 52.9126 185.587 52.7752C186.522 53.5461 184.422 52.8123 185.698 53.3048C186.616 53.6574 187.242 53.4001 187.533 53.2145Z" fill="#43A31F"/>
<path d="M186.583 53.8586C186.286 53.8586 185.945 53.8029 185.563 53.6557C183.317 52.7895 183.014 51.0164 183.002 50.9422C182.993 50.8852 183.019 50.8296 183.068 50.7999C183.118 50.7702 183.18 50.7739 183.226 50.8085C183.81 51.2515 184.412 51.3851 184.994 51.5138C185.329 51.5881 185.646 51.6586 185.956 51.7836C187.283 52.3169 187.967 53.1149 187.996 53.1483C188.043 53.204 188.04 53.2857 187.989 53.3377C187.962 53.3636 187.468 53.8586 186.583 53.8586ZM183.382 51.2503C183.581 51.7873 184.145 52.8068 185.666 53.3933C186.731 53.8041 187.434 53.4131 187.685 53.2263C187.459 52.9986 186.836 52.4393 185.852 52.0434C185.564 51.9271 185.259 51.859 184.934 51.7873C184.427 51.6759 183.905 51.5596 183.382 51.2503Z" fill="#650000"/>
<path d="M188.862 49.1991C188.42 49.7027 188.227 50.3857 188.211 51.044C188.208 51.3744 188.281 51.6998 188.3 52.0438C188.325 52.3915 188.236 52.7553 188.046 53.0497L187.889 52.947C187.98 52.8146 188.053 52.6736 188.097 52.5214C188.242 52.0388 188.087 51.5439 188.118 51.0403C188.166 50.3758 188.393 49.6866 188.862 49.1991Z" fill="#650000"/>
<path d="M183.786 51.6905C184.889 52.4725 186.493 53.3449 187.879 53.1457L187.905 53.3313C186.466 53.4797 184.886 52.5418 183.786 51.6905Z" fill="#650000"/>
<path d="M191.232 66.1999C192.87 66.2717 194.236 65.4822 194.282 64.4379C194.282 64.4379 194.2 63.6893 194.219 63.0682C194.242 62.2911 194.411 61.4807 194.434 60.961C194.48 59.9154 193.188 59.0097 191.55 58.9379C189.912 58.8661 188.546 59.6556 188.5 60.6999C188.478 61.2208 188.574 62.0412 188.53 62.8182C188.495 63.4381 188.348 64.1768 188.348 64.1768C188.302 65.2224 189.594 66.1281 191.232 66.1999Z" fill="#62CC40"/>
<path d="M193.826 62.1224C193.859 61.8638 193.034 62.6359 191.611 62.4651C190.936 62.3847 191.701 63.1605 191.661 64.0007C191.621 64.7975 190.869 65.6686 191.421 65.7651C191.972 65.8604 193.814 65.3518 193.794 64.4647C193.777 63.622 193.706 63.0628 193.826 62.1224Z" fill="#43A31F"/>
<path d="M191.433 66.3921C191.363 66.3921 191.292 66.3908 191.222 66.3871C189.482 66.3104 188.108 65.3156 188.158 64.1686L188.162 64.1401C188.163 64.1327 188.306 63.4076 188.341 62.8075C188.366 62.3769 188.346 61.9253 188.327 61.5256C188.314 61.2163 188.3 60.9255 188.311 60.6916C188.362 59.5446 189.818 58.6748 191.557 58.7502C193.297 58.8269 194.67 59.8218 194.621 60.9688C194.611 61.2026 194.572 61.4922 194.532 61.7978C194.478 62.1938 194.419 62.6417 194.407 63.0735C194.388 63.6736 194.467 64.4086 194.468 64.416L194.47 64.4309V64.4457C194.419 65.5457 193.078 66.3921 191.433 66.3921ZM191.238 66.0134C192.763 66.0815 194.039 65.3774 194.091 64.4433C194.079 64.3307 194.011 63.6489 194.029 63.0624C194.043 62.612 194.105 62.1542 194.158 61.7496C194.197 61.4514 194.235 61.1705 194.244 60.9527C194.285 60.0123 193.073 59.1932 191.54 59.1251C190.007 59.0583 188.726 59.7686 188.685 60.7089C188.675 60.9255 188.688 61.2101 188.701 61.5095C188.72 61.9178 188.74 62.3794 188.715 62.8285C188.681 63.4138 188.554 64.0869 188.532 64.1983C188.503 65.1337 189.713 65.9454 191.238 66.0134Z" fill="#650000"/>
<g opacity="0.5">
<path d="M188.819 64.738C189.137 65.1859 189.684 65.4408 189.931 65.2242C190.229 64.9632 189.858 64.8036 189.931 63.4821C189.952 63.1059 190.294 62.4439 190.039 62.1457C189.828 61.8995 189.489 62.0406 188.961 61.6397C188.616 61.3773 188.958 62.465 188.986 63.169C189.022 64.1069 188.524 64.3247 188.819 64.738Z" fill="white"/>
</g>
<path d="M191.414 61.9534C193.052 62.0251 194.418 61.2357 194.464 60.1914C194.464 60.1914 194.382 59.4428 194.401 58.8217C194.424 58.0446 194.593 57.2341 194.616 56.7145C194.662 55.6689 193.37 54.7632 191.732 54.6914C190.094 54.6196 188.728 55.4091 188.682 56.4534C188.66 56.9743 188.756 57.7947 188.712 58.5717C188.677 59.1916 188.53 59.9303 188.53 59.9303C188.484 60.9759 189.776 61.8816 191.414 61.9534Z" fill="#62CC40"/>
<path d="M194.01 57.8772C194.043 57.6186 193.218 58.3907 191.795 58.22C191.119 58.1395 191.885 58.9153 191.845 59.7555C191.805 60.5524 191.053 61.4234 191.604 61.52C192.156 61.6165 193.998 61.1067 193.978 60.2195C193.959 59.3756 193.89 58.8164 194.01 57.8772Z" fill="#43A31F"/>
<path d="M191.616 62.1459C191.545 62.1459 191.475 62.1447 191.404 62.141C189.664 62.0643 188.291 61.0694 188.34 59.9224L188.344 59.894C188.345 59.8865 188.489 59.1615 188.524 58.5613C188.548 58.1307 188.528 57.6791 188.51 57.2795C188.496 56.9701 188.483 56.6793 188.494 56.4455C188.519 55.8738 188.881 55.3566 189.515 54.9916C190.121 54.6414 190.912 54.4682 191.739 54.5041C193.479 54.5808 194.853 55.5756 194.802 56.7226C194.792 56.9565 194.754 57.246 194.713 57.5517C194.661 57.9476 194.6 58.3955 194.588 58.8274C194.569 59.4287 194.648 60.1625 194.65 60.1699L194.651 60.1847V60.1996C194.601 61.2996 193.26 62.1459 191.616 62.1459ZM188.715 59.9521C188.687 60.8863 189.896 61.6993 191.42 61.7661C192.946 61.8329 194.222 61.1301 194.273 60.1959C194.261 60.0833 194.193 59.4015 194.212 58.815C194.225 58.3646 194.287 57.9068 194.34 57.5022C194.38 57.204 194.417 56.9231 194.427 56.7053C194.468 55.7649 193.255 54.9458 191.722 54.8778C190.965 54.8444 190.247 55.0003 189.701 55.3146C189.183 55.614 188.886 56.0211 188.868 56.4603C188.858 56.6781 188.87 56.9615 188.884 57.2621C188.902 57.6692 188.922 58.132 188.897 58.5811C188.864 59.1676 188.736 59.842 188.715 59.9521Z" fill="#650000"/>
<g opacity="0.5">
<path d="M189.001 60.4911C189.319 60.939 189.866 61.1939 190.113 60.9774C190.412 60.7163 190.04 60.5567 190.113 59.2352C190.134 58.859 190.476 58.197 190.221 57.8988C190.011 57.6526 189.672 57.7937 189.143 57.3928C188.798 57.1305 189.141 58.2181 189.168 58.9221C189.203 59.8588 188.707 60.0778 189.001 60.4911Z" fill="white"/>
</g>
<path d="M191.598 57.7689C193.236 57.8406 194.602 57.0512 194.648 56.0069C194.648 56.0069 194.566 55.2583 194.585 54.6371C194.608 53.8601 194.777 53.0496 194.8 52.5299C194.846 51.4844 193.554 50.5786 191.916 50.5069C190.278 50.4351 188.912 51.2245 188.866 52.2689C188.844 52.7898 188.94 53.6101 188.896 54.3872C188.861 55.0071 188.714 55.7458 188.714 55.7458C188.668 56.7914 189.96 57.6971 191.598 57.7689Z" fill="#62CC40"/>
<g opacity="0.5">
<path d="M189.125 56.3078C189.356 56.7433 189.916 56.8905 190.029 56.7742C190.244 56.5527 189.842 56.0454 190.071 55.303C190.182 54.943 190.563 54.5718 190.308 54.2736C190.098 54.0273 189.794 54.1486 189.255 53.5831C188.957 53.2701 189.278 54.2562 189.227 55.0506C189.206 55.381 188.888 55.8586 189.125 56.3078Z" fill="white"/>
</g>
<path d="M194.348 53.806C194.001 55.0087 194.374 55.933 194.246 56.183C193.927 56.8054 192.425 57.3721 191.456 57.1197C190.7 56.9229 191.931 56.2065 191.487 55.0422C191.155 54.1723 192.598 55.3849 194.348 53.806Z" fill="#43A31F"/>
<path d="M188.871 52.269C188.825 53.3142 190.116 54.2198 191.754 54.2916C193.393 54.3635 194.758 53.5745 194.804 52.5293C194.85 51.4841 193.559 50.5786 191.92 50.5067C190.282 50.4348 188.916 51.2238 188.871 52.269Z" fill="#E1FFD4"/>
<path d="M194.404 52.9551C194.479 52.8104 194.52 52.6594 194.527 52.5047C194.546 52.0717 194.292 51.6485 193.81 51.3107C193.306 50.9568 192.621 50.744 191.881 50.7118C190.674 50.6586 189.577 51.1127 189.212 51.8168C189.136 51.9615 189.095 52.1125 189.088 52.2672C189.069 52.7002 189.324 53.1234 189.806 53.4612C190.309 53.8151 190.995 54.0279 191.735 54.0601C192.94 54.112 194.037 53.6579 194.404 52.9551Z" fill="#E1FFD4"/>
<path d="M191.53 54.0456C191.598 54.0518 191.666 54.0555 191.734 54.0592C192.94 54.1124 194.038 53.6583 194.403 52.9555C194.478 52.8107 194.519 52.6598 194.526 52.5051C194.545 52.072 194.29 51.6476 193.809 51.3111C193.566 51.1403 193.28 51.003 192.967 50.9028C193.183 50.9918 193.381 51.0983 193.559 51.2232C194.052 51.5697 194.315 52.0052 194.295 52.4494C194.288 52.6078 194.245 52.7625 194.169 52.911C193.804 53.6101 192.727 54.0704 191.53 54.0456Z" fill="#BEE8AA"/>
<path d="M191.805 57.9601C191.734 57.9601 191.664 57.9589 191.593 57.9552C190.766 57.9193 189.993 57.6768 189.421 57.2746C188.822 56.8539 188.505 56.3083 188.531 55.7366L188.535 55.7081C188.536 55.7007 188.679 54.9756 188.714 54.3755C188.739 53.9449 188.719 53.4933 188.7 53.0936C188.687 52.7843 188.673 52.4935 188.684 52.2597C188.735 51.1126 190.19 50.2416 191.93 50.3183C192.758 50.3542 193.53 50.5967 194.103 50.9988C194.702 51.4195 195.018 51.9652 194.992 52.5368C194.982 52.7707 194.944 53.0602 194.903 53.3671C194.85 53.763 194.791 54.211 194.778 54.6428C194.76 55.2429 194.839 55.9779 194.84 55.9853L194.841 56.0002V56.015C194.791 57.1138 193.449 57.9601 191.805 57.9601ZM191.609 57.5802C193.135 57.6471 194.411 56.9443 194.463 56.0101C194.45 55.8975 194.382 55.2157 194.401 54.6292C194.414 54.1788 194.476 53.721 194.53 53.3164C194.569 53.0182 194.606 52.7373 194.616 52.5195C194.636 52.0803 194.376 51.6484 193.885 51.3044C193.369 50.9431 192.669 50.7254 191.911 50.6919C190.378 50.6239 189.098 51.3354 189.057 52.2758C189.047 52.4935 189.059 52.7769 189.073 53.0776C189.091 53.4846 189.111 53.9474 189.086 54.3966C189.053 54.9818 188.926 55.6549 188.903 55.7663C188.89 56.2006 189.15 56.6275 189.635 56.9678C190.152 57.3303 190.852 57.5481 191.609 57.5802Z" fill="#650000"/>
<path d="M190.217 53.9484C191.172 54.2169 192.161 54.2714 193.142 54.1365C192.236 54.5337 191.064 54.4644 190.217 53.9484Z" fill="#650000"/>
<path d="M194.01 53.7449C194.266 53.4158 194.513 53.0928 194.586 52.6956C194.656 52.322 194.505 51.9594 194.257 51.6761C193.722 51.0784 192.878 50.7778 192.081 50.7072C190.575 50.5476 188.271 51.4533 189.282 53.3032C188.882 53.0582 188.631 52.5657 188.702 52.0856C188.765 51.5956 189.1 51.1811 189.492 50.9114C190.598 50.1727 192.216 50.164 193.432 50.6256C194.079 50.8817 194.721 51.3333 194.938 52.0324C195.17 52.7587 194.742 53.5494 194.01 53.7449Z" fill="#650000"/>
<path d="M191.713 53.5345C192.729 53.5791 193.602 53.2524 193.903 52.7649C193.97 52.656 194.009 52.5397 194.014 52.4172C194.044 51.7453 193.061 51.1576 191.819 51.1031C190.578 51.0487 189.547 51.5486 189.518 52.2205C189.513 52.343 189.541 52.463 189.598 52.5768C189.857 53.0878 190.698 53.49 191.713 53.5345Z" fill="#E1FFD4"/>
<path d="M191.713 53.5343C192.727 53.5789 193.602 53.2522 193.903 52.7647C193.97 52.6558 194.009 52.5395 194.014 52.417C194.044 51.7451 193.061 51.1562 191.819 51.103C191.807 51.103 191.794 51.1017 191.782 51.1017C190.557 51.0584 189.546 51.5558 189.518 52.2203C189.514 52.3106 189.528 52.3997 189.559 52.4851C189.57 52.516 189.582 52.5457 189.597 52.5766C189.857 53.0877 190.698 53.4898 191.713 53.5343Z" fill="#E1FFD4"/>
<path d="M191.71 53.5348C192.725 53.5793 193.6 53.2527 193.9 52.7652C193.967 52.6563 194.007 52.54 194.012 52.4175C194.041 51.7456 193.059 51.1566 191.817 51.1034C191.804 51.1034 191.792 51.1022 191.78 51.1022C193.073 51.4598 192.841 52.4496 192.596 52.7144C191.83 53.5385 190.277 53.0498 189.556 52.4868C189.567 52.5177 189.58 52.5474 189.594 52.5783C189.854 53.0881 190.696 53.4902 191.71 53.5348Z" fill="#BEE8AA"/>
<path d="M191.897 53.6803C191.834 53.6803 191.771 53.679 191.707 53.6766C190.659 53.6308 189.761 53.215 189.473 52.6409C189.404 52.5023 189.372 52.3588 189.378 52.2152C189.394 51.8366 189.67 51.4988 190.152 51.2637C190.608 51.0422 191.202 50.9358 191.825 50.9631C193.164 51.0212 194.187 51.6634 194.154 52.4244C194.148 52.5691 194.103 52.7089 194.022 52.8401C193.705 53.3524 192.866 53.6803 191.897 53.6803ZM191.632 51.2402C191.123 51.2402 190.646 51.3367 190.275 51.5161C189.889 51.703 189.67 51.9554 189.658 52.2264C189.654 52.3217 189.675 52.4182 189.723 52.5134C189.963 52.9911 190.784 53.3536 191.718 53.3944C192.653 53.4365 193.501 53.147 193.782 52.6916C193.837 52.6013 193.868 52.5073 193.872 52.412C193.898 51.8292 192.954 51.2947 191.812 51.2439C191.752 51.2415 191.692 51.2402 191.632 51.2402Z" fill="#650000"/>
<path d="M191.789 51.8063C191.081 51.8249 190.11 52.0092 189.719 52.6502L189.725 52.5128C189.804 52.6626 189.933 52.7962 190.084 52.9038C190.867 53.4297 191.973 53.5101 192.869 53.2676C193.215 53.1662 193.585 52.9929 193.783 52.691C193.882 52.5314 194.121 52.6762 194.022 52.8383C193.896 53.035 193.719 53.1798 193.535 53.2911C192.475 53.9346 190.134 53.8083 189.472 52.6391L189.433 52.5648L189.477 52.5017C189.993 51.8286 191.013 51.7383 191.789 51.8063Z" fill="#650000"/>
<path d="M200.299 55.7168L201.456 57.6406L202.628 55.7168H203.688L201.959 58.3242L203.741 61H202.696L201.476 59.0176L200.255 61H199.205L200.982 58.3242L199.259 55.7168H200.299ZM209.356 58.6074V59.3496H204.22V58.8174L207.403 53.8906H208.141L207.35 55.3164L205.245 58.6074H209.356ZM208.365 53.8906V61H207.462V53.8906H208.365Z" fill="#373737"/>
<path d="M29 73H215V385C215 388.866 211.866 392 208 392H36C32.134 392 29 388.866 29 385V73Z" fill="white"/>
<path d="M35 59L43 59M35 59L38.4286 55M35 59L38.4286 63" stroke="#373737" stroke-linecap="round" stroke-linejoin="round"/>
<path d="M48.3594 97.0469V97.5859C48.3594 98.4505 48.2422 99.2266 48.0078 99.9141C47.7734 100.602 47.4427 101.188 47.0156 101.672C46.5885 102.151 46.0781 102.518 45.4844 102.773C44.8958 103.029 44.2422 103.156 43.5234 103.156C42.8099 103.156 42.1562 103.029 41.5625 102.773C40.974 102.518 40.4635 102.151 40.0312 101.672C39.599 101.188 39.263 100.602 39.0234 99.9141C38.7891 99.2266 38.6719 98.4505 38.6719 97.5859V97.0469C38.6719 96.1771 38.7891 95.401 39.0234 94.7188C39.2578 94.0312 39.5885 93.4453 40.0156 92.9609C40.4479 92.4766 40.9583 92.1068 41.5469 91.8516C42.1406 91.5964 42.7943 91.4688 43.5078 91.4688C44.2266 91.4688 44.8802 91.5964 45.4688 91.8516C46.0625 92.1068 46.5729 92.4766 47 92.9609C47.4323 93.4453 47.7656 94.0312 48 94.7188C48.2396 95.401 48.3594 96.1771 48.3594 97.0469ZM45.9922 97.5859V97.0312C45.9922 96.4271 45.9375 95.8958 45.8281 95.4375C45.7188 94.9792 45.5573 94.5938 45.3438 94.2812C45.1302 93.9688 44.8698 93.7344 44.5625 93.5781C44.2552 93.4167 43.9036 93.3359 43.5078 93.3359C43.112 93.3359 42.7604 93.4167 42.4531 93.5781C42.151 93.7344 41.8932 93.9688 41.6797 94.2812C41.4714 94.5938 41.3125 94.9792 41.2031 95.4375C41.0938 95.8958 41.0391 96.4271 41.0391 97.0312V97.5859C41.0391 98.1849 41.0938 98.7161 41.2031 99.1797C41.3125 99.638 41.474 100.026 41.6875 100.344C41.901 100.656 42.1615 100.893 42.4688 101.055C42.776 101.216 43.1276 101.297 43.5234 101.297C43.9193 101.297 44.2708 101.216 44.5781 101.055C44.8854 100.893 45.1432 100.656 45.3516 100.344C45.5599 100.026 45.7188 99.638 45.8281 99.1797C45.9375 98.7161 45.9922 98.1849 45.9922 97.5859ZM52.1094 96.3516V103H49.8594V94.5469H51.9688L52.1094 96.3516ZM51.7812 98.4766H51.1719C51.1719 97.8516 51.2526 97.2891 51.4141 96.7891C51.5755 96.2839 51.8021 95.8542 52.0938 95.5C52.3854 95.1406 52.7318 94.8672 53.1328 94.6797C53.5391 94.487 53.9922 94.3906 54.4922 94.3906C54.888 94.3906 55.25 94.4479 55.5781 94.5625C55.9062 94.6771 56.1875 94.8594 56.4219 95.1094C56.6615 95.3594 56.8438 95.6901 56.9688 96.1016C57.099 96.513 57.1641 97.0156 57.1641 97.6094V103H54.8984V97.6016C54.8984 97.2266 54.8464 96.9349 54.7422 96.7266C54.638 96.5182 54.4844 96.3724 54.2812 96.2891C54.0833 96.2005 53.8385 96.1562 53.5469 96.1562C53.2448 96.1562 52.9818 96.2161 52.7578 96.3359C52.5391 96.4557 52.3568 96.6224 52.2109 96.8359C52.0703 97.0443 51.9635 97.2891 51.8906 97.5703C51.8177 97.8516 51.7812 98.1536 51.7812 98.4766ZM62.7656 103.156C62.1094 103.156 61.5208 103.052 61 102.844C60.4792 102.63 60.0365 102.336 59.6719 101.961C59.3125 101.586 59.0365 101.151 58.8438 100.656C58.651 100.156 58.5547 99.625 58.5547 99.0625V98.75C58.5547 98.1094 58.6458 97.5234 58.8281 96.9922C59.0104 96.4609 59.2708 96 59.6094 95.6094C59.9531 95.2188 60.3698 94.9193 60.8594 94.7109C61.349 94.4974 61.901 94.3906 62.5156 94.3906C63.1146 94.3906 63.6458 94.4896 64.1094 94.6875C64.5729 94.8854 64.9609 95.1667 65.2734 95.5312C65.5911 95.8958 65.8307 96.3333 65.9922 96.8438C66.1536 97.349 66.2344 97.9115 66.2344 98.5312V99.4688H59.5156V97.9688H64.0234V97.7969C64.0234 97.4844 63.9661 97.2057 63.8516 96.9609C63.7422 96.7109 63.5755 96.513 63.3516 96.3672C63.1276 96.2214 62.8411 96.1484 62.4922 96.1484C62.1953 96.1484 61.9401 96.2135 61.7266 96.3438C61.513 96.474 61.3385 96.6562 61.2031 96.8906C61.0729 97.125 60.974 97.401 60.9062 97.7188C60.8438 98.0312 60.8125 98.375 60.8125 98.75V99.0625C60.8125 99.401 60.8594 99.7135 60.9531 100C61.0521 100.286 61.1901 100.534 61.3672 100.742C61.5495 100.951 61.7682 101.112 62.0234 101.227C62.2839 101.341 62.5781 101.398 62.9062 101.398C63.3125 101.398 63.6901 101.32 64.0391 101.164C64.3932 101.003 64.6979 100.76 64.9531 100.438L66.0469 101.625C65.8698 101.88 65.6276 102.125 65.3203 102.359C65.0182 102.594 64.6536 102.786 64.2266 102.938C63.7995 103.083 63.3125 103.156 62.7656 103.156ZM71.1406 98.8594V98.6953C71.1406 98.0755 71.2292 97.5052 71.4062 96.9844C71.5833 96.4583 71.8411 96.0026 72.1797 95.6172C72.5182 95.2318 72.9349 94.9323 73.4297 94.7188C73.9245 94.5 74.4922 94.3906 75.1328 94.3906C75.7734 94.3906 76.3438 94.5 76.8438 94.7188C77.3438 94.9323 77.763 95.2318 78.1016 95.6172C78.4453 96.0026 78.7057 96.4583 78.8828 96.9844C79.0599 97.5052 79.1484 98.0755 79.1484 98.6953V98.8594C79.1484 99.474 79.0599 100.044 78.8828 100.57C78.7057 101.091 78.4453 101.547 78.1016 101.938C77.763 102.323 77.3464 102.622 76.8516 102.836C76.3568 103.049 75.7891 103.156 75.1484 103.156C74.5078 103.156 73.9375 103.049 73.4375 102.836C72.9427 102.622 72.5234 102.323 72.1797 101.938C71.8411 101.547 71.5833 101.091 71.4062 100.57C71.2292 100.044 71.1406 99.474 71.1406 98.8594ZM73.3906 98.6953V98.8594C73.3906 99.2135 73.4219 99.5443 73.4844 99.8516C73.5469 100.159 73.6458 100.43 73.7812 100.664C73.9219 100.893 74.1042 101.073 74.3281 101.203C74.5521 101.333 74.8255 101.398 75.1484 101.398C75.4609 101.398 75.7292 101.333 75.9531 101.203C76.1771 101.073 76.3568 100.893 76.4922 100.664C76.6276 100.43 76.7266 100.159 76.7891 99.8516C76.8568 99.5443 76.8906 99.2135 76.8906 98.8594V98.6953C76.8906 98.3516 76.8568 98.0286 76.7891 97.7266C76.7266 97.4193 76.625 97.1484 76.4844 96.9141C76.349 96.6745 76.1693 96.487 75.9453 96.3516C75.7214 96.2161 75.4505 96.1484 75.1328 96.1484C74.8151 96.1484 74.5443 96.2161 74.3203 96.3516C74.1016 96.487 73.9219 96.6745 73.7812 96.9141C73.6458 97.1484 73.5469 97.4193 73.4844 97.7266C73.4219 98.0286 73.3906 98.3516 73.3906 98.6953ZM83.3984 103H81.1328V93.7969C81.1328 93.1562 81.2578 92.6172 81.5078 92.1797C81.763 91.737 82.1198 91.4036 82.5781 91.1797C83.0417 90.9505 83.5911 90.8359 84.2266 90.8359C84.4349 90.8359 84.6354 90.8516 84.8281 90.8828C85.0208 90.9089 85.2083 90.9427 85.3906 90.9844L85.3672 92.6797C85.2682 92.6536 85.1641 92.6354 85.0547 92.625C84.9453 92.6146 84.8177 92.6094 84.6719 92.6094C84.401 92.6094 84.1693 92.6562 83.9766 92.75C83.7891 92.8385 83.6458 92.9714 83.5469 93.1484C83.4479 93.3255 83.3984 93.5417 83.3984 93.7969V103ZM85.0859 94.5469V96.1406H79.875V94.5469H85.0859ZM93.1172 103H90.8516V93.7969C90.8516 93.1562 90.9766 92.6172 91.2266 92.1797C91.4818 91.737 91.8385 91.4036 92.2969 91.1797C92.7604 90.9505 93.3099 90.8359 93.9453 90.8359C94.1536 90.8359 94.3542 90.8516 94.5469 90.8828C94.7396 90.9089 94.9271 90.9427 95.1094 90.9844L95.0859 92.6797C94.987 92.6536 94.8828 92.6354 94.7734 92.625C94.6641 92.6146 94.5365 92.6094 94.3906 92.6094C94.1198 92.6094 93.888 92.6562 93.6953 92.75C93.5078 92.8385 93.3646 92.9714 93.2656 93.1484C93.1667 93.3255 93.1172 93.5417 93.1172 93.7969V103ZM94.8047 94.5469V96.1406H89.5938V94.5469H94.8047ZM95.625 98.8594V98.6953C95.625 98.0755 95.7135 97.5052 95.8906 96.9844C96.0677 96.4583 96.3255 96.0026 96.6641 95.6172C97.0026 95.2318 97.4193 94.9323 97.9141 94.7188C98.4089 94.5 98.9766 94.3906 99.6172 94.3906C100.258 94.3906 100.828 94.5 101.328 94.7188C101.828 94.9323 102.247 95.2318 102.586 95.6172C102.93 96.0026 103.19 96.4583 103.367 96.9844C103.544 97.5052 103.633 98.0755 103.633 98.6953V98.8594C103.633 99.474 103.544 100.044 103.367 100.57C103.19 101.091 102.93 101.547 102.586 101.938C102.247 102.323 101.831 102.622 101.336 102.836C100.841 103.049 100.273 103.156 99.6328 103.156C98.9922 103.156 98.4219 103.049 97.9219 102.836C97.4271 102.622 97.0078 102.323 96.6641 101.938C96.3255 101.547 96.0677 101.091 95.8906 100.57C95.7135 100.044 95.625 99.474 95.625 98.8594ZM97.875 98.6953V98.8594C97.875 99.2135 97.9062 99.5443 97.9688 99.8516C98.0312 100.159 98.1302 100.43 98.2656 100.664C98.4062 100.893 98.5885 101.073 98.8125 101.203C99.0365 101.333 99.3099 101.398 99.6328 101.398C99.9453 101.398 100.214 101.333 100.438 101.203C100.661 101.073 100.841 100.893 100.977 100.664C101.112 100.43 101.211 100.159 101.273 99.8516C101.341 99.5443 101.375 99.2135 101.375 98.8594V98.6953C101.375 98.3516 101.341 98.0286 101.273 97.7266C101.211 97.4193 101.109 97.1484 100.969 96.9141C100.833 96.6745 100.654 96.487 100.43 96.3516C100.206 96.2161 99.9349 96.1484 99.6172 96.1484C99.2995 96.1484 99.0286 96.2161 98.8047 96.3516C98.5859 96.487 98.4062 96.6745 98.2656 96.9141C98.1302 97.1484 98.0312 97.4193 97.9688 97.7266C97.9062 98.0286 97.875 98.3516 97.875 98.6953ZM110.016 100.977V94.5469H112.266V103H110.148L110.016 100.977ZM110.266 99.2422L110.93 99.2266C110.93 99.7891 110.865 100.312 110.734 100.797C110.604 101.276 110.409 101.693 110.148 102.047C109.888 102.396 109.56 102.669 109.164 102.867C108.768 103.06 108.302 103.156 107.766 103.156C107.354 103.156 106.974 103.099 106.625 102.984C106.281 102.865 105.984 102.68 105.734 102.43C105.49 102.174 105.297 101.849 105.156 101.453C105.021 101.052 104.953 100.57 104.953 100.008V94.5469H107.203V100.023C107.203 100.273 107.232 100.484 107.289 100.656C107.352 100.828 107.438 100.969 107.547 101.078C107.656 101.188 107.784 101.266 107.93 101.312C108.081 101.359 108.247 101.383 108.43 101.383C108.893 101.383 109.258 101.289 109.523 101.102C109.794 100.914 109.984 100.659 110.094 100.336C110.208 100.008 110.266 99.6432 110.266 99.2422ZM116.234 96.3906V103H113.984V94.5469H116.102L116.234 96.3906ZM118.781 94.4922L118.742 96.5781C118.633 96.5625 118.5 96.5495 118.344 96.5391C118.193 96.5234 118.055 96.5156 117.93 96.5156C117.612 96.5156 117.336 96.5573 117.102 96.6406C116.872 96.7188 116.68 96.8359 116.523 96.9922C116.372 97.1484 116.258 97.3385 116.18 97.5625C116.107 97.7865 116.065 98.0417 116.055 98.3281L115.602 98.1875C115.602 97.6406 115.656 97.138 115.766 96.6797C115.875 96.2161 116.034 95.8125 116.242 95.4688C116.456 95.125 116.716 94.8594 117.023 94.6719C117.331 94.4844 117.682 94.3906 118.078 94.3906C118.203 94.3906 118.331 94.401 118.461 94.4219C118.591 94.4375 118.698 94.4609 118.781 94.4922Z" fill="#373737"/>
<path d="M41.7632 84.0503V84.8501H39.1655V84.0503H41.7632ZM39.4697 82.0234V87H38.4443V82.0234H39.4697ZM42.4946 82.0234V87H41.4727V82.0234H42.4946ZM44.4771 82.0234V87H43.4551V82.0234H44.4771ZM45.4375 82.0234H47.2935C47.674 82.0234 48.001 82.0804 48.2744 82.1943C48.5501 82.3083 48.762 82.4769 48.9102 82.7002C49.0583 82.9235 49.1323 83.1981 49.1323 83.5239C49.1323 83.7905 49.0868 84.0195 48.9956 84.2109C48.9067 84.4001 48.7803 84.5584 48.6162 84.686C48.4544 84.8114 48.2642 84.9116 48.0454 84.9868L47.7207 85.1577H46.1074L46.1006 84.3579H47.3003C47.4803 84.3579 47.6296 84.326 47.748 84.2622C47.8665 84.1984 47.9554 84.1095 48.0146 83.9956C48.0762 83.8817 48.1069 83.7495 48.1069 83.5991C48.1069 83.4396 48.0773 83.3018 48.0181 83.1855C47.9588 83.0693 47.8688 82.9805 47.748 82.9189C47.6273 82.8574 47.4757 82.8267 47.2935 82.8267H46.4629V87H45.4375V82.0234ZM48.2197 87L47.085 84.7817L48.1685 84.7749L49.3169 86.9521V87H48.2197ZM51.9453 82.8745L50.5918 87H49.5015L51.3506 82.0234H52.0444L51.9453 82.8745ZM53.0698 87L51.7129 82.8745L51.6035 82.0234H52.3042L54.1636 87H53.0698ZM53.0083 85.1475V85.9507H50.3799V85.1475H53.0083ZM58.5078 84.3989V86.3711C58.4303 86.4645 58.3107 86.5659 58.1489 86.6753C57.9871 86.7824 57.7786 86.8747 57.5234 86.9521C57.2682 87.0296 56.9595 87.0684 56.5972 87.0684C56.2759 87.0684 55.9831 87.016 55.7188 86.9111C55.4544 86.804 55.2266 86.6479 55.0352 86.4429C54.846 86.2378 54.7002 85.9871 54.5977 85.6909C54.4951 85.3924 54.4438 85.0518 54.4438 84.6689V84.3579C54.4438 83.9751 54.4928 83.6344 54.5908 83.3359C54.6911 83.0374 54.8335 82.7856 55.0181 82.5806C55.2026 82.3755 55.4225 82.2194 55.6777 82.1123C55.9329 82.0052 56.2166 81.9517 56.5288 81.9517C56.9618 81.9517 57.3172 82.0223 57.5952 82.1636C57.8732 82.3026 58.0851 82.4963 58.231 82.7446C58.3791 82.9907 58.4702 83.2733 58.5044 83.5923H57.5098C57.4847 83.4237 57.4368 83.2767 57.3662 83.1514C57.2956 83.026 57.1942 82.9281 57.062 82.8574C56.9321 82.7868 56.7635 82.7515 56.5562 82.7515C56.3853 82.7515 56.2326 82.7868 56.0981 82.8574C55.966 82.9258 55.8543 83.0272 55.7632 83.1616C55.672 83.2961 55.6025 83.4624 55.5547 83.6606C55.5068 83.8589 55.4829 84.089 55.4829 84.3511V84.6689C55.4829 84.9287 55.508 85.1589 55.5581 85.3594C55.6082 85.5576 55.6823 85.7251 55.7803 85.8618C55.8805 85.9963 56.0036 86.0977 56.1494 86.166C56.2952 86.2344 56.465 86.2686 56.6587 86.2686C56.8205 86.2686 56.9549 86.2549 57.062 86.2275C57.1714 86.2002 57.2591 86.1672 57.3252 86.1284C57.3936 86.0874 57.446 86.0487 57.4824 86.0122V85.1304H56.5459V84.3989H58.5078ZM61.3584 82.8745L60.0049 87H58.9146L60.7637 82.0234H61.4575L61.3584 82.8745ZM62.4829 87L61.126 82.8745L61.0166 82.0234H61.7173L63.5767 87H62.4829ZM62.4214 85.1475V85.9507H59.793V85.1475H62.4214ZM68.0884 82.0234V87H67.063L65.0635 83.6641V87H64.0381V82.0234H65.0635L67.0664 85.3628V82.0234H68.0884ZM71.0654 82.8745L69.7119 87H68.6216L70.4707 82.0234H71.1646L71.0654 82.8745ZM72.1899 87L70.833 82.8745L70.7236 82.0234H71.4243L73.2837 87H72.1899ZM72.1284 85.1475V85.9507H69.5V85.1475H72.1284ZM77.3682 84.4775V85.25H75.437V84.4775H77.3682ZM79.9932 82.0234H81.8491C82.2297 82.0234 82.5566 82.0804 82.8301 82.1943C83.1058 82.3083 83.3177 82.4769 83.4658 82.7002C83.6139 82.9235 83.688 83.1981 83.688 83.5239C83.688 83.7905 83.6424 84.0195 83.5513 84.2109C83.4624 84.4001 83.3359 84.5584 83.1719 84.686C83.0101 84.8114 82.8198 84.9116 82.6011 84.9868L82.2764 85.1577H80.6631L80.6562 84.3579H81.856C82.036 84.3579 82.1852 84.326 82.3037 84.2622C82.4222 84.1984 82.5111 84.1095 82.5703 83.9956C82.6318 83.8817 82.6626 83.7495 82.6626 83.5991C82.6626 83.4396 82.633 83.3018 82.5737 83.1855C82.5145 83.0693 82.4245 82.9805 82.3037 82.9189C82.1829 82.8574 82.0314 82.8267 81.8491 82.8267H81.0186V87H79.9932V82.0234ZM82.7754 87L81.6406 84.7817L82.7241 84.7749L83.8726 86.9521V87H82.7754ZM88.5654 84.3955V84.6313C88.5654 85.0096 88.5142 85.3491 88.4116 85.6499C88.3091 85.9507 88.1644 86.207 87.9775 86.4189C87.7907 86.6286 87.5674 86.7892 87.3076 86.9009C87.0501 87.0125 86.7642 87.0684 86.4497 87.0684C86.1375 87.0684 85.8516 87.0125 85.5918 86.9009C85.3343 86.7892 85.111 86.6286 84.9219 86.4189C84.7327 86.207 84.5858 85.9507 84.481 85.6499C84.3784 85.3491 84.3271 85.0096 84.3271 84.6313V84.3955C84.3271 84.015 84.3784 83.6755 84.481 83.377C84.5835 83.0762 84.7282 82.8198 84.915 82.6079C85.1042 82.396 85.3275 82.2342 85.585 82.1226C85.8447 82.0109 86.1307 81.9551 86.4429 81.9551C86.7573 81.9551 87.0433 82.0109 87.3008 82.1226C87.5605 82.2342 87.7839 82.396 87.9707 82.6079C88.1598 82.8198 88.3057 83.0762 88.4082 83.377C88.513 83.6755 88.5654 84.015 88.5654 84.3955ZM87.5298 84.6313V84.3887C87.5298 84.1243 87.5059 83.8919 87.458 83.6914C87.4102 83.4909 87.3395 83.3223 87.2461 83.1855C87.1527 83.0488 87.0387 82.9463 86.9043 82.8779C86.7699 82.8073 86.616 82.772 86.4429 82.772C86.2697 82.772 86.1159 82.8073 85.9814 82.8779C85.8493 82.9463 85.7365 83.0488 85.6431 83.1855C85.5519 83.3223 85.4824 83.4909 85.4346 83.6914C85.3867 83.8919 85.3628 84.1243 85.3628 84.3887V84.6313C85.3628 84.8934 85.3867 85.1258 85.4346 85.3286C85.4824 85.5291 85.5531 85.6989 85.6465 85.8379C85.7399 85.9746 85.8538 86.0783 85.9883 86.1489C86.1227 86.2196 86.2765 86.2549 86.4497 86.2549C86.6229 86.2549 86.7767 86.2196 86.9111 86.1489C87.0456 86.0783 87.1584 85.9746 87.2495 85.8379C87.3407 85.6989 87.4102 85.5291 87.458 85.3286C87.5059 85.1258 87.5298 84.8934 87.5298 84.6313ZM89.772 82.0234H90.6401L91.9185 85.6772L93.1968 82.0234H94.0649L92.2671 87H91.5698L89.772 82.0234ZM89.3037 82.0234H90.1685L90.3257 85.585V87H89.3037V82.0234ZM93.6685 82.0234H94.5366V87H93.5112V85.585L93.6685 82.0234ZM97.5205 82.8745L96.167 87H95.0767L96.9258 82.0234H97.6196L97.5205 82.8745ZM98.645 87L97.2881 82.8745L97.1787 82.0234H97.8794L99.7388 87H98.645ZM98.5835 85.1475V85.9507H95.9551V85.1475H98.5835ZM102.213 85.4722V82.0234H103.235V85.4722C103.235 85.8049 103.162 86.0908 103.017 86.3301C102.871 86.5671 102.671 86.7493 102.418 86.877C102.168 87.0046 101.885 87.0684 101.571 87.0684C101.245 87.0684 100.957 87.0137 100.706 86.9043C100.455 86.7949 100.258 86.6274 100.115 86.4019C99.9712 86.174 99.8994 85.8857 99.8994 85.5371H100.928C100.928 85.7194 100.953 85.8641 101.003 85.9712C101.056 86.0783 101.13 86.1546 101.226 86.2002C101.321 86.2458 101.436 86.2686 101.571 86.2686C101.701 86.2686 101.813 86.2378 101.909 86.1763C102.005 86.1147 102.079 86.0247 102.131 85.9062C102.186 85.7878 102.213 85.6431 102.213 85.4722ZM105.201 82.0234V87H104.179V82.0234H105.201Z" fill="#666666"/>
<path d="M116.382 149.732C119.186 149.762 121.914 150.004 124.657 149.958C127.857 149.898 127.187 149.913 127.248 147.313C127.278 146.104 127.263 144.895 127.248 143.686C127.232 142.038 127.232 142.068 125.51 142.068C123.026 142.084 120.542 142.068 118.043 142.038C116.991 142.023 116.9 142.235 116.915 140.844C116.915 140.497 116.931 140.134 116.915 139.786C116.9 139.333 117.129 139.166 117.571 139.197C118.637 139.272 119.704 139.348 120.756 139.378C126.044 139.514 131.301 139.227 136.559 138.668C137.671 138.547 137.671 138.532 137.717 139.605C137.732 139.862 137.702 140.104 137.717 140.36C137.778 141.071 137.595 141.449 136.742 141.479C135.02 141.539 133.298 141.721 131.576 141.857C130.311 141.963 130.143 141.706 130.143 143.338C130.158 145.001 130.128 146.663 130.143 148.326C130.158 149.701 130.204 149.762 131.637 149.656C133.602 149.505 135.584 149.308 137.549 149.142C137.9 149.112 138.235 149.142 138.586 149.142C138.784 152.634 139.134 151.923 136.102 152.271C134.486 152.452 132.856 152.483 131.24 152.604C130.204 152.679 130.143 152.694 130.189 153.798C130.25 156.004 130.417 158.226 130.463 160.433C130.478 161.31 131.042 161.521 131.667 161.748C134.502 162.806 137.031 164.363 139.348 166.267C140.262 167.023 140.262 167.023 139.637 168.051C139.302 168.61 138.951 169.154 138.601 169.698C138.068 169.729 137.9 169.305 137.626 169.048C135.934 167.507 134.121 166.146 132.124 165.043C130.905 164.378 130.768 164.454 130.753 165.799C130.753 166.207 130.768 166.6 130.753 167.008C130.692 169.336 129.473 171.134 127.278 171.814C124.23 172.767 121.182 172.706 118.226 171.391C116.077 170.439 114.934 168.761 114.827 166.449C114.721 164.076 115.955 162.443 117.967 161.34C119.796 160.327 121.822 160.161 123.864 160.191C124.825 160.206 125.785 160.297 126.745 160.373C127.354 160.433 127.568 160.176 127.537 159.602C127.43 157.591 127.324 155.581 127.248 153.571C127.217 152.724 126.623 152.785 126.059 152.8C123.209 152.876 120.375 152.8 117.54 152.649C116.077 152.573 116.199 152.77 116.199 151.198C116.23 150.759 116.153 150.306 116.382 149.732ZM127.781 165.391C127.796 163.139 127.796 163.139 125.8 162.806C125.556 162.761 125.312 162.685 125.053 162.655C123.316 162.458 121.609 162.489 119.978 163.184C118.683 163.728 117.769 164.62 117.753 166.116C117.738 167.507 118.592 168.565 120.1 169.124C121.822 169.774 123.575 169.759 125.327 169.26C126.531 168.912 127.293 168.051 127.583 166.842C127.705 166.282 127.735 165.663 127.781 165.391Z" fill="#373737"/>
<path d="M106.714 164.268C107.492 162.301 108.256 160.318 109.019 158.366C109.504 158.23 109.665 158.639 109.944 158.79C110.576 159.138 110.635 159.607 110.385 160.288C109.621 162.452 108.917 164.646 108.212 166.855C107.683 168.535 107.243 170.245 107.419 172.031C107.492 172.696 107.243 172.878 106.626 172.923C104.527 173.105 104.512 173.135 104.101 170.986C102.867 164.51 102.721 158.003 103.411 151.436C103.925 146.639 104.82 141.888 105.305 137C106.421 137.076 107.478 137.151 108.623 137.227C106.92 146.185 105.217 155.068 106.288 164.177C106.435 164.207 106.582 164.238 106.714 164.268Z" fill="#373737"/>
<g class="wrong-variant" filter="url(#filter0_d_204_21500)">
<rect x="39" y="203" width="79" height="62" rx="2" fill="white"/>
</g>
<g class="wrong-variant" filter="url(#filter1_d_204_21500)">
<rect x="39" y="271" width="79" height="62" rx="2" fill="white"/>
</g>
<g id="answer" filter="url(#filter2_d_204_21500)">
<rect x="126" y="203" width="79" height="62" rx="2"/>
</g>
<g class="wrong-variant" filter="url(#filter3_d_204_21500)">
<rect x="126" y="271" width="79" height="62" rx="2" fill="white"/>
</g>
<path class="wrong-variant" d="M76.9355 230.132V231.249H73.0635V230.132H76.9355ZM74.1807 228.45H75.7104V235.102C75.7104 235.314 75.7401 235.477 75.7993 235.591C75.8628 235.701 75.9495 235.775 76.0596 235.813C76.1696 235.851 76.2987 235.87 76.4468 235.87C76.5526 235.87 76.6541 235.864 76.7515 235.851C76.8488 235.838 76.9271 235.826 76.9863 235.813L76.9927 236.981C76.8657 237.019 76.7176 237.053 76.5483 237.083C76.3833 237.112 76.1929 237.127 75.9771 237.127C75.6258 237.127 75.3148 237.066 75.0439 236.943C74.7731 236.816 74.5615 236.611 74.4092 236.327C74.2568 236.044 74.1807 235.667 74.1807 235.197V228.45ZM81.144 237.127C80.6362 237.127 80.1771 237.044 79.7666 236.879C79.3604 236.71 79.0133 236.475 78.7256 236.175C78.4421 235.874 78.2241 235.521 78.0718 235.115C77.9194 234.708 77.8433 234.271 77.8433 233.801V233.547C77.8433 233.009 77.9215 232.523 78.0781 232.087C78.2347 231.651 78.4526 231.279 78.7319 230.97C79.0112 230.657 79.3413 230.417 79.7222 230.252C80.103 230.087 80.5156 230.005 80.96 230.005C81.4508 230.005 81.8804 230.087 82.2485 230.252C82.6167 230.417 82.9214 230.65 83.1626 230.951C83.408 231.247 83.59 231.6 83.7085 232.011C83.8312 232.421 83.8926 232.874 83.8926 233.369V234.023H78.5859V232.925H82.3818V232.804C82.3734 232.529 82.3184 232.271 82.2168 232.03C82.1195 231.789 81.9692 231.594 81.7661 231.446C81.563 231.298 81.2922 231.224 80.9536 231.224C80.6997 231.224 80.4733 231.279 80.2744 231.389C80.0798 231.494 79.9168 231.649 79.7856 231.852C79.6545 232.055 79.5529 232.301 79.481 232.588C79.4132 232.872 79.3794 233.191 79.3794 233.547V233.801C79.3794 234.101 79.4196 234.381 79.5 234.639C79.5846 234.893 79.7074 235.115 79.8682 235.305C80.029 235.496 80.2236 235.646 80.4521 235.756C80.6807 235.862 80.9409 235.915 81.2329 235.915C81.6011 235.915 81.929 235.84 82.2168 235.692C82.5046 235.544 82.7542 235.335 82.9658 235.064L83.772 235.845C83.6239 236.061 83.4313 236.268 83.1943 236.467C82.9574 236.661 82.6675 236.82 82.3247 236.943C81.9862 237.066 81.5926 237.127 81.144 237.127Z" fill="#373737"/>
<path class="wrong-variant" d="M160.33 297.25V307H158.793V297.25H160.33ZM164.595 300.132L161.605 303.445L159.968 305.121L159.568 303.826L160.806 302.296L162.748 300.132H164.595ZM163.078 307L160.85 303.775L161.815 302.703L164.849 307H163.078ZM169.699 305.381V300.132H171.235V307H169.788L169.699 305.381ZM169.915 303.953L170.429 303.94C170.429 304.402 170.378 304.827 170.276 305.216C170.175 305.601 170.018 305.938 169.807 306.226C169.595 306.509 169.324 306.731 168.994 306.892C168.664 307.049 168.268 307.127 167.807 307.127C167.473 307.127 167.166 307.078 166.887 306.981C166.607 306.884 166.366 306.733 166.163 306.53C165.964 306.327 165.81 306.063 165.7 305.737C165.59 305.411 165.535 305.022 165.535 304.569V300.132H167.064V304.582C167.064 304.831 167.094 305.041 167.153 305.21C167.213 305.375 167.293 305.508 167.395 305.61C167.496 305.711 167.615 305.783 167.75 305.826C167.885 305.868 168.029 305.889 168.182 305.889C168.618 305.889 168.96 305.805 169.21 305.635C169.464 305.462 169.644 305.229 169.75 304.937C169.86 304.645 169.915 304.317 169.915 303.953Z" fill="#373737"/>
<path class="wrong-variant" d="M73.2979 297.25V307H71.7744V297.25H73.2979ZM73.0312 303.312L72.5361 303.306C72.5404 302.832 72.606 302.394 72.7329 301.992C72.8641 301.59 73.0461 301.241 73.2788 300.944C73.5158 300.644 73.7993 300.413 74.1294 300.252C74.4595 300.087 74.8255 300.005 75.2275 300.005C75.5661 300.005 75.8708 300.051 76.1416 300.145C76.4167 300.238 76.6536 300.388 76.8525 300.595C77.0514 300.798 77.2017 301.065 77.3032 301.395C77.409 301.721 77.4619 302.119 77.4619 302.588V307H75.9258V302.576C75.9258 302.246 75.8771 301.983 75.7798 301.789C75.6867 301.594 75.5492 301.454 75.3672 301.37C75.1852 301.281 74.9631 301.236 74.7007 301.236C74.4256 301.236 74.1823 301.291 73.9707 301.401C73.7633 301.511 73.5898 301.662 73.4502 301.852C73.3105 302.042 73.2048 302.263 73.1328 302.512C73.0651 302.762 73.0312 303.028 73.0312 303.312ZM82.0386 307.127C81.5308 307.127 81.0716 307.044 80.6611 306.879C80.2549 306.71 79.9079 306.475 79.6201 306.175C79.3366 305.874 79.1187 305.521 78.9663 305.115C78.814 304.708 78.7378 304.271 78.7378 303.801V303.547C78.7378 303.009 78.8161 302.523 78.9727 302.087C79.1292 301.651 79.3472 301.279 79.6265 300.97C79.9058 300.657 80.2358 300.417 80.6167 300.252C80.9976 300.087 81.4102 300.005 81.8545 300.005C82.3454 300.005 82.7749 300.087 83.1431 300.252C83.5112 300.417 83.8159 300.65 84.0571 300.951C84.3026 301.247 84.4845 301.6 84.603 302.011C84.7257 302.421 84.7871 302.874 84.7871 303.369V304.023H79.4805V302.925H83.2764V302.804C83.2679 302.529 83.2129 302.271 83.1113 302.03C83.014 301.789 82.8638 301.594 82.6606 301.446C82.4575 301.298 82.1867 301.224 81.8481 301.224C81.5942 301.224 81.3678 301.279 81.1689 301.389C80.9743 301.494 80.8114 301.649 80.6802 301.852C80.549 302.055 80.4474 302.301 80.3755 302.588C80.3078 302.872 80.2739 303.191 80.2739 303.547V303.801C80.2739 304.101 80.3141 304.381 80.3945 304.639C80.4792 304.893 80.6019 305.115 80.7627 305.305C80.9235 305.496 81.1182 305.646 81.3467 305.756C81.5752 305.862 81.8354 305.915 82.1274 305.915C82.4956 305.915 82.8236 305.84 83.1113 305.692C83.3991 305.544 83.6488 305.335 83.8604 305.064L84.6665 305.845C84.5184 306.061 84.3258 306.268 84.0889 306.467C83.8519 306.661 83.562 306.82 83.2192 306.943C82.8807 307.066 82.4871 307.127 82.0386 307.127Z" fill="#373737"/>
<path d="M160.298 227.25V237H158.774V227.25H160.298ZM160.031 233.312L159.536 233.306C159.54 232.832 159.606 232.394 159.733 231.992C159.864 231.59 160.046 231.241 160.279 230.944C160.516 230.644 160.799 230.413 161.129 230.252C161.459 230.087 161.826 230.005 162.228 230.005C162.566 230.005 162.871 230.051 163.142 230.145C163.417 230.238 163.654 230.388 163.853 230.595C164.051 230.798 164.202 231.065 164.303 231.395C164.409 231.721 164.462 232.119 164.462 232.588V237H162.926V232.576C162.926 232.246 162.877 231.983 162.78 231.789C162.687 231.594 162.549 231.454 162.367 231.37C162.185 231.281 161.963 231.236 161.701 231.236C161.426 231.236 161.182 231.291 160.971 231.401C160.763 231.511 160.59 231.662 160.45 231.852C160.311 232.042 160.205 232.263 160.133 232.512C160.065 232.762 160.031 233.028 160.031 233.312ZM165.719 233.642V233.496C165.719 233.001 165.791 232.542 165.935 232.119C166.078 231.691 166.286 231.321 166.557 231.008C166.832 230.69 167.166 230.445 167.56 230.271C167.957 230.094 168.406 230.005 168.905 230.005C169.409 230.005 169.857 230.094 170.251 230.271C170.649 230.445 170.985 230.69 171.26 231.008C171.535 231.321 171.745 231.691 171.889 232.119C172.033 232.542 172.104 233.001 172.104 233.496V233.642C172.104 234.137 172.033 234.596 171.889 235.02C171.745 235.443 171.535 235.813 171.26 236.13C170.985 236.444 170.651 236.689 170.257 236.867C169.864 237.04 169.417 237.127 168.918 237.127C168.414 237.127 167.964 237.04 167.566 236.867C167.172 236.689 166.838 236.444 166.563 236.13C166.288 235.813 166.078 235.443 165.935 235.02C165.791 234.596 165.719 234.137 165.719 233.642ZM167.249 233.496V233.642C167.249 233.951 167.28 234.243 167.344 234.518C167.407 234.793 167.507 235.034 167.642 235.242C167.778 235.449 167.951 235.612 168.163 235.73C168.374 235.849 168.626 235.908 168.918 235.908C169.201 235.908 169.447 235.849 169.654 235.73C169.866 235.612 170.039 235.449 170.175 235.242C170.31 235.034 170.41 234.793 170.473 234.518C170.541 234.243 170.575 233.951 170.575 233.642V233.496C170.575 233.191 170.541 232.904 170.473 232.633C170.41 232.358 170.308 232.114 170.168 231.903C170.033 231.691 169.86 231.526 169.648 231.408C169.441 231.285 169.193 231.224 168.905 231.224C168.618 231.224 168.368 231.285 168.156 231.408C167.949 231.526 167.778 231.691 167.642 231.903C167.507 232.114 167.407 232.358 167.344 232.633C167.28 232.904 167.249 233.191 167.249 233.496Z" fill="#373737"/>

<path class="indicator" d="M140.692 210.111C140.618 210.062 140.535 210.028 140.448 210.011C140.361 209.995 140.271 209.996 140.184 210.015C140.098 210.034 140.016 210.07 139.943 210.121C139.87 210.172 139.807 210.238 139.759 210.313L135.977 216.253L134.133 214.516C134.068 214.454 133.992 214.407 133.908 214.375C133.825 214.344 133.737 214.33 133.648 214.333C133.47 214.341 133.301 214.42 133.179 214.554C133.058 214.688 132.994 214.865 133.001 215.047C133.008 215.23 133.085 215.402 133.217 215.525L135.638 217.807C135.638 217.807 135.708 217.868 135.74 217.889C135.814 217.938 135.897 217.972 135.985 217.989C136.072 218.005 136.161 218.004 136.248 217.985C136.335 217.966 136.417 217.93 136.49 217.879C136.563 217.828 136.625 217.762 136.674 217.686L140.891 211.062C140.94 210.986 140.973 210.901 140.989 210.813C141.005 210.724 141.004 210.633 140.985 210.544C140.967 210.456 140.931 210.372 140.881 210.298C140.831 210.224 140.767 210.16 140.692 210.111Z" fill="#1D8C4A"/>
<g id="indicators">
    <path class="indicator" d="M47 211L53 217M47 217L53 211" stroke="#F04438" stroke-width="1.5" stroke-linecap="round" stroke-linejoin="round"/>
    <path class="indicator" d="M47 279L53 285M47 285L53 279" stroke="#F04438" stroke-width="1.5" stroke-linecap="round" stroke-linejoin="round"/>
    <path class="indicator" d="M134 279L140 285M134 285L140 279" stroke="#F04438" stroke-width="1.5" stroke-linecap="round" stroke-linejoin="round"/>
</g>
<circle cx="44" cy="377" r="5" fill="#1D8C4A"/>
<circle cx="78" cy="377" r="5" fill="#F04438"/>
<path d="M57.916 372.876V380H56.5098V374.497L54.8203 375.034V373.926L57.7646 372.876H57.916Z" fill="#373737"/>
<path d="M93.2734 375.82V377.051C93.2734 377.585 93.2165 378.045 93.1025 378.433C92.9886 378.817 92.8242 379.132 92.6094 379.38C92.3978 379.624 92.1455 379.805 91.8525 379.922C91.5596 380.039 91.234 380.098 90.876 380.098C90.5895 380.098 90.3226 380.062 90.0752 379.99C89.8278 379.915 89.6048 379.8 89.4062 379.644C89.2109 379.487 89.0417 379.29 88.8984 379.053C88.7585 378.812 88.651 378.525 88.5762 378.193C88.5013 377.861 88.4639 377.48 88.4639 377.051V375.82C88.4639 375.286 88.5208 374.829 88.6348 374.448C88.752 374.064 88.9163 373.75 89.1279 373.506C89.3428 373.262 89.5967 373.083 89.8896 372.969C90.1826 372.852 90.5081 372.793 90.8662 372.793C91.1527 372.793 91.418 372.83 91.6621 372.905C91.9095 372.977 92.1325 373.089 92.3311 373.242C92.5296 373.395 92.6989 373.592 92.8389 373.833C92.9788 374.071 93.0863 374.355 93.1611 374.688C93.236 375.016 93.2734 375.394 93.2734 375.82ZM91.8623 377.236V375.63C91.8623 375.373 91.8477 375.148 91.8184 374.956C91.7923 374.764 91.7516 374.601 91.6963 374.468C91.641 374.331 91.5726 374.22 91.4912 374.136C91.4098 374.051 91.3171 373.989 91.2129 373.95C91.1087 373.911 90.9932 373.892 90.8662 373.892C90.7067 373.892 90.5651 373.923 90.4414 373.984C90.321 374.046 90.2184 374.146 90.1338 374.282C90.0492 374.416 89.984 374.595 89.9385 374.819C89.8962 375.041 89.875 375.311 89.875 375.63V377.236C89.875 377.493 89.888 377.72 89.9141 377.915C89.9434 378.11 89.9857 378.278 90.041 378.418C90.0996 378.555 90.168 378.667 90.2461 378.755C90.3275 378.84 90.4202 378.901 90.5244 378.94C90.6318 378.979 90.749 378.999 90.876 378.999C91.0322 378.999 91.1706 378.968 91.291 378.906C91.4147 378.841 91.5189 378.74 91.6035 378.604C91.6914 378.464 91.7565 378.281 91.7988 378.057C91.8411 377.832 91.8623 377.559 91.8623 377.236Z" fill="#373737"/>
<path d="M76 375L80 379M76 379L80 375" stroke="white" stroke-linecap="round" stroke-linejoin="round"/>
<path d="M46.7693 374.083C46.7135 374.046 46.6512 374.021 46.5858 374.009C46.5205 373.996 46.4534 373.997 46.3884 374.011C46.3234 374.025 46.2617 374.052 46.207 374.091C46.1522 374.129 46.1054 374.178 46.0692 374.235L43.233 378.69L41.8497 377.387C41.8009 377.341 41.7437 377.305 41.6814 377.282C41.619 377.258 41.5527 377.247 41.4863 377.25C41.3522 377.255 41.2256 377.315 41.1345 377.415C41.0434 377.516 40.9951 377.649 41.0004 377.786C41.0056 377.922 41.064 378.051 41.1625 378.144L42.9787 379.855C42.9787 379.855 43.0308 379.901 43.055 379.917C43.1107 379.954 43.1731 379.979 43.2384 379.991C43.3038 380.004 43.3709 380.003 43.436 379.989C43.501 379.975 43.5627 379.948 43.6174 379.909C43.6722 379.871 43.719 379.822 43.7552 379.765L46.9184 374.796C46.9546 374.74 46.9795 374.676 46.9916 374.61C47.0037 374.543 47.0027 374.475 46.9889 374.408C46.975 374.342 46.9485 374.279 46.9108 374.223C46.8732 374.168 46.8251 374.12 46.7693 374.083Z" fill="white"/>
<path d="M187.916 372.876V380H186.51V374.497L184.82 375.034V373.926L187.765 372.876H187.916ZM193.326 372.891L190.719 380.61H189.674L192.281 372.891H193.326ZM198.922 377.344V378.447H193.8L193.731 377.593L196.695 372.891H197.813L196.603 374.917L195.128 377.344H198.922ZM198.116 372.891V380H196.71V372.891H198.116ZM203.312 372.817H203.517V373.94H203.434C203.062 373.94 202.732 373.996 202.442 374.106C202.153 374.217 201.907 374.375 201.705 374.58C201.507 374.782 201.354 375.026 201.246 375.312C201.142 375.599 201.09 375.92 201.09 376.274V377.456C201.09 377.71 201.114 377.935 201.163 378.13C201.215 378.322 201.288 378.483 201.383 378.613C201.48 378.74 201.594 378.836 201.725 378.901C201.855 378.963 202.001 378.994 202.164 378.994C202.317 378.994 202.455 378.962 202.579 378.896C202.706 378.831 202.813 378.74 202.901 378.623C202.993 378.503 203.061 378.363 203.106 378.203C203.155 378.04 203.18 377.863 203.18 377.671C203.18 377.479 203.155 377.301 203.106 377.139C203.061 376.976 202.993 376.836 202.901 376.719C202.81 376.598 202.7 376.506 202.569 376.44C202.439 376.375 202.293 376.343 202.13 376.343C201.909 376.343 201.713 376.395 201.544 376.499C201.378 376.6 201.248 376.73 201.153 376.89C201.059 377.049 201.008 377.217 201.002 377.393L200.577 377.119C200.587 376.868 200.639 376.631 200.733 376.406C200.831 376.182 200.965 375.983 201.134 375.811C201.306 375.635 201.513 375.498 201.754 375.4C201.995 375.299 202.267 375.249 202.569 375.249C202.901 375.249 203.193 375.312 203.443 375.439C203.697 375.566 203.909 375.741 204.078 375.962C204.247 376.183 204.374 376.439 204.459 376.729C204.544 377.018 204.586 377.327 204.586 377.656C204.586 378.001 204.529 378.322 204.415 378.618C204.304 378.914 204.143 379.173 203.932 379.395C203.723 379.616 203.473 379.788 203.18 379.912C202.887 380.036 202.558 380.098 202.193 380.098C201.816 380.098 201.472 380.029 201.163 379.893C200.857 379.753 200.593 379.557 200.372 379.307C200.151 379.056 199.98 378.758 199.859 378.413C199.742 378.068 199.684 377.69 199.684 377.28V376.733C199.684 376.16 199.767 375.636 199.933 375.161C200.102 374.683 200.344 374.269 200.66 373.921C200.976 373.569 201.357 373.298 201.803 373.105C202.249 372.913 202.752 372.817 203.312 372.817Z" fill="#373737"/>
<path d="M179.86 374.239C179.722 373.922 179.491 373.694 179.194 373.578L179.19 373.577C179.054 373.526 178.91 373.5 178.765 373.5H178.749C178.067 373.51 177.372 374.066 177.019 374.885C176.759 375.483 176.73 376.127 176.939 376.607C177.078 376.924 177.309 377.152 177.607 377.268L177.611 377.269C177.746 377.32 177.89 377.346 178.036 377.346C178.723 377.346 179.426 376.789 179.786 375.96C180.042 375.362 180.07 374.719 179.86 374.239ZM177.139 377.769C176.746 377.542 176.375 377.327 176.132 376.942C175.463 375.875 175.059 375.231 174 375.231C172.94 375.231 172.535 375.875 171.865 376.942C171.622 377.328 171.25 377.543 170.856 377.771C170.404 378.032 169.937 378.301 169.736 378.832C169.657 379.023 169.618 379.227 169.619 379.433C169.619 380.297 170.319 381 171.18 381C171.623 381 172.096 380.852 172.595 380.696C173.076 380.545 173.573 380.39 174.002 380.39C174.432 380.39 174.928 380.545 175.406 380.696C175.905 380.851 176.375 380.999 176.82 380.999C177.679 380.999 178.378 380.296 178.378 379.432C178.379 379.226 178.338 379.022 178.259 378.831C178.058 378.3 177.591 378.03 177.139 377.769ZM171.35 374.386C171.647 374.745 172.025 374.942 172.413 374.942C172.466 374.942 172.519 374.938 172.571 374.931C173.38 374.817 173.885 373.867 173.719 372.768C173.65 372.306 173.465 371.875 173.2 371.556C172.903 371.198 172.525 371 172.137 371C172.084 371 172.031 371.004 171.979 371.012C171.169 371.126 170.665 372.076 170.83 373.175C170.899 373.636 171.084 374.066 171.35 374.386ZM175.429 374.931C175.481 374.938 175.534 374.942 175.587 374.942C175.976 374.942 176.353 374.745 176.651 374.386C176.915 374.066 177.099 373.636 177.169 373.174C177.335 372.076 176.831 371.126 176.021 371.011C175.969 371.004 175.916 371 175.863 371C175.475 371 175.097 371.198 174.8 371.556C174.535 371.875 174.35 372.306 174.281 372.768C174.115 373.867 174.62 374.817 175.429 374.931ZM170.389 377.269L170.393 377.268C170.691 377.152 170.922 376.924 171.06 376.607C171.27 376.126 171.24 375.483 170.981 374.885C170.623 374.057 169.921 373.5 169.234 373.5C169.088 373.5 168.944 373.526 168.809 373.577L168.805 373.578C168.508 373.692 168.277 373.922 168.139 374.239C167.929 374.719 167.959 375.362 168.217 375.961C168.576 376.789 169.278 377.346 169.965 377.346C170.11 377.346 170.254 377.32 170.389 377.269Z" fill="#FF8A42"/>
<path d="M29.447 468.895C29.1774 468.895 28.9079 468.83 28.6384 468.83C28.0993 468.766 27.6276 468.701 27.0885 468.637C24.0562 468.122 21.0913 467.221 18.3959 465.999C18.1938 465.935 17.9916 465.806 17.8569 465.742C17.3852 465.484 16.9135 465.227 16.4418 464.969C16.2396 464.841 16.0375 464.712 15.8353 464.583C14.7572 463.94 13.7464 463.296 12.7356 462.589C12.5335 462.46 12.3987 462.331 12.1966 462.202C11.6575 461.816 11.1858 461.366 10.6467 460.98C10.512 460.851 10.3098 460.722 10.175 460.529C9.97289 460.336 9.83813 460.208 9.63597 460.015C9.43382 459.822 9.29904 459.693 9.09689 459.5C8.96212 459.371 8.89474 459.307 8.75997 459.178C8.6252 459.049 8.49043 458.856 8.35566 458.728C7.54704 457.827 6.73843 456.926 5.9972 455.961C5.86243 455.768 5.72768 455.639 5.59291 455.446C5.18861 454.931 4.85168 454.352 4.51476 453.773C4.37999 453.58 4.24522 453.387 4.11045 453.13C3.23445 451.585 2.42585 449.977 1.81939 448.304C1.752 448.046 1.68462 447.853 1.54985 447.596C1.14555 446.438 0.808608 445.279 0.606455 444.057C0.539071 443.799 0.539083 443.542 0.471699 443.349C0.134777 441.611 0 439.874 0 438.072V34.1678C0 17.5663 13.7464 3.92483 30.9968 3.15266C15.4984 3.92483 3.09968 16.2151 3.09968 31.2079V440.968C3.16707 455.446 14.6898 467.415 29.447 468.895Z" fill="url(#paint0_linear_204_21500)"/>
<path d="M243.998 34.1679V438.008C243.998 441.354 243.459 444.572 242.448 447.532C242.381 447.789 242.313 447.982 242.178 448.239C242.111 448.497 242.044 448.69 241.909 448.947C241.841 449.14 241.774 449.269 241.707 449.462C241.504 449.977 241.302 450.492 241.033 450.942C240.898 451.135 240.831 451.392 240.696 451.585C240.561 451.907 240.359 452.164 240.224 452.486C240.089 452.679 240.022 452.872 239.887 453.065C239.753 453.258 239.618 453.451 239.483 453.709C239.146 454.288 238.742 454.867 238.405 455.382C238.27 455.575 238.135 455.704 238 455.897C237.866 456.09 237.731 456.283 237.529 456.476C237.394 456.669 237.259 456.862 237.057 457.055C236.922 457.248 236.72 457.441 236.585 457.634C236.451 457.827 236.249 458.02 236.114 458.213C235.777 458.599 235.44 458.921 235.103 459.243C234.564 459.757 234.025 460.272 233.486 460.787C233.351 460.916 233.149 461.109 232.947 461.237C232.542 461.559 232.138 461.881 231.734 462.203C231.532 462.331 231.397 462.46 231.195 462.589C230.588 463.039 229.982 463.425 229.375 463.811C229.173 463.94 228.971 464.069 228.769 464.197C228.365 464.455 227.893 464.712 227.489 464.969C227.286 465.098 227.084 465.227 226.815 465.291C226.141 465.677 225.4 465.999 224.658 466.321C224.456 466.385 224.254 466.514 224.052 466.578C223.85 466.707 223.58 466.771 223.378 466.836C223.176 466.9 222.906 467.029 222.637 467.093C222.098 467.286 221.559 467.479 221.02 467.608C220.818 467.672 220.615 467.736 220.481 467.801C219.807 467.994 219.066 468.187 218.324 468.316C218.055 468.38 217.785 468.444 217.583 468.444C217.314 468.509 217.044 468.573 216.774 468.573C216.235 468.637 215.764 468.702 215.225 468.766C214.955 468.766 214.686 468.83 214.416 468.83C229.173 467.35 240.696 455.382 240.696 440.904V31.208C240.696 16.4726 228.769 4.37536 213.607 3.21712C230.656 4.37536 243.998 17.8238 243.998 34.1679Z" fill="url(#paint1_linear_204_21500)"/>
<path d="M244 438.008V440.968C244 458.084 229.445 471.983 211.521 471.983H32.6154C14.6912 471.983 0.136169 458.084 0.136169 440.968V438.008C0.136169 439.81 0.270926 441.547 0.607848 443.285C0.675232 443.542 0.67524 443.799 0.742625 443.992C1.01216 445.215 1.2817 446.373 1.686 447.531C1.75339 447.789 1.82077 447.982 1.95553 448.239C2.56199 449.912 3.30324 451.521 4.24662 453.065C4.38139 453.258 4.51614 453.451 4.65091 453.709C4.98783 454.288 5.39214 454.867 5.72906 455.382C5.86383 455.575 5.9986 455.703 6.13337 455.897C6.8746 456.862 7.61583 457.827 8.49183 458.663C8.62659 458.792 8.76137 458.985 8.89614 459.114C9.0309 459.243 9.09829 459.371 9.23306 459.436C9.43521 459.629 9.56997 459.757 9.77212 459.95C9.97428 460.143 10.1091 460.272 10.3112 460.465C10.446 460.594 10.6481 460.787 10.7829 460.916C11.2546 461.366 11.7937 461.752 12.3327 462.138C12.5349 462.267 12.6697 462.396 12.8718 462.524C13.8826 463.232 14.8933 463.94 15.9715 464.519C16.1736 464.648 16.3758 464.776 16.5779 464.905C17.0496 465.162 17.5213 465.42 17.993 465.677C18.1952 465.742 18.3973 465.87 18.5321 465.935C21.2275 467.222 24.1924 468.122 27.2247 468.573C27.6964 468.637 28.2354 468.702 28.7745 468.766C29.3136 468.83 29.7853 468.895 30.3244 468.895C30.5939 468.895 30.8634 468.959 31.133 468.959C31.6047 468.959 32.1437 469.023 32.6828 469.023H211.588C212.127 469.023 212.599 469.023 213.071 468.959C213.34 468.959 213.61 468.959 213.879 468.895C214.284 468.895 214.755 468.83 215.16 468.766C215.227 468.766 215.362 468.766 215.429 468.766C215.968 468.702 216.44 468.637 216.979 468.573C217.249 468.508 217.518 468.508 217.788 468.444C218.057 468.38 218.327 468.315 218.529 468.315C219.27 468.187 220.011 467.994 220.685 467.801C220.887 467.736 221.089 467.672 221.224 467.608C221.763 467.479 222.302 467.286 222.841 467.093C223.044 467.029 223.313 466.9 223.583 466.835C223.852 466.771 224.054 466.642 224.257 466.578C224.459 466.514 224.661 466.449 224.863 466.321C225.604 465.999 226.278 465.677 227.019 465.291C227.221 465.162 227.424 465.098 227.693 464.969C228.097 464.712 228.569 464.519 228.973 464.197C229.176 464.069 229.378 463.94 229.58 463.811C230.186 463.425 230.793 462.975 231.399 462.589C231.601 462.46 231.736 462.331 231.938 462.203C232.343 461.881 232.747 461.559 233.151 461.237C233.353 461.109 233.488 460.916 233.69 460.787C234.229 460.272 234.768 459.757 235.308 459.243C235.644 458.921 235.981 458.535 236.318 458.213C236.453 458.02 236.655 457.827 236.79 457.634C236.925 457.441 237.127 457.248 237.262 457.055C237.396 456.862 237.599 456.669 237.733 456.476C237.868 456.283 238.003 456.09 238.205 455.897C238.34 455.703 238.475 455.575 238.609 455.382C239.014 454.803 239.351 454.288 239.688 453.709C239.822 453.516 239.957 453.323 240.092 453.065C240.227 452.872 240.294 452.679 240.429 452.486C240.564 452.164 240.766 451.907 240.9 451.585C241.035 451.392 241.103 451.135 241.237 450.942C241.44 450.427 241.709 449.977 241.911 449.462C241.979 449.269 242.046 449.14 242.113 448.947C242.181 448.754 242.316 448.497 242.383 448.239C242.45 448.046 242.518 447.789 242.652 447.531C243.461 444.571 244 441.354 244 438.008Z" fill="url(#paint2_linear_204_21500)"/>
<path d="M244 31.2082V34.1681C244 18.0814 231.062 4.76165 214.621 3.28168C214.351 3.28168 214.081 3.21734 213.812 3.21734C213.542 3.21734 213.273 3.15299 213.003 3.15299C212.532 3.15299 211.993 3.08864 211.521 3.08864H32.6154C32.0763 3.08864 31.6047 3.08864 31.133 3.15299C13.8826 3.92515 0.136169 17.5023 0.136169 34.1681V31.2082C0.136169 30.8864 0.136169 30.6291 0.136169 30.3073C0.136169 30.0499 0.136169 29.8569 0.136169 29.5995C0.136169 29.0847 0.203541 28.6343 0.270926 28.1195C0.270926 27.8621 0.338314 27.6048 0.338314 27.3474C0.338314 27.2187 0.405703 27.09 0.405703 26.9613C0.405703 26.8326 0.473091 26.6396 0.473091 26.4465C0.540476 26.1891 0.540463 25.9317 0.607848 25.6744C0.675232 25.2239 0.810017 24.7735 0.877401 24.3874C0.944786 24.1944 1.01216 23.937 1.01216 23.7439C1.14693 23.1005 1.34909 22.457 1.55124 21.8135C1.61863 21.6205 1.68601 21.4275 1.75339 21.2344C1.82077 20.977 1.95554 20.7197 2.02292 20.5266C2.09031 20.3336 2.1577 20.1405 2.22509 19.9475C2.29247 19.7545 2.35985 19.6258 2.42723 19.4327C2.49462 19.2397 2.562 19.0466 2.69677 18.8536C2.76415 18.7249 2.83155 18.5319 2.89893 18.4032C2.96632 18.2101 3.10109 17.9527 3.23585 17.7597C3.43801 17.3736 3.64016 17.0519 3.84231 16.6658C3.90969 16.4728 4.04446 16.2797 4.17923 16.0867C4.314 15.8937 4.44877 15.6363 4.58354 15.4432C5.45954 13.9632 6.53769 12.612 7.61584 11.2607C7.75061 11.0676 7.95275 10.8746 8.08752 10.6816C8.28967 10.4885 8.49183 10.2955 8.6266 10.1024C8.96352 9.78071 9.30045 9.45897 9.63737 9.13724C9.97429 8.8155 10.3786 8.42942 10.7155 8.10769C11.1198 7.78595 11.4567 7.46422 11.861 7.14248C12.0632 7.01379 12.2653 6.82075 12.4675 6.69206C12.8718 6.37033 13.2761 6.11294 13.6804 5.79121C14.0847 5.53382 14.489 5.21209 14.9607 4.9547C15.365 4.69731 15.8367 4.43993 16.241 4.18254C16.4432 4.05385 16.7127 3.92515 16.9149 3.79645C17.117 3.66776 17.3866 3.53907 17.5887 3.47472C17.7909 3.34603 18.0604 3.28168 18.2626 3.15299C18.4647 3.02429 18.7342 2.95995 18.9364 2.83125C19.4081 2.63821 19.8798 2.44518 20.3515 2.25214C20.5536 2.18779 20.8232 2.05909 21.0253 1.99474H21.0927C21.2949 1.9304 21.5644 1.86605 21.7666 1.73736C21.9687 1.67301 22.2382 1.60867 22.4404 1.54432C22.7099 1.47997 22.9795 1.41563 23.249 1.28694C23.5185 1.22259 23.7207 1.15824 23.9902 1.09389C24.2598 1.02955 24.4619 0.965198 24.7315 0.900851C25.001 0.836504 25.2705 0.772155 25.4727 0.707808C26.0118 0.579115 26.4834 0.514768 27.0225 0.386075C27.2921 0.321728 27.5616 0.32173 27.8311 0.257383C28.3702 0.193036 28.9767 0.128688 29.5158 0.0643409C29.9874 -5.89208e-06 30.3918 0 30.8634 0C31.133 0 31.4025 0 31.672 0C31.9416 0 32.2111 0 32.4807 0H211.386C211.656 0 211.925 0 212.195 0C212.397 0 212.666 0 212.869 0C213.408 0 213.947 0.0643448 214.418 0.128692C214.688 0.128692 214.957 0.193032 215.227 0.193032C215.497 0.193032 215.766 0.257387 216.036 0.321734C216.305 0.386081 216.575 0.386079 216.844 0.450425C217.114 0.514772 217.383 0.51477 217.585 0.579117C217.855 0.643464 218.125 0.707808 218.327 0.707808C218.529 0.772155 218.798 0.8365 219.001 0.8365C219.068 0.8365 219.135 0.836504 219.135 0.900851C219.337 0.965198 219.54 1.02955 219.809 1.09389C220.146 1.15824 220.416 1.22258 220.685 1.35128C220.887 1.41562 221.089 1.47997 221.292 1.54432C221.763 1.67301 222.168 1.86605 222.639 1.99474C222.976 2.12344 223.246 2.18778 223.515 2.31648C223.717 2.38082 223.92 2.50952 224.189 2.57387C224.391 2.63822 224.661 2.76691 224.863 2.8956C225.065 3.0243 225.335 3.08864 225.537 3.21734C227.154 3.9895 228.704 4.89035 230.186 5.9199C230.389 6.04859 230.523 6.17728 230.725 6.30597C231.399 6.7564 232.006 7.27118 232.612 7.72161C232.882 7.91465 233.151 8.17203 233.421 8.42942C234.499 9.33027 235.442 10.3598 236.318 11.3894C236.453 11.5824 236.655 11.7755 236.79 11.9685C237.127 12.3546 237.396 12.7407 237.733 13.1911C237.868 13.3841 238.07 13.5772 238.205 13.8346C238.475 14.1563 238.677 14.5424 238.946 14.9284C239.081 15.1215 239.148 15.3145 239.283 15.5076C239.485 15.8293 239.688 16.2154 239.89 16.5371C239.957 16.7302 240.092 16.8589 240.159 17.0519C240.496 17.631 240.766 18.2745 241.103 18.8536C241.17 18.9823 241.237 19.1753 241.305 19.3684C241.574 20.0118 241.844 20.591 242.046 21.2344C242.113 21.4918 242.181 21.6849 242.316 21.9422C242.787 23.2935 243.124 24.7092 243.326 26.1248C243.326 26.2535 243.394 26.4465 243.394 26.5752C243.461 26.8326 243.461 27.09 243.528 27.3474C243.528 27.6048 243.596 27.8621 243.596 28.1195C243.596 28.3769 243.663 28.6343 243.663 28.8917C243.663 29.3421 243.731 29.8569 243.731 30.3073C244 30.6291 244 30.9508 244 31.2082Z" fill="url(#paint3_linear_204_21500)"/>
<path d="M213.002 3.15273C212.53 3.15273 211.991 3.08838 211.519 3.08838H32.6138C32.0747 3.08838 31.603 3.08838 31.1313 3.15273C15.6329 3.92489 3.23422 16.2151 3.23422 31.2079V440.968C3.23422 455.704 15.1612 467.801 30.3227 468.959C30.5923 468.959 30.8618 469.023 31.1313 469.023C31.603 469.023 32.1421 469.088 32.6812 469.088H211.587C212.126 469.088 212.597 469.088 213.069 469.023C213.339 469.023 213.608 469.023 213.878 468.959C229.039 467.801 240.966 455.704 240.966 440.968V31.2079C240.899 16.2151 228.5 3.92489 213.002 3.15273ZM238.406 440.968C238.406 454.288 227.489 465.549 213.608 466.578C213.339 466.578 213.136 466.642 212.867 466.642C212.395 466.642 211.924 466.707 211.452 466.707H32.6138C32.1421 466.707 31.6704 466.707 31.1987 466.642C30.9292 466.642 30.727 466.643 30.4575 466.578C16.5763 465.549 5.66004 454.288 5.66004 440.968V31.2079C5.66004 17.5664 16.8459 6.30572 31.1313 5.53356H31.1987C31.6704 5.53356 32.1421 5.53356 32.6138 5.53356H211.519C211.991 5.53356 212.463 5.53356 212.934 5.53356H213.002C227.287 6.24137 238.473 17.5021 238.473 31.2079V440.968H238.406Z" fill="black"/>
<path d="M238.406 31.4013V441.162C238.406 443.671 238.002 446.181 237.261 448.497C236.654 450.363 235.846 452.165 234.902 453.773C234.7 454.095 234.498 454.481 234.296 454.803C233.959 455.318 233.622 455.768 233.285 456.283C232.274 457.634 231.061 458.857 229.849 460.015C232.207 456.09 233.555 451.521 233.555 446.695V441.998C233.555 441.741 233.555 441.419 233.555 441.162V31.337C233.555 31.0153 233.555 30.7579 233.555 30.5005V25.8675C233.555 20.9772 232.207 16.4086 229.849 12.4834C235.104 17.1807 238.406 23.9371 238.406 31.4013Z" fill="url(#paint4_linear_204_21500)"/>
<path d="M212.8 7.91455H212.665C212.261 7.91455 211.857 7.91455 211.452 7.91455H32.6144C32.2101 7.91455 31.8058 7.91455 31.4015 7.91455H31.2667H31.1993C18.2615 8.62237 8.15387 18.8535 8.15387 31.2081V440.968C8.15387 453.065 18.0594 463.297 30.6602 464.262C30.8624 464.262 31.0645 464.262 31.2667 464.326H31.3341C31.7384 464.326 32.2101 464.39 32.6144 464.39H211.52C211.924 464.39 212.328 464.391 212.8 464.326H212.868C213.07 464.326 213.272 464.326 213.474 464.262C226.075 463.297 235.98 453.065 235.98 440.968V31.2081C235.913 18.7892 225.738 8.55802 212.8 7.91455ZM229.377 440.968C229.377 449.848 222.167 457.312 212.868 458.02C212.8 458.02 212.665 458.02 212.598 458.02H212.531H212.463H212.396H212.328H212.261C211.992 458.02 211.655 458.02 211.385 458.02H32.6144C32.2775 458.02 32.0079 458.02 31.671 458.02H31.6036H31.5362H31.4689H31.4015H31.3341C31.2667 458.02 31.1993 458.02 31.0646 458.02C21.8329 457.312 14.5554 449.848 14.5554 440.968V31.2081C14.5554 22.1995 21.9003 14.7353 31.2667 14.1562H31.4015H31.671C31.9405 14.1562 32.2101 14.1562 32.4796 14.1562H211.385C211.655 14.1562 211.924 14.1562 212.194 14.1562H212.261H212.328C221.83 14.6066 229.309 22.1352 229.309 31.2724V440.968H229.377Z" fill="black"/>
<path d="M182.882 14.0918V16.3439C182.882 23.8725 176.481 29.9854 168.597 29.9854H75.4718C67.5878 29.9854 61.1863 23.8725 61.1863 16.3439V14.0918H182.882Z" fill="black"/>
<path d="M182.882 14.0918V16.3439C182.882 23.8725 176.481 29.9854 168.597 29.9854H75.4715C67.5875 29.9854 61.186 23.8725 61.186 16.3439V14.0918H182.882Z" fill="black"/>
<path d="M233.42 441.934V446.631C233.42 451.457 232.072 456.026 229.714 459.951C225.401 463.747 219.808 466.257 213.609 466.707C213.339 466.707 213.137 466.771 212.868 466.771C212.396 466.771 211.924 466.836 211.452 466.836H32.6144C32.1427 466.836 31.671 466.836 31.1993 466.771C30.9298 466.771 30.7276 466.771 30.4581 466.707C30.1212 466.707 29.7842 466.643 29.4473 466.578C23.6523 465.935 18.4637 463.49 14.3532 459.886C11.9948 455.961 10.6471 451.393 10.6471 446.567V441.033C10.6471 447.339 13.612 453.066 18.3963 456.926C21.8329 459.693 26.1455 461.559 30.8624 461.881C30.9972 461.881 31.1993 461.881 31.3341 461.881H31.4015H31.4689C31.8732 461.881 32.2101 461.881 32.6144 461.881H211.52C211.924 461.881 212.261 461.881 212.665 461.881H212.733H212.8C213.002 461.881 213.137 461.881 213.339 461.881C224.255 461.173 233.015 452.486 233.42 441.934Z" fill="url(#paint5_linear_204_21500)"/>
<path d="M238.407 31.4008C238.407 17.695 227.221 6.43427 212.935 5.66211H212.868C212.396 5.66211 211.924 5.66211 211.453 5.66211H32.6147C32.143 5.66211 31.6713 5.66211 31.1996 5.66211H31.1322C30.5258 5.66211 29.9867 5.72646 29.3802 5.79081C23.5852 6.43428 18.3966 8.8151 14.2862 12.4185C11.9277 16.3437 10.58 20.9123 10.58 25.8026V31.3365C10.58 24.9661 13.5449 19.2393 18.2618 15.3785C21.7658 12.5472 26.2806 10.6812 31.1996 10.4238H31.3344H31.4692C31.8735 10.4238 32.2104 10.4238 32.4799 10.4238H211.385C211.655 10.4238 211.992 10.4238 212.329 10.4238H212.531C223.851 11.0029 232.814 19.7541 233.285 30.5V25.867C233.285 20.9766 231.938 16.408 229.579 12.4829C235.105 17.1802 238.407 23.9366 238.407 31.4008Z" fill="url(#paint6_linear_204_21500)"/>
<path d="M14.3538 459.886C9.03046 455.188 5.66122 448.432 5.66122 441.032V31.2075C5.66122 23.7433 8.96307 16.9869 14.3538 12.2896C11.9954 16.2147 10.6477 20.7833 10.6477 25.6737V446.501C10.6477 451.327 11.9954 455.896 14.3538 459.886Z" fill="url(#paint7_linear_204_21500)"/>
<path d="M238.407 31.4008V441.161C238.407 443.67 238.003 446.18 237.262 448.496C236.655 450.362 235.847 452.164 234.903 453.773C234.701 454.095 234.499 454.481 234.297 454.802C233.96 455.317 233.623 455.768 233.286 456.282C232.275 457.634 231.062 458.921 229.782 460.014C229.782 460.014 229.782 460.015 229.782 459.95C232.14 456.025 233.488 451.456 233.488 446.63V25.8026C233.488 20.9122 232.14 16.3436 229.782 12.4185C235.105 17.1801 238.407 23.9365 238.407 31.4008Z" fill="url(#paint8_linear_204_21500)"/>
<path d="M134.365 18.7892H108.22C107.546 18.7892 107.007 18.2744 107.007 17.6309V17.0518C107.007 16.4083 107.546 15.8936 108.22 15.8936H134.365C135.039 15.8936 135.578 16.4083 135.578 17.0518V17.6309C135.578 18.3387 135.039 18.7892 134.365 18.7892Z" fill="url(#paint9_linear_204_21500)"/>
<defs>
<filter id="filter0_d_204_21500" x="35" y="200" width="87" height="70" filterUnits="userSpaceOnUse" color-interpolation-filters="sRGB">
<feFlood flood-opacity="0" result="BackgroundImageFix"/>
<feColorMatrix in="SourceAlpha" type="matrix" values="0 0 0 0 0 0 0 0 0 0 0 0 0 0 0 0 0 0 127 0" result="hardAlpha"/>
<feOffset dy="1"/>
<feGaussianBlur stdDeviation="2"/>
<feComposite in2="hardAlpha" operator="out"/>
<feColorMatrix type="matrix" values="0 0 0 0 0 0 0 0 0 0 0 0 0 0 0 0 0 0 0.19 0"/>
<feBlend mode="normal" in2="BackgroundImageFix" result="effect1_dropShadow_204_21500"/>
<feBlend mode="normal" in="SourceGraphic" in2="effect1_dropShadow_204_21500" result="shape"/>
</filter>
<filter id="filter1_d_204_21500" x="35" y="268" width="87" height="70" filterUnits="userSpaceOnUse" color-interpolation-filters="sRGB">
<feFlood flood-opacity="0" result="BackgroundImageFix"/>
<feColorMatrix in="SourceAlpha" type="matrix" values="0 0 0 0 0 0 0 0 0 0 0 0 0 0 0 0 0 0 127 0" result="hardAlpha"/>
<feOffset dy="1"/>
<feGaussianBlur stdDeviation="2"/>
<feComposite in2="hardAlpha" operator="out"/>
<feColorMatrix type="matrix" values="0 0 0 0 0 0 0 0 0 0 0 0 0 0 0 0 0 0 0.19 0"/>
<feBlend mode="normal" in2="BackgroundImageFix" result="effect1_dropShadow_204_21500"/>
<feBlend mode="normal" in="SourceGraphic" in2="effect1_dropShadow_204_21500" result="shape"/>
</filter>
<filter id="filter2_d_204_21500" x="122" y="200" width="87" height="70" filterUnits="userSpaceOnUse" color-interpolation-filters="sRGB">
<feFlood flood-opacity="0" result="BackgroundImageFix"/>
<feColorMatrix in="SourceAlpha" type="matrix" values="0 0 0 0 0 0 0 0 0 0 0 0 0 0 0 0 0 0 127 0" result="hardAlpha"/>
<feOffset dy="1"/>
<feGaussianBlur stdDeviation="2"/>
<feComposite in2="hardAlpha" operator="out"/>
<feColorMatrix type="matrix" values="0 0 0 0 0 0 0 0 0 0 0 0 0 0 0 0 0 0 0.19 0"/>
<feBlend mode="normal" in2="BackgroundImageFix" result="effect1_dropShadow_204_21500"/>
<feBlend mode="normal" in="SourceGraphic" in2="effect1_dropShadow_204_21500" result="shape"/>
</filter>
<filter id="filter3_d_204_21500" x="122" y="268" width="87" height="70" filterUnits="userSpaceOnUse" color-interpolation-filters="sRGB">
<feFlood flood-opacity="0" result="BackgroundImageFix"/>
<feColorMatrix in="SourceAlpha" type="matrix" values="0 0 0 0 0 0 0 0 0 0 0 0 0 0 0 0 0 0 127 0" result="hardAlpha"/>
<feOffset dy="1"/>
<feGaussianBlur stdDeviation="2"/>
<feComposite in2="hardAlpha" operator="out"/>
<feColorMatrix type="matrix" values="0 0 0 0 0 0 0 0 0 0 0 0 0 0 0 0 0 0 0.19 0"/>
<feBlend mode="normal" in2="BackgroundImageFix" result="effect1_dropShadow_204_21500"/>
<feBlend mode="normal" in="SourceGraphic" in2="effect1_dropShadow_204_21500" result="shape"/>
</filter>
<linearGradient id="paint0_linear_204_21500" x1="0.0751336" y1="236.052" x2="3.67689" y2="236.052" gradientUnits="userSpaceOnUse">
<stop stop-color="#666666"/>
<stop offset="1"/>
</linearGradient>
<linearGradient id="paint1_linear_204_21500" x1="240.961" y1="236.076" x2="244.532" y2="236.076" gradientUnits="userSpaceOnUse">
<stop/>
<stop offset="1" stop-color="#666666"/>
</linearGradient>
<linearGradient id="paint2_linear_204_21500" x1="122.034" y1="472.03" x2="122.034" y2="444.798" gradientUnits="userSpaceOnUse">
<stop stop-color="#959595"/>
<stop offset="1"/>
</linearGradient>
<linearGradient id="paint3_linear_204_21500" x1="122.034" y1="26.1866" x2="122.034" y2="-7.81504" gradientUnits="userSpaceOnUse">
<stop/>
<stop offset="1" stop-color="#808080"/>
</linearGradient>
<linearGradient id="paint4_linear_204_21500" x1="229.729" y1="236.23" x2="238.399" y2="236.23" gradientUnits="userSpaceOnUse">
<stop stop-color="#F1F1F1"/>
<stop offset="0.00125858" stop-color="#F0F0F0"/>
<stop offset="0.1385" stop-color="#B7B7B7"/>
<stop offset="0.2715" stop-color="#888888"/>
<stop offset="0.397" stop-color="#636363"/>
<stop offset="0.5134" stop-color="#494949"/>
<stop offset="0.6172" stop-color="#393939"/>
<stop offset="0.6978" stop-color="#333333"/>
</linearGradient>
<linearGradient id="paint5_linear_204_21500" x1="10.639" y1="453.969" x2="233.434" y2="453.969" gradientUnits="userSpaceOnUse">
<stop stop-color="#1A1A1A"/>
<stop offset="0.1173" stop-color="#454545"/>
<stop offset="0.2314" stop-color="#666666"/>
<stop offset="0.3395" stop-color="#7E7E7E"/>
<stop offset="0.4393" stop-color="#8D8D8D"/>
<stop offset="0.5229" stop-color="#929292"/>
<stop offset="0.5926" stop-color="#8B8B8B"/>
<stop offset="0.6974" stop-color="#767676"/>
<stop offset="0.8246" stop-color="#545454"/>
<stop offset="0.968" stop-color="#252525"/>
<stop offset="1" stop-color="#1A1A1A"/>
</linearGradient>
<linearGradient id="paint6_linear_204_21500" x1="10.6393" y1="18.517" x2="238.418" y2="18.517" gradientUnits="userSpaceOnUse">
<stop stop-color="#1A1A1A"/>
<stop offset="0.1173" stop-color="#454545"/>
<stop offset="0.2314" stop-color="#666666"/>
<stop offset="0.3395" stop-color="#7E7E7E"/>
<stop offset="0.4393" stop-color="#8D8D8D"/>
<stop offset="0.5229" stop-color="#929292"/>
<stop offset="0.5926" stop-color="#8B8B8B"/>
<stop offset="0.6974" stop-color="#767676"/>
<stop offset="0.8246" stop-color="#545454"/>
<stop offset="0.968" stop-color="#252525"/>
<stop offset="1" stop-color="#1A1A1A"/>
</linearGradient>
<linearGradient id="paint7_linear_204_21500" x1="5.66197" y1="236.087" x2="10.806" y2="236.087" gradientUnits="userSpaceOnUse">
<stop stop-color="#C8C8C8"/>
<stop offset="0.2107" stop-color="#A0A0A0"/>
<stop offset="0.5867" stop-color="#5D5D5D"/>
<stop offset="0.8599" stop-color="#343434"/>
<stop offset="1" stop-color="#242424"/>
</linearGradient>
<linearGradient id="paint8_linear_204_21500" x1="229.705" y1="236.253" x2="238.4" y2="236.253" gradientUnits="userSpaceOnUse">
<stop stop-color="#242424"/>
<stop offset="0.1401" stop-color="#343434"/>
<stop offset="0.4133" stop-color="#5D5D5D"/>
<stop offset="0.7893" stop-color="#A0A0A0"/>
<stop offset="1" stop-color="#C8C8C8"/>
</linearGradient>
<linearGradient id="paint9_linear_204_21500" x1="107.008" y1="17.3866" x2="135.558" y2="17.3866" gradientUnits="userSpaceOnUse">
<stop stop-color="#333333"/>
<stop offset="0.0901238" stop-color="#2B2B2B"/>
<stop offset="0.2885" stop-color="#1E1E1E"/>
<stop offset="0.4787" stop-color="#1A1A1A"/>
<stop offset="0.7885" stop-color="#1C1C1C"/>
<stop offset="0.8999" stop-color="#232323"/>
<stop offset="0.9792" stop-color="#2E2E2E"/>
<stop offset="1" stop-color="#333333"/>
</linearGradient>
</defs>
</svg>
