<?xml version="1.0" standalone="no"?>
<!DOCTYPE svg PUBLIC "-//W3C//DTD SVG 20010904//EN"
 "http://www.w3.org/TR/2001/REC-SVG-20010904/DTD/svg10.dtd">
<svg version="1.0" xmlns="http://www.w3.org/2000/svg"
 width="700.000000pt" height="700.000000pt" viewBox="0 0 700.000000 700.000000"
 preserveAspectRatio="xMidYMid meet">
<metadata>
Created by potrace 1.14, written by Peter Selinger 2001-2017
</metadata>
<g transform="translate(0.000000,700.000000) scale(0.100000,-0.100000)"
fill="#000000" stroke="none">
<path d="M1840 4624 c-150 -39 -309 -168 -382 -309 -65 -126 -83 -202 -83
-355 0 -116 3 -145 24 -205 28 -83 74 -178 107 -221 24 -33 23 -44 -8 -44 -26
0 -127 -52 -223 -114 -234 -153 -359 -316 -422 -551 -23 -87 -26 -120 -27
-255 0 -129 3 -170 22 -245 76 -303 266 -570 600 -844 131 -108 686 -288 1122
-365 79 -14 149 -26 155 -26 5 0 -51 31 -125 68 -268 133 -491 308 -619 486
-71 98 -100 155 -137 266 -27 81 -28 93 -28 265 0 161 3 190 26 276 34 126 74
220 153 359 143 251 205 399 205 487 0 27 6 35 33 49 151 77 291 267 331 451
81 370 -142 764 -472 832 -72 15 -185 13 -252 -5z m408 -323 c46 -24 73 -53
103 -111 18 -36 23 -61 23 -125 1 -70 -3 -87 -29 -134 -111 -202 -366 -105
-367 140 0 75 19 131 60 180 59 69 137 87 210 50z"/>
<path d="M4873 4625 c-121 -33 -241 -114 -319 -218 -146 -192 -189 -454 -112
-682 46 -137 165 -291 278 -360 l56 -34 12 -72 c17 -99 59 -197 151 -358 103
-180 133 -239 169 -343 47 -131 65 -244 66 -393 0 -240 -67 -408 -244 -614
-123 -143 -299 -270 -545 -392 -181 -91 -186 -88 85 -44 261 43 544 110 758
180 97 32 119 44 237 132 184 137 388 343 487 493 73 111 120 204 159 318 88
257 58 599 -72 819 -46 78 -207 239 -301 302 -97 64 -223 131 -248 131 -30 0
-31 14 -4 54 40 59 80 144 105 226 32 104 32 271 1 383 -68 241 -235 416 -449
472 -71 19 -201 18 -270 0z m17 -325 c128 -65 160 -281 59 -403 -130 -158
-338 -55 -339 168 0 182 145 304 280 235z"/>
<path d="M3395 3769 c-164 -12 -254 -44 -310 -110 -29 -35 -33 -85 -11 -127
32 -62 170 -166 275 -208 l43 -17 -4 -53 c-6 -67 -37 -109 -109 -149 -44 -24
-66 -29 -119 -29 -93 0 -144 28 -266 146 -55 54 -103 98 -107 98 -10 0 33
-140 59 -192 114 -225 389 -283 595 -126 l45 35 32 -27 c80 -67 206 -107 303
-96 179 18 302 134 354 335 9 35 14 66 11 69 -3 3 -51 -38 -106 -92 -64 -62
-118 -105 -152 -121 -134 -63 -303 -1 -338 123 -16 60 -13 69 28 83 107 34
266 136 301 193 27 42 26 68 0 124 -38 77 -147 128 -293 138 -39 3 -84 6 -101
7 -16 2 -75 0 -130 -4z m241 -73 c13 -9 24 -20 24 -25 0 -19 -78 -45 -150 -49
-141 -8 -238 56 -130 85 61 17 223 10 256 -11z"/>
</g>
</svg>
