<svg width="202" height="59" viewBox="0 0 202 59" fill="none" xmlns="http://www.w3.org/2000/svg">
<path d="M202 53.0858C202 56.3533 199.4 59 196.183 59H5.82444C2.60955 59 0 56.3533 0 53.0858V5.92193C0 2.65599 2.60955 0 5.82444 0H196.182C199.4 0 201.999 2.65599 201.999 5.92193L202 53.0858Z" fill="black"/>
<path d="M44.2264 27.0113C44.1825 22.2574 48.2187 19.9446 48.4033 19.8369C46.1174 16.5875 42.5744 16.1435 41.3293 16.1081C38.3536 15.8028 35.4672 17.8442 33.9513 17.8442C32.4052 17.8442 30.0709 16.1376 27.5551 16.1878C24.3177 16.2364 21.289 18.064 19.6279 20.9019C16.1999 26.6883 18.7566 35.1917 22.0409 39.8689C23.6838 42.1595 25.6036 44.7172 28.1164 44.6272C30.5747 44.5284 31.493 43.0991 34.4596 43.0991C37.399 43.0991 38.2613 44.6272 40.8241 44.5697C43.4624 44.5284 45.1235 42.2687 46.7089 39.9574C48.6075 37.3319 49.37 34.7462 49.4002 34.6135C49.3382 34.5928 44.2763 32.7092 44.2264 27.0113Z" fill="white"/>
<path d="M39.3854 13.0313C40.7076 11.4191 41.6122 9.22576 41.3611 6.99998C39.4474 7.08258 37.0541 8.29061 35.6759 9.86738C34.4566 11.2568 33.3674 13.5342 33.6488 15.6759C35.7985 15.8323 38.0057 14.6184 39.3854 13.0313Z" fill="white"/>
<path d="M79.8034 44.2987H76.3678L74.4859 38.533H67.9444L66.1517 44.2987H62.8069L69.2878 24.6694H73.2907L79.8034 44.2987ZM73.9185 36.114L72.2166 30.9883C72.0366 30.4647 71.6992 29.2316 71.2015 27.2905H71.141C70.9428 28.1254 70.6236 29.3585 70.1849 30.9883L68.5132 36.114H73.9185Z" fill="white"/>
<path d="M96.4702 37.0477C96.4702 39.4549 95.8031 41.3576 94.4687 42.7545C93.2736 43.9979 91.7895 44.6189 90.018 44.6189C88.1058 44.6189 86.7322 43.9492 85.8956 42.6099H85.8351V50.066H82.6097V34.8042C82.6097 33.2909 82.5689 31.7377 82.4902 30.1447H85.3268L85.5068 32.3882H85.5673C86.6429 30.6978 88.2753 29.8541 90.4658 29.8541C92.1783 29.8541 93.608 30.5134 94.7516 31.8336C95.8984 33.1552 96.4702 34.8927 96.4702 37.0477ZM93.1844 37.1627C93.1844 35.7851 92.8667 34.6493 92.2283 33.7555C91.5309 32.8233 90.5944 32.3572 89.4205 32.3572C88.6247 32.3572 87.9016 32.6168 87.2556 33.1286C86.6081 33.6449 86.1845 34.3189 85.9864 35.1538C85.8865 35.5432 85.8366 35.8618 85.8366 36.1125V38.4725C85.8366 39.5021 86.1603 40.3709 86.8078 41.0803C87.4553 41.7898 88.2964 42.1438 89.3312 42.1438C90.546 42.1438 91.4915 41.6866 92.1677 40.775C92.8455 39.862 93.1844 38.6584 93.1844 37.1627Z" fill="white"/>
<path d="M113.167 37.0477C113.167 39.4549 112.5 41.3576 111.164 42.7545C109.971 43.9979 108.487 44.6189 106.715 44.6189C104.803 44.6189 103.429 43.9492 102.594 42.6099H102.534V50.066H99.3082V34.8042C99.3082 33.2909 99.2674 31.7377 99.1887 30.1447H102.025L102.205 32.3882H102.266C103.34 30.6978 104.972 29.8541 107.164 29.8541C108.875 29.8541 110.305 30.5134 111.452 31.8336C112.594 33.1552 113.167 34.8927 113.167 37.0477ZM109.881 37.1627C109.881 35.7851 109.562 34.6493 108.924 33.7555C108.226 32.8233 107.293 32.3572 106.117 32.3572C105.32 32.3572 104.599 32.6168 103.951 33.1286C103.304 33.6449 102.882 34.3189 102.683 35.1538C102.585 35.5432 102.534 35.8618 102.534 36.1125V38.4725C102.534 39.5021 102.857 40.3709 103.502 41.0803C104.149 41.7883 104.99 42.1438 106.028 42.1438C107.243 42.1438 108.188 41.6866 108.865 40.775C109.542 39.862 109.881 38.6584 109.881 37.1627Z" fill="white"/>
<path d="M131.835 38.7941C131.835 40.4638 131.241 41.8222 130.047 42.871C128.736 44.017 126.91 44.5893 124.563 44.5893C122.397 44.5893 120.66 44.1822 119.345 43.3666L120.093 40.7455C121.509 41.5803 123.062 41.9992 124.755 41.9992C125.97 41.9992 126.916 41.7308 127.595 41.1968C128.271 40.6629 128.608 39.946 128.608 39.0522C128.608 38.2557 128.33 37.5846 127.772 37.0403C127.217 36.496 126.289 35.9901 124.994 35.5225C121.469 34.2407 119.709 32.3631 119.709 29.8939C119.709 28.2803 120.326 26.9572 121.562 25.9276C122.793 24.8966 124.436 24.3818 126.491 24.3818C128.323 24.3818 129.844 24.6931 131.059 25.314L130.253 27.8776C129.118 27.2758 127.835 26.9749 126.4 26.9749C125.265 26.9749 124.379 27.2478 123.743 27.7906C123.206 28.2758 122.937 28.8673 122.937 29.5679C122.937 30.3438 123.244 30.9854 123.861 31.4899C124.398 31.956 125.374 32.4604 126.79 33.0047C128.522 33.6847 129.795 34.4797 130.613 35.3912C131.428 36.2998 131.835 37.4371 131.835 38.7941Z" fill="white"/>
<path d="M142.499 32.5046H138.944V39.3767C138.944 41.1245 139.57 41.9977 140.826 41.9977C141.402 41.9977 141.881 41.9491 142.259 41.8517L142.348 44.2397C141.713 44.4713 140.876 44.5878 139.84 44.5878C138.566 44.5878 137.57 44.2088 136.852 43.4521C136.136 42.6939 135.776 41.4225 135.776 39.6363V32.5017H133.658V30.1417H135.776V27.5501L138.944 26.6179V30.1417H142.499V32.5046Z" fill="white"/>
<path d="M158.54 37.1052C158.54 39.2808 157.901 41.067 156.627 42.4638C155.292 43.902 153.519 44.6188 151.308 44.6188C149.178 44.6188 147.482 43.93 146.218 42.5523C144.953 41.1747 144.321 39.4357 144.321 37.3397C144.321 35.1464 144.971 33.3498 146.277 31.953C147.579 30.5547 149.337 29.8555 151.547 29.8555C153.677 29.8555 155.391 30.5444 156.685 31.9235C157.922 33.2613 158.54 34.9885 158.54 37.1052ZM155.193 37.2069C155.193 35.9016 154.907 34.782 154.328 33.8484C153.652 32.7185 152.685 32.1551 151.432 32.1551C150.136 32.1551 149.151 32.72 148.475 33.8484C147.895 34.7835 147.61 35.9207 147.61 37.2659C147.61 38.5713 147.895 39.6908 148.475 40.623C149.172 41.7529 150.147 42.3163 151.404 42.3163C152.635 42.3163 153.602 41.7411 154.299 40.5935C154.894 39.6422 155.193 38.5108 155.193 37.2069Z" fill="white"/>
<path d="M169.023 32.9103C168.704 32.8528 168.364 32.8233 168.007 32.8233C166.872 32.8233 165.995 33.2407 165.378 34.077C164.84 34.8145 164.571 35.7467 164.571 36.8722V44.2988H161.347L161.378 34.6021C161.378 32.9708 161.337 31.4855 161.257 30.1462H164.066L164.184 32.8543H164.273C164.614 31.9235 165.151 31.1742 165.886 30.6123C166.604 30.1063 167.381 29.8541 168.217 29.8541C168.515 29.8541 168.784 29.8748 169.023 29.9116V32.9103Z" fill="white"/>
<path d="M183.448 36.552C183.448 37.1155 183.41 37.5904 183.33 37.9784H173.654C173.692 39.3767 174.159 40.446 175.058 41.1835C175.874 41.8429 176.928 42.1733 178.223 42.1733C179.656 42.1733 180.963 41.9505 182.138 41.5036L182.643 43.6866C181.27 44.2707 179.648 44.5613 177.777 44.5613C175.526 44.5613 173.759 43.9152 172.473 42.6246C171.19 41.334 170.547 39.6009 170.547 37.4267C170.547 35.2924 171.144 33.515 172.341 32.0975C173.594 30.5842 175.287 29.8275 177.417 29.8275C179.509 29.8275 181.093 30.5842 182.168 32.0975C183.02 33.2997 183.448 34.7865 183.448 36.552ZM180.373 35.7364C180.394 34.8042 180.184 33.9988 179.746 33.3188C179.188 32.4442 178.33 32.0076 177.176 32.0076C176.122 32.0076 175.264 32.4338 174.609 33.2893C174.072 33.9693 173.753 34.785 173.654 35.7349H180.373V35.7364Z" fill="white"/>
<path d="M72.8521 12.5937C72.8521 14.3298 72.318 15.6366 71.2515 16.5142C70.2636 17.324 68.8597 17.7296 67.0413 17.7296C66.1397 17.7296 65.3681 17.6913 64.7222 17.6146V8.12887C65.5648 7.99612 66.4725 7.92827 67.4528 7.92827C69.185 7.92827 70.4906 8.29554 71.371 9.03009C72.3574 9.86052 72.8521 11.0479 72.8521 12.5937ZM71.1804 12.6365C71.1804 11.511 70.8748 10.6482 70.2636 10.0464C69.6525 9.44604 68.7599 9.14514 67.5844 9.14514C67.0852 9.14514 66.6601 9.17759 66.3076 9.24544V16.4567C66.5028 16.4862 66.8598 16.4995 67.3787 16.4995C68.592 16.4995 69.5284 16.1706 70.188 15.5127C70.8476 14.8549 71.1804 13.8961 71.1804 12.6365Z" fill="white"/>
<path d="M81.7157 14.11C81.7157 15.1793 81.4025 16.0555 80.7762 16.7428C80.1196 17.4494 79.2498 17.8019 78.1636 17.8019C77.1167 17.8019 76.2831 17.4641 75.6613 16.7856C75.0411 16.1086 74.731 15.2546 74.731 14.225C74.731 13.1483 75.0502 12.2647 75.6916 11.5789C76.333 10.893 77.1953 10.5493 78.2815 10.5493C79.3284 10.5493 80.1695 10.8871 80.8064 11.5641C81.4116 12.222 81.7157 13.0716 81.7157 14.11ZM80.0712 14.1601C80.0712 13.5185 79.929 12.9683 79.6461 12.5096C79.3133 11.955 78.8398 11.6777 78.2241 11.6777C77.5872 11.6777 77.1031 11.955 76.7702 12.5096C76.4858 12.9683 76.3451 13.5273 76.3451 14.1881C76.3451 14.8298 76.4873 15.3799 76.7702 15.8387C77.1137 16.3933 77.5917 16.6706 78.2089 16.6706C78.8141 16.6706 79.2891 16.3888 79.631 15.8239C79.9245 15.3563 80.0712 14.8017 80.0712 14.1601Z" fill="white"/>
<path d="M93.6004 10.6909L91.369 17.6441H89.9167L88.9923 14.6247C88.7578 13.871 88.5672 13.1217 88.419 12.3783H88.3902C88.2526 13.1424 88.0619 13.8902 87.8169 14.6247L86.835 17.6441H85.3661L83.2678 10.6909H84.8971L85.7035 13.9964C85.8986 14.7781 86.059 15.523 86.1876 16.2281H86.2163C86.3343 15.6469 86.5295 14.9065 86.8048 14.0111L87.8169 10.6924H89.1088L90.0785 13.9403C90.313 14.7324 90.5036 15.495 90.6504 16.2295H90.6943C90.8017 15.5142 90.9635 14.7516 91.1784 13.9403L92.0437 10.6924H93.6004V10.6909Z" fill="white"/>
<path d="M101.82 17.6441H100.234V13.6616C100.234 12.4344 99.7561 11.8208 98.7969 11.8208C98.3265 11.8208 97.9468 11.9889 97.6518 12.3267C97.3598 12.6645 97.2115 13.0627 97.2115 13.5185V17.6426H95.6261V12.6778C95.6261 12.0671 95.6064 11.4048 95.5686 10.688H96.9619L97.036 11.7751H97.0799C97.2645 11.4373 97.5398 11.1585 97.9014 10.9358C98.331 10.6762 98.8121 10.5449 99.3385 10.5449C100.004 10.5449 100.558 10.7544 100.998 11.1747C101.546 11.6895 101.82 12.458 101.82 13.4787V17.6441Z" fill="white"/>
<path d="M106.192 17.6441H104.608V7.50049H106.192V17.6441Z" fill="white"/>
<path d="M115.526 14.11C115.526 15.1793 115.213 16.0555 114.586 16.7428C113.93 17.4494 113.058 17.8019 111.974 17.8019C110.925 17.8019 110.092 17.4641 109.471 16.7856C108.851 16.1086 108.541 15.2546 108.541 14.225C108.541 13.1483 108.86 12.2647 109.502 11.5789C110.143 10.893 111.005 10.5493 112.09 10.5493C113.138 10.5493 113.978 10.8871 114.617 11.5641C115.222 12.222 115.526 13.0716 115.526 14.11ZM113.88 14.1601C113.88 13.5185 113.738 12.9683 113.455 12.5096C113.123 11.955 112.648 11.6777 112.034 11.6777C111.396 11.6777 110.912 11.955 110.58 12.5096C110.296 12.9683 110.155 13.5273 110.155 14.1881C110.155 14.8298 110.297 15.3799 110.58 15.8387C110.924 16.3933 111.402 16.6706 112.019 16.6706C112.624 16.6706 113.098 16.3888 113.44 15.8239C113.735 15.3563 113.88 14.8017 113.88 14.1601Z" fill="white"/>
<path d="M123.199 17.6441H121.775L121.657 16.8431H121.613C121.126 17.4818 120.432 17.8019 119.53 17.8019C118.857 17.8019 118.312 17.591 117.902 17.1721C117.53 16.7915 117.344 16.318 117.344 15.7561C117.344 14.9065 117.707 14.2589 118.438 13.8105C119.167 13.3621 120.193 13.1424 121.513 13.1527V13.0229C121.513 12.1069 121.02 11.6497 120.032 11.6497C119.329 11.6497 118.709 11.8222 118.173 12.1644L117.851 11.1496C118.514 10.7499 119.332 10.5493 120.297 10.5493C122.161 10.5493 123.096 11.5081 123.096 13.4256V15.9862C123.096 16.6809 123.131 17.234 123.199 17.6441ZM121.553 15.2546V14.1822C119.804 14.1527 118.93 14.6203 118.93 15.5835C118.93 15.9463 119.029 16.2177 119.234 16.3992C119.438 16.5806 119.698 16.6706 120.008 16.6706C120.356 16.6706 120.681 16.5629 120.978 16.349C121.276 16.1337 121.459 15.8608 121.527 15.526C121.544 15.4507 121.553 15.3593 121.553 15.2546Z" fill="white"/>
<path d="M132.208 17.6441H130.801L130.727 16.5275H130.683C130.233 17.3771 129.468 17.8019 128.392 17.8019C127.533 17.8019 126.817 17.473 126.25 16.8151C125.683 16.1573 125.4 15.3032 125.4 14.2545C125.4 13.1291 125.707 12.2175 126.324 11.5213C126.922 10.8723 127.654 10.5478 128.525 10.5478C129.483 10.5478 130.153 10.862 130.534 11.4918H130.565V7.50049H132.152V15.7708C132.152 16.4478 132.17 17.0718 132.208 17.6441ZM130.565 14.7118V13.5524C130.565 13.3518 130.55 13.1896 130.521 13.0657C130.432 12.694 130.239 12.3813 129.947 12.129C129.652 11.8768 129.297 11.75 128.887 11.75C128.295 11.75 127.833 11.9786 127.492 12.4373C127.155 12.896 126.984 13.4816 126.984 14.197C126.984 14.8843 127.146 15.4419 127.471 15.8711C127.814 16.3284 128.277 16.557 128.857 16.557C129.377 16.557 129.793 16.3667 130.109 15.9847C130.415 15.6322 130.565 15.2074 130.565 14.7118Z" fill="white"/>
<path d="M145.767 14.11C145.767 15.1793 145.454 16.0555 144.828 16.7428C144.171 17.4494 143.303 17.8019 142.215 17.8019C141.17 17.8019 140.336 17.4641 139.713 16.7856C139.092 16.1086 138.782 15.2546 138.782 14.225C138.782 13.1483 139.102 12.2647 139.743 11.5789C140.384 10.893 141.247 10.5493 142.334 10.5493C143.38 10.5493 144.222 10.8871 144.858 11.5641C145.463 12.222 145.767 13.0716 145.767 14.11ZM144.124 14.1601C144.124 13.5185 143.982 12.9683 143.699 12.5096C143.365 11.955 142.893 11.6777 142.275 11.6777C141.64 11.6777 141.156 11.955 140.822 12.5096C140.537 12.9683 140.397 13.5273 140.397 14.1881C140.397 14.8298 140.539 15.3799 140.822 15.8387C141.165 16.3933 141.643 16.6706 142.26 16.6706C142.865 16.6706 143.342 16.3888 143.684 15.8239C143.976 15.3563 144.124 14.8017 144.124 14.1601Z" fill="white"/>
<path d="M154.292 17.6441H152.708V13.6616C152.708 12.4344 152.23 11.8208 151.269 11.8208C150.799 11.8208 150.419 11.9889 150.125 12.3267C149.832 12.6645 149.685 13.0627 149.685 13.5185V17.6426H148.098V12.6778C148.098 12.0671 148.08 11.4048 148.042 10.688H149.434L149.508 11.7751H149.552C149.738 11.4373 150.013 11.1585 150.373 10.9358C150.805 10.6762 151.284 10.5449 151.812 10.5449C152.476 10.5449 153.03 10.7544 153.47 11.1747C154.019 11.6895 154.292 12.458 154.292 13.4787V17.6441Z" fill="white"/>
<path d="M164.962 11.8488H163.216V15.2265C163.216 16.085 163.526 16.5142 164.14 16.5142C164.425 16.5142 164.661 16.4906 164.847 16.4419L164.888 17.6146C164.574 17.7296 164.163 17.7871 163.656 17.7871C163.03 17.7871 162.543 17.6013 162.19 17.2296C161.836 16.8579 161.661 16.2325 161.661 15.3549V11.8488H160.618V10.6909H161.661V9.41652L163.214 8.95927V10.6894H164.96V11.8488H164.962Z" fill="white"/>
<path d="M173.355 17.6441H171.768V13.6911C171.768 12.4447 171.29 11.8208 170.332 11.8208C169.597 11.8208 169.095 12.1821 168.819 12.9049C168.773 13.0568 168.745 13.2427 168.745 13.461V17.6426H167.161V7.50049H168.745V11.691H168.776C169.275 10.9284 169.99 10.5478 170.918 10.5478C171.574 10.5478 172.117 10.7573 172.549 11.1777C173.086 11.7013 173.355 12.4801 173.355 13.5096V17.6441Z" fill="white"/>
<path d="M182.013 13.8386C182.013 14.1159 181.991 14.3489 181.954 14.5392H177.199C177.22 15.2266 177.447 15.7502 177.887 16.113C178.29 16.4375 178.808 16.5998 179.444 16.5998C180.147 16.5998 180.789 16.4906 181.367 16.2709L181.615 17.3447C180.938 17.6308 180.143 17.7739 179.221 17.7739C178.117 17.7739 177.247 17.4568 176.618 16.8225C175.986 16.1883 175.672 15.3372 175.672 14.2693C175.672 13.2206 175.964 12.3474 176.553 11.6512C177.167 10.9078 177.998 10.5361 179.046 10.5361C180.072 10.5361 180.851 10.9078 181.377 11.6512C181.802 12.2412 182.013 12.9713 182.013 13.8386ZM180.5 13.4389C180.512 12.9801 180.407 12.5848 180.193 12.2515C179.917 11.8223 179.498 11.6069 178.931 11.6069C178.414 11.6069 177.992 11.8164 177.669 12.2367C177.406 12.5716 177.25 12.9713 177.199 13.4389H180.5Z" fill="white"/>
</svg>
