<svg width="461" height="427" viewBox="0 0 461 427" fill="none" xmlns="http://www.w3.org/2000/svg">
<g filter="url(#filter0_f_204_21623)">
<path d="M104 213.387C104 273.8 160.636 322.774 230.5 322.774C300.364 322.774 357 273.8 357 213.387C357 152.974 300.364 104 230.5 104C160.636 104 104 152.974 104 213.387Z" fill="#FF8A42"/>
</g>
<path d="M234.042 64.789C234.042 65.5512 234.042 65.9322 233.661 66.6944C233.28 67.8376 232.137 68.5996 230.993 68.9807L229.469 69.3618C198.983 81.175 180.311 104.802 180.311 131.477C180.311 157.771 198.983 181.397 229.088 192.829L230.612 193.21C231.755 193.591 232.518 194.735 233.28 195.878C233.661 196.259 233.661 197.021 233.661 197.783C233.661 198.545 233.661 198.926 233.28 199.689L232.518 201.213C220.704 227.507 219.561 238.558 218.418 254.944L218.418 256.849C218.418 258.374 217.656 259.517 216.513 260.279C215.369 261.041 213.845 261.422 212.702 261.041L211.178 260.66C147.539 242.75 106.383 192.448 106.383 133.001C106.383 73.5536 147.539 23.2521 211.178 5.34174L212.702 4.96063C213.845 4.57956 215.369 4.96066 216.513 5.34174C217.656 6.10388 218.418 7.24706 218.418 8.39026L218.799 9.91454C222.61 32.7789 225.658 42.3057 233.661 62.5026L234.042 64.0268C233.661 63.6458 234.042 64.0269 234.042 64.789ZM168.498 131.477C168.498 101.753 187.932 75.0779 219.942 60.5972C214.226 45.3543 211.178 35.4464 207.748 17.9171C152.874 35.8275 117.815 80.0318 117.815 132.239C117.815 184.065 152.493 228.269 206.986 246.179C208.129 232.842 210.415 221.41 218.799 201.594C187.932 187.494 168.498 160.819 168.498 131.477Z" fill="black"/>
<path d="M228.705 63.2646C220.702 42.6867 217.654 33.1599 213.843 9.91448L213.462 8.39021L211.937 8.7713C150.204 26.3006 110.572 74.6968 110.572 132.239C110.572 189.781 150.585 238.177 211.937 255.706L213.462 256.087L213.462 254.182C214.605 237.415 215.748 226.363 227.943 198.926L228.705 197.402L227.18 197.021C195.17 184.827 175.355 159.676 175.355 131.095C175.355 102.515 195.17 77.3643 227.561 64.789L229.086 64.4079L228.705 63.2646ZM225.275 199.307C213.843 224.839 212.7 237.033 211.175 252.276C151.728 234.747 113.621 187.875 113.621 132.239C113.621 76.6021 152.109 29.7302 211.556 12.2009C215.367 33.922 218.416 43.8299 225.656 63.2646C193.265 76.221 173.068 102.515 173.068 131.477C173.068 160.438 192.884 186.351 225.275 199.307Z" fill="black"/>
<path d="M227.566 48.7837C227.566 50.6891 226.423 52.5945 224.518 52.9755L223.374 53.3566C183.362 66.3131 158.592 96.7988 158.592 132.62C158.592 167.297 182.6 197.021 221.088 209.215L222.231 209.596C224.137 210.358 225.28 211.883 225.28 213.788C225.28 214.169 225.28 214.169 225.28 214.55L224.899 215.693C224.137 220.266 223.375 223.696 222.231 227.125C221.469 230.174 220.707 233.604 219.945 237.796L219.564 239.32C219.183 240.463 218.421 241.606 217.658 242.368C216.515 243.13 215.372 243.13 213.848 242.749L212.323 242.368C157.068 225.601 122.771 183.683 122.771 132.62C122.771 81.937 158.211 38.1137 213.467 21.7276L214.991 21.3465C216.134 20.9654 217.658 20.9654 218.802 21.7276C219.945 22.4897 220.707 23.633 220.707 24.7762L221.088 26.3005C221.85 30.1112 222.612 32.3976 223.756 35.0651C224.899 38.1137 226.423 41.5433 227.185 46.4973L227.566 47.6405C227.566 48.4027 227.566 48.4027 227.566 48.7837ZM146.398 132.62C146.398 92.9881 172.311 59.4538 214.229 43.8298C213.848 42.3055 213.086 41.1623 212.705 39.638C212.323 38.1137 211.561 36.5894 210.799 35.0651C164.308 51.4512 134.585 89.1774 134.585 132.62C134.585 166.916 154.4 209.977 209.656 229.031C210.037 227.506 210.418 225.982 210.799 224.458C211.18 222.934 211.561 221.028 212.323 218.742C171.549 203.88 146.398 171.108 146.398 132.62Z" fill="black"/>
<path d="M222.987 47.641C222.225 43.0681 221.082 40.0195 219.938 37.352C218.795 34.3034 217.652 31.6359 216.89 27.4441L216.509 25.9198L214.984 26.3009C161.634 42.306 127.338 84.2239 127.338 133.001C127.338 182.159 160.491 222.553 213.841 238.558L215.365 238.939L215.747 237.415C216.509 233.223 217.271 229.793 218.033 226.745C218.795 223.315 219.557 220.267 220.319 215.694L220.701 214.551L219.557 214.169C179.164 200.832 153.632 169.965 153.632 133.001C153.632 95.275 179.545 63.265 221.844 49.5464L222.987 49.1653L222.987 47.641ZM217.652 216.075C216.89 219.886 216.128 222.934 215.365 225.602C214.603 228.269 213.841 231.318 213.079 235.128C152.108 216.075 130.386 169.965 130.386 132.62C130.386 85.7482 163.159 44.9734 214.222 29.3495C214.984 33.1602 216.128 35.4467 216.89 38.1142C218.033 40.7817 218.795 43.0681 219.557 46.8788C176.877 60.9785 150.583 94.1318 150.583 132.62C150.964 170.346 176.496 202.356 217.652 216.075Z" fill="black"/>
<path d="M217.273 252.658C217.273 253.039 217.273 253.42 217.273 253.801L216.511 256.468C215.749 258.755 213.462 260.279 210.795 259.517C147.156 241.606 106 191.305 106 131.858C106 72.4104 147.156 22.1089 210.795 4.19847C213.081 3.43634 215.749 4.96069 216.511 7.24712L217.273 9.91455C217.273 10.2956 217.273 10.6768 217.273 11.0578C217.273 11.82 216.892 12.5822 216.511 13.3443C215.749 14.4875 214.987 15.2496 213.843 15.6306C155.539 32.0167 117.813 77.7454 117.813 131.858C117.813 185.97 155.539 231.317 213.843 248.085C214.987 248.466 216.13 249.228 216.511 250.371C217.273 251.133 217.273 251.895 217.273 252.658Z" fill="black"/>
<path d="M213.081 11.8197C152.871 28.968 113.621 76.2209 113.621 132.239C113.621 188.256 152.49 235.509 213.081 252.657L212.318 255.325C150.585 237.796 110.953 189.399 110.953 131.857C110.953 74.3156 150.966 25.9194 212.318 8.39011L213.081 11.8197Z" fill="black"/>
<defs>
<filter id="filter0_f_204_21623" x="0" y="-6.10352e-05" width="461" height="426.775" filterUnits="userSpaceOnUse" color-interpolation-filters="sRGB">
<feFlood flood-opacity="0" result="BackgroundImageFix"/>
<feBlend mode="normal" in="SourceGraphic" in2="BackgroundImageFix" result="shape"/>
<feGaussianBlur stdDeviation="52" result="effect1_foregroundBlur_204_21623"/>
</filter>
</defs>
</svg>
