<svg width="654" height="534" viewBox="0 0 654 534" fill="none" xmlns="http://www.w3.org/2000/svg">
<g filter="url(#filter0_f_204_13675)">
<path d="M104 267C104 357.022 188.394 430 292.5 430C396.606 430 481 357.022 481 267C481 176.978 396.606 104 292.5 104C188.394 104 104 176.978 104 267Z" fill="#FF8A42" fill-opacity="0.91"/>
</g>
<path d="M505 321.34C505 320.454 505 320.011 505.443 319.125C505.886 317.795 507.215 316.91 508.544 316.466L510.317 316.023C545.76 302.289 567.469 274.821 567.469 243.808C567.469 213.238 545.76 185.769 510.76 172.478L508.987 172.035C507.658 171.592 506.772 170.263 505.886 168.934C505.443 168.491 505.443 167.605 505.443 166.719C505.443 165.833 505.443 165.389 505.886 164.503L506.772 162.731C520.507 132.161 521.836 119.313 523.165 100.262L523.165 98.0473C523.165 96.2751 524.051 94.946 525.38 94.0599C526.709 93.1738 528.481 92.7308 529.81 93.1738L531.582 93.6169C605.57 114.44 653.419 172.921 653.419 242.036C653.419 311.15 605.57 369.631 531.582 390.454L529.81 390.897C528.481 391.34 526.709 390.897 525.38 390.454C524.051 389.568 523.165 388.239 523.165 386.91L522.722 385.138C518.291 358.555 514.747 347.479 505.443 323.998L505 322.226C505.443 322.669 505 322.226 505 321.34ZM581.203 243.808C581.203 278.365 558.608 309.378 521.393 326.213C528.038 343.935 531.583 355.454 535.57 375.834C599.368 355.011 640.127 303.618 640.127 242.922C640.127 182.668 599.811 131.275 536.456 110.452C535.127 125.959 532.469 139.25 522.722 162.288C558.608 178.681 581.203 209.694 581.203 243.808Z" fill="black"/>
<path d="M511.206 323.112C520.51 347.036 524.054 358.112 528.485 385.138L528.928 386.91L530.7 386.467C602.473 366.087 648.549 309.821 648.549 242.922C648.549 176.022 602.03 119.756 530.7 99.3763L528.928 98.9332L528.928 101.148C527.599 120.642 526.269 133.49 512.092 165.389L511.206 167.161L512.978 167.605C550.194 181.782 573.232 211.023 573.232 244.251C573.232 277.479 550.194 306.719 512.535 321.34L510.763 321.783L511.206 323.112ZM515.194 164.946C528.485 135.263 529.814 121.085 531.586 103.364C600.7 123.744 645.004 178.238 645.004 242.922C645.004 307.605 600.257 362.099 531.143 382.479C526.713 357.226 523.168 345.707 514.75 323.112C552.409 308.049 575.89 277.479 575.89 243.808C575.89 210.136 552.852 180.01 515.194 164.946Z" fill="black"/>
<path d="M512.529 339.948C512.529 337.732 513.858 335.517 516.073 335.074L517.402 334.631C563.921 319.568 592.719 284.124 592.719 242.479C592.719 202.162 564.807 167.605 520.06 153.427L518.731 152.984C516.516 152.098 515.187 150.326 515.187 148.111C515.187 147.668 515.187 147.668 515.187 147.225L515.63 145.896C516.516 140.579 517.402 136.592 518.731 132.605C519.617 129.06 520.503 125.073 521.389 120.199L521.832 118.427C522.275 117.098 523.162 115.769 524.048 114.883C525.377 113.997 526.706 113.997 528.478 114.44L530.25 114.883C594.491 134.377 634.365 183.111 634.365 242.479C634.365 301.403 593.162 352.353 528.921 371.404L527.149 371.847C525.82 372.29 524.048 372.29 522.718 371.404C521.389 370.517 520.503 369.188 520.503 367.859L520.06 366.087C519.174 361.657 518.288 358.998 516.959 355.897C515.63 352.353 513.858 348.365 512.972 342.606L512.529 341.277C512.529 340.391 512.529 340.391 512.529 339.948ZM606.896 242.479C606.896 288.555 576.769 327.542 528.035 345.707C528.478 347.479 529.364 348.808 529.807 350.581C530.25 352.353 531.136 354.125 532.022 355.897C586.073 336.846 620.63 292.985 620.63 242.479C620.63 202.605 597.592 152.541 533.351 130.389C532.908 132.162 532.465 133.934 532.022 135.706C531.579 137.478 531.136 139.693 530.25 142.351C577.656 159.63 606.896 197.732 606.896 242.479Z" fill="black"/>
<path d="M517.854 341.277C518.69 346.594 519.944 350.138 521.199 353.239C522.454 356.784 523.708 359.885 524.545 364.758L524.963 366.531L526.636 366.087C585.184 347.48 622.823 298.745 622.823 242.036C622.823 184.884 586.439 137.922 527.89 119.314L526.218 118.871L525.799 120.643C524.963 125.516 524.127 129.504 523.29 133.048C522.454 137.035 521.617 140.58 520.781 145.896L520.363 147.225L521.617 147.668C565.947 163.175 593.967 199.061 593.967 242.036C593.967 285.897 565.529 323.113 519.108 339.062L517.854 339.505L517.854 341.277ZM523.708 145.453C524.545 141.023 525.381 137.478 526.218 134.377C527.054 131.276 527.89 127.732 528.727 123.301C595.639 145.453 619.477 199.061 619.477 242.479C619.477 296.973 583.511 344.379 527.472 362.543C526.636 358.113 525.381 355.454 524.545 352.353C523.29 349.252 522.454 346.594 521.617 342.163C568.456 325.771 597.312 287.226 597.312 242.479C596.894 198.618 568.874 161.403 523.708 145.453Z" fill="black"/>
<path d="M524.495 102.921C524.495 102.478 524.495 102.035 524.495 101.592L525.381 98.4903C526.267 95.8321 528.926 94.06 532.027 94.9461C606.015 115.769 653.863 174.25 653.863 243.365C653.863 312.479 606.015 370.961 532.027 391.783C529.369 392.67 526.267 390.897 525.381 388.239L524.495 385.138C524.495 384.695 524.495 384.252 524.495 383.809C524.495 382.923 524.938 382.036 525.381 381.15C526.267 379.821 527.153 378.935 528.483 378.492C596.268 359.441 640.129 306.277 640.129 243.365C640.129 180.453 596.268 127.731 528.483 108.237C527.153 107.794 525.824 106.908 525.381 105.579C524.495 104.693 524.495 103.807 524.495 102.921Z" fill="black"/>
<path d="M529.369 382.923C599.37 362.986 645.003 308.049 645.003 242.922C645.003 177.795 599.813 122.858 529.369 102.921L530.255 99.8196C602.028 120.2 648.104 176.466 648.104 243.365C648.104 310.264 601.585 366.53 530.255 386.91L529.369 382.923Z" fill="black"/>
<defs>
<filter id="filter0_f_204_13675" x="0" y="0" width="585" height="534" filterUnits="userSpaceOnUse" color-interpolation-filters="sRGB">
<feFlood flood-opacity="0" result="BackgroundImageFix"/>
<feBlend mode="normal" in="SourceGraphic" in2="BackgroundImageFix" result="shape"/>
<feGaussianBlur stdDeviation="52" result="effect1_foregroundBlur_204_13675"/>
</filter>
</defs>
</svg>
