<svg width="57" height="57" viewBox="0 0 57 57" fill="none" xmlns="http://www.w3.org/2000/svg">
<path d="M52.3696 29.624C52.1966 28.7229 51.4084 28.0712 50.4908 28.0707H48.6427L48.5068 27.2563C48.3713 26.4382 47.7268 25.7991 46.9076 25.6704C46.7258 25.6417 46.542 25.6226 46.3611 25.5977C46.6745 24.1345 46.4141 22.6069 45.6337 21.3301C46.0461 20.2606 45.9691 19.0641 45.4232 18.0562C44.8772 17.0483 43.9171 16.3301 42.7961 16.0912C42.0793 12.2552 38.7422 9.46692 34.84 9.44341C34.7443 9.44341 34.6591 9.45586 34.5682 9.45873C33.9447 8.47951 32.9167 7.82962 31.7647 7.68633C30.6127 7.54305 29.4568 7.92132 28.6124 8.71796C27.5487 8.0265 26.3074 7.65786 25.0387 7.65658C22.9945 7.66495 21.0679 8.61378 19.8151 10.2292C18.424 9.82353 16.924 10.0726 15.7387 10.906C14.5533 11.7394 13.8114 13.0667 13.7224 14.513C12.2613 15.1272 11.3106 16.5572 11.3097 18.1422C11.3127 18.4169 11.3447 18.6905 11.4054 18.9585C10.1132 20.9065 9.77559 23.3358 10.4875 25.5623C10.2311 25.5977 9.96882 25.6293 9.7219 25.6656C8.89849 25.7899 8.24823 26.4293 8.11021 27.2505L7.9743 28.0678H6.12143C5.20538 28.0685 4.41818 28.7181 4.24367 29.6173L0.052698 51.134C-0.110974 51.9767 0.110974 52.8484 0.657702 53.5101C1.20443 54.1719 2.01858 54.5544 2.87699 54.5526H22.8356C23.628 55.86 26.036 56.4668 28.3061 56.4668C30.5524 56.4668 32.9374 55.8743 33.7528 54.5526H53.7353C54.5935 54.5543 55.4074 54.172 55.9541 53.5104C56.5008 52.8489 56.7229 51.9775 56.5596 51.135L52.3696 29.624ZM14.2038 19.8744C13.4267 19.4072 13.0559 18.4797 13.2966 17.6055C13.5373 16.7313 14.3307 16.1244 15.2374 16.1208C15.872 16.119 16.4692 16.4206 16.8444 16.9324C17.0481 17.207 17.3829 17.352 17.7226 17.3128C18.0623 17.2736 18.3552 17.0561 18.4911 16.7424C18.627 16.4286 18.5852 16.0662 18.3814 15.7916C17.7315 14.923 16.7467 14.3674 15.6672 14.2603C15.9525 12.92 17.1345 11.9604 18.5049 11.9567C18.6216 11.9626 18.738 11.9754 18.8532 11.9949C18.7762 12.1912 18.7092 12.3911 18.6522 12.5941C18.5331 13.1007 18.8407 13.6096 19.3446 13.7398C19.8485 13.8699 20.364 13.5735 20.5051 13.0726C20.614 12.652 20.7811 12.2486 21.0018 11.8744C21.8508 10.4521 23.3824 9.5781 25.0387 9.5707C25.9402 9.5747 26.821 9.84071 27.574 10.3364C27.4305 10.7394 27.3545 11.1633 27.3491 11.5911C27.3491 12.1196 27.7776 12.5481 28.3061 12.5481C28.8347 12.5481 29.2632 12.1196 29.2632 11.5911C29.2632 10.4792 30.1645 9.57788 31.2764 9.57788C32.3882 9.57788 33.2896 10.4792 33.2896 11.5911C33.2896 12.1196 33.718 12.5481 34.2466 12.5481C34.7752 12.5481 35.2037 12.1196 35.2037 11.5911C35.2037 11.5174 35.1855 11.4475 35.1817 11.3738C37.9221 11.5429 40.2265 13.4909 40.8494 16.1649C40.403 16.2948 39.9835 16.5039 39.611 16.7822C39.3374 16.9873 39.1941 17.3228 39.235 17.6623C39.2759 18.0018 39.4948 18.2936 39.8092 18.4279C40.1237 18.5623 40.4859 18.5186 40.7594 18.3135C41.5242 17.7472 42.5807 17.7924 43.2944 18.4218C44.0081 19.0513 44.1849 20.0938 43.7187 20.9234C43.5103 21.2897 43.1937 21.5825 42.8123 21.7618C42.4124 21.9554 42.1983 22.3989 42.2955 22.8326C42.3927 23.2662 42.7757 23.5758 43.22 23.5802C43.3604 23.5804 43.499 23.5493 43.6258 23.4893C43.8795 23.3663 44.1192 23.2165 44.3408 23.0423C44.8355 24.4488 44.5252 26.013 43.5311 27.1242L43.5081 27.1481C42.2613 28.4988 40.2723 28.8638 38.6271 28.0439C38.466 27.9588 38.3111 27.8622 38.1639 27.7549C38.8688 26.7666 38.9662 25.4684 38.4165 24.386C38.2627 24.0805 37.9575 23.8803 37.616 23.8608C37.2745 23.8413 36.9485 24.0055 36.7609 24.2915C36.5732 24.5775 36.5524 24.9419 36.7063 25.2474C37.021 25.8799 36.8247 26.6476 36.245 27.0514C35.9045 27.2781 35.484 27.3498 35.0877 27.2487C34.6914 27.1476 34.3565 26.8833 34.1662 26.5212C34.0132 26.2154 33.7087 26.0144 33.3673 25.994C33.0259 25.9736 32.6996 26.1368 32.5112 26.4223C32.3228 26.7077 32.301 27.072 32.454 27.3778C33.0153 28.5109 34.1718 29.2264 35.4362 29.223C35.8479 29.2202 36.2554 29.14 36.6374 28.9866C36.9792 29.2859 37.3558 29.543 37.759 29.7523C39.1231 30.4593 40.7092 30.6059 42.1797 30.1609C41.2339 31.4523 39.8184 32.3203 38.2385 32.5775C37.747 32.6575 37.399 33.1011 37.4382 33.5975C37.4774 34.094 37.8908 34.4774 38.3888 34.4792C38.4397 34.4792 38.4906 34.4754 38.541 34.4677C39.1237 34.3668 39.6933 34.2005 40.2388 33.972C40.5336 34.4932 40.7729 35.044 40.9528 35.6152C40.9857 35.715 41.0025 35.8193 41.0025 35.9244C41.0023 36.338 40.7552 36.7116 40.3747 36.8738C39.9345 37.044 39.4347 36.9097 39.1391 36.5417C38.3979 35.6713 37.4274 35.0263 36.3378 34.6802C34.2696 33.9873 33.4714 33.3681 33.1326 32.6943C33.6292 32.6323 34.1199 32.5299 34.5998 32.388C34.9267 32.2875 35.1751 32.0202 35.2515 31.6869C35.3278 31.3535 35.2206 31.0047 34.9701 30.7719C34.7196 30.5391 34.3639 30.4576 34.037 30.5581C33.5 30.7229 32.9457 30.8247 32.3851 30.8615C31.3052 30.9459 30.2204 30.7822 29.2134 30.383C28.8354 30.2355 28.4054 30.3425 28.1406 30.65C26.7471 32.2506 24.3622 32.5227 22.6441 31.277C20.9259 30.0313 20.443 27.68 21.5311 25.858C21.7074 25.5638 21.7133 25.1979 21.5466 24.8981C21.3799 24.5983 21.066 24.4103 20.723 24.4047C20.3801 24.3992 20.0602 24.577 19.884 24.8713C19.6556 25.2599 19.472 25.6731 19.3365 26.103C18.5829 26.0633 17.9886 25.4469 17.9766 24.6923V24.6684C17.9761 24.4158 17.8747 24.174 17.6949 23.9966C17.5152 23.8192 17.272 23.7209 17.0195 23.7237C16.4886 23.729 16.0614 24.1614 16.0624 24.6923C16.0667 26.3896 17.3467 27.8122 19.0341 27.9951C19.0375 28.3159 19.0667 28.636 19.1212 28.9522C16.9843 29.4146 14.7679 28.6464 13.3754 26.9609C11.9829 25.2753 11.6468 22.9538 12.5041 20.9425C12.7182 21.1591 12.9572 21.3496 13.2161 21.5101C13.6682 21.7749 14.2493 21.6269 14.5197 21.1781C14.7901 20.7293 14.6493 20.1465 14.2038 19.8706V19.8744ZM9.99275 27.5625C10.434 27.4974 10.8895 27.44 11.3422 27.3807C13.1117 30.2084 16.4961 31.5815 19.7356 30.7859C20.6061 32.438 22.1966 33.5901 24.0377 33.9021C25.8788 34.2141 27.7601 33.6505 29.1263 32.3775C29.7767 32.5715 30.4466 32.6928 31.1237 32.7393C31.586 34.4926 32.922 35.5549 35.7291 36.4957C36.4858 36.733 37.1609 37.1776 37.6777 37.7792C38.2522 38.4623 39.0973 38.8594 39.9899 38.8654C40.3803 38.8653 40.7667 38.7865 41.126 38.6338C42.2109 38.1702 42.9146 37.1042 42.9147 35.9244C42.9156 35.6167 42.8665 35.3109 42.7693 35.019C42.554 34.3428 42.2706 33.6902 41.9232 33.0714C43.5507 31.9014 44.6844 30.1676 45.1035 28.2076C45.3074 27.9654 45.4917 27.7075 45.6548 27.4362C45.9754 27.4773 46.296 27.5137 46.6186 27.5673L50.0736 48.349C43.3201 46.0938 36.0167 46.0938 29.2632 48.349V36.3684C29.2632 35.8399 28.8347 35.4114 28.3061 35.4114C27.7776 35.4114 27.3491 35.8399 27.3491 36.3684V48.3528C20.5963 46.0956 13.2931 46.0929 6.53871 48.3451L9.99275 27.5625ZM2.13144 52.2863C1.95059 52.0679 1.87688 51.78 1.93045 51.5015L6.12143 29.9848H7.65273L4.64947 48.0341C4.54384 48.691 4.78573 49.3559 5.28885 49.7914C5.79196 50.2268 6.48462 50.3709 7.11965 50.1722C12.2217 48.5192 17.6573 48.1743 22.9274 49.1692L22.6422 52.6385H2.87699C2.58826 52.6387 2.31465 52.5095 2.13144 52.2863ZM28.3061 54.5526C26.0006 54.5526 24.6779 53.8712 24.4836 53.5678L24.8129 49.596C25.8652 49.858 26.8951 50.2033 27.8927 50.6287C28.0217 50.6908 28.1629 50.7235 28.3061 50.7244C28.4497 50.7242 28.5914 50.6914 28.7205 50.6287C29.7175 50.2008 30.7471 49.8533 31.7994 49.5893L32.1286 53.5669C31.9344 53.8712 30.6117 54.5526 28.3061 54.5526ZM54.4808 52.2863C54.2976 52.5095 54.024 52.6387 53.7353 52.6385H33.9729L33.6858 49.1625C38.9588 48.1696 44.3967 48.5175 49.5003 50.1741C50.1352 50.3702 50.8263 50.2241 51.3275 49.7878C51.8287 49.3515 52.0686 48.6871 51.9618 48.0312L48.9615 29.9858H50.4928L54.6847 51.5006C54.7378 51.7798 54.663 52.0681 54.4808 52.2863Z" fill="#BEBEBE"/>
<path d="M25.134 21.7115C24.7423 22.066 24.7118 22.6709 25.0661 23.0629C25.878 23.9593 26.9509 24.5779 28.1335 24.8315C27.5979 25.5862 26.7294 26.034 25.804 26.0326C25.2754 26.0326 24.8469 26.4611 24.8469 26.9897C24.8469 27.5183 25.2754 27.9468 25.804 27.9468C27.7853 27.9547 29.563 26.731 30.2629 24.8775C32.6427 24.4831 34.5268 22.6513 34.988 20.2836C35.0592 19.9449 34.9421 19.5941 34.6816 19.3662C34.4212 19.1383 34.058 19.0688 33.7318 19.1844C33.4056 19.3 33.1672 19.5827 33.1083 19.9237C32.9206 20.9108 32.3511 21.784 31.5234 22.3537C29.9311 23.4261 27.7955 23.1827 26.4854 21.7795C26.1309 21.3877 25.526 21.3573 25.134 21.7115Z" fill="#BEBEBE"/>
<path d="M21.7981 20.6726C22.3267 20.6726 22.7552 20.2441 22.7552 19.7156C22.7552 19.0556 23.0174 18.4227 23.484 17.956C23.9507 17.4894 24.5836 17.2272 25.2435 17.2272C25.7721 17.2272 26.2006 16.7987 26.2006 16.2701C26.2006 15.7416 25.7721 15.3131 25.2435 15.3131C22.8132 15.3157 20.8437 17.2852 20.8411 19.7156C20.8411 19.9694 20.9419 20.2128 21.1214 20.3923C21.3009 20.5718 21.5443 20.6726 21.7981 20.6726Z" fill="#BEBEBE"/>
<path d="M29.263 1.91412V0.957062C29.263 0.428491 28.8345 0 28.3059 0C27.7774 0 27.3489 0.428491 27.3489 0.957062V1.91412C27.3489 2.4427 27.7774 2.87119 28.3059 2.87119C28.8345 2.87119 29.263 2.4427 29.263 1.91412Z" fill="#BEBEBE"/>
<path d="M44.0112 6.86825L43.0542 7.82531C42.8054 8.06561 42.7056 8.42144 42.7932 8.75606C42.8808 9.09068 43.1421 9.352 43.4767 9.43959C43.8113 9.52717 44.1672 9.42739 44.4075 9.1786L45.3645 8.22154C45.6133 7.98124 45.7131 7.6254 45.6255 7.29079C45.5379 6.95617 45.2766 6.69485 44.942 6.60726C44.6074 6.51968 44.2515 6.61946 44.0112 6.86825Z" fill="#BEBEBE"/>
<path d="M12.8812 9.45902C13.2683 9.45894 13.6171 9.22575 13.7652 8.86818C13.9133 8.5106 13.8315 8.09903 13.5579 7.82531L12.6008 6.86825C12.3605 6.61946 12.0047 6.51968 11.6701 6.60726C11.3354 6.69485 11.0741 6.95617 10.9865 7.29079C10.899 7.6254 10.9987 7.98124 11.2475 8.22154L12.2046 9.1786C12.384 9.35809 12.6274 9.45896 12.8812 9.45902Z" fill="#BEBEBE"/>
<path d="M20.2482 5.43161C20.3739 5.43134 20.4984 5.40664 20.6147 5.35887C20.8493 5.2617 21.0357 5.0753 21.1328 4.8407C21.2299 4.6061 21.2298 4.34252 21.1325 4.10799L20.0329 1.45502C19.9069 1.13189 19.616 0.902191 19.2724 0.854619C18.9289 0.807047 18.5865 0.949046 18.3775 1.22578C18.1684 1.50252 18.1255 1.87069 18.2652 2.18812L19.3639 4.8411C19.5121 5.19865 19.8611 5.43171 20.2482 5.43161Z" fill="#BEBEBE"/>
<path d="M37.829 0.936899C37.3408 0.734961 36.7814 0.966705 36.579 1.45467L35.4794 4.10765C35.3818 4.34229 35.3815 4.6061 35.4787 4.84093C35.5758 5.07576 35.7623 5.26232 35.9971 5.35948C36.1135 5.40725 36.238 5.43195 36.3637 5.43222C36.7508 5.43232 37.0998 5.19926 37.248 4.84171L38.3467 2.18874C38.4443 1.95409 38.4446 1.69028 38.3474 1.45545C38.2503 1.22062 38.0638 1.03406 37.829 0.936899Z" fill="#BEBEBE"/>
<path d="M47.7582 16.8274C47.884 16.8272 48.0086 16.8022 48.1247 16.7537L50.7767 15.655C51.0927 15.5242 51.3148 15.2348 51.3596 14.8958C51.4043 14.5568 51.2647 14.2197 50.9935 14.0115C50.7222 13.8033 50.3605 13.7556 50.0446 13.8864L47.3916 14.9851C46.9683 15.159 46.7273 15.6083 46.8166 16.0571C46.9059 16.506 47.3005 16.8288 47.7582 16.8274Z" fill="#BEBEBE"/>
<path d="M8.48695 16.7529C8.97535 16.9553 9.53539 16.7235 9.73783 16.2351C9.94027 15.7467 9.70846 15.1867 9.22006 14.9842L6.56708 13.8855C6.07868 13.6834 5.51886 13.9154 5.31668 14.4038C5.1145 14.8922 5.34653 15.452 5.83493 15.6542L8.48695 16.7529Z" fill="#BEBEBE"/>
</svg>
