<svg width="138" height="137" viewBox="0 0 138 137" fill="none" xmlns="http://www.w3.org/2000/svg">
<path d="M71.8411 91.3954C71.8411 91.3954 80.6195 85.0055 82.2967 77.0781C85.0207 64.1713 74.7498 58.41 75.4269 43.4722C76.3043 24.2175 99.9012 12.4321 121.762 23.8968C128.45 27.4053 134.986 34.7122 131.97 42.3328C128.214 51.8377 110.264 45.6949 107.603 57.1843C106.275 62.9355 108.769 75.4503 104.612 86.3073C97.6412 104.536 75.8324 105.427 75.8324 105.427L71.8411 91.3954Z" fill="#FF8A42"/>
<path d="M131.971 42.327C130.003 47.3101 124.134 47.9923 118.606 49.1676C116.218 49.6804 113.894 50.2763 111.981 51.358C109.877 52.5449 108.263 54.3165 107.605 57.1785C107.422 57.9686 107.311 58.8865 107.248 59.9075C106.977 64.1398 107.479 70.1794 106.824 76.4874C106.486 79.7578 105.838 83.0979 104.615 86.2958C103.961 88.0061 103.18 89.5631 102.294 90.9782C99.3776 95.6535 95.3702 98.821 91.3541 100.962C83.6087 105.095 75.8353 105.416 75.8353 105.416L71.8412 91.3953C71.8412 91.3953 75.4683 88.7558 78.5016 84.768C80.1391 82.6058 81.6119 80.0491 82.2415 77.3021C82.2599 77.2274 82.2726 77.1513 82.2911 77.0766C83.1268 73.1243 82.7415 69.8457 81.8257 66.7651C80.5649 62.5137 78.2932 58.6524 76.8172 53.9392C75.8642 50.9103 75.2418 47.5304 75.427 43.4721C75.535 41.0595 76.0037 38.7666 76.7771 36.6224C78.5376 31.7403 81.9021 27.621 86.2847 24.6378C95.3694 18.464 108.873 17.1339 121.762 23.8967C128.451 27.3995 134.986 34.7121 131.971 42.327Z" fill="#FF8A42"/>
<path d="M131.971 42.327C130.003 47.3101 124.134 47.9923 118.606 49.1676C116.218 49.6804 113.894 50.2763 111.981 51.358C109.877 52.5449 108.263 54.3165 107.605 57.1785C107.422 57.9686 107.311 58.8865 107.248 59.9075C106.977 64.1398 107.479 70.1794 106.824 76.4874C106.486 79.7578 105.838 83.0979 104.615 86.2958C103.961 88.0061 103.18 89.5631 102.294 90.9782C99.3776 95.6535 95.3702 98.821 91.3541 100.962C83.6087 105.095 75.8353 105.416 75.8353 105.416L71.8412 91.3953C71.8412 91.3953 74.8881 89.1794 77.7321 85.7362C77.9925 85.4226 78.2485 85.1017 78.5016 84.768C80.1391 82.6058 81.6119 80.0491 82.2415 77.3021C82.2599 77.2274 82.2726 77.1513 82.2911 77.0766C83.1268 73.1243 82.7415 69.8457 81.8257 66.7651C80.5649 62.5137 78.2932 58.6524 76.8172 53.9392C75.8642 50.9103 75.2418 47.5304 75.427 43.4721C75.535 41.0595 76.0037 38.7666 76.7771 36.6224C78.5376 31.7403 81.9021 27.621 86.2847 24.6378C95.3694 18.464 108.873 17.1339 121.762 23.8967C127.532 26.9222 133.179 32.771 132.699 39.2078C132.623 40.2318 132.389 41.2777 131.971 42.327Z" fill="#FF8A42"/>
<path d="M131.969 42.3275C130.001 47.3106 124.132 47.9928 118.605 49.1681C116.216 49.6809 113.892 50.2768 111.979 51.3585C109.875 52.5454 108.261 54.317 107.603 57.1789C107.42 57.9691 107.309 58.8869 107.246 59.908C106.975 64.1403 107.477 70.1798 106.822 76.4879C106.484 79.7583 105.836 83.0984 104.613 86.2963C103.959 88.0066 103.178 89.5636 102.292 90.9787C99.3757 95.654 95.3683 98.8215 91.3522 100.962C83.6068 105.095 75.8334 105.416 75.8334 105.416L71.8393 91.3958C71.8393 91.3958 74.8863 89.1799 77.7302 85.7367C79.5719 86.2534 82.8358 87.6769 86.9578 91.5752C91.6973 96.0593 100.9 91.433 103.956 80.2915C107.019 69.1457 98.9016 55.7028 106.419 47.4824C114.766 38.3452 128.991 47.1278 132.691 39.2069C132.621 40.2323 132.387 41.2782 131.969 42.3275Z" fill="#EA5A1B"/>
<path d="M90.8797 93.2706C91.6965 95.3692 91.9463 97.9128 91.3535 100.98C83.6087 105.112 75.8359 105.433 75.8359 105.433L71.8392 91.4009C71.8406 91.3951 71.8535 91.3922 71.8607 91.3879C71.8678 91.3836 71.875 91.3793 71.8822 91.3749C71.8908 91.3649 71.9037 91.362 71.9194 91.3476C72.0469 91.2511 72.3162 91.0494 72.6913 90.7397C72.7457 90.6922 72.8059 90.6461 72.8661 90.6C72.9276 90.5482 72.9892 90.4964 73.0508 90.4445C73.8111 89.8094 74.852 88.8779 75.974 87.7164C76.1128 87.5739 76.2531 87.4257 76.3947 87.2717C76.7682 86.8702 77.1488 86.44 77.5279 85.9911C77.5966 85.9105 77.6653 85.8299 77.7282 85.7479C79.5697 86.2646 82.8333 87.688 86.9551 91.5861C88.0632 92.6286 89.414 93.1823 90.8797 93.2706Z" fill="#873A2D"/>
<path d="M106.818 76.4933C106.48 79.7639 105.832 83.1041 104.609 86.3022C103.955 88.0127 103.174 89.5698 102.288 90.985C102.28 90.1536 101.822 88.6987 100.916 87.0352C102.181 85.171 103.24 82.9081 103.953 80.2914C104.826 77.1043 104.795 73.724 104.462 70.3302C105.714 72.1766 106.551 74.2682 106.818 76.4933Z" fill="#873A2D"/>
<path d="M110.437 44.4969C111.396 46.6125 111.949 48.9144 111.981 51.3553C109.877 52.5423 108.263 54.3139 107.605 57.1759C107.422 57.9661 107.311 58.8839 107.248 59.905C105.976 58.0903 104.626 56.5242 103.224 55.1894C103.496 52.3356 104.387 49.7142 106.426 47.4806C107.654 46.1379 109.006 45.1797 110.437 44.4969Z" fill="#873A2D"/>
<path d="M132.416 40.9261C132.395 41.0123 132.375 41.0928 132.348 41.1776C132.34 41.212 132.33 41.2523 132.315 41.2853C132.311 41.3026 132.307 41.3198 132.304 41.3313C132.286 41.406 132.263 41.4735 132.239 41.5468C132.158 41.8012 132.069 42.0598 131.962 42.32C129.994 47.3029 124.125 47.9851 118.598 49.1604C119.29 46.9532 119.656 44.8545 119.738 42.8686C125.423 42.8545 130.651 43.5566 132.686 39.1938C132.68 39.2656 132.674 39.3374 132.669 39.4092C132.656 39.5342 132.645 39.6534 132.627 39.7769C132.61 39.8947 132.593 40.0125 132.576 40.1303C132.572 40.1475 132.569 40.159 132.565 40.1762C132.547 40.2998 132.523 40.4219 132.498 40.544C132.49 40.5785 132.48 40.6187 132.472 40.6532C132.46 40.748 132.438 40.8399 132.416 40.9261Z" fill="#873A2D"/>
<path d="M91.3544 100.973C83.6095 105.106 75.8366 105.427 75.8366 105.427L71.8385 91.4003C71.8385 91.4003 75.4653 88.7609 78.4984 84.7733C84.8266 85.7355 93.4681 90.0689 91.3544 100.973Z" fill="#9B4635"/>
<path d="M104.617 86.3044C103.963 88.0146 103.182 89.5715 102.297 90.9865C102.267 87.7718 95.5136 75.3258 82.2482 77.2998C82.2667 77.2251 82.2794 77.1489 82.2978 77.0742C83.1335 73.1223 82.7482 69.8438 81.8324 66.7634C91.7384 58.3969 105.553 66.0471 106.827 76.4909C106.482 79.7654 105.84 83.1067 104.617 86.3044Z" fill="#9B4635"/>
<path d="M107.607 57.1772C107.424 57.9673 107.313 58.885 107.25 59.906C97.8237 46.4576 84.0598 46.6008 76.8237 53.9324C75.8707 50.9039 75.2484 47.5243 75.4336 43.4664C75.5416 41.0541 76.0102 38.7614 76.7835 36.6174C87.7271 24.7397 111.782 34.8869 111.988 51.3587C109.883 52.5513 108.27 54.3169 107.607 57.1772Z" fill="#9B4635"/>
<path d="M131.971 42.3231C130.003 47.3056 124.135 47.9877 118.608 49.1629C125.037 28.7112 103.275 17.3756 86.2848 24.635L86.2862 24.6292C95.3698 18.4562 108.872 17.1263 121.759 23.8881C128.452 27.3976 134.985 34.7093 131.971 42.3231Z" fill="#9B4635"/>
<path d="M91.3549 100.974C83.6101 105.107 75.8373 105.427 75.8373 105.427L71.8392 91.4009C71.8406 91.3951 71.8535 91.3922 71.8607 91.3879C71.8678 91.3836 71.875 91.3793 71.8822 91.3749C71.8908 91.3649 71.9037 91.362 71.9194 91.3476C72.0469 91.2511 72.3162 91.0494 72.6913 90.7397C72.7515 90.6937 72.8059 90.6461 72.8661 90.6C72.9276 90.5482 72.9892 90.4964 73.0508 90.4445C73.8111 89.8094 74.852 88.8779 75.974 87.7164C76.1128 87.5739 76.2531 87.4257 76.3947 87.2717C76.7682 86.8702 77.1488 86.44 77.5279 85.9911C77.5966 85.9105 77.6653 85.8299 77.7282 85.7479C79.5697 86.2646 82.8333 87.688 86.9551 91.5861C88.0618 92.6343 89.414 93.1823 90.8797 93.2706C91.6908 95.3678 91.9463 97.9128 91.3549 100.974Z" fill="#873A2D"/>
<path d="M104.614 86.3036C103.96 88.014 103.179 89.5711 102.293 90.9864C102.285 90.1549 101.827 88.7 100.921 87.0365C102.186 85.1723 103.245 82.9095 103.959 80.2928C104.831 77.1056 104.8 73.7254 104.468 70.3315C105.715 72.1708 106.55 74.2681 106.825 76.4889C106.48 79.7638 105.837 83.1055 104.614 86.3036Z" fill="#873A2D"/>
<path d="M107.605 57.1759C107.422 57.9661 107.311 58.8839 107.248 59.905C105.976 58.0903 104.626 56.5242 103.224 55.1894C103.496 52.3356 104.387 49.7142 106.426 47.4806C107.654 46.1379 109.012 45.1811 110.443 44.4983C111.402 46.6139 111.955 48.9158 111.986 51.3568C109.881 52.5495 108.268 54.3154 107.605 57.1759Z" fill="#873A2D"/>
<path d="M132.416 40.9261C132.395 41.0123 132.375 41.0928 132.348 41.1776C132.34 41.212 132.33 41.2523 132.315 41.2853C132.311 41.3026 132.307 41.3198 132.304 41.3313C132.286 41.406 132.263 41.4735 132.239 41.5468C132.158 41.8012 132.069 42.0598 131.962 42.32C129.994 47.3029 124.125 47.9851 118.598 49.1604C119.29 46.9532 119.656 44.8545 119.738 42.8686C125.423 42.8545 130.651 43.5566 132.686 39.1938C132.68 39.2656 132.674 39.3374 132.669 39.4092C132.656 39.5342 132.645 39.6534 132.627 39.7769C132.61 39.8947 132.593 40.0125 132.576 40.1303C132.572 40.1475 132.569 40.159 132.565 40.1762C132.547 40.2998 132.523 40.4219 132.498 40.544C132.49 40.5785 132.48 40.6187 132.472 40.6532C132.46 40.748 132.438 40.8399 132.416 40.9261Z" fill="#873A2D"/>
<path d="M75.626 106.285C75.2525 106.193 74.9731 105.867 74.9562 105.467C74.9362 104.98 75.3125 104.567 75.7991 104.547C75.8551 104.543 81.2214 104.291 87.3381 101.865C95.4636 98.6373 100.995 93.2978 103.792 85.9951C106.377 79.2314 106.324 71.7419 106.287 65.7199C106.265 62.2077 106.24 59.1709 106.749 56.9856C108.281 50.3638 114.557 49.0933 120.097 47.9696C124.961 46.9841 129.556 46.0537 131.151 42.0149C133.895 35.0771 127.992 28.1707 121.353 24.6864C110.379 18.9341 98.114 18.7778 88.5451 24.2708C81.1288 28.5279 76.67 35.5475 76.3049 43.5191C75.9886 50.5026 78.1268 55.398 80.1943 60.1357C82.4769 65.3595 84.6296 70.2951 83.1578 77.2671C81.4325 85.4388 72.7288 91.8472 72.3578 92.1152C71.9639 92.4019 71.4124 92.3142 71.1257 91.9201C70.8389 91.5259 70.9264 90.9743 71.3203 90.6876C71.4034 90.6228 79.8477 84.4002 81.4314 76.901C82.7842 70.4849 80.8338 66.0141 78.5756 60.8389C76.527 56.1486 74.2067 50.8301 74.5448 43.4373C74.934 34.8497 79.7186 27.3008 87.6681 22.7365C97.7629 16.9407 110.665 17.0839 122.174 23.1149C129.494 26.9507 135.938 34.7044 132.797 42.6599C130.848 47.5869 125.559 48.6626 120.45 49.6976C114.944 50.8111 109.745 51.8664 108.469 57.3806C108.009 59.3647 108.028 62.3025 108.053 65.7055C108.096 71.8754 108.151 79.5544 105.442 86.6229C102.501 94.3107 96.4483 100.155 87.9399 103.526C81.5537 106.056 76.1084 106.307 75.8758 106.31C75.7897 106.313 75.7064 106.305 75.626 106.285Z" fill="#650000"/>
<g opacity="0.3">
<path d="M92.7551 24.9751C82.5831 27.233 77.9101 43.7858 83.9066 46.1416C88.2363 47.841 91.305 43.2157 96.9899 37.8472C104.623 30.6375 100.78 23.192 92.7551 24.9751Z" fill="white"/>
</g>
<g opacity="0.25">
<path d="M53.4259 136.532C81.5588 136.532 104.365 132.064 104.365 126.554C104.365 121.043 81.5588 116.575 53.4259 116.575C25.293 116.575 2.48682 121.043 2.48682 126.554C2.48682 132.064 25.293 136.532 53.4259 136.532Z" fill="#650000"/>
</g>
<path d="M62.1922 11.9617L82.7922 30.5735C83.8741 29.5182 85.4863 28.4526 88.4689 28.2476C88.6299 28.2357 88.7761 27.7507 88.6245 27.1074C88.4672 26.4278 87.9703 25.5641 86.8097 24.894C86.8198 24.8627 86.8298 24.8262 86.8399 24.7949C87.4361 22.959 87.7532 20.7514 87.8612 18.4314C88.2014 10.9772 86.3573 2.3686 84.4956 1.24232C83.5752 0.68948 78.3666 0.827172 71.4628 4.80778C68.6031 6.45191 65.4532 8.76433 62.1922 11.9617Z" fill="#FDF2E8"/>
<path d="M62.1944 11.9616L82.7944 30.5734C83.8763 29.5181 85.4885 28.4525 88.4711 28.2475C88.6322 28.2356 88.7783 27.7506 88.6267 27.1073C87.6594 27.0905 86.5964 26.8458 86.1771 25.9502C85.7472 25.0288 86.2454 24.9201 86.8473 24.7896C87.4435 22.9537 87.7605 20.7461 87.8686 18.4261C86.9387 19.064 85.0843 19.8095 84.1068 16.517C83.1668 13.3386 80.5933 6.77511 79.1663 7.62575C75.7848 9.63878 72.2198 8.18546 71.4754 4.80239C68.6053 6.45182 65.4554 8.76424 62.1944 11.9616Z" fill="#F9D3B7"/>
<path d="M82.8046 31.5199C82.5758 31.5221 82.3463 31.4411 82.1627 31.2764L61.5627 12.6646C61.3687 12.4897 61.2571 12.2411 61.2495 11.9812C61.2418 11.7213 61.3486 11.4707 61.5341 11.287C67.608 5.33321 73.1403 2.58228 76.7161 1.32654C80.7635 -0.0948541 83.9394 -0.202907 84.9905 0.431889C88.0341 2.26972 90.1557 16.5744 87.9273 24.4988C89.5928 25.7778 89.7592 27.4192 89.5792 28.1801C89.3744 29.0659 88.7307 29.1812 88.5385 29.1934C85.7013 29.3867 84.333 30.398 83.4572 31.2538C83.2717 31.4271 83.0385 31.5177 82.8046 31.5199ZM63.5837 11.9383L82.7992 29.305C83.7899 28.5 85.295 27.6539 87.7205 27.3709C87.6333 26.9454 87.3097 26.2725 86.3425 25.7149C85.9556 25.4898 85.7796 25.0235 85.9212 24.601C87.0081 21.3202 87.261 16.1806 86.6022 10.8521C85.9382 5.51848 84.6664 2.44719 84.018 2.05816C83.2085 1.68625 74.3698 1.73871 63.5837 11.9383Z" fill="#650000"/>
<path d="M69.3025 13.0543L80.9713 26.3483C82.272 24.7761 83.0113 22.6841 83.375 20.4553C84.0239 16.5079 83.5145 12.1295 82.9643 9.4829C82.6702 8.07141 82.3651 7.15397 82.2185 7.04617C81.4073 6.4819 73.5932 9.31682 69.3025 13.0543Z" fill="#9B4635"/>
<path d="M69.3025 13.0543L80.9713 26.3483C82.2719 24.7761 83.0113 22.6841 83.3749 20.4553C81.6128 15.0124 77.271 13.3532 78.07 10.9747C78.7022 9.09685 81.8714 8.83288 82.9591 9.48813C82.665 8.07663 82.36 7.1592 82.2134 7.05139C81.4072 6.48187 73.5931 9.3168 69.3025 13.0543Z" fill="#873A2D"/>
<path d="M80.9804 27.3C80.7621 27.3021 80.5482 27.2313 80.37 27.0822C79.9665 26.7481 79.914 26.1506 80.2482 25.7471C84.3044 20.8575 82.2994 10.0926 81.5979 7.93623C79.8736 8.14493 73.6154 10.5596 69.9281 13.7662C69.5361 14.1079 68.9378 14.0667 68.5909 13.6749C68.2492 13.2829 68.2904 12.6846 68.6822 12.3377C70.6213 10.6503 73.5426 8.90679 76.6964 7.56665C79.9641 6.17344 82.0035 5.74338 82.7625 6.28215C83.6053 6.87732 84.1611 10.6625 84.3123 11.8102C84.8221 15.679 85.1598 22.7888 81.6999 26.9552C81.5149 27.1806 81.2456 27.2975 80.9804 27.3Z" fill="#650000"/>
<path d="M41.4129 13.9173L19.5105 30.9774C18.5084 29.8459 16.9782 28.6656 14.0185 28.2437C13.8587 28.22 13.7483 27.7257 13.9464 27.0952C14.1528 26.4288 14.7114 25.6037 15.9178 25.02C15.91 24.988 15.9027 24.9509 15.8949 24.919C15.4342 23.0445 15.2789 20.8196 15.3404 18.4979C15.5446 11.0388 18.0116 2.58754 19.9505 1.60002C20.9087 1.11577 26.0935 1.63293 32.6885 6.10638C35.4156 7.95425 38.3936 10.4906 41.4129 13.9173Z" fill="#FDF2E8"/>
<path d="M41.4138 13.9159L19.5114 30.976C18.5093 29.8445 16.9791 28.6642 14.0194 28.2423C13.8596 28.2186 13.7492 27.7243 13.9474 27.0938C14.9133 27.1475 15.9914 26.981 16.4748 26.1184C16.9707 25.2307 16.4818 25.086 15.8911 24.9119C15.4303 23.0375 15.2751 20.8126 15.3365 18.4909C16.2174 19.1949 18.0125 20.0737 19.2275 16.8613C20.3968 13.7598 23.4421 7.4015 24.8033 8.35394C28.0289 10.6082 31.6905 9.41872 32.6795 6.09894C35.4166 7.95285 38.3946 10.4892 41.4138 13.9159Z" fill="#F9D3B7"/>
<path d="M19.4319 31.9198C19.1987 31.9006 18.9676 31.7928 18.8008 31.6016C17.9897 30.6842 16.6984 29.581 13.8833 29.1762C13.6925 29.15 13.0589 28.9881 12.9193 28.0897C12.8004 27.3182 13.0808 25.6927 14.8352 24.5387C13.1906 16.4729 16.3446 2.36054 19.5192 0.749977C20.6086 0.193094 23.7734 0.532883 27.7064 2.24564C31.1811 3.75879 36.5032 6.90626 42.1216 13.2867C42.2932 13.4835 42.3762 13.7408 42.3548 13.9998C42.3282 14.2585 42.1989 14.4982 41.9926 14.6586L20.0898 31.7238C19.8947 31.8746 19.6598 31.9387 19.4319 31.9198ZM14.832 27.4182C17.23 27.8825 18.6694 28.8361 19.5992 29.706L40.03 13.7868C30.0163 2.82781 21.205 2.13094 20.3602 2.44197C19.7011 2.77879 18.2092 5.74399 17.158 11.015C16.1124 16.2813 15.9898 21.4256 16.8345 24.7769C16.9445 25.2138 16.735 25.666 16.3331 25.8572C15.3214 26.3579 14.95 27.0002 14.832 27.4182Z" fill="#650000"/>
<path d="M34.2423 14.4883L21.6351 26.896C20.4526 25.2331 19.8677 23.0928 19.6676 20.8433C19.3082 16.8591 20.1355 12.5295 20.8773 9.9301C21.2735 8.54381 21.6447 7.65107 21.7988 7.55424C22.649 7.05063 30.2356 10.4478 34.2423 14.4883Z" fill="#9B4635"/>
<path d="M34.2422 14.4879L21.635 26.8956C20.4525 25.2328 19.8676 23.0924 19.6675 20.843C21.8219 15.5431 26.273 14.205 25.6496 11.7745C25.156 9.85555 22.0145 9.36117 20.8819 9.93535C21.2782 8.54906 21.6493 7.65632 21.8034 7.55949C22.6489 7.05027 30.2355 10.4475 34.2422 14.4879Z" fill="#873A2D"/>
<path d="M21.5563 27.8442C21.2869 27.8219 21.032 27.6861 20.8635 27.453C17.7167 23.0454 18.5719 15.9792 19.3624 12.1578C19.597 11.0242 20.4273 7.2896 21.3112 6.75747C22.1075 6.27549 24.1149 6.85873 27.2675 8.48092C30.3148 10.0527 33.1016 11.9994 34.9124 13.8237C35.2784 14.193 35.2758 14.7928 34.906 15.1639C34.5367 15.5299 33.9369 15.5273 33.5658 15.1575C30.1221 11.6905 24.0618 8.82639 22.3522 8.49208C21.49 10.5911 18.7106 21.1816 22.3994 26.3539C22.7033 26.7808 22.6022 27.3724 22.1806 27.6766C21.9924 27.8072 21.7688 27.8617 21.5563 27.8442Z" fill="#650000"/>
<path d="M107.698 111.052C106.952 117.716 102.437 121.123 98.5455 122.866C95.5391 124.208 92.9057 124.564 92.683 124.653C91.28 124.653 88.7468 124.642 85.501 124.614C69.7283 124.497 37.2477 124.141 37.2477 124.141C24.4927 125.644 16.4644 124.748 11.4091 123.1C3.53672 120.539 2.89646 116.146 2.89646 116.146C-0.0542969 107.578 1.02022 102.294 4.07119 100.64C6.89947 99.1038 11.5038 102.06 11.5038 102.06C11.5149 101.954 11.5539 101.837 11.6095 101.709C12.2331 100.318 15.3342 97.8679 15.3342 97.8679C15.6181 97.5672 15.852 97.1998 16.058 96.7599C16.1136 96.6263 16.1693 96.4983 16.2305 96.3535C17.0601 94.2156 17.4777 90.5745 19.4374 85.2798C21.2468 80.3805 24.7822 75.5702 26.6584 73.2207C27.41 72.2798 27.8888 71.7342 27.8888 71.7342C28.7406 72.2965 29.5758 72.8199 30.3997 73.3154C39.0627 78.5376 45.8383 78.7436 56.372 79.2057C67.9022 79.7068 80.4012 69.0952 80.4012 69.0952C80.6628 69.3569 80.9245 69.6464 81.1806 69.947C87.3438 77.1402 92.5883 94.3993 93.017 96.4426C93.468 98.5749 95.7618 97.4336 95.7618 97.4336C96.1849 98.4692 97.51 101.398 98.1669 101.425C99.3528 101.476 100.578 100.451 100.578 100.451C107.821 99.4268 108.144 107.037 107.698 111.052Z" fill="#FF8A42"/>
<path d="M26.2724 99.7615C26.2724 99.7615 36.5778 108.213 30.9713 120.272C25.3649 132.337 8.26721 112.489 8.2004 109.104C8.13359 105.713 12.9327 99.2994 14.7533 98.893C16.5739 98.4921 26.2724 99.7615 26.2724 99.7615Z" fill="#9B4635"/>
<path d="M62.8119 124.308H16.1231C11.5021 124.308 7.04257 122.421 3.95262 118.98C3.25112 118.201 2.59416 117.315 2.03185 116.324C0.890517 114.32 0.122204 111.865 0.105502 108.892C0.0442597 97.0387 10.1492 98.798 12.9051 103.725C14.1578 105.958 15.7445 109.777 15.7445 109.777L62.8119 124.308Z" fill="#9B4635"/>
<g opacity="0.6">
<path d="M28.5833 103.273C14.7983 93.9591 13.8574 104.398 13.8574 104.398C12.8218 102.06 12.4655 102.483 11.3464 101.358C12.0034 99.9664 15.2659 97.5167 15.2659 97.5167C15.5666 97.2161 15.8115 96.8486 16.0231 96.4032C16.0843 96.2752 20.967 97.3998 21.0283 97.2551L28.5833 103.273Z" fill="white"/>
</g>
<g opacity="0.3">
<path d="M91.0485 72.7087C90.9872 72.7087 90.9204 72.7088 90.8592 72.7032C88.1924 72.5974 86.1157 70.3537 86.2215 67.6869C86.2994 65.7494 85.854 63.6616 85.236 60.7777C84.1949 55.8783 82.7641 49.1639 82.7418 37.9065C82.714 25.2238 88.2703 17.3013 92.5405 13.0812C94.7898 10.8598 98.5367 11.3942 100.101 14.139C101.181 16.0319 100.858 18.4148 99.3106 19.9459C96.4322 22.7909 92.3847 28.4697 92.4014 37.8898C92.4236 48.1451 93.6763 54.0355 94.684 58.7734C95.3855 62.0749 95.9924 64.9254 95.8699 68.071C95.7697 70.6655 93.6318 72.7087 91.0485 72.7087Z" fill="white"/>
</g>
<path d="M83.8469 99.7617C83.8469 99.7617 72.6229 106.259 78.2293 118.324C83.8357 130.388 101.852 112.494 101.919 109.109C101.986 105.724 97.1865 99.3052 95.366 98.8987C93.5398 98.4923 83.8469 99.7617 83.8469 99.7617Z" fill="#9B4635"/>
<path d="M53.6232 77.2523C53.2947 77.2133 53.0052 77.1744 52.7546 77.141C53.2613 77.0352 53.5229 76.9517 53.5229 76.9517C53.5229 76.9517 53.5619 77.0575 53.6232 77.2523Z" fill="#575B5A"/>
<path d="M89.9871 89.6288C87.632 96.6382 62.1052 95.753 55.0067 95.753C54.9121 95.753 54.823 95.753 54.7339 95.7418C54.6448 95.7474 54.5557 95.753 54.4667 95.753C47.3681 95.753 27.1861 95.8086 21.5073 91.5273C17.6768 88.6377 22.2811 80.7152 25.6717 75.8771C27.303 73.5499 28.6559 71.9353 28.6559 71.9353C40.7317 78.4548 49.9403 77.9872 53.7262 77.3692C54.205 77.2912 54.5947 77.2077 54.8898 77.1409C55.1236 77.1743 55.3909 77.2133 55.6971 77.2523C59.7725 77.7422 70.1558 78.0595 82.5156 71.3842C82.5156 71.3842 82.9331 72.069 83.5622 73.1713C85.8616 77.1521 90.9948 86.6223 89.9871 89.6288Z" fill="#FF8A42"/>
<path d="M54.4285 86.082C63.9865 86.2044 70.7945 95.8469 71.213 105.466C71.9583 111.849 67.2551 120.79 53.9845 121.099C40.7261 120.45 36.2533 111.392 37.1576 105.03C37.8138 95.4247 44.8706 85.9597 54.4285 86.082Z" fill="#9B4635"/>
<g opacity="0.3">
<path d="M84.0198 73.1702C80.7517 79.9903 68.5255 86.0533 53.9499 86.0533C41.3786 86.0533 30.5554 81.2875 25.7173 75.8815C27.3597 73.5543 28.7237 71.9398 28.7237 71.9398C40.8831 78.4593 50.1585 77.9916 53.9666 77.3736C54.4454 77.2957 54.8407 77.2121 55.1358 77.1453C55.3696 77.1787 55.6424 77.2177 55.9486 77.2567C60.0519 77.7466 70.5075 78.064 82.9564 71.3886C82.962 71.383 83.3795 72.0678 84.0198 73.1702Z" fill="#650000"/>
</g>
<path d="M52.7529 77.141C52.43 77.2078 52.0125 77.2913 51.5002 77.3692C51.5838 77.102 51.6394 76.9517 51.6394 76.9517C51.6394 76.9517 52.0236 77.0407 52.7529 77.141Z" fill="#575B5A"/>
<g opacity="0.35">
<path d="M31.1154 72.9652C28.2092 76.1554 21.5338 83.9944 18.0263 96.9221C18.0263 96.9221 17.7813 97.1559 16.022 96.4098C17.0297 94.3332 17.2524 90.525 19.574 84.9297C22.3856 78.1653 28.4708 71.3896 28.4708 71.3896C29.3728 71.9464 30.2469 72.4697 31.1154 72.9652Z" fill="white"/>
</g>
<g opacity="0.35">
<path d="M76.8359 71.2284C79.7422 74.4186 87.1302 82.2019 90.6043 96.3488C90.6043 96.3488 90.3983 96.5882 92.1576 95.8422C91.1499 93.7655 90.7045 88.7882 88.3773 83.1929C85.5657 76.4284 79.4805 69.6528 79.4805 69.6528C78.5786 70.2096 77.6989 70.7329 76.8359 71.2284Z" fill="white"/>
</g>
<path d="M16.4459 97.7231C16.3735 97.7231 16.3067 97.7175 16.2343 97.7008C15.6998 97.5839 15.3602 97.055 15.4771 96.5205C18.9011 80.7535 25.5821 72.6751 25.866 72.341C26.2168 71.9235 26.8403 71.8678 27.2635 72.2185C27.681 72.5693 27.7367 73.1928 27.386 73.616C27.3136 73.6995 20.7273 81.6999 17.4146 96.9437C17.3144 97.4058 16.9024 97.7231 16.4459 97.7231Z" fill="#650000"/>
<path d="M81.325 102.873C81.325 102.873 92.3819 90.224 98.9126 101.008L81.325 102.873Z" fill="#9B4635"/>
<g opacity="0.6">
<path d="M80.5508 103.274C94.3358 93.9596 95.466 105.122 95.466 105.122C96.5016 102.784 96.6742 102.483 97.7932 101.359C97.1363 99.9669 93.8737 97.5172 93.8737 97.5172C93.5731 97.2166 93.3281 96.8491 93.1166 96.4037C93.0553 96.2757 88.1726 97.4003 88.1114 97.2556L80.5508 103.274Z" fill="white"/>
</g>
<path d="M109.158 108.893C109.153 109.588 109.108 110.257 109.03 110.897C108.59 114.343 107.098 116.988 105.311 118.981C102.221 122.421 97.7672 124.309 93.1407 124.309H46.4519L93.5193 109.772C93.5193 109.772 93.7698 109.171 94.1484 108.302C94.7274 106.988 95.6015 105.062 96.3587 103.715C98.4855 99.9178 104.983 98.0026 107.811 102.763C108.384 103.72 108.808 104.951 109.014 106.487C109.047 106.743 109.075 107.011 109.097 107.289C109.103 107.345 109.108 107.4 109.108 107.462C109.147 107.913 109.158 108.391 109.158 108.893Z" fill="#9B4635"/>
<g opacity="0.6">
<path d="M109.373 108.33C109.373 108.386 109.312 108.024 109.112 107.462C108.583 105.992 107.107 103.13 103.321 102.718C98.0881 102.145 94.3356 108.853 94.3356 108.853L94.1519 108.308C94.7309 106.994 95.605 105.068 96.3621 103.72C98.4889 99.9233 104.986 98.0081 107.814 102.768C108.315 104.505 108.805 106.237 109.101 107.295C109.268 107.907 109.373 108.291 109.373 108.33Z" fill="white"/>
</g>
<g opacity="0.6">
<path d="M0.25 108.33C0.25 108.386 0.311239 108.024 0.511668 107.462C1.04058 105.992 2.51596 103.13 6.30183 102.718C11.5353 102.145 15.2877 108.853 15.2877 108.853L15.4715 108.308C14.8924 106.994 14.0183 105.068 13.2612 103.72C11.1344 99.9233 4.63716 98.0081 1.80889 102.768C1.30782 104.505 0.81788 106.237 0.522804 107.295C0.350212 107.907 0.25 108.291 0.25 108.33Z" fill="white"/>
</g>
<g opacity="0.3">
<path d="M109.027 110.897C108.587 114.343 107.095 116.988 105.308 118.981C102.218 122.421 97.7637 124.309 93.1371 124.309H81.2784C79.2518 122.137 78.7118 120.35 81.9242 120.061C90.8878 119.248 90.1362 111.476 90.1362 111.476C90.1362 111.476 94.0056 117.628 98.5988 117.628C107.011 117.628 108.275 110.518 108.275 110.518C108.275 110.518 108.553 110.652 109.027 110.897Z" fill="#650000"/>
</g>
<g opacity="0.3">
<path d="M30.0206 124.308H16.1242C11.5032 124.308 7.04363 122.421 3.95368 118.98C3.25218 118.201 2.59522 117.316 2.03291 116.325C1.55967 115.178 1.20892 113.914 1.03076 112.511C1.504 112.266 1.7768 112.127 1.7768 112.127C1.7768 112.127 3.73655 117.087 9.4432 117.087C14.0364 117.087 16.6085 112.873 16.6085 112.873C16.6085 112.873 19.164 120.862 28.1332 121.675C30.4938 121.886 30.8223 122.911 30.0206 124.308Z" fill="#650000"/>
</g>
<path d="M92.8515 97.8907C92.3949 97.8907 91.9829 97.5734 91.8827 97.1057C88.5812 81.7172 79.0274 69.402 78.9272 69.2795C78.5876 68.8508 78.6656 68.2273 79.0942 67.8877C79.5229 67.5481 80.1465 67.626 80.4861 68.0547C80.8925 68.5669 90.4185 80.8376 93.8202 96.6882C93.9371 97.2226 93.5919 97.7516 93.0575 97.8629C92.9906 97.8852 92.9183 97.8907 92.8515 97.8907Z" fill="#650000"/>
<path d="M93.1383 125.299H46.4495C45.9039 125.299 45.4585 124.853 45.4585 124.308C45.4585 123.762 45.9039 123.317 46.4495 123.317H93.1383C97.5477 123.317 101.718 121.496 104.568 118.317C106.934 115.684 108.143 112.51 108.165 108.886C108.187 105.195 107.179 102.656 105.259 101.542C103.689 100.629 101.517 100.757 99.5965 101.871C98.9563 102.244 98.3717 102.717 97.9096 103.241C97.5477 103.652 96.9186 103.686 96.5122 103.324C96.1002 102.962 96.0668 102.333 96.4286 101.927C97.0411 101.236 97.7704 100.64 98.6055 100.156C101.139 98.6863 104.073 98.5583 106.255 99.8221C108.048 100.863 110.18 103.279 110.147 108.891C110.125 113.011 108.744 116.63 106.044 119.637C102.82 123.233 98.1156 125.299 93.1383 125.299Z" fill="#650000"/>
<path d="M93.3895 109.722C93.4563 109.076 93.5844 108.452 93.7236 107.834C93.8683 107.216 94.0354 106.609 94.2247 106.002C94.4195 105.401 94.6199 104.8 94.8872 104.221C95.0264 103.931 95.1655 103.647 95.3326 103.369C95.4049 103.235 95.5163 103.085 95.6221 102.94C95.7334 102.796 95.8448 102.656 95.9617 102.523C96.3236 102.122 96.936 102.094 97.3369 102.456C97.6375 102.729 97.7321 103.152 97.5985 103.514L97.5373 103.675C97.4928 103.803 97.4371 103.92 97.3758 104.037C97.3146 104.149 97.2533 104.26 97.1865 104.399C97.0585 104.666 96.9137 104.928 96.769 105.19C96.4739 105.719 96.1399 106.231 95.8114 106.754C95.4773 107.272 95.1321 107.79 94.7758 108.307C94.4139 108.82 94.0465 109.337 93.6401 109.833C93.59 109.894 93.5009 109.905 93.4341 109.855C93.4062 109.816 93.384 109.766 93.3895 109.722Z" fill="#650000"/>
<path d="M80.4412 103.865C80.2074 103.865 79.9791 103.787 79.7898 103.62C79.3778 103.258 79.3333 102.634 79.6952 102.222C79.9457 101.933 85.9419 95.1683 92.0772 95.6972C94.8053 95.9366 97.0935 97.5511 98.8807 100.496C99.1646 100.964 99.0143 101.576 98.5466 101.855C98.0789 102.139 97.4721 101.988 97.1881 101.521C95.7462 99.1434 93.9702 97.8462 91.9102 97.6681C86.7659 97.2227 81.2485 103.464 81.1928 103.525C80.9924 103.748 80.714 103.865 80.4412 103.865Z" fill="#650000"/>
<path d="M63.6977 125.3H17.0089C12.0371 125.3 7.33264 123.24 4.10351 119.643C1.40329 116.637 0.022557 113.018 0.000287095 108.898C-0.0331177 102.423 2.85639 100.224 4.57674 99.4889C7.29923 98.3309 10.8791 99.1437 13.2787 101.477C13.674 101.855 13.6796 102.484 13.301 102.88C12.9224 103.269 12.2932 103.28 11.898 102.902C10.083 101.142 7.32707 100.474 5.35062 101.315C3.15147 102.25 1.95447 104.945 1.97674 108.892C1.99344 112.511 3.20715 115.685 5.57332 118.324C8.42386 121.503 12.5939 123.323 17.0033 123.323H63.6977C64.2433 123.323 64.6887 123.769 64.6887 124.314C64.6887 124.86 64.2433 125.3 63.6977 125.3Z" fill="#650000"/>
<path d="M16.499 109.827C16.0703 109.282 15.6806 108.719 15.302 108.163C14.9234 107.6 14.556 107.038 14.1997 106.47C13.8433 105.902 13.4815 105.351 13.1641 104.783L12.7131 103.982L12.2677 103.247L12.251 103.219C11.9671 102.757 12.1174 102.15 12.5851 101.866C12.9581 101.638 13.4258 101.693 13.7376 101.961C14.0271 102.211 14.2832 102.512 14.5059 102.835C14.6172 102.991 14.723 103.18 14.8009 103.325C14.8845 103.48 14.968 103.631 15.0403 103.792C15.3466 104.416 15.5748 105.067 15.792 105.713C16.0091 106.364 16.1984 107.021 16.3654 107.684C16.5269 108.352 16.6716 109.02 16.7607 109.716C16.7718 109.794 16.7161 109.866 16.6382 109.877C16.5825 109.889 16.5324 109.866 16.499 109.827Z" fill="#650000"/>
<path d="M28.8231 103.865C28.5447 103.865 28.2719 103.748 28.0771 103.525C28.0214 103.464 22.4873 97.2227 17.3597 97.6681C15.2997 97.8519 13.5237 99.1435 12.0817 101.521C11.7978 101.988 11.1909 102.139 10.7233 101.855C10.2556 101.571 10.1053 100.964 10.3892 100.496C12.1764 97.5457 14.4646 95.9311 17.1927 95.6973C23.3224 95.1628 29.3186 101.938 29.5747 102.222C29.9366 102.634 29.8921 103.258 29.4801 103.62C29.2852 103.781 29.0569 103.865 28.8231 103.865Z" fill="#650000"/>
<path d="M55.6081 108.458V108.53C55.4022 108.53 55.1739 108.53 54.9234 108.53H54.8176C54.4501 108.53 54.1216 108.53 53.8433 108.53V108.519C53.5983 108.519 53.3422 108.519 53.075 108.514C53.3422 108.508 53.5983 108.502 53.8433 108.497C54.155 108.491 54.4446 108.486 54.6951 108.475H54.7619C55.2685 108.469 55.6081 108.458 55.6081 108.458Z" fill="white"/>
<path d="M93.7237 121.43C93.6124 125.232 90.7229 131.162 86.28 131.69C81.8428 132.219 76.2809 130.933 76.1027 128.879C75.9245 126.824 72.5061 126.457 71.6432 126.535C70.7858 126.618 62.969 128.216 62.969 128.216C61.3823 128.74 57.7746 129.007 55.6033 129.124C55.2692 129.141 54.9742 129.157 54.7236 129.168C54.4675 129.157 54.1724 129.141 53.8384 129.124C51.6615 129.007 48.0594 128.74 46.4726 128.216C46.4726 128.216 38.6559 126.618 37.7985 126.535C36.9411 126.457 33.5227 126.824 33.339 128.879C33.1608 130.933 27.6045 132.214 23.1617 131.69C18.7188 131.162 15.8293 125.232 15.7179 121.43C15.6066 117.633 16.7925 114.214 18.1899 113.106C19.5929 112.004 19.0473 108.719 20.5449 108.068C22.037 107.416 30.8225 106.397 35.8666 107.355C35.8666 107.355 37.7818 105.88 40.8718 105.958C43.9617 106.036 50.0247 106.047 50.4701 106.921C50.921 107.795 48.9613 108.285 49.5849 108.452C49.6016 108.457 49.6238 108.463 49.6517 108.463C47.9814 108.435 46.1163 108.391 44.1733 108.329C43.8893 108.318 43.5609 108.268 43.1823 108.201C42.8594 108.602 42.0131 109.905 41.8294 112.716C41.8071 113.123 41.796 113.563 41.796 114.042C41.8572 118.54 44.3904 118.423 46.5896 118.423H53.8328C54.2059 118.423 54.4286 118.423 54.4286 118.423C54.4286 118.423 54.8907 118.423 55.5977 118.423H62.2675C64.4667 118.423 66.9999 118.54 67.0556 114.042C67.0611 113.563 67.05 113.117 67.0222 112.705C66.8496 110.083 66.098 108.769 65.7361 108.29C65.5635 108.313 65.4076 108.329 65.2573 108.335C63.3142 108.396 61.4491 108.441 59.7733 108.469C59.8012 108.463 59.8234 108.457 59.8401 108.452C60.4637 108.285 58.5039 107.789 58.9549 106.921C59.4059 106.047 65.4633 106.036 68.5532 105.958C71.6487 105.88 73.5584 107.355 73.5584 107.355C78.5969 106.392 87.3824 107.411 88.88 108.068C90.3721 108.719 89.8321 111.998 91.2351 113.106C92.6548 114.214 93.8407 117.633 93.7237 121.43Z" fill="white"/>
<path d="M93.7237 121.43C93.6124 125.232 90.7229 131.162 86.28 131.69C81.8428 132.219 76.2809 130.933 76.1027 128.879C75.9245 126.824 72.5061 126.457 71.6432 126.535C70.7858 126.618 62.969 128.216 62.969 128.216C61.3823 128.74 57.7746 129.007 55.6033 129.124C55.2692 129.141 54.9742 129.157 54.7236 129.168C54.4675 129.157 54.1724 129.141 53.8384 129.124C51.6615 129.007 48.0594 128.74 46.4726 128.216C46.4726 128.216 38.6559 126.618 37.7985 126.535C36.9411 126.457 33.5227 126.824 33.339 128.879C33.1608 130.933 27.6045 132.214 23.1617 131.69C18.7188 131.162 15.8293 125.232 15.7179 121.43C15.6066 117.633 16.7925 114.214 18.1899 113.106C19.5929 112.004 19.0473 108.719 20.5449 108.068C22.037 107.416 30.8225 106.397 35.8666 107.355C35.8666 107.355 37.7818 105.88 40.8718 105.958C43.9617 106.036 50.0247 106.047 50.4701 106.921C50.921 107.795 48.9613 108.285 49.5849 108.452C49.6016 108.457 49.6238 108.463 49.6517 108.463C47.9814 108.435 46.1163 108.391 44.1733 108.329C43.8893 108.318 43.5609 108.268 43.1823 108.201C42.8594 108.602 42.0131 109.905 41.8294 112.716C41.8071 113.123 41.796 113.563 41.796 114.042C41.8572 118.54 44.3904 118.423 46.5896 118.423H53.8328C54.2059 118.423 54.4286 118.423 54.4286 118.423C54.4286 118.423 54.8907 118.423 55.5977 118.423H62.2675C64.4667 118.423 66.9999 118.54 67.0556 114.042C67.0611 113.563 67.05 113.117 67.0222 112.705C66.8496 110.083 66.098 108.769 65.7361 108.29C65.5635 108.313 65.4076 108.329 65.2573 108.335C63.3142 108.396 61.4491 108.441 59.7733 108.469C59.8012 108.463 59.8234 108.457 59.8401 108.452C60.4637 108.285 58.5039 107.789 58.9549 106.921C59.4059 106.047 65.4633 106.036 68.5532 105.958C71.6487 105.88 73.5584 107.355 73.5584 107.355C78.5969 106.392 87.3824 107.411 88.88 108.068C90.3721 108.719 89.8321 111.998 91.2351 113.106C92.6548 114.214 93.8407 117.633 93.7237 121.43Z" fill="white"/>
<g opacity="0.3">
<path d="M93.7241 121.43C93.6127 125.232 90.7232 131.162 86.2804 131.69C81.8431 132.219 76.2812 130.933 76.1031 128.879C75.9249 126.825 72.5065 126.457 71.6435 126.535C70.7861 126.619 62.9694 128.216 62.9694 128.216C61.3827 128.74 57.775 129.007 55.6036 129.124C55.2696 129.141 54.9745 129.157 54.724 129.168C54.4679 129.157 54.1728 129.141 53.8388 129.124C51.6619 129.007 48.0597 128.74 46.473 128.216C46.473 128.216 38.6563 126.619 37.7989 126.535C36.9415 126.457 33.5231 126.825 33.3394 128.879C33.1612 130.933 27.6049 132.214 23.162 131.69C18.7192 131.162 15.8297 125.232 15.7183 121.43C15.6849 120.338 15.7629 119.281 15.9188 118.295C15.9299 118.245 15.9355 118.189 15.9466 118.139C16.3475 115.773 17.2215 113.875 18.1958 113.106C19.5988 112.004 19.0532 108.719 20.5509 108.068C22.043 107.416 30.8284 106.397 35.8726 107.355C35.8726 107.355 37.7878 105.88 40.8777 105.958C41.234 105.969 41.6293 105.974 42.0469 105.985C41.9522 106.47 41.8743 107.027 41.8353 107.656C41.813 108.062 41.8019 108.502 41.8019 108.981C41.813 109.732 41.891 110.356 42.0246 110.868C42.0357 110.907 42.0469 110.946 42.058 110.98C42.0469 111.035 42.0357 111.085 42.0246 111.141C41.9411 111.603 41.8687 112.126 41.8297 112.717C41.8075 113.123 41.7963 113.563 41.7963 114.042C41.8576 118.54 44.3908 118.423 46.5899 118.423H53.8332C54.2062 118.423 54.4289 118.423 54.4289 118.423C54.4289 118.423 54.891 118.423 55.5981 118.423H62.2679C64.4671 118.423 67.0003 118.54 67.0559 114.042C67.0615 113.563 67.0504 113.117 67.0225 112.705C66.9835 112.121 66.9167 111.597 66.8277 111.141C66.8165 111.085 66.8054 111.035 66.7943 110.98C66.8054 110.941 66.8165 110.907 66.8277 110.868C66.9613 110.356 67.0448 109.732 67.0504 108.981C67.0559 108.502 67.0448 108.057 67.017 107.645C66.978 107.021 66.9 106.475 66.811 105.991C67.4456 105.98 68.0414 105.969 68.5536 105.952C71.6491 105.874 73.5587 107.35 73.5587 107.35C78.5973 106.386 87.3827 107.405 88.8804 108.062C90.3725 108.714 89.8324 111.993 91.2354 113.101C92.2097 113.869 93.0838 115.768 93.4847 118.134C93.4958 118.184 93.5014 118.239 93.5125 118.29C93.6851 119.281 93.7575 120.338 93.7241 121.43Z" fill="#650000"/>
</g>
<path d="M93.5284 118.023C93.5173 118.062 93.5117 118.101 93.5006 118.139C92.7378 121.781 90.0766 126.179 86.2796 126.63C81.8423 127.159 76.2804 125.873 76.1022 123.818C75.9241 121.764 72.5057 121.396 71.6427 121.474C70.7853 121.558 62.9686 123.156 62.9686 123.156C61.3819 123.679 57.7741 123.946 55.6028 124.063C55.2688 124.08 54.9737 124.097 54.7232 124.108C54.4671 124.097 54.172 124.08 53.8379 124.063C51.6611 123.946 48.0589 123.679 46.4722 123.156C46.4722 123.156 38.6555 121.558 37.7981 121.474C36.9407 121.396 33.5223 121.764 33.3385 123.818C33.1604 125.873 27.604 127.153 23.1612 126.63C19.3642 126.179 16.7029 121.781 15.9402 118.139C15.9291 118.101 15.9235 118.062 15.9124 118.023C16.3021 115.584 17.1873 113.624 18.1839 112.834C19.5869 111.731 19.0413 108.447 20.5389 107.795C22.031 107.144 30.8165 106.125 35.8606 107.083C35.8606 107.083 37.7758 105.607 40.8657 105.685C41.2388 105.696 41.6508 105.702 42.0906 105.713C42.0683 105.796 42.0516 105.891 42.0349 105.98C41.9403 106.465 41.8623 107.021 41.8233 107.65C41.8011 108.057 41.7899 108.497 41.7899 108.975C41.8011 109.727 41.879 110.351 42.0126 110.863C42.0238 110.902 42.0349 110.941 42.046 110.974C42.7475 113.435 44.7797 113.357 46.5835 113.357H53.8268C54.1998 113.357 54.4225 113.357 54.4225 113.357C54.4225 113.357 54.8846 113.357 55.5917 113.357H62.2615C64.0654 113.357 66.0975 113.435 66.799 110.974C66.8101 110.935 66.8213 110.902 66.8324 110.863C66.966 110.351 67.0495 109.727 67.0551 108.975C67.0607 108.497 67.0495 108.051 67.0217 107.639C66.9827 107.016 66.9048 106.47 66.8157 105.986C66.799 105.891 66.7823 105.802 66.76 105.718C67.417 105.702 68.0294 105.691 68.5583 105.679C71.6538 105.602 73.5635 107.077 73.5635 107.077C78.602 106.114 87.3875 107.133 88.8851 107.79C90.3772 108.441 89.8372 111.72 91.2402 112.828C92.2535 113.624 93.1387 115.584 93.5284 118.023Z" fill="white"/>
<path d="M55.6057 129.13V129.208C55.6057 129.208 55.2717 129.197 54.7261 129.175C54.9766 129.164 55.2772 129.147 55.6057 129.13Z" fill="white"/>
<path d="M54.821 108.53C54.4535 108.53 54.1251 108.53 53.8467 108.53V108.458C53.8467 108.458 54.1807 108.469 54.6985 108.48H54.7653C55.0158 108.486 55.3054 108.491 55.6171 108.502C55.8621 108.508 56.1238 108.514 56.391 108.519C56.1238 108.519 55.8621 108.525 55.6171 108.525V108.53C55.4111 108.53 55.1829 108.53 54.9323 108.53H54.821Z" fill="white"/>
<path d="M54.7234 129.175C54.1778 129.197 53.8381 129.208 53.8381 129.208V129.13C54.1722 129.147 54.4673 129.164 54.7234 129.175Z" fill="white"/>
<path d="M26.691 115.44H31.1394C33.088 115.44 34.6636 117.021 34.6636 118.965V120.796C34.6636 121.325 34.2349 121.754 33.706 121.754H24.1243C23.5954 121.754 23.1667 121.325 23.1667 120.796V118.965C23.1667 117.021 24.7423 115.44 26.691 115.44Z" fill="#E53939"/>
<g opacity="0.35">
<path d="M34.6636 118.586V120.557C34.6636 118.82 33.255 117.411 31.5179 117.411H26.3124C24.5753 117.411 23.1667 118.82 23.1667 120.557V118.586C23.1667 116.849 24.5753 115.44 26.3124 115.44H31.5179C33.255 115.44 34.6636 116.849 34.6636 118.586Z" fill="white"/>
</g>
<path d="M33.7086 122.498H24.127C23.1861 122.498 22.4233 121.735 22.4233 120.794V118.963C22.4233 116.608 24.3386 114.693 26.6936 114.693H31.142C33.497 114.693 35.4122 116.608 35.4122 118.963V120.794C35.4067 121.735 34.6439 122.498 33.7086 122.498ZM26.6936 116.179C25.157 116.179 23.9099 117.426 23.9099 118.963V120.794C23.9099 120.911 24.0045 121.012 24.127 121.012H33.7086C33.8255 121.012 33.9257 120.917 33.9257 120.794V118.963C33.9257 117.426 32.6786 116.179 31.142 116.179H26.6936Z" fill="#650000"/>
<path d="M56.5452 109.03C56.3281 109.03 56.0107 109.03 55.6043 109.03C55.3315 109.03 55.1088 108.808 55.1144 108.535C55.1144 108.262 55.3371 108.045 55.6099 108.045C56.4171 108.051 56.8737 108.045 56.8737 108.045C57.1465 108.045 57.3692 108.268 57.3692 108.541C57.3692 108.813 57.1521 109.036 56.8737 109.036C56.8792 109.03 56.7623 109.03 56.5452 109.03Z" fill="#1D1D1D"/>
<path d="M54.8199 109.026C54.5192 109.026 54.1907 109.026 53.8344 109.021C53.5616 109.015 53.3445 108.792 53.3445 108.52C53.35 108.247 53.5672 108.03 53.84 108.03H53.8456C54.1963 108.035 54.5192 108.035 54.8143 108.035C55.0871 108.035 55.3098 108.258 55.3098 108.531C55.3098 108.804 55.0927 109.026 54.8199 109.026Z" fill="#1D1D1D"/>
<path d="M53.0142 109.015H53.0086C52.0232 109.004 50.8874 108.993 49.6515 108.97C49.3787 108.965 49.1615 108.742 49.1671 108.464C49.1727 108.191 49.3954 107.979 49.6737 107.979C50.9097 108.002 52.0455 108.013 53.0254 108.024C53.2982 108.029 53.5209 108.252 53.5153 108.525C53.5042 108.798 53.2815 109.015 53.0142 109.015Z" fill="#1D1D1D"/>
<path d="M43.1873 108.708C43.1594 108.708 43.126 108.708 43.0982 108.703C42.9423 108.675 42.7753 108.642 42.5971 108.608C41.5226 108.397 40.0528 108.113 38.0207 108.113H37.2523C36.9795 108.113 36.7568 107.89 36.7568 107.617C36.7568 107.344 36.9795 107.122 37.2523 107.122H38.0151C40.1419 107.122 41.6673 107.417 42.7864 107.639C42.959 107.673 43.126 107.706 43.2763 107.734C43.5436 107.784 43.7217 108.04 43.6716 108.313C43.6327 108.541 43.4211 108.708 43.1873 108.708Z" fill="#650000"/>
<path d="M24.9205 132.864C22.9719 132.864 19.4923 132.28 17.1818 128.544C14.0862 123.533 13.9248 118.806 16.6696 113.662C16.8978 113.239 17.1929 112.81 17.4546 112.426C17.694 112.075 17.9445 111.714 18.0392 111.496C18.4511 110.567 18.4734 110.338 18.5291 109.782C18.5458 109.587 18.5681 109.364 18.607 109.08C18.6349 108.885 18.7574 108.418 19.303 107.933C19.7094 107.571 20.3385 107.605 20.7004 108.017C21.0623 108.423 21.0289 109.052 20.6169 109.414C20.5835 109.442 20.5668 109.464 20.5501 109.481C20.5278 109.665 20.5111 109.826 20.4944 109.971C20.422 110.695 20.3608 111.123 19.8486 112.293C19.676 112.682 19.3865 113.1 19.0803 113.545C18.8353 113.902 18.5848 114.263 18.4122 114.592C15.9959 119.107 16.1351 123.088 18.8631 127.497C21.4297 131.656 25.9227 130.804 25.9672 130.799C26.5017 130.687 27.025 131.038 27.1308 131.573C27.2366 132.107 26.8914 132.63 26.3569 132.736C26.2957 132.759 25.7445 132.864 24.9205 132.864Z" fill="#650000"/>
<path d="M54.7856 130.221C51.2057 130.221 46.0447 129.169 41.8969 128.323C40.0207 127.939 38.4005 127.61 37.4151 127.482C35.0656 127.181 34.4588 128.829 34.4365 128.902C34.2528 129.419 33.6904 129.687 33.1727 129.503C32.6549 129.319 32.3877 128.757 32.5714 128.239C32.9667 127.12 34.5423 125.116 37.6712 125.517C38.729 125.65 40.3825 125.99 42.2977 126.38C46.1449 127.165 51.4117 128.239 54.7911 128.239C55.3368 128.239 55.7822 128.685 55.7822 129.23C55.7822 129.776 55.3312 130.221 54.7856 130.221Z" fill="#650000"/>
<path d="M48.8528 109.204C48.5131 109.204 48.2069 108.97 48.129 108.625C48.0399 108.224 48.2849 107.829 48.6857 107.734C49.2258 107.611 49.571 107.489 49.7881 107.389C49.2926 107.172 48.2236 106.86 46.2583 106.687C45.8519 106.654 45.5457 106.292 45.5846 105.88C45.6236 105.468 45.9799 105.167 46.3919 105.206C51.5585 105.657 51.5585 106.96 51.5585 107.389C51.5585 108.474 50.111 108.931 49.0253 109.176C48.9641 109.198 48.9084 109.204 48.8528 109.204Z" fill="#650000"/>
<path d="M36.6415 107.85C36.4745 107.85 36.3019 107.794 36.1627 107.677C35.851 107.416 35.8064 106.954 36.0681 106.642C36.8197 105.74 39.1803 105.361 41.0287 105.205C41.4351 105.172 41.797 105.473 41.8304 105.885C41.8638 106.291 41.5632 106.653 41.1512 106.686C38.373 106.92 37.3486 107.432 37.2094 107.594C37.0647 107.761 36.8531 107.85 36.6415 107.85Z" fill="#650000"/>
<path d="M31.9807 116.213C31.8304 116.213 31.6801 116.168 31.552 116.074C31.218 115.834 31.1401 115.372 31.3739 115.038C32.1366 113.964 34.5028 112.143 41.8184 111.976C42.2249 111.976 42.5701 112.293 42.5756 112.7C42.5812 113.106 42.2583 113.451 41.8519 113.457C34.7422 113.618 32.9606 115.361 32.5876 115.895C32.4428 116.107 32.2146 116.213 31.9807 116.213Z" fill="#650000"/>
<path d="M29.8188 111.23C28.7554 111.23 19.4299 111.163 19.4299 108.853C19.4299 106.542 28.7554 106.475 29.8188 106.475C30.8822 106.475 40.2077 106.542 40.2077 108.853C40.2077 111.163 30.8822 111.23 29.8188 111.23ZM20.4376 108.853C20.8441 109.37 24.179 110.239 29.8188 110.239C35.4587 110.239 38.7936 109.37 39.2 108.853C38.7936 108.335 35.4587 107.466 29.8188 107.466C24.179 107.466 20.8441 108.335 20.4376 108.853Z" fill="#650000"/>
<path d="M29.8202 106.103C31.574 106.175 33.3222 106.325 35.0648 106.598C35.9333 106.737 36.8019 106.904 37.6648 107.144C38.0991 107.266 38.5278 107.405 38.962 107.595C39.1792 107.689 39.3963 107.806 39.6134 107.962C39.7248 108.04 39.8361 108.14 39.9419 108.268C40.0477 108.408 40.1535 108.602 40.1535 108.847C40.1535 109.087 39.9586 109.282 39.7192 109.282C39.4798 109.282 39.2849 109.087 39.2849 108.847C39.2794 108.875 39.2794 108.87 39.2515 108.836C39.2126 108.803 39.1625 108.758 39.0956 108.719C38.9565 108.636 38.7839 108.558 38.6001 108.497C38.2327 108.369 37.8263 108.274 37.4198 108.196C36.6014 108.04 35.7607 107.951 34.92 107.884C33.2331 107.762 31.5239 107.756 29.8258 107.829C29.347 107.845 28.9406 107.478 28.9239 106.999C28.9072 106.52 29.2746 106.114 29.7534 106.097C29.7701 106.103 29.798 106.103 29.8202 106.103Z" fill="#650000"/>
<path d="M19.9279 109.722C19.4491 109.722 19.0593 109.332 19.0593 108.853C19.0593 107.818 20.1728 107.144 22.6615 106.671C24.5823 106.304 27.1266 106.103 29.8212 106.103C30.3 106.103 30.6898 106.493 30.6898 106.972C30.6898 107.45 30.3 107.84 29.8212 107.84C24.4932 107.84 21.3476 108.625 20.7685 109.071C20.6739 109.438 20.3343 109.722 19.9279 109.722Z" fill="#650000"/>
<path d="M82.769 115.44H78.3206C76.372 115.44 74.7964 117.021 74.7964 118.964V120.796C74.7964 121.325 75.2251 121.753 75.754 121.753H85.3356C85.8645 121.753 86.2932 121.325 86.2932 120.796V118.964C86.2932 117.021 84.712 115.44 82.769 115.44Z" fill="#E53939"/>
<g opacity="0.35">
<path d="M86.2932 118.585V120.556C86.2932 118.819 84.8846 117.411 83.1476 117.411H77.942C76.205 117.411 74.7964 118.819 74.7964 120.556V118.585C74.7964 116.848 76.205 115.44 77.942 115.44H83.1476C84.8846 115.44 86.2932 116.848 86.2932 118.585Z" fill="white"/>
</g>
<path d="M85.336 122.498H75.7544C74.8135 122.498 74.0508 121.735 74.0508 120.794V118.962C74.0508 116.607 75.966 114.692 78.321 114.692H82.7694C85.1245 114.692 87.0397 116.607 87.0397 118.962V120.794C87.0341 121.735 86.2714 122.498 85.336 122.498ZM78.321 116.179C76.7844 116.179 75.5373 117.426 75.5373 118.962V120.794C75.5373 120.911 75.6319 121.011 75.7544 121.011H85.336C85.453 121.011 85.5532 120.916 85.5532 120.794V118.962C85.5532 117.426 84.3061 116.179 82.7694 116.179H78.321Z" fill="#1D1D1D"/>
<path d="M85.336 122.498H75.7544C74.8135 122.498 74.0508 121.735 74.0508 120.794V118.962C74.0508 116.607 75.966 114.692 78.321 114.692H82.7694C85.1245 114.692 87.0397 116.607 87.0397 118.962V120.794C87.0341 121.735 86.2714 122.498 85.336 122.498ZM78.321 116.179C76.7844 116.179 75.5373 117.426 75.5373 118.962V120.794C75.5373 120.911 75.6319 121.011 75.7544 121.011H85.336C85.453 121.011 85.5532 120.916 85.5532 120.794V118.962C85.5532 117.426 84.3061 116.179 82.7694 116.179H78.321Z" fill="#650000"/>
<path d="M65.7496 108.792C65.5047 108.792 65.2931 108.613 65.2597 108.363C65.2208 108.09 65.41 107.84 65.6828 107.806C65.9668 107.767 66.2897 107.706 66.6627 107.628C67.7762 107.411 69.3017 107.11 71.4396 107.11H72.2024C72.4752 107.11 72.6979 107.333 72.6979 107.606C72.6979 107.879 72.4752 108.101 72.2024 108.101H71.434C69.3963 108.101 67.921 108.391 66.8465 108.597C66.4567 108.675 66.1171 108.741 65.8109 108.78C65.7942 108.792 65.7719 108.792 65.7496 108.792Z" fill="#650000"/>
<path d="M56.4324 109.015C56.1596 109.015 55.9424 108.798 55.9369 108.525C55.9313 108.252 56.154 108.029 56.4268 108.024C57.4123 108.013 58.5424 108.002 59.7784 107.979H59.784C60.0512 107.979 60.2739 108.196 60.2795 108.469C60.2851 108.742 60.0679 108.97 59.7896 108.97C58.5536 108.993 57.4178 109.004 56.4324 109.015C56.4379 109.015 56.4379 109.015 56.4324 109.015Z" fill="#1D1D1D"/>
<path d="M54.9257 109.026C54.6529 109.026 54.4357 108.808 54.4302 108.536C54.4302 108.263 54.6473 108.04 54.9201 108.035C55.1372 108.035 55.3655 108.029 55.6105 108.029C55.8833 108.029 56.106 108.252 56.106 108.525C56.106 108.797 55.8833 109.02 55.6105 109.02C55.3711 109.02 55.1428 109.026 54.9257 109.026Z" fill="#1D1D1D"/>
<path d="M52.9077 109.031C52.6906 109.031 52.5792 109.031 52.5792 109.031C52.3064 109.031 52.0837 108.808 52.0837 108.535C52.0837 108.262 52.3064 108.04 52.5792 108.04C52.5792 108.04 53.0358 108.04 53.8319 108.04C54.1047 108.04 54.3274 108.262 54.3274 108.529C54.3274 108.802 54.1103 109.025 53.8375 109.025C53.4422 109.031 53.1249 109.031 52.9077 109.031Z" fill="#1D1D1D"/>
<path d="M72.7011 107.746C72.5341 107.746 72.3615 107.69 72.2223 107.573C71.9495 107.345 70.8137 106.899 68.3028 106.688C67.8964 106.654 67.5902 106.293 67.6236 105.886C67.657 105.48 68.0189 105.179 68.4253 105.207C69.7893 105.324 72.2223 105.636 73.1743 106.432C73.4861 106.693 73.5307 107.161 73.269 107.478C73.1242 107.657 72.9127 107.746 72.7011 107.746Z" fill="#650000"/>
<path d="M60.6084 109.204C60.5527 109.204 60.4971 109.198 60.4414 109.187C59.3557 108.937 57.9082 108.48 57.9082 107.4C57.9082 106.971 57.9082 105.669 63.0748 105.218C63.4812 105.179 63.8431 105.485 63.8821 105.891C63.9155 106.298 63.6149 106.66 63.2084 106.699C61.2431 106.871 60.1742 107.177 59.6787 107.4C59.8958 107.495 60.241 107.617 60.781 107.745C61.1819 107.834 61.4324 108.235 61.3378 108.636C61.2487 108.97 60.948 109.204 60.6084 109.204Z" fill="#650000"/>
<path d="M77.4759 116.214C77.2421 116.214 77.0138 116.102 76.8691 115.902C76.4738 115.345 74.6031 113.536 67.0314 113.452C66.6194 113.447 66.2909 113.112 66.2965 112.7C66.302 112.294 66.6305 111.966 67.0369 111.966H67.0425C74.8035 112.049 77.2866 113.925 78.0772 115.039C78.3166 115.373 78.2331 115.835 77.899 116.074C77.7766 116.169 77.6262 116.214 77.4759 116.214Z" fill="#650000"/>
<path d="M79.6328 111.23C78.5694 111.23 69.2439 111.163 69.2439 108.853C69.2439 106.542 78.5694 106.475 79.6328 106.475C80.6962 106.475 90.0217 106.542 90.0217 108.853C90.0217 111.163 80.6962 111.23 79.6328 111.23ZM70.2572 108.853C70.6636 109.37 73.9985 110.239 79.6384 110.239C85.2782 110.239 88.6131 109.37 89.0195 108.853C88.6131 108.335 85.2782 107.466 79.6384 107.466C73.9985 107.466 70.658 108.335 70.2572 108.853Z" fill="#650000"/>
<path d="M79.6318 107.957C77.9393 107.879 76.2356 107.874 74.5487 107.985C73.708 108.046 72.8673 108.13 72.0544 108.28C71.648 108.358 71.2472 108.447 70.8853 108.57C70.7016 108.631 70.5345 108.703 70.4009 108.781C70.3341 108.82 70.2896 108.859 70.2562 108.881C70.2339 108.904 70.245 108.892 70.2394 108.848C70.2394 109.126 70.0167 109.349 69.7384 109.349C69.46 109.349 69.2373 109.126 69.2373 108.848C69.2373 108.581 69.3487 108.375 69.46 108.224C69.5714 108.085 69.6883 107.979 69.7996 107.901C70.0279 107.74 70.245 107.623 70.4621 107.523C70.902 107.328 71.3307 107.189 71.7649 107.061C72.6335 106.816 73.502 106.643 74.3761 106.498C76.1187 106.215 77.8724 106.059 79.6318 105.97C80.1774 105.942 80.645 106.365 80.6729 106.91C80.7007 107.456 80.2776 107.924 79.732 107.946C79.6986 107.963 79.6707 107.963 79.6318 107.957Z" fill="#650000"/>
<path d="M89.5275 109.844C89.0821 109.844 88.7035 109.548 88.581 109.142C87.9352 108.702 84.8731 107.962 79.6341 107.962C79.0885 107.962 78.6431 107.516 78.6431 106.971C78.6431 106.425 79.0885 105.98 79.6341 105.98C82.3399 105.98 84.8898 106.18 86.8161 106.548C88.542 106.876 90.5185 107.433 90.5185 108.853C90.5185 109.398 90.0731 109.844 89.5275 109.844Z" fill="#650000"/>
<path d="M67.0662 114.048C67.0105 118.546 64.4773 118.429 62.2781 118.429H55.6083C54.9012 118.429 54.4391 118.429 54.4391 118.429C54.4391 118.429 54.2164 118.429 53.8434 118.429H46.6002C44.401 118.429 41.8678 118.546 41.8066 114.048C41.801 113.574 41.8121 113.134 41.84 112.722C42.0237 109.916 42.8699 108.608 43.1929 108.207C43.577 108.28 43.8999 108.33 44.1839 108.335C46.1269 108.397 47.9865 108.441 49.6623 108.469C50.0965 108.541 51.622 108.536 53.0194 108.513H53.0807C53.3479 108.513 53.604 108.519 53.849 108.519V108.53C54.1329 108.53 54.4614 108.53 54.8233 108.53H54.9291C55.1796 108.53 55.4079 108.53 55.6139 108.53V108.525C55.8589 108.525 56.1205 108.519 56.3878 108.519H56.4434C57.8353 108.541 59.3608 108.547 59.795 108.475C61.4709 108.441 63.336 108.402 65.279 108.341C65.4293 108.335 65.5852 108.319 65.7578 108.296C66.1141 108.781 66.8713 110.089 67.0439 112.711C67.0606 113.123 67.0717 113.569 67.0662 114.048Z" fill="#E53939"/>
<g opacity="0.3">
<path d="M67.0662 114.048C67.0105 118.546 64.4773 118.429 62.2781 118.429H55.6083C54.9012 118.429 54.4391 118.429 54.4391 118.429C54.4391 118.429 54.2164 118.429 53.8434 118.429H46.6002C44.401 118.429 41.8678 118.546 41.8066 114.048C41.801 113.574 41.8121 113.134 41.84 112.722C41.8567 112.489 41.8734 112.266 41.9012 112.049C42.1629 109.699 42.8978 108.575 43.1929 108.207C43.577 108.28 43.8999 108.33 44.1839 108.335C46.1269 108.397 47.9865 108.441 49.6623 108.469C50.0965 108.541 51.622 108.536 53.0194 108.513H53.0807C53.3479 108.513 53.604 108.519 53.849 108.519V108.53C54.1329 108.53 54.4614 108.53 54.8233 108.53H54.9291C55.1796 108.53 55.4079 108.53 55.6139 108.53V108.525C55.8589 108.525 56.1205 108.519 56.3878 108.519H56.4434C57.8353 108.541 59.3608 108.547 59.795 108.475C61.4709 108.441 63.336 108.402 65.279 108.341C65.4293 108.335 65.5852 108.319 65.7578 108.296C66.0863 108.736 66.7377 109.861 66.9826 112.038C67.0049 112.255 67.0272 112.478 67.0439 112.711C67.0606 113.123 67.0717 113.569 67.0662 114.048Z" fill="#650000"/>
</g>
<path d="M66.9709 112.037C66.4977 115.294 64.2484 115.2 62.2719 115.2H55.6021C54.8951 115.2 54.433 115.2 54.433 115.2C54.433 115.2 54.2103 115.2 53.8372 115.2H46.594C44.6175 115.2 42.3738 115.294 41.895 112.048C42.1567 109.699 42.8916 108.574 43.1867 108.207C43.5708 108.279 43.8937 108.329 44.1777 108.335C46.1207 108.396 47.9803 108.441 49.6561 108.468C50.0903 108.541 51.6158 108.535 53.0132 108.513H53.0745C53.3417 108.513 53.5978 108.519 53.8428 108.519V108.53C54.1267 108.53 54.4552 108.53 54.8171 108.53H54.9229C55.1734 108.53 55.4017 108.53 55.6077 108.53V108.524C55.8527 108.524 56.1143 108.519 56.3816 108.519H56.4372C57.8291 108.541 59.3546 108.546 59.7889 108.474C61.4647 108.441 63.3298 108.402 65.2728 108.34C65.4231 108.335 65.579 108.318 65.7516 108.296C66.0745 108.736 66.7315 109.86 66.9709 112.037Z" fill="#E53939"/>
<g opacity="0.35">
<path d="M66.5181 109.866C66.507 109.866 66.4903 109.866 66.4736 109.866C64.3134 109.933 62.2367 109.983 60.3772 110.017C59.8928 110.095 58.2003 110.089 56.6526 110.067H56.5913C56.2907 110.067 56.0012 110.072 55.7284 110.072V110.078C55.5001 110.078 55.244 110.078 54.9656 110.078H54.8487C54.4423 110.078 54.0748 110.078 53.7631 110.078V110.067C53.4903 110.067 53.2063 110.067 52.9057 110.061H52.8389C51.2855 110.084 49.5986 110.089 49.1142 110.011C47.2547 109.978 45.1892 109.933 43.029 109.861C42.8286 109.855 42.6059 109.827 42.3665 109.789C42.6615 108.914 43.0011 108.419 43.1793 108.202C43.5635 108.274 43.8864 108.324 44.1703 108.33C46.1134 108.391 47.9729 108.436 49.6487 108.463C50.083 108.536 51.6084 108.53 53.0059 108.508H53.0671C53.3344 108.508 53.5905 108.514 53.8354 108.514V108.525C54.1194 108.525 54.4479 108.525 54.8097 108.525H54.9155C55.1661 108.525 55.3943 108.525 55.6003 108.525V108.519C55.8453 108.519 56.107 108.514 56.3742 108.514H56.4299C57.8217 108.536 59.3472 108.541 59.7815 108.469C61.4573 108.436 63.3224 108.397 65.2654 108.335C65.4158 108.33 65.5717 108.313 65.7442 108.291C65.9391 108.553 66.2453 109.054 66.5181 109.866Z" fill="white"/>
</g>
<path d="M62.5973 118.924C62.5472 118.924 62.4915 118.924 62.4414 118.924H46.5964H46.435C44.2971 118.918 41.3742 118.929 41.3129 114.052C41.3073 113.579 41.3185 113.122 41.3463 112.694C41.5356 109.776 42.432 108.368 42.805 107.9L42.9887 107.666L43.2782 107.722C43.5956 107.783 43.9241 107.833 44.1969 107.844C45.9283 107.9 47.7656 107.945 49.6641 107.978L49.7365 107.983C49.9202 108.017 50.5939 108.061 52.999 108.022H53.1048C53.3609 108.022 53.6003 108.028 53.8341 108.028L54.3296 108.039C54.48 108.039 54.6414 108.039 54.8085 108.039H54.9142C55.0534 108.039 55.1815 108.039 55.304 108.039L56.4286 108.028C58.8393 108.067 59.513 108.022 59.7023 107.989L59.7746 107.983C61.7845 107.945 63.5772 107.9 65.253 107.85C65.3755 107.844 65.5147 107.833 65.6761 107.811L65.9657 107.772L66.1382 108.006C66.5781 108.596 67.3464 109.993 67.519 112.682C67.5468 113.117 67.5579 113.579 67.5524 114.058C67.5023 118.812 64.713 118.924 62.5973 118.924ZM43.4118 108.752C43.0722 109.275 42.4765 110.5 42.3318 112.755C42.3095 113.161 42.2984 113.595 42.3039 114.041C42.354 117.938 44.2525 117.944 46.435 117.933H62.4414C64.6295 117.944 66.5224 117.938 66.5725 114.041C66.5781 113.59 66.5669 113.15 66.5447 112.744C66.4055 110.583 65.8599 109.381 65.5147 108.824C65.4368 108.83 65.3644 108.835 65.292 108.835C63.6218 108.891 61.8346 108.93 59.8359 108.969C59.6521 108.997 59.0787 109.052 56.4342 109.013L55.6157 109.025C55.4097 109.025 55.1759 109.025 54.9254 109.025H54.8252C54.4577 109.025 54.1348 109.025 53.8508 109.025L53.3553 109.013C53.2774 109.013 53.1939 109.013 53.1104 109.013H53.0213C50.3823 109.058 49.8089 108.997 49.6251 108.969C47.7322 108.936 45.9005 108.891 44.1746 108.835C43.9296 108.83 43.668 108.796 43.4118 108.752Z" fill="#650000"/>
<path d="M48.983 99.5165C48.983 100.073 46.6001 100.524 43.6661 100.524C40.7264 100.524 38.3491 100.073 38.3491 99.5165C38.3491 98.9597 40.732 98.5088 43.6661 98.5088C46.6001 98.5144 48.983 98.9653 48.983 99.5165Z" fill="#E53939"/>
<path d="M71.109 99.5159C71.109 100.073 68.7261 100.524 65.792 100.524C62.8524 100.524 60.4751 100.073 60.4751 99.5159C60.4751 98.9591 62.858 98.5082 65.792 98.5082C68.7261 98.5137 71.109 98.9647 71.109 99.5159Z" fill="#E53939"/>
<g opacity="0.35">
<path d="M48.983 99.5165C48.983 100.073 46.6001 100.524 43.6661 100.524C40.7264 100.524 38.3491 100.073 38.3491 99.5165C38.3491 98.9597 40.732 98.5088 43.6661 98.5088C46.6001 98.5144 48.983 98.9653 48.983 99.5165Z" fill="black"/>
</g>
<path d="M49.7882 101.811C49.7882 102.451 47.049 103.314 43.664 103.314C40.2846 103.314 37.5398 102.451 37.5398 101.811C37.5398 100.146 38.3471 99.5167 38.3471 99.5167C38.3471 100.073 40.73 100.524 43.664 100.524C46.6036 100.524 48.9809 100.073 48.9809 99.5167C48.9809 99.5167 49.7882 100.146 49.7882 101.811Z" fill="#E53939"/>
<path d="M43.6679 101.02C41.9197 101.02 37.8555 100.875 37.8555 99.5164C37.8555 98.1635 41.9197 98.0132 43.6679 98.0132C45.4161 98.0132 49.4803 98.1579 49.4803 99.5164C49.4803 100.875 45.4161 101.02 43.6679 101.02ZM39.1081 99.5164C39.7484 99.7502 41.2906 100.029 43.6679 100.029C46.0452 100.029 47.5874 99.7502 48.2277 99.5164C47.5818 99.2826 46.0396 99.0042 43.6679 99.0042C41.2906 99.0098 39.7484 99.2881 39.1081 99.5164Z" fill="#650000"/>
<path d="M43.6659 103.809C40.999 103.809 37.0461 103.174 37.0461 101.81C37.0461 99.9618 37.9425 99.2102 38.0427 99.1267L38.8444 98.5032V99.3995C39.2119 99.6389 40.8543 100.034 43.6659 100.034C46.4774 100.034 48.1198 99.6445 48.4873 99.3995V98.5032L49.289 99.1323C49.3892 99.2102 50.2856 99.9618 50.2856 101.816C50.2856 103.174 46.3327 103.809 43.6659 103.809ZM38.0371 101.732C38.3768 102.083 40.5481 102.818 43.6659 102.818C46.7836 102.818 48.955 102.083 49.2946 101.732C49.2834 101.014 49.1053 100.541 48.9438 100.257C47.7802 100.931 45.0243 101.02 43.6659 101.02C42.3074 101.02 39.5515 100.931 38.3879 100.257C38.2264 100.541 38.0483 101.014 38.0371 101.732Z" fill="#650000"/>
<path d="M46.3124 106.503C46.3124 106.687 45.1432 106.837 43.7012 106.837C42.2593 106.837 41.0901 106.687 41.0901 106.503C41.0901 106.408 41.0901 103.146 41.0901 103.146C41.0901 103.146 42.9997 103.313 43.7012 103.313C44.1466 103.313 46.3625 103.129 46.3625 103.129C46.3625 103.129 46.3124 106.375 46.3124 106.503Z" fill="#E53939"/>
<path d="M63.1404 106.503C63.1404 106.687 64.3096 106.837 65.7516 106.837C67.1935 106.837 68.3627 106.687 68.3627 106.503C68.3627 106.408 68.3627 103.146 68.3627 103.146C68.3627 103.146 66.4531 103.313 65.7516 103.313C65.3062 103.313 63.0903 103.129 63.0903 103.129C63.0903 103.129 63.1404 106.375 63.1404 106.503Z" fill="#E53939"/>
<g opacity="0.3">
<path d="M46.3124 106.503C46.3124 106.687 45.1432 106.837 43.7012 106.837C42.2593 106.837 41.0901 106.687 41.0901 106.503C41.0901 106.408 41.0901 103.146 41.0901 103.146C41.0901 103.146 42.9997 103.313 43.7012 103.313C44.1466 103.313 46.3625 103.129 46.3625 103.129C46.3625 103.129 46.3124 106.375 46.3124 106.503Z" fill="#650000"/>
</g>
<g opacity="0.3">
<path d="M63.1404 106.503C63.1404 106.687 64.3096 106.837 65.7516 106.837C67.1935 106.837 68.3627 106.687 68.3627 106.503C68.3627 106.408 68.3627 103.146 68.3627 103.146C68.3627 103.146 66.4531 103.313 65.7516 103.313C65.3062 103.313 63.0903 103.129 63.0903 103.129C63.0903 103.129 63.1404 106.375 63.1404 106.503Z" fill="#650000"/>
</g>
<path d="M43.7033 107.334C40.5967 107.334 40.5967 106.833 40.5967 106.504V102.607L41.1367 102.652C41.1534 102.652 43.0352 102.813 43.7033 102.813C44.0541 102.813 45.7132 102.685 46.3256 102.635L46.8712 102.59L46.8601 103.136C46.8378 104.439 46.81 106.41 46.81 106.504C46.81 106.833 46.81 107.334 43.7033 107.334ZM41.5877 106.198C41.9162 106.265 42.6177 106.343 43.7033 106.343C44.7946 106.343 45.4961 106.259 45.8245 106.193C45.8357 105.619 45.8524 104.389 45.8635 103.659C45.162 103.715 44.0262 103.799 43.7033 103.799C43.219 103.799 42.2112 103.726 41.5877 103.676V106.198Z" fill="#650000"/>
<g opacity="0.35">
<path d="M71.1104 99.5159C71.1104 100.073 68.7276 100.524 65.7935 100.524C62.8539 100.524 60.4766 100.073 60.4766 99.5159C60.4766 98.9591 62.8594 98.5082 65.7935 98.5082C68.7276 98.5137 71.1104 98.9647 71.1104 99.5159Z" fill="black"/>
</g>
<path d="M71.9198 101.811C71.9198 102.451 69.1751 103.314 65.7956 103.314C62.4106 103.314 59.6714 102.451 59.6714 101.811C59.6714 100.146 60.4787 99.517 60.4787 99.517C60.4787 100.074 62.8616 100.525 65.7956 100.525C68.7352 100.525 71.1125 100.074 71.1125 99.517C71.1125 99.517 71.9198 100.146 71.9198 101.811Z" fill="#E53939"/>
<path d="M65.7932 101.02C64.045 101.02 59.9807 100.875 59.9807 99.5164C59.9807 98.1635 64.045 98.0132 65.7932 98.0132C67.5413 98.0132 71.6056 98.1579 71.6056 99.5164C71.6056 100.875 67.5413 101.02 65.7932 101.02ZM61.2278 99.5164C61.8681 99.7502 63.4103 100.029 65.7876 100.029C68.1649 100.029 69.7071 99.7502 70.3473 99.5164C69.7015 99.2826 68.1649 99.0042 65.7876 99.0042C63.4158 99.0098 61.8737 99.2881 61.2278 99.5164Z" fill="#650000"/>
<path d="M65.7911 103.809C63.1187 103.809 59.1714 103.174 59.1714 101.81C59.1714 99.9617 60.0678 99.2101 60.168 99.1266L60.9697 98.5031V99.3994C61.3371 99.6388 62.9795 100.034 65.7967 100.034C68.6082 100.034 70.2506 99.6444 70.6181 99.3994V98.5031L71.4198 99.1266C71.52 99.2045 72.4164 99.9562 72.4164 101.81C72.4108 103.174 68.4579 103.809 65.7911 103.809ZM60.1624 101.732C60.502 102.083 62.6733 102.818 65.7911 102.818C68.9089 102.818 71.0746 102.083 71.4198 101.732C71.4087 101.014 71.2305 100.541 71.0691 100.257C69.9055 100.93 67.1496 101.02 65.7911 101.02C64.4327 101.02 61.6768 100.93 60.5132 100.257C60.3517 100.541 60.1735 101.014 60.1624 101.732Z" fill="#650000"/>
<path d="M65.7582 107.334C62.6516 107.334 62.6516 106.833 62.6516 106.504C62.6516 106.41 62.6182 104.439 62.6015 103.136L62.5903 102.59L63.1359 102.635C63.7484 102.685 65.413 102.813 65.7582 102.813C66.4319 102.813 68.3081 102.652 68.3248 102.652L68.8649 102.607V106.504C68.8649 106.833 68.8649 107.334 65.7582 107.334ZM63.637 106.198C63.9599 106.265 64.667 106.348 65.7582 106.348C66.8439 106.348 67.5454 106.265 67.8739 106.204V103.682C67.2503 103.732 66.2426 103.804 65.7582 103.804C65.4353 103.804 64.2995 103.721 63.598 103.665C63.6092 104.394 63.6259 105.625 63.637 106.198Z" fill="#650000"/>
<path d="M27.7754 107.812C27.7754 107.967 28.6216 108.096 29.6683 108.096C30.715 108.096 31.5613 107.967 31.5613 107.812C31.5613 107.75 31.5613 107.01 31.5613 107.01C31.5613 107.01 30.3197 107.233 29.6683 107.233C29.2229 107.233 27.7754 107.01 27.7754 107.01C27.7754 107.01 27.7754 107.723 27.7754 107.812Z" fill="#E53939"/>
<path d="M29.6683 107.295C30.7138 107.295 31.5613 107.168 31.5613 107.011C31.5613 106.854 30.7138 106.727 29.6683 106.727C28.6229 106.727 27.7754 106.854 27.7754 107.011C27.7754 107.168 28.6229 107.295 29.6683 107.295Z" fill="#E53939"/>
<path d="M23.3115 108.597C23.3115 108.798 24.2469 108.965 25.3993 108.965C26.5518 108.965 27.4871 108.803 27.4871 108.597C27.4871 108.519 27.4871 107.834 27.4871 107.834C27.4871 107.834 26.1175 108.124 25.3993 108.124C24.9094 108.124 23.3115 107.834 23.3115 107.834C23.3115 107.834 23.3115 108.486 23.3115 108.597Z" fill="#E53939"/>
<path d="M25.3993 108.202C26.5524 108.202 27.4871 108.038 27.4871 107.835C27.4871 107.632 26.5524 107.467 25.3993 107.467C24.2463 107.467 23.3115 107.632 23.3115 107.835C23.3115 108.038 24.2463 108.202 25.3993 108.202Z" fill="#E53939"/>
<path d="M32.4585 108.687C32.4585 108.887 33.3938 109.054 34.5463 109.054C35.6988 109.054 36.6341 108.893 36.6341 108.687C36.6341 108.609 36.6341 107.924 36.6341 107.924C36.6341 107.924 35.2645 108.213 34.5463 108.213C34.0564 108.213 32.4585 107.924 32.4585 107.924C32.4585 107.924 32.4585 108.57 32.4585 108.687Z" fill="#E53939"/>
<path d="M34.5463 108.284C35.6994 108.284 36.6341 108.12 36.6341 107.917C36.6341 107.714 35.6994 107.549 34.5463 107.549C33.3932 107.549 32.4585 107.714 32.4585 107.917C32.4585 108.12 33.3932 108.284 34.5463 108.284Z" fill="#E53939"/>
<path d="M28.3162 109.433C28.3162 109.633 29.2515 109.8 30.404 109.8C31.5564 109.8 32.4918 109.639 32.4918 109.433C32.4918 109.355 32.4918 108.525 32.4918 108.525C32.4918 108.525 31.1222 108.815 30.404 108.815C29.914 108.815 28.3162 108.525 28.3162 108.525C28.3162 108.525 28.3162 109.316 28.3162 109.433Z" fill="#E53939"/>
<g opacity="0.3">
<path d="M27.7754 107.812C27.7754 107.967 28.6216 108.096 29.6683 108.096C30.715 108.096 31.5613 107.967 31.5613 107.812C31.5613 107.75 31.5613 107.01 31.5613 107.01C31.5613 107.01 30.3197 107.233 29.6683 107.233C29.2229 107.233 27.7754 107.01 27.7754 107.01C27.7754 107.01 27.7754 107.723 27.7754 107.812Z" fill="#650000"/>
</g>
<g opacity="0.3">
<path d="M23.3115 108.597C23.3115 108.798 24.2469 108.965 25.3993 108.965C26.5518 108.965 27.4871 108.803 27.4871 108.597C27.4871 108.519 27.4871 107.834 27.4871 107.834C27.4871 107.834 26.1175 108.124 25.3993 108.124C24.9094 108.124 23.3115 107.834 23.3115 107.834C23.3115 107.834 23.3115 108.486 23.3115 108.597Z" fill="#650000"/>
</g>
<g opacity="0.3">
<path d="M32.4585 108.687C32.4585 108.887 33.3938 109.054 34.5463 109.054C35.6988 109.054 36.6341 108.893 36.6341 108.687C36.6341 108.609 36.6341 107.924 36.6341 107.924C36.6341 107.924 35.2645 108.213 34.5463 108.213C34.0564 108.213 32.4585 107.924 32.4585 107.924C32.4585 107.924 32.4585 108.57 32.4585 108.687Z" fill="#650000"/>
</g>
<g opacity="0.3">
<path d="M28.3162 109.433C28.3162 109.633 29.2515 109.8 30.404 109.8C31.5564 109.8 32.4918 109.639 32.4918 109.433C32.4918 109.355 32.4918 108.525 32.4918 108.525C32.4918 108.525 31.1222 108.815 30.404 108.815C29.914 108.815 28.3162 108.525 28.3162 108.525C28.3162 108.525 28.3162 109.316 28.3162 109.433Z" fill="#650000"/>
</g>
<path d="M30.411 108.854C31.5641 108.854 32.4988 108.69 32.4988 108.487C32.4988 108.284 31.5641 108.119 30.411 108.119C29.258 108.119 28.3232 108.284 28.3232 108.487C28.3232 108.69 29.258 108.854 30.411 108.854Z" fill="#E53939"/>
<path d="M77.8491 107.812C77.8491 107.968 78.6954 108.096 79.7421 108.096C80.7887 108.096 81.635 107.968 81.635 107.812C81.635 107.751 81.635 107.01 81.635 107.01C81.635 107.01 80.3935 107.233 79.7421 107.233C79.2967 107.233 77.8491 107.01 77.8491 107.01C77.8491 107.01 77.8491 107.723 77.8491 107.812Z" fill="#E53939"/>
<path d="M79.7433 107.295C80.7887 107.295 81.6362 107.168 81.6362 107.011C81.6362 106.854 80.7887 106.727 79.7433 106.727C78.6978 106.727 77.8503 106.854 77.8503 107.011C77.8503 107.168 78.6978 107.295 79.7433 107.295Z" fill="#E53939"/>
<path d="M73.3865 108.597C73.3865 108.798 74.3218 108.965 75.4743 108.965C76.6267 108.965 77.5621 108.803 77.5621 108.597C77.5621 108.519 77.5621 107.834 77.5621 107.834C77.5621 107.834 76.1925 108.124 75.4743 108.124C74.9843 108.124 73.3865 107.834 73.3865 107.834C73.3865 107.834 73.3865 108.486 73.3865 108.597Z" fill="#E53939"/>
<path d="M75.4743 108.202C76.6273 108.202 77.5621 108.038 77.5621 107.835C77.5621 107.632 76.6273 107.467 75.4743 107.467C74.3212 107.467 73.3865 107.632 73.3865 107.835C73.3865 108.038 74.3212 108.202 75.4743 108.202Z" fill="#E53939"/>
<path d="M82.5315 108.687C82.5315 108.887 83.4668 109.054 84.6193 109.054C85.7718 109.054 86.7071 108.893 86.7071 108.687C86.7071 108.609 86.7071 107.924 86.7071 107.924C86.7071 107.924 85.3375 108.213 84.6193 108.213C84.1294 108.213 82.5315 107.924 82.5315 107.924C82.5315 107.924 82.5315 108.57 82.5315 108.687Z" fill="#E53939"/>
<path d="M84.6193 108.284C85.7724 108.284 86.7071 108.12 86.7071 107.917C86.7071 107.714 85.7724 107.55 84.6193 107.55C83.4662 107.55 82.5315 107.714 82.5315 107.917C82.5315 108.12 83.4662 108.284 84.6193 108.284Z" fill="#E53939"/>
<path d="M78.3911 109.433C78.3911 109.633 79.3264 109.8 80.4789 109.8C81.6314 109.8 82.5667 109.639 82.5667 109.433C82.5667 109.355 82.5667 108.526 82.5667 108.526C82.5667 108.526 81.1971 108.815 80.4789 108.815C79.989 108.815 78.3911 108.526 78.3911 108.526C78.3911 108.526 78.3911 109.316 78.3911 109.433Z" fill="#E53939"/>
<g opacity="0.3">
<path d="M77.8491 107.812C77.8491 107.968 78.6954 108.096 79.7421 108.096C80.7887 108.096 81.635 107.968 81.635 107.812C81.635 107.751 81.635 107.01 81.635 107.01C81.635 107.01 80.3935 107.233 79.7421 107.233C79.2967 107.233 77.8491 107.01 77.8491 107.01C77.8491 107.01 77.8491 107.723 77.8491 107.812Z" fill="#650000"/>
</g>
<g opacity="0.3">
<path d="M73.3865 108.597C73.3865 108.798 74.3218 108.965 75.4743 108.965C76.6267 108.965 77.5621 108.803 77.5621 108.597C77.5621 108.519 77.5621 107.834 77.5621 107.834C77.5621 107.834 76.1925 108.124 75.4743 108.124C74.9843 108.124 73.3865 107.834 73.3865 107.834C73.3865 107.834 73.3865 108.486 73.3865 108.597Z" fill="#650000"/>
</g>
<g opacity="0.3">
<path d="M82.5315 108.687C82.5315 108.887 83.4668 109.054 84.6193 109.054C85.7718 109.054 86.7071 108.893 86.7071 108.687C86.7071 108.609 86.7071 107.924 86.7071 107.924C86.7071 107.924 85.3375 108.213 84.6193 108.213C84.1294 108.213 82.5315 107.924 82.5315 107.924C82.5315 107.924 82.5315 108.57 82.5315 108.687Z" fill="#650000"/>
</g>
<g opacity="0.3">
<path d="M78.3911 109.433C78.3911 109.633 79.3264 109.8 80.4789 109.8C81.6314 109.8 82.5667 109.639 82.5667 109.433C82.5667 109.355 82.5667 108.526 82.5667 108.526C82.5667 108.526 81.1971 108.815 80.4789 108.815C79.989 108.815 78.3911 108.526 78.3911 108.526C78.3911 108.526 78.3911 109.316 78.3911 109.433Z" fill="#650000"/>
</g>
<path d="M80.486 108.854C81.6391 108.854 82.5738 108.69 82.5738 108.487C82.5738 108.284 81.6391 108.119 80.486 108.119C79.3329 108.119 78.3982 108.284 78.3982 108.487C78.3982 108.69 79.3329 108.854 80.486 108.854Z" fill="#E53939"/>
<g opacity="0.3">
<path d="M89.4055 91.5881C89.3665 91.6327 90.0179 91.9055 88.3533 94.8507C84.1777 99.5719 76.0157 103.686 68.5665 103.686C65.5545 103.686 63.1104 101.871 62.3532 99.6164C62.1472 99.004 62.0637 98.3638 62.1305 97.7124C62.3254 95.7804 63.8119 93.8096 67.1913 92.529C76.1271 89.1273 77.8474 85.7145 78.1147 84.0776C78.2149 83.4485 78.1036 83.0811 78.1036 83.0811L89.4055 91.5881Z" fill="#650000"/>
</g>
<g opacity="0.3">
<path d="M19.6143 91.8842C19.6532 91.9288 19.6143 92.6692 21.2789 94.796C25.4545 99.5172 33.004 103.977 40.4589 103.977C43.4709 103.977 45.915 102.162 46.6721 99.907C46.8781 99.2945 46.9617 98.6543 46.8948 98.0029C46.7 96.071 45.2135 94.1001 41.834 92.8196C32.8982 89.4178 31.1779 86.005 30.9106 84.3682C30.8104 83.739 30.9218 83.3716 30.9218 83.3716L19.6143 91.8842Z" fill="#650000"/>
</g>
<path d="M89.2305 91.2212C89.1916 91.2657 89.1526 91.3103 89.108 91.3604C84.9324 96.0816 76.3029 100.53 68.8536 100.53C65.8416 100.53 63.3975 98.715 62.6403 96.4602C62.4343 95.8478 62.3508 95.2075 62.4176 94.5561C62.6125 92.6242 64.099 90.6533 67.4784 89.3728C76.4142 85.9711 78.1346 82.5582 78.4018 80.9214C78.502 80.2923 78.3907 79.9248 78.3907 79.9248L89.2305 91.2212Z" fill="#FF8A42"/>
<g opacity="0.35">
<path d="M68.4187 91.8226C64.7887 93.0475 62.7065 94.6286 62.7065 94.6286L62.417 94.5562C62.6119 92.6243 64.0984 90.6534 67.4778 89.3729C76.4136 85.9712 78.134 82.5583 78.4012 80.9215C78.5738 81.0941 78.7352 81.2945 78.8856 81.5228C81.3241 85.2419 76.8256 88.9832 68.4187 91.8226Z" fill="white"/>
</g>
<g opacity="0.3">
<path d="M89.1149 91.3595C84.9393 96.0807 76.3098 100.529 68.8605 100.529C65.8485 100.529 63.4044 98.7141 62.6472 96.4593C64.2284 97.094 68.6434 98.252 73.9993 96.9047C82.5732 94.7501 84.2935 88.8708 88.9312 91.2593C88.9925 91.2871 89.0537 91.3261 89.1149 91.3595Z" fill="#650000"/>
</g>
<path d="M68.8564 101.514C65.2431 101.514 62.0752 99.137 61.4962 95.9802C60.9172 92.8235 63.0217 90.0063 67.1305 88.4419C78.2431 84.2162 77.447 80.2243 77.4414 80.1853L77.4525 80.2187L79.3455 79.6342C79.5236 80.2076 80.7151 85.402 67.8375 90.3014C64.6474 91.5151 63.0495 93.4582 63.4504 95.6295C63.8624 97.862 66.184 99.5434 68.8619 99.5434C75.6988 99.5434 84.0723 95.8243 88.3425 90.8916C88.6988 90.4796 89.3279 90.435 89.7399 90.7914C90.1519 91.1477 90.1965 91.7768 89.8401 92.1888C85.2303 97.5002 76.211 101.514 68.8564 101.514Z" fill="#650000"/>
<path d="M31.2291 79.9242C31.2291 79.9242 29.7593 84.6621 42.1413 89.3722C50.8433 92.6848 47.024 100.529 40.7662 100.529C33.2389 100.529 24.665 96.3037 20.5396 91.5324" fill="#FF8A42"/>
<path d="M54.783 130.221C54.2374 130.221 53.792 129.776 53.792 129.23C53.792 128.685 54.2374 128.239 54.783 128.239C58.1513 128.239 63.3625 127.17 67.1595 126.385C69.0691 125.99 70.7227 125.65 71.786 125.517C74.915 125.116 76.4905 127.12 76.8858 128.239C77.0696 128.757 76.7968 129.319 76.2846 129.503C75.7724 129.687 75.21 129.419 75.0207 128.907C74.9484 128.724 74.2858 127.187 72.0366 127.482C71.0456 127.61 69.431 127.944 67.5548 128.328C63.4571 129.174 58.3517 130.221 54.783 130.221Z" fill="#650000"/>
<path d="M84.5309 132.866C83.7069 132.866 83.1613 132.76 83.089 132.749C82.5545 132.643 82.2037 132.12 82.3151 131.585C82.4209 131.051 82.9442 130.7 83.4787 130.806C83.6735 130.845 88.044 131.624 90.5883 127.504C93.3108 123.095 93.45 119.114 91.0393 114.599C90.8667 114.276 90.6162 113.908 90.3712 113.552C90.065 113.107 89.7755 112.689 89.6029 112.299C89.0851 111.13 89.0239 110.702 88.9571 109.978C88.9459 109.833 88.9292 109.677 88.9014 109.488C88.8847 109.471 88.868 109.449 88.8346 109.421C88.4282 109.059 88.3892 108.43 88.7511 108.024C89.113 107.617 89.7421 107.578 90.1485 107.94C90.6941 108.424 90.8166 108.892 90.8389 109.07C90.8778 109.365 90.9001 109.588 90.9224 109.783C90.9781 110.334 91.0003 110.562 91.4123 111.498C91.507 111.715 91.7575 112.077 91.9969 112.427C92.2586 112.806 92.5536 113.24 92.7819 113.663C95.5322 118.808 95.3708 123.535 92.2697 128.545C89.9592 132.281 86.4795 132.866 84.5309 132.866Z" fill="#650000"/>
<path d="M29.2666 133.166C27.3235 133.166 25.6422 131.824 25.2135 129.931L24.1445 125.227C24.022 124.675 24.4396 124.152 25.0019 124.152H32.9856C33.509 124.152 33.9154 124.603 33.8597 125.121L33.3976 129.447C33.1749 131.562 31.3933 133.166 29.2666 133.166Z" fill="#E53939"/>
<g opacity="0.3">
<path d="M33.8604 125.121L33.3984 129.447C33.1757 131.557 31.3885 133.166 29.2673 133.166C27.3242 133.166 25.6429 131.824 25.2142 129.931L24.1452 125.227C24.0394 124.759 24.3234 124.313 24.7576 124.185L25.2086 126.179C25.6373 128.072 27.3187 129.413 29.2617 129.413C31.3829 129.413 33.1701 127.81 33.3928 125.7L33.5375 124.347C33.7658 124.531 33.8939 124.815 33.8604 125.121Z" fill="#650000"/>
</g>
<path d="M29.2668 133.906C26.9619 133.906 25.0021 132.335 24.4899 130.092L23.421 125.387C23.3096 124.903 23.4265 124.402 23.7327 124.018C24.0445 123.628 24.5066 123.405 25.0021 123.405H32.9859C33.4424 123.405 33.8822 123.6 34.194 123.94C34.5002 124.279 34.6505 124.741 34.6004 125.198L34.1383 129.524C33.8767 132.024 31.7833 133.906 29.2668 133.906ZM25.0021 124.892C24.9464 124.892 24.913 124.92 24.8963 124.942C24.8796 124.964 24.8574 125.003 24.8685 125.059L25.9375 129.763C26.2938 131.328 27.6634 132.419 29.2668 132.419C31.015 132.419 32.4737 131.105 32.663 129.368L33.1251 125.042C33.1306 124.992 33.1084 124.959 33.0917 124.936C33.075 124.914 33.0415 124.892 32.9914 124.892H25.0021Z" fill="#650000"/>
<path d="M80.1864 133.166C82.1294 133.166 83.8108 131.824 84.2395 129.931L85.3085 125.227C85.431 124.675 85.0134 124.152 84.4511 124.152H76.4673C75.944 124.152 75.5376 124.603 75.5932 125.121L76.0553 129.447C76.278 131.562 78.0596 133.166 80.1864 133.166Z" fill="#4DA2FF"/>
<path d="M80.1864 133.166C82.1294 133.166 83.8108 131.824 84.2395 129.931L85.3085 125.227C85.431 124.675 85.0134 124.152 84.4511 124.152H76.4673C75.944 124.152 75.5376 124.603 75.5932 125.121L76.0553 129.447C76.278 131.562 78.0596 133.166 80.1864 133.166Z" fill="#E53939"/>
<g opacity="0.3">
<path d="M85.302 125.221L84.2331 129.926C83.8044 131.818 82.123 133.16 80.18 133.16C78.0532 133.16 76.2716 131.557 76.0489 129.441L75.5868 125.115C75.5534 124.809 75.6814 124.525 75.9041 124.341C76.0545 124.219 76.2493 124.146 76.4609 124.146H84.4446C84.5281 124.146 84.6117 124.158 84.684 124.18C85.1239 124.308 85.4078 124.753 85.302 125.221Z" fill="#650000"/>
</g>
<path d="M84.6881 124.186L84.2371 126.18C83.8084 128.073 82.1271 129.414 80.184 129.414C78.0572 129.414 76.2756 127.811 76.0529 125.701L75.9082 124.348C76.0585 124.225 76.2534 124.153 76.4649 124.153H84.4487C84.5322 124.153 84.6157 124.164 84.6881 124.186Z" fill="#E53939"/>
<path d="M80.1856 133.906C77.6747 133.906 75.5814 132.024 75.3141 129.524L74.852 125.198C74.8019 124.741 74.9522 124.285 75.2584 123.94C75.5647 123.6 76.0045 123.405 76.4666 123.405H84.4503C84.9458 123.405 85.4079 123.628 85.7197 124.018C86.0315 124.407 86.1428 124.903 86.0315 125.387L84.9625 130.092C84.4559 132.341 82.4906 133.906 80.1856 133.906ZM76.4666 124.892C76.4165 124.892 76.3831 124.914 76.3664 124.936C76.3497 124.959 76.3274 124.992 76.333 125.042L76.7951 129.368C76.9788 131.111 78.4375 132.419 80.1912 132.419C81.7946 132.419 83.1642 131.328 83.5206 129.763L84.5895 125.059C84.6006 125.009 84.5839 124.97 84.5617 124.942C84.545 124.92 84.5116 124.892 84.4559 124.892H76.4666Z" fill="#650000"/>
<g opacity="0.35">
<path d="M40.8649 91.1984C44.4559 92.5346 46.4268 94.6335 46.4268 94.6335L46.7163 94.5611C46.5214 92.6292 45.0349 90.6583 41.6554 89.3778C32.7196 85.9761 30.9993 82.5632 30.7321 80.9264C30.5595 81.099 30.398 81.2994 30.2477 81.5277C27.8147 85.2412 34.4845 88.8155 40.8649 91.1984Z" fill="white"/>
</g>
<g opacity="0.3">
<path d="M20.0264 91.359C24.202 96.0802 32.8315 100.529 40.2808 100.529C43.2928 100.529 45.7369 98.7136 46.4941 96.4588C44.9129 97.0935 40.4979 98.2515 35.142 96.9042C26.5681 94.7496 24.8478 88.8703 20.2101 91.2588C20.1489 91.2866 20.0876 91.3256 20.0264 91.359Z" fill="#650000"/>
</g>
<path d="M40.6487 101.515C33.2941 101.515 24.2748 97.5004 19.6705 92.1779C19.3142 91.7659 19.3587 91.1368 19.7707 90.7805C20.1827 90.4242 20.8118 90.4687 21.1681 90.8807C25.4384 95.8135 33.8119 99.5326 40.6487 99.5326C43.3211 99.5326 45.6483 97.8512 46.0603 95.6186C46.4611 93.4473 44.8577 91.5043 41.6731 90.2906C28.7956 85.3912 29.987 80.2023 30.1652 79.6233L32.0581 80.2079L32.0692 80.1745C32.0581 80.2135 31.2675 84.2053 42.3802 88.431C46.489 89.9955 48.5935 92.8126 48.0145 95.9694C47.4243 99.1373 44.262 101.515 40.6487 101.515Z" fill="#650000"/>
<path d="M93.2774 56.1178C93.2774 56.1178 94.2405 56.6968 97.0131 58.4116C99.5519 59.9871 97.5086 62.0749 93.2384 64.1683C88.9682 66.2617 83.4675 71.1388 82.3373 71.857C81.2071 72.5807 71.6589 79.8352 52.3231 79.8352C44.2837 79.8352 37.9368 78.5825 33.1821 77.0626C26.5012 74.9302 22.9714 72.2801 22.3089 71.857C21.1787 71.1332 15.678 66.2617 11.4078 64.1683C7.13753 62.0749 5.09427 59.9816 7.63304 58.4116C10.2219 56.8081 11.2352 56.2013 11.3577 56.1233C11.3632 56.1178 11.3688 56.1178 11.3688 56.1178C5.87928 55.8616 3.78035 52.4711 7.20991 50.8454C10.6339 49.2197 13.5067 43.8081 14.2806 41.0967C15.0545 38.3909 17.7436 31.0976 17.7436 31.0976C28.9008 9.00586 52.3231 10.626 52.3231 10.626C52.3231 10.626 75.7454 9.00029 86.9026 31.0976C86.9026 31.0976 89.5917 38.3909 90.3656 41.0967C91.1395 43.8025 94.0123 49.2197 97.4363 50.8454C100.86 52.4711 98.7613 55.8672 93.2774 56.1178Z" fill="#FF8A42"/>
<path d="M33.1887 77.0672C26.5078 74.9349 22.978 72.2848 22.3155 71.8617C21.1853 71.1379 13.5244 64.3233 15.4898 59.9863C19.2422 51.6852 32.5318 51.3567 32.5318 51.3567L30.3215 66.6283L33.1887 77.0672Z" fill="white"/>
<path d="M71.667 77.124C78.3758 74.9805 81.9278 72.3137 82.5904 71.8906C83.7261 71.1668 91.4204 64.3133 89.4495 59.9595C85.6747 51.6194 72.3239 51.2854 72.3239 51.2854L74.5454 66.6293L71.667 77.124Z" fill="white"/>
<path d="M52.7105 79.8959C63.4908 79.8959 72.23 73.5646 72.23 65.7545C72.23 57.9445 63.4908 51.6132 52.7105 51.6132C41.9301 51.6132 33.1909 57.9445 33.1909 65.7545C33.1909 73.5646 41.9301 79.8959 52.7105 79.8959Z" fill="white"/>
<path d="M30.4438 55.7399C30.4438 55.7399 26.5799 57.6161 25.7894 61.7305C23.4622 73.7896 34.0515 77.5755 36.0057 77.8817C51.6224 80.3258 51.5834 80.4539 46.7063 79.101C39.9975 77.2415 35.4489 73.5558 34.8866 70.2265C33.6451 62.9108 37.1748 62.3819 37.9933 57.4213C38.8117 52.4607 30.4438 55.7399 30.4438 55.7399Z" fill="#9B4635"/>
<path d="M75.3471 55.6896C75.3471 55.6896 79.2276 57.5714 80.0237 61.708C82.3621 73.8228 71.7227 77.631 69.7573 77.9372C54.0627 80.3924 54.1016 80.5261 59.001 79.162C65.7432 77.2914 70.3141 73.589 70.882 70.2429C72.1291 62.8883 68.5826 62.3594 67.7586 57.3765C66.9346 52.3937 75.3471 55.6896 75.3471 55.6896Z" fill="#9B4635"/>
<g opacity="0.3">
<path d="M97.8394 59.1304C95.3229 59.8541 82.2004 72.0914 53.1884 72.0914C24.1763 72.0914 10.5082 58.7518 8.29788 58.0057C8.09188 58.1338 7.87475 58.2674 7.64648 58.4122C5.10772 59.9822 7.15098 62.0756 11.4212 64.1689C15.5579 66.1955 20.8469 70.8332 22.1998 71.7796C22.2444 71.8131 22.2834 71.8353 22.3168 71.8576C22.9793 72.2807 26.5091 74.9364 33.19 77.0632C33.6855 77.2246 34.1977 77.375 34.7266 77.5253C34.7322 77.5253 34.7378 77.5253 34.7378 77.5308C35.289 77.7257 35.7288 77.8315 36.0016 77.876C39.214 78.7056 43.0055 79.3792 47.3982 79.6743C49.7143 80.0306 50.026 80.0418 49.1018 79.769C49.614 79.7912 50.1318 79.8135 50.6552 79.8191C51.3288 79.8692 52.0136 79.897 52.704 79.897C53.5447 79.897 54.3742 79.858 55.1926 79.7857C55.8496 79.7634 56.4899 79.73 57.1246 79.6855C55.2149 80.2199 55.7104 80.1587 61.0274 79.318C61.0329 79.318 61.0441 79.318 61.0496 79.3124C62.5306 79.1287 63.9224 78.906 65.2419 78.6499C66.5725 78.4383 68.0758 78.2045 69.7571 77.9428C70.3584 77.8482 71.7614 77.4306 73.3593 76.551C78.9769 74.5355 81.9833 72.2807 82.5901 71.8966C82.9242 71.685 83.8206 70.9445 84.8728 69.8923C87.1499 68.0829 90.457 65.5385 93.2351 64.1745C96.893 62.3818 98.914 60.5946 97.8394 59.1304Z" fill="#F9D3B7"/>
</g>
<g opacity="0.3">
<path d="M86.9061 31.0976C86.9061 31.0976 87.7133 33.2856 88.5707 35.713C75.7711 14.7515 52.3265 16.3772 52.3265 16.3772C52.3265 16.3772 28.8819 14.7515 16.0879 35.7074C16.9453 33.28 17.7526 31.092 17.7526 31.092C28.9098 9.0003 52.3265 10.626 52.3265 10.626C52.3265 10.626 75.7489 9.00587 86.9061 31.0976Z" fill="white"/>
</g>
<path d="M14.3265 38.8813C14.8832 37.7734 15.4734 36.7211 16.0858 35.719C15.3788 37.7177 14.6383 39.8779 14.2875 41.1083C13.8811 42.5336 12.8957 44.7049 11.5483 46.6813C12.7342 43.2017 14.3265 38.8813 14.3265 38.8813Z" fill="#FF8A42"/>
<path d="M93.1058 46.6758C91.7641 44.6993 90.7731 42.5224 90.3667 41.1027C90.0159 39.8779 89.2754 37.7177 88.5684 35.719C89.1808 36.7211 89.7709 37.7734 90.3277 38.8813C90.3277 38.8813 91.92 43.2017 93.1058 46.6758Z" fill="#FF8A42"/>
<path d="M52.3279 80.8311C40.3523 80.8311 29.5904 78.0029 22.0242 72.8585C21.9184 72.7861 21.8404 72.7305 21.7848 72.6971C21.434 72.4744 20.8439 72.0011 19.9419 71.2829C17.7205 69.5125 14.0015 66.545 10.9783 65.0641C7.34834 63.2825 5.61686 61.7013 5.53891 60.0756C5.50551 59.402 5.75048 58.4221 7.12008 57.5758C7.66569 57.2362 8.14448 56.9412 8.56204 56.685C6.35733 56.0671 4.87638 54.8422 4.60915 53.3279C4.36975 51.9805 5.18816 50.7223 6.79716 49.9595C9.73121 48.5677 12.5261 43.6794 13.3389 40.8345C14.1128 38.1231 16.7128 31.0636 16.8242 30.7629L16.8687 30.6571C22.7869 18.9376 32.1291 13.849 38.9214 11.6387C45.9364 9.36159 51.6153 9.59542 52.3335 9.63996C53.0517 9.60099 58.7305 9.36159 65.7455 11.6387C72.5378 13.8434 81.88 18.9376 87.7982 30.6571L87.8428 30.7629C87.9541 31.0636 90.5541 38.1231 91.328 40.8345C92.1408 43.6794 94.9413 48.5677 97.8698 49.9595C99.4788 50.7223 100.297 51.9805 100.058 53.3279C99.7905 54.8422 98.304 56.0671 96.1049 56.685C96.5169 56.9412 96.9957 57.2362 97.5413 57.5758C98.9053 58.4221 99.1559 59.402 99.1224 60.0756C99.0445 61.7013 97.313 63.2881 93.683 65.0641C90.6599 66.545 86.9408 69.5125 84.7194 71.2829C83.8231 72.0011 83.2273 72.4744 82.8766 72.6971C82.8209 72.736 82.7374 72.7861 82.6372 72.8585C75.0599 77.9973 64.298 80.8311 52.3279 80.8311ZM18.6559 31.4978C18.4109 32.1659 15.9556 38.8525 15.2374 41.3745C14.5359 43.8242 11.652 49.8426 7.63785 51.7467C7.27596 51.9193 6.44641 52.3814 6.55219 52.9827C6.66911 53.6563 7.94406 54.8255 10.8503 55.0928C11.3625 55.1429 11.7856 55.5103 11.9025 56.0114C12.0194 56.5125 11.8023 57.0247 11.3625 57.2919C10.8169 57.6259 9.80916 58.2384 8.16119 59.2628C7.96076 59.3853 7.50423 59.7026 7.52093 59.981C7.5265 60.1035 7.69909 61.2559 11.8524 63.2881C15.0704 64.8637 18.8953 67.9146 21.1779 69.7407C21.9351 70.3476 22.5921 70.8654 22.8482 71.0324C22.915 71.0769 23.0096 71.1382 23.1377 71.2273C30.3809 76.1489 40.7476 78.8547 52.3279 78.8547C63.9082 78.8547 74.2748 76.1433 81.5181 71.2273C81.6406 71.1438 81.7408 71.0769 81.8076 71.0324C82.0693 70.8654 82.7207 70.342 83.4779 69.7407C85.7605 67.9202 89.5854 64.8637 92.8034 63.2881C96.9567 61.2504 97.1293 60.1035 97.1349 59.981C97.146 59.7026 96.6895 59.3853 96.4946 59.2628C94.8466 58.2439 93.8389 57.6259 93.2933 57.2919C92.8535 57.0247 92.6363 56.5125 92.7533 56.0114C92.8702 55.5103 93.2877 55.1429 93.7999 55.0928C96.7062 54.82 97.9811 53.6563 98.098 52.9827C98.2038 52.3814 97.3743 51.9193 97.0124 51.7467C92.9982 49.8426 90.1143 43.8298 89.4128 41.3745C88.6946 38.8525 86.2393 32.1659 85.9944 31.4978C81.5014 22.6289 74.5031 16.5937 65.1999 13.5483C58.2016 11.2601 52.4559 11.6164 52.3947 11.622L52.3279 11.6275L52.2611 11.622C52.2054 11.6164 46.4542 11.2601 39.4559 13.5483C30.1471 16.5937 23.1488 22.6289 18.6559 31.4978Z" fill="#650000"/>
<g opacity="0.7">
<path d="M54.4791 56.763C54.4791 56.9801 53.3991 57.264 53.0928 57.264C52.7755 57.264 51.7065 56.9857 51.7065 56.763C51.7065 56.5403 52.0573 56.3677 53.0928 56.3677C54.1006 56.3677 54.4791 56.5458 54.4791 56.763Z" fill="white"/>
</g>
<path d="M38.8286 38.6247C38.8286 40.345 36.4234 38.9253 33.4615 38.9253C30.4996 38.9253 28.0945 38.6803 28.0945 36.96C28.0945 35.2396 30.4996 33.8478 33.4615 33.8478C37.4033 33.8533 38.8286 36.9099 38.8286 38.6247Z" fill="white"/>
<path d="M66.1626 38.6247C66.1626 40.345 68.5678 38.9253 71.5296 38.9253C74.4915 38.9253 76.8967 38.6803 76.8967 36.96C76.8967 35.2396 74.4915 33.8478 71.5296 33.8478C67.5879 33.8533 66.1626 36.9099 66.1626 38.6247Z" fill="white"/>
<path d="M96.3568 104.71C96.1954 104.71 96.0283 104.671 95.8724 104.582C95.3936 104.315 95.2266 103.714 95.4939 103.235C96.1842 102.005 97.2587 100.936 98.6061 100.156C99.0793 99.8834 99.6862 100.045 99.959 100.518C100.232 100.991 100.07 101.598 99.5971 101.871C98.5727 102.467 97.732 103.291 97.2198 104.204C97.0416 104.527 96.702 104.71 96.3568 104.71Z" fill="#650000"/>
<path d="M43.0964 49.7523C43.0964 53.8303 40.1944 57.136 36.6196 57.136C33.0448 57.136 30.1428 53.8303 30.1428 49.7523C30.1428 45.6743 33.0448 42.3687 36.6196 42.3687C40.2003 42.3687 43.0964 45.6743 43.0964 49.7523Z" fill="#650000"/>
<path d="M36.6657 49.1032C36.9348 50.5776 38.0992 51.5254 39.2635 51.2212C40.4336 50.917 41.165 49.4718 40.8958 47.9974C40.6267 46.523 39.4682 45.5752 38.2981 45.8795C37.1338 46.1837 36.4024 47.6288 36.6657 49.1032Z" fill="white"/>
<g opacity="0.35">
<path d="M33.4735 53.5071C33.9065 54.5719 34.9304 55.1043 35.7612 54.6889C36.592 54.2735 36.9138 53.0741 36.4808 52.0093C36.0479 50.9444 35.024 50.412 34.1932 50.8274C33.3624 51.237 33.0406 52.4422 33.4735 53.5071Z" fill="white"/>
</g>
<path d="M62.7175 49.7523C62.7175 53.8303 65.6195 57.136 69.1943 57.136C72.7692 57.136 75.6711 53.8303 75.6711 49.7523C75.6711 45.6743 72.7692 42.3687 69.1943 42.3687C65.6137 42.3687 62.7175 45.6743 62.7175 49.7523Z" fill="#650000"/>
<path d="M69.1438 49.1026C68.8746 50.577 67.7103 51.5248 66.546 51.2206C65.3759 50.9164 64.6445 49.4712 64.9137 47.9968C65.1828 46.5224 66.3412 45.5746 67.5114 45.8788C68.6757 46.1831 69.4071 47.6282 69.1438 49.1026Z" fill="white"/>
<g opacity="0.35">
<path d="M72.3385 53.5076C71.9055 54.5724 70.8816 55.1048 70.0508 54.6894C69.22 54.274 68.8982 53.0746 69.3312 52.0098C69.7641 50.9449 70.788 50.4125 71.6188 50.8279C72.4496 51.2375 72.7714 52.4427 72.3385 53.5076Z" fill="white"/>
</g>
<path d="M54.1772 58.7016C54.1772 58.7016 53.8584 60.8157 55.3797 61.2239C57.1134 61.6937 58.9814 59.1658 58.9814 59.1658C58.9814 59.1658 55.6593 60.9778 55.7711 58.3716C55.8774 55.7431 54.1772 58.7016 54.1772 58.7016Z" fill="#F9D3B7"/>
<path d="M51.0983 58.701C51.0983 58.701 51.4171 60.815 49.8959 61.2233C48.1622 61.6931 46.2942 59.1652 46.2942 59.1652C46.2942 59.1652 49.6163 60.9772 49.5044 58.371C49.3925 55.7425 51.0983 58.701 51.0983 58.701Z" fill="#F9D3B7"/>
<path d="M59.8767 59.1318C59.8152 59.3834 59.7705 59.6295 59.7145 59.8756C59.6586 60.1217 59.5859 60.3677 59.5076 60.6194C59.3342 61.106 59.0993 61.5981 58.747 62.04C58.4002 62.4818 57.9249 62.8901 57.3712 63.1361C56.8175 63.3878 56.1911 63.5053 55.5759 63.4773C54.9551 63.4605 54.3567 63.2815 53.8142 63.0075C53.2661 62.7335 52.7796 62.3532 52.3713 61.8442C52.142 61.5422 51.991 61.2346 51.8848 60.927C51.7785 60.6194 51.7058 60.3174 51.6778 59.9874C51.6722 59.9036 51.6666 59.8141 51.6666 59.7246V59.54V59.1709C51.6666 58.9248 51.661 58.6843 51.6666 58.4383V58.4159C51.6722 57.8734 52.1196 57.4428 52.6565 57.4539C53.1934 57.4595 53.6241 57.9014 53.6185 58.4383L53.6129 59.1709V59.54V59.7246C53.6129 59.8141 53.6073 59.9036 53.6017 59.9874C53.5682 60.323 53.4955 60.6194 53.3892 60.927C53.2829 61.229 53.1375 61.5366 52.9026 61.8386C52.4888 62.342 52.0078 62.7223 51.4597 62.9963C50.9172 63.2704 50.3188 63.4381 49.7036 63.4605C49.0884 63.4885 48.462 63.371 47.9139 63.1138C47.3658 62.8621 46.8905 62.4594 46.5549 62.0176C46.2082 61.5758 45.9733 61.0892 45.7943 60.6026C45.7048 60.3622 45.6377 60.1105 45.5762 59.87C45.5147 59.6239 45.4699 59.3834 45.3972 59.1318C45.6153 59.2828 45.7887 59.4785 45.9677 59.6575L46.471 60.2C46.801 60.5523 47.1254 60.8767 47.4609 61.1284C47.8021 61.3856 48.1321 61.5758 48.4956 61.682C48.8535 61.7939 49.217 61.833 49.5806 61.7883C49.9441 61.7491 50.2964 61.6093 50.6152 61.4248C50.934 61.2458 51.2136 60.9718 51.4038 60.7089C51.5324 60.5299 51.6555 60.144 51.6666 59.8253V59.719V59.5344V59.1653L51.661 58.4327H53.6185C53.6241 58.6788 53.6185 58.9192 53.6185 59.1653V59.5344V59.719C53.6185 59.7525 53.6185 59.7805 53.6241 59.8197C53.6465 60.1329 53.7639 60.5188 53.8925 60.6977C54.0883 60.955 54.3623 61.2234 54.6811 61.4024C54.9999 61.587 55.3522 61.7212 55.7102 61.7603C56.0681 61.8051 56.4316 61.7659 56.784 61.6485C57.1419 61.531 57.4663 61.3521 57.8018 61.0892C58.1374 60.8375 58.4618 60.5132 58.7917 60.1664L59.3007 59.6295C59.474 59.4729 59.653 59.2772 59.8767 59.1318Z" fill="#650000"/>
<path d="M57.2708 56.7771C57.2708 58.0354 53.7809 59.635 52.7798 59.635C51.7452 59.635 48.7419 58.1585 48.2889 56.7771C47.8862 55.5411 49.4242 54.5009 52.7798 54.5009C56.0404 54.5064 57.2708 55.5243 57.2708 56.7771Z" fill="#650000"/>
<g opacity="0.7">
<path d="M54.4256 55.5577C54.4256 55.8317 53.4077 56.1785 52.703 56.1785C51.9983 56.1785 50.9805 55.8317 50.9805 55.5577C50.9805 55.2837 51.5677 55.0656 52.703 55.0656C53.8383 55.0656 54.4256 55.2893 54.4256 55.5577Z" fill="white"/>
</g>
<path d="M10.2582 118.571C12.2906 118.125 13.49 115.72 12.9371 113.199C12.3842 110.677 10.2884 108.995 8.25595 109.44C6.22353 109.886 5.02415 112.291 5.57705 114.813C6.12995 117.334 8.22576 119.017 10.2582 118.571Z" fill="#FFFEFF"/>
<path d="M11.7438 108.966C12.4897 108.803 12.9297 107.92 12.7266 106.993C12.5235 106.067 11.7543 105.449 11.0084 105.613C10.2626 105.776 9.82259 106.66 10.0257 107.586C10.2287 108.512 10.998 109.13 11.7438 108.966Z" fill="#FFFEFF"/>
<path d="M4.78534 111.205C5.53118 111.041 5.97118 110.158 5.7681 109.232C5.56502 108.306 4.79577 107.687 4.04993 107.851C3.30409 108.015 2.86409 108.898 3.06717 109.824C3.27025 110.75 4.0395 111.368 4.78534 111.205Z" fill="#FFFEFF"/>
<path d="M7.78188 108.793C8.61059 108.611 9.09972 107.63 8.87438 106.603C8.64904 105.575 7.79456 104.889 6.96585 105.071C6.13714 105.253 5.64801 106.233 5.87335 107.261C6.09869 108.289 6.95317 108.974 7.78188 108.793Z" fill="#FFFEFF"/>
<path d="M99.8834 118.122C97.851 117.676 96.6516 115.271 97.2045 112.749C97.7574 110.228 99.8532 108.545 101.886 108.991C103.918 109.437 105.117 111.842 104.565 114.363C104.012 116.885 101.916 118.567 99.8834 118.122Z" fill="#FFFEFF"/>
<path d="M98.397 108.517C97.6512 108.353 97.2112 107.47 97.4143 106.544C97.6174 105.618 98.3866 105 99.1324 105.163C99.8783 105.327 100.318 106.21 100.115 107.136C99.9121 108.062 99.1429 108.681 98.397 108.517Z" fill="#FFFEFF"/>
<path d="M105.356 110.756C104.61 110.592 104.17 109.709 104.373 108.783C104.576 107.857 105.345 107.239 106.091 107.402C106.837 107.566 107.277 108.449 107.074 109.375C106.871 110.301 106.101 110.919 105.356 110.756Z" fill="#FFFEFF"/>
<path d="M102.359 108.344C101.53 108.162 101.041 107.182 101.266 106.154C101.491 105.126 102.346 104.441 103.175 104.622C104.003 104.804 104.492 105.784 104.267 106.812C104.042 107.84 103.187 108.525 102.359 108.344Z" fill="#FFFEFF"/>
</svg>
