<svg width="145" height="183" viewBox="0 0 145 183" fill="none" xmlns="http://www.w3.org/2000/svg">
<g opacity="0.25">
<path d="M87.6745 182.071C119.335 182.071 145 177.044 145 170.842C145 164.64 119.335 159.612 87.6745 159.612C56.0144 159.612 30.3489 164.64 30.3489 170.842C30.3489 177.044 56.0144 182.071 87.6745 182.071Z" fill="#650000"/>
</g>
<path d="M61.4619 129.292C61.4902 129.338 61.5241 129.388 61.558 129.439C65.2018 134.71 95.4034 155.054 118.696 137.433C127.051 130.897 131.87 121.338 133.526 111.581C136.299 95.2548 130.198 78.3744 116.961 74.2051C111.109 72.3634 103.522 74.5724 99.6235 82.0013C97.183 86.6507 96.9175 92.2154 97.0305 99.2432C97.2451 112.361 92.1889 120.491 84.9069 122.948C84.76 122.993 84.6131 123.044 84.4662 123.089C84.3928 123.112 84.3193 123.134 84.2402 123.151C84.2176 123.157 84.1894 123.168 84.1612 123.174C83.8448 123.264 83.5284 123.344 83.2064 123.411C83.1782 123.417 83.1499 123.423 83.1217 123.428C83.0652 123.44 83.0087 123.451 82.9465 123.462C82.9126 123.468 82.8787 123.473 82.8448 123.479C82.7262 123.502 82.6076 123.524 82.4889 123.541C82.3872 123.558 82.2912 123.569 82.1895 123.586C82.1782 123.586 82.1613 123.592 82.15 123.592C82.0652 123.603 81.9805 123.615 81.8957 123.626C81.8844 123.626 81.8732 123.626 81.8619 123.632C81.811 123.637 81.7602 123.643 81.7093 123.649C81.7037 123.649 81.698 123.649 81.6924 123.649C81.602 123.66 81.5116 123.666 81.4212 123.677C81.3365 123.682 81.2517 123.694 81.1613 123.699C81.1444 123.699 81.1331 123.699 81.1161 123.699C81.0257 123.705 80.9354 123.711 80.845 123.716C80.7602 123.722 80.6698 123.728 80.5851 123.728C80.5003 123.733 80.41 123.733 80.3196 123.733C80.2348 123.739 80.1444 123.739 80.0541 123.739C79.9637 123.739 79.8789 123.739 79.7885 123.739C79.7094 123.739 79.6303 123.739 79.5512 123.733C79.5399 123.733 79.5287 123.733 79.523 123.733C79.3535 123.733 79.1784 123.722 79.0033 123.711C78.9468 123.711 78.8903 123.705 78.8338 123.699C78.8112 123.699 78.7886 123.694 78.766 123.694C78.7547 123.694 78.749 123.694 78.7434 123.694C78.6586 123.688 78.5683 123.682 78.4835 123.671C78.4722 123.671 78.4609 123.671 78.4496 123.666C78.3705 123.66 78.2858 123.654 78.2067 123.643C78.1954 123.643 78.1841 123.643 78.1728 123.643C78.0316 123.632 77.8903 123.615 77.7491 123.598C77.7322 123.598 77.7096 123.592 77.6926 123.592C77.6813 123.592 77.6757 123.592 77.6644 123.586C77.574 123.575 77.4779 123.564 77.3875 123.547C77.3254 123.541 77.2632 123.53 77.1955 123.519C77.122 123.507 77.0486 123.496 76.9751 123.485L76.9469 123.479C76.8904 123.468 76.8282 123.457 76.7661 123.445C76.704 123.434 76.6418 123.423 76.574 123.411C76.4497 123.389 76.3255 123.366 76.2012 123.338C76.139 123.327 76.0825 123.315 76.0204 123.298C75.8904 123.27 75.7549 123.242 75.6249 123.208C75.6193 123.208 75.6136 123.208 75.6136 123.208C75.478 123.174 75.3368 123.14 75.2012 123.106C75.1334 123.089 75.0656 123.072 74.9978 123.05H74.9922C74.8058 122.999 74.625 122.948 74.4442 122.892C74.3595 122.869 74.2747 122.846 74.19 122.818C74.1504 122.807 74.1109 122.796 74.0713 122.784C73.9923 122.762 73.9132 122.733 73.8341 122.705C73.7606 122.683 73.6872 122.66 73.6137 122.632C73.6081 122.626 73.6024 122.626 73.5911 122.626C73.5516 122.615 73.5177 122.603 73.4782 122.587C73.3652 122.547 73.2465 122.507 73.1335 122.462C73.0658 122.434 72.9923 122.411 72.9245 122.383C72.9076 122.377 72.8906 122.372 72.8737 122.366C72.7042 122.304 72.5404 122.236 72.3709 122.174C72.2805 122.135 72.1901 122.101 72.0941 122.061C72.0432 122.039 71.9924 122.022 71.9415 121.993C71.8963 121.976 71.8511 121.954 71.8059 121.937C71.7043 121.892 71.6026 121.852 71.5009 121.801C71.3314 121.728 71.1619 121.649 70.9924 121.57C70.9811 121.564 70.9642 121.558 70.9529 121.547C70.7891 121.474 70.6252 121.394 70.467 121.315C70.4614 121.315 70.4614 121.31 70.4557 121.31C70.1168 121.14 69.7778 120.959 69.4332 120.773C69.4219 120.767 69.4162 120.762 69.405 120.756C69.0547 120.564 68.7044 120.361 68.3542 120.146L61.4619 129.292Z" fill="#FF8A42"/>
<path d="M61.5186 129.304C61.5468 129.349 61.5807 129.4 61.6146 129.451C63.7953 132.603 75.5008 141.167 89.5395 143.743C94.2003 144.597 99.1152 144.8 104.03 143.919C107.725 143.258 111.414 141.992 114.99 139.936C116.261 139.207 117.521 138.377 118.758 137.439C127.114 130.902 131.938 121.344 133.588 111.587C136.362 95.2604 130.26 78.38 117.024 74.2108C111.171 72.3691 103.584 74.578 99.6802 82.007C97.2396 86.6564 96.9741 92.221 97.0871 99.2489C97.1605 103.78 96.6069 107.712 95.5505 111.022C95.5166 111.118 95.4883 111.214 95.4544 111.31C95.4488 111.333 95.4431 111.356 95.4318 111.378C95.4205 111.412 95.4092 111.446 95.3979 111.474C95.3132 111.734 95.2228 111.988 95.1268 112.237C95.1268 112.242 95.1211 112.248 95.1211 112.254C95.0194 112.531 94.9121 112.796 94.7991 113.062C94.7934 113.067 94.7934 113.073 94.7878 113.084C94.7652 113.141 94.7426 113.192 94.72 113.248C94.6409 113.44 94.5562 113.627 94.4714 113.813C94.4149 113.943 94.3528 114.073 94.2907 114.197C94.2907 114.203 94.285 114.208 94.285 114.208C94.2229 114.338 94.1607 114.463 94.0986 114.587C94.0477 114.694 93.9912 114.802 93.9347 114.903C93.8839 114.999 93.8331 115.09 93.7822 115.186C93.737 115.265 93.6918 115.35 93.6466 115.429C93.5845 115.536 93.5223 115.649 93.4602 115.751C93.4037 115.852 93.3415 115.948 93.2794 116.05C93.206 116.169 93.1382 116.282 93.0647 116.395C93.0308 116.451 92.9969 116.508 92.9574 116.564C92.9009 116.649 92.8444 116.734 92.7879 116.813C92.7823 116.818 92.7823 116.824 92.7766 116.83C92.7145 116.926 92.6467 117.016 92.5845 117.112C92.4828 117.259 92.3755 117.406 92.2625 117.547C92.1043 117.756 91.9461 117.96 91.7823 118.157C91.7258 118.225 91.6693 118.293 91.6128 118.361C91.6128 118.366 91.6072 118.366 91.6015 118.372C91.5281 118.457 91.4547 118.542 91.3812 118.626C91.3756 118.632 91.3699 118.643 91.3643 118.649C91.336 118.683 91.3078 118.717 91.2739 118.745C91.2287 118.796 91.1891 118.841 91.1439 118.892C91.1044 118.943 91.0592 118.988 91.014 119.027C91.0084 119.033 91.0083 119.033 91.0027 119.039C90.9293 119.118 90.8558 119.191 90.7824 119.27C90.7033 119.349 90.6298 119.428 90.5451 119.502C90.4773 119.57 90.4039 119.638 90.3304 119.705C90.24 119.79 90.1553 119.869 90.0649 119.948C88.5396 121.31 86.8222 122.315 84.9522 122.948C84.8392 122.982 84.7319 123.022 84.6189 123.055C84.585 123.067 84.5511 123.078 84.5116 123.089C84.4381 123.112 84.3647 123.134 84.2856 123.151C84.2743 123.157 84.263 123.157 84.246 123.163C84.2347 123.168 84.2234 123.168 84.2065 123.174C84.1839 123.18 84.1613 123.185 84.1387 123.191C84.0257 123.225 83.9127 123.253 83.7941 123.281C83.7263 123.298 83.6642 123.315 83.5964 123.327C83.5286 123.344 83.4664 123.36 83.3986 123.372C83.3478 123.383 83.2969 123.394 83.2461 123.406C83.2179 123.411 83.1896 123.417 83.1614 123.423C83.1049 123.434 83.0427 123.445 82.9862 123.456C82.9523 123.462 82.9184 123.468 82.8902 123.473C82.8676 123.479 82.8393 123.485 82.8167 123.485C82.7377 123.502 82.6529 123.513 82.5738 123.524C82.5625 123.53 82.5456 123.53 82.5286 123.53C82.4834 123.536 82.4439 123.547 82.3987 123.553C82.3591 123.558 82.3139 123.564 82.2744 123.569C82.2631 123.575 82.2462 123.575 82.2349 123.575C82.2236 123.575 82.2066 123.581 82.1897 123.581C82.1049 123.592 82.0202 123.603 81.9354 123.615C81.8789 123.62 81.8168 123.632 81.7603 123.637C81.7264 123.637 81.6925 123.643 81.6586 123.649C81.5965 123.654 81.5343 123.66 81.4665 123.666C81.3818 123.677 81.2914 123.682 81.201 123.688C81.1558 123.694 81.1163 123.694 81.0711 123.694C80.9863 123.699 80.9016 123.705 80.8169 123.711C80.7604 123.716 80.6982 123.716 80.6417 123.716C80.6361 123.716 80.6248 123.716 80.6191 123.716C80.6135 123.716 80.6022 123.716 80.5965 123.716C80.5457 123.722 80.4892 123.722 80.4327 123.722C80.4045 123.722 80.3819 123.722 80.3593 123.722C80.2745 123.728 80.1954 123.728 80.1163 123.728C80.1107 123.728 80.0994 123.728 80.0881 123.728C79.9977 123.728 79.913 123.728 79.8339 123.728C79.8113 123.728 79.7887 123.728 79.7661 123.728C79.7152 123.728 79.67 123.728 79.6192 123.722C79.6135 123.722 79.6022 123.722 79.5966 123.722H79.5683H79.5627C79.3932 123.722 79.2237 123.711 79.0486 123.699C78.9921 123.694 78.9356 123.694 78.8791 123.688C78.8565 123.688 78.8339 123.682 78.8113 123.682C78.8057 123.682 78.8 123.682 78.7944 123.682C78.7492 123.677 78.704 123.677 78.6531 123.671C78.6249 123.671 78.5967 123.666 78.5684 123.666C78.5402 123.666 78.5119 123.66 78.4837 123.66C78.3933 123.654 78.3029 123.643 78.2068 123.632C78.0713 123.62 77.93 123.603 77.7831 123.586C77.7549 123.581 77.7266 123.581 77.6928 123.575C77.6024 123.564 77.5176 123.553 77.4329 123.541H77.4216C77.0826 123.496 76.7437 123.434 76.4047 123.366C76.3482 123.355 76.2917 123.344 76.2352 123.332C76.207 123.327 76.1731 123.321 76.1448 123.315C76.1166 123.31 76.0827 123.304 76.0544 123.293C75.9245 123.264 75.7889 123.236 75.659 123.202C75.659 123.202 75.659 123.202 75.6533 123.202C75.5742 123.185 75.5008 123.163 75.4217 123.14C75.4047 123.134 75.3878 123.129 75.3652 123.129C75.2861 123.112 75.207 123.089 75.1279 123.067C75.0997 123.061 75.0714 123.05 75.0432 123.044C75.0319 123.044 75.0206 123.038 75.0093 123.033C74.9189 123.01 74.8342 122.988 74.7438 122.959C74.7042 122.948 74.6647 122.937 74.6251 122.925C74.6195 122.925 74.6195 122.925 74.6138 122.92C74.4444 122.869 74.2692 122.818 74.0941 122.762C73.9585 122.716 73.8173 122.671 73.6704 122.62C73.6534 122.615 73.6365 122.609 73.6195 122.603C73.6026 122.598 73.58 122.592 73.563 122.586C73.5461 122.581 73.5235 122.575 73.5066 122.57C73.4727 122.558 73.4331 122.547 73.3992 122.536C73.3258 122.513 73.2523 122.485 73.1789 122.457C73.1732 122.457 73.1676 122.451 73.1563 122.451C73.0885 122.428 73.0151 122.4 72.9473 122.372C72.936 122.372 72.9303 122.366 72.9247 122.366C72.9134 122.361 72.9077 122.361 72.8964 122.355C72.7269 122.293 72.5631 122.225 72.3993 122.163C72.3089 122.129 72.2185 122.089 72.1225 122.05C72.0716 122.027 72.0208 122.01 71.9699 121.988C71.8795 121.948 71.7891 121.914 71.6931 121.869C71.6874 121.869 71.6818 121.863 71.6818 121.863C71.631 121.841 71.5801 121.818 71.5293 121.796C71.518 121.79 71.501 121.784 71.4897 121.779C71.4841 121.779 71.4841 121.773 71.4784 121.773C71.4671 121.767 71.4558 121.762 71.4445 121.762C71.388 121.733 71.3259 121.711 71.2694 121.683C71.2186 121.66 71.1677 121.637 71.1225 121.615C71.0886 121.598 71.0491 121.581 71.0152 121.564C71.0039 121.558 70.9926 121.553 70.9756 121.541C70.8118 121.468 70.648 121.383 70.4785 121.304C70.1395 121.135 69.8006 120.954 69.4559 120.767C69.4446 120.762 69.439 120.756 69.4277 120.75C69.1678 120.609 68.908 120.457 68.6424 120.304C68.6368 120.304 68.6368 120.304 68.6368 120.298C68.552 120.248 68.4617 120.191 68.3769 120.14L68.3091 120.231L61.5186 129.304Z" fill="#FF8A42"/>
<path d="M133.565 111.355C133.554 111.429 133.543 111.508 133.526 111.587C133.543 111.514 133.554 111.44 133.565 111.367C133.565 111.361 133.565 111.355 133.565 111.355Z" fill="#EA5A1B"/>
<path d="M61.5579 129.439C65.2017 134.71 95.4033 155.053 118.696 137.433C127.051 130.897 131.87 121.338 133.525 111.581C132.429 117.615 122.142 138.987 100.584 140.1C92.477 140.518 92.5504 124.999 84.9068 122.948C84.822 122.976 84.7373 123.005 84.6526 123.033C84.5904 123.05 84.5339 123.072 84.4718 123.089C84.3983 123.112 84.3249 123.134 84.2458 123.151C84.2232 123.157 84.195 123.168 84.1667 123.174C83.8955 123.247 83.6187 123.321 83.3419 123.377C83.2967 123.389 83.2515 123.4 83.212 123.406C83.1837 123.411 83.1555 123.417 83.1272 123.423C83.0764 123.434 83.0199 123.445 82.969 123.451C82.9634 123.456 82.9577 123.456 82.9577 123.456C82.9521 123.456 82.9464 123.456 82.9408 123.456C82.9125 123.462 82.8843 123.468 82.856 123.473C82.8278 123.479 82.7996 123.485 82.7657 123.49C82.6753 123.507 82.5849 123.524 82.4945 123.536C82.3928 123.553 82.2968 123.564 82.1951 123.581C82.1838 123.581 82.1668 123.586 82.1555 123.586C82.0708 123.598 81.986 123.609 81.9013 123.62C81.89 123.62 81.8787 123.62 81.8674 123.626C81.8166 123.632 81.7657 123.637 81.7149 123.643C81.7092 123.643 81.7036 123.643 81.6979 123.643C81.6414 123.649 81.5849 123.654 81.5228 123.66C81.4889 123.666 81.4606 123.665 81.4268 123.665C81.342 123.671 81.2573 123.682 81.1669 123.688C81.1499 123.688 81.1386 123.688 81.1217 123.688C81.0934 123.688 81.0652 123.694 81.0426 123.694C80.9805 123.699 80.9127 123.705 80.8505 123.705C80.7658 123.711 80.6754 123.716 80.5907 123.716C80.5003 123.722 80.4155 123.722 80.3251 123.722C80.2347 123.722 80.15 123.728 80.0596 123.728C79.9692 123.728 79.8845 123.728 79.7941 123.728C79.715 123.728 79.6359 123.728 79.5568 123.722C79.5455 123.722 79.5342 123.722 79.5286 123.722C79.3591 123.722 79.184 123.711 79.0088 123.699C78.9523 123.699 78.8958 123.694 78.8393 123.688C78.8167 123.688 78.7941 123.682 78.7715 123.682C78.7602 123.682 78.7546 123.682 78.7489 123.682C78.6642 123.677 78.5795 123.671 78.4891 123.66C78.4778 123.66 78.4665 123.66 78.4552 123.654C78.3761 123.649 78.2913 123.643 78.2123 123.632C78.201 123.632 78.1897 123.632 78.1784 123.632C78.0371 123.62 77.8959 123.603 77.7547 123.586C77.7377 123.586 77.7151 123.581 77.6982 123.581C77.6869 123.581 77.6812 123.581 77.6699 123.575C77.5795 123.564 77.4835 123.553 77.3931 123.536C77.331 123.53 77.2688 123.519 77.201 123.507C77.1276 123.496 77.0541 123.485 76.9807 123.473L76.9524 123.468C76.8959 123.456 76.8338 123.445 76.7717 123.434L76.6982 123.423C76.6587 123.417 76.6248 123.411 76.5852 123.406L76.5174 123.394C76.4158 123.372 76.3141 123.355 76.2067 123.332C76.1446 123.321 76.0881 123.31 76.0259 123.293C75.896 123.264 75.7604 123.236 75.6305 123.202C75.6248 123.202 75.6192 123.202 75.6192 123.202C75.4836 123.168 75.3424 123.134 75.2068 123.101C75.139 123.084 75.0712 123.067 75.0034 123.044H74.9978C74.8113 122.993 74.6305 122.942 74.4498 122.886C74.365 122.863 74.2803 122.835 74.1955 122.812C74.156 122.801 74.1165 122.79 74.0769 122.779C73.9978 122.756 73.9187 122.728 73.8396 122.699C73.7662 122.677 73.6927 122.654 73.6193 122.626C73.6137 122.62 73.608 122.62 73.5967 122.62C73.5572 122.609 73.5233 122.598 73.4837 122.581C73.3707 122.541 73.2521 122.502 73.1391 122.457C73.0713 122.434 72.9979 122.406 72.9301 122.377C72.9131 122.372 72.8962 122.366 72.8792 122.36C72.7945 122.332 72.7154 122.298 72.6307 122.264C72.5459 122.231 72.4668 122.197 72.3821 122.163C72.2917 122.123 72.2013 122.089 72.1053 122.05C72.0544 122.027 72.0036 122.005 71.9527 121.982C71.9075 121.965 71.8623 121.942 71.8172 121.925C71.772 121.909 71.7268 121.886 71.6816 121.869C71.6251 121.846 71.5686 121.824 71.5121 121.796C71.3426 121.722 71.1731 121.643 71.0036 121.564C70.9923 121.558 70.9754 121.553 70.9641 121.541C70.8003 121.468 70.6364 121.389 70.4782 121.31C70.4726 121.31 70.4726 121.304 70.4669 121.304C70.3201 121.231 70.1675 121.152 70.015 121.072C69.9585 121.044 69.902 121.01 69.8399 120.982C69.7099 120.909 69.5743 120.841 69.4444 120.767C69.4331 120.762 69.4275 120.756 69.4162 120.75C69.0659 120.558 68.71 120.355 68.3654 120.146L61.5579 129.439Z" fill="#EA5A1B"/>
<path d="M124.905 127.485C124.961 128.739 124.933 130.038 124.825 131.371C124.967 131.196 125.108 131.021 125.243 130.84C125.379 130.665 125.515 130.49 125.645 130.315C125.695 130.253 125.746 130.185 125.791 130.117C125.984 129.857 126.17 129.603 126.351 129.343C127.187 128.157 127.95 126.931 128.644 125.671C128.774 125.434 128.904 125.197 129.029 124.959C129.051 124.914 129.079 124.863 129.108 124.812C129.39 124.276 129.661 123.733 129.916 123.185C130.051 122.897 130.181 122.609 130.311 122.327C130.554 121.767 130.791 121.208 131.017 120.643C131.045 120.575 131.074 120.508 131.096 120.44C131.305 119.903 131.497 119.366 131.684 118.824C131.836 118.378 131.983 117.937 132.124 117.485C132.26 117.039 132.396 116.587 132.52 116.141C132.684 115.542 132.842 114.937 132.977 114.327C133.107 113.756 133.232 113.192 133.339 112.621C133.356 112.548 133.367 112.468 133.379 112.395C133.39 112.35 133.396 112.305 133.407 112.254C133.441 112.084 133.469 111.909 133.497 111.74C133.469 111.887 133.429 112.05 133.39 112.214C132.616 115.429 129.853 121.7 124.905 127.485Z" fill="#8E381A"/>
<path d="M90.0762 119.965C100.047 124.355 103.211 132.659 103.883 139.998C103.889 140.054 103.895 140.105 103.9 140.156C103.917 140.393 103.94 140.636 103.951 140.868C103.962 141.026 103.974 141.19 103.979 141.348C103.985 141.484 103.996 141.625 104.002 141.761C104.008 141.902 104.013 142.049 104.019 142.19C104.025 142.331 104.025 142.467 104.03 142.608C104.03 142.681 104.03 142.749 104.03 142.823C104.03 142.953 104.036 143.077 104.036 143.201C104.036 143.28 104.036 143.359 104.036 143.433C104.036 143.597 104.036 143.76 104.03 143.924C107.725 143.263 111.414 141.998 114.99 139.941C115.052 139.636 115.109 139.326 115.159 139.004C115.188 138.862 115.21 138.715 115.233 138.574C115.239 138.552 115.244 138.529 115.244 138.501C115.267 138.365 115.284 138.224 115.306 138.088C115.38 137.597 115.436 137.1 115.487 136.586C116.159 129.795 114.99 121.338 108.448 115.643C105.318 112.915 100.087 111.655 95.5561 111.034C95.5278 111.13 95.4939 111.226 95.46 111.322C95.4544 111.344 95.4487 111.367 95.4374 111.389C95.4261 111.423 95.4148 111.457 95.4035 111.485C95.3188 111.745 95.2284 112 95.1324 112.248C95.1324 112.254 95.1267 112.259 95.1267 112.265C95.025 112.542 94.9177 112.807 94.8047 113.073C94.7991 113.079 94.7991 113.084 94.7934 113.096C94.7708 113.152 94.7482 113.203 94.7256 113.259C94.6465 113.451 94.5618 113.638 94.477 113.824C94.4205 113.954 94.3584 114.084 94.2963 114.208C94.2963 114.214 94.2906 114.22 94.2906 114.22C94.2285 114.35 94.1663 114.474 94.1042 114.598C94.0533 114.706 93.9968 114.813 93.9403 114.915C93.8895 115.011 93.8387 115.107 93.7878 115.197C93.7426 115.276 93.6974 115.361 93.6522 115.44C93.5901 115.547 93.5279 115.66 93.4658 115.762C93.4093 115.864 93.3472 115.96 93.285 116.061C93.2116 116.18 93.1438 116.293 93.0703 116.406C93.0365 116.463 93.0026 116.519 92.963 116.576C92.9517 116.592 92.9404 116.609 92.9348 116.626C92.8896 116.694 92.8444 116.762 92.7992 116.83C92.7935 116.835 92.7935 116.841 92.7879 116.847C92.7257 116.943 92.6579 117.033 92.5958 117.129C92.4941 117.276 92.3868 117.423 92.2738 117.564C92.1156 117.773 91.9574 117.977 91.7936 118.174C91.7371 118.242 91.6806 118.31 91.6241 118.378C91.6241 118.383 91.6185 118.383 91.6128 118.389C91.5394 118.474 91.4659 118.558 91.3925 118.643C91.3868 118.649 91.3812 118.66 91.3755 118.666C91.3473 118.7 91.319 118.734 91.2851 118.762C91.2399 118.813 91.1948 118.858 91.1552 118.909C91.1157 118.96 91.0705 119.005 91.0253 119.044C91.0196 119.05 91.0196 119.05 91.014 119.056C90.9405 119.135 90.8671 119.208 90.7936 119.287C90.7145 119.366 90.6411 119.445 90.5564 119.519C90.4886 119.587 90.4151 119.654 90.3417 119.722C90.2569 119.801 90.1666 119.886 90.0762 119.965Z" fill="#9B4635"/>
<path d="M124.825 131.371C129.333 125.773 132.153 119.073 133.407 112.248C131.147 105.983 123.91 95.4016 110.035 95.6163C105.939 95.6785 101.013 97.2659 97.0246 99.3901C97.0642 102.328 96.8382 105.017 96.3806 107.44C112.397 102.096 126.294 113.135 124.825 131.371Z" fill="#9B4635"/>
<path d="M103.866 139.789C103.872 139.857 103.883 139.93 103.883 139.998C103.889 140.054 103.894 140.105 103.9 140.156C103.923 140.393 103.94 140.636 103.951 140.868C103.962 141.026 103.974 141.19 103.979 141.348C103.99 141.489 103.996 141.625 104.002 141.761C104.007 141.902 104.013 142.049 104.019 142.19C104.024 142.331 104.03 142.467 104.03 142.608C104.03 142.681 104.03 142.749 104.03 142.823C104.036 142.947 104.036 143.077 104.036 143.201C104.036 143.28 104.036 143.359 104.036 143.433C104.036 143.597 104.036 143.76 104.03 143.924C107.725 143.263 111.414 141.998 114.99 139.941C115.052 139.636 115.108 139.326 115.159 139.004C115.188 138.862 115.21 138.716 115.233 138.574C115.238 138.552 115.244 138.529 115.244 138.501C115.267 138.365 115.284 138.224 115.306 138.088C115.374 137.597 115.436 137.094 115.487 136.586C115.521 136.247 115.549 135.896 115.572 135.552C112.182 137.586 108.284 139.117 103.866 139.789Z" fill="#873A2D"/>
<path d="M124.825 131.371C124.967 131.196 125.108 131.021 125.243 130.84C125.379 130.665 125.515 130.49 125.645 130.315C125.695 130.253 125.746 130.185 125.791 130.117C125.984 129.857 126.17 129.603 126.351 129.343C127.187 128.157 127.95 126.931 128.644 125.671C128.774 125.434 128.904 125.197 129.029 124.959C129.051 124.914 129.079 124.863 129.108 124.812C129.39 124.276 129.661 123.733 129.916 123.185C130.051 122.897 130.181 122.609 130.311 122.327C130.56 121.767 130.791 121.208 131.017 120.643C131.045 120.575 131.074 120.508 131.096 120.44C131.305 119.903 131.503 119.366 131.684 118.824C131.836 118.378 131.983 117.931 132.124 117.485C132.266 117.039 132.396 116.587 132.52 116.141C132.689 115.536 132.842 114.932 132.977 114.327C133.107 113.756 133.232 113.192 133.339 112.621C133.356 112.548 133.367 112.468 133.379 112.395C133.39 112.35 133.396 112.305 133.407 112.254L133.39 112.214C132.616 115.44 129.853 121.711 124.905 127.496C124.961 128.739 124.938 130.038 124.825 131.371Z" fill="#873A2D"/>
<path d="M61.6204 129.451C63.8067 132.609 75.5066 141.167 89.5453 143.749C92.4095 139.196 89.7261 128.914 84.6416 123.078C84.5964 123.089 84.5569 123.106 84.5117 123.118C84.4439 123.14 84.3761 123.157 84.3083 123.18C84.297 123.185 84.2857 123.185 84.2687 123.191C84.2349 123.197 84.201 123.208 84.1671 123.219C84.0541 123.253 83.9411 123.281 83.8225 123.31C83.7547 123.327 83.6925 123.344 83.6247 123.355C83.5626 123.372 83.4948 123.383 83.427 123.4C83.2971 123.428 83.1615 123.451 83.0315 123.479C82.992 123.49 82.9581 123.496 82.9186 123.502C82.896 123.507 82.8677 123.513 82.8451 123.513C82.8056 123.519 82.766 123.524 82.7208 123.53C82.6813 123.536 82.6417 123.547 82.6022 123.553C82.5909 123.558 82.5739 123.558 82.557 123.558C82.5118 123.564 82.4723 123.575 82.4271 123.581C82.3875 123.586 82.3423 123.592 82.3028 123.598C82.2745 123.603 82.2463 123.603 82.218 123.609C82.1333 123.62 82.0485 123.632 81.9638 123.643C81.9073 123.649 81.8452 123.66 81.7887 123.666C81.7548 123.666 81.7209 123.671 81.687 123.677C81.6531 123.683 81.6192 123.683 81.5853 123.688C81.557 123.694 81.5232 123.694 81.4949 123.694C81.4102 123.705 81.3198 123.711 81.2294 123.716C81.1842 123.722 81.1446 123.722 81.0995 123.722C81.0147 123.728 80.93 123.733 80.8452 123.739C80.7887 123.745 80.7266 123.745 80.6701 123.745C80.6644 123.745 80.6531 123.745 80.6475 123.745C80.6418 123.745 80.6305 123.745 80.6249 123.745C80.5684 123.745 80.5119 123.75 80.4611 123.75C80.3537 123.756 80.2464 123.756 80.1391 123.756C80.1334 123.756 80.1221 123.756 80.1108 123.756C80.0035 123.756 79.8961 123.756 79.7831 123.756C79.7323 123.756 79.6871 123.756 79.6363 123.75C79.6306 123.75 79.6193 123.75 79.6137 123.75C79.6024 123.75 79.5967 123.75 79.5854 123.75H79.5798C79.4103 123.75 79.2408 123.739 79.0657 123.728C79.0092 123.722 78.9527 123.722 78.8962 123.716C78.8227 123.716 78.7493 123.705 78.6759 123.699C78.6476 123.699 78.6194 123.694 78.5911 123.694C78.5629 123.694 78.5346 123.688 78.5064 123.688C78.416 123.683 78.3256 123.671 78.2296 123.66C78.094 123.649 77.9527 123.632 77.8059 123.615C77.7776 123.609 77.7494 123.609 77.7155 123.603C77.6307 123.592 77.5403 123.581 77.4556 123.57H77.4443C77.1053 123.524 76.7664 123.462 76.4274 123.394C76.3427 123.377 76.2523 123.36 76.1675 123.344C76.1393 123.338 76.1054 123.332 76.0771 123.321C76.0037 123.304 75.9359 123.293 75.8625 123.276C75.8003 123.264 75.7438 123.248 75.6817 123.236C75.6026 123.219 75.5291 123.197 75.4501 123.174C75.4331 123.168 75.4162 123.163 75.3936 123.163C75.3145 123.146 75.2354 123.123 75.1563 123.101C75.128 123.095 75.0998 123.084 75.0716 123.078C75.0603 123.078 75.049 123.072 75.0377 123.067C74.9473 123.044 74.8625 123.022 74.7721 122.993C74.7495 122.988 74.7326 122.982 74.71 122.976C74.693 122.971 74.6761 122.965 74.6535 122.959C74.6478 122.959 74.6478 122.959 74.6422 122.954C74.4727 122.903 74.2976 122.852 74.1225 122.796C73.9869 122.75 73.8456 122.705 73.6987 122.654C73.6818 122.649 73.6648 122.643 73.6479 122.637C73.631 122.632 73.6084 122.626 73.5914 122.62C73.5349 122.603 73.4841 122.587 73.4276 122.564C73.3937 122.553 73.3654 122.541 73.3315 122.53C73.292 122.519 73.2468 122.502 73.2073 122.485C73.2016 122.485 73.196 122.479 73.1847 122.479C73.1056 122.451 73.0321 122.423 72.953 122.394C72.9417 122.389 72.9361 122.389 72.9248 122.383C72.761 122.321 72.5915 122.259 72.4276 122.191C72.3372 122.157 72.2469 122.118 72.1508 122.078C72.1 122.055 72.0491 122.033 71.9983 122.016C71.9079 121.976 71.8175 121.942 71.7215 121.897C71.7158 121.897 71.7102 121.892 71.7102 121.892C71.648 121.863 71.5802 121.835 71.5237 121.807C71.5181 121.807 71.5181 121.801 71.5124 121.801C71.5011 121.796 71.4898 121.79 71.4785 121.79C71.422 121.762 71.3599 121.739 71.3034 121.711C71.2526 121.688 71.2017 121.666 71.1565 121.643C71.1057 121.62 71.0605 121.598 71.0096 121.575C70.8458 121.502 70.682 121.417 70.5125 121.338C70.3035 121.236 70.1001 121.129 69.8854 121.016C69.7555 120.943 69.6199 120.875 69.49 120.801C69.4787 120.796 69.473 120.79 69.4617 120.784C69.1962 120.643 68.9363 120.496 68.6764 120.338C68.6708 120.338 68.6708 120.338 68.6708 120.332C68.5861 120.282 68.4957 120.231 68.4053 120.174L68.3375 120.265L61.6204 129.451Z" fill="#873A2D"/>
<g opacity="0.3">
<path d="M112.194 93.6786C114.335 101.537 108.708 115.48 102.341 114.361C97.1832 113.457 101.239 107.503 100.584 97.9552C99.8949 87.871 110.052 85.8203 112.194 93.6786Z" fill="white"/>
</g>
<path d="M97.573 88.3512C111.301 81.5098 127.718 86.5604 133.803 97.9778C132.311 86.7694 126.481 77.205 116.962 74.2051C111.109 72.3634 103.522 74.5724 99.6237 82.0013C98.6068 83.9447 97.9628 86.0519 97.573 88.3512Z" fill="#9B4635"/>
<path d="M97.4826 145.308C94.8669 145.308 92.1665 145.054 89.387 144.546C75.0093 141.919 62.8066 132.97 60.7672 129.727C60.5243 129.343 60.6429 128.84 61.0214 128.597C61.4056 128.354 61.9084 128.473 62.1513 128.852C64.0212 131.823 75.981 140.433 89.6808 142.936C100.578 144.924 110.171 142.851 118.205 136.778C131.424 126.434 135.011 108.938 132.695 96.1869C130.746 85.4474 124.775 77.5213 116.719 74.9847C111.555 73.3577 104.234 74.9791 100.347 82.3798C98.0984 86.6676 97.7255 91.8029 97.8498 99.2262C98.0306 110.271 94.4036 118.751 87.9012 122.49C82.2914 125.716 75.0149 125.117 67.9419 120.846C67.5578 120.615 67.4335 120.112 67.6651 119.722C67.8967 119.338 68.3995 119.214 68.7893 119.445C75.337 123.4 82.0089 123.993 87.0877 121.072C93.0591 117.638 96.3866 109.683 96.2171 99.2545C96.0928 91.5657 96.4939 86.2157 98.9062 81.6171C103.228 73.3859 111.425 71.5951 117.216 73.4198C121.718 74.8378 125.532 77.6625 128.56 81.8092C131.345 85.6338 133.339 90.5036 134.317 95.8874C135.644 103.203 135.057 111.231 132.673 118.485C130.051 126.456 125.396 133.23 119.216 138.066C112.838 142.89 105.561 145.308 97.4826 145.308Z" fill="#650000"/>
<path d="M85.8281 136.879C87.7489 133.936 91.9521 132.241 95.3191 133.654C99.2454 135.303 101.251 141.687 101.776 143.845C103.816 152.195 101.206 156.618 95.5733 157.138C89.4098 157.861 88.5511 152.777 88.1896 150.308L85.8281 136.879Z" fill="#9B4635"/>
<path d="M94.4373 155.556C92.2115 155.556 91.0816 154.522 90.4376 152.731C90.1607 151.968 91.2115 152.771 91.2115 152.771C91.4319 153.059 101.041 155.844 100.183 144.229C101.188 148.336 101.008 151.5 99.6743 153.37C98.7987 154.595 97.3694 155.307 95.4316 155.488L95.3921 155.494C95.0531 155.533 94.7368 155.556 94.4373 155.556Z" fill="#873A2D"/>
<path d="M94.3924 158.025C88.4944 158.025 87.6978 152.562 87.3871 150.421L89.0085 150.183C89.5226 153.703 90.6638 156.884 95.4827 156.319C97.6916 156.115 99.3243 155.29 100.347 153.856C101.827 151.782 102.047 148.387 100.985 144.031C100.787 143.218 98.9345 136.049 95.0025 134.399C92.1552 133.201 88.3419 134.512 86.5115 137.32L85.1387 136.427C87.3815 132.992 92.0874 131.405 95.6352 132.891C100.211 134.811 102.217 142.184 102.573 143.641C103.77 148.539 103.465 152.291 101.674 154.805C100.364 156.641 98.3356 157.697 95.6522 157.946C95.2059 158.002 94.7878 158.025 94.3924 158.025Z" fill="#650000"/>
<path d="M91.0423 151.246C91.2852 153.726 92.7145 156.731 95.6296 156.308V157.946C92.0705 157.709 90.7485 154.387 91.0423 151.246Z" fill="#650000"/>
<path d="M94.4094 150.438C94.9744 152.636 96.5054 155.856 99.234 155.11L99.4713 156.731C95.9517 157.003 94.5224 153.364 94.4094 150.438Z" fill="#650000"/>
<path d="M57.4678 82.9446L55.1798 86.4472L49.4061 95.2941L44.6945 102.514C44.6945 102.514 18.809 66.6743 15.4815 64.6801C11.6343 63.9626 3.41446 67.533 1.1773 62.7932C0.911783 62.2283 0.798795 61.5673 0.810094 60.8668C0.832691 59.5279 1.31289 58.0364 2.03601 56.7427C2.36367 56.1552 2.74218 55.6072 3.15459 55.1383C3.67433 54.5395 4.27882 54.0084 4.93979 53.5339C8.27293 51.1272 13.0975 50.1894 16.521 49.7149C15.8883 48.0653 15.2273 45.427 17.1764 44.2858C20.1931 42.4893 22.1252 46.5286 26.2888 50.1668C31.2829 54.5282 37.3955 60.7877 42.8754 66.6687C50.8354 75.1993 57.4678 82.9446 57.4678 82.9446Z" fill="#FF8A42"/>
<path d="M57.4678 82.9443L55.1798 86.4469L49.4061 95.2938L44.6945 102.514C44.6945 102.514 18.809 66.6741 15.4872 64.6798C15.4646 64.6742 15.442 64.6742 15.4194 64.6685C11.5439 64.0019 3.40878 67.4989 1.18292 62.7929C0.917398 62.228 0.80441 61.5727 0.815709 60.8665C0.838307 59.5276 1.31851 58.0361 2.04163 56.7424C2.36929 56.1549 2.7478 55.6069 3.1602 55.1324C3.67995 54.5392 4.28443 54.0025 4.94541 53.5279C8.27855 51.1269 13.1031 50.1835 16.5267 49.7089C15.8939 48.065 15.2329 45.4154 17.182 44.2799C19.9954 42.602 21.8653 46.0142 25.4866 49.4265C25.7464 49.6694 26.012 49.918 26.2888 50.1552C31.2829 54.5166 37.3955 60.7761 42.881 66.6571C50.8354 75.199 57.4678 82.9443 57.4678 82.9443Z" fill="#FF8A42"/>
<g opacity="0.4">
<path d="M57.4677 82.9447L56.7276 84.0802C56.1457 83.4023 49.7675 75.9847 42.1917 67.8495C36.7062 61.9685 30.5992 55.7034 25.5995 51.3477C21.4359 47.7151 19.5038 43.6758 16.4926 45.4667C16.3119 45.574 16.148 45.6926 16.0125 45.8226C16.1819 45.2012 16.5378 44.6588 17.1875 44.2803C20.2043 42.4838 22.1364 46.5231 26.3 50.1613C31.294 54.5226 37.4067 60.7822 42.8866 66.6632C50.8353 75.1994 57.4677 82.9447 57.4677 82.9447Z" fill="white"/>
</g>
<path d="M49.4061 95.2941L44.6945 102.514C44.6945 102.514 18.809 66.6743 15.4816 64.6801C11.6343 63.9626 3.41446 67.533 1.1773 62.7932C0.911783 62.2282 0.798795 61.5673 0.810094 60.8667C1.57841 61.7819 3.01336 62.7875 5.64032 62.9853C10.0186 63.3129 14.9675 60.008 18.7017 63.5502C21.6902 66.3805 42.2145 95.7234 47.4853 92.6219C49.1067 91.6672 49.5643 92.9948 49.4061 95.2941Z" fill="#EA5A1B"/>
<path d="M18.4248 63.2961C17.4362 63.8554 16.4193 64.313 15.4194 64.6689C15.1539 64.6181 14.8714 64.5955 14.572 64.5842C14.5663 64.5842 14.5607 64.5842 14.555 64.5842C14.25 64.5729 13.9279 64.5785 13.5946 64.5955C12.702 64.6407 11.719 64.7706 10.7021 64.9005C10.6174 64.9118 10.5327 64.9231 10.4479 64.9344C10.2784 64.957 10.109 64.9796 9.93382 65.0022C9.07512 65.1152 8.19946 65.2169 7.3577 65.2621C7.18822 65.2734 7.01874 65.279 6.85491 65.2847C4.38612 65.3638 2.18851 64.9062 1.18292 62.7877C0.917398 62.2227 0.80441 61.5674 0.815709 60.8612C1.58403 61.7764 3.01897 62.782 5.64594 62.9797C9.91687 63.2961 14.7245 60.1664 18.4248 63.2961Z" fill="#FFE4D2"/>
<path d="M15.4194 64.6685C11.5439 64.0019 3.40878 67.4989 1.18292 62.7929C0.917398 62.228 0.80441 61.5727 0.815709 60.8665C0.838307 59.5276 1.31851 58.0361 2.04163 56.7424C2.36929 56.1549 2.7478 55.6069 3.1602 55.1324C3.67995 54.5392 4.28443 54.0025 4.94541 53.5279C8.27855 51.1269 13.1031 50.1835 16.5267 49.7089C15.8939 48.065 15.2329 45.4154 17.182 44.2799C19.9954 42.602 21.8653 46.0142 25.4866 49.4265C27.8028 56.6294 21.3738 62.5782 15.4194 64.6685Z" fill="#9B4635"/>
<path d="M18.4248 63.2961C17.4362 63.8554 16.4193 64.313 15.4194 64.6689C15.1539 64.6237 14.8714 64.5955 14.572 64.5842C14.5663 64.5842 14.5607 64.5842 14.555 64.5842C14.25 64.5785 13.9279 64.5785 13.5946 64.5955C12.702 64.6407 11.719 64.7706 10.7021 64.9005C10.6174 64.9118 10.5327 64.9231 10.4479 64.9344C10.2784 64.957 10.109 64.9796 9.93382 65.0022C9.07512 65.1152 8.19946 65.2169 7.3577 65.2621C7.18822 65.2734 7.01874 65.279 6.85491 65.2847C4.38612 65.3638 2.18851 64.9062 1.18292 62.7877C0.917398 62.2227 0.80441 61.5674 0.815709 60.8612C1.58403 61.7764 3.01897 62.782 5.64594 62.9797C9.91687 63.2961 14.7245 60.1664 18.4248 63.2961Z" fill="#873A2D"/>
<path d="M57.4676 82.9447L55.1796 86.4473C47.214 82.9729 41.5872 76.753 38.6156 71.5612L35.9321 65.9852L42.8809 66.6632C50.8352 75.1994 57.4676 82.9447 57.4676 82.9447Z" fill="#EA5A1B"/>
<path d="M11.9225 51.8844C8.15441 53.1103 7.95668 56.2174 10.561 56.8332C13.2841 57.4773 18.4193 55.3587 18.0747 52.8561C17.8544 51.246 15.0297 50.8731 11.9225 51.8844Z" fill="white"/>
<path d="M4.75895 56.8614C2.86076 57.5393 2.43141 59.5562 3.81551 60.0138C5.38604 60.5279 7.91131 58.8782 7.45936 57.3134C7.30683 56.7767 6.24474 56.3247 4.75895 56.8614Z" fill="white"/>
<path d="M3.55002 55.9063C3.42574 55.4092 3.79859 55.0815 3.79859 55.0815L6.064 53.2906C6.064 53.2906 6.68543 53.0421 6.87751 53.5053C7.53849 55.121 4.30704 56.6181 3.55002 55.9063Z" fill="white"/>
<path d="M44.0336 102.994C33.8252 88.8536 17.8826 67.4312 15.1822 65.4595C14.041 65.29 12.4253 65.5047 10.7192 65.7307C6.92277 66.2335 2.19989 66.8549 0.442929 63.1433C-0.732143 60.6575 0.58981 56.8442 2.5445 54.6014C4.93984 51.8502 9.15993 50.0311 15.4364 49.0481C14.4591 45.7771 15.5889 44.2687 16.7753 43.5738C19.4927 41.9581 21.4925 44.0822 23.8088 46.5397C24.6901 47.4719 25.6844 48.534 26.8369 49.5396C38.9774 60.1378 57.9028 82.1874 58.0949 82.4077L56.8521 83.4698C56.6656 83.2494 37.8136 61.2846 25.7635 50.7655C24.5489 49.7034 23.5207 48.6131 22.6168 47.6527C20.0858 44.9636 19.069 44.0992 17.6058 44.9749C16.2386 45.7714 16.6849 47.8278 17.295 49.4096C17.3854 49.6412 17.3628 49.9068 17.2386 50.1214C17.1143 50.3361 16.8939 50.483 16.6454 50.5169C10.239 51.4039 6.03017 53.0874 3.78172 55.6691C2.19989 57.4882 1.07566 60.6406 1.92307 62.4371C3.16593 65.0697 6.89453 64.5782 10.5045 64.098C12.4253 63.8438 14.2387 63.6065 15.6398 63.8664C15.7358 63.8834 15.8262 63.9172 15.9109 63.9681C19.2836 65.9906 42.706 98.339 45.3669 102.022L44.0336 102.994Z" fill="#650000"/>
<path d="M64.473 133.704C64.9193 143.303 69.9981 151.025 71.789 158.567C72.8172 162.697 73.4951 175.984 62.106 175.538C53.3776 175.227 54.6996 164.719 54.6205 162.804C53.3776 161.2 41.0959 145.805 39.209 123.976L64.473 133.704Z" fill="#C97043"/>
<path d="M62.1006 175.532C59.0217 175.425 57.1969 174.047 56.1179 172.222C54.1349 168.877 54.666 164.036 54.6151 162.799C53.5757 161.46 44.8361 150.5 40.8871 134.202C40.1075 130.987 39.5143 127.569 39.2036 123.971L64.4733 133.699C64.9196 143.291 69.9984 151.02 71.7836 158.562C72.8118 162.697 73.4897 175.979 62.1006 175.532Z" fill="#FF8A42"/>
<path d="M62.1006 175.532C59.0217 175.419 57.1969 174.047 56.1179 172.222C54.1293 168.877 54.666 164.036 54.6151 162.799C54.4852 162.635 54.2479 162.33 53.9146 161.889C51.5193 158.708 44.3559 148.517 40.8871 134.201C40.1075 130.987 39.5143 127.569 39.2036 123.976L64.4733 133.704C64.8179 141.105 67.9194 147.393 70.1397 153.342C70.795 155.104 71.3769 156.839 71.7893 158.562C72.8118 162.697 73.4954 175.984 62.1006 175.532Z" fill="#9B4635"/>
<path d="M63.5692 161.833C63.3659 162.81 56.9256 163.364 56.8352 162.166C56.773 161.313 57.5131 159.731 58.7164 159.511C60.4225 159.206 63.8009 160.737 63.5692 161.833Z" fill="#873A2D"/>
<path d="M62.1006 175.532C59.0217 175.425 57.1969 174.047 56.1179 172.222C57.5698 172.866 59.5866 173.42 62.1006 173.301C68.4844 172.99 70.7328 167.008 69.9984 161.149C69.0719 153.799 65.2981 147.811 64.0948 146.867C62.0215 145.235 50.0956 146.738 40.8871 134.202C40.1075 130.987 39.5143 127.569 39.2036 123.971L64.4733 133.699C64.9196 143.291 69.9984 151.02 71.7836 158.562C72.8118 162.697 73.4897 175.979 62.1006 175.532Z" fill="#EA5A1B"/>
<path d="M62.1001 175.532C59.0212 175.419 57.1965 174.046 56.1174 172.222C57.5693 172.871 59.5805 173.419 62.1001 173.301C68.4839 172.99 70.7324 167.007 69.9923 161.149C69.8398 159.94 69.6138 158.77 69.3257 157.652C69.8002 156.437 70.0884 155.008 70.1279 153.341C70.1562 153.42 70.1844 153.494 70.2126 153.573C70.3482 153.934 70.4782 154.296 70.6025 154.652V154.658C70.6759 154.872 70.755 155.093 70.8284 155.313C70.8341 155.33 70.8397 155.347 70.8454 155.369C70.9132 155.567 70.981 155.77 71.0431 155.968C71.1109 156.183 71.1787 156.403 71.2465 156.618C71.3143 156.833 71.3764 157.053 71.4386 157.268C71.4951 157.46 71.5459 157.652 71.5967 157.844C71.6137 157.9 71.6306 157.957 71.6419 158.013C71.6928 158.2 71.7323 158.381 71.7775 158.561C72.8114 162.697 73.4949 175.984 62.1001 175.532Z" fill="#FFE4D2"/>
<path d="M62.1003 175.532C59.0214 175.419 57.1966 174.046 56.1176 172.222C54.129 168.877 54.6657 164.036 54.6148 162.798C54.4849 162.635 54.2476 162.329 53.9143 161.889C58.4395 165.064 69.8512 164.578 70.1337 153.341C70.789 155.104 71.3709 156.838 71.7833 158.561C72.8115 162.697 73.4951 175.984 62.1003 175.532Z" fill="#9B4635"/>
<path d="M62.1001 175.532C59.0212 175.419 57.1965 174.046 56.1174 172.222C57.5693 172.871 59.5805 173.419 62.1001 173.301C68.4839 172.99 70.7324 167.007 69.9923 161.149C69.8398 159.94 69.6138 158.77 69.3257 157.652C69.8002 156.437 70.0884 155.008 70.1279 153.341C70.1562 153.42 70.1844 153.494 70.2126 153.573C70.3482 153.934 70.4782 154.296 70.6025 154.652V154.658C70.6759 154.872 70.755 155.093 70.8284 155.313C70.8341 155.33 70.8397 155.347 70.8454 155.369C70.9132 155.567 70.981 155.77 71.0431 155.968C71.1109 156.183 71.1787 156.403 71.2465 156.618C71.3143 156.833 71.3764 157.053 71.4386 157.268C71.4951 157.46 71.5459 157.652 71.5967 157.844C71.6137 157.9 71.6306 157.957 71.6419 158.013C71.6928 158.2 71.7323 158.381 71.7775 158.561C72.8114 162.697 73.4949 175.984 62.1001 175.532Z" fill="#873A2D"/>
<path d="M62.6597 176.363C62.4676 176.363 62.2699 176.357 62.0721 176.351C53.4738 176.046 53.7167 166.73 53.7901 163.674C53.7958 163.454 53.8014 163.25 53.8014 163.087C50.5078 158.833 40.1073 143.958 38.3899 124.044L40.0226 123.902C41.723 143.545 52.0558 158.172 55.1799 162.188L55.4228 162.505L55.4341 162.765C55.4454 162.996 55.4341 163.313 55.4228 163.714C55.2929 168.719 55.9425 174.498 62.1286 174.719C65.1623 174.837 67.4955 173.916 69.0661 171.99C72.3258 167.985 71.5236 160.923 70.9869 158.765C70.3315 155.991 69.2186 153.189 68.0435 150.229C66.0267 145.144 63.9364 139.885 63.654 133.744L65.2866 133.67C65.5578 139.534 67.5972 144.664 69.5632 149.624C70.7609 152.646 71.8964 155.494 72.5743 158.381C73.2014 160.906 74.0319 168.482 70.3315 173.029C68.535 175.238 65.9533 176.363 62.6597 176.363Z" fill="#650000"/>
<path d="M86.0651 134.1C86.0651 134.1 82.5455 143.489 66.7386 143.489C50.9316 143.489 46.8245 139.422 46.8245 139.422C42.6609 135.784 40.2147 131.648 39.0001 127.309C35.0455 113.231 44.0732 97.1361 49.4119 89.8314C49.4119 89.8314 60.061 76.1034 67.7159 75.6797C75.3765 75.256 86.3871 98.6049 86.3871 98.6049C86.9521 105.373 87.7091 113.638 88.8503 122.022C88.9181 122.53 88.9802 123.038 89.0197 123.553C89.2853 126.716 88.8729 129.959 86.0651 134.1Z" fill="#FF8A42"/>
<path d="M86.0653 134.1C86.0653 134.1 82.5457 143.489 66.7387 143.489C50.9317 143.489 46.8246 139.421 46.8246 139.421C42.661 135.783 40.2149 131.648 39.0002 127.309C40.5538 129.134 48.1579 136.693 65.9987 134.992C71.5577 134.461 79.3708 127.614 84.088 124.727C86.6924 119.05 84.6755 110.824 86.9409 110.169C86.9409 110.169 88.02 124.953 89.0312 123.552C89.2854 126.716 88.873 129.959 86.0653 134.1Z" fill="#EA5A1B"/>
<path d="M79.2858 87.3792C78.9977 87.4753 78.6927 87.5713 78.3706 87.6617C68.0775 90.5768 59.4678 88.8707 52.762 85.2777C55.3946 82.6225 59.6994 79.7865 66.0832 79.7865C71.3146 79.7865 75.8397 83.3512 79.2858 87.3792Z" fill="#EA5A1B"/>
<path d="M86.3925 98.6046C87.0873 101.52 87.5732 104.593 88.0195 107.559C88.4601 110.547 88.5901 113.57 88.9855 116.558C89.8386 123.903 91.2566 127.857 86.7427 134.557C86.1156 135.427 84.805 134.557 85.3869 133.636C89.6352 127.394 88.1099 123.592 87.3585 116.75C87.0365 113.739 86.5224 110.745 86.3812 107.711C86.2569 104.717 86.1891 101.599 86.3925 98.6046Z" fill="#650000"/>
<path d="M46.8242 139.416C38.6891 133.75 35.9039 124.01 37.5083 114.514C39.0789 105.407 43.4402 96.8084 49.4173 89.8314C43.7848 99.4636 38.7173 110.073 39.0054 121.44C39.1184 128.219 42.2369 134.495 46.8242 139.416Z" fill="#650000"/>
<path d="M94.4089 145.704C93.5163 153.686 86.8444 155.228 82.1215 154.116C76.4043 152.771 73.896 147.511 72.0825 143.252C67.1054 144.342 58.1681 144.037 53.3831 142.161L66.0094 134.998L80.6489 133.198L88.8669 122.027C89.3866 127.337 91.1379 133.382 91.7367 138.806C91.7367 138.806 92.8384 139.744 93.5954 141.224C94.5671 143.139 94.4089 145.704 94.4089 145.704Z" fill="#9B4635"/>
<path d="M92.3531 145.546C91.6525 151.483 87.3872 152.376 84.9015 152.376C84.1219 152.376 83.3479 152.285 82.5966 152.11C80.0487 151.511 78.2465 149.941 76.8398 147.93C76.8398 147.93 79.8171 149.941 85.0371 149.602C90.2063 149.268 92.3531 145.546 92.3531 145.546Z" fill="#873A2D"/>
<path d="M90.8275 133.19C87.4378 130.908 79.3253 139.879 72.0772 143.252C67.1 144.342 58.1627 144.037 53.3777 142.161L66.0041 134.998C76.9978 133.179 82.1331 128.987 84.0934 124.733L88.8615 122.027C89.2061 125.552 90.0931 129.405 90.8275 133.19Z" fill="#EA5A1B"/>
<path d="M78.8 130.541C74.2692 139.263 62.7049 141.263 54.2252 139.037C48.5137 137.648 45.1241 134.512 43.1807 130.778C47.3047 133.354 54.5359 136.083 66.0042 134.992C66.4618 134.947 66.9363 134.862 67.4222 134.738C72.4219 133.772 76.1166 132.292 78.8 130.541Z" fill="#E0B299"/>
<path d="M67.4163 134.738C66.9304 134.863 66.4559 134.947 65.9983 134.992C66.4841 134.913 66.953 134.829 67.4163 134.738Z" fill="#B25B36"/>
<path d="M89.6751 121.942C89.9746 127.552 91.37 133.167 91.7315 138.8C91.2796 135.992 90.5678 133.252 89.8729 130.495C89.178 127.738 88.4718 124.976 88.0425 122.1L89.6751 121.942Z" fill="#650000"/>
<path d="M94.4089 145.703C94.375 149.296 92.5728 152.731 89.1832 154.223C85.8614 155.692 81.8786 155.449 78.7093 153.675C76.1614 152.262 74.3197 149.878 72.9582 147.387C72.2916 146.15 71.7266 144.884 71.2069 143.619L72.2859 144.172C66.6196 145.212 58.5127 144.862 53.3831 142.156C56.462 142.845 59.5748 143.003 62.6989 143.06C65.7496 143.093 68.9132 142.969 71.8792 142.314L72.6362 142.144C73.7999 144.771 74.9468 147.483 76.7828 149.686C77.602 150.658 78.5228 151.522 79.5906 152.172C82.7994 154.098 87.2172 154.302 90.4317 152.262C92.6632 150.85 93.9118 148.263 94.4089 145.703Z" fill="#650000"/>
<path d="M54.2251 139.043C64.3149 141.687 78.783 138.354 80.5513 124.806C81.5342 117.281 78.3028 94.2715 62.9308 92.0682C51.8298 90.4751 42.915 101.599 40.9999 114.841C40.1977 122.53 40.627 135.727 54.2251 139.043Z" fill="#9B4635"/>
<path d="M78.8 130.541C74.2692 139.263 62.7049 141.263 54.2252 139.037C48.5137 137.648 45.1241 134.512 43.1807 130.778C47.3047 133.354 54.5359 136.083 66.0042 134.992C66.4618 134.947 66.9363 134.862 67.4222 134.738C72.4219 133.772 76.1166 132.292 78.8 130.541Z" fill="#873A2D"/>
<path d="M57.6373 168.533C57.9481 170.809 58.9988 174.498 61.6992 174.696L61.4337 176.312C58.1119 175.442 57.4792 171.448 57.6373 168.533Z" fill="#650000"/>
<path d="M62.654 168.307C62.8178 170.154 64.2358 174.832 66.7215 173.888L67.1678 175.464C63.3488 176.108 62.428 171.126 62.654 168.307Z" fill="#650000"/>
<path d="M16.6737 48.9069L19.1537 50.1893L16.3799 50.5169L16.6737 48.9069Z" fill="#650000"/>
<path d="M40.4971 36.7381C34.119 43.3649 28.4922 44.1275 28.4922 44.1275C28.4922 44.1275 28.4865 55.8783 30.9553 60.3921C34.9042 67.6121 45.7285 31.3091 40.4971 36.7381Z" fill="#FF8A42"/>
<path d="M32.1926 62.1661C31.639 62.1661 30.8594 61.9232 30.2379 60.7877C27.6957 56.1382 27.6731 44.6191 27.6731 44.1276C27.6731 43.7209 27.9782 43.3706 28.3793 43.3197C28.4301 43.3141 33.8366 42.4836 39.9097 36.1789C40.6271 35.4332 41.2881 35.2016 41.8757 35.4841C42.6835 35.8739 42.8869 36.9642 42.5818 39.2465C41.8644 44.6191 36.8082 61.3413 32.5429 62.1379C32.4412 62.1492 32.3225 62.1661 32.1926 62.1661ZM29.3171 44.7942C29.3623 47.3139 29.6617 56.319 31.6729 60.0024C32.0344 60.669 32.2378 60.5617 32.4581 60.4487C33.9778 59.6521 36.4014 54.9292 38.4917 48.698C40.3842 43.0542 41.1525 38.8172 41.0904 37.3145C35.8365 42.7605 31.0797 44.3592 29.3171 44.7942Z" fill="#650000"/>
<path d="M43.2426 37.6817L58.1853 30.5183L75.4498 22.2476C69.4784 12.0674 55.9255 -0.768034 50.3722 0.983276C49.3214 1.31659 48.2932 2.41257 47.3497 4.09609C43.8019 10.3952 41.4122 24.8858 43.2426 37.6817Z" fill="#FFFEFF"/>
<path d="M43.2426 37.6817L58.1853 30.5183C56.9029 21.5866 53.259 0.994573 47.3497 4.09044C43.8019 10.3952 41.4122 24.8858 43.2426 37.6817Z" fill="#FFE4D2"/>
<g opacity="0.5">
<path d="M46.9485 4.84181C47.6377 3.92661 48.3608 3.32212 49.0896 3.0905C54.4396 1.40133 67.1846 13.2255 73.4611 23.1967L75.444 22.2476C69.4726 12.0674 55.9197 -0.768034 50.3664 0.983276C49.1687 1.35614 47.9993 2.73459 46.9485 4.84181Z" fill="white"/>
</g>
<path d="M43.2428 38.4952C42.8417 38.4952 42.4914 38.2014 42.4349 37.7947C40.1865 22.0724 44.2823 2.03969 50.1237 0.197987C53.9766 -1.01663 60.0271 3.63846 63.2981 6.51965C68.2639 10.9036 73.1902 16.7676 76.1561 21.8295C76.3821 22.2193 76.2522 22.7221 75.8623 22.9481C75.4725 23.174 74.9697 23.0441 74.7438 22.6543C71.8569 17.7337 67.055 12.0222 62.2134 7.74557C57.1742 3.29385 52.8354 1.05669 50.6152 1.75722C46.4121 3.08482 41.6723 20.9199 44.0563 37.563C44.1184 38.0093 43.8077 38.4274 43.3614 38.4895C43.3219 38.4952 43.2823 38.4952 43.2428 38.4952Z" fill="#650000"/>
<path d="M47.0787 25.9818C50.5192 23.1063 53.2704 21.2476 55.598 19.92C57.6374 18.7619 59.3548 18.0162 60.9253 17.3778C60.9818 15.6661 52.9992 4.16955 50.6943 6.62139C50.0051 7.35016 49.3554 8.56477 48.7848 10.0506C47.0109 14.6605 46.0109 21.9482 47.0787 25.9818Z" fill="#9B4635"/>
<path d="M48.7793 10.0506C49.655 9.37264 50.9148 8.63257 51.7904 9.08452C53.2762 9.86414 55.3156 15.9485 55.5981 19.92C57.6375 18.7619 59.3549 18.0162 60.9255 17.3778C60.982 15.6661 52.9994 4.16955 50.6944 6.62139C49.9996 7.35016 49.3499 8.55913 48.7793 10.0506Z" fill="#873A2D"/>
<path d="M46.6154 27.4338L46.2878 26.1909C44.8246 20.6771 46.96 9.38396 50.0954 6.05647C50.4457 5.68362 51.2423 5.14128 52.5981 5.70622C55.8974 7.07902 61.801 15.5192 61.7388 17.4061L61.7219 17.9371L61.2304 18.1349C57.7956 19.5359 53.9144 21.3437 47.6041 26.6089L46.6154 27.4338ZM51.2875 7.1807C48.9656 9.64384 46.8188 18.9088 47.6154 24.4848C53.1179 20.0331 56.7674 18.2253 59.9706 16.8863C59.1175 14.7678 54.4511 8.09026 51.858 7.17506C51.4343 7.02252 51.327 7.13551 51.2875 7.1807Z" fill="#650000"/>
<path d="M86.7432 23.2814L99.9627 45.5004L105.68 55.1044C115.018 45.2179 121.419 31.0323 121.385 24.044C121.38 22.6091 121.097 21.4792 120.521 20.7504C116.73 16.005 97.7143 18.4737 86.7432 23.2814Z" fill="#FFFEFF"/>
<path d="M99.9685 45.5004L105.686 55.1044C115.024 45.218 121.425 31.0323 121.391 24.044C120.363 21.677 118.227 19.5923 114.132 25.1457C109.878 30.8968 103.573 40.1561 99.9685 45.5004Z" fill="#FFE4D2"/>
<g opacity="0.5">
<path d="M86.7432 23.2814L87.5793 24.6824C98.7199 20.4228 117.035 19.1065 119.916 21.8634C122.261 24.1062 119.159 33.6593 115.736 41.0374C120.577 32.0944 122.724 23.5073 120.521 20.7504C116.73 16.005 97.7143 18.4737 86.7432 23.2814Z" fill="white"/>
</g>
<path d="M105.68 55.9235C105.476 55.9235 105.279 55.8501 105.12 55.6975C104.793 55.3868 104.776 54.8671 105.086 54.5394C116.651 42.3028 122.752 24.8519 119.882 21.2532C116.481 16.9879 97.9286 19.2703 87.0762 24.0271C86.6638 24.2078 86.1779 24.0214 85.9971 23.6034C85.8164 23.191 86.0028 22.7051 86.4209 22.5243C97.1208 17.8353 116.944 14.9429 121.165 20.2307C125.142 25.2134 117.216 44.088 106.284 55.658C106.115 55.8388 105.894 55.9235 105.68 55.9235Z" fill="#650000"/>
<path d="M97.9569 24.0949C94.9514 21.5697 91.1381 19.389 86.3587 17.5304C50.9597 3.7515 38.9773 29.863 34.3335 43.9412C26.9611 51.1894 22.1591 72.4254 60.4732 84.114C98.3524 95.1529 112.075 72.448 112.826 71.143C108.894 62.1888 110.408 51.6357 109.222 45.54" fill="#FF8A42"/>
<path d="M60.479 84.1084C73.4726 87.8935 83.6189 87.7127 91.3811 85.7806C106.245 82.0859 112.335 71.9904 112.832 71.1374C108.9 62.1831 110.414 51.6301 109.222 45.5344C109.222 45.5344 108.137 39.1449 105.194 33.1961C103.448 29.6652 97.9626 24.0949 97.9626 24.0949C94.9515 21.5697 91.1438 19.389 86.3645 17.5303C50.9654 3.7515 38.9831 29.863 34.3393 43.9412C34.3167 43.9638 34.2997 43.9808 34.2771 44.0034C26.9329 51.308 22.2722 72.4593 60.479 84.1084Z" fill="#FF8A42"/>
<path d="M29.2661 56.6918C29.396 65.7196 36.4747 76.7867 60.479 84.1083C73.4725 87.899 83.6188 87.7126 91.3811 85.7805C100.833 83.436 106.736 78.4985 109.905 74.9902C111.725 72.979 112.645 71.4424 112.826 71.1317C108.894 62.1774 110.408 51.6243 109.216 45.5287C109.216 45.5287 108.132 39.1392 105.188 33.1847C103.437 29.6539 97.957 24.0836 97.957 24.0836C94.9459 21.5583 91.1382 19.3776 86.3588 17.519C50.9597 3.74014 38.9774 29.8516 34.3336 43.9299C34.3166 43.9468 34.294 43.9694 34.2771 43.992C31.5484 46.715 29.187 51.3475 29.2661 56.6918Z" fill="#FF8A42"/>
<path d="M29.2661 56.6918C29.396 65.7196 36.4747 76.7867 60.479 84.1083C73.4725 87.899 83.6188 87.7126 91.3811 85.7805C100.833 83.436 106.736 78.4985 109.905 74.9902C111.725 72.979 112.645 71.4424 112.826 71.1317C108.894 62.1774 110.408 51.6243 109.216 45.5287C109.216 45.5287 108.132 39.1392 105.188 33.1847C103.437 29.6539 97.957 24.0836 97.957 24.0836C94.9459 21.5583 91.1382 19.3776 86.3588 17.519C50.9597 3.74014 38.9774 29.8516 34.3336 43.9299C34.3166 43.9468 34.294 43.9694 34.2771 43.992C31.5484 46.715 29.187 51.3475 29.2661 56.6918Z" fill="#FF8A42"/>
<path d="M108.555 73.7699C105.426 77.2217 99.8328 81.8034 90.9407 84.0123C83.6812 85.8201 75.4105 85.724 66.3715 83.7355C64.6145 83.3513 62.8011 82.8824 60.9876 82.357C35.1812 74.4874 31.1815 62.8836 31.0911 56.6636C31.0911 56.6636 33.2548 73.0412 62.8971 80.6961C95.4206 89.0911 108.555 73.7699 108.555 73.7699Z" fill="#EA5A1B"/>
<path d="M108.555 73.7699C105.426 77.2217 99.8328 81.8034 90.9407 84.0123C83.6812 85.8201 75.4105 85.724 66.3715 83.7355C64.6145 83.3513 62.8011 82.8824 60.9876 82.357C35.1812 74.4874 31.1815 62.8836 31.0911 56.6636C31.0911 56.6636 33.2548 73.0412 62.8971 80.6961C95.4206 89.0911 108.555 73.7699 108.555 73.7699Z" fill="#EA5A1B"/>
<path d="M43.2317 74.5552C37.5766 70.9057 34.4695 67.098 32.8142 63.6914C32.8368 63.0474 32.9215 62.4147 33.0741 61.7989C34.3282 64.0304 36.362 66.776 39.6274 69.5781C40.294 71.2277 41.4804 72.9056 43.2317 74.5552Z" fill="#8E381A"/>
<path d="M82.941 83.1875C82.4608 83.8824 81.9015 84.5829 81.2688 85.2834C76.5911 85.4077 71.6083 84.8936 66.3657 83.7411C66.0719 83.679 65.7781 83.6112 65.4844 83.5434C68.3373 83.7524 70.3824 83.3683 71.919 82.5265C75.9583 83.0971 79.6248 83.2835 82.941 83.1875Z" fill="#8E381A"/>
<path d="M97.0079 80.713C96.4373 81.4136 95.8102 82.0802 95.1549 82.7073C93.8386 83.1988 92.4319 83.6394 90.9348 84.0066C83.6753 85.8144 75.4103 85.724 66.3656 83.7355C64.6087 83.3513 62.7952 82.8824 60.9818 82.357C35.1754 74.4874 31.1756 62.8779 31.0852 56.6636C31.0852 56.6636 33.2489 73.0412 62.8913 80.6904C78.5005 84.7241 89.6411 83.2948 97.0079 80.713Z" fill="#F9D3B7"/>
<path d="M33.4185 62.618C33.4298 65.0473 33.8309 67.4143 34.3958 69.3916C35.7573 70.9904 37.4182 72.5722 39.4407 74.1145C38.3278 71.4819 37.9436 69.16 38.0566 67.1149C36.3053 65.6856 34.7687 64.1772 33.4185 62.618Z" fill="#A82B26"/>
<path d="M60.479 84.1083C73.4726 87.8934 83.6189 87.7126 91.3811 85.7806C96.4769 82.2214 101.725 76.6794 100.076 69.5386C96.5729 54.3869 79.0711 65.8552 71.8343 62.5107C66.1566 59.8894 65.0381 55.1383 58.0215 53.3757C53.3325 52.1949 52.3665 54.6807 47.7509 54.4095C42.2371 54.0875 38.1809 45.3987 34.2828 43.992C26.9329 51.308 22.2722 72.4593 60.479 84.1083Z" fill="#FFFEFF"/>
<path d="M97.0079 80.713C96.4373 81.4136 95.8102 82.0802 95.1549 82.7073C93.8386 83.1988 92.4319 83.6394 90.9348 84.0066C83.6753 85.8144 75.4103 85.724 66.3656 83.7355C64.6087 83.3513 62.7952 82.8824 60.9818 82.357C35.1754 74.4874 31.1756 62.8779 31.0852 56.6636C31.0852 56.6636 33.2489 73.0412 62.8913 80.6904C78.5005 84.7241 89.6411 83.2948 97.0079 80.713Z" fill="#FFE4D2"/>
<path d="M55.0157 81.5774C54.8914 81.6791 54.7671 81.7808 54.6428 81.8825C54.5694 81.9446 54.4903 82.0011 54.4168 82.0576C44.5926 78.346 38.2539 73.9338 34.4011 69.403C34.3954 69.3973 34.3954 69.3917 34.3898 69.3917C29.2206 60.9797 37.2879 51.0199 49.5414 54.3869C45.1066 55.353 41.1069 57.4319 39.2313 64.3807C37.8698 69.4312 41.7114 75.5834 52.7672 80.6114C53.4903 80.939 54.2361 81.261 55.0157 81.5774Z" fill="#9B4635"/>
<path d="M79.4326 87.1251C73.9244 87.0799 67.631 86.1986 60.4732 84.114C58.7276 83.583 57.0723 83.0293 55.5018 82.4587C55.1967 82.2554 54.9142 82.0633 54.6431 81.8825C53.79 81.3063 53.1347 80.86 52.7731 80.6114C52.5697 80.4702 52.4624 80.3967 52.4624 80.3911C69.4501 86.1986 73.4273 83.4474 75.9356 77.4308C79.0371 69.9905 72.4669 64.5784 68.3485 60.3019C85.7938 66.7704 90.4263 77.0636 79.4326 87.1251Z" fill="#9B4635"/>
<path d="M43.2317 74.5552C37.5766 70.9057 34.4695 67.098 32.8142 63.6914C32.8368 63.0474 32.9215 62.4147 33.0741 61.7989C34.3282 64.0304 36.362 66.776 39.6274 69.5781C40.294 71.2277 41.4804 72.9056 43.2317 74.5552Z" fill="#873A2D"/>
<path d="M82.941 83.1875C82.4608 83.8824 81.9015 84.5829 81.2688 85.2834C76.5911 85.4077 71.6083 84.8936 66.3657 83.7411C66.0719 83.679 65.7781 83.6112 65.4844 83.5434C68.3373 83.7524 70.3824 83.3683 71.919 82.5265C75.9583 83.0971 79.6248 83.2835 82.941 83.1875Z" fill="#873A2D"/>
<path d="M97.957 24.0949C78.7999 13.0503 55.8973 8.09584 42.0168 29.5466C39.0452 34.0774 36.8871 39.094 35.1076 44.2067C35.0624 44.331 34.9946 44.4383 34.9099 44.5231C34.102 45.3253 33.3902 46.2405 32.7687 47.2178C32.153 48.1952 31.6219 49.229 31.2208 50.3194C29.5373 54.6468 29.7463 59.6182 31.7519 63.8157C37.7402 76.6229 57.8351 83.549 70.9925 85.6167C76.8735 86.4867 82.9466 86.611 88.805 85.5094C98.0361 83.7807 107.002 78.7584 112.12 70.7419L112.08 71.4819C110.131 67.4652 109.431 62.9909 109.228 58.5731C108.979 54.2005 109.408 49.9126 109.222 45.5513C109.889 47.6359 110.137 49.8335 110.363 51.9972C110.646 55.0366 111.007 60.2566 111.561 63.2C111.984 65.8156 112.668 68.403 113.595 70.8718C113.685 71.1034 113.651 71.3577 113.532 71.561C112.866 72.674 112.12 73.657 111.323 74.6174C108.934 77.4759 106.047 79.8995 102.889 81.8599C93.9121 87.4584 82.9127 88.7973 72.5743 87.481C56.6035 85.4811 28.3622 75.6738 28.4526 56.2343C28.4809 52.7542 29.5203 49.2855 31.3846 46.3478C32.0626 45.2745 32.8478 44.2689 33.7574 43.365L33.554 43.6926C36.616 33.9531 41.514 24.1005 50.0672 18.0727C60.2756 10.7172 73.7325 11.7849 84.9352 16.1067C89.7428 17.8297 94.6126 20.1121 97.957 24.0949Z" fill="#650000"/>
<path d="M102.047 27.9308C104.166 31.0549 106.578 34.9587 109.064 43.2237C109.408 42.9356 109.759 42.6023 110.103 42.2351C112.515 39.6533 114.837 35.2185 116.103 31.3092C116.894 28.8743 117.278 26.6484 117.024 25.1909C116.43 21.8069 102.974 26.4902 102.047 27.9308Z" fill="#9B4635"/>
<path d="M102.047 27.9308C104.166 31.0549 106.578 34.9587 109.064 43.2237C109.408 42.9356 109.759 42.6023 110.103 42.2351C110.589 39.3031 109.25 35.5688 109.086 32.9192C108.747 27.428 113.448 25.4677 114.719 26.4055C115.47 26.9591 115.933 29.9872 116.097 31.3092C116.888 28.8743 117.272 26.6484 117.018 25.1909C116.43 21.8069 102.974 26.4902 102.047 27.9308Z" fill="#873A2D"/>
<path d="M109.058 44.0429C108.979 44.0429 108.9 44.0316 108.821 44.009C108.561 43.9299 108.352 43.7265 108.273 43.461C105.844 35.3824 103.527 31.586 101.364 28.3884C101.177 28.1173 101.177 27.7613 101.352 27.4845C102.392 25.8744 112.086 22.53 115.798 23.287C117.346 23.6034 117.724 24.5242 117.82 25.044C118.623 29.6426 114.001 40.19 109.578 43.8508C109.431 43.9751 109.245 44.0429 109.058 44.0429ZM103.132 28.0777C105.132 31.0832 107.25 34.7553 109.459 41.7323C113.346 37.6591 116.809 28.7387 116.216 25.3265C116.205 25.2643 116.171 25.0722 115.645 24.931C112.894 24.1853 105.126 26.8461 103.132 28.0777Z" fill="#650000"/>
<path d="M86.6695 35.4897C86.6695 35.4897 84.2967 28.2133 81.2348 28.5183C78.1728 28.8234 77.6587 31.9532 79.0315 33.3316C81.0201 35.3371 86.6695 35.4897 86.6695 35.4897Z" fill="#FFF3E9"/>
<path d="M51.0955 24.6372C51.0955 24.6372 55.7675 19.8014 58.0725 21.2194C60.3774 22.6374 59.5752 25.3039 57.9651 25.8688C55.6206 26.688 51.0955 24.6372 51.0955 24.6372Z" fill="#FFF3E9"/>
<path d="M52.9147 52.9576C52.3893 54.579 53.7339 56.6014 54.8468 57.9121C55.6151 58.8216 56.8354 59.2171 57.9935 58.929C59.6657 58.5166 61.9368 57.6692 62.4622 56.0421C63.3152 53.4095 53.7678 50.325 52.9147 52.9576Z" fill="#650000"/>
<g opacity="0.35">
<path d="M55.3606 53.1214C55.2646 53.4208 55.8465 53.901 56.3097 54.2287C56.6317 54.4547 57.0837 54.6015 57.4735 54.6072C58.0384 54.6128 58.7954 54.5676 58.8915 54.2626C59.0497 53.7767 55.5188 52.6299 55.3606 53.1214Z" fill="white"/>
</g>
<path d="M98.9569 25.1456C92.9177 17.5698 88.2004 16.197 80.184 9.75102C78.1841 8.14094 74.9978 4.38975 74.9978 4.38975C74.9978 4.38975 72.7268 8.42906 72.5912 11.1747C67.2977 9.31036 64.682 11.0504 57.2249 8.79627C57.9028 11.3498 59.8518 15.0784 64.038 16.084" fill="#FF8A42"/>
<path d="M98.9571 25.1457C96.1719 22.2701 93.1778 19.7731 89.8503 17.6094C86.2855 15.2931 82.4326 12.8639 79.1786 10.1465C77.416 8.55341 75.8568 6.77385 74.3766 4.92085L75.7155 4.79091C74.676 6.7795 73.6196 8.96581 73.4162 11.2143C73.3993 11.751 72.8287 12.1351 72.3259 11.9487C71.1508 11.5363 69.9531 11.2595 68.7103 11.1295C67.4731 10.9939 66.185 10.9826 64.8687 10.9205C62.2191 10.8301 59.5357 10.3499 56.9991 9.58159L58.0273 8.5873C59.0781 11.395 60.1458 13.926 62.8801 15.5022C63.253 15.7281 63.6484 15.9033 64.0495 16.0897C63.1682 16.0106 62.2813 15.7846 61.4508 15.3948C58.9594 14.1971 56.9482 11.7566 56.4455 9.01101C56.2534 8.40652 56.8805 7.80769 57.4736 8.01671C59.9198 8.75113 62.3886 9.19744 64.9478 9.28218C66.2245 9.33867 67.5465 9.34997 68.8967 9.49685C70.2469 9.63809 71.5971 9.9488 72.8739 10.4008L71.7835 11.1352C72.0095 8.55341 73.1168 6.24846 74.2919 3.9887C74.5404 3.47461 75.2805 3.41246 75.6308 3.85877C76.5177 4.81351 77.4216 5.77956 78.3368 6.71171C79.2407 7.62691 80.1503 8.53646 81.1672 9.31607C84.2574 11.8075 87.5453 14.0051 90.7203 16.4004C93.9235 18.8127 96.8103 21.7617 98.9571 25.1457Z" fill="#650000"/>
<path d="M55.6882 58.5449C55.5413 59.7877 56.1289 61.1775 56.2475 61.2001C56.3266 61.217 56.6373 59.72 57.2926 58.9347" fill="#650000"/>
<path d="M67.2128 75.7133C71.2973 75.3235 74.7152 72.5553 73.3706 68.8154C71.5685 64.8552 67.9416 67.4934 61.8346 65.6348C58.2077 64.5275 57.2642 62.8779 55.3717 63.7761C53.643 64.5953 52.7899 67.9454 54.7107 70.7362C56.9479 73.9846 62.1905 76.1878 67.2128 75.7133Z" fill="#5E3519"/>
<path d="M67.5068 75.6794C67.4107 75.6907 67.3147 75.702 67.213 75.7133C63.5579 76.0579 59.7897 74.9902 57.1458 73.1259C56.1572 72.431 55.3211 71.6231 54.7109 70.7362C52.7901 67.951 53.6488 64.5953 55.3776 63.7761C56.2419 63.3637 56.9085 63.488 57.722 63.8439C58.6937 64.2733 59.8688 65.036 61.8404 65.6348C64.9702 66.5895 67.4446 66.3579 69.3598 66.4427C71.1845 66.5217 72.4952 66.8833 73.3765 68.8154C74.6872 72.4649 71.4614 75.1936 67.5068 75.6794Z" fill="#650000"/>
<path d="M60.7841 67.855C57.8691 66.7364 57.5132 65.1884 57.7165 63.8495C58.6882 64.2789 59.8633 65.0416 61.8349 65.6404C64.9647 66.5951 67.4391 66.3635 69.3543 66.4483C69.2074 69.2673 65.3828 69.6176 60.7841 67.855Z" fill="white"/>
<path d="M67.5067 75.6794C67.4107 75.6907 67.3147 75.702 67.213 75.7133C63.5578 76.0579 59.7897 74.9902 57.1458 73.1259C58.6711 71.7079 61.2981 71.335 63.3318 72.7643C65.2752 72.1994 66.9192 73.4253 67.3937 75.3066C67.4389 75.4365 67.4728 75.5608 67.5067 75.6794Z" fill="#F28475"/>
<path d="M63.185 71.1372C63.185 71.1372 64.7895 72.6061 64.2189 72.6287C63.5466 72.6626 62.2981 73.0919 61.9365 73.7359C61.9365 73.7359 62.0608 72.1654 63.185 71.1372Z" fill="#650000"/>
<path d="M65.8343 76.3913C61.134 76.3913 56.4111 74.2841 54.2079 71.0865C53.1119 69.499 52.739 67.5161 53.2023 65.793C53.5243 64.5841 54.2248 63.6463 55.1118 63.2282C56.5411 62.5503 57.5806 63.0757 58.8969 63.748C59.6821 64.1491 60.6595 64.6462 62.0153 65.0586C64.3937 65.7817 66.3428 65.7987 68.0658 65.8156C70.6532 65.8382 72.6927 65.8552 73.9299 68.5725L73.9468 68.6177C74.5061 70.1713 74.3592 71.691 73.5231 73.0073C72.3707 74.8264 70.0318 76.0693 67.2693 76.3291C66.7947 76.3687 66.3145 76.3913 65.8343 76.3913ZM56.4224 64.1321C56.1682 64.1321 55.9196 64.1943 55.6372 64.3298C55.0779 64.5954 54.6146 65.2563 54.383 66.1037C54.0102 67.4878 54.3209 69.0923 55.2135 70.386C57.3659 73.5157 62.5012 75.5382 67.1563 75.0976C69.5121 74.8716 71.5515 73.8152 72.4893 72.3407C73.1164 71.3464 73.2237 70.2391 72.8 69.0471C71.8848 67.0641 70.5233 67.0528 68.0545 67.0302C66.3371 67.0133 64.2073 66.9963 61.6538 66.2224C60.1962 65.7817 59.168 65.2563 58.3376 64.8326C57.445 64.3807 56.9196 64.1321 56.4224 64.1321Z" fill="#650000"/>
<path d="M67.8005 57.8838C74.5459 50.4831 84.8504 48.4719 86.6469 59.3413L67.8005 57.8838Z" fill="#FF8A42"/>
<path d="M67.8005 57.8839C69.9134 54.0027 73.8058 50.9408 78.2801 50.3871C82.1839 49.9239 85.647 52.178 86.5057 56.0478C86.7599 57.1494 86.8051 58.2624 86.6469 59.3414C86.1272 58.3754 85.6583 57.4545 85.1046 56.6353C80.941 49.9182 72.8454 54.579 67.8005 57.8839Z" fill="#650000"/>
<path d="M51.8635 52.1328C50.7562 40.5007 45.248 39.4781 40.2031 45.6303L51.8635 52.1328Z" fill="#FF8A42"/>
<path d="M51.8637 52.1328C50.7 49.4719 49.6096 44.7942 47.0166 43.4497C45.4969 42.7887 43.8473 43.6192 42.401 44.3818C41.6948 44.7603 40.9887 45.2066 40.1978 45.6303C40.4689 44.7773 40.8926 44.0033 41.435 43.2858C43.3332 40.6758 46.9036 39.529 49.4797 41.9526C52.0897 44.54 52.4569 48.7092 51.8637 52.1328Z" fill="#650000"/>
<path d="M143.226 85.0912C142.824 89.4921 137.672 94.2037 131.791 92.8309C128.701 92.0569 125.695 89.8141 123.413 90.4129C120.04 90.9157 92.059 107.361 87.0649 110.316C86.5734 110.61 86.3023 110.768 86.3023 110.768L77.009 88.0571C77.8169 87.8368 78.6304 87.5939 79.4439 87.3284C91.7991 83.2608 104.685 73.7924 121.08 69.3916C126.317 68.1826 134.271 65.5274 136.203 68.5442C137.169 70.0469 136.695 71.3067 135.785 72.3518C135.39 72.8094 134.91 73.2275 134.429 73.6004C135.141 73.9789 138.271 75.3573 140.604 77.8995C141.237 78.5944 141.813 79.3684 142.265 80.2384C142.581 80.8485 142.841 81.5039 143.011 82.2044C143.237 83.0913 143.322 84.0517 143.226 85.0912Z" fill="#FF8A42"/>
<path d="M143.226 85.0913C142.825 89.4922 137.672 94.2038 131.797 92.831C129.424 92.2378 127.102 90.7746 125.119 90.4017C124.521 90.2887 123.95 90.2718 123.419 90.413C120.046 90.9158 92.0649 107.361 87.0708 110.316C86.5793 110.61 86.3081 110.768 86.3081 110.768L77.0149 88.0572C77.8228 87.8369 78.6363 87.594 79.4498 87.3285C91.805 83.2609 104.691 73.7925 121.086 69.3917C121.199 69.3691 121.312 69.3408 121.425 69.3126C126.662 68.0697 134.322 65.5953 136.209 68.5443C137.17 70.047 136.701 71.3125 135.791 72.3519C135.39 72.8095 134.915 73.2276 134.435 73.6005C135.147 73.9846 138.277 75.3574 140.61 77.8996C141.243 78.5889 141.819 79.3685 142.271 80.2385C142.587 80.8486 142.847 81.504 143.017 82.2045C143.237 83.0914 143.322 84.0518 143.226 85.0913Z" fill="#FF8A42"/>
<g opacity="0.4">
<path d="M135.791 72.3409C136.028 71.6742 135.847 69.5727 134.971 69.0303C133.022 67.8214 125.769 69.5783 119.334 71.5104C109.86 74.3634 102.617 78.8603 91.3525 83.5945C85.3076 86.1367 81.6355 87.0575 79.4492 87.3174C91.8044 83.2498 104.691 73.7815 121.085 69.3806C126.322 68.1716 134.277 65.5164 136.209 68.5332C137.169 70.0359 136.694 71.3014 135.791 72.3409Z" fill="white"/>
</g>
<path d="M143.225 85.0914C142.824 89.4923 137.672 94.2039 131.791 92.8311C128.701 92.0571 125.695 89.8143 123.413 90.4132C120.04 90.916 92.059 107.361 87.0649 110.316C87.7429 105.537 120.108 87.3625 123.893 87.0687C127.599 86.7863 131.678 91.5318 138.022 89.1477C141.807 87.7241 142.785 84.3288 143.011 82.2046C143.237 83.0916 143.322 84.052 143.225 85.0914Z" fill="#EA5A1B"/>
<path d="M143.225 85.0913C142.824 89.4921 137.672 94.2037 131.797 92.8309C131.723 92.814 131.65 92.7914 131.576 92.7744C131.503 92.7575 131.429 92.7349 131.35 92.7123C131.283 92.6897 131.209 92.6727 131.141 92.6501C130.757 92.5315 130.373 92.3903 129.989 92.2377C129.797 92.1643 129.61 92.0852 129.418 92.0118C129.119 91.8875 128.819 91.7575 128.52 91.6276C128.379 91.5655 128.237 91.509 128.096 91.4468C127.39 91.1417 126.706 90.8536 126.051 90.6503C125.989 90.6277 125.933 90.6107 125.876 90.5938C125.814 90.5768 125.746 90.5542 125.684 90.5373C125.492 90.4808 125.305 90.4412 125.119 90.4017C124.051 89.7068 122.961 88.769 121.95 87.6674C122.848 87.3058 123.52 87.0968 123.899 87.0685C127.605 86.7861 131.684 91.5316 138.028 89.1475C141.813 87.7239 142.79 84.3286 143.016 82.2101C143.237 83.0914 143.321 84.0518 143.225 85.0913Z" fill="#FFE4D2"/>
<path d="M143.226 85.0914C142.824 89.4923 137.672 94.2039 131.797 92.8311C129.424 92.2379 127.102 90.7747 125.119 90.4019C119.25 86.5772 112.708 75.4592 121.425 69.3071C126.662 68.0642 134.322 65.5898 136.209 68.5387C137.169 70.0415 136.7 71.3069 135.791 72.3464C135.39 72.804 134.915 73.2221 134.435 73.5949C135.147 73.9791 138.277 75.3519 140.61 77.8941C141.243 78.5834 141.819 79.363 142.271 80.233C142.587 80.8431 142.847 81.4984 143.016 82.199C143.237 83.0916 143.322 84.052 143.226 85.0914Z" fill="#9B4635"/>
<path d="M143.225 85.0913C142.824 89.4921 137.672 94.2037 131.797 92.8309C131.723 92.814 131.65 92.7914 131.576 92.7744C131.503 92.7575 131.429 92.7349 131.35 92.7123C131.283 92.6897 131.209 92.6727 131.141 92.6501C130.757 92.5315 130.373 92.3903 129.989 92.2377C129.797 92.1643 129.61 92.0852 129.418 92.0118C129.119 91.8875 128.819 91.7575 128.52 91.6276C128.379 91.5655 128.237 91.509 128.096 91.4468C127.39 91.1417 126.706 90.8536 126.051 90.6503C125.995 90.6277 125.933 90.6107 125.876 90.5938C125.814 90.5768 125.746 90.5542 125.684 90.5373C125.492 90.4808 125.305 90.4412 125.119 90.4017C124.051 89.7068 122.961 88.769 121.95 87.6674C122.848 87.3058 123.52 87.0968 123.899 87.0685C127.605 86.7861 131.684 91.5316 138.028 89.1475C141.813 87.7239 142.79 84.3286 143.016 82.2101C143.237 83.0914 143.321 84.0518 143.225 85.0913Z" fill="#873A2D"/>
<path d="M125.046 75.8715C126.701 72.561 132.498 74.3405 134.062 77.0918C135.814 80.165 130.916 82.9558 128.085 81.8712C125.65 80.9447 123.984 78.007 125.046 75.8715Z" fill="white"/>
<path d="M131.65 85.5151C131.966 84.2779 134.831 84.3118 135.644 85.871C136.446 87.4077 134.791 88.2777 133.537 88.063C132.13 87.8144 131.447 86.306 131.65 85.5151Z" fill="white"/>
<path d="M136.011 82.3286C136.497 81.1479 139.339 81.2044 139.989 82.8653C140.621 84.481 139.135 85.2719 137.881 85.0573C136.475 84.8087 135.638 83.2212 136.011 82.3286Z" fill="white"/>
<path d="M142.271 80.2331C141.949 80.9619 140.909 81.3234 140.051 81.1709C138.644 80.928 137.859 79.4987 138.056 78.7134C138.254 77.9338 139.508 77.6231 140.604 77.8943C141.243 78.5835 141.813 79.3631 142.271 80.2331Z" fill="white"/>
<path d="M131.616 73.0072L134.599 72.7925L134.266 74.3913L131.616 73.0072Z" fill="#650000"/>
<path d="M86.3076 110.762C88.7425 108.203 92.0192 106.474 95.0077 104.649C102.6 100.118 110.306 95.7797 118.193 91.763C119.865 90.9721 121.475 90.0399 123.3 89.5936C123.887 89.3959 125.384 89.5315 126.102 89.8083C130.316 91.215 132.825 93.4748 137.395 91.4692C139.288 90.6049 140.881 89.0569 141.796 87.187C141.915 86.8876 142.112 86.4582 142.18 86.1419L142.259 85.8763L142.299 85.7464L142.321 85.6108L142.406 85.0741C142.988 79.8767 138.282 76.3006 134.051 74.3177C133.531 74.0691 133.463 73.3121 133.915 72.9675C134.463 72.5381 134.977 72.0862 135.356 71.5947C136.101 70.719 136.101 69.5496 135.305 68.7192C134.971 68.3802 134.412 68.1655 133.791 68.0638C132.48 67.8548 131.056 68.0299 129.718 68.239C126.893 68.7022 124.091 69.5383 121.294 70.1993C110.075 73.2217 100.013 79.131 89.5447 84.0459C85.5845 85.8989 81.4152 87.6051 77.02 88.057C81.6921 85.8594 88.1889 82.9104 92.6801 80.5433C101.691 75.8543 111.001 71.2105 120.888 68.5779C123.752 67.9169 126.537 67.1034 129.452 66.6232C131.887 66.2899 135.277 65.7645 136.909 68.1203C138.485 70.5552 136.926 72.7641 134.938 74.2443L134.819 72.8771C137.774 74.3121 140.875 76.2837 142.728 79.3795C143.943 81.419 144.412 83.9499 143.847 86.2718C143.722 86.7915 143.491 87.396 143.276 87.8875C143.135 88.1813 142.943 88.492 142.796 88.7858C142.683 88.9553 142.35 89.4468 142.225 89.6219C142.073 89.8027 141.728 90.2264 141.581 90.4015C141.44 90.5371 141.022 90.9664 140.869 91.1133C138.378 93.3957 134.779 94.4465 131.469 93.5934C129.446 93.0737 127.582 91.9833 125.633 91.3788C124.39 90.989 123.594 91.119 122.475 91.5992C121.283 92.0963 120.114 92.6895 118.955 93.277C111.645 97.0904 103.143 102.118 95.889 106.175C92.827 107.852 89.7199 109.858 86.3076 110.762Z" fill="#650000"/>
</svg>
