<svg width="72" height="71" viewBox="0 0 72 71" fill="none" xmlns="http://www.w3.org/2000/svg">
<mask id="mask0_204_8984" style="mask-type:alpha" maskUnits="userSpaceOnUse" x="0" y="0" width="72" height="71">
<rect width="71.6636" height="71" rx="15" fill="#222428"/>
</mask>
<g mask="url(#mask0_204_8984)">
<rect width="71.6636" height="71" fill="#FF8A42"/>
<path d="M74.1579 43.0563C75.2544 43.8711 76.8773 45.2073 77.42 46.8532C77.6448 47.5376 77.6777 47.983 77.5571 48.3089C77.2062 49.254 75.556 49.14 73.6261 50.7315C72.3431 51.7853 69.081 54.8108 63.8177 57.8146C61.0654 59.3898 57.7704 60.9542 53.9271 62.2361C50.6265 63.3333 46.9203 64.2242 42.8193 64.7239C40.5166 65.0009 38.0933 65.1584 35.5384 65.1584C32.8848 65.1584 30.3848 64.9738 28.0437 64.637C23.2793 63.9634 19.1454 62.687 15.6092 61.1606C11.2889 59.2921 7.86224 57.0541 5.26897 55.0715C2.14388 52.6869 0.219488 50.6772 -0.61935 50.1394C-2.73564 48.776 -5.38921 49.1182 -6.21709 48.2491C-6.4967 47.9558 -6.56798 47.5321 -6.34867 46.8586C-5.80589 45.2127 -4.18304 43.8765 -3.08652 43.0617C-2.93849 42.9531 -2.99332 42.7521 -3.16876 42.6978C-7.88928 41.2095 -9.80819 38.6076 -6.95176 37.2334C-2.91108 35.2942 -0.734484 30.4816 0.11532 27.8309C1.08574 24.7782 2.00681 20.927 3.33909 17.9015C12.972 -3.98342 35.5329 -2.92421 35.5329 -2.92421C35.5329 -2.92421 58.0993 -3.98342 67.7323 17.9015C69.0645 20.9216 69.9801 24.7782 70.956 27.8309C71.8004 30.487 73.9824 35.2996 78.0231 37.2334C80.8796 38.6076 78.9606 41.2095 74.2401 42.6978C74.0702 42.7467 74.0153 42.9477 74.1579 43.0563Z" fill="#EE7A3B"/>
<path d="M74.1579 43.0563C75.2544 43.8711 76.8772 45.2073 77.42 46.8532C77.6448 47.5321 77.6777 47.983 77.5571 48.3089C77.2062 49.254 75.5559 49.14 73.6261 50.7315C72.3431 51.7907 69.081 54.8108 63.8177 57.8146C61.0654 59.3898 57.7704 60.9542 53.9271 62.2361C50.6265 63.3388 46.9203 64.2296 42.8193 64.7239C40.5166 65.0009 38.0933 65.1584 35.5384 65.1584C32.8848 65.1584 30.3903 64.9738 28.0437 64.637C23.2793 63.9634 19.1454 62.6924 15.6092 61.1606C11.2943 59.2921 7.86772 57.0541 5.26896 55.0715C2.14388 52.6869 0.219486 50.6772 -0.619352 50.1394C-2.73564 48.776 -5.38921 49.1182 -6.21709 48.2491C-6.4967 47.9558 -6.57346 47.5321 -6.34867 46.8586C-5.80589 45.2127 -4.18304 43.8765 -3.08652 43.0617C-2.93849 42.9531 -2.9988 42.7575 -3.16876 42.6978C-7.88928 41.2095 -9.80819 38.6022 -6.95176 37.2334C-2.91656 35.2942 -0.734485 30.4816 0.115318 27.8309C1.08574 24.7782 2.00681 20.927 3.33908 17.9015C12.972 -3.97799 35.5329 -2.92421 35.5329 -2.92421C35.5329 -2.92421 58.0993 -3.98342 67.7323 17.9015C69.0645 20.927 69.9801 24.7782 70.956 27.8309C71.8004 30.4816 73.9824 35.2942 78.0176 37.2334C80.8741 38.6076 78.9606 41.2095 74.2346 42.6978C74.0702 42.7467 74.0153 42.9477 74.1579 43.0563Z" fill="#FF8A42"/>
<path fill-rule="evenodd" clip-rule="evenodd" d="M63.8233 57.8092C61.0711 59.3844 57.776 60.9488 53.9327 62.2307C50.6322 63.3279 46.926 64.2187 42.825 64.7185C40.5223 64.9955 38.099 65.153 35.5441 65.153C32.8905 65.153 30.3904 64.9683 28.0494 64.6315C23.285 63.958 19.1511 62.6815 15.6148 61.1552C11.2945 59.2866 7.8679 57.0487 5.27463 55.0661L2.776 50.1354C3.17613 50.4046 3.59053 50.6898 4.02256 50.9871C9.47141 54.7366 17.7253 60.4164 35.5441 60.4164C53.3629 60.4164 61.6168 54.7366 67.0656 50.9871C67.4958 50.691 67.9086 50.407 68.3071 50.1388L66.6798 53.9876L63.8233 57.8092Z" fill="#E95A1C"/>
<path d="M28.0377 64.6296C23.2733 63.9561 19.1395 62.6796 15.6032 61.1533C13.4156 59.5074 11.1842 57.313 9.85193 54.6677C12.5603 56.1451 15.8609 57.5791 20.0441 58.6492C21.7547 61.3054 24.7701 63.2934 28.0377 64.6296Z" fill="#A62C25"/>
<path d="M61.2191 54.6677C59.5688 57.9431 56.5424 60.5286 53.9272 62.2288C50.6267 63.326 46.9204 64.2168 42.8195 64.7166C46.1693 63.3803 49.2834 61.3597 51.0269 58.6492C55.2101 57.5846 58.5107 56.1451 61.2191 54.6677Z" fill="#A62C25"/>
<path d="M68.2975 50.1341C67.2997 52.9152 65.5891 55.6311 63.8182 57.8092C61.0659 59.3845 57.7709 60.9489 53.9276 62.2308C50.6271 63.328 46.9208 64.2188 42.8198 64.7185C40.5172 64.9956 38.0938 65.1531 35.5389 65.1531C32.8854 65.1531 30.3853 64.9684 28.0442 64.6316C23.2799 63.9581 19.146 62.6816 15.6097 61.1553C11.2894 59.2867 7.86277 57.0488 5.2695 55.0662C4.27166 53.5235 3.39445 51.8451 2.7804 50.1395C8.2301 53.806 16.3169 60.4165 35.5389 60.4165C54.761 60.4111 62.8533 53.8006 68.2975 50.1341Z" fill="#E95A1C"/>
<path d="M63.8173 57.8138C61.0651 59.3891 57.77 60.9534 53.9267 62.2353C50.6262 63.3326 46.92 64.2234 42.819 64.7231C40.5163 65.0002 38.093 65.1577 35.5381 65.1577C32.8845 65.1577 30.3844 64.973 28.0434 64.6362C23.279 63.9627 19.1451 62.6862 15.6088 61.1598C11.294 59.2913 7.86189 57.0534 5.26862 55.0708C3.18523 51.8334 1.61172 48.0148 1.91875 44.5982C2.53828 37.6889 11.9026 34.6525 20.0991 39.954C20.6857 40.3342 21.2723 40.7579 21.8425 41.225C21.9741 41.1164 22.1112 41.0023 22.2537 40.8937C25.5597 38.3244 30.2857 36.7166 35.5381 36.7166C40.7904 36.7166 45.5219 38.3244 48.8279 40.8937C48.965 41.0023 49.102 41.1109 49.2336 41.2196C49.8093 40.7524 50.3904 40.3288 50.9771 39.9485C59.1736 34.6471 68.5324 37.6835 69.1519 44.5927C69.5576 49.0414 66.7725 54.1745 63.8173 57.8138Z" fill="#FDF2E8"/>
<path d="M68.2973 50.1341C67.2994 52.9152 65.5889 55.6365 63.8235 57.8092C61.0712 59.3845 57.7761 60.9489 53.9328 62.2308C50.6323 63.3334 46.9261 64.2243 42.8251 64.7185C40.5224 64.9956 38.0991 65.1531 35.5442 65.1531C32.8906 65.1531 30.396 64.9684 28.0495 64.6316C23.2851 63.9581 19.1512 62.687 15.6149 61.1553C11.3001 59.2867 7.8735 57.0488 5.27475 55.0662C4.27691 53.5235 3.3997 51.8451 2.78564 50.1395C8.23535 53.806 16.3222 60.4165 35.5442 60.4165C54.7607 60.4111 62.853 53.8006 68.2973 50.1341Z" fill="#F9D3B7"/>
<path d="M28.0383 64.6315C23.2739 63.9579 19.1401 62.6815 15.6038 61.1551C11.3383 57.9503 6.89192 52.6326 9.32619 45.9786C10.6585 42.3447 15.1597 40.4544 15.1597 40.4544C15.1597 40.4544 17.9339 39.7156 20.094 39.9492C21.0041 40.047 21.8101 40.3186 22.2487 40.8889C22.5283 41.2529 22.6654 41.7417 22.5831 42.3827C22.1281 46.1524 18.7618 47.8525 18.6082 53.5994C18.4712 58.89 22.9559 62.5511 28.0383 64.6315Z" fill="#BB3B31"/>
<path d="M53.9272 62.236C50.6267 63.3333 46.9204 64.2241 42.8195 64.7238C47.9896 62.6597 52.6059 58.9715 52.4634 53.6048C52.3098 47.858 48.9435 46.1578 48.4885 42.3881C48.4117 41.7471 48.5433 41.2637 48.8229 40.8943C49.2615 40.324 50.0675 40.0524 50.9776 39.9492C53.1377 39.7156 55.9119 40.4544 55.9119 40.4544C55.9119 40.4544 60.4131 42.3447 61.7454 45.9786C64.4812 53.4473 58.549 59.2268 53.9272 62.236Z" fill="#BB3B31"/>
<path d="M28.0377 64.6296C23.2733 63.9561 19.1395 62.6796 15.6032 61.1533C13.4156 59.5074 11.1842 57.313 9.85193 54.6677C12.5603 56.1451 15.8609 57.5791 20.0441 58.6492C21.7547 61.3054 24.7701 63.2934 28.0377 64.6296Z" fill="#A62C25"/>
<path d="M61.2191 54.6677C59.5688 57.9431 56.5424 60.5286 53.9272 62.2288C50.6267 63.326 46.9204 64.2168 42.8195 64.7166C46.1693 63.3803 49.2834 61.3597 51.0269 58.6492C55.2101 57.5846 58.5107 56.1451 61.2191 54.6677Z" fill="#A62C25"/>
<path d="M27.4248 19.4003C27.4248 19.4003 24.7712 19.6773 22.2547 19.9761C19.5134 20.2966 17.6328 19.1124 17.7809 17.5317C17.9344 15.8805 20.3632 14.9896 23.0935 15.3699C26.7723 15.875 27.4248 19.4003 27.4248 19.4003Z" fill="#FDF2E8"/>
<path d="M43.6581 19.4003C43.6581 19.4003 46.3116 19.6773 48.8282 19.9761C51.5695 20.2966 53.45 19.1124 53.302 17.5317C53.1485 15.8805 50.7197 14.9896 47.9893 15.3699C44.305 15.875 43.6581 19.4003 43.6581 19.4003Z" fill="#FDF2E8"/>
<path d="M26.3494 35.6643C26.3494 39.4503 23.63 42.5193 20.2802 42.5193C16.9303 42.5193 14.2109 39.4503 14.2109 35.6643C14.2109 31.8783 16.9303 28.8093 20.2802 28.8093C23.6355 28.8093 26.3494 31.8783 26.3494 35.6643Z" fill="#650000"/>
<path d="M20.3244 35.0588C20.5766 36.4276 21.6677 37.3076 22.7587 37.0251C23.8552 36.7427 24.5406 35.401 24.2884 34.0322C24.0362 32.6634 22.9506 31.7834 21.8541 32.0659C20.7631 32.3483 20.0777 33.69 20.3244 35.0588Z" fill="white"/>
<g opacity="0.35">
<path d="M17.3309 39.1527C17.7366 40.1413 18.6961 40.6356 19.4746 40.25C20.2531 39.8643 20.5547 38.7508 20.149 37.7622C19.7433 36.7736 18.7838 36.2793 18.0053 36.665C17.2267 37.0452 16.9252 38.1641 17.3309 39.1527Z" fill="white"/>
</g>
<path d="M44.7328 35.6643C44.7328 39.4503 47.4522 42.5193 50.802 42.5193C54.1519 42.5193 56.8713 39.4503 56.8713 35.6643C56.8713 31.8783 54.1519 28.8093 50.802 28.8093C47.4467 28.8093 44.7328 31.8783 44.7328 35.6643Z" fill="#650000"/>
<path d="M50.7584 35.0588C50.5062 36.4276 49.4151 37.3076 48.3241 37.0251C47.2275 36.7427 46.5422 35.401 46.7944 34.0322C47.0466 32.6634 48.1322 31.7834 49.2287 32.0659C50.3197 32.3483 51.0051 33.69 50.7584 35.0588Z" fill="white"/>
<g opacity="0.35">
<path d="M53.7518 39.1527C53.346 40.1413 52.3866 40.6356 51.6081 40.25C50.8295 39.8643 50.528 38.7508 50.9337 37.7622C51.3394 36.7736 52.2989 36.2793 53.0774 36.665C53.8559 37.0452 54.1575 38.1641 53.7518 39.1527Z" fill="white"/>
</g>
<path d="M35.8123 43.6432L35.7301 43.6595V43.6324L35.8123 43.6432Z" fill="#512717"/>
<path d="M35.8953 43.6324V43.6595L35.8131 43.6432L35.8953 43.6324Z" fill="#512717"/>
<path d="M42.5782 42.0247C42.189 42.5298 41.5694 44.2789 40.1659 45.0393C38.543 45.9193 36.7886 45.1751 35.9662 44.1268C35.6098 43.6705 35.4783 42.997 35.4783 42.6113C35.4783 43.0024 35.3412 43.6759 34.9903 44.1268C34.1679 45.1805 32.4135 45.9247 30.7906 45.0393C29.3926 44.2789 28.773 42.5298 28.3783 42.0247C28.3783 42.0247 30.7303 37.2827 35.4783 37.2827C40.2317 37.2881 42.5782 42.0247 42.5782 42.0247Z" fill="#FDF2E8"/>
<path d="M36.9916 41.6055C36.9916 41.6055 36.6791 43.6588 38.1704 44.0553C39.87 44.5116 41.7012 42.0564 41.7012 42.0564C41.7012 42.0564 38.4445 43.8163 38.5542 41.2851C38.6583 38.7321 36.9916 41.6055 36.9916 41.6055Z" fill="#F9D3B7"/>
<path d="M33.9704 41.6055C33.9704 41.6055 34.2829 43.6588 32.7917 44.0553C31.0921 44.5116 29.2609 42.0564 29.2609 42.0564C29.2609 42.0564 32.5175 43.8163 32.4079 41.2851C32.2982 38.7321 33.9704 41.6055 33.9704 41.6055Z" fill="#F9D3B7"/>
<path d="M42.5776 42.0231C42.5173 42.2676 42.4735 42.5066 42.4186 42.7456C42.3638 42.9846 42.2925 43.2236 42.2158 43.468C42.0458 43.9406 41.8156 44.4186 41.4702 44.8477C41.1302 45.2768 40.6642 45.6733 40.1214 45.9123C39.5787 46.1568 38.9646 46.2708 38.3615 46.2437C37.7529 46.2274 37.1663 46.0536 36.6345 45.7874C36.0972 45.5212 35.6202 45.1519 35.22 44.6576C34.9952 44.3643 34.8472 44.0655 34.743 43.7667C34.6388 43.468 34.5676 43.1747 34.5401 42.8542C34.5347 42.7727 34.5292 42.6858 34.5292 42.5989V42.4197V42.0611C34.5292 41.8221 34.5237 41.5886 34.5292 41.3496V41.3279C34.5347 40.801 34.9733 40.3827 35.4996 40.3936C36.0259 40.399 36.4481 40.8281 36.4426 41.3496L36.4371 42.0611V42.4197V42.5989C36.4371 42.6858 36.4316 42.7727 36.4262 42.8542C36.3933 43.1801 36.322 43.468 36.2178 43.7667C36.1137 44.0601 35.9711 44.3588 35.7408 44.6521C35.3351 45.141 34.8636 45.5104 34.3263 45.7765C33.7945 46.0427 33.2079 46.2056 32.6048 46.2274C32.0017 46.2545 31.3876 46.1405 30.8504 45.8906C30.3131 45.6462 29.847 45.2551 29.5181 44.826C29.1782 44.3968 28.9479 43.9243 28.7724 43.4517C28.6847 43.2181 28.6189 42.9737 28.5586 42.7401C28.4983 42.5011 28.4545 42.2676 28.3832 42.0231C28.597 42.1698 28.767 42.3599 28.9424 42.5337L29.4358 43.0606C29.7593 43.4028 30.0773 43.7179 30.4063 43.9623C30.7407 44.2122 31.0642 44.3968 31.4205 44.5C31.7714 44.6087 32.1278 44.6467 32.4842 44.6033C32.8405 44.5652 33.1859 44.4294 33.4985 44.2502C33.811 44.0764 34.0851 43.8102 34.2715 43.5549C34.3976 43.3811 34.5182 43.0063 34.5292 42.6967V42.5935V42.4142V42.0557L34.5237 41.3441H36.4426C36.4481 41.5832 36.4426 41.8167 36.4426 42.0557V42.4142V42.5935C36.4426 42.6261 36.4426 42.6532 36.4481 42.6912C36.47 42.9954 36.5852 43.3702 36.7113 43.544C36.9031 43.7939 37.1718 44.0546 37.4843 44.2285C37.7968 44.4077 38.1422 44.5381 38.4931 44.5761C38.844 44.6195 39.2004 44.5815 39.5458 44.4675C39.8966 44.3534 40.2146 44.1796 40.5436 43.9243C40.8726 43.6798 41.1905 43.3648 41.514 43.028L42.0129 42.5066C42.1829 42.3545 42.3583 42.1644 42.5776 42.0231Z" fill="#650000"/>
<path d="M40.0228 39.7361C40.0228 40.9583 36.6016 42.5118 35.6202 42.5118C34.6059 42.5118 31.6618 41.0778 31.2177 39.7361C30.8229 38.5357 32.3307 37.5253 35.6202 37.5253C38.8166 37.5308 40.0228 38.5194 40.0228 39.7361Z" fill="#650000"/>
<g opacity="0.7">
<path d="M37.2329 38.5526C37.2329 38.8187 36.235 39.1555 35.5442 39.1555C34.8534 39.1555 33.8556 38.8187 33.8556 38.5526C33.8556 38.2864 34.4313 38.0746 35.5442 38.0746C36.6572 38.0746 37.2329 38.2919 37.2329 38.5526Z" fill="white"/>
</g>
</g>
</svg>
