<svg width="324" height="255" viewBox="0 0 324 255" fill="none" xmlns="http://www.w3.org/2000/svg">
<path d="M317.875 113.16C317.719 125.365 314.662 138.723 308.136 152.306C291.895 186.133 254.151 221.3 186.231 243.427C180.289 245.358 174.13 247.204 167.725 248.922C88.3177 225.332 46.2037 185.636 29.6227 148.275C27.8732 144.331 26.4027 140.402 25.2109 136.528C22.2904 127.077 20.9904 117.915 21.1 109.35C21.6798 64.0563 58.8693 27.807 104.163 28.3868C132.37 28.7479 150.157 39.7656 170.18 57.1639C190.642 40.2838 208.705 29.7251 236.912 30.0861C282.206 30.6866 318.455 67.8657 317.875 113.16Z" fill="#FF454E"/>
<path d="M308.147 152.305C291.906 186.133 254.162 221.299 186.241 243.427C180.299 245.358 174.141 247.204 167.736 248.922C88.318 225.332 46.204 185.636 29.623 148.274C27.8735 144.331 26.403 140.402 25.2112 136.528L148.516 119.547C165.504 152.517 235.522 229.203 307.422 153.175C307.663 152.889 307.905 152.592 308.147 152.305Z" fill="#E02D3E"/>
<g opacity="0.35">
<path d="M305.929 156.663C311.647 143.95 314.351 131.488 314.498 120.027C314.908 88.0035 296.903 60.0273 270.317 46.1761C268.891 50.1615 261.838 51.5505 254.398 49.2621C246.865 46.9415 241.77 41.745 243.002 37.6124C239.904 37.2106 236.73 36.9941 233.524 36.9531C205.317 36.592 187.254 47.1508 166.792 64.0308C146.769 46.6326 128.982 35.6148 100.776 35.2538C69.4452 34.8527 41.9963 52.0674 27.8572 77.708C40.6372 48.3258 70.1025 27.9505 104.153 28.3864C132.36 28.7475 150.147 39.7652 170.17 57.1635C190.632 40.2835 208.695 29.7247 236.902 30.0858C282.196 30.6656 318.445 67.855 317.865 113.149C317.702 126.679 313.973 141.6 305.929 156.663Z" fill="white"/>
</g>
<path d="M130.563 170.744C182.565 158.054 187.788 133.903 194.625 125.062C200.573 116.211 209.847 114.291 217.525 117.369C225.81 120.692 230.471 130.766 226.777 143.744C221.283 163.195 192.546 200.194 149.229 205.205" fill="#FD9D24"/>
<path d="M130.563 170.734L134.08 177.234L149.219 205.205C192.546 200.183 221.273 163.194 226.777 143.744C230.471 130.766 225.81 120.692 217.525 117.369C209.847 114.291 200.573 116.211 194.625 125.062C191.07 129.652 187.958 138.374 178.49 147.481C169.733 155.893 155.541 164.65 130.563 170.734Z" fill="#FF8A42"/>
<path d="M226.777 143.744C221.283 163.195 192.546 200.193 149.229 205.205L138.698 185.755L134.08 177.234L130.552 170.733C155.542 164.639 169.733 155.893 178.49 147.47C184.041 142.131 187.408 136.919 189.956 132.596C191.764 129.547 193.153 126.947 194.626 125.052C200.584 116.211 209.857 114.281 217.525 117.359C225.81 120.692 230.471 130.766 226.777 143.744Z" fill="#FF8A42"/>
<path d="M189.956 132.607C187.23 160.555 165.575 177.71 138.698 185.756L134.08 177.234L130.553 170.734C155.542 164.64 169.734 155.893 178.49 147.471C184.041 142.131 187.408 136.929 189.956 132.607Z" fill="#EA5A1B"/>
<path d="M188.741 134.629C189.283 151.25 208.288 159.283 220.179 158.101C223.381 152.845 225.617 147.898 226.787 143.754C227.188 142.352 227.485 140.99 227.688 139.669C229.432 128.684 224.925 120.34 217.535 117.369C209.857 114.291 200.584 116.221 194.636 125.062C192.838 127.357 191.16 130.708 188.741 134.629Z" fill="#9B4635"/>
<path d="M227.678 139.669C227.474 140.99 227.167 142.352 226.777 143.754C221.619 161.988 196.039 195.655 157.149 203.92C154.94 195.46 153.988 189.872 154.34 189.794C156.913 189.206 161.675 192.991 181.923 185.584C200.008 178.967 222.442 158.306 227.678 139.669Z" fill="#EA5A1B"/>
<path d="M149.198 206.849C148.38 206.839 147.685 206.23 147.592 205.39C147.49 204.489 148.131 203.67 149.033 203.567C172.8 200.82 190.451 188.507 201.067 178.671C215.19 165.589 222.892 151.432 225.19 143.289C228.407 131.971 225.077 122.162 216.905 118.882C209.176 115.783 200.967 118.564 195.979 125.969C195.958 126 195.937 126.031 195.916 126.061C194.864 127.424 193.806 129.241 192.59 131.347C186.041 142.643 175.092 161.558 130.946 172.331C130.064 172.548 129.17 172.009 128.954 171.127C128.738 170.244 129.277 169.351 130.159 169.135C172.946 158.696 183.461 140.54 189.735 129.696C191.004 127.509 192.094 125.619 193.272 124.093C199.156 115.375 208.912 112.138 218.113 115.835C227.932 119.778 232.038 131.169 228.333 144.187C222.883 163.473 194.131 201.652 149.384 206.831C149.342 206.851 149.27 206.85 149.198 206.849Z" fill="#650000"/>
<path d="M208.676 148.384C213.491 148.445 217.445 144.591 217.507 139.776C217.568 134.96 213.714 131.006 208.899 130.945C204.083 130.883 200.129 134.737 200.068 139.553C200.006 144.368 203.86 148.322 208.676 148.384Z" fill="white"/>
<path d="M220.589 135.75C222.491 135.775 224.053 134.252 224.078 132.35C224.102 130.448 222.58 128.886 220.677 128.861C218.775 128.837 217.213 130.359 217.189 132.262C217.164 134.164 218.687 135.726 220.589 135.75Z" fill="white"/>
<path d="M204.659 129.97C206.562 129.994 208.124 128.472 208.148 126.57C208.172 124.667 206.65 123.106 204.748 123.081C202.845 123.057 201.283 124.579 201.259 126.481C201.235 128.384 202.757 129.946 204.659 129.97Z" fill="white"/>
<path d="M213.981 129.116C215.883 129.141 217.445 127.618 217.469 125.716C217.494 123.814 215.971 122.252 214.069 122.228C212.167 122.203 210.605 123.726 210.58 125.628C210.556 127.53 212.078 129.092 213.981 129.116Z" fill="white"/>
<path d="M186.231 243.427C180.288 245.358 174.13 247.203 167.725 248.921C141.167 241.029 118.78 231.339 100.121 220.538C62.998 199.041 40.6633 173.141 29.6226 148.274C56.5047 129.273 116.637 133.612 153.3 186.169C159.445 195.869 165.294 205.275 170.399 213.803C177.691 226.021 183.423 236.46 186.231 243.427Z" fill="#FF8A42"/>
<path d="M150.016 181.679C119.985 194.526 79.6154 193.958 52.4671 182.841C50.7025 180.884 49.0206 178.927 47.4217 176.952L44.645 155.46L51.5127 139.41C80.6245 133.72 121.477 144.299 150.016 181.679Z" fill="#EA5A1B"/>
<path d="M54.7217 161.093L40.6481 167.886L58.4596 189.125L78.5723 173.637L54.7217 161.093Z" fill="#650000"/>
<path d="M186.231 243.427C180.288 245.358 174.13 247.204 167.725 248.922C141.167 241.03 118.78 231.339 100.121 220.538C114.251 224.681 139.182 230.421 159.663 226.566C169.12 224.784 170.81 218.836 170.399 213.813C177.691 226.021 183.423 236.46 186.231 243.427Z" fill="#EA5A1B"/>
<path d="M186.231 243.428C180.289 245.358 174.13 247.204 167.725 248.922C146.825 242.716 128.504 235.395 112.563 227.287C112.316 227.16 112.24 225.835 112.463 223.758C126.398 226.947 144.284 229.452 159.653 226.566C169.11 224.784 170.8 218.846 170.389 213.813C177.691 226.021 183.434 236.46 186.231 243.428Z" fill="#F9D3B7"/>
<path d="M186.231 243.427C180.288 245.358 174.13 247.203 167.725 248.921C146.825 242.715 128.504 235.394 112.562 227.287C111.349 226.671 114.331 198.25 134.716 192.138C156.079 185.728 165.445 205.587 168.798 211.144C176.842 224.499 183.223 235.95 186.231 243.427Z" fill="#9B4635"/>
<path d="M186.231 243.428C180.289 245.358 174.13 247.204 167.725 248.922C146.825 242.716 128.504 235.395 112.563 227.287C112.316 227.16 112.24 225.835 112.463 223.758C126.398 226.947 144.284 229.452 159.653 226.566C169.11 224.784 170.8 218.846 170.389 213.813C177.691 226.021 183.434 236.46 186.231 243.428Z" fill="#873A2D"/>
<path d="M153.3 186.169C159.52 194.845 166.069 204.561 171.85 213.583C177.74 223.011 183.735 232.336 187.759 242.805L184.712 244.039C175.515 224.648 163.735 205.017 153.3 186.169Z" fill="#650000"/>
<path d="M167.704 250.587C167.549 250.585 167.394 250.562 167.25 250.519C141.33 242.822 118.107 233.007 98.2068 221.352C80.104 210.744 64.6799 198.577 52.3544 185.187C30.795 161.749 19.098 134.815 19.4243 109.329C20.015 63.1865 58.0321 26.1202 104.185 26.711C132.019 27.0673 150.214 37.7592 170.208 54.9709C190.636 38.2766 209.099 28.054 236.933 28.4103C283.075 29.001 320.142 67.0182 319.551 113.171C319.225 138.657 306.842 165.282 284.69 188.162C272.036 201.231 256.295 212.999 237.927 223.14C217.745 234.282 194.268 243.499 168.16 250.531C168.014 250.57 167.859 250.589 167.704 250.587ZM104.142 30.0726C59.8406 29.5055 23.3425 65.0809 22.7754 109.382C22.4602 134.01 33.8469 160.132 54.8247 182.933C80.1798 210.486 119.228 232.7 167.747 247.184C216.632 233.947 256.226 212.75 282.278 185.844C303.833 163.589 315.884 137.766 316.2 113.138C316.767 68.8371 281.191 32.3391 236.89 31.772C209.469 31.4209 192.056 41.2949 171.25 58.4706C170.622 58.9901 169.702 58.9783 169.088 58.4429C148.717 40.7401 131.562 30.4236 104.142 30.0726Z" fill="#512717"/>
<path d="M167.704 250.587C167.549 250.585 167.394 250.563 167.25 250.519C127.901 238.832 95.2848 222.525 70.2943 202.052C48.9178 184.533 33.4152 163.955 25.4858 142.522C21.336 131.316 19.2962 120.149 19.4345 109.34C20.0252 63.1973 58.0424 26.1309 104.195 26.7217C124.303 26.9791 140.176 32.3549 157.294 44.6883C161.313 47.5846 165.44 50.8755 170.218 54.9816C190.646 38.2874 209.109 28.0648 236.943 28.4211C283.086 29.0117 320.152 67.0289 319.561 113.182C319.235 138.668 306.852 165.293 284.7 188.172C272.046 201.242 256.305 213.01 237.937 223.151C217.756 234.293 194.278 243.51 168.17 250.541C168.015 250.571 167.859 250.589 167.704 250.587ZM104.142 30.0729C59.8406 29.5058 23.3426 65.0812 22.7755 109.382C22.6424 119.778 24.6047 130.541 28.6146 141.362C38.6242 168.387 70.0071 218.022 167.748 247.174C216.633 233.937 256.226 212.74 282.278 185.834C303.833 163.579 315.884 137.756 316.2 113.128C316.767 68.827 281.191 32.329 236.89 31.7619C209.47 31.4109 192.056 41.2849 171.25 58.4605C170.622 58.9801 169.702 58.9683 169.088 58.4328C163.931 53.9494 159.559 50.4485 155.335 47.4047C138.811 35.5031 123.505 30.3207 104.142 30.0729Z" fill="#650000"/>
<path d="M68.3465 198.251C68.3465 198.251 71.5687 192.22 78.5224 192.081C86.0142 191.939 101.107 199.26 100.609 209.092C100.191 217.498 93.6238 222.183 86.3998 220.807C80.3097 219.747 73.8796 214.543 71.9917 210.091C70.5757 206.753 70.6696 204.271 71.3693 200.525L68.3465 198.251Z" fill="white"/>
<path d="M100.619 209.093C100.44 212.577 99.214 215.427 97.305 217.471C94.6302 220.344 90.631 221.617 86.3998 220.808C80.3097 219.747 73.8899 214.544 71.9917 210.092C70.5757 206.753 70.6696 204.271 71.3693 200.525L68.3465 198.252C68.3465 198.252 71.5688 192.21 78.5224 192.082C79.1743 192.069 79.8876 192.109 80.6519 192.212C88.5527 193.245 101.075 200.119 100.619 209.093Z" fill="#9B4635"/>
<path d="M97.3152 217.46C94.6404 220.333 90.6412 221.606 86.41 220.797C80.32 219.736 73.9001 214.533 72.0019 210.081C70.586 206.742 70.6798 204.26 71.3795 200.514L68.3568 198.241C68.3568 198.241 71.5791 192.199 78.5327 192.071C79.1846 192.059 79.8979 192.099 80.6621 192.202C78.2039 195.129 72.1022 203.865 79.6206 211.337C84.7484 216.451 91.7878 218.507 97.3152 217.46Z" fill="#873A2D"/>
<path d="M88.7341 222.689C87.8653 222.678 86.9871 222.584 86.0996 222.417C79.8753 221.334 72.7126 215.977 70.4831 210.734C69.0468 207.364 69.0189 204.695 69.5805 201.236L67.3569 199.573C66.7113 199.089 66.5158 198.197 66.8973 197.488C67.0457 197.21 70.6581 190.594 78.4913 190.446C83.6861 190.327 92.5926 193.617 97.9021 199.085C100.924 202.206 102.431 205.702 102.263 209.186C102.04 213.662 100.191 217.477 97.0558 219.94C94.6942 221.782 91.8061 222.728 88.7341 222.689ZM70.5857 197.866L72.3687 199.203C72.8707 199.582 73.111 200.205 72.9996 200.825C72.3446 204.313 72.265 206.495 73.5203 209.449C75.1371 213.256 80.9501 218.182 86.6995 219.187C89.8161 219.785 92.773 219.12 95.0407 217.338C97.4129 215.476 98.8164 212.514 98.9854 209.009C99.1116 206.425 97.9548 203.855 95.5555 201.372C91.0118 196.69 83.1059 193.63 78.5735 193.727C74.4034 193.798 71.7951 196.33 70.5857 197.866Z" fill="#650000"/>
<path d="M75.6868 195.397C75.5093 196.336 74.8784 197.135 74.4435 197.967C73.0798 200.246 72.25 202.843 72.4852 205.484L69.2092 205.214C69.8376 202.191 71.5583 199.503 73.7983 197.462C74.4586 196.788 75.2519 196.239 75.6868 195.397Z" fill="#650000"/>
<path d="M93.0752 210.072C92.3007 215.617 87.3605 220.903 81.439 220.413L81.7807 217.966C86.8763 219.127 91.6601 214.751 93.0752 210.072Z" fill="#650000"/>
<path d="M84.992 206.295C83.5409 210.559 79.0735 215.271 74.1855 214.857L74.5995 212.421C78.528 213.433 83.191 209.603 84.992 206.295Z" fill="#650000"/>
<path d="M158.26 83.9911L126.195 69.0354L89.1426 51.7605C101.661 29.8751 130.3 2.1649 142.202 5.77256C144.459 6.46354 146.674 8.77819 148.728 12.3529C156.44 25.7452 161.869 56.633 158.26 83.9911Z" fill="#FFFEFF"/>
<path d="M158.26 83.9911L126.195 69.0353C128.736 49.9292 136.035 5.87975 148.728 12.3528C156.44 25.7451 161.869 56.6329 158.26 83.9911Z" fill="#FFE4D2"/>
<g opacity="0.5">
<path d="M149.598 13.9576C148.112 12.0143 146.556 10.753 144.979 10.2673C133.52 6.77909 106.565 32.328 93.4001 53.7602L89.1426 51.7712C101.661 29.8859 130.3 2.17564 142.202 5.7833C144.778 6.56113 147.307 9.49015 149.598 13.9576Z" fill="white"/>
</g>
<path d="M158.239 85.6359C158.177 85.6351 158.105 85.6342 158.043 85.623C157.144 85.5081 156.513 84.6827 156.628 83.7738C161.336 48.1329 150.764 10.1031 141.727 7.35976C131.04 4.1194 102.951 30.9366 90.5701 52.5858C90.1152 53.3765 89.1186 53.6431 88.3277 53.1985C87.537 52.7435 87.2704 51.747 87.715 50.9561C93.9267 40.0904 104.309 27.4677 114.796 18.0016C121.683 11.7792 134.474 1.7219 142.677 4.21665C155.157 8.00756 164.325 50.6229 159.892 84.2087C159.778 85.0452 159.067 85.6465 158.239 85.6359Z" fill="#650000"/>
<path d="M149.806 59.1058C142.394 53.0521 136.485 49.1384 131.482 46.3536C127.096 43.9284 123.423 42.3813 120.047 41.045C119.886 37.3911 136.673 12.6637 141.644 17.8379C143.135 19.388 144.55 21.9511 145.803 25.1224C149.691 34.9277 151.986 50.4645 149.806 59.1058Z" fill="#9B4635"/>
<path d="M145.803 25.1225C143.917 23.7018 141.206 22.136 139.352 23.1364C136.196 24.834 131.984 37.8771 131.472 46.3536C127.085 43.9284 123.412 42.3813 120.036 41.045C119.876 37.3911 136.662 12.6637 141.634 17.8379C143.135 19.3882 144.55 21.9512 145.803 25.1225Z" fill="#873A2D"/>
<path d="M150.762 62.0045L148.765 60.3754C135.169 49.2665 126.828 45.4872 119.447 42.5788L118.459 42.1834L118.411 41.1172C118.235 37.101 130.611 19.0209 137.602 16.0172C140.431 14.8017 142.103 15.9197 142.838 16.6843C149.586 23.7019 154.39 47.7022 151.404 59.4885L150.762 62.0045ZM121.942 40.0348C128.848 42.8233 136.734 46.6175 148.696 56.102C150.349 44.1745 145.514 24.2291 140.46 18.9712C140.348 18.8559 140.093 18.5837 139.106 18.9538C133.492 21.0544 123.655 35.5152 121.942 40.0348Z" fill="#650000"/>
<path d="M80.2042 46.1529L45.5152 89.1069L30.5253 107.671C13.7906 83.942 4.56796 52.0125 6.7536 37.2469C7.20627 34.2112 8.13581 31.9058 9.58095 30.538C19.0258 21.669 58.476 32.6743 80.2042 46.1529Z" fill="#FFFEFF"/>
<path d="M45.5047 89.1167L30.5148 107.681C13.7801 83.9518 4.55745 52.0223 6.74309 37.2567C9.62737 32.5658 14.7756 28.8144 21.7579 41.7938C28.9829 55.2213 39.508 76.7188 45.5047 89.1167Z" fill="#FFE4D2"/>
<g opacity="0.5">
<path d="M80.2042 46.1527L78.0178 48.8559C55.7687 36.4672 17.443 28.1349 10.5208 33.0844C4.8932 37.1091 8.5434 58.2496 13.5341 74.8865C6.01527 54.5137 4.08347 35.7124 9.5808 30.5482C19.0258 21.6688 58.476 32.6741 80.2042 46.1527Z" fill="white"/>
</g>
<path d="M30.4939 109.315C29.9871 109.308 29.4833 109.064 29.1684 108.615C9.59876 80.8671 -1.4473 38.6415 8.44792 29.3437C18.94 19.4846 59.8965 31.6162 81.0705 44.7463C81.8403 45.2217 82.0756 46.2385 81.6002 47.0083C81.1248 47.7781 80.1078 48.0237 79.3382 47.538C57.8152 34.1862 19.2271 23.7298 10.7036 31.7313C3.52049 38.4775 11.1031 77.2966 31.8618 106.715C32.3902 107.456 32.2115 108.489 31.4703 109.007C31.1675 109.23 30.8249 109.319 30.4939 109.315Z" fill="#650000"/>
<path d="M48.0513 171.404C63.1375 181.684 82.6365 184.24 100.494 183.31C102.854 183.185 109.613 184.492 111.903 184.253C119.664 183.287 122.453 180.364 129.129 178.525C150.515 172.653 166.366 162.78 176.845 151.504C175.654 152.45 126.81 190.754 48.0513 171.404Z" fill="#F9D3B7"/>
<path d="M173.869 88.236C185.334 104.18 197.013 107.495 197.013 107.495C197.013 107.495 193.457 132.33 186.868 141.132C176.332 155.191 164.467 75.1635 173.869 88.236Z" fill="#FF8A42"/>
<path d="M184.229 144.429C183.753 144.423 183.341 144.325 183.011 144.217C179.293 142.959 175.858 135.663 172.778 122.547C170.325 112.098 168.73 100.171 168.802 92.8887C168.854 88.0271 169.596 85.8124 171.362 85.2453C173.294 84.6286 174.727 86.6126 175.195 87.2703C186.142 102.483 197.344 105.875 197.457 105.908C198.24 106.135 198.748 106.907 198.634 107.723C198.486 108.755 194.947 133.083 188.18 142.111C186.78 143.986 185.336 144.443 184.229 144.429ZM172.4 89.0139C171.752 91.9643 172.037 101.227 174.367 113.992C176.89 127.824 180.6 138.621 183.592 140.842C184.043 141.179 184.515 141.526 185.546 140.143C190.966 132.908 194.335 113.792 195.178 108.589C191.658 107.189 182.036 102.4 172.532 89.2018C172.492 89.1289 172.441 89.0662 172.4 89.0139Z" fill="#650000"/>
<path d="M27.4453 143.012C38.001 168.596 53.1303 189.242 117.266 182.304C201.799 169.224 198.099 122.882 184.709 105.32C181.64 88.1076 174.964 62.4696 156.305 46.0405C141.247 35.1922 125.75 28.6729 104.163 28.3966C58.8693 27.8167 21.6798 64.0661 21.1 109.36C20.9696 119.549 22.8352 130.59 27.0452 141.941" fill="#FF8A42"/>
<path d="M156.614 167.332C169.674 161.333 177.4 154.232 181.934 147.524C182.086 146.16 182.094 144.795 181.956 143.448C178.621 147.792 173.495 152.971 165.735 157.91C163.831 161.186 160.821 164.375 156.614 167.332Z" fill="#8E381A"/>
<path d="M70.0596 173.527C70.8664 175.152 71.8385 176.798 72.9551 178.468C82.8028 180.156 93.484 180.572 104.916 179.725C105.548 179.682 106.19 179.628 106.842 179.574C100.754 179.155 96.5517 177.715 93.5494 175.463C84.8387 175.465 77.0373 174.744 70.0596 173.527Z" fill="#8E381A"/>
<path d="M41.0697 164.032C42.0623 165.689 43.1902 167.287 44.3811 168.812C47.011 170.253 49.849 171.603 52.9056 172.842C67.7049 178.866 85.2 181.18 104.926 179.726C108.758 179.444 112.725 179.008 116.726 178.439C173.654 169.629 185.643 146.32 187.725 133.208C187.725 133.208 178.176 167.173 113.199 174.348C78.9802 178.131 55.8684 171.721 41.0697 164.032Z" fill="#F9D3B7"/>
<path d="M180.983 145.081C180.224 150.213 178.661 155.096 176.862 159.098C173.503 162.055 169.504 164.9 164.763 167.56C167.913 162.335 169.433 157.544 169.81 153.183C173.949 150.691 177.656 147.976 180.983 145.081Z" fill="#A82B26"/>
<path d="M117.266 182.304C88.6509 186.366 67.2601 182.895 51.4316 176.465C41.7403 167.403 32.3312 154.082 37.9802 139.495C49.9839 108.53 83.4964 138.081 99.8111 133.21C112.605 129.402 116.412 119.695 131.775 118.091C142.051 117.023 143.335 122.564 153.173 123.403C164.923 124.402 176.129 107.259 184.811 105.466C198.116 123.141 201.56 169.262 117.266 182.304Z" fill="#FFFEFF"/>
<path d="M41.0697 164.032C42.0623 165.689 43.1902 167.287 44.3811 168.812C47.011 170.253 49.849 171.603 52.9056 172.842C67.7049 178.866 85.2 181.18 104.926 179.726C108.758 179.444 112.725 179.008 116.726 178.439C173.654 169.629 185.643 146.32 187.725 133.208C187.725 133.208 178.176 167.173 113.199 174.348C78.9802 178.131 55.8684 171.721 41.0697 164.032Z" fill="#FFE4D2"/>
<path d="M129.572 178.604C129.797 178.865 130.031 179.116 130.266 179.357C130.409 179.504 130.552 179.651 130.695 179.797C152.596 174.936 167.319 167.531 176.841 159.118C176.851 159.108 176.862 159.098 176.872 159.088C190.342 142.873 176.315 119.376 149.395 122.776C158.476 126.161 166.297 131.765 168.15 147.027C169.498 158.124 159.508 169.955 134.618 177.23C132.998 177.716 131.316 178.171 129.572 178.604Z" fill="#9B4635"/>
<path d="M76.2806 182.917C87.9401 184.494 101.512 184.544 117.266 182.304C121.122 181.712 124.782 181.045 128.278 180.314C128.975 179.971 129.641 179.659 130.266 179.357C132.244 178.399 133.774 177.653 134.607 177.24C135.076 177.008 135.336 176.877 135.326 176.866C97.6607 183.988 90.0745 176.97 86.6056 163.487C82.3084 146.818 97.8333 137.375 107.844 129.578C69.0144 137.968 56.1018 158.307 76.2806 182.917Z" fill="#9B4635"/>
<path d="M156.614 167.332C169.674 161.333 177.4 154.232 181.934 147.524C182.086 146.16 182.094 144.795 181.956 143.448C178.621 147.792 173.495 152.971 165.735 157.91C163.831 161.186 160.821 164.375 156.614 167.332Z" fill="#873A2D"/>
<path d="M70.0596 173.527C70.8664 175.152 71.8385 176.798 72.9551 178.468C82.8028 180.156 93.484 180.572 104.916 179.725C105.548 179.682 106.19 179.628 106.842 179.574C100.754 179.155 96.5517 177.715 93.5494 175.463C84.8387 175.465 77.0373 174.744 70.0596 173.527Z" fill="#873A2D"/>
<path d="M66.0449 35.3883C87.701 24.5962 113.933 24.032 136.362 32.8952C143.834 35.9289 150.785 40.0525 157.274 44.7082C158.576 45.6352 157.856 47.7261 156.294 47.6854L157.396 44.8028C161.682 48.6027 165.454 52.9649 168.684 57.6512C178.353 71.6996 183.363 88.4402 186.337 105.02C186.347 105.041 186.025 104.313 186.025 104.313C189.912 109.421 192.338 115.473 193.333 121.745C194.733 130.391 193.148 139.495 188.942 147.169C178.902 165.372 158.522 174.298 139.428 179.712C138.005 180.097 134.186 181.021 132.713 181.405L128.2 182.361C123.678 183.276 119.125 184.2 114.516 184.607C93.2427 186.486 70.1543 187.132 50.947 176.334C42.7314 171.605 36.1418 164.31 31.6129 156.048C20.207 135.471 14.2252 106.552 25.1913 84.7188C24.2239 90.7894 23.3928 96.7169 23.0165 102.681C21.9138 116.085 24.1717 129.614 29.0497 142.122C32.9629 151.607 37.9721 161.137 45.8207 167.868C59.5002 179.744 78.5934 181.675 96.0677 181.578C105.07 181.414 114.108 180.919 122.954 179.242C127.039 178.519 132.122 177.405 136.16 176.349C154.273 171.584 173.991 163.519 184.514 147.236C189.14 139.826 191.136 130.955 189.799 122.289C188.983 116.548 186.82 110.923 183.393 106.296C180.958 95.3096 178.597 84.1376 173.907 73.8876C169.515 63.8897 163.417 54.532 155.223 47.2785C154.067 46.3223 154.847 44.3357 156.326 44.396L155.346 47.3732C149.022 42.8231 142.296 38.8473 135.123 35.9415C113.59 27.4311 88.3097 27.9558 67.4968 38.3346C67.5072 38.3347 66.0449 35.3883 66.0449 35.3883Z" fill="#650000"/>
<path d="M46.4436 51.3375C41.0189 57.2993 34.7363 64.8123 26.9702 81.5341C26.3276 80.8224 25.6862 80.0176 25.0768 79.1305C20.7593 72.9405 17.2055 62.8602 15.7127 54.2132C14.7781 48.8321 14.6434 43.9992 15.6232 41.0013C17.8953 34.0267 44.924 48.018 46.4436 51.3375Z" fill="#9B4635"/>
<path d="M46.4437 51.3381C41.0189 57.2999 34.7363 64.8128 26.9703 81.5347C26.3277 80.823 25.6862 80.0182 25.0769 79.131C24.9408 72.7877 28.9058 65.2968 30.0526 59.7561C32.4346 48.2414 23.0917 42.6802 20.1229 44.2768C18.3625 45.2163 16.4615 51.4819 15.7126 54.2241C14.778 48.843 14.6433 44.0101 15.6231 41.0122C17.8954 34.0272 44.9241 48.0185 46.4437 51.3381Z" fill="#873A2D"/>
<path d="M26.9595 83.1793C26.5044 83.1735 26.0723 82.9817 25.7664 82.6364C17.5545 73.5724 10.9983 49.9324 14.078 40.4853C14.4979 39.1976 15.656 37.6296 18.7928 37.4525C26.8264 37.007 46.2515 46.9491 47.9524 50.6538C48.224 51.2573 48.1219 51.9595 47.6708 52.4502C42.12 58.5553 36.0674 65.8849 28.4819 82.2367C28.2479 82.7406 27.7779 83.0863 27.2389 83.1725C27.1355 83.1712 27.0422 83.1803 26.9595 83.1793ZM17.1996 41.4977C14.895 48.5857 19.5724 68.6842 26.6165 78.4575C33.4506 64.2272 39.0871 57.0785 44.2716 51.2998C40.5979 48.1596 24.8321 40.054 18.647 40.7611C17.3935 40.9002 17.2534 41.3329 17.1996 41.4977Z" fill="#650000"/>
<path d="M76.6512 71.577C76.6512 71.577 83.8735 56.9172 90.2571 58.4886C96.6406 60.06 96.7713 66.8275 93.4495 69.3298C88.6442 72.9616 76.6512 71.577 76.6512 71.577Z" fill="#FFF3E9"/>
<path d="M155.15 59.4437C155.15 59.4437 146.744 47.8115 141.438 50.1127C136.143 52.4139 137.02 58.2909 140.257 59.9668C144.964 62.3961 155.15 59.4437 155.15 59.4437Z" fill="#FFF3E9"/>
<path d="M142.711 118.748C143.328 122.336 139.875 126.202 137.123 128.639C135.218 130.322 132.522 130.794 130.166 129.833C126.759 128.455 122.218 125.966 121.592 122.378C120.591 116.551 141.71 112.922 142.711 118.748Z" fill="#650000"/>
<g opacity="0.35">
<path d="M137.482 118.35C137.597 119.014 136.221 119.855 135.138 120.4C134.388 120.783 133.393 120.946 132.567 120.843C131.369 120.682 129.79 120.352 129.675 119.688C129.482 118.61 137.299 117.272 137.482 118.35Z" fill="white"/>
</g>
<path d="M53.486 45.1067C70.2916 32.5973 79.2691 30.3328 98.1682 19.1433C102.89 16.3485 110.759 9.38344 110.759 9.38344C110.759 9.38344 114.334 18.6157 113.784 24.4537C125.545 22.1214 130.546 26.5925 146.975 24.0924C144.768 29.2781 139.522 36.5767 130.356 37.4318" fill="#FF8A42"/>
<path d="M53.4856 45.107C64.9297 34.4221 79.3216 27.8199 92.7347 20.0982C94.5168 19.0762 96.3612 18.0342 98.1132 16.9394C99.8447 15.8339 101.474 14.5927 103.125 13.3414C105.361 11.6216 107.577 9.8396 109.772 8.06764C110.609 7.36453 111.959 7.75425 112.297 8.78276C112.778 10.0614 113.186 11.2977 113.573 12.5647C114.713 16.4898 115.717 20.4442 115.426 24.5992L113.473 22.8362C119.044 21.5937 125.015 22.2391 130.542 22.8789C135.986 23.4658 141.368 23.3071 146.768 22.4659C148.002 22.2437 149.04 23.6122 148.508 24.7434C147.592 27.6076 145.801 30.1193 143.634 32.1709C140.124 35.5813 135.296 37.7437 130.376 37.4427C131.289 37.2062 132.183 36.9383 133.035 36.5974C139.19 34.2451 142.536 29.0119 145.483 23.4632L147.244 25.7307C141.656 26.6109 135.84 26.7744 130.22 26.1645C127.42 25.8907 124.694 25.5144 122.026 25.4389C119.358 25.3427 116.728 25.5573 114.114 26.0825C113.222 26.2573 112.36 25.6876 112.186 24.7957C112.415 19.7915 110.939 14.6828 109.24 9.99539L111.86 10.6289C108.174 14.0681 104.367 17.3298 100.183 20.1522C92.3205 24.9759 83.9824 29.0072 75.6862 32.9977C68.0463 36.6345 60.7529 40.6792 53.4856 45.107Z" fill="#650000"/>
<path d="M124.468 145.04C120.907 152.485 108.65 151.49 106.728 143.22C106.62 142.774 106.895 142.332 107.341 142.224C107.756 142.126 108.167 142.359 108.307 142.744C110.58 149.456 120.014 150.27 124.468 145.04Z" fill="#650000"/>
<path d="M110.611 142.142C109.642 142.657 108.831 143.019 108.047 143.63C107.264 144.199 106.695 145.009 106.003 145.745C104.961 143.104 108.304 140.519 110.611 142.142Z" fill="#650000"/>
<path d="M94.4712 136.301C102.848 134.492 107.946 125.186 105.858 115.514C103.77 105.842 95.2868 99.4665 86.9103 101.275C78.5337 103.083 73.4357 112.39 75.5236 122.062C77.6115 131.734 86.0946 138.109 94.4712 136.301Z" fill="#650000"/>
<path d="M86.5944 124.518C89.2191 123.952 90.7653 120.799 90.0481 117.476C89.3308 114.154 86.6216 111.919 83.997 112.486C81.3723 113.052 79.8261 116.205 80.5433 119.528C81.2606 122.851 83.9698 125.085 86.5944 124.518Z" fill="white"/>
<g opacity="0.2">
<path d="M97.5127 127.879C99.026 127.552 99.8434 125.391 99.3383 123.051C98.8332 120.711 97.1969 119.079 95.6835 119.406C94.1702 119.732 93.3528 121.894 93.8579 124.234C94.363 126.574 95.9993 128.206 97.5127 127.879Z" fill="white"/>
</g>
<path d="M160.63 123.945C169.006 122.137 174.104 112.83 172.016 103.158C169.929 93.486 161.445 87.1111 153.069 88.9193C144.692 90.7275 139.594 100.034 141.682 109.706C143.77 119.378 152.253 125.753 160.63 123.945Z" fill="#650000"/>
<path d="M152.763 112.161C155.388 111.594 156.934 108.442 156.217 105.119C155.5 101.796 152.791 99.5618 150.166 100.128C147.541 100.695 145.995 103.848 146.712 107.171C147.43 110.493 150.139 112.728 152.763 112.161Z" fill="white"/>
<g opacity="0.2">
<path d="M163.672 115.523C165.185 115.197 166.003 113.035 165.497 110.695C164.992 108.355 163.356 106.723 161.843 107.05C160.329 107.377 159.512 109.538 160.017 111.878C160.522 114.218 162.158 115.85 163.672 115.523Z" fill="white"/>
</g>
<path d="M135.143 129.722C135.078 132.39 133.408 135.151 133.16 135.158C132.994 135.167 132.787 131.916 131.642 130.049" fill="#650000"/>
<path d="M140.055 3.82086C140.975 3.83264 141.853 3.95768 142.688 4.20631C150.664 6.62573 157.289 24.9284 159.877 46.5933C163.094 49.0139 166.452 51.7466 170.218 54.9812C179.596 47.3216 188.563 41.0224 198.211 36.4802C198.856 36.1781 199.501 35.8864 200.147 35.5946C201.551 34.9712 202.976 34.3894 204.421 33.8389C205.294 33.5087 206.167 33.1889 207.05 32.8898C208.682 32.3314 210.343 31.8354 212.035 31.3812C212.804 31.1737 213.572 30.9767 214.35 30.7901C215.108 30.6032 215.875 30.4372 216.653 30.2713C220.688 29.4332 224.896 28.856 229.348 28.582C231.801 28.4375 234.326 28.3767 236.933 28.4101C283.075 29.0008 320.142 67.018 319.551 113.171C319.224 138.657 306.842 165.282 284.69 188.161C272.036 201.231 256.295 212.999 237.926 223.14C217.745 234.282 194.268 243.499 168.16 250.531C168.014 250.57 167.859 250.589 167.704 250.587C167.549 250.585 167.394 250.562 167.249 250.519C165.776 250.076 164.312 249.633 162.849 249.18C162.468 249.061 162.097 248.943 161.716 248.824C160.541 248.457 159.367 248.08 158.202 247.703C157.914 247.606 157.625 247.52 157.337 247.423C134.569 239.993 114.222 230.929 96.4816 220.336C94.2269 221.911 91.5681 222.725 88.734 222.689C87.8651 222.678 86.987 222.584 86.0994 222.417C79.8751 221.334 72.7124 215.976 70.4829 210.734C69.6392 208.758 69.2891 207.015 69.2501 205.215C69.2191 205.214 69.2087 205.214 69.2087 205.214C69.2197 205.162 69.2412 205.101 69.2522 205.049C69.2359 203.901 69.3544 202.723 69.557 201.442C68.9531 200.938 68.3492 200.434 67.7453 199.93C67.5507 199.772 67.3667 199.604 67.1723 199.436C66.5481 198.9 65.9341 198.375 65.3306 197.84C65.0747 197.619 64.8189 197.399 64.5736 197.168C63.8883 196.559 63.2133 195.951 62.5486 195.342C62.0374 194.87 61.5365 194.398 61.0253 193.926C60.872 193.779 60.7084 193.632 60.5551 193.486C57.6931 190.78 54.9558 188.024 52.3643 185.198C45.3546 177.587 39.405 169.597 34.5544 161.414C34.5342 161.372 34.5037 161.33 34.4836 161.289C34.0684 160.59 33.6635 159.892 33.269 159.194C33.1983 159.058 33.1173 158.923 33.0464 158.798C32.6217 158.037 32.2073 157.277 31.7929 156.516C31.7625 156.464 31.7321 156.412 31.7121 156.36C31.3889 155.745 31.0657 155.131 30.7427 154.506C30.7225 154.464 30.7024 154.423 30.6822 154.381C30.3795 153.788 30.0768 153.184 29.7844 152.59C23.2373 139.554 18.929 123.754 19.4431 108.646C19.5438 104.013 20.0158 99.4669 20.8379 95.0497C6.71219 68.7369 0.0705296 37.2232 8.44754 29.344C11.2223 26.7415 16.119 25.6662 22.2217 25.7443C34.0029 25.8951 50.2604 30.3344 64.316 36.2663C64.8889 35.9632 65.4616 35.6706 66.0446 35.3884C66.0862 35.3682 66.1175 35.3479 66.1592 35.3277C66.1696 35.3175 66.18 35.3177 66.2008 35.3076C74.7345 29.7373 83.9383 25.1481 92.7448 20.0882C94.5269 19.0662 96.3713 18.0242 98.1233 16.9294C99.8548 15.8239 101.485 14.5827 103.135 13.3313C105.371 11.6116 107.587 9.82959 109.782 8.05763C110.075 7.8131 110.439 7.6936 110.801 7.69824C111.452 7.70658 112.088 8.10784 112.318 8.77287C112.798 10.0515 113.206 11.2878 113.594 12.5549C114.099 14.32 114.583 16.0849 114.943 17.8792C121.128 12.2996 131.997 3.71771 140.055 3.82086ZM140.081 1.75216C132.613 1.65656 123.356 7.95208 116.15 14.0669C115.963 13.3611 115.765 12.6654 115.566 11.9904C115.567 11.9801 115.556 11.9696 115.557 11.9593C115.12 10.526 114.701 9.2896 114.251 8.07346C113.752 6.62909 112.368 5.65962 110.817 5.63976C109.958 5.62877 109.116 5.918 108.468 6.46834C106.482 8.07745 104.172 9.94105 101.873 11.7013L101.79 11.7623C100.17 12.983 98.6349 14.1427 97.018 15.1876C95.3286 16.2419 93.5361 17.2638 91.8061 18.2555L91.7229 18.2958C88.7318 20.0162 85.6272 21.7144 82.6267 23.3623C76.8236 26.5467 70.8331 29.8322 65.179 33.5048C65.1582 33.5149 65.1374 33.5249 65.1165 33.535C65.0854 33.545 65.0541 33.5653 65.0228 33.5856C64.7417 33.7268 64.471 33.8578 64.221 33.9891C49.0014 27.6699 33.3673 23.8283 22.2377 23.6858C15.1731 23.5954 10.0549 24.9989 7.02874 27.8464C1.22773 33.2965 2.27559 45.9931 4.16877 55.6901C6.61577 68.1874 11.8933 82.614 18.6714 95.3943C17.902 99.7295 17.4729 104.162 17.3747 108.599C16.8899 123.035 20.6376 138.983 27.9312 153.508C28.2337 154.122 28.5464 154.747 28.8391 155.32L28.8593 155.361L28.8996 155.445C29.2022 156.048 29.5355 156.684 29.8789 157.33L29.9699 157.496C30.3437 158.194 30.7481 158.934 31.2438 159.809L31.3956 160.07L31.4765 160.216C31.8811 160.935 32.2962 161.643 32.7114 162.342L32.752 162.404L32.7822 162.467C37.7441 170.848 43.8163 178.964 50.8464 186.596C53.4074 189.38 56.1956 192.199 59.1394 194.978L59.487 195.303L59.6096 195.418C60.1207 195.901 60.6319 196.373 61.1431 196.845C61.7872 197.443 62.4624 198.041 63.1885 198.692C63.3625 198.839 63.526 198.996 63.7 199.143L63.9558 199.364C64.5696 199.91 65.1937 200.445 65.8179 200.981C66.0227 201.149 66.2068 201.317 66.391 201.474C66.698 201.737 67.0153 202 67.3326 202.262C67.2279 203.171 67.1657 203.988 67.166 204.774C67.1001 205.073 67.1168 205.384 67.1855 205.674C67.2843 207.652 67.726 209.519 68.5695 211.506C71.0802 217.414 78.7753 223.203 85.7221 224.419C86.7128 224.608 87.7149 224.714 88.6975 224.726C91.4903 224.762 94.1578 224.072 96.5026 222.736C114.081 233.11 134.315 242.059 156.681 249.37L157.299 249.574L157.557 249.66C158.721 250.037 159.916 250.415 161.091 250.781L161.503 250.911L162.224 251.137C163.862 251.645 165.305 252.087 166.645 252.487C166.975 252.584 167.315 252.64 167.667 252.645C168.019 252.649 168.35 252.602 168.683 252.513C194.957 245.432 218.58 236.155 238.917 224.942C257.463 214.7 273.36 202.81 286.161 189.598C308.69 166.34 321.276 139.211 321.609 113.197C322.214 65.9169 284.239 26.9467 236.949 26.3413C234.322 26.3076 231.714 26.3674 229.209 26.5215C224.777 26.7958 220.404 27.3709 216.214 28.2483C215.425 28.4141 214.637 28.5902 213.848 28.7767C213.049 28.963 212.25 29.17 211.471 29.3773C209.707 29.8513 207.983 30.3775 206.362 30.9258C205.499 31.2147 204.616 31.5345 203.67 31.8948C202.225 32.4349 200.759 33.0472 199.292 33.6905C198.615 33.9922 197.949 34.294 197.304 34.5961C188.79 38.6045 180.382 44.0833 170.222 52.2708C167.223 49.7288 164.448 47.4794 161.795 45.4489C160.462 34.8073 158.137 24.8772 155.202 17.4118C151.776 8.68831 147.765 3.57817 143.262 2.20668C142.293 1.93565 141.209 1.76659 140.081 1.75216Z" fill="#650000"/>
</svg>
