<svg width="245" height="472" viewBox="0 0 245 472" fill="none" xmlns="http://www.w3.org/2000/svg">
<style>
    <![CDATA[
    @keyframes move {
        0% {
            transform: translateY(0);
        }
        20% {
            transform: translateY(-10px);
        }
        40% {
            transform: translateY(0);
        }
        50% {
            transform: translateY(0);
        }
        70% {
            transform: translateY(-10px);
        }
        90% {
            transform: translateY(0);
        }
        100% {
            transform: translateY(0);
        }
    }

    @keyframes fadeIn {
        0% { width: 170px; }
        100% { width: 0; transform: translateX(170px); }
    }

    .eyebrow {
        animation: move 1.5s 1.7s forwards;
    }

    #welcome-overlay {
        animation: fadeIn 1.5s 0.5s forwards;
    }
]]>
</style>
<rect x="14" y="14" width="216" height="453" rx="10" fill="#FF8A42"/>
<path d="M213.165 209.994C215.74 211.918 219.548 215.07 220.796 218.922C221.313 220.524 221.381 221.564 221.089 222.322C220.239 224.521 216.34 224.221 211.743 227.895C208.687 230.328 200.91 237.322 188.402 244.223C181.861 247.843 174.038 251.426 164.924 254.338C157.097 256.83 148.316 258.833 138.61 259.914C133.16 260.513 127.427 260.831 121.387 260.778C115.114 260.723 109.207 260.241 103.68 259.406C92.4302 257.736 82.6844 254.671 74.3569 251.036C64.1831 246.586 56.1301 241.292 50.0418 236.611C42.7048 230.982 38.1984 226.251 36.2268 224.979C31.2528 221.753 24.9719 222.497 23.0334 220.452C22.3786 219.761 22.2192 218.771 22.7522 217.204C24.0708 213.374 27.9362 210.289 30.5461 208.41C30.8984 208.159 30.7731 207.689 30.3595 207.559C19.2313 203.988 14.7506 197.876 21.5333 194.728C31.1278 190.285 36.3771 179.098 38.4432 172.93C40.803 165.825 43.0634 156.856 46.2781 149.823C69.5225 98.9463 122.838 101.885 122.838 101.885C122.838 101.885 176.211 99.879 198.515 151.154C201.6 158.23 203.681 167.249 205.923 174.394C207.862 180.61 212.917 191.887 222.429 196.484C229.152 199.75 224.56 205.783 213.367 209.159C212.965 209.269 212.831 209.737 213.165 209.994Z" fill="#EE7A3B"/>
<path d="M213.165 209.994C215.74 211.918 219.548 215.07 220.796 218.922C221.313 220.511 221.381 221.564 221.089 222.322C220.239 224.521 216.34 224.221 211.743 227.895C208.687 230.341 200.91 237.322 188.402 244.223C181.861 247.843 174.038 251.425 164.924 254.338C157.097 256.843 148.316 258.845 138.61 259.914C133.16 260.513 127.427 260.831 121.387 260.778C115.114 260.723 109.22 260.241 103.68 259.406C92.4302 257.736 82.6843 254.684 74.3569 251.036C64.1961 246.586 56.143 241.292 50.0418 236.611C42.7048 230.981 38.1984 226.251 36.2268 224.979C31.2528 221.753 24.9719 222.497 23.0334 220.452C22.3786 219.761 22.2063 218.771 22.7522 217.204C24.0708 213.374 27.9362 210.289 30.5461 208.41C30.8984 208.159 30.76 207.702 30.3595 207.559C19.2313 203.988 14.7508 197.863 21.5333 194.727C31.1149 190.285 36.3771 179.098 38.4432 172.93C40.803 165.825 43.0634 156.856 46.2781 149.823C69.5223 98.9589 122.838 101.885 122.838 101.885C122.838 101.885 176.211 99.8789 198.515 151.154C201.599 158.242 203.681 167.249 205.923 174.394C207.862 180.598 212.917 191.874 222.416 196.484C229.139 199.75 224.56 205.783 213.354 209.158C212.965 209.269 212.831 209.737 213.165 209.994Z" fill="#FF8A42"/>
<path fill-rule="evenodd" clip-rule="evenodd" d="M188.427 244.203C181.886 247.823 174.062 251.408 164.947 254.321C157.12 256.815 148.338 258.818 138.631 259.9C133.181 260.499 127.448 260.817 121.407 260.764C115.134 260.709 109.227 260.226 103.699 259.391C92.4486 257.72 82.7022 254.655 74.3741 251.018C64.1996 246.566 56.1461 241.27 50.0573 236.588L44.2557 225.024C45.196 225.661 46.1696 226.335 47.1847 227.038C59.987 235.905 79.3798 249.337 121.509 249.705C163.639 250.074 183.276 236.983 196.239 228.342C197.263 227.659 198.245 227.005 199.193 226.387L195.263 235.339L188.427 244.203Z" fill="#E95A1C"/>
<path d="M103.671 259.379C92.4212 257.709 82.6752 254.644 74.3474 251.008C69.2108 247.122 63.9824 241.954 60.8895 235.752C67.261 239.257 75.0334 242.672 84.9006 245.256C88.8877 251.491 95.9741 256.193 103.671 259.379Z" fill="#A62C25"/>
<path d="M182.338 236.824C178.366 244.434 171.155 250.406 164.936 254.32C157.109 256.813 148.327 258.816 138.621 259.897C146.569 256.848 153.975 252.196 158.156 245.906C168.069 243.507 175.903 240.216 182.338 236.824Z" fill="#A62C25"/>
<path d="M199.17 226.375C196.751 232.847 192.648 239.153 188.414 244.201C181.873 247.822 174.049 251.406 164.934 254.319C157.107 256.813 148.325 258.816 138.619 259.898C133.168 260.497 127.436 260.815 121.395 260.762C115.121 260.707 109.214 260.224 103.686 259.389C92.4361 257.718 82.6897 254.653 74.3616 251.016C64.1872 246.564 56.1337 241.269 50.045 236.587C47.7189 232.964 45.681 229.028 44.2658 225.033C57.0719 233.706 76.0497 249.306 121.497 249.704C166.944 250.088 186.219 234.822 199.17 226.375Z" fill="#E95A1C"/>
<path d="M188.41 244.219C181.869 247.839 174.045 251.422 164.931 254.335C157.104 256.828 148.322 258.83 138.616 259.912C133.166 260.511 127.433 260.829 121.392 260.776C115.119 260.721 109.212 260.238 103.684 259.404C92.4343 257.733 82.6881 254.668 74.3602 251.032C64.199 246.582 56.1326 241.287 50.0441 236.606C45.1879 229.007 41.5498 220.061 42.3492 212.093C43.9624 195.978 66.1674 189.085 85.4322 201.628C86.811 202.528 88.1888 203.529 89.5269 204.631C89.8403 204.38 90.1668 204.117 90.5062 203.866C98.3777 197.937 109.586 194.282 122.004 194.391C134.422 194.499 145.574 198.35 153.335 204.415C153.656 204.672 153.978 204.928 154.287 205.184C155.658 204.106 157.041 203.129 158.436 202.254C177.929 190.049 199.99 197.33 201.307 213.47C202.17 223.862 195.475 235.785 188.41 244.219Z" fill="#FDF2E8"/>
<path d="M199.169 226.376C196.75 232.848 192.648 239.166 188.427 244.202C181.886 247.823 174.062 251.407 164.947 254.32C157.12 256.826 148.338 258.829 138.631 259.899C133.181 260.498 127.448 260.815 121.408 260.763C115.134 260.708 109.24 260.225 103.699 259.39C92.4488 257.719 82.7023 254.666 74.3743 251.017C64.2129 246.566 56.1593 241.27 50.0577 236.588C47.7316 232.965 45.6937 229.029 44.2785 225.034C57.0846 233.707 76.0624 249.307 121.509 249.704C166.944 250.089 186.219 234.823 199.169 226.376Z" fill="#F9D3B7"/>
<path d="M103.668 259.38C92.4189 257.71 82.6737 254.645 74.3466 251.01C64.3318 243.443 53.9347 230.941 59.8324 215.463C63.06 207.01 73.7417 202.692 73.7417 202.692C73.7417 202.692 80.3159 201.025 85.4175 201.615C87.567 201.862 89.4664 202.512 90.491 203.852C91.1442 204.708 91.4577 205.851 91.2495 207.345C90.0928 216.133 82.0981 220.031 81.6117 233.44C81.1739 245.783 91.6974 254.42 103.668 259.38Z" fill="#BB3B31"/>
<path d="M164.934 254.333C157.107 256.826 148.327 258.828 138.621 259.91C150.888 255.2 161.88 246.688 161.658 234.161C161.419 220.746 153.498 216.709 152.503 207.902C152.335 206.405 152.657 205.279 153.326 204.423C154.375 203.101 156.286 202.484 158.44 202.262C163.551 201.761 170.094 203.543 170.094 203.543C170.094 203.543 180.694 208.047 183.765 216.555C190.073 234.041 175.924 247.406 164.934 254.333Z" fill="#BB3B31"/>
<path d="M103.671 259.379C92.4212 257.709 82.6752 254.644 74.3474 251.008C69.2108 247.122 63.9824 241.954 60.8895 235.752C67.261 239.257 75.0334 242.672 84.9006 245.256C88.8877 251.491 95.9741 256.193 103.671 259.379Z" fill="#A62C25"/>
<path d="M182.338 236.824C178.366 244.434 171.155 250.406 164.936 254.32C157.109 256.813 148.327 258.816 138.621 259.897C146.569 256.848 153.975 252.196 158.156 245.906C168.069 243.507 175.903 240.216 182.338 236.824Z" fill="#A62C25"/>

<!-- Eyebrows -->
<path class="eyebrow" d="M103.182 153.821C103.182 153.821 96.9021 154.413 90.946 155.058C84.458 155.75 80.0374 152.947 80.4214 149.261C80.8198 145.41 86.5813 143.381 93.0283 144.325C101.715 145.58 103.182 153.821 103.182 153.821Z" fill="#FDF2E8"/>
<path class="eyebrow" d="M141.565 154.164C141.565 154.164 147.833 154.865 153.776 155.614C160.25 156.419 164.722 153.694 164.406 150.002C164.078 146.144 158.355 144.015 151.892 144.846C143.17 145.949 141.565 154.164 141.565 154.164Z" fill="#FDF2E8"/>

<path d="M100.294 191.746C100.213 200.582 93.7178 207.688 85.7985 207.618C77.8791 207.549 71.5163 200.331 71.5977 191.495C71.679 182.66 78.1738 175.554 86.0931 175.623C94.0254 175.692 100.375 182.911 100.294 191.746Z" fill="#650000"/>
<path d="M86.0635 190.216C86.6303 193.415 89.1907 195.491 91.776 194.855C94.3743 194.218 96.0233 191.101 95.4565 187.902C94.8897 184.702 92.3423 182.626 89.744 183.263C87.1587 183.899 85.5097 187.016 86.0635 190.216Z" fill="white"/>
<g opacity="0.35">
<path d="M78.8977 199.698C79.8355 202.013 82.0931 203.187 83.9419 202.303C85.7907 201.419 86.5275 198.827 85.5896 196.511C84.6517 194.196 82.3941 193.022 80.5453 193.906C78.6967 194.777 77.9598 197.382 78.8977 199.698Z" fill="white"/>
</g>
<path d="M143.764 192.134C143.682 200.97 150.045 208.188 157.964 208.257C165.884 208.327 172.379 201.221 172.46 192.385C172.541 183.55 166.178 176.331 158.259 176.262C150.327 176.193 143.845 183.299 143.764 192.134Z" fill="#650000"/>
<path d="M158.019 190.852C157.394 194.041 154.795 196.072 152.222 195.39C149.636 194.708 148.045 191.563 148.67 188.374C149.296 185.185 151.881 183.154 154.467 183.836C157.04 184.517 158.632 187.662 158.019 190.852Z" fill="white"/>
<g opacity="0.35">
<path d="M165.011 200.46C164.03 202.758 161.752 203.892 159.919 202.976C158.087 202.06 157.398 199.455 158.379 197.156C159.359 194.858 161.638 193.724 163.47 194.64C165.302 195.543 165.991 198.161 165.011 200.46Z" fill="white"/>
</g>
<path d="M122.501 210.566L122.306 210.603L122.307 210.538L122.501 210.566Z" fill="#512717"/>
<path d="M122.696 210.542L122.696 210.606L122.502 210.566L122.696 210.542Z" fill="#512717"/>
<path d="M138.53 206.929C137.599 208.1 136.096 212.169 132.762 213.915C128.906 215.935 124.774 214.162 122.852 211.698C122.02 210.626 121.723 209.051 121.731 208.151C121.723 209.064 121.384 210.633 120.545 211.678C118.578 214.121 114.414 215.821 110.596 213.721C107.307 211.918 105.88 207.823 104.958 206.635C104.958 206.635 110.621 195.616 121.846 195.715C133.084 195.825 138.53 206.929 138.53 206.929Z" fill="#FDF2E8"/>
<path d="M125.333 205.838C125.333 205.838 124.55 210.624 128.067 211.58C132.075 212.68 136.457 206.988 136.457 206.988C136.457 206.988 128.72 211.028 129.034 205.123C129.335 199.167 125.333 205.838 125.333 205.838Z" fill="#F9D3B7"/>
<path d="M118.188 205.773C118.188 205.773 118.882 210.572 115.348 211.466C111.32 212.496 107.044 206.728 107.044 206.728C107.044 206.728 114.705 210.903 114.5 204.993C114.296 199.033 118.188 205.773 118.188 205.773Z" fill="#F9D3B7"/>
<path d="M138.531 206.927C138.383 207.497 138.274 208.054 138.14 208.61C138.005 209.167 137.831 209.724 137.644 210.293C137.232 211.392 136.678 212.503 135.852 213.497C135.039 214.492 133.929 215.408 132.64 215.955C131.352 216.514 129.898 216.767 128.472 216.692C127.034 216.641 125.651 216.223 124.399 215.591C123.134 214.959 122.015 214.087 121.079 212.925C120.554 212.235 120.21 211.535 119.97 210.835C119.73 210.136 119.568 209.45 119.51 208.701C119.499 208.511 119.488 208.308 119.49 208.105L119.494 207.687L119.501 206.85C119.507 206.292 119.499 205.747 119.517 205.189L119.517 205.138C119.541 203.909 120.587 202.941 121.832 202.978C123.076 203.001 124.065 204.011 124.041 205.229L124.012 206.889L124.005 207.726L124.001 208.144C123.999 208.347 123.984 208.55 123.969 208.74C123.885 209.5 123.71 210.171 123.457 210.866C123.205 211.548 122.861 212.243 122.31 212.923C121.341 214.055 120.218 214.908 118.942 215.518C117.679 216.128 116.288 216.496 114.862 216.535C113.436 216.586 111.986 216.307 110.721 215.712C109.456 215.131 108.363 214.208 107.594 213.2C106.8 212.191 106.266 211.083 105.861 209.977C105.659 209.43 105.508 208.858 105.371 208.311C105.233 207.752 105.135 207.206 104.971 206.634C105.474 206.981 105.872 207.428 106.283 207.837L107.438 209.077C108.195 209.883 108.94 210.625 109.713 211.202C110.498 211.792 111.259 212.23 112.099 212.478C112.927 212.739 113.768 212.835 114.612 212.741C115.455 212.66 116.275 212.35 117.017 211.938C117.76 211.539 118.414 210.923 118.86 210.331C119.162 209.928 119.455 209.056 119.488 208.333L119.49 208.092L119.494 207.674L119.502 206.837L119.504 205.176L124.041 205.216C124.049 205.774 124.031 206.319 124.025 206.877L124.018 207.714L124.014 208.132C124.013 208.208 124.013 208.271 124.025 208.36C124.07 209.071 124.334 209.948 124.629 210.356C125.077 210.943 125.706 211.558 126.442 211.97C127.177 212.395 127.99 212.706 128.819 212.802C129.648 212.911 130.491 212.829 131.31 212.57C132.142 212.311 132.898 211.912 133.681 211.323C134.464 210.759 135.223 210.03 135.995 209.251L137.186 208.044C137.591 207.693 138.009 207.253 138.531 206.927Z" fill="#650000"/>
<path d="M132.538 201.54C132.511 204.393 124.39 207.948 122.069 207.928C119.671 207.907 112.742 204.499 111.72 201.358C110.813 198.548 114.399 196.221 122.177 196.289C129.733 196.368 132.564 198.7 132.538 201.54Z" fill="#650000"/>
<g opacity="0.7">
<path d="M125.967 198.718C125.961 199.339 123.594 200.106 121.961 200.092C120.328 200.078 117.977 199.271 117.982 198.65C117.988 198.028 119.354 197.545 121.985 197.567C124.616 197.59 125.972 198.109 125.967 198.718Z" fill="white"/>
</g>
<path d="M45.5919 321.263L48.5354 308.847L50.1662 308.862L50.7969 310.41L47.6657 323.059L45.8786 323.043L45.5919 321.263ZM44.6 308.812L46.8608 321.333L46.4353 323.048L44.4041 323.029L41.4459 308.784L44.6 308.812ZM52.7206 321.317L55.1758 308.907L58.3202 308.935L55.1068 323.125L53.0952 323.107L52.7206 321.317ZM51.2306 308.871L53.9894 321.406L53.642 323.112L51.8647 323.096L48.9123 310.384L49.5998 308.857L51.2306 308.871ZM64.1672 323.402C63.3274 323.395 62.5766 323.254 61.915 322.981C61.2534 322.709 60.6935 322.336 60.2355 321.863C59.7841 321.383 59.4407 320.834 59.2054 320.213C58.97 319.592 58.8555 318.93 58.8618 318.227L58.8652 317.856C58.8722 317.068 58.9894 316.344 59.2167 315.682C59.444 315.02 59.7714 314.446 60.199 313.962C60.6331 313.471 61.1638 313.095 61.7912 312.833C62.4186 312.566 63.1327 312.435 63.9335 312.443C64.6821 312.449 65.3483 312.579 65.932 312.832C66.5158 313.078 67.0074 313.43 67.4069 313.89C67.8065 314.343 68.1076 314.889 68.3102 315.529C68.5194 316.162 68.6205 316.873 68.6134 317.66L68.6022 318.91L60.0869 318.834L60.1045 316.871L65.6316 316.921L65.6337 316.686C65.6371 316.315 65.5716 315.989 65.4374 315.708C65.3097 315.427 65.1164 315.21 64.8573 315.058C64.6048 314.9 64.2833 314.819 63.8926 314.815C63.5216 314.812 63.2116 314.887 62.9628 315.041C62.7141 315.195 62.5135 315.415 62.3612 315.7C62.2155 315.979 62.1084 316.306 62.0399 316.683C61.9714 317.054 61.9353 317.454 61.9314 317.884L61.9281 318.255C61.9244 318.665 61.9764 319.04 62.084 319.379C62.1917 319.719 62.3518 320.01 62.5645 320.253C62.7772 320.496 63.0359 320.687 63.3406 320.826C63.6454 320.966 63.9931 321.037 64.3837 321.041C64.8654 321.045 65.3252 320.958 65.763 320.78C66.2009 320.595 66.5811 320.305 66.9037 319.911L68.3148 321.554C68.0971 321.865 67.7917 322.165 67.3985 322.454C67.0118 322.737 66.5475 322.968 66.0055 323.145C65.4635 323.323 64.8507 323.408 64.1672 323.402ZM73.3949 308.289L73.2604 323.288L70.2038 323.261L70.3384 308.262L73.3949 308.289ZM79.891 321.17C80.2165 321.173 80.5002 321.114 80.7422 320.992C80.9842 320.871 81.1713 320.7 81.3035 320.48C81.4422 320.253 81.513 319.98 81.5159 319.661L84.3869 319.687C84.38 320.455 84.1753 321.13 83.773 321.713C83.3771 322.295 82.8457 322.749 82.1786 323.075C81.5117 323.395 80.7616 323.551 79.9283 323.543C79.108 323.536 78.3931 323.396 77.7835 323.124C77.174 322.845 76.6664 322.459 76.2606 321.968C75.8548 321.476 75.5507 320.906 75.3482 320.26C75.1522 319.607 75.0576 318.903 75.0644 318.148L75.0666 317.894C75.0734 317.146 75.1805 316.447 75.3882 315.797C75.6024 315.148 75.9167 314.581 76.3312 314.097C76.7458 313.612 77.2569 313.239 77.8648 312.978C78.4792 312.71 79.1965 312.579 80.0168 312.587C80.8827 312.595 81.6461 312.767 82.3072 313.105C82.9747 313.443 83.4945 313.927 83.8665 314.555C84.2385 315.177 84.4206 315.924 84.4128 316.796L81.5418 316.771C81.5449 316.432 81.4857 316.129 81.3644 315.861C81.2497 315.586 81.0693 315.37 80.8234 315.211C80.5839 315.046 80.2852 314.962 79.9272 314.959C79.5561 314.956 79.2494 315.034 79.007 315.195C78.7713 315.349 78.5903 315.566 78.4641 315.844C78.3379 316.123 78.2504 316.442 78.2016 316.799C78.1529 317.15 78.1267 317.524 78.1232 317.922L78.1209 318.175C78.1173 318.579 78.1366 318.963 78.1789 319.328C78.2213 319.687 78.3031 320.003 78.4243 320.278C78.552 320.553 78.7324 320.769 78.9654 320.927C79.1983 321.086 79.5069 321.167 79.891 321.17ZM85.4743 318.222L85.4761 318.017C85.4831 317.242 85.6001 316.53 85.8273 315.881C86.0546 315.226 86.3852 314.659 86.8192 314.181C87.2532 313.703 87.7838 313.334 88.4112 313.072C89.0386 312.804 89.756 312.674 90.5633 312.681C91.3835 312.689 92.1049 312.832 92.7275 313.111C93.3565 313.384 93.8838 313.763 94.3091 314.248C94.7345 314.734 95.0549 315.306 95.2703 315.966C95.4858 316.619 95.5901 317.333 95.5831 318.108L95.5813 318.313C95.5744 319.081 95.4573 319.793 95.2301 320.448C95.0029 321.097 94.6723 321.664 94.2382 322.148C93.8042 322.626 93.2735 322.996 92.6462 323.257C92.0188 323.519 91.2982 323.646 90.4845 323.638C89.6772 323.631 88.959 323.491 88.3299 323.218C87.7009 322.946 87.1736 322.567 86.7483 322.081C86.323 321.589 86.0026 321.017 85.7871 320.364C85.5717 319.704 85.4674 318.99 85.4743 318.222ZM88.5326 318.044L88.5308 318.249C88.5271 318.666 88.5561 319.057 88.6179 319.422C88.6863 319.787 88.7973 320.107 88.9511 320.382C89.1049 320.657 89.3081 320.874 89.5605 321.032C89.8196 321.184 90.1347 321.262 90.5058 321.265C90.8768 321.269 91.19 321.197 91.4452 321.049C91.7005 320.895 91.9075 320.682 92.0662 320.41C92.2249 320.138 92.3385 319.82 92.4068 319.456C92.4817 319.092 92.521 318.702 92.5248 318.285L92.5266 318.08C92.5303 317.67 92.4979 317.286 92.4295 316.927C92.3677 316.562 92.2599 316.238 92.1062 315.957C91.9525 315.676 91.7461 315.456 91.4871 315.297C91.2346 315.139 90.9195 315.058 90.542 315.054C90.1774 315.051 89.8675 315.126 89.6122 315.28C89.3569 315.434 89.1498 315.651 88.9911 315.929C88.8323 316.208 88.7155 316.529 88.6406 316.893C88.5723 317.25 88.5363 317.634 88.5326 318.044ZM100.268 315.181L100.193 323.53L97.1461 323.503L97.2409 312.937L100.102 312.962L100.268 315.181ZM99.853 317.872L99.0814 317.885C99.088 317.143 99.182 316.463 99.3633 315.846C99.5512 315.223 99.8198 314.682 100.169 314.223C100.518 313.764 100.948 313.409 101.458 313.16C101.974 312.911 102.568 312.789 103.239 312.795C103.707 312.799 104.133 312.875 104.516 313.021C104.899 313.162 105.226 313.383 105.496 313.685C105.774 313.98 105.985 314.366 106.13 314.843C106.276 315.313 106.346 315.877 106.34 316.534L106.277 323.585L103.23 323.557L103.29 316.878C103.294 316.409 103.239 316.054 103.124 315.812C103.015 315.563 102.854 315.393 102.64 315.3C102.426 315.207 102.169 315.159 101.87 315.156C101.544 315.153 101.254 315.222 100.999 315.363C100.75 315.498 100.54 315.688 100.368 315.934C100.197 316.179 100.067 316.468 99.9798 316.799C99.8987 317.131 99.8564 317.488 99.853 317.872ZM106.016 317.771L105.049 317.841C105.055 317.125 105.146 316.462 105.321 315.851C105.495 315.241 105.754 314.712 106.097 314.266C106.439 313.814 106.862 313.462 107.366 313.213C107.876 312.964 108.466 312.842 109.137 312.848C109.631 312.853 110.08 312.928 110.482 313.075C110.891 313.222 111.241 313.456 111.531 313.778C111.827 314.1 112.055 314.521 112.213 315.044C112.371 315.56 112.447 316.192 112.44 316.94L112.38 323.639L109.314 323.612L109.374 316.913C109.378 316.451 109.322 316.099 109.207 315.857C109.099 315.615 108.938 315.447 108.724 315.354C108.516 315.261 108.266 315.213 107.973 315.211C107.647 315.208 107.364 315.274 107.121 315.408C106.879 315.536 106.676 315.717 106.511 315.95C106.346 316.176 106.223 316.445 106.143 316.757C106.062 317.069 106.02 317.407 106.016 317.771ZM119.399 323.898C118.56 323.89 117.809 323.75 117.147 323.477C116.486 323.204 115.926 322.831 115.468 322.358C115.016 321.879 114.673 321.329 114.438 320.708C114.202 320.088 114.088 319.426 114.094 318.723L114.097 318.352C114.104 317.564 114.222 316.839 114.449 316.177C114.676 315.515 115.004 314.942 115.431 314.457C115.865 313.966 116.396 313.59 117.023 313.329C117.651 313.061 118.365 312.931 119.166 312.938C119.914 312.945 120.58 313.074 121.164 313.327C121.748 313.573 122.24 313.926 122.639 314.385C123.039 314.838 123.34 315.384 123.542 316.024C123.752 316.658 123.853 317.368 123.846 318.156L123.834 319.406L115.319 319.33L115.337 317.367L120.864 317.416L120.866 317.182C120.869 316.811 120.804 316.485 120.67 316.204C120.542 315.923 120.349 315.706 120.089 315.554C119.837 315.395 119.515 315.314 119.125 315.311C118.754 315.308 118.444 315.383 118.195 315.537C117.946 315.691 117.746 315.91 117.593 316.196C117.448 316.474 117.341 316.802 117.272 317.179C117.204 317.55 117.167 317.95 117.164 318.379L117.16 318.75C117.157 319.161 117.209 319.535 117.316 319.875C117.424 320.214 117.584 320.506 117.797 320.748C118.009 320.991 118.268 321.182 118.573 321.322C118.878 321.461 119.225 321.533 119.616 321.536C120.098 321.541 120.557 321.454 120.995 321.275C121.433 321.09 121.813 320.801 122.136 320.406L123.547 322.05C123.329 322.361 123.024 322.661 122.631 322.95C122.244 323.233 121.78 323.463 121.238 323.641C120.696 323.818 120.083 323.904 119.399 323.898ZM135.726 313.282L135.707 315.421L129.437 315.364L129.456 313.226L135.726 313.282ZM130.915 310.622L133.972 310.649L133.883 320.522C133.881 320.815 133.914 321.04 133.985 321.196C134.055 321.353 134.171 321.465 134.333 321.532C134.495 321.592 134.704 321.623 134.957 321.625C135.14 321.627 135.296 321.622 135.426 321.61C135.557 321.598 135.677 321.583 135.788 321.564L135.768 323.771C135.507 323.853 135.23 323.916 134.937 323.959C134.643 324.008 134.324 324.032 133.979 324.028C133.321 324.023 132.753 323.91 132.273 323.691C131.799 323.472 131.438 323.13 131.188 322.665C130.939 322.194 130.817 321.585 130.824 320.836L130.915 310.622ZM136.429 318.679L136.431 318.474C136.438 317.699 136.555 316.988 136.782 316.338C137.01 315.683 137.34 315.116 137.774 314.638C138.208 314.16 138.739 313.791 139.366 313.53C139.994 313.262 140.711 313.131 141.518 313.139C142.339 313.146 143.06 313.289 143.682 313.568C144.312 313.841 144.839 314.22 145.264 314.706C145.689 315.191 146.01 315.764 146.225 316.423C146.441 317.076 146.545 317.79 146.538 318.565L146.536 318.77C146.529 319.538 146.412 320.25 146.185 320.905C145.958 321.554 145.627 322.121 145.193 322.606C144.759 323.084 144.229 323.453 143.601 323.714C142.974 323.976 142.253 324.103 141.439 324.095C140.632 324.088 139.914 323.948 139.285 323.676C138.656 323.403 138.129 323.024 137.703 322.538C137.278 322.046 136.958 321.474 136.742 320.821C136.527 320.161 136.422 319.447 136.429 318.679ZM139.488 318.502L139.486 318.707C139.482 319.123 139.511 319.514 139.573 319.879C139.641 320.245 139.752 320.565 139.906 320.839C140.06 321.114 140.263 321.331 140.516 321.489C140.775 321.641 141.09 321.719 141.461 321.722C141.832 321.726 142.145 321.654 142.4 321.506C142.656 321.352 142.863 321.139 143.021 320.867C143.18 320.595 143.293 320.277 143.362 319.913C143.437 319.549 143.476 319.159 143.48 318.742L143.482 318.537C143.485 318.127 143.453 317.743 143.385 317.384C143.323 317.019 143.215 316.696 143.061 316.414C142.907 316.133 142.701 315.913 142.442 315.754C142.19 315.596 141.875 315.515 141.497 315.512C141.132 315.508 140.822 315.584 140.567 315.738C140.312 315.892 140.105 316.108 139.946 316.386C139.787 316.665 139.67 316.986 139.596 317.35C139.527 317.708 139.491 318.091 139.488 318.502ZM156.539 309.816L156.411 324.034L153.228 324.006L153.355 309.788L156.539 309.816ZM165.035 309.892L159.405 316.952L156.131 320.438L155.581 317.474L157.748 314.427L161.129 309.857L165.035 309.892ZM161.216 324.078L157.348 317.548L159.787 315.685L164.985 324.111L161.216 324.078ZM171.443 321.65L171.484 317.119C171.487 316.8 171.44 316.526 171.345 316.297C171.249 316.068 171.098 315.888 170.89 315.756C170.683 315.624 170.414 315.556 170.082 315.553C169.802 315.551 169.557 315.597 169.348 315.693C169.145 315.789 168.988 315.928 168.875 316.109C168.77 316.29 168.716 316.514 168.713 316.781L165.666 316.754C165.671 316.279 165.782 315.837 166.001 315.429C166.219 315.021 166.528 314.662 166.928 314.353C167.335 314.044 167.819 313.808 168.38 313.643C168.941 313.473 169.57 313.39 170.267 313.397C171.094 313.404 171.828 313.551 172.47 313.836C173.119 314.116 173.629 314.534 174.002 315.09C174.375 315.641 174.557 316.332 174.55 317.166L174.51 321.589C174.504 322.227 174.536 322.729 174.604 323.094C174.679 323.453 174.787 323.766 174.928 324.035L174.926 324.201L171.85 324.173C171.71 323.866 171.606 323.487 171.538 323.037C171.471 322.581 171.439 322.118 171.443 321.65ZM171.859 317.727L171.864 319.407L170.35 319.394C170.011 319.391 169.718 319.43 169.47 319.513C169.228 319.595 169.032 319.711 168.881 319.859C168.73 320.001 168.618 320.169 168.544 320.364C168.478 320.552 168.443 320.76 168.441 320.988C168.439 321.203 168.489 321.399 168.592 321.575C168.695 321.745 168.837 321.88 169.018 321.98C169.2 322.079 169.411 322.13 169.652 322.132C170.049 322.135 170.388 322.06 170.669 321.906C170.957 321.753 171.18 321.566 171.338 321.346C171.497 321.12 171.577 320.909 171.578 320.713L172.299 321.989C172.18 322.249 172.034 322.518 171.862 322.796C171.691 323.068 171.474 323.323 171.211 323.562C170.949 323.794 170.631 323.983 170.259 324.129C169.893 324.276 169.453 324.347 168.938 324.342C168.274 324.336 167.673 324.197 167.135 323.926C166.597 323.647 166.168 323.269 165.847 322.791C165.532 322.313 165.377 321.765 165.383 321.146C165.388 320.593 165.493 320.102 165.699 319.674C165.905 319.246 166.211 318.885 166.617 318.589C167.03 318.293 167.546 318.073 168.166 317.929C168.786 317.778 169.509 317.706 170.336 317.714L171.859 317.727ZM179.551 315.931L179.477 324.241L176.42 324.214L176.515 313.648L179.386 313.674L179.551 315.931ZM179.127 318.584L178.365 318.596C178.372 317.802 178.476 317.09 178.677 316.46C178.878 315.831 179.16 315.296 179.522 314.857C179.891 314.411 180.327 314.073 180.83 313.843C181.34 313.613 181.901 313.501 182.513 313.506C183.007 313.511 183.459 313.587 183.868 313.734C184.277 313.88 184.626 314.115 184.917 314.436C185.213 314.751 185.437 315.17 185.589 315.692C185.741 316.208 185.813 316.844 185.806 317.599L185.746 324.298L182.68 324.27L182.74 317.561C182.744 317.119 182.685 316.776 182.564 316.534C182.442 316.292 182.261 316.122 182.021 316.022C181.788 315.922 181.502 315.871 181.163 315.868C180.805 315.864 180.499 315.933 180.243 316.074C179.988 316.209 179.778 316.399 179.613 316.645C179.448 316.891 179.325 317.179 179.244 317.511C179.17 317.842 179.131 318.2 179.127 318.584ZM193.356 321.846L193.397 317.315C193.4 316.996 193.353 316.722 193.258 316.494C193.162 316.265 193.011 316.085 192.804 315.952C192.596 315.82 192.327 315.753 191.995 315.75C191.715 315.747 191.47 315.794 191.261 315.89C191.058 315.986 190.901 316.124 190.789 316.305C190.683 316.487 190.629 316.711 190.626 316.978L187.58 316.951C187.584 316.475 187.695 316.034 187.914 315.625C188.132 315.217 188.442 314.859 188.841 314.55C189.248 314.241 189.732 314.004 190.293 313.84C190.855 313.669 191.484 313.587 192.18 313.593C193.007 313.601 193.741 313.747 194.383 314.033C195.032 314.312 195.543 314.73 195.915 315.287C196.288 315.837 196.47 316.529 196.463 317.362L196.423 321.786C196.418 322.424 196.449 322.926 196.517 323.291C196.592 323.65 196.7 323.963 196.841 324.231L196.839 324.397L193.763 324.37C193.623 324.062 193.519 323.684 193.451 323.234C193.384 322.778 193.352 322.315 193.356 321.846ZM193.772 317.924L193.777 319.604L192.263 319.59C191.925 319.587 191.631 319.627 191.383 319.709C191.142 319.792 190.945 319.907 190.794 320.056C190.643 320.198 190.531 320.366 190.458 320.56C190.391 320.749 190.356 320.957 190.354 321.185C190.352 321.399 190.403 321.595 190.505 321.772C190.608 321.942 190.75 322.077 190.931 322.176C191.113 322.275 191.324 322.326 191.565 322.328C191.962 322.332 192.301 322.257 192.582 322.103C192.87 321.949 193.093 321.763 193.252 321.543C193.41 321.316 193.49 321.105 193.492 320.91L194.213 322.186C194.093 322.445 193.947 322.714 193.776 322.993C193.604 323.265 193.387 323.52 193.124 323.758C192.862 323.99 192.544 324.18 192.172 324.326C191.806 324.472 191.366 324.543 190.852 324.539C190.187 324.533 189.586 324.394 189.049 324.122C188.511 323.844 188.081 323.466 187.76 322.988C187.445 322.509 187.291 321.961 187.296 321.343C187.301 320.789 187.406 320.299 187.612 319.871C187.818 319.443 188.124 319.081 188.53 318.785C188.943 318.49 189.459 318.27 190.079 318.125C190.699 317.975 191.422 317.903 192.249 317.91L193.772 317.924ZM201.957 310.224L201.498 320.015L198.988 319.992L198.705 310.195L201.957 310.224ZM198.502 323.025C198.506 322.589 198.666 322.223 198.981 321.926C199.296 321.629 199.711 321.483 200.225 321.488C200.733 321.493 201.138 321.646 201.442 321.948C201.751 322.25 201.904 322.62 201.9 323.056C201.896 323.499 201.737 323.868 201.422 324.165C201.113 324.455 200.705 324.598 200.197 324.593C199.683 324.589 199.271 324.439 198.961 324.143C198.651 323.841 198.498 323.468 198.502 323.025Z" fill="white"/>
<rect id="welcome-overlay" x="40" y="305" width="170" height="26" fill="#FF8A42"/>
<path d="M29.5677 468.911C29.297 468.911 29.0264 468.847 28.7557 468.847C28.2144 468.782 27.7408 468.718 27.1995 468.654C24.1548 468.139 21.1778 467.238 18.4713 466.015C18.2684 465.951 18.0654 465.822 17.93 465.758C17.4564 465.501 16.9828 465.243 16.5092 464.986C16.3062 464.857 16.1032 464.728 15.9002 464.6C14.8177 463.956 13.8027 463.313 12.7878 462.605C12.5849 462.476 12.4495 462.348 12.2466 462.219C11.7053 461.833 11.2317 461.382 10.6904 460.996C10.5551 460.867 10.3521 460.739 10.2167 460.546C10.0138 460.353 9.87845 460.224 9.67547 460.031C9.47248 459.838 9.33715 459.709 9.13417 459.516C8.99885 459.387 8.93119 459.323 8.79587 459.194C8.66055 459.066 8.52522 458.873 8.3899 458.744C7.57797 457.843 6.76605 456.942 6.02178 455.977C5.88646 455.784 5.75116 455.655 5.61584 455.462C5.20987 454.947 4.87157 454.368 4.53326 453.789C4.39794 453.596 4.26262 453.403 4.1273 453.146C3.24771 451.601 2.43579 449.993 1.82684 448.319C1.75918 448.062 1.69153 447.869 1.5562 447.612C1.15024 446.453 0.811922 445.295 0.608941 444.072C0.54128 443.815 0.541292 443.558 0.473632 443.365C0.135329 441.627 0 439.89 0 438.088V34.1689C0 17.5669 13.8027 3.9249 31.1238 3.15271C15.5619 3.9249 3.11239 16.2156 3.11239 31.2089V440.984C3.18005 455.462 14.75 467.431 29.5677 468.911Z" fill="url(#paint0_linear_239_166)"/>
<path d="M244.998 34.1691V438.024C244.998 441.37 244.457 444.587 243.442 447.547C243.374 447.805 243.306 447.998 243.171 448.255C243.103 448.513 243.036 448.706 242.9 448.963C242.833 449.156 242.765 449.285 242.697 449.478C242.494 449.993 242.291 450.507 242.021 450.958C241.885 451.151 241.818 451.408 241.682 451.601C241.547 451.923 241.344 452.18 241.209 452.502C241.073 452.695 241.006 452.888 240.871 453.081C240.735 453.274 240.6 453.467 240.465 453.725C240.126 454.304 239.72 454.883 239.382 455.398C239.247 455.591 239.111 455.72 238.976 455.913C238.841 456.106 238.705 456.299 238.502 456.492C238.367 456.685 238.232 456.878 238.029 457.071C237.893 457.264 237.69 457.457 237.555 457.65C237.42 457.843 237.217 458.036 237.081 458.229C236.743 458.615 236.405 458.937 236.067 459.259C235.525 459.774 234.984 460.288 234.443 460.803C234.307 460.932 234.104 461.125 233.901 461.254C233.495 461.576 233.09 461.897 232.684 462.219C232.481 462.348 232.345 462.476 232.142 462.605C231.533 463.056 230.924 463.442 230.315 463.828C230.112 463.956 229.91 464.085 229.707 464.214C229.301 464.471 228.827 464.729 228.421 464.986C228.218 465.115 228.015 465.243 227.744 465.308C227.068 465.694 226.323 466.016 225.579 466.337C225.376 466.402 225.173 466.53 224.97 466.595C224.767 466.723 224.497 466.788 224.294 466.852C224.091 466.916 223.82 467.045 223.549 467.11C223.008 467.303 222.467 467.496 221.926 467.624C221.723 467.689 221.52 467.753 221.384 467.817C220.708 468.01 219.963 468.203 219.219 468.332C218.949 468.397 218.678 468.461 218.475 468.461C218.204 468.525 217.934 468.589 217.663 468.589C217.122 468.654 216.648 468.718 216.107 468.783C215.836 468.783 215.565 468.847 215.295 468.847C230.112 467.367 241.682 455.398 241.682 440.919V31.209C241.682 16.4731 229.707 4.37545 214.483 3.21716C231.601 4.37545 244.998 17.8244 244.998 34.1691Z" fill="url(#paint1_linear_239_166)"/>
<path d="M245 438.024V440.984C245 458.101 230.385 472 212.388 472H32.7491C14.7514 472 0.136719 458.101 0.136719 440.984V438.024C0.136719 439.825 0.272027 441.563 0.61033 443.3C0.677991 443.558 0.677999 443.815 0.745659 444.008C1.0163 445.231 1.28694 446.389 1.6929 447.547C1.76056 447.805 1.82822 447.998 1.96354 448.255C2.57249 449.928 3.31677 451.537 4.26401 453.081C4.39934 453.274 4.53464 453.467 4.66996 453.725C5.00826 454.304 5.41423 454.883 5.75253 455.398C5.88785 455.591 6.02318 455.72 6.1585 455.913C6.90277 456.878 7.64703 457.843 8.52662 458.68C8.66194 458.808 8.79727 459.001 8.93259 459.13C9.06791 459.259 9.13557 459.388 9.27089 459.452C9.47387 459.645 9.60918 459.774 9.81217 459.967C10.0151 460.16 10.1505 460.288 10.3535 460.482C10.4888 460.61 10.6918 460.803 10.8271 460.932C11.3007 461.382 11.842 461.768 12.3833 462.155C12.5863 462.283 12.7216 462.412 12.9246 462.541C13.9395 463.249 14.9544 463.956 16.0369 464.535C16.2399 464.664 16.4429 464.793 16.6459 464.922C17.1195 465.179 17.5931 465.436 18.0668 465.694C18.2697 465.758 18.4727 465.887 18.608 465.951C21.3145 467.238 24.2915 468.139 27.3362 468.589C27.8099 468.654 28.3512 468.718 28.8924 468.783C29.4337 468.847 29.9073 468.911 30.4486 468.911C30.7193 468.911 30.9899 468.976 31.2606 468.976C31.7342 468.976 32.2755 469.04 32.8167 469.04H212.455C212.997 469.04 213.47 469.04 213.944 468.976C214.215 468.976 214.485 468.976 214.756 468.911C215.162 468.911 215.635 468.847 216.041 468.783C216.109 468.783 216.244 468.783 216.312 468.783C216.853 468.718 217.327 468.654 217.868 468.589C218.139 468.525 218.41 468.525 218.68 468.461C218.951 468.396 219.221 468.332 219.424 468.332C220.169 468.203 220.913 468.01 221.59 467.817C221.793 467.753 221.996 467.689 222.131 467.624C222.672 467.496 223.213 467.303 223.755 467.109C223.958 467.045 224.228 466.916 224.499 466.852C224.77 466.788 224.973 466.659 225.176 466.595C225.379 466.53 225.582 466.466 225.785 466.337C226.529 466.016 227.205 465.694 227.95 465.308C228.153 465.179 228.356 465.115 228.626 464.986C229.032 464.729 229.506 464.535 229.912 464.214C230.115 464.085 230.318 463.956 230.521 463.828C231.13 463.442 231.739 462.991 232.348 462.605C232.551 462.476 232.686 462.348 232.889 462.219C233.295 461.897 233.701 461.575 234.107 461.254C234.31 461.125 234.445 460.932 234.648 460.803C235.189 460.288 235.731 459.774 236.272 459.259C236.61 458.937 236.949 458.551 237.287 458.229C237.422 458.036 237.625 457.843 237.76 457.65C237.896 457.457 238.099 457.264 238.234 457.071C238.369 456.878 238.572 456.685 238.708 456.492C238.843 456.299 238.978 456.106 239.181 455.913C239.317 455.72 239.452 455.591 239.587 455.398C239.993 454.819 240.332 454.304 240.67 453.725C240.805 453.532 240.941 453.339 241.076 453.081C241.211 452.888 241.279 452.695 241.414 452.502C241.549 452.18 241.752 451.923 241.888 451.601C242.023 451.408 242.091 451.151 242.226 450.958C242.429 450.443 242.7 449.993 242.903 449.478C242.97 449.285 243.038 449.156 243.106 448.963C243.173 448.77 243.309 448.513 243.376 448.255C243.444 448.062 243.512 447.805 243.647 447.547C244.459 444.587 245 441.37 245 438.024Z" fill="url(#paint2_linear_239_166)"/>
<path d="M245 31.2093V34.1693C245 18.0821 232.009 4.76182 215.5 3.2818C215.23 3.2818 214.959 3.21745 214.688 3.21745C214.418 3.21745 214.147 3.1531 213.876 3.1531C213.403 3.1531 212.861 3.08875 212.388 3.08875H32.7491C32.2078 3.08875 31.7342 3.08875 31.2606 3.1531C13.9395 3.92529 0.136719 17.5029 0.136719 34.1693V31.2093C0.136719 30.8875 0.136719 30.6301 0.136719 30.3084C0.136719 30.051 0.136719 29.858 0.136719 29.6006C0.136719 29.0858 0.204367 28.6353 0.272027 28.1205C0.272027 27.8631 0.339692 27.6057 0.339692 27.3483C0.339692 27.2196 0.407357 27.0909 0.407357 26.9622C0.407357 26.8335 0.475021 26.6405 0.475021 26.4475C0.542682 26.1901 0.542669 25.9327 0.61033 25.6753C0.677991 25.2248 0.813328 24.7744 0.880989 24.3883C0.948649 24.1952 1.0163 23.9378 1.0163 23.7448C1.15162 23.1013 1.35461 22.4578 1.55759 21.8143C1.62525 21.6213 1.69291 21.4282 1.76057 21.2352C1.82823 20.9778 1.96354 20.7204 2.03121 20.5273C2.09887 20.3343 2.16654 20.1413 2.2342 19.9482C2.30186 19.7552 2.36951 19.6265 2.43717 19.4334C2.50483 19.2404 2.57249 19.0473 2.70781 18.8543C2.77547 18.7256 2.84314 18.5325 2.9108 18.4038C2.97846 18.2108 3.11379 17.9534 3.24911 17.7603C3.45209 17.3742 3.65507 17.0525 3.85805 16.6664C3.92571 16.4734 4.06103 16.2803 4.19635 16.0873C4.33167 15.8942 4.467 15.6368 4.60232 15.4438C5.4819 13.9637 6.56447 12.6124 7.64704 11.2611C7.78236 11.068 7.98533 10.875 8.12065 10.6819C8.32363 10.4889 8.52663 10.2958 8.66195 10.1028C9.00025 9.78105 9.33855 9.45931 9.67686 9.13756C10.0152 8.81582 10.4211 8.42972 10.7594 8.10797C11.1654 7.78623 11.5037 7.46448 11.9096 7.14274C12.1126 7.01404 12.3156 6.821 12.5186 6.6923C12.9245 6.37055 13.3305 6.11316 13.7365 5.79141C14.1425 5.53402 14.5484 5.21227 15.022 4.95487C15.428 4.69748 15.9016 4.44008 16.3076 4.18269C16.5106 4.05399 16.7812 3.92529 16.9842 3.79659C17.1872 3.66789 17.4578 3.53919 17.6608 3.47484C17.8638 3.34615 18.1344 3.2818 18.3374 3.1531C18.5404 3.0244 18.811 2.96005 19.014 2.83135C19.4876 2.63831 19.9613 2.44526 20.4349 2.25222C20.6379 2.18787 20.9085 2.05916 21.1115 1.99481H21.1791C21.3821 1.93047 21.6528 1.86612 21.8558 1.73742C22.0587 1.67307 22.3294 1.60872 22.5324 1.54437C22.803 1.48002 23.0736 1.41568 23.3443 1.28698C23.6149 1.22263 23.8179 1.15828 24.0885 1.09393C24.3592 1.02958 24.5622 0.965232 24.8328 0.900883C25.1035 0.836534 25.3741 0.772183 25.5771 0.707834C26.1184 0.579136 26.592 0.514787 27.1333 0.386088C27.4039 0.321739 27.6746 0.321741 27.9452 0.257392C28.4865 0.193043 29.0954 0.128692 29.6367 0.0643432C30.1103 -5.89229e-06 30.5163 0 30.9899 0C31.2606 0 31.5312 0 31.8018 0C32.0725 0 32.3431 0 32.6138 0H212.252C212.523 0 212.794 0 213.064 0C213.267 0 213.538 0 213.741 0C214.282 0 214.824 0.0643471 215.297 0.128696C215.568 0.128696 215.838 0.193039 216.109 0.193039C216.38 0.193039 216.65 0.257396 216.921 0.321745C217.192 0.386094 217.462 0.386092 217.733 0.450441C218.004 0.51479 218.274 0.514788 218.477 0.579138C218.748 0.643487 219.019 0.707834 219.222 0.707834C219.424 0.772183 219.695 0.83653 219.898 0.83653C219.966 0.83653 220.033 0.836534 220.033 0.900883C220.236 0.965232 220.439 1.02958 220.71 1.09393C221.048 1.15828 221.319 1.22263 221.59 1.35132C221.793 1.41567 221.996 1.48002 222.199 1.54437C222.672 1.67307 223.078 1.86612 223.552 1.99481C223.89 2.12351 224.161 2.18786 224.431 2.31656C224.634 2.38091 224.837 2.50961 225.108 2.57396C225.311 2.63831 225.582 2.76701 225.785 2.89571C225.988 3.02441 226.258 3.08875 226.461 3.21745C228.085 3.98964 229.641 4.89053 231.13 5.92011C231.333 6.04881 231.468 6.1775 231.671 6.3062C232.348 6.75664 232.957 7.27144 233.566 7.72189C233.836 7.91493 234.107 8.17232 234.377 8.42972C235.46 9.33061 236.407 10.3602 237.287 11.3898C237.422 11.5828 237.625 11.7759 237.76 11.9689C238.099 12.355 238.369 12.7411 238.708 13.1916C238.843 13.3846 239.046 13.5776 239.181 13.835C239.452 14.1568 239.655 14.5429 239.926 14.929C240.061 15.122 240.129 15.3151 240.264 15.5081C240.467 15.8299 240.67 16.216 240.873 16.5377C240.941 16.7308 241.076 16.8595 241.143 17.0525C241.482 17.6316 241.752 18.2751 242.091 18.8543C242.158 18.983 242.226 19.176 242.294 19.3691C242.564 20.0125 242.835 20.5917 243.038 21.2352C243.106 21.4926 243.173 21.6856 243.309 21.943C243.782 23.2943 244.121 24.71 244.324 26.1257C244.324 26.2544 244.391 26.4475 244.391 26.5761C244.459 26.8335 244.459 27.0909 244.527 27.3483C244.527 27.6057 244.594 27.8631 244.594 28.1205C244.594 28.3779 244.662 28.6353 244.662 28.8927C244.662 29.3432 244.729 29.858 244.729 30.3084C245 30.6301 245 30.9519 245 31.2093Z" fill="url(#paint3_linear_239_166)"/>
<path d="M213.875 3.15273C213.401 3.15273 212.86 3.08838 212.386 3.08838H32.7474C32.2061 3.08838 31.7325 3.08838 31.2589 3.15273C15.697 3.92492 3.24744 16.2156 3.24744 31.2089V440.984C3.24744 455.72 15.2233 467.817 30.447 468.975C30.7176 468.975 30.9882 469.04 31.2589 469.04C31.7325 469.04 32.2738 469.104 32.8151 469.104H212.454C212.995 469.104 213.469 469.104 213.942 469.04C214.213 469.04 214.484 469.04 214.754 468.975C229.978 467.817 241.954 455.72 241.954 440.984V31.2089C241.886 16.2156 229.437 3.92492 213.875 3.15273ZM239.383 440.984C239.383 454.304 228.422 465.565 214.484 466.595C214.213 466.595 214.01 466.659 213.739 466.659C213.266 466.659 212.792 466.723 212.318 466.723H32.7474C32.2738 466.723 31.8002 466.723 31.3266 466.659C31.0559 466.659 30.8529 466.659 30.5823 466.595C16.6442 465.565 5.6832 454.304 5.6832 440.984V31.2089C5.6832 17.5669 16.9149 6.30583 31.2589 5.53364H31.3266C31.8002 5.53364 32.2738 5.53364 32.7474 5.53364H212.386C212.86 5.53364 213.333 5.53364 213.807 5.53364H213.875C228.219 6.24148 239.45 17.5026 239.45 31.2089V440.984H239.383Z" fill="black"/>
<path d="M239.383 31.4025V441.177C239.383 443.687 238.977 446.196 238.233 448.513C237.624 450.379 236.812 452.181 235.865 453.79C235.662 454.111 235.459 454.498 235.256 454.819C234.918 455.334 234.58 455.784 234.241 456.299C233.226 457.651 232.008 458.873 230.791 460.032C233.159 456.106 234.512 451.537 234.512 446.711V442.014C234.512 441.756 234.512 441.435 234.512 441.177V31.3382C234.512 31.0164 234.512 30.759 234.512 30.5016V25.8685C234.512 20.978 233.159 16.4092 230.791 12.4839C236.068 17.1814 239.383 23.938 239.383 31.4025Z" fill="url(#paint4_linear_239_166)"/>
<path d="M213.672 7.91479H213.537C213.131 7.91479 212.725 7.91479 212.319 7.91479H32.7481C32.3421 7.91479 31.9362 7.91479 31.5302 7.91479H31.3949H31.3272C18.3364 8.62263 8.18732 18.8541 8.18732 31.2092V440.984C8.18732 453.082 18.1334 463.313 30.7859 464.278C30.9889 464.278 31.1919 464.278 31.3949 464.343H31.4625C31.8685 464.343 32.3421 464.407 32.7481 464.407H212.387C212.793 464.407 213.199 464.407 213.672 464.343H213.74C213.943 464.343 214.146 464.343 214.349 464.278C227.001 463.313 236.948 453.082 236.948 440.984V31.2092C236.88 18.7898 226.663 8.55829 213.672 7.91479ZM230.317 440.984C230.317 449.864 223.077 457.329 213.74 458.036C213.672 458.036 213.537 458.036 213.469 458.036H213.402H213.334H213.266H213.199H213.131C212.86 458.036 212.522 458.036 212.251 458.036H32.7481C32.4098 458.036 32.1391 458.036 31.8008 458.036H31.7332H31.6655H31.5979H31.5302H31.4625C31.3949 458.036 31.3272 458.036 31.1919 458.036C21.9224 457.329 14.6151 449.864 14.6151 440.984V31.2092C14.6151 22.2003 21.9901 14.7358 31.3949 14.1567H31.5302H31.8008C32.0715 14.1567 32.3421 14.1567 32.6128 14.1567H212.251C212.522 14.1567 212.793 14.1567 213.063 14.1567H213.131H213.199C222.739 14.6071 230.249 22.1359 230.249 31.2735V440.984H230.317Z" fill="black"/>
<path d="M183.632 14.0923V16.3444C183.632 23.873 177.204 29.9859 169.288 29.9859H75.781C67.8647 29.9859 61.437 23.873 61.437 16.3444V14.0923H183.632Z" fill="black"/>
<path d="M183.632 14.0923V16.3444C183.632 23.873 177.204 29.9859 169.288 29.9859H75.7808C67.8645 29.9859 61.4368 23.873 61.4368 16.3444V14.0923H183.632Z" fill="black"/>
<path d="M234.376 441.949V446.647C234.376 451.473 233.023 456.041 230.655 459.966C226.325 463.763 220.709 466.272 214.484 466.723C214.214 466.723 214.011 466.787 213.74 466.787C213.266 466.787 212.793 466.851 212.319 466.851H32.748C32.2744 466.851 31.8008 466.851 31.3271 466.787C31.0565 466.787 30.8535 466.787 30.5829 466.723C30.2446 466.723 29.9063 466.658 29.568 466.594C23.7492 465.951 18.5393 463.505 14.412 459.902C12.0439 455.977 10.6907 451.408 10.6907 446.582V441.048C10.6907 447.354 13.6677 453.081 18.4716 456.942C21.9223 459.709 26.2526 461.575 30.9888 461.897C31.1242 461.897 31.3271 461.897 31.4624 461.897H31.5301H31.5978C32.0037 461.897 32.342 461.897 32.748 461.897H212.387C212.793 461.897 213.131 461.897 213.537 461.897H213.605H213.672C213.875 461.897 214.011 461.897 214.214 461.897C225.175 461.189 233.97 452.502 234.376 441.949Z" fill="url(#paint5_linear_239_166)"/>
<path d="M239.384 31.4008C239.384 17.695 228.152 6.43427 213.808 5.66211H213.74C213.267 5.66211 212.793 5.66211 212.319 5.66211H32.7483C32.2746 5.66211 31.801 5.66211 31.3274 5.66211H31.2598C30.6508 5.66211 30.1095 5.72646 29.5006 5.79081C23.6818 6.43428 18.4719 8.8151 14.3446 12.4185C11.9765 16.3437 10.6233 20.9123 10.6233 25.8026V31.3365C10.6233 24.9661 13.6003 19.2393 18.3366 15.3785C21.8549 12.5472 26.3882 10.6812 31.3274 10.4238H31.4627H31.5981C32.004 10.4238 32.3423 10.4238 32.613 10.4238H212.252C212.522 10.4238 212.861 10.4238 213.199 10.4238H213.402C224.769 11.0029 233.768 19.7541 234.241 30.5V25.867C234.241 20.9766 232.888 16.408 230.52 12.4829C236.068 17.1802 239.384 23.9366 239.384 31.4008Z" fill="url(#paint6_linear_239_166)"/>
<path d="M14.4126 459.902C9.06743 455.205 5.68439 448.448 5.68439 441.048V31.2087C5.68439 23.7442 8.99977 16.9875 14.4126 12.29C12.0445 16.2153 10.6913 20.7841 10.6913 25.6746V446.517C10.6913 451.344 12.0445 455.912 14.4126 459.902Z" fill="url(#paint7_linear_239_166)"/>
<path d="M239.384 31.4019V441.177C239.384 443.686 238.978 446.196 238.234 448.512C237.625 450.379 236.813 452.18 235.866 453.789C235.663 454.111 235.46 454.497 235.257 454.819C234.919 455.333 234.58 455.784 234.242 456.299C233.227 457.65 232.009 458.937 230.724 460.031C230.724 460.031 230.724 460.031 230.724 459.967C233.092 456.041 234.445 451.473 234.445 446.646V25.8035C234.445 20.913 233.092 16.3442 230.724 12.4189C236.069 17.1808 239.384 23.9374 239.384 31.4019Z" fill="url(#paint8_linear_239_166)"/>
<path d="M134.916 18.7898H108.663C107.987 18.7898 107.446 18.275 107.446 17.6315V17.0524C107.446 16.4089 107.987 15.8942 108.663 15.8942H134.916C135.592 15.8942 136.134 16.4089 136.134 17.0524V17.6315C136.134 18.3393 135.592 18.7898 134.916 18.7898Z" fill="url(#paint9_linear_239_166)"/>
<defs>
<linearGradient id="paint0_linear_239_166" x1="0.0754415" y1="236.06" x2="3.69196" y2="236.06" gradientUnits="userSpaceOnUse">
<stop stop-color="#666666"/>
<stop offset="1"/>
</linearGradient>
<linearGradient id="paint1_linear_239_166" x1="241.949" y1="236.084" x2="245.534" y2="236.084" gradientUnits="userSpaceOnUse">
<stop/>
<stop offset="1" stop-color="#666666"/>
</linearGradient>
<linearGradient id="paint2_linear_239_166" x1="122.535" y1="472.047" x2="122.535" y2="444.814" gradientUnits="userSpaceOnUse">
<stop stop-color="#959595"/>
<stop offset="1"/>
</linearGradient>
<linearGradient id="paint3_linear_239_166" x1="122.535" y1="26.1875" x2="122.535" y2="-7.81532" gradientUnits="userSpaceOnUse">
<stop/>
<stop offset="1" stop-color="#808080"/>
</linearGradient>
<linearGradient id="paint4_linear_239_166" x1="230.67" y1="236.238" x2="239.376" y2="236.238" gradientUnits="userSpaceOnUse">
<stop stop-color="#F1F1F1"/>
<stop offset="0.00125858" stop-color="#F0F0F0"/>
<stop offset="0.1385" stop-color="#B7B7B7"/>
<stop offset="0.2715" stop-color="#888888"/>
<stop offset="0.397" stop-color="#636363"/>
<stop offset="0.5134" stop-color="#494949"/>
<stop offset="0.6172" stop-color="#393939"/>
<stop offset="0.6978" stop-color="#333333"/>
</linearGradient>
<linearGradient id="paint5_linear_239_166" x1="10.6826" y1="453.985" x2="234.391" y2="453.985" gradientUnits="userSpaceOnUse">
<stop stop-color="#1A1A1A"/>
<stop offset="0.1173" stop-color="#454545"/>
<stop offset="0.2314" stop-color="#666666"/>
<stop offset="0.3395" stop-color="#7E7E7E"/>
<stop offset="0.4393" stop-color="#8D8D8D"/>
<stop offset="0.5229" stop-color="#929292"/>
<stop offset="0.5926" stop-color="#8B8B8B"/>
<stop offset="0.6974" stop-color="#767676"/>
<stop offset="0.8246" stop-color="#545454"/>
<stop offset="0.968" stop-color="#252525"/>
<stop offset="1" stop-color="#1A1A1A"/>
</linearGradient>
<linearGradient id="paint6_linear_239_166" x1="10.6828" y1="18.517" x2="239.395" y2="18.517" gradientUnits="userSpaceOnUse">
<stop stop-color="#1A1A1A"/>
<stop offset="0.1173" stop-color="#454545"/>
<stop offset="0.2314" stop-color="#666666"/>
<stop offset="0.3395" stop-color="#7E7E7E"/>
<stop offset="0.4393" stop-color="#8D8D8D"/>
<stop offset="0.5229" stop-color="#929292"/>
<stop offset="0.5926" stop-color="#8B8B8B"/>
<stop offset="0.6974" stop-color="#767676"/>
<stop offset="0.8246" stop-color="#545454"/>
<stop offset="0.968" stop-color="#252525"/>
<stop offset="1" stop-color="#1A1A1A"/>
</linearGradient>
<linearGradient id="paint7_linear_239_166" x1="5.68513" y1="236.095" x2="10.8503" y2="236.095" gradientUnits="userSpaceOnUse">
<stop stop-color="#C8C8C8"/>
<stop offset="0.2107" stop-color="#A0A0A0"/>
<stop offset="0.5867" stop-color="#5D5D5D"/>
<stop offset="0.8599" stop-color="#343434"/>
<stop offset="1" stop-color="#242424"/>
</linearGradient>
<linearGradient id="paint8_linear_239_166" x1="230.646" y1="236.262" x2="239.377" y2="236.262" gradientUnits="userSpaceOnUse">
<stop stop-color="#242424"/>
<stop offset="0.1401" stop-color="#343434"/>
<stop offset="0.4133" stop-color="#5D5D5D"/>
<stop offset="0.7893" stop-color="#A0A0A0"/>
<stop offset="1" stop-color="#C8C8C8"/>
</linearGradient>
<linearGradient id="paint9_linear_239_166" x1="107.446" y1="17.3872" x2="136.113" y2="17.3872" gradientUnits="userSpaceOnUse">
<stop stop-color="#333333"/>
<stop offset="0.0901238" stop-color="#2B2B2B"/>
<stop offset="0.2885" stop-color="#1E1E1E"/>
<stop offset="0.4787" stop-color="#1A1A1A"/>
<stop offset="0.7885" stop-color="#1C1C1C"/>
<stop offset="0.8999" stop-color="#232323"/>
<stop offset="0.9792" stop-color="#2E2E2E"/>
<stop offset="1" stop-color="#333333"/>
</linearGradient>
</defs>
</svg>
